<?xml version="1.0" encoding="UTF-8" standalone="no"?>
<!DOCTYPE svg PUBLIC "-//W3C//DTD SVG 20010904//EN"
"http://www.w3.org/TR/2001/REC-SVG-20010904/DTD/svg10.dtd">
<!-- Created with Sodipodi ("http://www.sodipodi.com/") -->
<svg
   xmlns:dc="http://purl.org/dc/elements/1.1/"
   xmlns:cc="http://web.resource.org/cc/"
   xmlns:rdf="http://www.w3.org/1999/02/22-rdf-syntax-ns#"
   xmlns:svg="http://www.w3.org/2000/svg"
   xmlns="http://www.w3.org/2000/svg"
   xmlns:sodipodi="http://sodipodi.sourceforge.net/DTD/sodipodi-0.dtd"
   xmlns:inkscape="http://www.inkscape.org/namespaces/inkscape"
   xml:space="preserve"
   width="371pt"
   height="480pt"
   style="shape-rendering:geometricPrecision; text-rendering:geometricPrecision; image-rendering:optimizeQuality; fill-rule:evenodd"
   viewBox="0 0 8268 11692"
   id="svg2"
   sodipodi:version="0.34"
   inkscape:version="0.43"
   sodipodi:docname="D:\Dokumenty\Wikipedie\images\svet\svg\Aland coat of arms.svg"
   xmlns:xlink="http://www.w3.org/1999/xlink"><metadata
   id="metadata266"><rdf:RDF><cc:Work
   rdf:about=""><dc:format>image/svg+xml</dc:format><dc:type
   rdf:resource="http://purl.org/dc/dcmitype/StillImage" /></cc:Work></rdf:RDF></metadata><sodipodi:namedview
   inkscape:window-height="540"
   inkscape:window-width="767"
   inkscape:pageshadow="2"
   inkscape:pageopacity="0.0"
   borderopacity="1.0"
   bordercolor="#666666"
   pagecolor="#ffffff"
   id="base"
   inkscape:zoom="0.35539137"
   inkscape:cx="372.04742"
   inkscape:cy="526.18048"
   inkscape:window-x="132"
   inkscape:window-y="132"
   inkscape:current-layer="svg2" /><defs
   id="defs4"><style
   type="text/css"
   id="style6">
   
    .str1 {stroke:#969594;stroke-width:14}
    .str2 {stroke:#d21034;stroke-width:14}
    .str0 {stroke:#969594;stroke-width:56}
    .fil7 {fill:none}
    .fil0 {fill:#0052a5}
    .fil2 {fill:#D5D5D5}
    .fil9 {fill:#E5E5E5}
    .fil5 {fill:#d21034}
    .fil8 {fill:#d21034}
    .fil6 {fill:#d21034}
    .fil1 {fill:#ffce00}
    .fil4 {fill:#969594}
    .fil3 {fill:#FFFFFF}
   
  </style></defs><g
   id="Layer 2"
   transform="matrix(1.753062,0,0,1.756162,-2004.187,-4339.698)"><g
   id="g9"><path
   class="fil0 str0"
   d="M 5901,4211 L 5901,6973 C 5814,8135 4778,9058 3519,9058 C 2260,9058 1224,8135 1137,6973 L 1137,4211 L 5901,4211 z "
   id="path11"
   style="fill:#0052a5;stroke:#969594;stroke-width:56" /><path
   class="fil1"
   d="M 3569,4918 C 3560,4900 3609,4825 3632,4813 C 3690,4828 3769,4846 3830,4777 C 3900,4699 4006,4606 4073,4524 C 4118,4518 4081,4570 4067,4593 C 4038,4641 3973,4721 3966,4787 C 3955,4883 4055,4878 4175,4915 C 4265,4942 4352,4900 4434,4824 C 4465,4795 4549,4645 4580,4624 C 4584,4627 4586,4629 4586,4632 C 4583,4678 4561,4710 4524,4771 C 4477,4850 4442,4939 4492,4940 C 4572,4943 4633,4891 4682,4832 C 4713,4795 4824,4666 4864,4666 C 4891,4712 4733,4862 4704,4896 C 4640,4974 4562,5020 4463,5019 C 4277,5016 4014,4922 3859,4902 C 3712,4884 3655,4925 3569,4918 z "
   id="path13"
   style="fill:#ffce00" /><path
   class="fil1"
   d="M 3996,5560 C 4073,5601 4571,5605 4628,5595 C 4705,5582 4821,5382 4897,5326 C 4918,5310 4919,5280 4887,5287 C 4864,5292 4830,5323 4808,5338 C 4784,5367 4705,5435 4690,5453 C 4661,5487 4619,5530 4580,5515 C 4490,5481 4585,5373 4616,5329 C 4634,5303 4705,5241 4661,5223 C 4515,5274 4489,5465 4360,5492 C 4266,5513 4078,5493 3968,5393 C 3981,5346 4032,5294 4064,5263 C 4120,5210 4155,5176 4190,5134 C 4113,5062 3947,5316 3845,5317 C 3782,5310 3611,5169 3527,5053 C 3511,5031 3517,4977 3519,4956 C 3525,4893 3616,4794 3667,4725 C 3680,4707 3679,4699 3645,4697 C 3616,4698 3565,4749 3521,4785 C 3496,4805 3410,4919 3337,4922 C 3288,4924 3247,4853 3180,4779 C 3167,4812 3115,4854 3116,4899 C 3411,5128 3660,5379 3996,5560 z "
   id="path15"
   style="fill:#ffce00" /><path
   class="fil1"
   d="M 3463,4516 C 3420,4561 3370,4663 3335,4718 C 3282,4802 3230,4808 3300,4872 C 3325,4882 3361,4884 3391,4874 C 3413,4854 3461,4836 3447,4773 C 3437,4726 3444,4664 3450,4620 C 3456,4580 3487,4534 3463,4516 z "
   id="path17"
   style="fill:#ffce00" /><path
   class="fil1"
   d="M 2947,4919 C 2961,4901 2996,4867 3020,4867 C 3035,4867 3036,4909 3034,4918 C 3030,4938 3000,4956 2989,4966 C 2967,4987 2937,4939 2947,4919 z "
   id="path19"
   style="fill:#ffce00" /><path
   class="fil1"
   d="M 2928,4886 C 2915,4846 3095,4616 3179,4578 C 3203,4568 3220,4587 3221,4604 C 3225,4662 3201,4700 3172,4738 C 3146,4772 3120,4811 3100,4864 C 3093,4881 3073,4876 3052,4876 C 3043,4876 3053,4843 3048,4828 C 3044,4816 3027,4815 3011,4831 C 2997,4845 2950,4894 2928,4886 z "
   id="path21"
   style="fill:#ffce00" /><path
   class="fil1"
   d="M 3445,8456 L 3371,8453 C 3367,8386 3539,8275 3541,8236 C 3551,8091 3702,8137 3752,8088 C 3785,8055 4043,7619 4046,7567 C 4053,7451 3831,7344 3759,7230 C 3683,7109 3697,6875 3759,6740 C 3782,6720 3822,6713 3839,6730 C 3861,6754 3823,6845 3872,6833 C 3978,6806 4117,6777 4237,6787 C 4272,7011 4174,7068 4177,7151 C 4178,7228 4174,7305 4245,7351 C 4280,7375 4363,7455 4355,7510 C 4342,7601 4031,7940 3897,8178 C 3894,8189 3890,8196 3890,8210 C 3890,8240 3960,8251 3947,8306 L 3856,8306 C 3859,8250 3749,8241 3726,8287 C 3710,8320 3720,8333 3720,8371 C 3720,8401 3717,8427 3691,8457 L 3517,8456 C 3521,8409 3555,8395 3575,8375 C 3585,8364 3606,8317 3606,8296 C 3606,8240 3530,8336 3518,8350 C 3486,8390 3453,8432 3445,8456 z "
   id="path23"
   style="fill:#ffce00" /><path
   class="fil1"
   d="M 2999,4731 L 2933,4801 C 2827,4726 2755,4566 2766,4431 C 2824,4479 2826,4541 2864,4594 C 2879,4616 2971,4708 2999,4731 z "
   id="path25"
   style="fill:#ffce00" /><path
   class="fil1"
   d="M 2898,4826 L 2780,4826 C 2718,4750 2579,4641 2575,4524 C 2627,4522 2651,4590 2689,4622 C 2743,4668 2840,4752 2898,4826 z "
   id="path27"
   style="fill:#ffce00" /><path
   class="fil1"
   d="M 1832,5156 C 1845,5206 1873,5239 1929,5248 C 2006,5260 2065,5227 2143,5228 C 2072,5251 2040,5318 1962,5321 C 1833,5324 1816,5250 1832,5156 z "
   id="path29"
   style="fill:#ffce00" /><path
   class="fil1"
   d="M 2118,5115 C 2182,5094 2359,5086 2318,5202 C 2295,5268 2130,5212 2138,5274 C 2152,5396 2347,5272 2429,5292 C 2564,5325 2789,5449 2899,5386 C 2941,5362 2986,5281 3024,5275 C 2982,5312 2964,5375 2918,5404 C 2856,5442 2717,5406 2647,5406 C 2584,5406 2519,5455 2452,5563 C 2480,5560 2492,5561 2518,5575 C 2447,5608 2350,5720 2323,5794 C 2345,5783 2369,5787 2388,5797 C 2328,5854 2246,6027 2246,6107 C 2269,6093 2300,6067 2328,6062 C 2221,6279 2268,6657 2471,6806 C 2425,6719 2416,6654 2439,6574 C 2433,6753 2559,6803 2551,6946 C 2547,7010 2555,7102 2564,7160 C 2568,7181 2579,7228 2592,7265 C 2606,7301 2627,7314 2623,7344 C 2622,7388 2590,7408 2591,7473 C 2592,7524 2613,7539 2623,7578 C 2647,7676 2631,7827 2624,7948 C 2624,8004 2623,8067 2599,8110 C 2585,8137 2535,8180 2530,8214 C 2523,8273 2503,8311 2476,8331 C 2434,8361 2357,8441 2354,8479 C 2386,8479 2418,8479 2450,8479 C 2462,8411 2589,8296 2625,8278 C 2628,8320 2612,8353 2583,8382 C 2559,8406 2512,8450 2497,8479 C 2543,8479 2589,8479 2635,8480 C 2701,8435 2712,8403 2721,8384 C 2732,8360 2725,8301 2734,8271 C 2773,8150 2884,8326 2921,8250 C 2857,8164 2811,8167 2777,8094 C 2742,8018 2747,7780 2757,7581 C 2758,7550 2778,7519 2780,7489 C 2783,7430 2758,7419 2759,7342 C 2760,7284 2812,7233 2810,7119 C 2808,7041 2823,7009 2823,6982 C 2823,6912 2961,6835 2987,6717 C 2999,6796 2969,6821 2927,6873 C 2927,6919 3171,6874 3202,6863 C 3287,6832 3434,6768 3520,6745 C 3583,6728 3773,6683 3839,6694 C 3885,6702 3869,6736 3873,6794 C 3963,6771 4055,6759 4154,6759 C 4276,6759 4235,6772 4247,6666 C 4259,6560 4276,6458 4291,6352 C 4298,6305 4273,6231 4265,6183 C 4290,6235 4315,6286 4312,6353 C 4308,6427 4291,6501 4279,6580 C 4266,6665 4265,6777 4269,6861 C 4279,7040 4342,7191 4376,7241 C 4446,7344 4580,7410 4641,7485 C 4671,7524 4708,7549 4706,7586 C 4703,7705 4602,7836 4546,7951 C 4522,7993 4469,8101 4426,8121 C 4382,8142 4306,8145 4307,8208 C 4311,8350 4194,8384 4155,8478 C 4177,8480 4220,8482 4256,8480 C 4275,8443 4344,8314 4396,8306 C 4398,8327 4394,8368 4386,8382 C 4378,8397 4355,8433 4342,8443 C 4334,8449 4313,8471 4317,8481 C 4342,8482 4419,8483 4488,8482 C 4513,8466 4517,8432 4517,8390 C 4516,8364 4527,8273 4579,8276 C 4620,8278 4597,8298 4631,8320 C 4667,8342 4735,8330 4713,8299 C 4565,8088 4764,7917 4881,7754 C 4985,7609 5039,7524 5009,7467 C 4966,7382 4835,7355 4781,7227 C 4630,6869 5276,6735 4965,6212 C 5069,6188 5139,6428 5240,6352 C 5263,6335 5230,6331 5191,6280 C 5236,6291 5295,6357 5295,6282 C 5295,6212 5182,6157 5117,6116 C 5031,6062 4885,6038 4788,6051 C 4748,5964 4369,5942 4250,5944 C 3964,5949 3881,5905 3613,5875 C 3429,5854 3273,5915 3210,5872 C 3184,5828 3183,5736 3207,5661 C 3220,5684 3247,5695 3262,5715 C 3267,5633 3261,5564 3251,5487 C 3265,5487 3274,5514 3290,5519 C 3293,5280 3262,5050 3073,4936 C 3059,4928 2984,5006 2952,4997 C 2921,4988 2911,4916 2892,4864 C 2880,4831 2736,4841 2593,4863 C 2495,4879 2400,4900 2353,4911 C 2290,4926 2236,4901 2191,4926 C 2140,4954 2072,5005 2060,5041 C 2052,5065 2078,5090 2118,5115 z "
   id="path31"
   style="fill:#ffce00" /><path
   class="fil0"
   d="M 2606,4944 C 2581,4944 2537,4953 2547,4976 C 2562,5013 2578,5012 2603,5014 C 2622,5015 2645,5006 2660,4989 C 2681,4966 2634,4944 2606,4944 z "
   id="path33"
   style="fill:#0052a5" /><path
   class="fil1"
   d="M 2479,6836 C 2399,6800 2326,6676 2294,6602 C 2105,6639 1632,6712 1634,6835 C 1635,6901 1727,7071 1757,7130 C 1815,7245 1865,7411 1873,7554 C 1877,7643 1875,7760 1982,7780 C 2086,7798 2153,7911 2253,7995 L 2253,7910 C 2204,7888 2099,7785 2142,7785 C 2176,7785 2202,7799 2226,7822 C 2242,7839 2266,7890 2291,7887 L 2293,7725 C 2220,7665 2169,7686 2119,7633 C 2051,7558 2196,7521 2196,7463 C 2188,7460 2175,7455 2166,7460 C 2114,7496 2057,7507 2027,7425 C 1991,7325 1901,7041 1907,6928 C 1915,6803 2362,6881 2479,6836 z "
   id="path35"
   style="fill:#ffce00" /></g><g
   id="g37"><g
   id="g39"><path
   class="fil2 str1"
   d="M 3511,2539 C 3663,2539 3787,2663 3787,2815 C 3787,2967 3663,3091 3511,3091 C 3359,3091 3235,2967 3235,2815 C 3235,2663 3359,2539 3511,2539 z "
   id="path41"
   style="fill:#d5d5d5;stroke:#969594;stroke-width:14" /><path
   class="fil3"
   d="M 3354,2646 C 3305,2685 3281,2735 3307,2768 C 3334,2801 3390,2788 3439,2749 C 3487,2710 3508,2659 3482,2626 C 3456,2593 3402,2607 3354,2646 z "
   id="path43"
   style="fill:#ffffff" /><path
   class="fil3"
   d="M 3719,2657 C 3785,2746 3789,2872 3720,2965 C 3635,3081 3472,3106 3356,3021 C 3284,2968 3247,2883 3251,2799 C 3252,2875 3272,2922 3362,2988 C 3451,3053 3616,3049 3699,2936 C 3763,2849 3774,2743 3719,2657 z "
   id="path45"
   style="fill:#ffffff" /></g><g
   id="g47"><path
   class="fil2 str1"
   d="M 5751,2539 C 5903,2539 6027,2663 6027,2815 C 6027,2967 5903,3091 5751,3091 C 5599,3091 5475,2967 5475,2815 C 5475,2663 5599,2539 5751,2539 z "
   id="path49"
   style="fill:#d5d5d5;stroke:#969594;stroke-width:14" /><path
   class="fil3"
   d="M 5594,2646 C 5545,2685 5521,2735 5547,2768 C 5574,2801 5630,2788 5679,2749 C 5727,2710 5748,2659 5722,2626 C 5696,2593 5642,2607 5594,2646 z "
   id="path51"
   style="fill:#ffffff" /><path
   class="fil3"
   d="M 5960,2657 C 6025,2746 6029,2872 5960,2965 C 5875,3081 5712,3106 5596,3021 C 5524,2968 5487,2883 5491,2799 C 5493,2875 5512,2922 5602,2988 C 5691,3053 5856,3049 5939,2936 C 6003,2849 6014,2743 5960,2657 z "
   id="path53"
   style="fill:#ffffff" /></g><g
   id="g55"><path
   class="fil2 str1"
   d="M 5474,3029 C 5626,3029 5750,3153 5750,3305 C 5750,3457 5626,3581 5474,3581 C 5322,3581 5198,3457 5198,3305 C 5198,3153 5322,3029 5474,3029 z "
   id="path57"
   style="fill:#d5d5d5;stroke:#969594;stroke-width:14" /><path
   class="fil3"
   d="M 5316,3135 C 5268,3175 5244,3225 5270,3258 C 5296,3291 5353,3278 5401,3238 C 5449,3199 5471,3149 5445,3116 C 5418,3083 5364,3096 5316,3135 z "
   id="path59"
   style="fill:#ffffff" /><path
   class="fil3"
   d="M 5682,3147 C 5748,3236 5751,3361 5682,3455 C 5598,3570 5434,3595 5319,3511 C 5246,3457 5209,3373 5213,3289 C 5215,3365 5235,3412 5324,3477 C 5414,3543 5579,3539 5662,3426 C 5725,3339 5736,3233 5682,3147 z "
   id="path61"
   style="fill:#ffffff" /></g><g
   id="g63"><path
   class="fil2 str1"
   d="M 4914,3029 C 5066,3029 5190,3153 5190,3305 C 5190,3457 5066,3581 4914,3581 C 4762,3581 4638,3457 4638,3305 C 4638,3153 4762,3029 4914,3029 z "
   id="path65"
   style="fill:#d5d5d5;stroke:#969594;stroke-width:14" /><path
   class="fil3"
   d="M 4756,3135 C 4708,3175 4684,3225 4710,3258 C 4737,3291 4793,3278 4842,3238 C 4890,3199 4911,3149 4885,3116 C 4859,3083 4805,3096 4756,3135 z "
   id="path67"
   style="fill:#ffffff" /><path
   class="fil3"
   d="M 5122,3147 C 5188,3236 5192,3361 5123,3455 C 5038,3570 4875,3595 4759,3511 C 4687,3457 4650,3373 4654,3289 C 4655,3365 4675,3412 4765,3477 C 4854,3543 5019,3539 5102,3426 C 5166,3339 5177,3233 5122,3147 z "
   id="path69"
   style="fill:#ffffff" /></g><g
   id="g71"><path
   class="fil2 str1"
   d="M 4355,3029 C 4507,3029 4631,3153 4631,3305 C 4631,3457 4507,3581 4355,3581 C 4202,3581 4078,3457 4078,3305 C 4078,3153 4202,3029 4355,3029 z "
   id="path73"
   style="fill:#d5d5d5;stroke:#969594;stroke-width:14" /><path
   class="fil3"
   d="M 4197,3135 C 4149,3175 4125,3225 4151,3258 C 4177,3291 4234,3278 4282,3238 C 4330,3199 4352,3149 4325,3116 C 4299,3083 4245,3096 4197,3135 z "
   id="path75"
   style="fill:#ffffff" /><path
   class="fil3"
   d="M 4563,3147 C 4628,3236 4632,3361 4563,3455 C 4478,3570 4315,3595 4200,3511 C 4127,3457 4090,3373 4094,3289 C 4096,3365 4116,3412 4205,3477 C 4295,3543 4460,3539 4543,3426 C 4606,3339 4617,3233 4563,3147 z "
   id="path77"
   style="fill:#ffffff" /></g><g
   id="g79"><path
   class="fil2 str1"
   d="M 3795,3029 C 3947,3029 4071,3153 4071,3305 C 4071,3457 3947,3581 3795,3581 C 3643,3581 3519,3457 3519,3305 C 3519,3153 3643,3029 3795,3029 z "
   id="path81"
   style="fill:#d5d5d5;stroke:#969594;stroke-width:14" /><path
   class="fil3"
   d="M 3637,3135 C 3589,3175 3565,3225 3591,3258 C 3617,3291 3674,3278 3722,3238 C 3771,3199 3792,3149 3766,3116 C 3740,3083 3685,3096 3637,3135 z "
   id="path83"
   style="fill:#ffffff" /><path
   class="fil3"
   d="M 4003,3147 C 4069,3236 4072,3361 4004,3455 C 3919,3570 3756,3595 3640,3511 C 3567,3457 3531,3373 3534,3289 C 3536,3365 3556,3412 3646,3477 C 3735,3543 3900,3539 3983,3426 C 4047,3339 4057,3233 4003,3147 z "
   id="path85"
   style="fill:#ffffff" /></g><g
   id="g87"><path
   class="fil2 str1"
   d="M 3235,3029 C 3387,3029 3512,3153 3512,3305 C 3512,3457 3387,3581 3235,3581 C 3083,3581 2959,3457 2959,3305 C 2959,3153 3083,3029 3235,3029 z "
   id="path89"
   style="fill:#d5d5d5;stroke:#969594;stroke-width:14" /><path
   class="fil3"
   d="M 3078,3135 C 3030,3175 3006,3225 3032,3258 C 3058,3291 3115,3278 3163,3238 C 3211,3199 3233,3149 3206,3116 C 3180,3083 3126,3096 3078,3135 z "
   id="path91"
   style="fill:#ffffff" /><path
   class="fil3"
   d="M 3444,3147 C 3509,3236 3513,3361 3444,3455 C 3359,3570 3196,3595 3081,3511 C 3008,3457 2971,3373 2975,3289 C 2977,3365 2997,3412 3086,3477 C 3175,3543 3341,3539 3424,3426 C 3487,3339 3498,3233 3444,3147 z "
   id="path93"
   style="fill:#ffffff" /></g><g
   id="g95"><path
   class="fil2 str1"
   d="M 2676,3029 C 2828,3029 2952,3153 2952,3305 C 2952,3457 2828,3581 2676,3581 C 2524,3581 2400,3457 2400,3305 C 2400,3153 2524,3029 2676,3029 z "
   id="path97"
   style="fill:#d5d5d5;stroke:#969594;stroke-width:14" /><path
   class="fil3"
   d="M 2518,3135 C 2470,3175 2446,3225 2472,3258 C 2498,3291 2555,3278 2603,3238 C 2651,3199 2673,3149 2647,3116 C 2621,3083 2566,3096 2518,3135 z "
   id="path99"
   style="fill:#ffffff" /><path
   class="fil3"
   d="M 2884,3147 C 2950,3236 2953,3361 2885,3455 C 2800,3570 2636,3595 2521,3511 C 2448,3457 2412,3373 2415,3289 C 2417,3365 2437,3412 2527,3477 C 2616,3543 2781,3539 2864,3426 C 2928,3339 2938,3233 2884,3147 z "
   id="path101"
   style="fill:#ffffff" /></g><g
   id="g103"><path
   class="fil2 str1"
   d="M 2116,3029 C 2268,3029 2392,3153 2392,3305 C 2392,3457 2268,3581 2116,3581 C 1964,3581 1840,3457 1840,3305 C 1840,3153 1964,3029 2116,3029 z "
   id="path105"
   style="fill:#d5d5d5;stroke:#969594;stroke-width:14" /><path
   class="fil3"
   d="M 1959,3135 C 1911,3175 1886,3225 1913,3258 C 1939,3291 1996,3278 2044,3238 C 2092,3199 2113,3149 2087,3116 C 2061,3083 2007,3096 1959,3135 z "
   id="path107"
   style="fill:#ffffff" /><path
   class="fil3"
   d="M 2325,3147 C 2390,3236 2394,3361 2325,3455 C 2240,3570 2077,3595 1961,3511 C 1889,3457 1852,3373 1856,3289 C 1858,3365 1878,3412 1967,3477 C 2056,3543 2222,3539 2304,3426 C 2368,3339 2379,3233 2325,3147 z "
   id="path109"
   style="fill:#ffffff" /></g><g
   id="g111"><path
   class="fil2 str1"
   d="M 1557,3029 C 1709,3029 1833,3153 1833,3305 C 1833,3457 1709,3581 1557,3581 C 1405,3581 1281,3457 1281,3305 C 1281,3153 1405,3029 1557,3029 z "
   id="path113"
   style="fill:#d5d5d5;stroke:#969594;stroke-width:14" /><path
   class="fil3"
   d="M 1399,3135 C 1351,3175 1327,3225 1353,3258 C 1379,3291 1436,3278 1484,3238 C 1532,3199 1554,3149 1528,3116 C 1502,3083 1447,3096 1399,3135 z "
   id="path115"
   style="fill:#ffffff" /><path
   class="fil3"
   d="M 1765,3147 C 1831,3236 1834,3361 1765,3455 C 1681,3570 1517,3595 1402,3511 C 1329,3457 1292,3373 1296,3289 C 1298,3365 1318,3412 1407,3477 C 1497,3543 1662,3539 1745,3426 C 1808,3339 1819,3233 1765,3147 z "
   id="path117"
   style="fill:#ffffff" /></g><g
   id="g119"><path
   class="fil2 str1"
   d="M 1287,2539 C 1439,2539 1563,2663 1563,2815 C 1563,2967 1439,3091 1287,3091 C 1135,3091 1011,2967 1011,2815 C 1011,2663 1135,2539 1287,2539 z "
   id="path121"
   style="fill:#d5d5d5;stroke:#969594;stroke-width:14" /><path
   class="fil3"
   d="M 1129,2646 C 1081,2685 1057,2735 1083,2768 C 1109,2801 1166,2788 1214,2749 C 1262,2710 1284,2659 1258,2626 C 1232,2593 1177,2607 1129,2646 z "
   id="path123"
   style="fill:#ffffff" /><path
   class="fil3"
   d="M 1495,2657 C 1561,2746 1564,2872 1495,2965 C 1411,3081 1247,3106 1132,3021 C 1059,2968 1022,2883 1026,2799 C 1028,2875 1048,2922 1137,2988 C 1227,3053 1392,3049 1475,2936 C 1538,2849 1549,2743 1495,2657 z "
   id="path125"
   style="fill:#ffffff" /></g></g><g
   id="g127"><path
   class="fil4"
   d="M 1228,4056 L 5822,4056 L 5822,4154 L 1228,4154 L 1228,4056 z "
   id="path129"
   style="fill:#969594" /><path
   class="fil4"
   d="M 1228,3606 L 5822,3606 L 5822,3703 L 1228,3703 L 1228,3606 z "
   id="path131"
   style="fill:#969594" /><path
   class="fil1"
   d="M 1295,3702 L 5743,3702 L 5743,4061 L 1295,4061 L 1295,3702 z "
   id="path133"
   style="fill:#ffce00" /><path
   class="fil1"
   d="M 1295,3627 L 5743,3627 L 5743,3679 L 1295,3679 L 1295,3627 z "
   id="path135"
   style="fill:#ffce00" /><path
   class="fil1"
   d="M 1295,4081 L 5743,4081 L 5743,4132 L 1295,4132 L 1295,4081 z "
   id="path137"
   style="fill:#ffce00" /></g><g
   id="g139"><g
   id="g141"><path
   class="fil5"
   d="M 3978,3880 L 3519,3711 L 3519,3880 L 3978,3880 z "
   id="path143"
   style="fill:#d21034" /><path
   class="fil5"
   d="M 3060,3880 L 3519,4049 L 3519,3880 L 3060,3880 z "
   id="path145"
   style="fill:#d21034" /><path
   class="fil6"
   d="M 3060,3880 L 3519,3711 L 3519,3880 L 3060,3880 z "
   id="path147"
   style="fill:#d21034" /><path
   class="fil6"
   d="M 3978,3880 L 3519,4049 L 3519,3880 L 3978,3880 z "
   id="path149"
   style="fill:#d21034" /><path
   class="fil3"
   d="M 3519,3707 L 3519,3880 L 3412,3747 L 3519,3707 z "
   id="path151"
   style="fill:#ffffff" /><path
   class="fil3"
   d="M 3519,4053 L 3519,3880 L 3626,4013 L 3519,4053 z "
   id="path153"
   style="fill:#ffffff" /><path
   class="fil7 str2"
   d="M 3519,4049 L 3058,3880 L 3519,3711 L 3978,3880 L 3519,4049 z "
   id="path155"
   style="fill:none;stroke:#d21034;stroke-width:14" /></g><g
   id="g157"><path
   class="fil0"
   d="M 4638,3740 C 4786,3740 4906,3803 4906,3880 C 4906,3957 4786,4020 4638,4020 C 4491,4020 4371,3957 4371,3880 C 4371,3803 4491,3740 4638,3740 z "
   id="path159"
   style="fill:#0052a5" /><path
   class="fil3"
   d="M 4837,3799 C 4870,3820 4890,3846 4890,3874 C 4890,3942 4775,3998 4633,3998 C 4492,3998 4377,3942 4377,3874 C 4377,3872 4377,3870 4377,3868 C 4384,3933 4492,3984 4625,3984 C 4761,3984 4873,3929 4873,3862 C 4873,3839 4860,3817 4837,3799 z "
   id="path161"
   style="fill:#ffffff" /><path
   class="fil3"
   d="M 4538,3789 C 4577,3779 4611,3784 4614,3801 C 4617,3818 4588,3841 4549,3851 C 4510,3861 4476,3856 4473,3839 C 4470,3822 4499,3799 4538,3789 z "
   id="path163"
   style="fill:#ffffff" /></g><g
   id="g165"><path
   class="fil0"
   d="M 2400,3740 C 2547,3740 2667,3803 2667,3880 C 2667,3957 2547,4020 2400,4020 C 2252,4020 2132,3957 2132,3880 C 2132,3803 2252,3740 2400,3740 z "
   id="path167"
   style="fill:#0052a5" /><path
   class="fil3"
   d="M 2598,3799 C 2631,3820 2651,3846 2651,3874 C 2651,3942 2536,3998 2395,3998 C 2253,3998 2138,3942 2138,3874 C 2138,3872 2138,3870 2139,3868 C 2145,3933 2254,3984 2386,3984 C 2522,3984 2634,3929 2634,3862 C 2634,3839 2621,3817 2598,3799 z "
   id="path169"
   style="fill:#ffffff" /><path
   class="fil3"
   d="M 2299,3789 C 2338,3779 2372,3784 2375,3801 C 2378,3818 2349,3841 2310,3851 C 2272,3861 2237,3856 2234,3839 C 2231,3822 2260,3799 2299,3789 z "
   id="path171"
   style="fill:#ffffff" /></g><g
   id="g173"><path
   class="fil7"
   d="M 5322,3879 L 5781,3711 L 5781,3880 L 5322,3879 z "
   id="path175"
   style="fill:none" /><path
   class="fil7 str2"
   d="M 5741,4049 L 5320,3880 L 5741,3711 L 5818,3879 L 5741,4049 z "
   id="path177"
   style="fill:none;stroke:#d21034;stroke-width:14" /><path
   class="fil6"
   d="M 5320,3880 L 5741,3711 L 5741,3880 L 5320,3880 z "
   id="path179"
   style="fill:#d21034" /><path
   class="fil6"
   d="M 5818,3879 L 5741,3880 L 5741,4049 L 5818,3879 z "
   id="path181"
   style="fill:#d21034" /><path
   class="fil8"
   d="M 5818,3879 L 5741,3708 L 5741,3880 L 5818,3879 z "
   id="path183"
   style="fill:#d21034" /><path
   class="fil8"
   d="M 5321,3880 L 5741,4049 L 5741,3879 L 5321,3880 z "
   id="path185"
   style="fill:#d21034" /><path
   class="fil3"
   d="M 5741,3968 L 5741,3880 L 5781,3880 L 5741,3968 z "
   id="path187"
   style="fill:#ffffff" /><path
   class="fil3"
   d="M 5741,3812 L 5741,3880 L 5552,3880 L 5741,3812 z "
   id="path189"
   style="fill:#ffffff" /></g><g
   id="g191"><path
   class="fil7"
   d="M 1724,3879 L 1265,3711 L 1265,3880 L 1724,3879 z "
   id="path193"
   style="fill:none" /><path
   class="fil7 str2"
   d="M 1304,4049 L 1726,3880 L 1305,3711 L 1228,3879 L 1304,4049 z "
   id="path195"
   style="fill:none;stroke:#d21034;stroke-width:14" /><path
   class="fil6"
   d="M 1726,3881 L 1303,3710 L 1304,3880 L 1726,3881 z "
   id="path197"
   style="fill:#d21034" /><path
   class="fil6"
   d="M 1228,3879 L 1305,3880 L 1304,4049 L 1228,3879 z "
   id="path199"
   style="fill:#d21034" /><path
   class="fil8"
   d="M 1724,3880 L 1304,4049 L 1304,3880 L 1724,3880 z "
   id="path201"
   style="fill:#d21034" /><path
   class="fil8"
   d="M 1228,3879 L 1303,3711 L 1304,3880 L 1228,3879 z "
   id="path203"
   style="fill:#d21034" /><path
   class="fil3"
   d="M 1304,3968 L 1304,3880 L 1265,3880 L 1304,3968 z "
   id="path205"
   style="fill:#ffffff" /><path
   class="fil3"
   d="M 1303,3811 L 1304,3880 L 1493,3880 L 1303,3811 z "
   id="path207"
   style="fill:#ffffff" /></g><g
   id="g209"><g
   id="g211"><path
   class="fil9"
   d="M 2813,3752 C 2845,3752 2872,3779 2872,3811 C 2872,3843 2845,3870 2813,3870 C 2781,3870 2755,3843 2755,3811 C 2755,3779 2781,3752 2813,3752 z "
   id="path213"
   style="fill:#e5e5e5" /><path
   class="fil3"
   d="M 2788,3778 C 2802,3768 2819,3769 2827,3780 C 2834,3790 2829,3807 2815,3817 C 2800,3826 2783,3825 2776,3815 C 2768,3804 2774,3787 2788,3778 z "
   id="path215"
   style="fill:#ffffff" /></g><g
   id="g217"><path
   class="fil9"
   d="M 2813,3890 C 2845,3890 2872,3917 2872,3949 C 2872,3981 2845,4007 2813,4007 C 2781,4007 2755,3981 2755,3949 C 2755,3917 2781,3890 2813,3890 z "
   id="path219"
   style="fill:#e5e5e5" /><path
   class="fil3"
   d="M 2788,3916 C 2802,3906 2819,3907 2827,3918 C 2834,3928 2829,3945 2815,3955 C 2800,3964 2783,3963 2776,3953 C 2768,3942 2774,3925 2788,3916 z "
   id="path221"
   style="fill:#ffffff" /></g></g><g
   id="g223"><g
   id="g225"><path
   class="fil9"
   d="M 4227,3752 C 4259,3752 4286,3779 4286,3811 C 4286,3843 4259,3870 4227,3870 C 4195,3870 4169,3843 4169,3811 C 4169,3779 4195,3752 4227,3752 z "
   id="path227"
   style="fill:#e5e5e5" /><path
   class="fil3"
   d="M 4202,3778 C 4216,3768 4233,3769 4241,3780 C 4248,3790 4243,3807 4229,3817 C 4214,3826 4197,3825 4190,3815 C 4182,3804 4188,3787 4202,3778 z "
   id="path229"
   style="fill:#ffffff" /></g><g
   id="g231"><path
   class="fil9"
   d="M 4227,3890 C 4259,3890 4286,3917 4286,3949 C 4286,3981 4259,4007 4227,4007 C 4195,4007 4169,3981 4169,3949 C 4169,3917 4195,3890 4227,3890 z "
   id="path233"
   style="fill:#e5e5e5" /><path
   class="fil3"
   d="M 4202,3916 C 4216,3906 4233,3907 4241,3918 C 4248,3928 4243,3945 4229,3955 C 4214,3964 4197,3963 4190,3953 C 4182,3942 4188,3925 4202,3916 z "
   id="path235"
   style="fill:#ffffff" /></g></g><g
   id="g237"><g
   id="g239"><path
   class="fil9"
   d="M 1957,3752 C 1989,3752 2015,3779 2015,3811 C 2015,3843 1989,3870 1957,3870 C 1924,3870 1898,3843 1898,3811 C 1898,3779 1924,3752 1957,3752 z "
   id="path241"
   style="fill:#e5e5e5" /><path
   class="fil3"
   d="M 1931,3778 C 1945,3768 1963,3769 1970,3780 C 1978,3790 1972,3807 1958,3817 C 1944,3826 1926,3825 1919,3815 C 1912,3804 1917,3787 1931,3778 z "
   id="path243"
   style="fill:#ffffff" /></g><g
   id="g245"><path
   class="fil9"
   d="M 1957,3890 C 1989,3890 2015,3917 2015,3949 C 2015,3981 1989,4007 1957,4007 C 1924,4007 1898,3981 1898,3949 C 1898,3917 1924,3890 1957,3890 z "
   id="path247"
   style="fill:#e5e5e5" /><path
   class="fil3"
   d="M 1931,3916 C 1945,3906 1963,3907 1970,3918 C 1978,3928 1972,3945 1958,3955 C 1944,3964 1926,3963 1919,3953 C 1912,3942 1917,3925 1931,3916 z "
   id="path249"
   style="fill:#ffffff" /></g></g><g
   id="g251"><g
   id="g253"><path
   class="fil9"
   d="M 5080,3752 C 5112,3752 5138,3779 5138,3811 C 5138,3843 5112,3870 5080,3870 C 5047,3870 5021,3843 5021,3811 C 5021,3779 5047,3752 5080,3752 z "
   id="path255"
   style="fill:#e5e5e5" /><path
   class="fil3"
   d="M 5054,3778 C 5068,3768 5086,3769 5093,3780 C 5101,3790 5095,3807 5081,3817 C 5067,3826 5049,3825 5042,3815 C 5035,3804 5040,3787 5054,3778 z "
   id="path257"
   style="fill:#ffffff" /></g><g
   id="g259"><path
   class="fil9"
   d="M 5080,3890 C 5112,3890 5138,3917 5138,3949 C 5138,3981 5112,4007 5080,4007 C 5047,4007 5021,3981 5021,3949 C 5021,3917 5047,3890 5080,3890 z "
   id="path261"
   style="fill:#e5e5e5" /><path
   class="fil3"
   d="M 5054,3916 C 5068,3906 5086,3907 5093,3918 C 5101,3928 5095,3945 5081,3955 C 5067,3964 5049,3963 5042,3953 C 5035,3942 5040,3925 5054,3916 z "
   id="path263"
   style="fill:#ffffff" /></g></g></g></g></svg>
