<?xml version="1.0" encoding="UTF-8" standalone="no"?>
<!-- Created with Inkscape (http://www.inkscape.org/) -->
<svg xmlns:dc="http://purl.org/dc/elements/1.1/" xmlns:cc="http://creativecommons.org/ns#" xmlns:rdf="http://www.w3.org/1999/02/22-rdf-syntax-ns#" xmlns:svg="http://www.w3.org/2000/svg" xmlns="http://www.w3.org/2000/svg" xmlns:sodipodi="http://sodipodi.sourceforge.net/DTD/sodipodi-0.dtd" xmlns:inkscape="http://www.inkscape.org/namespaces/inkscape" version="1.1" id="svg3680" xml:space="preserve" width="669.1333" height="1007.988" viewBox="0 0 669.1333 1007.988" sodipodi:docname="Emblema e Republikës së Shqipërisë.svg" inkscape:version="0.92.1 r15371"><metadata id="metadata3686"><rdf:RDF><cc:Work rdf:about=""><dc:format>image/svg+xml</dc:format><dc:type rdf:resource="http://purl.org/dc/dcmitype/StillImage"/><dc:title/></cc:Work></rdf:RDF></metadata><defs id="defs3684"><clipPath clipPathUnits="userSpaceOnUse" id="clipPath3696"><path d="M 0,755.991 H 501.85 V 0 H 0 Z" id="path3694" inkscape:connector-curvature="0"/></clipPath></defs><sodipodi:namedview pagecolor="#ffffff" bordercolor="#666666" borderopacity="1" objecttolerance="10" gridtolerance="10" guidetolerance="10" inkscape:pageopacity="0" inkscape:pageshadow="2" inkscape:window-width="1680" inkscape:window-height="987" id="namedview3682" showgrid="false" inkscape:zoom="0.78175536" inkscape:cx="334.56665" inkscape:cy="503.99399" inkscape:window-x="-8" inkscape:window-y="-8" inkscape:window-maximized="1" inkscape:current-layer="g3688"/><g id="g3688" inkscape:groupmode="layer" inkscape:label="Emblema e Republikës së Shqipërisë" transform="matrix(1.3333333,0,0,-1.3333333,0,1007.988)"><g id="g3690"><g id="g3692" clip-path="url(#clipPath3696)"><g id="g3698" transform="translate(501.832,261.9883)"><path d="M 0,0 V 493.893 H -501.031 V 0 c 0,-65.864 -3.263,-114.452 79.546,-180.031 0,0 66.706,-49.129 170.969,-81.847 104.264,32.718 170.97,81.847 170.97,81.847 C 3.263,-114.452 0,-65.864 0,0" style="fill:#d6cb70;fill-opacity:1;fill-rule:nonzero;stroke:none" id="path3700" inkscape:connector-curvature="0"/></g><g id="g3702" transform="translate(482.6855,263.8457)"><path d="M 0,0 V 471.146 H -462.738 V 0 c 0,-60.83 -3.014,-105.705 73.467,-166.271 0,0 61.606,-45.375 157.902,-75.592 96.296,30.217 157.902,75.592 157.902,75.592 C 3.014,-105.705 0,-60.83 0,0" style="fill:#e4201e;fill-opacity:1;fill-rule:nonzero;stroke:none" id="path3704" inkscape:connector-curvature="0"/></g><g id="g3706" transform="translate(324.2539,532.8496)"><path d="m 0,0 c 5.843,0 9.545,-1.826 9.546,-4.263 0,-2.482 -3.703,-4.68 -9.546,-4.68 -5.866,0 -9.499,2.014 -9.499,4.494 C -9.499,-2.011 -5.866,0 0,0 m -145.874,0 c 5.866,0 9.499,-2.011 9.499,-4.449 0,-2.48 -3.633,-4.494 -9.499,-4.494 -5.842,0 -9.546,2.198 -9.546,4.68 10e-4,2.437 3.704,4.263 9.546,4.263 m -1.066,12.928 c -7.21,0.122 -19.175,-2.298 -18.907,-7.831 -20.08,3.442 -22.171,-4.853 -20.991,-12.233 1.91,2.929 4.236,4.519 6.024,4.819 2.677,0.444 5.48,-0.42 8.341,-2.178 2.861,-1.757 6.014,-4.594 7.414,-6.348 -7.087,-1.695 -12.562,-0.601 -18.118,0.371 -2.74,0.479 -6.573,2.02 -8.851,3.614 -2.279,1.595 -2.996,3.096 -6.58,6.766 -4.226,4.326 -8.724,3.108 -7.322,-3.615 3.241,-6.244 8.655,-9.028 15.477,-10.148 3.284,-0.54 8.174,-1.709 13.717,-1.715 5.543,-0.006 11.766,0.801 15.153,0.093 -2.035,-1.277 -4.337,-3.479 -8.897,-4.356 -4.639,-0.891 -11.69,2.758 -15.988,3.754 0.546,-3.616 5.107,-6.997 14.088,-8.758 14.756,-3.214 27.018,-5.656 35.124,-10.056 8.107,-4.4 13.217,-9.909 16.868,-14.226 7.263,-8.59 7.646,-15.185 8.109,-16.635 1.494,-13.725 -3.291,-21.446 -12.187,-23.819 -4.448,-1.186 -12.349,1.048 -15.245,4.449 -2.897,3.4 -5.716,9.244 -4.913,18.396 0.781,3.591 4.887,12.943 1.391,14.875 -16.106,8.902 -35.664,17.904 -49.815,23.262 -3.867,1.464 -7.053,-3.792 -8.294,-5.839 -24.039,2.928 -45.712,19.195 -55.468,36.515 -6.645,11.797 -17.596,-0.024 -15.755,-11.168 2.972,-12.437 12.448,-21.429 23.818,-27.803 11.669,-6.425 26.255,-12.748 41.01,-12.419 7.949,-1.504 7.87,-11.787 -1.668,-13.716 -18.656,-0.118 -33.539,0.347 -47.591,13.902 -10.658,9.731 -16.658,-1.864 -13.577,-8.434 5.222,-20.253 34.115,-25.925 63.345,-19.369 11.32,1.874 4.542,-10.255 1.344,-10.381 -12.213,-8.757 -34.079,-17.325 -53.336,0.093 -8.812,6.748 -14.769,1.076 -11.492,-8.665 8.545,-25.397 41.229,-20.063 63.67,-7.554 5.776,3.22 11.018,-4.271 3.985,-9.963 -27.907,-19.5 -41.86,-19.721 -54.448,-12.233 -15.759,6.215 -17.145,-11.264 -7.785,-17.006 10.403,-6.383 36.878,-1.598 56.302,10.611 8.326,6.191 8.703,-3.489 3.429,-7.321 -23.05,-19.92 -32.135,-25.166 -56.163,-21.919 -11.915,0.929 -11.736,-13.761 -2.363,-19.509 12.796,-7.847 37.787,5.179 57.182,21.27 8.163,4.362 9.504,-2.791 5.468,-11.26 -11.851,-14.952 -22.974,-23.767 -33.689,-27.849 -10.714,-4.083 -21.02,-3.433 -28.313,-0.927 -8.897,3.057 -10.013,-6.19 -5.097,-14.597 2.963,-5.067 15.243,-6.692 28.498,-1.992 13.256,4.699 27.486,15.722 37.257,28.638 8.501,7.441 7.444,-2.557 3.568,-9.593 -19.565,-30.93 -37.459,-42.403 -61.028,-40.454 -10.45,1.775 -12.824,-6.352 -6.163,-13.855 11.695,-9.7 26.319,-9.395 39.11,0.186 11.371,10.963 33.124,34.569 44.532,47.219 8.038,6.409 10.607,0.09 8.248,-12.929 -2.145,-7.455 -7.515,-15.308 -22.15,-21.037 -9.998,-5.706 -2.49,-13.571 5.004,-13.717 4.125,-0.08 12.5,4.741 18.907,11.955 8.429,9.491 8.93,15.863 13.577,30.63 4.391,7.199 12.233,3.839 12.234,-3.707 -3.762,-14.791 -6.993,-17.443 -14.597,-23.493 -7.273,-6.829 5.064,-9.105 9.221,-6.303 12.027,8.106 16.417,18.593 20.436,28.128 2.9,6.883 11.315,3.546 7.414,-7.692 -9.321,-26.859 -24.638,-37.434 -51.436,-42.864 -2.716,-0.483 -4.373,-2.086 -3.429,-5.236 3.597,-3.733 7.2,-7.122 10.797,-10.843 -16.571,-4.825 -30.034,-7.536 -46.617,-12.374 -8.137,5.335 -14.709,9.861 -22.846,15.199 -2.145,5.016 -3.146,12.671 -15.152,7.276 -8.137,3.758 -11.89,2.38 -16.404,-1.39 6.517,-0.243 9.353,-1.988 11.909,-4.959 3.336,-8.787 11.03,-9.636 18.906,-7.136 5.124,-4.316 7.852,-7.627 12.975,-11.955 -9.563,0.326 -16.226,0.496 -25.764,0.787 -9.106,9.777 -16.374,9.242 -22.892,1.576 -4.968,-0.764 -7.073,-0.87 -10.473,-6.905 5.346,2.195 8.709,2.852 11.029,0.463 9.681,-5.612 16.006,-4.359 20.806,0 9.34,-0.571 17.757,-1.054 27.109,-1.668 -3.436,-2.92 -8.15,-4.469 -11.585,-7.414 -14.029,4.013 -21.35,-1.389 -23.819,-12.836 -1.879,-4.62 -2.76,-9.377 -1.945,-14.319 1.357,4.52 3.54,8.407 7.552,10.844 12.504,-3.176 17.205,1.928 17.888,9.406 6.026,4.918 15.115,6.002 21.13,10.982 7.033,-2.251 10.433,-3.645 17.516,-5.884 2.519,-7.653 8.217,-10.683 17.47,-8.712 11.014,-0.346 9.07,-4.866 9.963,-8.48 2.927,5.192 2.845,10.24 -3.939,14.828 -2.469,6.706 -7.937,9.756 -15.107,5.885 -6.748,1.916 -8.522,4.67 -15.245,6.58 17.006,5.421 29.068,6.641 46.061,12.049 4.253,-4.013 7.624,-6.894 11.909,-10.473 2.258,-1.347 4.42,-1.687 5.746,0 10.648,15.411 15.404,28.993 25.301,39.157 3.781,4.205 8.558,9.877 13.855,11.26 2.649,0.691 5.897,0.27 7.97,-1.993 2.075,-2.262 3.704,-6.431 3.013,-12.65 -0.992,-8.928 -3.149,-11.747 -5.654,-17.1 -2.504,-5.351 -5.565,-8.644 -8.712,-12.743 -6.292,-8.196 -14.594,-12.968 -19.508,-16.172 -9.828,-6.408 -13.984,-3.603 -21.594,-3.197 -9.835,-1.104 -12.452,-5.894 -4.402,-12.512 7.525,-3.915 14.29,-4.398 19.787,-3.383 4.72,0.873 10.244,6.965 14.179,10.242 4.43,5.118 11.776,-0.952 6.766,-6.905 -9.104,-10.817 -18.201,-17.949 -29.425,-17.794 -11.796,-1.588 -9.59,-8.216 -1.761,-11.446 14.088,-5.814 26.809,5.077 33.271,12.233 4.986,5.455 8.527,5.668 7.646,-2.78 -4.949,-15.293 -11.713,-21.201 -22.753,-21.965 -8.954,0.832 -9.05,-6.08 -2.501,-10.75 14.917,-10.325 25.721,7.258 30.768,17.887 3.597,9.587 9.114,5.028 9.685,-2.873 0.075,-10.557 -4.696,-19.177 -17.47,-29.982 9.774,-15.572 21.168,-31.411 30.954,-47.034 9.787,15.624 21.181,31.463 30.955,47.035 -12.774,10.805 -17.545,19.424 -17.47,29.982 0.571,7.9 6.088,12.46 9.684,2.873 5.048,-10.629 15.852,-28.213 30.77,-17.887 6.549,4.67 6.451,11.582 -2.502,10.75 -11.04,0.764 -17.804,6.672 -22.753,21.965 -0.881,8.447 2.66,8.234 7.646,2.78 6.462,-7.157 19.183,-18.048 33.271,-12.233 7.828,3.23 10.035,9.858 -1.761,11.445 -11.225,-0.154 -20.321,6.978 -29.424,17.795 -5.01,5.952 2.334,12.023 6.765,6.904 3.936,-3.276 9.459,-9.368 14.18,-10.241 5.497,-1.015 12.261,-0.532 19.786,3.383 8.05,6.617 5.433,11.407 -4.401,12.512 -7.611,-0.407 -11.768,-3.212 -21.595,3.197 -4.914,3.204 -13.216,7.976 -19.509,16.172 -3.146,4.099 -6.207,7.391 -8.711,12.743 -2.506,5.353 -4.662,8.171 -5.654,17.1 -0.692,6.219 0.938,10.388 3.013,12.65 2.073,2.262 5.321,2.684 7.969,1.992 5.297,-1.383 10.075,-7.055 13.856,-11.259 9.897,-10.164 14.653,-23.746 25.301,-39.157 1.327,-1.687 3.488,-1.348 5.746,0 4.285,3.579 7.656,6.46 11.91,10.472 16.992,-5.408 29.054,-6.628 46.06,-12.048 -6.722,-1.91 -8.498,-4.664 -15.246,-6.58 -7.169,3.871 -12.637,0.82 -15.105,-5.885 -6.785,-4.589 -6.867,-9.636 -3.94,-14.829 0.893,3.615 -1.051,8.135 9.963,8.481 9.253,-1.971 14.951,1.059 17.47,8.712 7.083,2.238 10.483,3.632 17.516,5.884 6.015,-4.98 15.103,-6.064 21.13,-10.982 0.682,-7.479 5.384,-12.583 17.887,-9.406 4.013,-2.437 6.195,-6.324 7.554,-10.844 0.813,4.942 -0.067,9.698 -1.946,14.318 -2.469,11.448 -9.79,16.85 -23.819,12.836 -3.435,2.946 -8.149,4.495 -11.585,7.415 9.352,0.614 17.769,1.097 27.109,1.668 4.8,-4.36 11.125,-5.612 20.805,0 2.321,2.388 5.684,1.731 11.03,-0.463 -3.4,6.034 -5.505,6.141 -10.473,6.905 -6.518,7.666 -13.786,8.201 -22.892,-1.576 -9.539,-0.291 -16.201,-0.461 -25.764,-0.788 5.123,4.329 7.851,7.64 12.975,11.956 7.875,-2.501 15.57,-1.651 18.907,7.136 2.555,2.97 5.39,4.716 11.909,4.958 -4.516,3.771 -8.269,5.149 -16.405,1.391 -12.006,5.395 -13.007,-2.26 -15.153,-7.276 -8.136,-5.339 -14.709,-9.865 -22.845,-15.199 -16.584,4.838 -30.047,7.549 -46.617,12.373 3.598,3.721 7.2,7.11 10.797,10.843 0.943,3.15 -0.713,4.753 -3.429,5.236 -26.798,5.429 -42.115,16.005 -51.436,42.864 -3.901,11.238 4.513,14.574 7.414,7.691 4.018,-9.535 8.409,-20.021 20.435,-28.127 4.158,-2.803 16.495,-0.526 9.222,6.302 -7.604,6.05 -10.835,8.702 -14.597,23.494 0.001,7.545 7.843,10.905 12.234,3.707 4.647,-14.768 5.148,-21.14 13.577,-30.63 6.407,-7.215 14.782,-12.036 18.906,-11.956 7.494,0.147 15.002,8.011 5.005,13.717 -14.635,5.729 -20.005,13.582 -22.149,21.037 -2.36,13.019 0.209,19.338 8.248,12.929 11.408,-12.649 33.16,-36.256 44.531,-47.219 12.791,-9.581 27.414,-9.885 39.11,-0.186 6.661,7.503 4.287,15.63 -6.163,13.856 -23.569,-1.95 -41.463,9.523 -61.028,40.453 -3.876,7.036 -4.933,17.035 3.567,9.593 9.772,-12.916 24.002,-23.939 37.257,-28.638 13.255,-4.7 25.535,-3.075 28.499,1.992 4.915,8.407 3.8,17.654 -5.097,14.598 -7.293,-2.506 -17.599,-3.156 -28.314,0.926 -10.714,4.083 -21.837,12.898 -33.688,27.85 -4.036,8.469 -2.696,15.622 5.468,11.26 19.396,-16.091 44.385,-29.117 57.182,-21.27 9.373,5.748 9.552,20.438 -2.363,19.509 -24.028,-3.247 -33.114,1.999 -56.162,21.919 -5.276,3.832 -4.899,13.512 3.428,7.321 19.423,-12.209 45.899,-16.994 56.302,-10.612 9.36,5.742 7.975,23.222 -7.785,17.007 -12.587,-7.488 -26.54,-7.267 -54.447,12.233 -7.034,5.692 -1.791,13.183 3.984,9.963 22.441,-12.509 55.125,-17.843 63.67,7.554 3.277,9.741 -2.681,15.412 -11.492,8.665 -19.256,-17.418 -41.122,-8.85 -53.336,-0.093 -3.197,0.126 -9.976,12.255 1.344,10.38 29.23,-6.555 58.124,-0.883 63.345,19.37 3.081,6.57 -2.92,18.165 -13.578,8.433 -14.052,-13.554 -28.934,-14.019 -47.59,-13.901 -9.539,1.928 -9.617,12.212 -1.668,13.716 14.755,-0.329 29.341,5.993 41.01,12.419 11.37,6.373 20.846,15.366 23.818,27.803 1.841,11.144 -9.11,22.965 -15.755,11.168 -9.756,-17.32 -31.429,-33.587 -55.467,-36.515 -1.242,2.047 -4.428,7.303 -8.295,5.839 -14.151,-5.358 -33.709,-14.36 -49.815,-23.263 -3.496,-1.932 0.61,-11.284 1.391,-14.874 0.803,-9.152 -2.016,-14.997 -4.912,-18.397 -2.897,-3.4 -10.798,-5.635 -15.246,-4.448 -8.896,2.373 -13.682,10.093 -12.188,23.818 0.464,1.451 0.846,8.045 8.11,16.635 3.65,4.317 8.761,9.826 16.868,14.226 8.106,4.401 20.368,6.843 35.124,10.056 8.98,1.762 13.542,5.142 14.088,8.758 -4.298,-0.996 -11.35,-4.645 -15.988,-3.753 -4.56,0.876 -6.862,3.078 -8.897,4.355 3.387,0.709 9.61,-0.098 15.153,-0.092 5.543,0.006 10.434,1.175 13.716,1.715 6.822,1.119 12.236,3.903 15.478,10.147 1.401,6.724 -3.096,7.942 -7.322,3.615 -3.584,-3.67 -4.301,-5.171 -6.58,-6.765 -2.279,-1.595 -6.111,-3.136 -8.851,-3.615 -5.556,-0.971 -11.031,-2.065 -18.117,-0.371 1.4,1.755 4.552,4.591 7.414,6.349 2.861,1.757 5.663,2.622 8.34,2.178 1.788,-0.301 4.114,-1.891 6.025,-4.82 C 42.144,0.244 40.052,8.538 19.972,5.097 20.24,10.63 8.274,13.05 1.065,12.928 -3.018,12.859 -11.394,10.465 -17.424,7.646 -26.962,4.755 -36.442,2.641 -47.544,1.853 c 6.411,-5.385 7.67,-5.692 14.133,-10.287 -9.785,-3.56 -17.365,-10.939 -20.76,-15.755 8.549,-0.41 11.371,0.309 14.274,-0.927 -11.909,-3.448 -17.298,-5.469 -23.587,-11.77 2.226,-0.406 5.536,-0.999 6.95,-1.529 1.463,-0.548 0.857,-1.3 -0.139,-2.363 -2.729,-1.708 -13.176,-14.015 -16.265,-16.868 -3.088,2.853 -13.534,15.16 -16.264,16.868 -0.996,1.064 -1.601,1.815 -0.139,2.363 1.414,0.53 4.724,1.124 6.951,1.529 -6.29,6.301 -11.68,8.322 -23.587,11.77 2.902,1.236 5.725,0.516 14.272,0.927 -3.393,4.816 -10.973,12.195 -20.759,15.755 6.463,4.595 7.722,4.903 14.133,10.288 -11.102,0.787 -20.582,2.901 -30.12,5.792 -6.031,2.819 -14.407,5.214 -18.489,5.282" style="fill:#000000;fill-opacity:1;fill-rule:nonzero;stroke:none" id="path3708" inkscape:connector-curvature="0"/></g><g id="g3710" transform="translate(268.2344,608.9575)"><path d="m 0,0 c -1.52,0 -2.787,-1.307 -2.787,-2.823 0,-1.59 1.267,-2.852 2.787,-2.852 1.465,0 2.776,1.262 2.776,2.852 C 2.776,-1.307 1.467,0 0,0" style="fill:#d6cb70;fill-opacity:1;fill-rule:nonzero;stroke:none" id="path3712" inkscape:connector-curvature="0"/></g><g id="g3714" transform="translate(222.6714,616.46)"><path d="M 0,0 C -0.056,2.954 2.016,4.296 4.605,2.886 7.459,3.995 8.992,3.509 8.881,0.204 10.347,-1.799 10.236,-3.644 7.603,-4.872 5.565,-7.129 3.316,-6.92 1.818,-5.029 -2.116,-3.581 -0.837,-1.68 0,0 m -3.153,-4.927 0.463,-0.752 0.573,-0.662 0.672,-0.566 0.716,-0.453 0.783,-0.441 0.209,-0.057 0.419,-0.397 0.529,-0.447 0.606,-0.373 0.649,-0.288 0.673,-0.221 0.683,-0.142 0.761,-0.057 0.716,0.057 0.694,0.142 0.717,0.221 0.639,0.288 0.661,0.363 0.594,0.446 0.551,0.465 0.176,0.186 0.143,0.09 0.607,0.351 0.583,0.442 0.54,0.509 0.463,0.543 0.407,0.651 0.287,0.696 0.232,0.741 0.088,0.753 -0.033,0.73 -0.088,0.706 -0.177,0.656 -0.22,0.629 -0.297,0.571 -0.143,0.249 -0.021,0.56 L 11.558,2.026 11.349,2.802 11.071,3.543 10.565,4.239 9.969,4.879 9.253,5.377 8.47,5.7 7.71,5.854 6.972,5.91 6.267,5.854 5.617,5.786 4.989,5.633 4.779,5.576 4.493,5.644 3.744,5.842 2.961,5.91 2.19,5.898 1.375,5.785 0.626,5.502 -0.058,5.145 -0.763,4.636 -1.303,4.053 -1.821,3.397 -2.174,2.649 -2.427,1.914 -2.637,1.145 -2.714,0.37 -2.747,0.29 -2.967,-0.117 -3.154,-0.604 -3.319,-1.158 -3.484,-1.764 -3.605,-2.46 v -0.775 l 0.176,-0.844 z" style="fill:#d6cb70;fill-opacity:1;fill-rule:nonzero;stroke:none" id="path3716" inkscape:connector-curvature="0"/></g><g id="g3718" transform="translate(226.957,612.2295)"><path d="M 0,0 C 1.532,0 2.799,1.273 2.799,2.829 2.799,4.379 1.532,5.64 0,5.64 -1.521,5.64 -2.766,4.378 -2.766,2.829 -2.766,1.273 -1.521,0 0,0" style="fill:#d6cb70;fill-opacity:1;fill-rule:nonzero;stroke:none" id="path3720" inkscape:connector-curvature="0"/></g><g id="g3722" transform="translate(286.2187,670.4907)"><path d="M 0,0 C -2.557,-2.116 -5.19,-4.227 -7.779,-6.337 1.709,-0.945 11.449,6.27 20.441,7.327 23.086,6.852 23.383,5.149 23.35,3.35 22.436,2.398 21.531,1.448 20.616,0.475 11.79,-3.486 2.964,-7.486 -5.818,-11.481 c 2.478,0.532 4.98,1.109 7.449,1.635 0.814,0.266 1.631,-0.408 2.435,-1.998 -0.662,-1.25 -1.3,-2.523 -1.95,-3.814 -4.672,-5.522 -4.617,-10.575 -4.397,-15.651 0.992,-2.24 1.962,-4.463 2.954,-6.665 2.269,-3.349 4.141,-6.626 3.723,-9.523 -0.87,-1.336 -1.951,-1.579 -3.239,-0.639 -17.289,22.503 -33.718,20.755 -46.787,19.504 -0.396,-0.062 -0.804,0.662 -1.201,0.634 6.369,5.161 18.237,5.087 23.989,7.339 -14.204,0.045 -17.388,-1.545 -27.427,-5.658 -1.609,0.096 -3.251,0.21 -4.859,0.339 -1.301,-0.254 -1.554,-0.984 -0.629,-2.201 0.971,-0.278 3.394,-0.05 2.899,-0.973 -0.805,-1.568 -3.141,-1.556 -4.695,-2.343 -1.586,0.832 -2.082,1.868 -1.444,3.186 1.72,1.936 3.46,3.859 5.191,5.817 6.447,3.7 12.959,7.338 19.45,11.011 0.814,1.46 2.368,1.771 4.504,0.973 4.288,-2.574 9.346,-3.259 14.955,-2.665 -1.929,1.727 -3.515,3.452 -2.755,5.19 -1.157,-0.182 -2.282,-0.357 -3.416,-0.51 -2.59,-1.063 -4.981,-0.855 -6.194,0.153 -0.528,0.554 -1.212,1.126 -0.33,1.681 2.115,1.816 5.003,1.646 7.988,1.193 1.687,4.81 4.397,9.201 14.105,10.802 1.179,0.934 2.402,1.885 3.57,2.834 1.146,3.435 3.658,2.994 5.784,3.549 1.578,1.646 3.207,3.383 6.877,3.938 C 23.57,24.292 36.837,27.121 50.159,29.474 30.875,22.356 7.791,10.141 0,0 m 4.352,-54.867 c -0.165,-0.419 -0.232,-0.894 -0.717,-1.251 -22.798,4.646 -45.079,9.223 -67.867,13.88 -0.617,0.475 -1.167,1.125 -0.87,1.923 1.168,1.709 2.666,3.18 4.154,4.618 6.16,5.058 27.139,6.947 60.033,-12.16 3.284,-2.575 6.071,-5.064 5.267,-7.01 m 0.121,-6.339 -1.377,-5.296 c -0.518,0.651 -1.19,1.031 -1.873,1.031 -0.276,0 -0.518,-0.046 -0.76,-0.136 l 1.355,5.047 c 0.243,0.917 0.948,1.556 1.553,1.392 l 0.442,-0.08 c 0.627,-0.186 0.914,-1.063 0.66,-1.958 m 3.515,-3.637 c -2.181,1.171 -4.275,-9.432 -2.876,-10.627 -1.476,-1.646 -2.974,-0.593 -4.485,0.889 1.434,3.933 2.844,7.871 4.254,11.787 2.094,1.532 5.301,-3.209 3.107,-2.049 M 4.584,-84.697 c 0.254,-2.214 0.145,-4.239 -0.143,-6.174 h -82.523 c 0,2.677 -0.342,3.978 -1.058,7.893 -0.11,0.633 8.154,-0.984 19.559,-2.993 12.837,-2.257 30.094,-1.194 43.394,-0.996 h 0.287 c 11.614,1.392 20.375,1.557 20.484,2.27 m -80.033,16.86 c 22.447,-7.044 46.104,-10.173 72.871,-13.173 0.385,-1.391 -0.154,-2.166 -1.709,-2.421 -22.38,-2.466 -44.793,-2.145 -58.92,0 -7.835,1.33 -10.468,4.147 -12.341,7.175 0.264,2.547 -1.29,8.861 0.099,8.419 m 3.428,2.994 c -0.629,0.684 -1.092,1.386 -2.502,2.049 0.385,0.616 0.738,1.238 1.113,1.799 1.09,-0.267 1.851,-1.137 2.248,-2.411 1.18,-1.76 0.32,-1.738 -0.859,-1.437 m -0.629,15.006 c 1.433,1.041 1.664,-0.012 1.752,-1.392 -0.319,-2.348 -0.871,-4.436 -1.477,-6.445 0,-1.873 -0.859,-2.212 -2.501,-0.995 -0.573,2.941 0.462,5.9 2.226,8.832 m 20.54,-20.896 c -0.408,0.758 -3.162,0.548 -4.926,0.65 -0.375,0.617 -1.19,1.335 0.22,1.636 1.598,-0.288 3.438,0.821 5.135,0.52 1.191,-0.487 0,-3.548 -0.429,-2.806 m 14.522,18.31 -4.815,-17.439 c -0.287,-0.906 -1.004,-1.55 -1.642,-1.392 l -0.462,0.119 c -0.596,0.147 -0.948,1.018 -0.662,1.969 l 4.838,17.428 c 0.265,0.95 0.982,1.543 1.653,1.403 l 0.429,-0.097 c 0.64,-0.158 0.948,-1.041 0.661,-1.991 m 3.781,-0.645 -4.87,-17.467 c -0.231,-0.917 -0.981,-1.528 -1.576,-1.386 l -0.507,0.102 c -0.595,0.187 -0.948,1.052 -0.66,1.958 l 4.815,17.439 c 0.263,0.95 0.98,1.578 1.652,1.425 l 0.452,-0.102 c 0.606,-0.13 0.959,-1.019 0.694,-1.969 m 3.713,-0.65 -4.838,-17.468 c -0.23,-0.934 -0.947,-1.562 -1.619,-1.397 l -0.463,0.102 c -0.595,0.164 -0.947,1.029 -0.683,1.946 l 4.858,17.467 c 0.276,0.95 0.993,1.54 1.654,1.425 l 0.441,-0.152 c 0.617,-0.13 0.947,-0.974 0.65,-1.923 m -1.664,-14.917 0.716,-1.867 0.198,-0.322 -0.429,-1.55 c -0.264,-0.905 -0.969,-1.544 -1.642,-1.392 l -0.44,0.114 c -0.629,0.152 -0.949,1.018 -0.684,1.968 l 2.07,7.503 -0.109,-0.871 v -1.726 z m 3.02,-4.333 0.661,-0.6 -0.056,-0.306 c -0.287,-0.945 -1.004,-1.538 -1.587,-1.386 l -0.485,0.102 c -0.639,0.164 -0.947,1.03 -0.693,1.969 l 0.605,2.133 0.342,-0.566 z m 23.47,3.87 -2.138,-7.656 c -0.254,-0.95 -0.981,-1.556 -1.609,-1.436 l -0.428,0.135 c -0.661,0.142 -0.982,0.996 -0.695,1.935 l 0.397,1.602 0.177,0.113 1.036,0.753 0.981,0.939 0.959,1.126 0.804,1.295 z m 2.745,9.794 -2.116,-7.65 0.155,1.313 -0.034,1.516 -0.209,1.393 -0.341,1.294 -0.43,1.127 -0.089,0.255 -0.087,0.243 0.373,1.177 c 0.232,0.906 0.981,1.534 1.62,1.392 l 0.431,-0.113 c 0.672,-0.175 0.947,-1.019 0.727,-1.947 M 1.3,-76.742 0.551,-79.085 c -0.255,-0.73 -0.948,-1.279 -1.555,-1.126 l -0.43,0.108 c -0.606,0.102 -0.924,0.843 -0.66,1.584 l 1.256,3.938 c 0.44,-1.121 1.223,-1.912 2.138,-2.161 m -5.124,-0.861 c -0.242,-0.916 -0.947,-1.539 -1.61,-1.358 l -0.462,0.085 c -0.639,0.158 -0.958,1.063 -0.671,1.958 l 4.837,17.472 c 0.263,0.906 0.992,1.557 1.619,1.393 l 0.463,-0.119 C 0.98,-58.308 1.3,-59.19 1.013,-60.119 Z m -4.242,16.168 0.351,-0.905 0.254,-0.962 0.155,-1.052 0.022,-1.137 -0.155,-1.16 -0.307,-1.171 -0.486,-1.044 -0.651,-0.996 -0.682,-0.848 -0.783,-0.713 -0.771,-0.606 -0.694,-0.43 -0.626,-0.565 -0.839,-0.571 -0.87,-0.532 -0.949,-0.43 -0.98,-0.323 -1.058,-0.209 -1.08,-0.068 -1.069,0.068 -1.058,0.221 -0.98,0.351 -0.949,0.424 -0.836,0.561 -0.806,0.611 -0.177,0.163 -0.782,0.397 -0.982,0.645 -0.957,0.792 -0.893,1.007 -0.717,1.239 -0.506,1.33 -0.243,1.347 -0.032,1.262 0.198,1.069 0.209,0.91 0.287,0.753 0.232,0.628 0.088,0.119 0.055,0.425 0.264,1.115 0.375,1.086 0.551,1.07 0.705,1.007 0.882,0.905 1.036,0.753 1.123,0.588 1.146,0.373 1.191,0.244 1.145,0.011 1.137,-0.141 0.627,-0.124 0.264,0.056 0.925,0.13 1.004,0.079 1.09,-0.09 1.213,-0.266 1.266,-0.537 1.191,-0.821 1.003,-1.007 0.716,-1.183 0.496,-1.126 0.308,-1.098 0.177,-1.069 v -0.068 z m -37.123,6.408 1.089,3.972 c 0.266,0.918 1.004,1.54 1.654,1.404 l 0.429,-0.13 c 0.661,-0.175 0.948,-1.007 0.717,-1.958 l -4.87,-17.428 c -0.265,-0.95 -0.981,-1.567 -1.621,-1.426 l -0.452,0.102 c -0.639,0.153 -0.959,1.025 -0.695,1.963 l 1.675,5.986 0.805,1.335 0.661,1.45 0.408,1.572 0.22,1.602 v 1.505 z m -24.761,-1.266 0.155,1.081 0.253,0.933 0.287,0.758 0.22,0.589 0.066,0.119 0.067,0.447 0.254,1.103 0.374,1.069 0.573,1.065 0.728,1.007 0.848,0.929 1.025,0.752 1.124,0.578 1.158,0.373 1.167,0.243 1.168,0.011 1.146,-0.113 0.595,-0.152 0.297,0.067 0.892,0.142 1.004,0.056 1.123,-0.101 1.212,-0.232 1.235,-0.537 1.19,-0.832 1.002,-1.031 0.728,-1.159 0.496,-1.161 0.309,-1.091 0.176,-1.052 v -0.057 l 0.254,-0.498 0.32,-0.893 0.264,-0.985 0.143,-1.042 0.055,-1.137 -0.166,-1.171 -0.33,-1.155 -0.453,-1.06 -0.661,-0.962 -0.673,-0.877 -0.804,-0.713 -0.771,-0.588 -0.705,-0.419 -0.628,-0.577 -0.839,-0.6 -0.87,-0.515 -0.948,-0.401 -0.981,-0.363 -1.035,-0.198 -1.058,-0.057 -1.102,0.057 -1.036,0.243 -1.013,0.329 -0.915,0.441 -0.87,0.544 -0.772,0.6 -0.176,0.186 -0.816,0.407 -0.981,0.644 -0.947,0.782 -0.849,1.029 -0.76,1.195 -0.518,1.341 -0.231,1.358 z M 68.572,32.055 C 43.967,32.564 22.545,27.121 3.581,13.853 -0.056,14.255 -2.303,13.236 -3.097,10.78 -6.215,9.207 -9.334,7.674 -12.408,6.073 -15.592,5.604 -18.756,5.139 -21.916,4.641 -24.518,4.024 -26.259,2.191 -27.9,0.12 c -1.819,-2.235 -3.637,-4.436 -5.455,-6.7 -6.478,-4.843 -13.223,-9.014 -20.197,-12.441 -4.177,-2.717 -6.931,-6.134 -8.265,-10.304 0,-1.324 0.662,-2.829 0.662,-4.159 -1.907,-2.087 -3.802,-4.022 -5.708,-6.134 -5.212,-1.216 -5.103,-0.6 -6.403,-3.604 -2.071,-0.668 -2.391,-2.653 -2.479,-4.901 -5.895,-2.953 -4.263,-7.706 -3.14,-9.94 -1.498,-2.444 -1.774,-5.274 0.981,-6.423 0.154,-3.87 0.286,-8.912 -1.345,-12.528 -0.153,-0.854 -0.353,-1.679 -0.528,-2.511 0.231,-0.651 0.495,-1.325 0.728,-1.981 -0.728,-0.419 -1.41,-0.848 -2.105,-1.29 0.165,-3.299 0.881,-6.706 1.068,-10.02 29.246,-0.035 57.961,-0.023 87.185,-0.097 -0.122,3.038 -0.265,6.055 -0.342,9.042 -1.477,0.499 -2.975,0.986 -4.419,1.449 0.056,0.589 0.109,1.205 0.187,1.821 1.466,-0.175 2.037,0.543 1.774,2.151 0.375,1.057 0.892,1.958 2.281,2.009 0.397,1.98 1.004,3.87 3.141,4.855 1.961,0.973 2.535,2.28 1.762,3.983 -0.749,0.538 -1.51,1.092 -2.28,1.602 0.254,1.205 0.197,2.608 -0.518,3.825 1.499,3.637 0.606,4.809 -1.851,5.919 -0.86,1.742 -2.193,4.079 -3.119,5.794 3.183,1.67 4.242,3.978 3.205,6.898 -2.908,3.559 -5.531,7.576 -7.206,13.177 0.374,4.097 1.047,8.131 4.386,11.181 2.357,3.707 3.074,7.367 2.998,11.034 5.498,2.58 11.007,5.188 16.539,7.763 1.357,1.703 1.179,2.337 2.05,4.029 1.202,2.156 0.75,4.011 -1.013,4.651 -0.573,0.169 -1.807,0.645 -2.424,0.808 4.439,2.456 9.609,4.227 15.338,5.352 2.877,0.583 5.906,0.962 9.08,1.205 3.195,0.232 6.478,0.329 9.918,0.232 h 0.494 c 0.166,0 0.617,-0.114 0.486,0 -5.255,4.023 -13.896,4.414 -29.113,1.556 0,0.425 0,0.854 0.033,1.239 6.27,3.333 13.191,5.687 19.934,7.576 6.776,1.924 13.289,3.418 18.908,4.996 0.836,0.243 2.07,0.821 1.244,0.821" style="fill:#d6cb70;fill-opacity:1;fill-rule:nonzero;stroke:none" id="path3724" inkscape:connector-curvature="0"/></g><g id="g3726" transform="translate(271.5518,602.6543)"><path d="M 0,0 C -2.071,-2.247 -4.319,-2.082 -5.817,-0.192 -9.72,1.256 -8.474,3.191 -7.604,4.855 -7.714,7.791 -5.652,9.121 -3.019,7.781 -0.165,8.867 1.355,8.392 1.268,5.064 2.711,3.084 2.567,1.194 0,0 M 4.296,4.606 4.076,5.229 3.778,5.806 3.636,6.055 3.603,6.632 3.46,7.384 3.262,8.125 2.938,8.878 2.476,9.585 l -0.627,0.64 -0.694,0.508 -0.783,0.323 -0.781,0.164 -0.717,0.056 -0.728,-0.045 -0.649,-0.12 -0.641,-0.146 -0.175,-0.057 -0.287,0.102 -0.771,0.175 -0.782,0.09 L -5.942,11.253 -6.714,11.111 -7.462,10.846 -8.179,10.479 -8.851,10.003 -9.424,9.409 -9.909,8.765 -10.24,8.023 -10.515,7.265 -10.726,6.513 -10.813,5.704 -10.88,5.659 -11.077,5.229 -11.254,4.765 -11.452,4.232 -11.63,3.593 -11.706,2.897 V 2.089 l 0.132,-0.832 0.32,-0.814 0.441,-0.764 0.606,-0.685 0.64,-0.554 0.716,-0.464 0.805,-0.408 0.197,-0.079 0.41,-0.385 0.549,-0.453 0.585,-0.379 0.628,-0.288 0.717,-0.209 0.693,-0.164 0.717,-0.034 0.728,0.034 0.749,0.164 0.694,0.209 0.628,0.288 0.672,0.379 0.562,0.453 0.551,0.487 0.177,0.13 0.143,0.068 0.628,0.429 0.583,0.396 0.552,0.499 0.462,0.576 0.386,0.673 0.331,0.674 0.21,0.73 0.077,0.753 V 3.226 L 4.462,3.944 Z" style="fill:#d6cb70;fill-opacity:1;fill-rule:nonzero;stroke:none" id="path3728" inkscape:connector-curvature="0"/></g></g></g></g></svg>