<?xml version="1.0" encoding="UTF-8" standalone="no"?>
<!-- Created with Inkscape (http://www.inkscape.org/) -->

<svg
   xmlns:dc="http://purl.org/dc/elements/1.1/"
   xmlns:cc="http://creativecommons.org/ns#"
   xmlns:rdf="http://www.w3.org/1999/02/22-rdf-syntax-ns#"
   xmlns:svg="http://www.w3.org/2000/svg"
   xmlns="http://www.w3.org/2000/svg"
   xmlns:sodipodi="http://sodipodi.sourceforge.net/DTD/sodipodi-0.dtd"
   xmlns:inkscape="http://www.inkscape.org/namespaces/inkscape"
   width="302.08179"
   height="326.18231"
   id="svg2"
   sodipodi:version="0.32"
   inkscape:version="0.48.2 r9819"
   version="1.0"
   sodipodi:docname="AJAX.svg"
   inkscape:output_extension="org.inkscape.output.svg.inkscape">
  <defs
     id="defs4">
    <inkscape:perspective
       sodipodi:type="inkscape:persp3d"
       inkscape:vp_x="0 : 526.18109 : 1"
       inkscape:vp_y="0 : 1000 : 0"
       inkscape:vp_z="744.09448 : 526.18109 : 1"
       inkscape:persp3d-origin="372.04724 : 350.78739 : 1"
       id="perspective10" />
    <inkscape:perspective
       id="perspective2390"
       inkscape:persp3d-origin="372.04724 : 350.78739 : 1"
       inkscape:vp_z="744.09448 : 526.18109 : 1"
       inkscape:vp_y="0 : 1000 : 0"
       inkscape:vp_x="0 : 526.18109 : 1"
       sodipodi:type="inkscape:persp3d" />
  </defs>
  <sodipodi:namedview
     id="base"
     pagecolor="#ffffff"
     bordercolor="#666666"
     borderopacity="1.0"
     gridtolerance="10000"
     guidetolerance="10"
     objecttolerance="10"
     inkscape:pageopacity="0.0"
     inkscape:pageshadow="2"
     inkscape:zoom="1"
     inkscape:cx="267.30171"
     inkscape:cy="234.75654"
     inkscape:document-units="px"
     inkscape:current-layer="layer1"
     showgrid="false"
     showguides="true"
     inkscape:guide-bbox="true"
     inkscape:window-width="1280"
     inkscape:window-height="968"
     inkscape:window-x="-4"
     inkscape:window-y="-4"
     fit-margin-top="0"
     fit-margin-left="0"
     fit-margin-right="0"
     fit-margin-bottom="0"
     inkscape:window-maximized="0" />
  <metadata
     id="metadata7">
    <rdf:RDF>
      <cc:Work
         rdf:about="">
        <dc:format>image/svg+xml</dc:format>
        <dc:type
           rdf:resource="http://purl.org/dc/dcmitype/StillImage" />
      </cc:Work>
    </rdf:RDF>
  </metadata>
  <g
     inkscape:label="Layer 1"
     inkscape:groupmode="layer"
     id="layer1"
     transform="translate(-286.08815,-111.31307)">
    <g
       id="g4749">
      <path
         id="path4747"
         style="fill:#ffcc33;fill-opacity:1;fill-rule:evenodd;stroke:none"
         d="m 515.43229,209.9756 c 0,73.19975 -13.56413,132.56004 -80.56288,182.5157 -66.99874,-49.95566 -80.56287,-109.31595 -80.56287,-182.5157 l 161.12575,0 z"
         sodipodi:nodetypes="cccc"
         inkscape:connector-curvature="0" />
      <path
         sodipodi:nodetypes="cccccccc"
         d="m 518.87286,206.65866 c 0,73.58452 -13.9751,136.29113 -84.00345,186.04113 -70.02834,-49.75 -84.00344,-112.45661 -84.00344,-186.04113 l 168.00689,0 z m -4.98548,5.06694 c 0,71.79604 -13.30402,130.01801 -79.01797,179.0157 -65.71394,-48.99769 -79.01796,-107.21966 -79.01796,-179.0157 l 158.03593,0 z"
         style="fill:#006633;fill-opacity:1;fill-rule:evenodd;stroke:none"
         id="path3185"
         inkscape:connector-curvature="0" />
    </g>
    <g
       id="g4743">
      <path
         sodipodi:nodetypes="cscccccccccccccccccccccsscssc"
         id="path3215"
         style="fill:#ffffff;fill-rule:evenodd;stroke:none"
         d="m 448.76785,286.03182 c 0,0 4.125,-0.8125 15.75,-18.1875 11.625,-17.375 21.625,-34.625 21.625,-34.625 7.74221,7.38864 8.4403,16.67938 1.75,24.875 11.04731,1.11432 5.45424,16.22989 0.25,21.375 10.23826,3.58765 1.35721,16.79054 -4.875,20.25 5.51027,2.93515 0.50159,10.15118 -3.125,12.625 -3,1.5 -5.75,1.625 -5.75,1.625 3.12992,9.97697 -11.85289,11.61043 -19.125,10.25 l 9.125,9.75 c 0,0 1.3125,1.3125 1.3125,2.6875 -0.66258,4.93953 -5.10345,8.26778 -9.3125,5.8125 -0.22452,6.38417 -8.62879,8.93181 -12,3.875 -3.77109,5.90111 -9.7355,4.94797 -13.875,0.125 -3.55148,3.96215 -13.90514,2.4846 -11.69108,-3.894 -5.16025,2.38773 -13.00644,-2.87188 -8.83884,-8.3085 0.97228,-0.97227 9.19239,-9.8995 9.19239,-9.8995 -4.07948,4.82986 -24.78348,-4.91526 -19.26866,-9.8111 -7.16422,-1.64076 -11.9193,-7.29227 -9.28077,-14.49569 -7.55308,-1.75042 -14.27509,-19.68174 -3.31457,-19.66641 -8.36522,-1.25972 -11.96307,-25.87687 -0.48613,-21.43417 -9.55845,-7.96739 -5.44457,-17.45681 1.23743,-25.63263 10.52051,18.12457 22.21719,35.54431 34.32523,52.642 0,0 1.77344,-15 7.125,-23 5.35156,-8 10,-7.375 12.25,-8.125 2.25,-0.75 11.875,-6.25 11.875,-6.25 0,0 -2.375,6.875 -6,12.625 -3.625,5.75 -4.125,16.875 -2.25,20.125 1.875,3.25 3.375,4.625 3.375,4.6875 z"
         inkscape:connector-curvature="0" />
      <path
         d="m 452.14918,313.31878 c 2.35164,-8.70116 1.17965,-16.58918 -1.41422,-25.0139 14.68168,-16.47647 23.33401,-32.49671 35.09018,-50.29297 10.33883,8.36962 4.06171,18.29347 -5.18229,23.58241 17.92643,-7.25708 11.60804,12.42318 3.5,20 11.8842,-3.39114 5.73494,16.22281 -4.5,17.75 10.1096,5.28041 -0.6667,13.77403 -9.75,13.375 9.4249,8.72537 -13.27108,12.14773 -18.875,8.125 0,0 2.89909,4.23011 6.78818,8.47275 3.88909,4.24264 5.92202,5.94296 5.92202,7.86656 0,4.91428 -5.29196,5.62886 -8.48528,2.56327 0.48145,8.58129 -8.4964,9.68938 -11.13693,2.03293 -2.40846,9.0274 -10.1521,10.02863 -12.99309,0.92807 -3.55693,7.78988 -11.81583,5.41918 -11.3579,-2.91681 -7.28413,5.17383 -11.82896,-1.49703 -6.93849,-6.58493 1.59099,-1.67938 9.36917,-10.78338 9.36917,-10.78338 -8.18296,3.65677 -31.24365,-4.41313 -16.97057,-9.28078 -8.19164,2.32652 -22.89227,-12.58675 -8.13172,-12.9047 -13.19376,-1.95571 -23.54038,-23.06435 -1.85616,-16.52862 -11.34201,-2.22381 -23.54548,-31.86001 -0.97227,-21.2132 -11.22917,-5.50451 -15.42315,-16.80141 -6.89429,-26.87006 13.06479,18.16809 23.14015,38.27664 36.416,56.30338 1.24794,-11.73154 3.06197,-32.57731 16.6612,-35.35534 5.19887,-1.06202 11.18113,-5.48008 11.18113,-5.48008 0,0 -1.50261,4.06587 -4.77297,8.66206 -5.27053,7.87237 -5.83166,17.36341 -0.70711,25.19068 5.7995,8.8582 5.90026,18.41805 6.01041,28.37266 z m -3.38133,-27.28696 c 0,0 4.125,-0.8125 15.75,-18.1875 11.625,-17.375 21.625,-34.625 21.625,-34.625 7.74221,7.38864 8.4403,16.67938 1.75,24.875 11.04731,1.11432 5.45424,16.22989 0.25,21.375 10.23826,3.58765 1.35721,16.79054 -4.875,20.25 5.51027,2.93515 0.50159,10.15118 -3.125,12.625 -3,1.5 -5.75,1.625 -5.75,1.625 3.12992,9.97697 -11.85289,11.61043 -19.125,10.25 l 9.125,9.75 c 0,0 1.3125,1.3125 1.3125,2.6875 -0.66258,4.93953 -5.10345,8.26778 -9.3125,5.8125 -0.22452,6.38417 -8.62879,8.93181 -12,3.875 -3.77109,5.90111 -9.7355,4.94797 -13.875,0.125 -3.55148,3.96215 -13.90514,2.4846 -11.69108,-3.894 -5.16025,2.38773 -13.00644,-2.87188 -8.83884,-8.3085 0.97228,-0.97227 9.19239,-9.8995 9.19239,-9.8995 -4.07948,4.82986 -24.78348,-4.91526 -19.26866,-9.8111 -7.16422,-1.64076 -11.9193,-7.29227 -9.28077,-14.49569 -7.55308,-1.75042 -14.27509,-19.68174 -3.31457,-19.66641 -8.36522,-1.25972 -11.96307,-25.87687 -0.48613,-21.43417 -9.55845,-7.96739 -5.44457,-17.45681 1.23743,-25.63263 10.52051,18.12457 22.21719,35.54431 34.32523,52.642 0,0 1.77344,-15 7.125,-23 5.35156,-8 10,-7.375 12.25,-8.125 2.25,-0.75 11.875,-6.25 11.875,-6.25 0,0 -2.375,6.875 -6,12.625 -3.625,5.75 -4.125,16.875 -2.25,20.125 1.875,3.25 3.375,4.625 3.375,4.6875 z m -8.03125,-24.71875 c 0,1.05225 -0.854,1.90625 -1.90625,1.90625 -1.05225,0 -1.90625,-0.854 -1.90625,-1.90625 0,-1.05225 0.854,-1.90625 1.90625,-1.90625 1.05225,0 1.90625,0.854 1.90625,1.90625 z"
         style="fill:#000000;fill-rule:evenodd;stroke:none"
         id="path3206"
         sodipodi:nodetypes="ccccccccssccccccccccccsccsccscccccccccccccccccccccsscssccssss"
         inkscape:connector-curvature="0" />
    </g>
    <path
       id="path2398"
       style="fill:#ffffff;fill-opacity:1;fill-rule:nonzero;stroke:#000000;stroke-width:1.5;stroke-linecap:round;stroke-linejoin:miter;stroke-miterlimit:4.19999981;stroke-opacity:1;stroke-dasharray:none;stroke-dashoffset:0.7"
       d="m 425.14864,124.91879 c -5.37543,3.28127 -8.96099,9.21035 -8.96099,15.96475 0,10.31172 8.36893,18.68066 18.68066,18.68066 10.31173,0 18.68067,-8.36894 18.68067,-18.68066 0,-6.7814 -3.61948,-12.72255 -9.03866,-16.00292 9.35841,3.80193 15.96742,12.99691 15.96742,23.72613 0,14.1364 -11.47302,25.60942 -25.60942,25.60942 -14.1364,0 -25.60942,-11.47302 -25.60942,-25.60942 0,-10.69452 6.57148,-19.85648 15.88974,-23.68796 z"
       sodipodi:nodetypes="csscccsss"
       inkscape:connector-curvature="0" />
    <path
       transform="translate(279.24441,107.71932)"
       style="fill:#ffffff;fill-opacity:1;fill-rule:nonzero;stroke:#000000;stroke-width:1.5;stroke-linecap:round;stroke-linejoin:miter;stroke-miterlimit:4.19999981;stroke-opacity:1;stroke-dasharray:none;stroke-dashoffset:0.7"
       d="m 155.625,20.250001 -1.82911,-5.60744 -5.89822,-0.0068 4.76776,-3.472385 -1.81619,-5.611641 4.77576,3.4613879 4.77575,-3.4613882 -1.81618,5.6116413 4.76776,3.472385 -5.89822,0.0068 -1.82911,5.60744 z"
       id="path3179"
       inkscape:connector-curvature="0" />
    <path
       style="font-size:16.16402054px;font-style:normal;font-variant:normal;font-weight:bold;font-stretch:normal;text-align:start;line-height:125%;writing-mode:lr-tb;text-anchor:start;fill:#006633;fill-opacity:1;stroke:none;font-family:Arial;-inkscape-font-specification:Arial Bold"
       d="m 419.30952,193.62697 -2.21781,0 0,-8.35825 c -0.81031,0.75769 -1.76531,1.31807 -2.86501,1.68112 l 0,-2.01261 c 0.57879,-0.18941 1.20756,-0.54853 1.88633,-1.07734 0.67875,-0.52879 1.14442,-1.14573 1.39698,-1.85081 l 1.79951,0 0,11.61789 z m 5.99882,-2.67559 2.14678,-0.23678 c 0.0526,0.43673 0.18942,0.76032 0.41042,0.97079 0.22099,0.21047 0.51301,0.31571 0.87608,0.31571 0.45776,0 0.84713,-0.21047 1.1681,-0.63141 0.32096,-0.42094 0.52617,-1.29438 0.61562,-2.62034 -0.55775,0.6472 -1.25493,0.97079 -2.09154,0.97079 -0.91028,0 -1.69559,-0.35122 -2.35593,-1.05366 -0.66035,-0.70244 -0.99052,-1.61666 -0.99052,-2.74268 0,-1.17335 0.34859,-2.11915 1.04577,-2.83738 0.69717,-0.71822 1.58509,-1.07733 2.66374,-1.07734 1.17336,10e-6 2.13626,0.45383 2.88869,1.36147 0.75242,0.90766 1.12863,2.40067 1.12864,4.47904 -10e-6,2.11522 -0.39201,3.64112 -1.17599,4.5777 -0.78401,0.93659 -1.80478,1.40489 -3.06233,1.40489 -0.90502,0 -1.6364,-0.24073 -2.19414,-0.72218 -0.55774,-0.48144 -0.91554,-1.20098 -1.07339,-2.15862 l 0,0 z m 5.01969,-4.84605 c -1e-5,-0.71558 -0.16444,-1.2707 -0.49329,-1.66533 -0.32886,-0.39462 -0.70902,-0.59194 -1.14048,-0.59195 -0.41042,1e-5 -0.75111,0.16181 -1.02209,0.4854 -0.27098,0.3236 -0.40647,0.85372 -0.40647,1.59035 0,0.74717 0.14733,1.29571 0.44199,1.64561 0.29465,0.34991 0.66297,0.52486 1.10496,0.52485 0.42619,1e-5 0.78531,-0.16837 1.07734,-0.50512 0.29202,-0.33675 0.43803,-0.83135 0.43804,-1.48381 l 0,0 z m 8.14512,1.2786 c -0.57353,-0.24203 -0.99052,-0.57484 -1.25098,-0.99841 -0.26045,-0.42356 -0.39068,-0.88791 -0.39068,-1.39304 0,-0.86292 0.30123,-1.57588 0.9037,-2.13889 0.60247,-0.563 1.45881,-0.8445 2.56904,-0.84451 1.09969,10e-6 1.95341,0.28151 2.56114,0.84451 0.60773,0.56301 0.91159,1.27597 0.9116,2.13889 -1e-5,0.5367 -0.13945,1.0142 -0.41831,1.4325 -0.27888,0.41832 -0.67088,0.73797 -1.17599,0.95895 0.64192,0.25783 1.12994,0.63404 1.46407,1.12864 0.33411,0.49461 0.50117,1.0655 0.50118,1.71269 -10e-6,1.06814 -0.3407,1.93632 -1.02209,2.60456 -0.6814,0.66824 -1.58773,1.00236 -2.719,1.00236 -1.05235,0 -1.92842,-0.27624 -2.62823,-0.82873 -0.82609,-0.65245 -1.23914,-1.54694 -1.23914,-2.68348 0,-0.62614 0.15522,-1.20098 0.46567,-1.72453 0.31044,-0.52353 0.79978,-0.92737 1.46802,-1.21151 l 0,0 z m 0.45777,-2.2336 c 0,0.44199 0.12496,0.78663 0.3749,1.03393 0.24993,0.24731 0.58273,0.37096 0.99841,0.37095 0.42093,1e-5 0.75768,-0.12496 1.01025,-0.3749 0.25256,-0.24992 0.37884,-0.59588 0.37884,-1.03787 0,-0.41567 -0.12497,-0.74848 -0.37489,-0.99842 -0.24994,-0.24992 -0.58011,-0.37488 -0.99052,-0.37489 -0.42621,1e-5 -0.76559,0.12629 -1.01815,0.37884 -0.25256,0.25257 -0.37884,0.58669 -0.37884,1.00236 l 0,0 z m -0.20521,4.95654 c 0,0.61037 0.15653,1.08655 0.46961,1.42856 0.31307,0.34202 0.70375,0.51302 1.17205,0.51302 0.45777,0 0.83661,-0.16443 1.13653,-0.49329 0.29992,-0.32885 0.44987,-0.80372 0.44988,-1.42461 -10e-6,-0.54195 -0.1526,-0.97736 -0.45777,-1.30622 -0.30519,-0.32885 -0.69192,-0.49328 -1.16021,-0.49329 -0.54196,1e-5 -0.9458,0.1868 -1.21151,0.56038 -0.26572,0.37358 -0.39858,0.77873 -0.39858,1.21545 l 0,0 z m 9.07645,0.44988 2.14678,-0.26045 c 0.0684,0.54722 0.25256,0.96553 0.55249,1.25492 0.29991,0.28939 0.66297,0.43409 1.08917,0.43409 0.45777,0 0.84319,-0.17364 1.15627,-0.52091 0.31306,-0.34727 0.4696,-0.81557 0.46961,-1.40488 -10e-6,-0.55774 -0.14997,-0.99972 -0.44988,-1.32596 -0.29993,-0.32622 -0.66562,-0.48933 -1.09707,-0.48934 -0.28414,10e-6 -0.62352,0.0553 -1.01815,0.16575 l 0.24467,-1.80741 c 0.59984,0.0158 1.05761,-0.11443 1.37332,-0.39068 0.31569,-0.27623 0.47354,-0.64324 0.47355,-1.10101 -1e-5,-0.38936 -0.11576,-0.6998 -0.34727,-0.93133 -0.23152,-0.23151 -0.53934,-0.34726 -0.92344,-0.34727 -0.37884,1e-5 -0.70244,0.13155 -0.97078,0.39463 -0.26836,0.26309 -0.43147,0.6472 -0.48935,1.15231 l -2.04418,-0.34727 c 0.14207,-0.6998 0.35649,-1.25886 0.64325,-1.67718 0.28676,-0.41829 0.68665,-0.74715 1.19967,-0.98657 0.51302,-0.2394 1.08786,-0.3591 1.72453,-0.35911 1.08918,10e-6 1.96262,0.34728 2.62034,1.04182 0.54195,0.56828 0.81293,1.21021 0.81294,1.92579 -1e-5,1.01552 -0.55512,1.82583 -1.66534,2.43092 0.66297,0.14207 1.19309,0.46041 1.59036,0.955 0.39725,0.49461 0.59588,1.09181 0.59589,1.79162 -10e-6,1.01552 -0.37096,1.88107 -1.11285,2.59666 -0.74191,0.7156 -1.66535,1.07339 -2.7703,1.07339 -1.04709,0 -1.91527,-0.30123 -2.60456,-0.9037 -0.68928,-0.60246 -1.08917,-1.39041 -1.19967,-2.36383 l 0,0 z"
       id="text3198"
       sodipodi:nodetypes="cccccscccccssscsssssssssscccssssssscccssssssscssssssscccssssssscccsssssssccccssssssccsssssccssssscssssscc"
       inkscape:connector-curvature="0" />
    <g
       id="g4940">
      <g
         transform="matrix(0.9999692,-0.00784964,0.00784964,0.9999692,94.289095,1.3217155)"
         id="g3359">
        <path
           style="fill:#ffffff;fill-opacity:1;fill-rule:evenodd;stroke:none"
           d="m 251.33954,176.64784 c 13.07901,2.60949 26.66318,-9.80054 29.32613,-24.08205 -15.67781,0 -30.37553,9.44413 -30.37553,22.62077 0,0 1.0494,1.46128 1.0494,1.46128 z"
           id="path3357"
           sodipodi:nodetypes="cccc"
           inkscape:connector-curvature="0" />
        <path
           id="path3254"
           style="fill:#006633;fill-opacity:1;fill-rule:evenodd;stroke:none"
           d="m 241.41615,185.17701 c 35.39255,-6.07424 38.89402,-27.66352 39.87362,-33.3928 -27.22661,-0.002 -38.0934,25.52613 -39.87362,33.3928 z m 26.70844,-23.9477 c 0,0 -16.08539,14.98084 -16.08539,14.98084 12.20401,1.98449 25.41001,-9.1497 28.07296,-23.43121 -13.06079,-0.10253 -29.09234,9.63743 -29.09234,22.12642 0,0 17.10477,-13.67605 17.10477,-13.67605 z"
           sodipodi:nodetypes="cccccccc"
           inkscape:connector-curvature="0" />
      </g>
      <g
         transform="matrix(0.937464,-0.3480823,0.3480823,0.937464,24.310337,121.15777)"
         id="g3510">
        <path
           style="fill:#ffffff;fill-opacity:1;fill-rule:evenodd;stroke:none"
           d="m 251.33954,176.64784 c 13.07901,2.60949 26.66318,-9.80054 29.32613,-24.08205 -15.67781,0 -30.37553,9.44413 -30.37553,22.62077 0,0 1.0494,1.46128 1.0494,1.46128 z"
           id="path3512"
           sodipodi:nodetypes="cccc"
           inkscape:connector-curvature="0" />
        <path
           id="path3514"
           style="fill:#006633;fill-opacity:1;fill-rule:evenodd;stroke:none"
           d="m 241.41615,185.17701 c 35.39255,-6.07424 38.89402,-27.66352 39.87362,-33.3928 -27.22661,-0.002 -38.0934,25.52613 -39.87362,33.3928 z m 26.70844,-23.9477 c 0,0 -16.08539,14.98084 -16.08539,14.98084 12.20401,1.98449 25.41001,-9.1497 28.07296,-23.43121 -13.06079,-0.10253 -29.09234,9.63743 -29.09234,22.12642 0,0 17.10477,-13.67605 17.10477,-13.67605 z"
           sodipodi:nodetypes="cccccccc"
           inkscape:connector-curvature="0" />
      </g>
      <g
         transform="matrix(0.9973666,-0.07252525,0.07252525,0.9973666,63.741798,48.272195)"
         id="g3504">
        <path
           style="fill:#ffffff;fill-opacity:1;fill-rule:evenodd;stroke:none"
           d="m 251.33954,176.64784 c 13.07901,2.60949 26.66318,-9.80054 29.32613,-24.08205 -15.67781,0 -30.37553,9.44413 -30.37553,22.62077 0,0 1.0494,1.46128 1.0494,1.46128 z"
           id="path3506"
           sodipodi:nodetypes="cccc"
           inkscape:connector-curvature="0" />
        <path
           id="path3508"
           style="fill:#006633;fill-opacity:1;fill-rule:evenodd;stroke:none"
           d="m 241.41615,185.17701 c 35.39255,-6.07424 38.89402,-27.66352 39.87362,-33.3928 -27.22661,-0.002 -38.0934,25.52613 -39.87362,33.3928 z m 26.70844,-23.9477 c 0,0 -16.08539,14.98084 -16.08539,14.98084 12.20401,1.98449 25.41001,-9.1497 28.07296,-23.43121 -13.06079,-0.10253 -29.09234,9.63743 -29.09234,22.12642 0,0 17.10477,-13.67605 17.10477,-13.67605 z"
           sodipodi:nodetypes="cccccccc"
           inkscape:connector-curvature="0" />
      </g>
      <g
         transform="translate(0,-0.3523796)"
         id="g3534">
        <g
           id="g3516"
           transform="matrix(0.8121483,-0.583451,0.583451,0.8121483,-5.0001796,241.27892)">
          <path
             sodipodi:nodetypes="cccc"
             id="path3518"
             d="m 251.33954,176.64784 c 13.07901,2.60949 26.66318,-9.80054 29.32613,-24.08205 -15.67781,0 -30.37553,9.44413 -30.37553,22.62077 0,0 1.0494,1.46128 1.0494,1.46128 z"
             style="fill:#ffffff;fill-opacity:1;fill-rule:evenodd;stroke:none"
             inkscape:connector-curvature="0" />
          <path
             sodipodi:nodetypes="cccccccc"
             d="m 241.41615,185.17701 c 35.39255,-6.07424 38.89402,-27.66352 39.87362,-33.3928 -27.22661,-0.002 -38.0934,25.52613 -39.87362,33.3928 z m 26.70844,-23.9477 c 0,0 -16.08539,14.98084 -16.08539,14.98084 12.20401,1.98449 25.41001,-9.1497 28.07296,-23.43121 -13.06079,-0.10253 -29.09234,9.63743 -29.09234,22.12642 0,0 17.10477,-13.67605 17.10477,-13.67605 z"
             style="fill:#006633;fill-opacity:1;fill-rule:evenodd;stroke:none"
             id="path3520"
             inkscape:connector-curvature="0" />
        </g>
        <g
           id="g3522"
           transform="matrix(0.9425961,-0.333935,0.333935,0.9425961,15.982773,159.57098)">
          <path
             sodipodi:nodetypes="cccc"
             id="path3524"
             d="m 251.33954,176.64784 c 13.07901,2.60949 26.66318,-9.80054 29.32613,-24.08205 -15.67781,0 -30.37553,9.44413 -30.37553,22.62077 0,0 1.0494,1.46128 1.0494,1.46128 z"
             style="fill:#ffffff;fill-opacity:1;fill-rule:evenodd;stroke:none"
             inkscape:connector-curvature="0" />
          <path
             sodipodi:nodetypes="cccccccc"
             d="m 241.41615,185.17701 c 35.39255,-6.07424 38.89402,-27.66352 39.87362,-33.3928 -27.22661,-0.002 -38.0934,25.52613 -39.87362,33.3928 z m 26.70844,-23.9477 c 0,0 -16.08539,14.98084 -16.08539,14.98084 12.20401,1.98449 25.41001,-9.1497 28.07296,-23.43121 -13.06079,-0.10253 -29.09234,9.63743 -29.09234,22.12642 0,0 17.10477,-13.67605 17.10477,-13.67605 z"
             style="fill:#006633;fill-opacity:1;fill-rule:evenodd;stroke:none"
             id="path3526"
             inkscape:connector-curvature="0" />
        </g>
        <g
           id="g3528"
           transform="matrix(0.8781341,-0.4784147,0.4784147,0.8781341,2.2112018,205.37203)">
          <path
             sodipodi:nodetypes="cccc"
             id="path3530"
             d="m 251.33954,176.64784 c 13.07901,2.60949 26.66318,-9.80054 29.32613,-24.08205 -15.67781,0 -30.37553,9.44413 -30.37553,22.62077 0,0 1.0494,1.46128 1.0494,1.46128 z"
             style="fill:#ffffff;fill-opacity:1;fill-rule:evenodd;stroke:none"
             inkscape:connector-curvature="0" />
          <path
             sodipodi:nodetypes="cccccccc"
             d="m 241.41615,185.17701 c 35.39255,-6.07424 38.89402,-27.66352 39.87362,-33.3928 -27.22661,-0.002 -38.0934,25.52613 -39.87362,33.3928 z m 26.70844,-23.9477 c 0,0 -16.08539,14.98084 -16.08539,14.98084 12.20401,1.98449 25.41001,-9.1497 28.07296,-23.43121 -13.06079,-0.10253 -29.09234,9.63743 -29.09234,22.12642 0,0 17.10477,-13.67605 17.10477,-13.67605 z"
             style="fill:#006633;fill-opacity:1;fill-rule:evenodd;stroke:none"
             id="path3532"
             inkscape:connector-curvature="0" />
        </g>
      </g>
      <g
         transform="matrix(0.9500618,-0.3120618,0.3120618,0.9500618,-65.447334,149.28601)"
         id="g3551">
        <g
           id="g3553"
           transform="matrix(0.8121483,-0.583451,0.583451,0.8121483,-5.0001796,241.27892)">
          <path
             sodipodi:nodetypes="cccc"
             id="path3555"
             d="m 251.33954,176.64784 c 13.07901,2.60949 26.66318,-9.80054 29.32613,-24.08205 -15.67781,0 -30.37553,9.44413 -30.37553,22.62077 0,0 1.0494,1.46128 1.0494,1.46128 z"
             style="fill:#ffffff;fill-opacity:1;fill-rule:evenodd;stroke:none"
             inkscape:connector-curvature="0" />
          <path
             sodipodi:nodetypes="cccccccc"
             d="m 241.41615,185.17701 c 35.39255,-6.07424 38.89402,-27.66352 39.87362,-33.3928 -27.22661,-0.002 -38.0934,25.52613 -39.87362,33.3928 z m 26.70844,-23.9477 c 0,0 -16.08539,14.98084 -16.08539,14.98084 12.20401,1.98449 25.41001,-9.1497 28.07296,-23.43121 -13.06079,-0.10253 -29.09234,9.63743 -29.09234,22.12642 0,0 17.10477,-13.67605 17.10477,-13.67605 z"
             style="fill:#006633;fill-opacity:1;fill-rule:evenodd;stroke:none"
             id="path3557"
             inkscape:connector-curvature="0" />
        </g>
        <g
           id="g3559"
           transform="matrix(0.9425961,-0.333935,0.333935,0.9425961,15.982773,159.57098)">
          <path
             sodipodi:nodetypes="cccc"
             id="path3561"
             d="m 251.33954,176.64784 c 13.07901,2.60949 26.66318,-9.80054 29.32613,-24.08205 -15.67781,0 -30.37553,9.44413 -30.37553,22.62077 0,0 1.0494,1.46128 1.0494,1.46128 z"
             style="fill:#ffffff;fill-opacity:1;fill-rule:evenodd;stroke:none"
             inkscape:connector-curvature="0" />
          <path
             sodipodi:nodetypes="cccccccc"
             d="m 241.41615,185.17701 c 35.39255,-6.07424 38.89402,-27.66352 39.87362,-33.3928 -27.22661,-0.002 -38.0934,25.52613 -39.87362,33.3928 z m 26.70844,-23.9477 c 0,0 -16.08539,14.98084 -16.08539,14.98084 12.20401,1.98449 25.41001,-9.1497 28.07296,-23.43121 -13.06079,-0.10253 -29.09234,9.63743 -29.09234,22.12642 0,0 17.10477,-13.67605 17.10477,-13.67605 z"
             style="fill:#006633;fill-opacity:1;fill-rule:evenodd;stroke:none"
             id="path3563"
             inkscape:connector-curvature="0" />
        </g>
        <g
           id="g3565"
           transform="matrix(0.8781341,-0.4784147,0.4784147,0.8781341,2.2112018,205.37203)">
          <path
             sodipodi:nodetypes="cccc"
             id="path3567"
             d="m 251.33954,176.64784 c 13.07901,2.60949 26.66318,-9.80054 29.32613,-24.08205 -15.67781,0 -30.37553,9.44413 -30.37553,22.62077 0,0 1.0494,1.46128 1.0494,1.46128 z"
             style="fill:#ffffff;fill-opacity:1;fill-rule:evenodd;stroke:none"
             inkscape:connector-curvature="0" />
          <path
             sodipodi:nodetypes="cccccccc"
             d="m 241.41615,185.17701 c 35.39255,-6.07424 38.89402,-27.66352 39.87362,-33.3928 -27.22661,-0.002 -38.0934,25.52613 -39.87362,33.3928 z m 26.70844,-23.9477 c 0,0 -16.08539,14.98084 -16.08539,14.98084 12.20401,1.98449 25.41001,-9.1497 28.07296,-23.43121 -13.06079,-0.10253 -29.09234,9.63743 -29.09234,22.12642 0,0 17.10477,-13.67605 17.10477,-13.67605 z"
             style="fill:#006633;fill-opacity:1;fill-rule:evenodd;stroke:none"
             id="path3569"
             inkscape:connector-curvature="0" />
        </g>
      </g>
      <g
         transform="matrix(0.872032,-0.5269603,0.5269603,0.872032,-88.366017,275.55198)"
         id="g3571">
        <g
           id="g3573"
           transform="matrix(0.8121483,-0.583451,0.583451,0.8121483,-5.0001796,241.27892)">
          <path
             sodipodi:nodetypes="cccc"
             id="path3575"
             d="m 251.33954,176.64784 c 13.07901,2.60949 26.66318,-9.80054 29.32613,-24.08205 -15.67781,0 -30.37553,9.44413 -30.37553,22.62077 0,0 1.0494,1.46128 1.0494,1.46128 z"
             style="fill:#ffffff;fill-opacity:1;fill-rule:evenodd;stroke:none"
             inkscape:connector-curvature="0" />
          <path
             sodipodi:nodetypes="cccccccc"
             d="m 241.41615,185.17701 c 35.39255,-6.07424 38.89402,-27.66352 39.87362,-33.3928 -27.22661,-0.002 -38.0934,25.52613 -39.87362,33.3928 z m 26.70844,-23.9477 c 0,0 -16.08539,14.98084 -16.08539,14.98084 12.20401,1.98449 25.41001,-9.1497 28.07296,-23.43121 -13.06079,-0.10253 -29.09234,9.63743 -29.09234,22.12642 0,0 17.10477,-13.67605 17.10477,-13.67605 z"
             style="fill:#006633;fill-opacity:1;fill-rule:evenodd;stroke:none"
             id="path3577"
             inkscape:connector-curvature="0" />
        </g>
        <g
           id="g3579"
           transform="matrix(0.9425961,-0.333935,0.333935,0.9425961,15.982773,159.57098)">
          <path
             sodipodi:nodetypes="cccc"
             id="path3581"
             d="m 251.33954,176.64784 c 13.07901,2.60949 26.66318,-9.80054 29.32613,-24.08205 -15.67781,0 -30.37553,9.44413 -30.37553,22.62077 0,0 1.0494,1.46128 1.0494,1.46128 z"
             style="fill:#ffffff;fill-opacity:1;fill-rule:evenodd;stroke:none"
             inkscape:connector-curvature="0" />
          <path
             sodipodi:nodetypes="cccccccc"
             d="m 241.41615,185.17701 c 35.39255,-6.07424 38.89402,-27.66352 39.87362,-33.3928 -27.22661,-0.002 -38.0934,25.52613 -39.87362,33.3928 z m 26.70844,-23.9477 c 0,0 -16.08539,14.98084 -16.08539,14.98084 12.20401,1.98449 25.41001,-9.1497 28.07296,-23.43121 -13.06079,-0.10253 -29.09234,9.63743 -29.09234,22.12642 0,0 17.10477,-13.67605 17.10477,-13.67605 z"
             style="fill:#006633;fill-opacity:1;fill-rule:evenodd;stroke:none"
             id="path3583"
             inkscape:connector-curvature="0" />
        </g>
        <g
           id="g3585"
           transform="matrix(0.8781341,-0.4784147,0.4784147,0.8781341,2.2112018,205.37203)">
          <path
             sodipodi:nodetypes="cccc"
             id="path3587"
             d="m 251.33954,176.64784 c 13.07901,2.60949 26.66318,-9.80054 29.32613,-24.08205 -15.67781,0 -30.37553,9.44413 -30.37553,22.62077 0,0 1.0494,1.46128 1.0494,1.46128 z"
             style="fill:#ffffff;fill-opacity:1;fill-rule:evenodd;stroke:none"
             inkscape:connector-curvature="0" />
          <path
             sodipodi:nodetypes="cccccccc"
             d="m 241.41615,185.17701 c 35.39255,-6.07424 38.89402,-27.66352 39.87362,-33.3928 -27.22661,-0.002 -38.0934,25.52613 -39.87362,33.3928 z m 26.70844,-23.9477 c 0,0 -16.08539,14.98084 -16.08539,14.98084 12.20401,1.98449 25.41001,-9.1497 28.07296,-23.43121 -13.06079,-0.10253 -29.09234,9.63743 -29.09234,22.12642 0,0 17.10477,-13.67605 17.10477,-13.67605 z"
             style="fill:#006633;fill-opacity:1;fill-rule:evenodd;stroke:none"
             id="path3589"
             inkscape:connector-curvature="0" />
        </g>
      </g>
      <g
         transform="matrix(0.6451108,-0.8387529,0.8387529,0.6451108,-74.737381,462.26267)"
         id="g3591">
        <g
           id="g3593"
           transform="matrix(0.8121483,-0.583451,0.583451,0.8121483,-5.0001796,241.27892)">
          <path
             sodipodi:nodetypes="cccc"
             id="path3595"
             d="m 251.33954,176.64784 c 13.07901,2.60949 26.66318,-9.80054 29.32613,-24.08205 -15.67781,0 -30.37553,9.44413 -30.37553,22.62077 0,0 1.0494,1.46128 1.0494,1.46128 z"
             style="fill:#ffffff;fill-opacity:1;fill-rule:evenodd;stroke:none"
             inkscape:connector-curvature="0" />
          <path
             sodipodi:nodetypes="cccccccc"
             d="m 241.41615,185.17701 c 35.39255,-6.07424 38.89402,-27.66352 39.87362,-33.3928 -27.22661,-0.002 -38.0934,25.52613 -39.87362,33.3928 z m 26.70844,-23.9477 c 0,0 -16.08539,14.98084 -16.08539,14.98084 12.20401,1.98449 25.41001,-9.1497 28.07296,-23.43121 -13.06079,-0.10253 -29.09234,9.63743 -29.09234,22.12642 0,0 17.10477,-13.67605 17.10477,-13.67605 z"
             style="fill:#006633;fill-opacity:1;fill-rule:evenodd;stroke:none"
             id="path3597"
             inkscape:connector-curvature="0" />
        </g>
        <g
           id="g3599"
           transform="matrix(0.9425961,-0.333935,0.333935,0.9425961,15.982773,159.57098)">
          <path
             sodipodi:nodetypes="cccc"
             id="path3601"
             d="m 251.33954,176.64784 c 13.07901,2.60949 26.66318,-9.80054 29.32613,-24.08205 -15.67781,0 -30.37553,9.44413 -30.37553,22.62077 0,0 1.0494,1.46128 1.0494,1.46128 z"
             style="fill:#ffffff;fill-opacity:1;fill-rule:evenodd;stroke:none"
             inkscape:connector-curvature="0" />
          <path
             sodipodi:nodetypes="cccccccc"
             d="m 241.41615,185.17701 c 35.39255,-6.07424 38.89402,-27.66352 39.87362,-33.3928 -27.22661,-0.002 -38.0934,25.52613 -39.87362,33.3928 z m 26.70844,-23.9477 c 0,0 -16.08539,14.98084 -16.08539,14.98084 12.20401,1.98449 25.41001,-9.1497 28.07296,-23.43121 -13.06079,-0.10253 -29.09234,9.63743 -29.09234,22.12642 0,0 17.10477,-13.67605 17.10477,-13.67605 z"
             style="fill:#006633;fill-opacity:1;fill-rule:evenodd;stroke:none"
             id="path3603"
             inkscape:connector-curvature="0" />
        </g>
        <g
           id="g3605"
           transform="matrix(0.8781341,-0.4784147,0.4784147,0.8781341,2.2112018,205.37203)">
          <path
             sodipodi:nodetypes="cccc"
             id="path3607"
             d="m 251.33954,176.64784 c 13.07901,2.60949 26.66318,-9.80054 29.32613,-24.08205 -15.67781,0 -30.37553,9.44413 -30.37553,22.62077 0,0 1.0494,1.46128 1.0494,1.46128 z"
             style="fill:#ffffff;fill-opacity:1;fill-rule:evenodd;stroke:none"
             inkscape:connector-curvature="0" />
          <path
             sodipodi:nodetypes="cccccccc"
             d="m 241.41615,185.17701 c 35.39255,-6.07424 38.89402,-27.66352 39.87362,-33.3928 -27.22661,-0.002 -38.0934,25.52613 -39.87362,33.3928 z m 26.70844,-23.9477 c 0,0 -16.08539,14.98084 -16.08539,14.98084 12.20401,1.98449 25.41001,-9.1497 28.07296,-23.43121 -13.06079,-0.10253 -29.09234,9.63743 -29.09234,22.12642 0,0 17.10477,-13.67605 17.10477,-13.67605 z"
             style="fill:#006633;fill-opacity:1;fill-rule:evenodd;stroke:none"
             id="path3609"
             inkscape:connector-curvature="0" />
        </g>
      </g>
      <g
         transform="matrix(0.4585818,-1.0662357,1.0662357,0.4585818,-42.719667,608.80721)"
         id="g3611">
        <g
           id="g3613"
           transform="matrix(0.8121483,-0.583451,0.583451,0.8121483,-5.0001796,241.27892)">
          <path
             sodipodi:nodetypes="cccc"
             id="path3615"
             d="m 251.33954,176.64784 c 13.07901,2.60949 26.66318,-9.80054 29.32613,-24.08205 -15.67781,0 -30.37553,9.44413 -30.37553,22.62077 0,0 1.0494,1.46128 1.0494,1.46128 z"
             style="fill:#ffffff;fill-opacity:1;fill-rule:evenodd;stroke:none"
             inkscape:connector-curvature="0" />
          <path
             sodipodi:nodetypes="cccccccc"
             d="m 241.41615,185.17701 c 35.39255,-6.07424 38.89402,-27.66352 39.87362,-33.3928 -27.22661,-0.002 -38.0934,25.52613 -39.87362,33.3928 z m 26.70844,-23.9477 c 0,0 -16.08539,14.98084 -16.08539,14.98084 12.20401,1.98449 25.41001,-9.1497 28.07296,-23.43121 -13.06079,-0.10253 -29.09234,9.63743 -29.09234,22.12642 0,0 17.10477,-13.67605 17.10477,-13.67605 z"
             style="fill:#006633;fill-opacity:1;fill-rule:evenodd;stroke:none"
             id="path3617"
             inkscape:connector-curvature="0" />
        </g>
        <g
           id="g3619"
           transform="matrix(0.9425961,-0.333935,0.333935,0.9425961,15.982773,159.57098)">
          <path
             sodipodi:nodetypes="cccc"
             id="path3621"
             d="m 251.33954,176.64784 c 13.07901,2.60949 26.66318,-9.80054 29.32613,-24.08205 -15.67781,0 -30.37553,9.44413 -30.37553,22.62077 0,0 1.0494,1.46128 1.0494,1.46128 z"
             style="fill:#ffffff;fill-opacity:1;fill-rule:evenodd;stroke:none"
             inkscape:connector-curvature="0" />
          <path
             sodipodi:nodetypes="cccccccc"
             d="m 241.41615,185.17701 c 35.39255,-6.07424 38.89402,-27.66352 39.87362,-33.3928 -27.22661,-0.002 -38.0934,25.52613 -39.87362,33.3928 z m 26.70844,-23.9477 c 0,0 -16.08539,14.98084 -16.08539,14.98084 12.20401,1.98449 25.41001,-9.1497 28.07296,-23.43121 -13.06079,-0.10253 -29.09234,9.63743 -29.09234,22.12642 0,0 17.10477,-13.67605 17.10477,-13.67605 z"
             style="fill:#006633;fill-opacity:1;fill-rule:evenodd;stroke:none"
             id="path3623"
             inkscape:connector-curvature="0" />
        </g>
        <g
           id="g3625"
           transform="matrix(0.8781341,-0.4784147,0.4784147,0.8781341,2.2112018,205.37203)">
          <path
             sodipodi:nodetypes="cccc"
             id="path3627"
             d="m 251.33954,176.64784 c 13.07901,2.60949 26.66318,-9.80054 29.32613,-24.08205 -15.67781,0 -30.37553,9.44413 -30.37553,22.62077 0,0 1.0494,1.46128 1.0494,1.46128 z"
             style="fill:#ffffff;fill-opacity:1;fill-rule:evenodd;stroke:none"
             inkscape:connector-curvature="0" />
          <path
             sodipodi:nodetypes="cccccccc"
             d="m 241.41615,185.17701 c 35.39255,-6.07424 38.89402,-27.66352 39.87362,-33.3928 -27.22661,-0.002 -38.0934,25.52613 -39.87362,33.3928 z m 26.70844,-23.9477 c 0,0 -16.08539,14.98084 -16.08539,14.98084 12.20401,1.98449 25.41001,-9.1497 28.07296,-23.43121 -13.06079,-0.10253 -29.09234,9.63743 -29.09234,22.12642 0,0 17.10477,-13.67605 17.10477,-13.67605 z"
             style="fill:#006633;fill-opacity:1;fill-rule:evenodd;stroke:none"
             id="path3629"
             inkscape:connector-curvature="0" />
        </g>
      </g>
      <g
         transform="matrix(0.1891984,-1.195897,1.195897,0.1891984,45.274143,735.12658)"
         id="g3631">
        <g
           id="g3633"
           transform="matrix(0.8121483,-0.583451,0.583451,0.8121483,-5.0001796,241.27892)">
          <path
             sodipodi:nodetypes="cccc"
             id="path3635"
             d="m 251.33954,176.64784 c 13.07901,2.60949 26.66318,-9.80054 29.32613,-24.08205 -15.67781,0 -30.37553,9.44413 -30.37553,22.62077 0,0 1.0494,1.46128 1.0494,1.46128 z"
             style="fill:#ffffff;fill-opacity:1;fill-rule:evenodd;stroke:none"
             inkscape:connector-curvature="0" />
          <path
             sodipodi:nodetypes="cccccccc"
             d="m 241.41615,185.17701 c 35.39255,-6.07424 38.89402,-27.66352 39.87362,-33.3928 -27.22661,-0.002 -38.0934,25.52613 -39.87362,33.3928 z m 26.70844,-23.9477 c 0,0 -16.08539,14.98084 -16.08539,14.98084 12.20401,1.98449 25.41001,-9.1497 28.07296,-23.43121 -13.06079,-0.10253 -29.09234,9.63743 -29.09234,22.12642 0,0 17.10477,-13.67605 17.10477,-13.67605 z"
             style="fill:#006633;fill-opacity:1;fill-rule:evenodd;stroke:none"
             id="path3637"
             inkscape:connector-curvature="0" />
        </g>
        <g
           id="g3639"
           transform="matrix(0.9425961,-0.333935,0.333935,0.9425961,15.982773,159.57098)">
          <path
             sodipodi:nodetypes="cccc"
             id="path3641"
             d="m 251.33954,176.64784 c 13.07901,2.60949 26.66318,-9.80054 29.32613,-24.08205 -15.67781,0 -30.37553,9.44413 -30.37553,22.62077 0,0 1.0494,1.46128 1.0494,1.46128 z"
             style="fill:#ffffff;fill-opacity:1;fill-rule:evenodd;stroke:none"
             inkscape:connector-curvature="0" />
          <path
             sodipodi:nodetypes="cccccccc"
             d="m 241.41615,185.17701 c 35.39255,-6.07424 38.89402,-27.66352 39.87362,-33.3928 -27.22661,-0.002 -38.0934,25.52613 -39.87362,33.3928 z m 26.70844,-23.9477 c 0,0 -16.08539,14.98084 -16.08539,14.98084 12.20401,1.98449 25.41001,-9.1497 28.07296,-23.43121 -13.06079,-0.10253 -29.09234,9.63743 -29.09234,22.12642 0,0 17.10477,-13.67605 17.10477,-13.67605 z"
             style="fill:#006633;fill-opacity:1;fill-rule:evenodd;stroke:none"
             id="path3643"
             inkscape:connector-curvature="0" />
        </g>
        <g
           id="g3645"
           transform="matrix(0.8781341,-0.4784147,0.4784147,0.8781341,2.2112018,205.37203)">
          <path
             sodipodi:nodetypes="cccc"
             id="path3647"
             d="m 251.33954,176.64784 c 13.07901,2.60949 26.66318,-9.80054 29.32613,-24.08205 -15.67781,0 -30.37553,9.44413 -30.37553,22.62077 0,0 1.0494,1.46128 1.0494,1.46128 z"
             style="fill:#ffffff;fill-opacity:1;fill-rule:evenodd;stroke:none"
             inkscape:connector-curvature="0" />
          <path
             sodipodi:nodetypes="cccccccc"
             d="m 241.41615,185.17701 c 35.39255,-6.07424 38.89402,-27.66352 39.87362,-33.3928 -27.22661,-0.002 -38.0934,25.52613 -39.87362,33.3928 z m 26.70844,-23.9477 c 0,0 -16.08539,14.98084 -16.08539,14.98084 12.20401,1.98449 25.41001,-9.1497 28.07296,-23.43121 -13.06079,-0.10253 -29.09234,9.63743 -29.09234,22.12642 0,0 17.10477,-13.67605 17.10477,-13.67605 z"
             style="fill:#006633;fill-opacity:1;fill-rule:evenodd;stroke:none"
             id="path3649"
             inkscape:connector-curvature="0" />
        </g>
      </g>
      <g
         transform="matrix(-0.2363127,-1.1874856,1.1874856,-0.2363127,221.02476,842.83996)"
         id="g3651">
        <g
           id="g3653"
           transform="matrix(0.8121483,-0.583451,0.583451,0.8121483,-5.0001796,241.27892)">
          <path
             sodipodi:nodetypes="cccc"
             id="path3655"
             d="m 251.33954,176.64784 c 13.07901,2.60949 26.66318,-9.80054 29.32613,-24.08205 -15.67781,0 -30.37553,9.44413 -30.37553,22.62077 0,0 1.0494,1.46128 1.0494,1.46128 z"
             style="fill:#ffffff;fill-opacity:1;fill-rule:evenodd;stroke:none"
             inkscape:connector-curvature="0" />
          <path
             sodipodi:nodetypes="cccccccc"
             d="m 241.41615,185.17701 c 35.39255,-6.07424 38.89402,-27.66352 39.87362,-33.3928 -27.22661,-0.002 -38.0934,25.52613 -39.87362,33.3928 z m 26.70844,-23.9477 c 0,0 -16.08539,14.98084 -16.08539,14.98084 12.20401,1.98449 25.41001,-9.1497 28.07296,-23.43121 -13.06079,-0.10253 -29.09234,9.63743 -29.09234,22.12642 0,0 17.10477,-13.67605 17.10477,-13.67605 z"
             style="fill:#006633;fill-opacity:1;fill-rule:evenodd;stroke:none"
             id="path3657"
             inkscape:connector-curvature="0" />
        </g>
        <g
           id="g3659"
           transform="matrix(0.9425961,-0.333935,0.333935,0.9425961,15.982773,159.57098)">
          <path
             sodipodi:nodetypes="cccc"
             id="path3661"
             d="m 251.33954,176.64784 c 13.07901,2.60949 26.66318,-9.80054 29.32613,-24.08205 -15.67781,0 -30.37553,9.44413 -30.37553,22.62077 0,0 1.0494,1.46128 1.0494,1.46128 z"
             style="fill:#ffffff;fill-opacity:1;fill-rule:evenodd;stroke:none"
             inkscape:connector-curvature="0" />
          <path
             sodipodi:nodetypes="cccccccc"
             d="m 241.41615,185.17701 c 35.39255,-6.07424 38.89402,-27.66352 39.87362,-33.3928 -27.22661,-0.002 -38.0934,25.52613 -39.87362,33.3928 z m 26.70844,-23.9477 c 0,0 -16.08539,14.98084 -16.08539,14.98084 12.20401,1.98449 25.41001,-9.1497 28.07296,-23.43121 -13.06079,-0.10253 -29.09234,9.63743 -29.09234,22.12642 0,0 17.10477,-13.67605 17.10477,-13.67605 z"
             style="fill:#006633;fill-opacity:1;fill-rule:evenodd;stroke:none"
             id="path3663"
             inkscape:connector-curvature="0" />
        </g>
        <g
           id="g3665"
           transform="matrix(0.8781341,-0.4784147,0.4784147,0.8781341,2.2112018,205.37203)">
          <path
             sodipodi:nodetypes="cccc"
             id="path3667"
             d="m 251.33954,176.64784 c 13.07901,2.60949 26.66318,-9.80054 29.32613,-24.08205 -15.67781,0 -30.37553,9.44413 -30.37553,22.62077 0,0 1.0494,1.46128 1.0494,1.46128 z"
             style="fill:#ffffff;fill-opacity:1;fill-rule:evenodd;stroke:none"
             inkscape:connector-curvature="0" />
          <path
             sodipodi:nodetypes="cccccccc"
             d="m 241.41615,185.17701 c 35.39255,-6.07424 38.89402,-27.66352 39.87362,-33.3928 -27.22661,-0.002 -38.0934,25.52613 -39.87362,33.3928 z m 26.70844,-23.9477 c 0,0 -16.08539,14.98084 -16.08539,14.98084 12.20401,1.98449 25.41001,-9.1497 28.07296,-23.43121 -13.06079,-0.10253 -29.09234,9.63743 -29.09234,22.12642 0,0 17.10477,-13.67605 17.10477,-13.67605 z"
             style="fill:#006633;fill-opacity:1;fill-rule:evenodd;stroke:none"
             id="path3669"
             inkscape:connector-curvature="0" />
        </g>
      </g>
      <g
         id="g3829"
         transform="matrix(-0.9999692,-0.00784964,-0.00784964,0.9999692,779.96899,1.3217155)">
        <path
           sodipodi:nodetypes="cccc"
           id="path3831"
           d="m 251.33954,176.64784 c 13.07901,2.60949 26.66318,-9.80054 29.32613,-24.08205 -15.67781,0 -30.37553,9.44413 -30.37553,22.62077 0,0 1.0494,1.46128 1.0494,1.46128 z"
           style="fill:#ffffff;fill-opacity:1;fill-rule:evenodd;stroke:none"
           inkscape:connector-curvature="0" />
        <path
           sodipodi:nodetypes="cccccccc"
           d="m 241.41615,185.17701 c 35.39255,-6.07424 38.89402,-27.66352 39.87362,-33.3928 -27.22661,-0.002 -38.0934,25.52613 -39.87362,33.3928 z m 26.70844,-23.9477 c 0,0 -16.08539,14.98084 -16.08539,14.98084 12.20401,1.98449 25.41001,-9.1497 28.07296,-23.43121 -13.06079,-0.10253 -29.09234,9.63743 -29.09234,22.12642 0,0 17.10477,-13.67605 17.10477,-13.67605 z"
           style="fill:#006633;fill-opacity:1;fill-rule:evenodd;stroke:none"
           id="path3833"
           inkscape:connector-curvature="0" />
      </g>
      <g
         id="g3835"
         transform="matrix(-0.937464,-0.3480823,-0.3480823,0.937464,849.94775,121.15777)">
        <path
           sodipodi:nodetypes="cccc"
           id="path3837"
           d="m 251.33954,176.64784 c 13.07901,2.60949 26.66318,-9.80054 29.32613,-24.08205 -15.67781,0 -30.37553,9.44413 -30.37553,22.62077 0,0 1.0494,1.46128 1.0494,1.46128 z"
           style="fill:#ffffff;fill-opacity:1;fill-rule:evenodd;stroke:none"
           inkscape:connector-curvature="0" />
        <path
           sodipodi:nodetypes="cccccccc"
           d="m 241.41615,185.17701 c 35.39255,-6.07424 38.89402,-27.66352 39.87362,-33.3928 -27.22661,-0.002 -38.0934,25.52613 -39.87362,33.3928 z m 26.70844,-23.9477 c 0,0 -16.08539,14.98084 -16.08539,14.98084 12.20401,1.98449 25.41001,-9.1497 28.07296,-23.43121 -13.06079,-0.10253 -29.09234,9.63743 -29.09234,22.12642 0,0 17.10477,-13.67605 17.10477,-13.67605 z"
           style="fill:#006633;fill-opacity:1;fill-rule:evenodd;stroke:none"
           id="path3839"
           inkscape:connector-curvature="0" />
      </g>
      <g
         id="g3841"
         transform="matrix(-0.9973666,-0.07252525,-0.07252525,0.9973666,810.51628,48.272195)">
        <path
           sodipodi:nodetypes="cccc"
           id="path3843"
           d="m 251.33954,176.64784 c 13.07901,2.60949 26.66318,-9.80054 29.32613,-24.08205 -15.67781,0 -30.37553,9.44413 -30.37553,22.62077 0,0 1.0494,1.46128 1.0494,1.46128 z"
           style="fill:#ffffff;fill-opacity:1;fill-rule:evenodd;stroke:none"
           inkscape:connector-curvature="0" />
        <path
           sodipodi:nodetypes="cccccccc"
           d="m 241.41615,185.17701 c 35.39255,-6.07424 38.89402,-27.66352 39.87362,-33.3928 -27.22661,-0.002 -38.0934,25.52613 -39.87362,33.3928 z m 26.70844,-23.9477 c 0,0 -16.08539,14.98084 -16.08539,14.98084 12.20401,1.98449 25.41001,-9.1497 28.07296,-23.43121 -13.06079,-0.10253 -29.09234,9.63743 -29.09234,22.12642 0,0 17.10477,-13.67605 17.10477,-13.67605 z"
           style="fill:#006633;fill-opacity:1;fill-rule:evenodd;stroke:none"
           id="path3845"
           inkscape:connector-curvature="0" />
      </g>
      <g
         transform="matrix(-1,0,0,1,874.25808,-0.3523796)"
         id="g3847">
        <g
           transform="matrix(0.8121483,-0.583451,0.583451,0.8121483,-5.0001796,241.27892)"
           id="g3849">
          <path
             style="fill:#ffffff;fill-opacity:1;fill-rule:evenodd;stroke:none"
             d="m 251.33954,176.64784 c 13.07901,2.60949 26.66318,-9.80054 29.32613,-24.08205 -15.67781,0 -30.37553,9.44413 -30.37553,22.62077 0,0 1.0494,1.46128 1.0494,1.46128 z"
             id="path3851"
             sodipodi:nodetypes="cccc"
             inkscape:connector-curvature="0" />
          <path
             id="path3853"
             style="fill:#006633;fill-opacity:1;fill-rule:evenodd;stroke:none"
             d="m 241.41615,185.17701 c 35.39255,-6.07424 38.89402,-27.66352 39.87362,-33.3928 -27.22661,-0.002 -38.0934,25.52613 -39.87362,33.3928 z m 26.70844,-23.9477 c 0,0 -16.08539,14.98084 -16.08539,14.98084 12.20401,1.98449 25.41001,-9.1497 28.07296,-23.43121 -13.06079,-0.10253 -29.09234,9.63743 -29.09234,22.12642 0,0 17.10477,-13.67605 17.10477,-13.67605 z"
             sodipodi:nodetypes="cccccccc"
             inkscape:connector-curvature="0" />
        </g>
        <g
           transform="matrix(0.9425961,-0.333935,0.333935,0.9425961,15.982773,159.57098)"
           id="g3855">
          <path
             style="fill:#ffffff;fill-opacity:1;fill-rule:evenodd;stroke:none"
             d="m 251.33954,176.64784 c 13.07901,2.60949 26.66318,-9.80054 29.32613,-24.08205 -15.67781,0 -30.37553,9.44413 -30.37553,22.62077 0,0 1.0494,1.46128 1.0494,1.46128 z"
             id="path3857"
             sodipodi:nodetypes="cccc"
             inkscape:connector-curvature="0" />
          <path
             id="path3859"
             style="fill:#006633;fill-opacity:1;fill-rule:evenodd;stroke:none"
             d="m 241.41615,185.17701 c 35.39255,-6.07424 38.89402,-27.66352 39.87362,-33.3928 -27.22661,-0.002 -38.0934,25.52613 -39.87362,33.3928 z m 26.70844,-23.9477 c 0,0 -16.08539,14.98084 -16.08539,14.98084 12.20401,1.98449 25.41001,-9.1497 28.07296,-23.43121 -13.06079,-0.10253 -29.09234,9.63743 -29.09234,22.12642 0,0 17.10477,-13.67605 17.10477,-13.67605 z"
             sodipodi:nodetypes="cccccccc"
             inkscape:connector-curvature="0" />
        </g>
        <g
           transform="matrix(0.8781341,-0.4784147,0.4784147,0.8781341,2.2112018,205.37203)"
           id="g3861">
          <path
             style="fill:#ffffff;fill-opacity:1;fill-rule:evenodd;stroke:none"
             d="m 251.33954,176.64784 c 13.07901,2.60949 26.66318,-9.80054 29.32613,-24.08205 -15.67781,0 -30.37553,9.44413 -30.37553,22.62077 0,0 1.0494,1.46128 1.0494,1.46128 z"
             id="path3863"
             sodipodi:nodetypes="cccc"
             inkscape:connector-curvature="0" />
          <path
             id="path3865"
             style="fill:#006633;fill-opacity:1;fill-rule:evenodd;stroke:none"
             d="m 241.41615,185.17701 c 35.39255,-6.07424 38.89402,-27.66352 39.87362,-33.3928 -27.22661,-0.002 -38.0934,25.52613 -39.87362,33.3928 z m 26.70844,-23.9477 c 0,0 -16.08539,14.98084 -16.08539,14.98084 12.20401,1.98449 25.41001,-9.1497 28.07296,-23.43121 -13.06079,-0.10253 -29.09234,9.63743 -29.09234,22.12642 0,0 17.10477,-13.67605 17.10477,-13.67605 z"
             sodipodi:nodetypes="cccccccc"
             inkscape:connector-curvature="0" />
        </g>
      </g>
      <g
         id="g3867"
         transform="matrix(-0.9500618,-0.3120618,-0.3120618,0.9500618,939.70542,149.28601)">
        <g
           transform="matrix(0.8121483,-0.583451,0.583451,0.8121483,-5.0001796,241.27892)"
           id="g3869">
          <path
             style="fill:#ffffff;fill-opacity:1;fill-rule:evenodd;stroke:none"
             d="m 251.33954,176.64784 c 13.07901,2.60949 26.66318,-9.80054 29.32613,-24.08205 -15.67781,0 -30.37553,9.44413 -30.37553,22.62077 0,0 1.0494,1.46128 1.0494,1.46128 z"
             id="path3871"
             sodipodi:nodetypes="cccc"
             inkscape:connector-curvature="0" />
          <path
             id="path3873"
             style="fill:#006633;fill-opacity:1;fill-rule:evenodd;stroke:none"
             d="m 241.41615,185.17701 c 35.39255,-6.07424 38.89402,-27.66352 39.87362,-33.3928 -27.22661,-0.002 -38.0934,25.52613 -39.87362,33.3928 z m 26.70844,-23.9477 c 0,0 -16.08539,14.98084 -16.08539,14.98084 12.20401,1.98449 25.41001,-9.1497 28.07296,-23.43121 -13.06079,-0.10253 -29.09234,9.63743 -29.09234,22.12642 0,0 17.10477,-13.67605 17.10477,-13.67605 z"
             sodipodi:nodetypes="cccccccc"
             inkscape:connector-curvature="0" />
        </g>
        <g
           transform="matrix(0.9425961,-0.333935,0.333935,0.9425961,15.982773,159.57098)"
           id="g3875">
          <path
             style="fill:#ffffff;fill-opacity:1;fill-rule:evenodd;stroke:none"
             d="m 251.33954,176.64784 c 13.07901,2.60949 26.66318,-9.80054 29.32613,-24.08205 -15.67781,0 -30.37553,9.44413 -30.37553,22.62077 0,0 1.0494,1.46128 1.0494,1.46128 z"
             id="path3877"
             sodipodi:nodetypes="cccc"
             inkscape:connector-curvature="0" />
          <path
             id="path3879"
             style="fill:#006633;fill-opacity:1;fill-rule:evenodd;stroke:none"
             d="m 241.41615,185.17701 c 35.39255,-6.07424 38.89402,-27.66352 39.87362,-33.3928 -27.22661,-0.002 -38.0934,25.52613 -39.87362,33.3928 z m 26.70844,-23.9477 c 0,0 -16.08539,14.98084 -16.08539,14.98084 12.20401,1.98449 25.41001,-9.1497 28.07296,-23.43121 -13.06079,-0.10253 -29.09234,9.63743 -29.09234,22.12642 0,0 17.10477,-13.67605 17.10477,-13.67605 z"
             sodipodi:nodetypes="cccccccc"
             inkscape:connector-curvature="0" />
        </g>
        <g
           transform="matrix(0.8781341,-0.4784147,0.4784147,0.8781341,2.2112018,205.37203)"
           id="g3881">
          <path
             style="fill:#ffffff;fill-opacity:1;fill-rule:evenodd;stroke:none"
             d="m 251.33954,176.64784 c 13.07901,2.60949 26.66318,-9.80054 29.32613,-24.08205 -15.67781,0 -30.37553,9.44413 -30.37553,22.62077 0,0 1.0494,1.46128 1.0494,1.46128 z"
             id="path3883"
             sodipodi:nodetypes="cccc"
             inkscape:connector-curvature="0" />
          <path
             id="path3885"
             style="fill:#006633;fill-opacity:1;fill-rule:evenodd;stroke:none"
             d="m 241.41615,185.17701 c 35.39255,-6.07424 38.89402,-27.66352 39.87362,-33.3928 -27.22661,-0.002 -38.0934,25.52613 -39.87362,33.3928 z m 26.70844,-23.9477 c 0,0 -16.08539,14.98084 -16.08539,14.98084 12.20401,1.98449 25.41001,-9.1497 28.07296,-23.43121 -13.06079,-0.10253 -29.09234,9.63743 -29.09234,22.12642 0,0 17.10477,-13.67605 17.10477,-13.67605 z"
             sodipodi:nodetypes="cccccccc"
             inkscape:connector-curvature="0" />
        </g>
      </g>
      <g
         id="g3887"
         transform="matrix(-0.872032,-0.5269603,-0.5269603,0.872032,962.6241,275.55198)">
        <g
           transform="matrix(0.8121483,-0.583451,0.583451,0.8121483,-5.0001796,241.27892)"
           id="g3889">
          <path
             style="fill:#ffffff;fill-opacity:1;fill-rule:evenodd;stroke:none"
             d="m 251.33954,176.64784 c 13.07901,2.60949 26.66318,-9.80054 29.32613,-24.08205 -15.67781,0 -30.37553,9.44413 -30.37553,22.62077 0,0 1.0494,1.46128 1.0494,1.46128 z"
             id="path3891"
             sodipodi:nodetypes="cccc"
             inkscape:connector-curvature="0" />
          <path
             id="path3893"
             style="fill:#006633;fill-opacity:1;fill-rule:evenodd;stroke:none"
             d="m 241.41615,185.17701 c 35.39255,-6.07424 38.89402,-27.66352 39.87362,-33.3928 -27.22661,-0.002 -38.0934,25.52613 -39.87362,33.3928 z m 26.70844,-23.9477 c 0,0 -16.08539,14.98084 -16.08539,14.98084 12.20401,1.98449 25.41001,-9.1497 28.07296,-23.43121 -13.06079,-0.10253 -29.09234,9.63743 -29.09234,22.12642 0,0 17.10477,-13.67605 17.10477,-13.67605 z"
             sodipodi:nodetypes="cccccccc"
             inkscape:connector-curvature="0" />
        </g>
        <g
           transform="matrix(0.9425961,-0.333935,0.333935,0.9425961,15.982773,159.57098)"
           id="g3895">
          <path
             style="fill:#ffffff;fill-opacity:1;fill-rule:evenodd;stroke:none"
             d="m 251.33954,176.64784 c 13.07901,2.60949 26.66318,-9.80054 29.32613,-24.08205 -15.67781,0 -30.37553,9.44413 -30.37553,22.62077 0,0 1.0494,1.46128 1.0494,1.46128 z"
             id="path3897"
             sodipodi:nodetypes="cccc"
             inkscape:connector-curvature="0" />
          <path
             id="path3899"
             style="fill:#006633;fill-opacity:1;fill-rule:evenodd;stroke:none"
             d="m 241.41615,185.17701 c 35.39255,-6.07424 38.89402,-27.66352 39.87362,-33.3928 -27.22661,-0.002 -38.0934,25.52613 -39.87362,33.3928 z m 26.70844,-23.9477 c 0,0 -16.08539,14.98084 -16.08539,14.98084 12.20401,1.98449 25.41001,-9.1497 28.07296,-23.43121 -13.06079,-0.10253 -29.09234,9.63743 -29.09234,22.12642 0,0 17.10477,-13.67605 17.10477,-13.67605 z"
             sodipodi:nodetypes="cccccccc"
             inkscape:connector-curvature="0" />
        </g>
        <g
           transform="matrix(0.8781341,-0.4784147,0.4784147,0.8781341,2.2112018,205.37203)"
           id="g3901">
          <path
             style="fill:#ffffff;fill-opacity:1;fill-rule:evenodd;stroke:none"
             d="m 251.33954,176.64784 c 13.07901,2.60949 26.66318,-9.80054 29.32613,-24.08205 -15.67781,0 -30.37553,9.44413 -30.37553,22.62077 0,0 1.0494,1.46128 1.0494,1.46128 z"
             id="path3903"
             sodipodi:nodetypes="cccc"
             inkscape:connector-curvature="0" />
          <path
             id="path3905"
             style="fill:#006633;fill-opacity:1;fill-rule:evenodd;stroke:none"
             d="m 241.41615,185.17701 c 35.39255,-6.07424 38.89402,-27.66352 39.87362,-33.3928 -27.22661,-0.002 -38.0934,25.52613 -39.87362,33.3928 z m 26.70844,-23.9477 c 0,0 -16.08539,14.98084 -16.08539,14.98084 12.20401,1.98449 25.41001,-9.1497 28.07296,-23.43121 -13.06079,-0.10253 -29.09234,9.63743 -29.09234,22.12642 0,0 17.10477,-13.67605 17.10477,-13.67605 z"
             sodipodi:nodetypes="cccccccc"
             inkscape:connector-curvature="0" />
        </g>
      </g>
      <g
         id="g3907"
         transform="matrix(-0.6451108,-0.8387529,-0.8387529,0.6451108,948.99546,462.26267)">
        <g
           transform="matrix(0.8121483,-0.583451,0.583451,0.8121483,-5.0001796,241.27892)"
           id="g3909">
          <path
             style="fill:#ffffff;fill-opacity:1;fill-rule:evenodd;stroke:none"
             d="m 251.33954,176.64784 c 13.07901,2.60949 26.66318,-9.80054 29.32613,-24.08205 -15.67781,0 -30.37553,9.44413 -30.37553,22.62077 0,0 1.0494,1.46128 1.0494,1.46128 z"
             id="path3911"
             sodipodi:nodetypes="cccc"
             inkscape:connector-curvature="0" />
          <path
             id="path3913"
             style="fill:#006633;fill-opacity:1;fill-rule:evenodd;stroke:none"
             d="m 241.41615,185.17701 c 35.39255,-6.07424 38.89402,-27.66352 39.87362,-33.3928 -27.22661,-0.002 -38.0934,25.52613 -39.87362,33.3928 z m 26.70844,-23.9477 c 0,0 -16.08539,14.98084 -16.08539,14.98084 12.20401,1.98449 25.41001,-9.1497 28.07296,-23.43121 -13.06079,-0.10253 -29.09234,9.63743 -29.09234,22.12642 0,0 17.10477,-13.67605 17.10477,-13.67605 z"
             sodipodi:nodetypes="cccccccc"
             inkscape:connector-curvature="0" />
        </g>
        <g
           transform="matrix(0.9425961,-0.333935,0.333935,0.9425961,15.982773,159.57098)"
           id="g3915">
          <path
             style="fill:#ffffff;fill-opacity:1;fill-rule:evenodd;stroke:none"
             d="m 251.33954,176.64784 c 13.07901,2.60949 26.66318,-9.80054 29.32613,-24.08205 -15.67781,0 -30.37553,9.44413 -30.37553,22.62077 0,0 1.0494,1.46128 1.0494,1.46128 z"
             id="path3917"
             sodipodi:nodetypes="cccc"
             inkscape:connector-curvature="0" />
          <path
             id="path3919"
             style="fill:#006633;fill-opacity:1;fill-rule:evenodd;stroke:none"
             d="m 241.41615,185.17701 c 35.39255,-6.07424 38.89402,-27.66352 39.87362,-33.3928 -27.22661,-0.002 -38.0934,25.52613 -39.87362,33.3928 z m 26.70844,-23.9477 c 0,0 -16.08539,14.98084 -16.08539,14.98084 12.20401,1.98449 25.41001,-9.1497 28.07296,-23.43121 -13.06079,-0.10253 -29.09234,9.63743 -29.09234,22.12642 0,0 17.10477,-13.67605 17.10477,-13.67605 z"
             sodipodi:nodetypes="cccccccc"
             inkscape:connector-curvature="0" />
        </g>
        <g
           transform="matrix(0.8781341,-0.4784147,0.4784147,0.8781341,2.2112018,205.37203)"
           id="g3921">
          <path
             style="fill:#ffffff;fill-opacity:1;fill-rule:evenodd;stroke:none"
             d="m 251.33954,176.64784 c 13.07901,2.60949 26.66318,-9.80054 29.32613,-24.08205 -15.67781,0 -30.37553,9.44413 -30.37553,22.62077 0,0 1.0494,1.46128 1.0494,1.46128 z"
             id="path3923"
             sodipodi:nodetypes="cccc"
             inkscape:connector-curvature="0" />
          <path
             id="path3925"
             style="fill:#006633;fill-opacity:1;fill-rule:evenodd;stroke:none"
             d="m 241.41615,185.17701 c 35.39255,-6.07424 38.89402,-27.66352 39.87362,-33.3928 -27.22661,-0.002 -38.0934,25.52613 -39.87362,33.3928 z m 26.70844,-23.9477 c 0,0 -16.08539,14.98084 -16.08539,14.98084 12.20401,1.98449 25.41001,-9.1497 28.07296,-23.43121 -13.06079,-0.10253 -29.09234,9.63743 -29.09234,22.12642 0,0 17.10477,-13.67605 17.10477,-13.67605 z"
             sodipodi:nodetypes="cccccccc"
             inkscape:connector-curvature="0" />
        </g>
      </g>
      <g
         id="g3927"
         transform="matrix(-0.4585818,-1.0662357,-1.0662357,0.4585818,916.97775,608.80721)">
        <g
           transform="matrix(0.8121483,-0.583451,0.583451,0.8121483,-5.0001796,241.27892)"
           id="g3929">
          <path
             style="fill:#ffffff;fill-opacity:1;fill-rule:evenodd;stroke:none"
             d="m 251.33954,176.64784 c 13.07901,2.60949 26.66318,-9.80054 29.32613,-24.08205 -15.67781,0 -30.37553,9.44413 -30.37553,22.62077 0,0 1.0494,1.46128 1.0494,1.46128 z"
             id="path3931"
             sodipodi:nodetypes="cccc"
             inkscape:connector-curvature="0" />
          <path
             id="path3933"
             style="fill:#006633;fill-opacity:1;fill-rule:evenodd;stroke:none"
             d="m 241.41615,185.17701 c 35.39255,-6.07424 38.89402,-27.66352 39.87362,-33.3928 -27.22661,-0.002 -38.0934,25.52613 -39.87362,33.3928 z m 26.70844,-23.9477 c 0,0 -16.08539,14.98084 -16.08539,14.98084 12.20401,1.98449 25.41001,-9.1497 28.07296,-23.43121 -13.06079,-0.10253 -29.09234,9.63743 -29.09234,22.12642 0,0 17.10477,-13.67605 17.10477,-13.67605 z"
             sodipodi:nodetypes="cccccccc"
             inkscape:connector-curvature="0" />
        </g>
        <g
           transform="matrix(0.9425961,-0.333935,0.333935,0.9425961,15.982773,159.57098)"
           id="g3935">
          <path
             style="fill:#ffffff;fill-opacity:1;fill-rule:evenodd;stroke:none"
             d="m 251.33954,176.64784 c 13.07901,2.60949 26.66318,-9.80054 29.32613,-24.08205 -15.67781,0 -30.37553,9.44413 -30.37553,22.62077 0,0 1.0494,1.46128 1.0494,1.46128 z"
             id="path3937"
             sodipodi:nodetypes="cccc"
             inkscape:connector-curvature="0" />
          <path
             id="path3939"
             style="fill:#006633;fill-opacity:1;fill-rule:evenodd;stroke:none"
             d="m 241.41615,185.17701 c 35.39255,-6.07424 38.89402,-27.66352 39.87362,-33.3928 -27.22661,-0.002 -38.0934,25.52613 -39.87362,33.3928 z m 26.70844,-23.9477 c 0,0 -16.08539,14.98084 -16.08539,14.98084 12.20401,1.98449 25.41001,-9.1497 28.07296,-23.43121 -13.06079,-0.10253 -29.09234,9.63743 -29.09234,22.12642 0,0 17.10477,-13.67605 17.10477,-13.67605 z"
             sodipodi:nodetypes="cccccccc"
             inkscape:connector-curvature="0" />
        </g>
        <g
           transform="matrix(0.8781341,-0.4784147,0.4784147,0.8781341,2.2112018,205.37203)"
           id="g3941">
          <path
             style="fill:#ffffff;fill-opacity:1;fill-rule:evenodd;stroke:none"
             d="m 251.33954,176.64784 c 13.07901,2.60949 26.66318,-9.80054 29.32613,-24.08205 -15.67781,0 -30.37553,9.44413 -30.37553,22.62077 0,0 1.0494,1.46128 1.0494,1.46128 z"
             id="path3943"
             sodipodi:nodetypes="cccc"
             inkscape:connector-curvature="0" />
          <path
             id="path3945"
             style="fill:#006633;fill-opacity:1;fill-rule:evenodd;stroke:none"
             d="m 241.41615,185.17701 c 35.39255,-6.07424 38.89402,-27.66352 39.87362,-33.3928 -27.22661,-0.002 -38.0934,25.52613 -39.87362,33.3928 z m 26.70844,-23.9477 c 0,0 -16.08539,14.98084 -16.08539,14.98084 12.20401,1.98449 25.41001,-9.1497 28.07296,-23.43121 -13.06079,-0.10253 -29.09234,9.63743 -29.09234,22.12642 0,0 17.10477,-13.67605 17.10477,-13.67605 z"
             sodipodi:nodetypes="cccccccc"
             inkscape:connector-curvature="0" />
        </g>
      </g>
      <g
         id="g3947"
         transform="matrix(-0.1891984,-1.195897,-1.195897,0.1891984,828.98394,735.12658)">
        <g
           transform="matrix(0.8121483,-0.583451,0.583451,0.8121483,-5.0001796,241.27892)"
           id="g3949">
          <path
             style="fill:#ffffff;fill-opacity:1;fill-rule:evenodd;stroke:none"
             d="m 251.33954,176.64784 c 13.07901,2.60949 26.66318,-9.80054 29.32613,-24.08205 -15.67781,0 -30.37553,9.44413 -30.37553,22.62077 0,0 1.0494,1.46128 1.0494,1.46128 z"
             id="path3951"
             sodipodi:nodetypes="cccc"
             inkscape:connector-curvature="0" />
          <path
             id="path3953"
             style="fill:#006633;fill-opacity:1;fill-rule:evenodd;stroke:none"
             d="m 241.41615,185.17701 c 35.39255,-6.07424 38.89402,-27.66352 39.87362,-33.3928 -27.22661,-0.002 -38.0934,25.52613 -39.87362,33.3928 z m 26.70844,-23.9477 c 0,0 -16.08539,14.98084 -16.08539,14.98084 12.20401,1.98449 25.41001,-9.1497 28.07296,-23.43121 -13.06079,-0.10253 -29.09234,9.63743 -29.09234,22.12642 0,0 17.10477,-13.67605 17.10477,-13.67605 z"
             sodipodi:nodetypes="cccccccc"
             inkscape:connector-curvature="0" />
        </g>
        <g
           transform="matrix(0.9425961,-0.333935,0.333935,0.9425961,15.982773,159.57098)"
           id="g3955">
          <path
             style="fill:#ffffff;fill-opacity:1;fill-rule:evenodd;stroke:none"
             d="m 251.33954,176.64784 c 13.07901,2.60949 26.66318,-9.80054 29.32613,-24.08205 -15.67781,0 -30.37553,9.44413 -30.37553,22.62077 0,0 1.0494,1.46128 1.0494,1.46128 z"
             id="path3957"
             sodipodi:nodetypes="cccc"
             inkscape:connector-curvature="0" />
          <path
             id="path3959"
             style="fill:#006633;fill-opacity:1;fill-rule:evenodd;stroke:none"
             d="m 241.41615,185.17701 c 35.39255,-6.07424 38.89402,-27.66352 39.87362,-33.3928 -27.22661,-0.002 -38.0934,25.52613 -39.87362,33.3928 z m 26.70844,-23.9477 c 0,0 -16.08539,14.98084 -16.08539,14.98084 12.20401,1.98449 25.41001,-9.1497 28.07296,-23.43121 -13.06079,-0.10253 -29.09234,9.63743 -29.09234,22.12642 0,0 17.10477,-13.67605 17.10477,-13.67605 z"
             sodipodi:nodetypes="cccccccc"
             inkscape:connector-curvature="0" />
        </g>
        <g
           transform="matrix(0.8781341,-0.4784147,0.4784147,0.8781341,2.2112018,205.37203)"
           id="g3961">
          <path
             style="fill:#ffffff;fill-opacity:1;fill-rule:evenodd;stroke:none"
             d="m 251.33954,176.64784 c 13.07901,2.60949 26.66318,-9.80054 29.32613,-24.08205 -15.67781,0 -30.37553,9.44413 -30.37553,22.62077 0,0 1.0494,1.46128 1.0494,1.46128 z"
             id="path3963"
             sodipodi:nodetypes="cccc"
             inkscape:connector-curvature="0" />
          <path
             id="path3965"
             style="fill:#006633;fill-opacity:1;fill-rule:evenodd;stroke:none"
             d="m 241.41615,185.17701 c 35.39255,-6.07424 38.89402,-27.66352 39.87362,-33.3928 -27.22661,-0.002 -38.0934,25.52613 -39.87362,33.3928 z m 26.70844,-23.9477 c 0,0 -16.08539,14.98084 -16.08539,14.98084 12.20401,1.98449 25.41001,-9.1497 28.07296,-23.43121 -13.06079,-0.10253 -29.09234,9.63743 -29.09234,22.12642 0,0 17.10477,-13.67605 17.10477,-13.67605 z"
             sodipodi:nodetypes="cccccccc"
             inkscape:connector-curvature="0" />
        </g>
      </g>
      <g
         id="g3967"
         transform="matrix(0.2363127,-1.1874856,-1.1874856,-0.2363127,653.23332,842.83996)">
        <g
           transform="matrix(0.8121483,-0.583451,0.583451,0.8121483,-5.0001796,241.27892)"
           id="g3969">
          <path
             style="fill:#ffffff;fill-opacity:1;fill-rule:evenodd;stroke:none"
             d="m 251.33954,176.64784 c 13.07901,2.60949 26.66318,-9.80054 29.32613,-24.08205 -15.67781,0 -30.37553,9.44413 -30.37553,22.62077 0,0 1.0494,1.46128 1.0494,1.46128 z"
             id="path3971"
             sodipodi:nodetypes="cccc"
             inkscape:connector-curvature="0" />
          <path
             id="path3973"
             style="fill:#006633;fill-opacity:1;fill-rule:evenodd;stroke:none"
             d="m 241.41615,185.17701 c 35.39255,-6.07424 38.89402,-27.66352 39.87362,-33.3928 -27.22661,-0.002 -38.0934,25.52613 -39.87362,33.3928 z m 26.70844,-23.9477 c 0,0 -16.08539,14.98084 -16.08539,14.98084 12.20401,1.98449 25.41001,-9.1497 28.07296,-23.43121 -13.06079,-0.10253 -29.09234,9.63743 -29.09234,22.12642 0,0 17.10477,-13.67605 17.10477,-13.67605 z"
             sodipodi:nodetypes="cccccccc"
             inkscape:connector-curvature="0" />
        </g>
        <g
           transform="matrix(0.9425961,-0.333935,0.333935,0.9425961,15.982773,159.57098)"
           id="g3975">
          <path
             style="fill:#ffffff;fill-opacity:1;fill-rule:evenodd;stroke:none"
             d="m 251.33954,176.64784 c 13.07901,2.60949 26.66318,-9.80054 29.32613,-24.08205 -15.67781,0 -30.37553,9.44413 -30.37553,22.62077 0,0 1.0494,1.46128 1.0494,1.46128 z"
             id="path3977"
             sodipodi:nodetypes="cccc"
             inkscape:connector-curvature="0" />
          <path
             id="path3979"
             style="fill:#006633;fill-opacity:1;fill-rule:evenodd;stroke:none"
             d="m 241.41615,185.17701 c 35.39255,-6.07424 38.89402,-27.66352 39.87362,-33.3928 -27.22661,-0.002 -38.0934,25.52613 -39.87362,33.3928 z m 26.70844,-23.9477 c 0,0 -16.08539,14.98084 -16.08539,14.98084 12.20401,1.98449 25.41001,-9.1497 28.07296,-23.43121 -13.06079,-0.10253 -29.09234,9.63743 -29.09234,22.12642 0,0 17.10477,-13.67605 17.10477,-13.67605 z"
             sodipodi:nodetypes="cccccccc"
             inkscape:connector-curvature="0" />
        </g>
        <g
           transform="matrix(0.8781341,-0.4784147,0.4784147,0.8781341,2.2112018,205.37203)"
           id="g3981">
          <path
             style="fill:#ffffff;fill-opacity:1;fill-rule:evenodd;stroke:none"
             d="m 251.33954,176.64784 c 13.07901,2.60949 26.66318,-9.80054 29.32613,-24.08205 -15.67781,0 -30.37553,9.44413 -30.37553,22.62077 0,0 1.0494,1.46128 1.0494,1.46128 z"
             id="path3983"
             sodipodi:nodetypes="cccc"
             inkscape:connector-curvature="0" />
          <path
             id="path3985"
             style="fill:#006633;fill-opacity:1;fill-rule:evenodd;stroke:none"
             d="m 241.41615,185.17701 c 35.39255,-6.07424 38.89402,-27.66352 39.87362,-33.3928 -27.22661,-0.002 -38.0934,25.52613 -39.87362,33.3928 z m 26.70844,-23.9477 c 0,0 -16.08539,14.98084 -16.08539,14.98084 12.20401,1.98449 25.41001,-9.1497 28.07296,-23.43121 -13.06079,-0.10253 -29.09234,9.63743 -29.09234,22.12642 0,0 17.10477,-13.67605 17.10477,-13.67605 z"
             sodipodi:nodetypes="cccccccc"
             inkscape:connector-curvature="0" />
        </g>
      </g>
      <path
         transform="translate(278.64285,107.71932)"
         sodipodi:nodetypes="csssssscsssscccc"
         id="path4149"
         d="m 164.5,300.25 c -0.0658,4.31144 -3.1875,5.9375 -5.9375,10.75 -2.75,4.8125 -4.375,14.625 -5.625,14.625 -0.88242,0 -1.1875,-11.1875 1.3125,-15.625 4.66513,-8.28061 5.3125,-8.1875 5.3125,-9.75 0,-1.5625 0.75,-3.625 1.75,-3.625 1,0 3.24668,-0.25106 3.1875,3.625 z m -1.6875,26.25 c 2.43716,0 1.6875,-3.25 -0.0625,-6.6875 C 161,316.375 162.375,310.5 160.5,310.5 c -1.875,0 -2.75,4.8125 -2.75,7.8125 0,3 2.24815,8.1875 5.0625,8.1875 z m -9.37033,-29.15344 c 1.82302,1.73569 3.48458,3.59755 4.92765,5.65686 l -1.90034,3.13778 c -2.3027,-2.45218 -3.06029,-5.51326 -3.02731,-8.79464 z"
         style="fill:#ffffff;fill-rule:evenodd;stroke:#006633;stroke-width:2;stroke-linecap:butt;stroke-linejoin:miter;stroke-miterlimit:4;stroke-opacity:1;stroke-dasharray:none"
         inkscape:connector-curvature="0" />
    </g>
    <g
       id="g4774">
      <path
         transform="translate(302.95535,102.78182)"
         d="m 121.3125,129.5 c 0,1.20812 -0.97938,2.1875 -2.1875,2.1875 -1.20812,0 -2.1875,-0.97938 -2.1875,-2.1875 0,-1.20812 0.97938,-2.1875 2.1875,-2.1875 1.20812,0 2.1875,0.97938 2.1875,2.1875 z"
         sodipodi:ry="2.1875"
         sodipodi:rx="2.1875"
         sodipodi:cy="129.5"
         sodipodi:cx="119.125"
         id="path4766"
         style="fill:#000000;fill-opacity:1;fill-rule:nonzero;stroke:none"
         sodipodi:type="arc" />
      <path
         transform="translate(308.14285,113.09432)"
         d="m 121.3125,129.5 c 0,1.20812 -0.97938,2.1875 -2.1875,2.1875 -1.20812,0 -2.1875,-0.97938 -2.1875,-2.1875 0,-1.20812 0.97938,-2.1875 2.1875,-2.1875 1.20812,0 2.1875,0.97938 2.1875,2.1875 z"
         sodipodi:ry="2.1875"
         sodipodi:rx="2.1875"
         sodipodi:cy="129.5"
         sodipodi:cx="119.125"
         id="path4768"
         style="fill:#000000;fill-opacity:1;fill-rule:nonzero;stroke:none"
         sodipodi:type="arc" />
      <path
         transform="translate(326.64285,114.28182)"
         d="m 121.3125,129.5 c 0,1.20812 -0.97938,2.1875 -2.1875,2.1875 -1.20812,0 -2.1875,-0.97938 -2.1875,-2.1875 0,-1.20812 0.97938,-2.1875 2.1875,-2.1875 1.20812,0 2.1875,0.97938 2.1875,2.1875 z"
         sodipodi:ry="2.1875"
         sodipodi:rx="2.1875"
         sodipodi:cy="129.5"
         sodipodi:cx="119.125"
         id="path4770"
         style="fill:#000000;fill-opacity:1;fill-rule:nonzero;stroke:none"
         sodipodi:type="arc" />
      <path
         id="path4151"
         transform="translate(278.64285,107.71932)"
         d="m 127.59375,121.4375 c -2.46284,-0.044 -4.92242,0.3462 -7.28125,1.3125 3.65756,1.91632 7.98172,3.54319 12,3.59375 -4.21699,0.94119 -8.35542,2.81772 -11.34375,6.21875 6.53218,0.14053 14.2398,-1.17254 17.375,-6.625 8.11418,2.34495 16.03359,6.00358 23.53125,10.5625 -5.52235,-1.128 -12.01117,-1.11542 -17.21875,2.21875 6.19342,1.92888 13.87083,2.79686 18.40625,-1.46875 8.14416,5.09001 15.75326,11.24 22.4375,17.96875 -5.84112,0.35471 -12.54166,2.13378 -16.8125,7.0625 6.48705,0.0948 14.10999,-1.24718 17.25,-6.625 3.15607,3.20773 6.10889,6.53158 8.8125,9.9375 l 1.1875,-0.9375 c -3.09248,-3.89581 -6.51896,-7.68446 -10.1875,-11.3125 -0.121,-3.87015 -1.15804,-8.19615 -4.1875,-11.15625 -0.19224,2.57784 -0.0659,5.45147 0.75,7.875 -5.76164,-5.29671 -12.09387,-10.13956 -18.78125,-14.28125 -0.98012,-3.86669 -2.99054,-8.08422 -6.78125,-10.34375 0.45491,2.78594 1.36501,5.82443 2.96875,8.0625 -6.69517,-3.79263 -13.70771,-6.88956 -20.875,-8.96875 0.11388,-0.0767 0.23207,-0.13652 0.34375,-0.21875 -3.41866,-1.5563 -7.48902,-2.80163 -11.59375,-2.875 z m 9.3125,4.09375 c 0.0854,0.023 0.16462,0.0704 0.25,0.0937 -0.20006,0.0144 -0.39208,0.0133 -0.59375,0.0312 0.11293,-0.0394 0.23217,-0.0816 0.34375,-0.125 z"
         style="fill:#006633;fill-opacity:1;fill-rule:evenodd;stroke:none"
         inkscape:connector-curvature="0" />
      <path
         transform="translate(278.20535,107.78182)"
         d="m 121.3125,129.5 c 0,1.20812 -0.97938,2.1875 -2.1875,2.1875 -1.20812,0 -2.1875,-0.97938 -2.1875,-2.1875 0,-1.20812 0.97938,-2.1875 2.1875,-2.1875 1.20812,0 2.1875,0.97938 2.1875,2.1875 z"
         sodipodi:ry="2.1875"
         sodipodi:rx="2.1875"
         sodipodi:cy="129.5"
         sodipodi:cx="119.125"
         id="path4764"
         style="fill:#000000;fill-opacity:1;fill-rule:nonzero;stroke:none"
         sodipodi:type="arc" />
      <path
         transform="translate(337.20535,131.65682)"
         d="m 121.3125,129.5 c 0,1.20812 -0.97938,2.1875 -2.1875,2.1875 -1.20812,0 -2.1875,-0.97938 -2.1875,-2.1875 0,-1.20812 0.97938,-2.1875 2.1875,-2.1875 1.20812,0 2.1875,0.97938 2.1875,2.1875 z"
         sodipodi:ry="2.1875"
         sodipodi:rx="2.1875"
         sodipodi:cy="129.5"
         sodipodi:cx="119.125"
         id="path4772"
         style="fill:#000000;fill-opacity:1;fill-rule:nonzero;stroke:none"
         sodipodi:type="arc" />
    </g>
  </g>
</svg>
