<?xml version="1.0" encoding="UTF-8" standalone="no"?>
<!-- Created with Inkscape (http://www.inkscape.org/) -->

<svg
   xmlns:dc="http://purl.org/dc/elements/1.1/"
   xmlns:cc="http://creativecommons.org/ns#"
   xmlns:rdf="http://www.w3.org/1999/02/22-rdf-syntax-ns#"
   xmlns:svg="http://www.w3.org/2000/svg"
   xmlns="http://www.w3.org/2000/svg"
   xmlns:xlink="http://www.w3.org/1999/xlink"
   xmlns:sodipodi="http://sodipodi.sourceforge.net/DTD/sodipodi-0.dtd"
   xmlns:inkscape="http://www.inkscape.org/namespaces/inkscape"
   version="1.0"
   width="275"
   height="300"
   id="Layer_1"
   xml:space="preserve"
   inkscape:version="0.91 r13725"
   sodipodi:docname="Emblem_of_Azerbaijan.svg"><sodipodi:namedview
     pagecolor="#ffffff"
     bordercolor="#666666"
     borderopacity="1"
     objecttolerance="10"
     gridtolerance="10"
     guidetolerance="10"
     inkscape:pageopacity="0"
     inkscape:pageshadow="2"
     inkscape:window-width="1024"
     inkscape:window-height="705"
     id="namedview3540"
     showgrid="false"
     inkscape:zoom="1.5733333"
     inkscape:cx="169.88166"
     inkscape:cy="116.26557"
     inkscape:window-x="-8"
     inkscape:window-y="-8"
     inkscape:window-maximized="1"
     inkscape:current-layer="Layer_1" /><metadata
     id="metadata88"><rdf:RDF><cc:Work
         rdf:about=""><dc:format>image/svg+xml</dc:format><dc:type
           rdf:resource="http://purl.org/dc/dcmitype/StillImage" /><dc:title /></cc:Work></rdf:RDF></metadata><defs
     id="defs190" /><path
     d="m 141.21933,148.5604 c 58.66116,4.6526 127.82946,-33.6701 107.95311,34.89559 3.08676,5.74377 11.19731,-13.64267 11.77137,-15.58131 0.21647,-0.43295 2.5127,-9.19132 3.5165,-5.74377 -2.5111,5.38298 -3.23108,10.84293 -4.30703,14.14616 -0.14432,0.42974 -0.43135,4.30703 0,3.73297 0.57406,-1.0054 1.29403,-3.30483 1.57946,-4.66942 1.57945,-3.66081 2.79812,-7.82673 3.51649,-10.26567 0.21487,-0.64461 0.57246,-2.22727 1.0038,-3.23268 0,-2.0108 2.44054,-2.58325 1.36459,-0.57245 0,1.14972 -1.57786,6.10456 -2.08136,7.5381 0.57406,2.15512 0.93324,0.43295 1.5057,-0.57245 0.0738,-0.14432 0.93484,-2.65862 1.43674,-4.66942 0.57406,-2.36839 1.57946,-4.95164 2.29783,-8.5435 0.35919,-1.86649 1.43675,-4.30864 1.43675,-1.72217 -0.64622,3.94944 -2.36999,10.12456 -3.15892,14.00185 0,0.78892 -0.28703,1.79432 0.5019,1.79432 0.71677,-2.29943 2.08136,-6.96564 2.65541,-7.5381 2.29783,-0.57566 -2.22567,8.39919 -2.08135,11.84834 0,-1.14972 2.5111,-5.027 3.15891,-6.03241 2.0092,0 -0.43294,1.57786 -0.43294,2.79973 -0.14272,0.42974 -3.94785,11.27108 -3.0146,11.27108 0.93324,-1.21867 3.87568,-9.54891 4.95324,-9.83754 0.86108,0.93324 -3.44434,10.48535 -3.44434,12.42079 -0.78893,1.43675 -1.29243,3.30483 -1.79433,4.8859 -0.5019,0.50189 -0.57405,1.21866 -0.28863,2.00759 0,-0.93004 2.0108,-2.72757 2.44054,-3.87729 0.71677,-1.14651 0.93325,-2.43894 2.15352,-1.57785 -1.5073,4.37758 -4.44974,8.33023 -6.24568,12.70942 -1.36458,2.0108 -3.65921,6.17672 -1.50569,4.0216 1.93864,-1.93864 1.86648,-2.36838 2.87028,-3.73297 l 2.08136,-3.44434 c 0.5019,-0.36079 1.0054,-0.93645 1.72377,-0.93645 -1.22187,2.8751 -3.15891,5.88809 -4.59406,8.69103 -3.51649,4.01839 -5.59785,8.97324 -9.25866,12.63726 -1.07756,1.57785 -3.87569,3.58866 0.64621,1.72217 4.44974,-3.80513 8.0384,-9.76538 11.19571,-14.64807 0.28703,0.0722 0.86108,0.21648 1.14972,0.28864 -3.51811,6.89028 -8.32703,12.20431 -12.70622,18.38103 -1.29243,1.29083 -4.16271,3.73297 -4.87948,5.16812 0.78893,0.36079 0.57245,0.28863 1.5057,-0.28543 1.86648,-2.15512 4.23647,-4.31023 6.53109,-6.10456 l 0.57406,0.64461 c -4.30703,5.45835 -8.39758,10.19672 -13.78217,14.36264 -1.65001,1.29082 -3.5165,2.65541 -5.24027,3.73297 2.22567,1.14972 10.33623,-5.74377 12.20271,-7.10996 0.28703,-0.71677 0.57406,-0.71677 1.07596,-1.22188 0.28863,-0.64461 2.36998,-2.15191 2.36998,-0.28542 -2.72757,2.36838 -5.38298,5.16811 -8.11215,7.46594 -4.44974,3.94945 -9.40299,7.75458 -14.71542,10.69862 1.79433,0.86108 9.97865,-4.16592 11.48434,-5.45514 1.22028,-0.79214 2.43894,-1.72538 3.5165,-2.58646 0,0.28863 1.22188,0.79213 1.43675,0.79213 -2.58326,2.22407 -5.81433,4.16271 -8.68461,6.10136 -3.15892,2.15511 -6.89029,4.88269 -10.26407,6.5359 -3.37379,1.36299 -6.96244,3.80513 -10.40678,4.66622 0,0.93324 5.59785,-0.86109 6.38678,-0.86109 4.59405,-1.14971 9.11595,-3.16052 12.92108,-6.0324 1.14972,1.22187 0.86109,1.29082 -0.57405,2.22727 -1.93704,1.43515 -4.16272,2.22407 -5.81433,3.80513 -2.22407,0.78893 -4.87948,2.58326 -7.17892,3.44434 -4.80732,2.58646 -10.55109,4.88269 -15.79136,6.60486 -1.5057,0 -3.23108,1.14972 -4.59246,1.14972 -1.07595,0 -0.78892,0.64782 0.28864,0.64782 3.22946,0 5.88488,-0.21648 8.89948,-0.93325 2.08296,-0.43294 4.30863,-1.07756 6.02919,-1.72217 2.94405,-1.0054 6.45894,-3.01941 9.5473,-4.31023 0.14272,0.36079 0.43135,0.78893 0.57406,1.14971 -2.72757,2.72758 -7.32163,3.37379 -10.40838,4.88269 -0.0722,0 -0.64622,0.64461 -0.86109,0.64461 -1.43674,0 -5.45514,2.08296 -6.60325,2.22728 -3.44595,0.57245 -8.04,3.15731 -11.48434,3.15731 2.51109,0.79214 6.67541,-0.28542 9.18651,-0.78893 0,0.71998 1.79432,1.29404 1.72217,1.65322 -0.93325,2.87189 -2.87189,5.95704 -4.59246,8.68782 -3.80513,1.86649 -7.60865,4.16271 -11.48594,6.03241 -1.29243,0 -2.0092,-0.0722 -1.22027,-1.72538 0,0 2.94404,-3.44434 1.5073,-3.44434 -1.29243,0 -2.36999,-0.28863 -2.36999,1.43514 -0.14271,0.43295 -0.21487,0.79213 -0.5019,1.07756 0,2.15512 -0.86269,6.24727 -2.94404,7.25268 -1.36299,1.43514 -5.24027,2.0108 -7.17731,2.87188 -4.66622,0 -10.40839,2.87189 -14.93189,0 -1.22027,0 -2.94244,0.36079 -2.0092,-1.43674 0.86109,0 1.07756,0 1.72217,-0.28543 2.0108,0 11.62866,-2.5143 10.62326,-4.66621 -0.86109,0 -2.22568,0.21326 -2.87029,-0.5035 -0.93484,0 -1.07756,-0.28864 -2.0108,-0.57246 -0.78893,-1.43674 -3.5165,-0.36079 -4.66461,-1.43674 -0.93324,-0.43295 -2.15512,-0.86109 -0.28863,0.57566 0,1.57785 0.21647,3.22947 -1.36459,4.01839 -0.71677,0.36079 -1.57785,0.8643 -2.36999,0.8643 -1.29243,0 -5.09435,0.28542 -5.09435,-1.14972 -1.14971,0.57245 -0.28863,0.57245 -0.28863,1.43514 0.86109,0 -0.64621,2.08296 -0.86108,2.29943 -1.36459,2.72758 -8.32543,2.36839 -10.98244,2.36839 -1.00541,-0.21327 -2.01081,-0.71677 -2.87029,-0.93004 -3.94784,-2.01401 -8.39918,-3.95265 -12.06,-6.31943 -1.29243,0 -3.30162,1.65001 -4.37758,2.29943 -3.66081,2.5111 -7.10676,6.0292 -11.98784,6.0292 -1.65162,0 -3.15892,0.0722 -3.73137,-1.07756 -1.0054,0 -0.86269,-1.79433 -0.86269,-2.36838 0,0 2.22567,-2.37159 0.28703,-1.36619 -1.86649,1.36619 -5.95704,1.86648 -8.32542,1.07756 -2.36999,-2.3716 -1.86649,-3.08836 0,-4.88269 -0.28703,0 -1.93865,-1.29083 -2.08136,-1.43514 0,-0.64782 -0.21487,-1.07756 -0.5019,-1.72538 -2.29623,1.14972 -4.73677,1.14972 -6.962436,-0.28543 -1.579457,1.57786 -3.444339,2.58326 -5.95704,2.58326 -0.574056,-0.28863 -1.292429,-0.64461 -1.794328,-0.86109 -4.307028,0 -3.732971,-0.21647 -3.732971,3.16052 0,0.78893 0.287028,1.36299 0,2.08296 0,0.71677 -0.646215,2.22407 -1.435142,2.22407 -1.436745,1.43675 -4.881084,2.44215 -6.890283,1.79433 -2.081356,0 -2.942441,-0.71677 -4.307028,-2.07975 -1.148113,0 -0.861085,-0.71998 -0.861085,-1.43675 -1.651615,-1.29082 -1.507299,-6.82133 0.861085,-8.61566 0.287029,-0.28863 1.579458,-2.0108 0.574057,-2.0108 0,-1.0054 0.287028,-1.22187 -0.861085,-1.22187 -0.933243,0 -0.431344,-0.86109 -1.507299,-0.86109 -2.081357,-0.86108 -2.583255,0.28863 -4.592453,0.28863 -2.010802,3.0162 -5.240271,6.67702 -9.117559,6.67702 -1.003797,0 -2.081356,-1.86649 -2.081356,-2.87189 -0.718372,-2.15512 -0.21487,-5.31403 0.287028,-7.5381 -1.364587,0 -1.93704,-0.71998 -2.871886,-1.36619 -0.359186,0 -0.861085,-1.36619 -0.861085,-1.79433 0,-1.93864 -1.148113,-1.5089 -1.148113,-2.22727 0,-1.5057 -3.086757,0.28863 -4.02,0.28863 -1.435142,0 -2.942441,0 -4.307028,0 0,-0.0722 0.21487,-0.43295 0.287028,-0.57566 -2.871887,0 -5.095955,-4.59406 -3.731368,-7.24947 -0.501899,0 0,-0.64782 0,-1.07756 1.003797,-2.08296 5.023797,-3.5197 7.177311,-4.66621 -1.220271,0 -1.005401,-1.43675 -2.009198,-1.43675 -0.359186,-0.36079 -0.574057,-0.5019 -0.574057,-1.14972 -2.081356,0 0.718373,-3.73297 -2.870283,-3.73297 -0.933243,-0.78892 -0.933243,-0.93324 -2.009198,-0.93324 -0.144316,0 -0.501898,0 -0.646214,0 -2.584859,0 -9.188113,-3.58866 -9.188113,-5.96025 0.431344,-0.93324 1.292429,-1.65001 2.081356,-2.36838 1.93704,-1.65322 -1.866486,-1.00861 -2.29783,-2.8751 -1.72217,-0.50189 -2.081356,-2.36838 -2.081356,-4.01839 0,-2.22728 2.871886,-3.44755 4.018396,-5.17132 -1.794328,-1.22188 -3.229469,-0.28863 -5.453538,-0.79214 -0.718372,0 -1.436745,0 -2.29783,0 -1.507299,-0.35758 -3.732971,-1.50569 -4.307028,-2.65541 -0.718372,-1.43514 -1.005401,-3.73297 -0.574056,-5.45514 0,-2.29943 5.168113,-3.0162 5.168113,-4.88269 -1.579458,-0.5035 -2.440543,-3.23267 -3.373786,-4.59726 -0.574056,-2.07975 -0.933243,-4.73837 -0.933243,-6.96565 -3.014599,0 -5.168113,-0.21327 -7.178914,-3.15731 -2.296227,-2.29943 -2.871887,-5.24348 -2.871887,-8.33024 0,-3.37378 -2.9424405,-1.14971 -4.377582,-2.58325 -1.2924292,0 0.2870283,-2.65541 -1.3629836,-3.16052 -2.225672,-1.43514 -4.30702814,-3.73297 -4.30702814,-6.60486 0,-4.16592 4.88108474,-0.5035 4.88108474,-4.31023 0,-5.59946 0.5740566,-4.09376 4.2348702,-6.60486 0.4313442,-2.15512 -1.1481132,-1.65001 -1.6516154,-3.23268 -1.5072995,-1.21866 -1.3629836,-3.37378 -2.3683844,-4.30702 0,-4.88269 1.2924291,-6.53591 4.9516386,-8.61887 0.359186,0 1.077559,0 1.436745,0 2.081356,0 2.296227,2.29943 3.445943,2.29943 1.148114,2.37159 1.003798,0 0.287029,0 0,-0.78893 0.21487,-3.37378 -0.861085,-3.37378 0,-1.0054 0,-2.15512 -0.287029,-3.16052 -0.501898,0 -0.287028,-1.36619 -0.287028,-1.72378 L 141.21933,148.5604 z"
     id="path7"
     style="fill-rule:evenodd" /><polygon
     points="86.025,187.055 86.606,187.055 87.099,187.055 87.637,187.055 88.173,187.234 88.71,187.412 89.292,187.771 89.964,187.951 89.471,188.309 88.934,188.488 88.353,188.488 87.815,188.668 87.278,188.668 86.786,188.668 86.204,188.668 85.667,188.668 85.129,188.668 84.95,188.668 84.95,188.668 84.413,188.129 84.413,187.771 84.592,187.592 84.771,187.592 84.95,187.412 85.129,187.234 85.488,187.055 "
     transform="matrix(1.6035101,0,0,1.6035101,-17.034284,-4.5459506)"
     id="polygon9"
     style="fill:#496e6e;fill-rule:evenodd" /><polygon
     points="105.721,186.92 106.078,186.742 106.437,186.742 106.795,186.518 107.152,186.518 107.556,186.338 107.868,186.338 108.227,186.338 108.585,186.338 109.122,186.338 109.48,186.338 110.063,186.338 110.555,186.338 111.092,186.338 111.45,186.742 111.271,186.92 111.092,187.055 110.913,187.234 110.555,187.412 110.421,187.592 110.063,187.592 109.66,187.771 109.302,187.771 108.943,187.951 108.406,188.129 107.868,188.129 107.332,188.309 106.795,188.309 106.258,188.309 105.721,188.309 105.228,188.309 104.646,188.309 104.646,188.309 104.108,187.951 104.646,187.412 104.825,187.412 105.004,187.412 105.228,187.234 105.362,187.234 105.542,187.055 "
     transform="matrix(1.6035101,0,0,1.6035101,-17.034284,-4.5459506)"
     id="polygon11"
     style="fill:#496e6e;fill-rule:evenodd" /><path
     d="m 70.591129,278.66761 c 0,-5.38299 5.023797,-4.31024 8.325424,-5.38299 2.081356,0 5.382984,-2.22727 6.604858,-3.73297 0.933243,-4.23808 -2.584858,-2.29943 -2.584858,-5.81593 0,-2.87509 2.799729,-2.15512 4.594057,-2.01401 0.933242,0.0722 0.788927,0.57566 1.722169,0.57566 -2.438938,1.29083 -2.009198,2.15512 -2.009198,4.31024 0,0.85787 -2.153514,5.16811 0.287029,5.16811 0,0.78893 1.579457,0.28863 0.287028,0.93324 0,2.87189 -7.46434,6.67702 -8.614056,7.46595 0.646214,1.29403 4.090554,-1.36299 4.881084,-2.0076 0.501899,0.42974 -1.722169,4.5219 -2.009198,5.09916 -0.79053,2.65542 -2.010801,5.74378 -2.010801,8.68782 0,1.72217 0.861085,0.14111 0.861085,-0.57566 0,-2.0108 3.301627,-11.41539 5.168113,-13.20972 0.359186,0.57246 0.788927,3.73298 1.148113,3.73298 0,1.14971 1.362983,2.72757 1.72217,3.73297 2.368384,1.14971 -0.861085,-5.24348 -0.861085,-6.38839 -1.292429,-1.29403 0.21487,-4.0216 0.861085,-5.09916 0,0.21327 1.722169,3.16052 1.722169,0.78893 0,0.36079 3.014599,0 3.947842,0 0.07216,0 10.336221,0.64461 10.336221,0.64461 1.93704,2.15512 -0.71677,4.81053 -2.0092,4.81053 -3.157304,0 -7.464332,-3.94945 -8.541891,-3.08515 -4.092158,3.30162 4.594056,8.61566 0.574057,10.62646 -1.579458,0 -5.814328,0.42974 -6.890283,-1.43675 -6.962441,1.72217 -1.005401,9.76538 -9.188113,9.76538 -4.808927,0 -5.168113,-5.5273 -2.368385,-8.32703 1.866486,-1.86648 2.009199,-7.18212 -1.650011,-7.18212 -1.003798,-0.002 -4.305425,-0.50671 -4.305425,-2.08456 l 0,0 z"
     id="path13"
     style="fill:#009e49;fill-rule:evenodd;fill-opacity:1" /><polygon
     points="125.818,185.98 126.177,185.98 126.535,186.16 126.535,186.338 126.714,186.338 126.894,186.338 127.072,186.338 127.251,186.338 127.431,186.338 127.609,186.338 127.967,186.16 127.431,186.518 127.072,186.518 126.714,186.742 126.355,186.742 126.043,186.92 125.461,187.055 125.282,187.055 124.744,187.055 124.565,187.055 124.028,187.234 123.849,187.234 123.313,187.234 123.133,187.234 122.954,187.234 122.954,187.234 123.133,187.234 123.491,187.055 123.849,187.055 124.207,186.92 124.565,186.92 124.924,186.518 125.282,186.338 "
     transform="matrix(1.6035101,0,0,1.6035101,-17.034284,-4.5459506)"
     id="polygon15"
     style="fill:#009e49;fill-rule:evenodd;fill-opacity:1" /><polygon
     points="77.968,186.338 77.968,185.98 78.684,185.621 79.042,185.621 79.176,185.621 79.579,185.621 79.758,185.621 80.116,185.621 80.474,185.621 80.833,185.621 80.833,185.801 81.011,185.801 81.19,185.801 81.19,185.98 81.37,185.98 81.548,185.98 81.907,185.98 81.907,186.338 81.683,186.518 81.548,186.518 81.37,186.518 81.19,186.742 81.011,186.742 80.833,186.92 80.474,186.92 80.295,186.92 80.116,186.92 79.937,186.92 79.579,186.92 79.355,186.92 79.176,186.92 79.042,186.92 78.863,186.92 78.863,186.92 78.684,186.92 78.505,186.92 78.326,186.92 78.326,186.742 78.146,186.742 78.146,186.518 77.968,186.518 "
     transform="matrix(1.6035101,0,0,1.6035101,-17.034284,-4.5459506)"
     id="polygon17"
     style="fill:#496e6e;fill-rule:evenodd" /><polygon
     points="112.928,184.189 113.062,184.189 113.24,184.189 113.42,184.189 113.599,184.189 113.778,184.01 113.956,184.01 114.314,183.652 114.718,183.652 115.076,183.473 115.434,183.473 115.747,183.473 115.927,183.473 116.284,183.473 116.463,183.473 116.866,183.473 116.866,183.652 116.866,183.83 116.866,184.01 116.866,184.189 116.866,184.324 116.866,184.547 116.104,184.906 115.747,185.084 115.612,185.084 115.255,185.084 115.076,185.084 114.718,185.084 114.539,185.084 114.136,185.084 113.956,185.084 113.778,185.084 113.778,185.084 113.599,185.084 113.42,185.084 113.24,185.084 113.062,185.084 112.928,184.906 112.748,184.727 112.748,184.547 "
     transform="matrix(1.6035101,0,0,1.6035101,-17.034284,-4.5459506)"
     id="polygon19"
     style="fill:#496e6e;fill-rule:evenodd" /><polygon
     points="84.413,178.457 84.592,178.637 84.771,178.816 84.95,178.994 85.129,178.994 85.309,179.129 85.488,179.309 85.667,179.488 86.204,179.488 86.204,179.891 85.846,180.068 85.667,180.068 85.309,180.248 85.129,180.248 84.771,180.428 84.592,180.428 84.413,180.607 84.279,180.607 84.279,180.607 84.279,180.428 84.279,180.248 84.279,180.068 84.279,179.666 84.279,179.488 84.279,179.129 84.279,178.994 "
     transform="matrix(1.6035101,0,0,1.6035101,-17.034284,-4.5459506)"
     id="polygon23"
     style="fill:#ffffff;fill-rule:evenodd" /><path
     d="m 128.94606,282.47274 c -1.43514,0 -3.73297,-5.96025 -3.08515,-7.24947 -1.22027,0 -2.08136,-2.22728 -3.44594,-2.22728 -3.30163,1.29403 -8.46974,5.5273 -11.5565,3.73297 -0.86108,-0.5019 -2.44054,-1.79433 -0.64621,-3.73297 0.50189,-0.43295 -0.57406,-4.66621 1.22027,-4.66621 0,0.93324 1.79593,-0.0722 2.0108,-0.28864 1.72217,-1.65001 3.87568,1.79433 4.87948,2.87189 2.0108,-1.0054 -1.43514,-3.37539 -1.43514,-4.30703 0.93324,-0.93645 12.05839,-1.07756 12.05839,2.65542 1.36459,0 1.22028,3.66081 1.22028,4.88268 1.50569,1.14972 1.00379,-2.73077 1.00379,-3.23267 0,-3.73297 2.58326,0.93324 2.94244,1.43674 0.64622,1.07756 5.31083,8.04 6.60326,5.5273 -2.79973,-1.93864 -4.66461,-6.60486 -7.17731,-8.90429 -0.35759,-0.43295 -1.93704,-1.57785 -0.57246,-0.93324 2.79973,0 5.81273,1.57785 7.46434,-1.72217 -1.29243,0.5019 -15.50434,-0.0722 -15.50434,-1.72538 -2.00919,0 -4.23487,0 -6.31622,0 1.57946,-1.07756 7.32163,-5.81593 6.96244,-6.60486 -2.5111,1.57786 -5.38138,3.51971 -7.82353,5.17132 -7.89568,6.17352 -3.30162,-4.31023 -3.15731,-4.31023 0.93324,0 1.14812,-1.43514 0.57406,-2.0108 1.43514,-1.43515 3.44434,-2.65542 5.16811,-3.5165 0.5019,-0.21648 4.59245,-0.93324 4.59245,-0.5035 0.64622,0 1.57946,0.79213 2.29783,0.79213 0,0.86109 1.43675,2.79973 1.43675,4.37758 0,5.17132 5.88649,4.38079 9.47354,3.51971 1.72217,1.21867 5.38298,1.43514 5.38298,4.5219 -0.79053,1.79432 -1.22027,1.86648 -2.5111,3.23267 0,0.42974 -0.36079,1.14651 -0.57405,1.36299 0,4.09376 5.45514,4.23807 5.45514,7.25267 0,1.5057 0.43134,4.81053 -2.08296,4.81053 -1.65001,1.72217 -6.81813,1.0054 -6.81813,-2.22727 -0.57405,0 -1.79432,-0.71677 -1.79432,-1.21867 -2.94405,0.003 -3.58866,3.23268 -6.24568,3.23268 l 0,0 z"
     id="path25"
     style="fill:#009e49;fill-rule:evenodd;fill-opacity:1" /><polygon
     points="86.383,176.98 86.204,176.801 86.025,176.801 86.025,176.621 86.025,176.486 85.846,176.486 85.667,176.486 85.488,176.309 85.488,176.129 85.309,176.129 85.129,175.949 85.129,175.771 84.95,175.771 84.95,175.592 84.771,175.592 84.771,175.412 84.771,175.01 84.95,175.01 85.129,175.01 85.309,175.01 85.488,175.01 85.667,175.01 85.846,175.01 86.204,174.83 86.204,175.01 86.606,175.232 86.786,175.412 87.278,175.412 87.457,175.592 87.815,175.771 87.994,175.949 88.353,176.129 88.353,176.486 88.353,176.621 88.353,176.801 88.353,176.98 88.353,177.338 88.353,177.74 88.531,177.74 88.353,177.92 88.353,177.92 88.531,177.561 88.173,177.561 87.815,177.561 87.457,177.338 87.278,177.158 86.965,177.158 86.786,176.98 "
     transform="matrix(1.6035101,0,0,1.6035101,-17.034284,-4.5459506)"
     id="polygon27"
     style="fill:#009e49;fill-rule:evenodd;fill-opacity:1" /><path
     d="m 180.41072,277.01759 c -4.02,0.71677 -10.40678,1.43515 -14.71541,1.43515 -4.5203,0 -6.31462,-2.15191 -6.24407,-5.16812 0.0722,-5.38619 12.48814,-0.71997 16.36542,-0.28863 4.59246,0.57245 8.25327,1.36298 12.63246,1.36298 4.37918,0 -2.44055,1.43675 -2.87189,1.43675 -0.71677,0.43295 -4.0184,1.0054 -5.16651,1.22187 l 0,0 z"
     id="path29"
     style="fill:#fff200;fill-rule:evenodd" /><path
     d="m 54.15515,272.70736 c -0.287028,0 -2.153514,-2.22728 -3.732971,-1.5057 -2.655413,0 -8.325425,2.94405 -8.325425,-2.22727 0,-4.31024 1.72217,-3.87729 4.307029,-5.81593 1.003797,0.93324 5.742169,0.28863 5.742169,-2.01081 1.292429,-1.29403 -2.009198,-6.74917 4.881085,-3.44754 4.666214,0 7.46434,0.79213 7.46434,-4.59406 0,-4.0216 6.675412,-6.0324 7.751367,-2.87188 1.364587,0 5.168113,4.16591 4.592453,5.17132 0,3.66081 -0.788927,3.0162 -0.287028,5.17132 -3.732972,0 -4.666214,-2.3716 -8.038396,-3.44755 -0.718373,-1.07756 -0.431344,-0.86109 -1.651616,-0.57245 0,1.65001 3.732972,3.30162 5.168113,3.73297 -0.718372,0.28863 -7.823525,1.36298 -8.614056,2.29943 -1.93704,0.42974 -6.604858,-1.0054 -8.110554,-2.58646 -0.21487,0.5035 -0.501899,0.93324 -0.501899,1.5089 1.362984,0 4.521899,2.22728 5.382984,2.22728 -2.081356,1.07435 -6.173514,1.14651 -8.614056,1.14651 -0.287029,0.36079 -4.307029,1.14971 0.861085,1.14971 3.373785,0 6.244068,0.36079 9.186509,-1.14971 -0.718373,1.14971 -4.162712,5.38619 -3.732972,6.31943 1.5073,0 3.660814,-4.16592 4.95164,-5.67161 2.871886,-2.3716 3.947841,-3.23268 8.325424,-3.23268 2.871887,-0.86109 -6.17191,5.45514 -2.368384,5.45514 0.646214,-1.43514 6.388384,-6.89349 6.388384,-5.45514 1.148113,0 2.296226,0 3.44434,0 -3.231073,1.50569 0.359186,3.16052 0.287028,3.23268 7.751368,2.07975 1.075955,6.24567 -5.455142,6.24567 -1.292429,0 -1.794327,0.93324 -2.871886,2.87188 -1.435142,1.36619 -4.666215,-4.73837 -7.751368,-1.65001 -2.583255,2.5111 -2.511097,4.31024 -6.675412,4.31024 -1.71736,-0.006 -1.430331,-4.60368 -2.002785,-4.60368 l 0,0 z"
     id="path31"
     style="fill:#009e49;fill-rule:evenodd;fill-opacity:1" /><polygon
     points="103.572,174.293 104.108,174.113 104.825,173.801 105.362,173.621 106.078,173.264 106.795,172.904 107.556,172.322 108.227,172.322 108.764,172.682 108.048,173.264 107.332,173.441 106.795,173.621 106.258,173.801 105.542,174.113 105.004,174.293 104.288,174.65 103.75,174.83 103.572,175.01 103.393,175.232 103.214,175.412 103.034,175.592 103.034,175.771 102.632,175.771 102.632,175.771 102.497,175.771 102.497,175.592 102.497,175.412 102.497,175.232 102.497,175.01 102.497,174.65 103.034,174.65 "
     transform="matrix(1.6035101,0,0,1.6035101,-17.034284,-4.5459506)"
     id="polygon33"
     style="fill:#fff200;fill-rule:evenodd" /><path
     d="m 146.4596,274.14571 c -1.36298,0 -1.43514,-1.14972 -2.29783,-1.14972 0,-0.28863 -0.5019,-1.07756 -0.64461,-1.22187 0,-4.37759 5.0238,-8.97645 7.82353,-11.77618 3.87568,-2.94405 7.75136,-5.38299 11.84352,-7.75458 -3.58705,4.09376 -7.39218,9.04861 -8.97164,14.36264 -1.5073,2.58326 -4.09215,7.5381 -7.46594,7.5381 l -0.28703,0 0,0.002 z"
     id="path35"
     style="fill:#fff200;fill-rule:evenodd" /><path
     d="m 92.483852,272.99599 c -3.588655,-1.36619 -1.292429,-5.81593 1.364587,-7.46594 1.436745,-2.22728 1.148114,-1.58106 1.148114,-3.80834 0,-3.87729 -9.76217,-2.00759 -10.336226,-2.00759 -2.153515,0 -6.029198,-1.14972 -6.029198,-4.02161 0,-0.64781 3.085153,-0.14431 4.594056,-0.86429 5.240271,-2.36838 -0.501899,-7.46594 -4.02,-7.46594 -0.429741,-0.43295 -2.583255,-1.57786 -2.655413,-1.79433 -0.861084,-3.73297 -0.574056,-5.96025 2.368385,-7.46594 0.646214,0.64461 6.890283,2.72757 6.890283,3.44434 0,0.78892 2.225672,2.51109 2.942441,2.94404 0.861085,0.71677 6.17191,-1.65001 6.245672,1.07756 l 2.081356,0.57245 c 3.803521,0 -1.435142,5.53051 5.670011,5.53051 2.72757,0 4.44974,-2.0108 6.67541,-0.28863 5.38298,3.94944 -1.93704,11.41539 -2.58326,16.37023 -1.79432,-2.87188 -2.0108,-8.97645 -2.0108,-12.34863 -1.29082,0 -1.07595,-0.36079 -1.43514,0.86109 0,1.29403 -0.28703,3.73297 0.28703,4.88268 -0.93324,-0.57245 -1.57946,-1.50569 -2.29623,-2.29943 -0.5035,-0.78893 -4.59405,-3.94944 -4.59405,-4.30703 -1.505696,0 -2.296226,-10.41319 -3.732971,-8.40239 0,0.71677 0.07216,5.67482 1.075955,6.67702 -4.018396,-0.78893 -10.336226,-7.39379 -11.484339,-11.27108 l -1.148113,0 c 1.003797,4.59406 5.525695,8.9043 9.186509,11.27108 4.953243,3.0162 -4.307028,1.0054 -4.307028,2.29943 0,2.22728 7.321627,0.78893 8.614056,0.57566 3.588656,1.5057 6.747571,6.17351 8.971631,9.18811 -1.57945,0 -7.034591,-0.42974 -7.464331,0.93325 0.359186,1.65001 7.608651,0.14431 8.612451,2.22727 0,0.71677 0.0722,3.94945 0.5019,4.66622 -1.5073,0.5035 -3.73298,0.0722 -5.09596,0.57566 -0.50029,0.21487 -8.036788,-0.28543 -8.036788,-0.28543 l 0,0 z"
     id="path37"
     style="fill:#009e49;fill-rule:evenodd;fill-opacity:1" /><path
     d="m 211.77698,270.6244 c -6.81973,3.37539 -14.35462,2.58646 -21.60569,1.43674 -1.86489,-0.28863 0.35918,-0.57566 1.43514,-0.86108 2.80133,-0.86109 5.74377,-1.07756 8.0416,-2.87189 4.23487,1.07917 7.89569,2.72918 12.12895,2.29623 l 0,0 z"
     id="path39"
     style="fill:#fff200;fill-rule:evenodd" /><path
     d="m 173.16125,264.5936 c 2.5111,0 5.16812,0 7.5365,0.64782 7.17731,1.65001 9.47354,1.79432 14.35462,2.51109 0.57406,0.14432 3.15892,0.57566 1.22188,0.57566 -0.21808,0.14432 -4.45135,1.22188 -4.95485,1.22188 -2.72597,1.29082 -16.58029,2.94084 -18.15815,1.36298 -4.0216,0 -3.0146,-6.31943 0,-6.31943 l 0,0 z"
     id="path41"
     style="fill:#fff200;fill-rule:evenodd" /><path
     d="m 157.94394,270.91303 c -8.39758,-4.09376 10.62326,-19.02885 13.85272,-21.03965 -4.09055,5.5305 -6.60325,11.99265 -9.25866,18.16776 -1.57786,1.65002 -1.72057,2.87189 -4.30543,2.87189 l -0.28863,0 0,0 z"
     id="path43"
     style="fill:#fff200;fill-rule:evenodd" /><path
     d="m 200.8683,266.03034 c -1.57945,0 -4.09215,-0.21647 -0.57405,-1.43674 4.44974,-1.43514 8.46974,-2.94405 12.34542,-5.16811 1.36459,0 2.43894,0.86108 3.44434,0.86108 3.73137,0 7.32163,0 10.98404,-0.57245 -2.79972,1.65001 -11.91728,5.5273 -15.00083,6.10135 -5.17132,1.0038 -2.30104,0.0706 -11.19892,0.21487 l 0,0 z"
     id="path45"
     style="fill:#fff200;fill-rule:evenodd" /><path
     d="m 169.13965,264.88063 c -1.36298,0 -0.42974,-0.57246 -1.07596,-0.57246 -4.88108,-4.88268 11.98784,-17.59211 12.92109,-16.65886 -4.16432,6.24567 -3.37379,14.14296 -11.5565,17.23132 l -0.28863,0 0,0 z"
     id="path47"
     style="fill:#fff200;fill-rule:evenodd" /><path
     d="m 201.94426,261.72171 c 2.0092,0 -0.5019,0.57566 -0.5019,0.57566 -0.93164,0.93324 -10.40678,2.29623 -11.84192,2.29623 -3.15892,0 -6.89189,1.00861 -6.89189,-3.44434 0,-5.17132 10.69381,-2.43894 13.20651,-1.14972 1.65001,0.78893 4.16271,1.72217 6.0292,1.72217 l 0,0 z"
     id="path49"
     style="fill:#fff200;fill-rule:evenodd" /><polygon
     points="99.454,165.516 99.946,164.979 100.886,164.262 101.603,163.725 102.497,163.008 103.393,162.471 104.467,161.934 105.542,161.576 106.795,160.994 106.437,161.576 106.078,161.754 105.721,162.293 105.362,162.471 104.825,162.83 104.467,163.188 104.108,163.545 103.93,163.904 103.572,164.084 103.034,164.621 102.855,164.979 102.632,165.158 102.497,165.338 102.318,165.516 102.318,165.695 101.96,165.92 101.781,166.232 101.603,166.412 101.424,166.592 101.244,166.77 101.244,166.949 100.886,166.949 100.886,166.949 100.707,166.77 100.527,166.592 100.304,166.412 100.125,166.232 99.812,166.232 99.812,166.053 99.454,165.92 "
     transform="matrix(1.6035101,0,0,1.6035101,-17.034284,-4.5459506)"
     id="polygon51"
     style="fill:#fff200;fill-rule:evenodd" /><path
     d="m 45.254066,254.25416 c 0,-2.15511 5.455141,-3.58865 5.455141,-7.18212 0,-1.86648 -4.521898,-4.23487 -5.168113,-6.89349 0,-3.94944 4.307028,-1.72217 3.158915,-5.81593 0,-1.0054 -2.368384,-3.16052 -3.445943,-3.16052 -0.214871,-0.50189 -3.086757,-5.31243 -1.72217,-6.60485 0.574057,-0.93325 2.368384,-3.15732 3.732971,-3.15732 2.153515,-1.0054 2.440543,1.14651 4.02,0.28543 2.871887,2.94404 1.577854,10.26888 8.901085,5.17132 1.435141,0.64461 1.292429,1.57785 2.081356,2.29623 2.079753,0 0.788927,6.39159 2.798125,6.39159 1.794328,1.72217 6.029198,-1.5057 6.962441,0.57245 1.507299,0 2.727571,1.36619 3.158915,2.5143 0.429741,1.0054 -0.862689,1.93865 -0.862689,2.87189 0,0 -1.866485,2.58326 -1.507299,3.23268 2.5127,3.80513 -6.890283,1.36298 -4.307028,-0.57566 0,-0.78893 -0.07216,-1.5057 0.287028,-2.36839 -2.727571,0 -0.646214,5.24027 -3.157311,5.24027 -0.07216,0.0722 -0.574057,0.28864 -0.574057,0.57566 -1.72217,-0.36079 0.574057,3.58866 -1.650012,0.28543 -2.369988,-3.58866 -4.738372,-8.61566 -3.229469,-13.28188 0.429741,-1.22187 -0.144316,-3.16051 0.287028,-4.59405 -1.866486,0 -1.93704,5.59945 -1.93704,7.17891 0,2.87189 -5.168113,-4.88269 -5.527299,-5.38298 -1.650012,-2.08296 -4.02,-4.52511 -5.455142,-6.67702 -2.225672,1.07756 6.675413,10.77078 8.038396,12.63727 1.938644,2.43893 1.436745,2.08296 -0.788927,1.50569 -1.794327,0 -5.023797,-0.14111 -6.388384,-0.64461 -0.933243,2.0108 7.823526,1.86649 9.475141,2.58326 0.574057,1.79753 2.655413,5.88808 4.02,7.25267 0.431344,1.43675 2.153514,-0.14431 0,2.0108 -2.225672,2.22728 -5.382983,-0.43294 -6.818125,0.28864 -3.014599,0 4.736769,2.72757 1.650012,3.44433 -1.003797,0.21648 -0.359186,0.21648 -1.435141,0.57246 -1.364587,0.5035 -0.359187,-0.21327 -2.29783,0.71997 -1.003798,0.5019 -2.942441,3.87729 -2.29783,3.87729 -2.442146,0.002 -5.456745,-3.0146 -5.456745,-5.16972 l 0,0 z"
     id="path53"
     style="fill:#009e49;fill-rule:evenodd;fill-opacity:1" /><path
     d="m 200.00561,251.95634 c 4.88269,0 9.33243,1.65321 14.0692,1.65321 -4.73677,3.58866 -20.81516,8.61566 -19.30786,0.64461 0.35918,-1.86648 4.16271,-2.29782 5.23866,-2.29782 l 0,0 z"
     id="path55"
     style="fill:#fff200;fill-rule:evenodd" /><path
     d="m 182.13289,257.98874 c -0.57406,0 -1.72217,-0.86108 -2.0092,-1.14972 0,-7.46594 4.87948,-9.40458 10.0492,-13.20971 0.78893,-0.57246 1.22027,-1.79433 2.36999,-1.79433 -1.07756,2.08296 -2.36999,4.95485 -3.15892,6.96565 -1.29243,3.22947 -2.36998,9.18811 -6.96244,9.18811 l -0.28863,0 0,0 z"
     id="path57"
     style="fill:#fff200;fill-rule:evenodd" /><path
     d="m 224.55375,255.83362 c -3.08676,1.14972 -10.47894,1.86649 -10.47894,1.29404 -1.36458,-1.07756 -1.43674,-0.71677 0,-1.43515 3.58866,-2.22727 6.81813,-4.09376 13.20651,-4.59726 2.87028,-0.21647 5.09596,0.21647 7.24947,-0.28542 -2.36838,1.72217 -7.75137,4.59405 -9.97704,5.02379 l 0,0 z"
     id="path59"
     style="fill:#fff200;fill-rule:evenodd" /><path
     d="m 192.18209,252.532 c -3.15731,0 -0.21487,-5.09917 0.36079,-6.3916 2.58325,-3.30162 5.95704,-6.10456 9.40138,-8.61566 -3.58705,3.87729 -3.23107,15.00726 -9.40138,15.00726 l -0.36079,0 0,0 z"
     id="path61"
     style="fill:#fff200;fill-rule:evenodd" /><path
     d="m 212.9251,252.24497 c 1.93864,0 6.46054,-2.65542 8.04,-3.73297 0.36078,0.14431 3.0162,0.43294 3.94784,0.57245 -1.72217,1.86648 -8.25327,3.16052 -9.97704,3.16052 -0.64622,0 -1.14972,0 -1.72378,0 l -0.28702,0 0,0 z"
     id="path63"
     style="fill:#fff200;fill-rule:evenodd" /><path
     d="m 205.46236,249.87338 c -0.57406,0 -1.65162,-3.37379 0.28703,-3.37379 1.22027,-1.29403 11.12515,0.57245 14.35462,0.57245 -2.72597,2.66023 -13.20811,5.96185 -14.64165,2.80134 l 0,0 z"
     id="path65"
     style="fill:#fff200;fill-rule:evenodd" /><path
     d="m 244.86702,240.46879 c -2.94244,4.0216 -14.49894,12.13536 -19.093,7.61026 -0.78893,-0.78893 -0.71677,-2.08296 0.64622,-2.79973 1.93864,-1.14972 4.30702,-2.29943 8.68461,-3.44434 3.37539,-0.79374 6.46054,-0.28863 9.76217,-1.36619 l 0,0 z"
     id="path67"
     style="fill:#fff200;fill-rule:evenodd" /><path
     d="m 202.23129,246.1404 c -3.80513,-3.01299 3.37378,-9.90969 5.81272,-12.34863 0.0738,0.0722 -0.93164,5.74378 -0.93164,6.38839 -0.5035,2.58646 -1.72377,5.96024 -4.88108,5.96024 l 0,0 z"
     id="path69"
     style="fill:#fff200;fill-rule:evenodd" /><path
     d="m 226.20376,239.89473 c 1.36459,0 2.65542,-0.14431 4.02,-0.28863 -1.79433,2.22728 -17.51353,8.61566 -17.87272,4.0216 -1.43514,-6.24727 10.48054,-3.73297 13.85272,-3.73297 l 0,0 z"
     id="path71"
     style="fill:#fff200;fill-rule:evenodd" /><path
     d="m 30.827285,240.18016 c -0.646214,0 -1.220271,-2.94405 -0.287028,-2.94405 1.220271,-0.57245 2.081356,-0.5019 3.231073,-1.65001 1.148113,-1.22187 0.861085,-3.87729 -0.574057,-4.66621 0,-1.36619 -5.382983,-0.86109 -6.675412,-0.86109 -2.584858,-0.64461 -6.747571,-1.93864 -4.81053,-5.74377 1.292429,-0.79214 6.245671,-3.01941 6.245671,-5.45835 -1.507299,-1.5057 -4.307028,-3.73297 -5.455141,-5.45514 -0.287028,-2.15512 -0.501899,-4.45295 0.862688,-6.31944 0.646215,0 2.081357,-1.93864 2.583255,-1.14971 1.292429,0 2.368385,0.28863 3.803526,0.28863 1.077559,2.15512 4.23487,7.68242 7.178915,6.24728 0.933243,0 2.009198,-2.22728 4.02,-2.22728 3.373785,0 4.808927,3.16052 6.890283,5.17132 1.795931,1.0054 0.144316,3.013 1.148113,4.0184 -2.225672,0 -7.177311,1.07755 -7.177311,3.44754 -0.501899,0.0722 -1.5073,1.14972 -1.72217,1.14972 -1.364587,1.29083 0,-0.57566 -1.5073,-0.57566 0,-3.15731 -0.79053,-5.88809 0,-9.18811 -1.148113,-3.51971 -1.651615,6.89349 -1.651615,6.89349 1.075955,3.58865 -1.72217,0.0721 -2.583255,-0.86109 -2.655413,-3.0162 -6.101356,-7.39699 -8.112157,-10.91509 -2.440543,1.29403 7.823525,12.99645 9.834327,14.64806 -1.866486,0.42974 -6.244068,0.57246 -8.110554,0 -0.287028,1.0054 -0.574057,1.14972 0.287028,1.14972 0,0.14111 9.330825,1.14651 10.336226,1.14651 0,0.79213 0,1.5089 0,2.29943 0,4.09376 2.081356,-0.21647 2.081356,2.94405 0,1.43674 -0.144315,1.43674 0.861085,2.79973 -2.799728,0 -1.72217,1.79432 -0.287028,1.79432 2.727571,0 0,2.29944 0,2.8751 2.440542,0 0.718373,1.29082 -0.287028,1.93864 0.788927,3.30163 -3.80513,1.79433 -5.5273,1.79433 -1.36619,-0.005 -3.376992,-2.59127 -4.59566,-2.59127 l 0,0 z"
     id="path73"
     style="fill:#009e49;fill-rule:evenodd;fill-opacity:1" /><path
     d="m 210.34184,240.46879 c -4.73677,-2.36839 3.30323,-10.91509 5.74217,-12.63726 0,1.65001 -2.36838,11.12675 -3.15891,11.77617 0,0 -2.58326,1.57786 -2.58326,0.86109 l 0,0 z"
     id="path75"
     style="fill:#fff200;fill-rule:evenodd" /><path
     d="m 242.35592,232.93069 c 3.44434,-0.93325 5.24027,-1.86649 7.96784,-2.29944 0.28703,1.36619 -13.5673,13.85914 -15.50434,8.4024 0.14271,-1.0054 -2.0108,-3.16052 2.43894,-4.88269 4.44974,-1.72538 3.08676,-0.64782 5.09756,-1.22027 l 0,0 z"
     id="path77"
     style="fill:#fff200;fill-rule:evenodd" /><path
     d="m 241.7081,228.12016 c -0.28863,-0.64782 2.72757,-4.45295 5.16972,-5.53051 2.43894,-1.07756 4.30703,-1.65001 6.60325,-2.0108 1.65001,0 3.44434,-0.64461 4.87948,-1.14972 -3.51489,4.8859 -5.74217,8.76319 -10.76596,9.12077 -1.14972,0.57566 -1.65162,0.78893 -3.58866,0.64461 -2.08135,-0.14111 -2.0108,-0.57406 -2.29783,-1.07435 l 0,0 z"
     id="path79"
     style="fill:#fff200;fill-rule:evenodd" /><path
     d="m 232.16241,232.35342 c 2.36998,0 4.37758,0 6.67381,-0.21647 -5.88489,3.08836 -9.25867,6.68022 -15.86353,5.38619 -0.35919,-0.0722 -2.22407,-0.93324 -0.85948,-3.16052 1.007,-1.43193 8.39918,-2.36518 10.0492,-2.0092 l 0,0 z"
     id="path81"
     style="fill:#fff200;fill-rule:evenodd" /><path
     d="m 218.38184,234.65286 c -1.43674,0 -1.14811,-0.93325 -1.14811,-2.29944 0,-3.80513 4.37758,-7.82673 6.89028,-10.33783 -1.65001,3.5165 -2.58325,7.25268 -2.58325,11.19892 -1.14972,1.14972 -2.79973,2.37159 -2.79973,1.43674 l -0.35919,0 0,0.002 z"
     id="path83"
     style="fill:#fff200;fill-rule:evenodd" /><path
     d="m 246.44487,218.99939 c -2.29783,2.37159 -14.93028,17.01805 -18.87652,11.05781 0,-3.23268 7.24947,-4.81053 9.25867,-5.24348 2.36998,-0.42653 7.0346,-3.30163 9.61785,-5.81433 l 0,0 z"
     id="path85"
     style="fill:#fff200;fill-rule:evenodd" /><path
     d="m 247.02053,217.27722 c 0.14432,-4.81053 4.44974,-7.0378 8.46974,-7.0378 2.65541,0 5.16811,-2.15512 7.46434,-3.16052 -3.80513,4.81213 -8.5419,14.36424 -15.93408,10.19832 l 0,0 z"
     id="path87"
     style="fill:#fff200;fill-rule:evenodd" /><path
     d="m 224.98509,229.48154 c -4.95163,-2.5111 8.25487,-15.36484 10.62326,-17.87914 0.5019,0.5035 -3.94784,9.26348 -4.23487,10.19672 -0.64622,1.72217 -2.44054,6.74917 -6.10136,7.68242 l -0.28703,0 0,0 z"
     id="path89"
     style="fill:#fff200;fill-rule:evenodd" /><path
     d="m 233.09565,224.31503 c -2.72757,-3.87729 3.44434,-7.18212 4.44814,-8.25808 0.93484,-1.07756 5.16971,-3.30483 6.10296,-4.66621 0,0.78892 -2.08136,4.81053 -2.58326,5.74377 -3.0162,6.10456 -4.44974,6.31623 -7.68081,7.18212 l -0.28703,0 0,-0.002 z"
     id="path91"
     style="fill:#fff200;fill-rule:evenodd" /><path
     d="m 244.79486,195.30432 c 0,2.79973 -0.0722,9.47995 -1.36459,12.06321 -1.0038,2.15512 -3.44434,5.24348 -4.73677,3.80513 -2.22567,-2.58326 -1.43674,-2.94405 0.71677,-7.10996 1.36459,-2.79813 3.66242,-6.03081 5.38459,-8.75838 l 0,0 z"
     id="path93"
     style="fill:#fff200;fill-rule:evenodd" /><path
     d="m 255.20164,207.86943 c -4.37598,0 -2.08136,-5.24027 2.58325,-5.96025 2.87189,-0.5019 4.73838,-1.22187 6.96405,-2.65541 -1.93704,3.0162 -5.38299,8.61566 -9.5473,8.61566 l 0,0 z"
     id="path95"
     style="fill:#fff200;fill-rule:evenodd" /><path
     d="m 8.4326638,180.5841 c -1.0054008,0 -2.225672,-3.37539 -0.8626884,-4.0216 1.2202712,-1.29083 6.7475696,-3.08836 3.7329706,-6.10136 -2.0813552,-2.0108 -4.0183954,-3.87729 -4.0183954,-7.18212 0,-3.16052 1.8664857,-4.0216 4.5940564,-4.0216 1.220271,1.0054 2.153514,3.51649 3.158915,4.0216 1.93704,2.0108 1.650011,-1.5089 2.583254,3.16052 1.290826,5.24027 4.307028,11.84513 7.249469,16.37023 -0.646214,2.43894 -1.507299,0.36079 -1.507299,-0.57566 -1.866486,-3.22947 -3.086757,-6.96244 -5.455141,-9.69322 -1.075956,-2.0108 -2.655413,-3.87728 -3.732972,-5.81593 -0.142712,0.0722 -0.501899,0.28863 -0.646214,0.28863 1.436745,3.73298 4.092157,6.89349 5.814327,10.4132 4.736769,7.96784 3.086757,7.0346 -2.871886,1.07435 -0.718373,1.58106 3.946238,4.23808 4.307028,5.5273 1.866485,1.79753 2.72757,4.81374 4.666214,6.60807 -0.933243,0.86108 0.933243,1.07755 -0.574057,2.58325 -2.29783,2.29943 2.440543,-0.21647 0.574057,1.72217 -0.142712,0.28863 -6.74757,1.43674 -2.655413,1.43674 0.861085,0.86109 2.153514,0.57567 1.148114,2.08296 -1.005401,-1.07755 -0.716769,-1.07755 -1.436745,-0.28863 -1.362984,1.36619 -0.788927,2.0108 -0.788927,3.08836 1.148113,0 -2.512701,3.37379 -4.307029,0.64461 -0.788927,1.50891 1.148114,3.16052 2.224069,3.73618 -1.5073,0 -1.93704,-1.79753 -2.583255,-1.79753 0,-0.14432 -2.511097,-0.71677 -2.871886,-1.65001 -1.5073,-0.78893 -3.301628,-6.46055 -1.72217,-8.11537 7.105153,-7.0346 0.144316,-9.04219 -4.0183962,-13.49514 l 0,0 z"
     id="path97"
     style="fill:#009e49;fill-rule:evenodd;fill-opacity:1" /><path
     d="m 251.47027,186.04245 c -2.29783,6.38838 3.5165,13.28187 -2.87189,17.23132 -7.89568,0.002 2.15512,-15.43539 2.87189,-17.23132 l 0,0 z"
     id="path99"
     style="fill:#fff200;fill-rule:evenodd" /><path
     d="m 262.66758,190.63811 c 1.72217,-1.0054 3.80513,-2.65541 5.24188,-4.09376 0.93324,2.0108 -6.10296,15.29267 -9.83433,11.63186 -1.72217,-1.79433 0,-2.72757 0,-3.23268 0.0706,-0.71677 3.80192,-3.73297 4.59245,-4.30542 l 0,0 z"
     id="path101"
     style="fill:#fff200;fill-rule:evenodd" /><polygon
     points="11.897,117.961 11.897,117.602 12.659,117.066 12.659,117.244 13.017,117.244 13.196,117.244 13.554,117.244 13.733,117.244 14.046,117.244 14.404,117.244 14.808,117.244 15.523,117.424 15.523,117.602 15.702,117.602 15.882,117.602 15.882,117.781 16.061,117.781 16.239,117.961 16.374,117.961 16.374,118.318 16.061,118.678 15.882,118.99 15.702,119.395 15.523,119.752 15.344,120.289 15.166,120.469 14.986,120.826 14.808,121.006 14.628,121.006 14.628,121.006 14.046,120.826 13.733,120.469 13.375,120.289 13.196,119.752 12.659,119.395 12.479,118.99 12.077,118.498 "
     transform="matrix(1.6035101,0,0,1.6035101,-17.034284,-4.5459506)"
     id="polygon103"
     style="fill:#d2ab67;fill-rule:evenodd" /><path
     d="m 261.37676,188.62731 c -6.0308,-2.44215 3.22947,-12.85374 5.6684,-17.87914 0,5.24187 0,20.10481 -5.6684,17.87914 l 0,0 z"
     id="path105"
     style="fill:#fff200;fill-rule:evenodd" /><path
     d="m 32.190269,196.16541 c 0,0 -2.727571,2.0108 -1.364587,4.31023 1.364587,2.22728 1.93704,1.14972 4.02,2.5111 2.15191,1.43675 -2.512701,3.87729 0,5.96025 2.583255,2.0108 2.871886,-3.01621 4.23487,-1.93865 0.79053,0.21487 -7.46434,-10.62646 -6.890283,-10.84293 l 0,0 z"
     id="path107"
     style="fill:#009e49;fill-rule:evenodd;fill-opacity:1" /><polygon
     points="99.454,182.801 100.617,181.951 100.617,181.951 108.54,185.174 105.004,185.756 "
     transform="matrix(1.6035101,0,0,1.6035101,-17.034284,-4.5459506)"
     id="polygon109"
     style="fill:#009e49;fill-rule:evenodd;fill-opacity:1" /><polygon
     points="88.845,186.383 85.309,186.07 85.309,186.07 96.723,180.158 97.753,180.875 "
     transform="matrix(1.6035101,0,0,1.6035101,-17.034284,-4.5459506)"
     id="polygon111"
     style="fill:#fff200;fill-rule:evenodd" /><polygon
     points="91.173,180.338 82.802,184.906 81.325,184.906 79.982,184.771 79.982,184.771 90.143,180.203 "
     transform="matrix(1.6035101,0,0,1.6035101,-17.034284,-4.5459506)"
     id="polygon113"
     style="fill:#fff200;fill-rule:evenodd" /><polygon
     points="106.034,179.891 105.631,180.473 105.631,180.473 112.658,183.428 114.404,182.666 "
     transform="matrix(1.6035101,0,0,1.6035101,-17.034284,-4.5459506)"
     id="polygon115"
     style="fill:#009e49;fill-rule:evenodd;fill-opacity:1" /><polygon
     points="125.64,178.547 123.088,176.666 123.088,176.666 143.679,175.01 141.799,178.859 "
     transform="matrix(1.6035101,0,0,1.6035101,-17.034284,-4.5459506)"
     id="polygon117"
     style="fill:#009e49;fill-rule:evenodd;stroke:#000000;stroke-width:0.13470449;stroke-miterlimit:2.61310005;fill-opacity:1" /><polygon
     points="132.713,180.203 131.593,184.771 131.593,184.771 105.406,177.248 106.66,176.084 "
     transform="matrix(1.6035101,0,0,1.6035101,-17.034284,-4.5459506)"
     id="polygon119"
     style="fill:#009e49;fill-rule:evenodd;stroke:#000000;stroke-width:0.13470449;stroke-miterlimit:2.61310005;fill-opacity:1" /><path
     d="m 95.856034,279.17271 c 0,0 1.795931,3.22947 1.866486,3.87729 0.07216,0.57245 1.075955,4.23487 4.52189,2.94404 4.59406,-1.72537 2.0092,-4.0216 -1.07755,-4.74158 -5.310826,-1.29082 -5.310826,-2.07975 -5.310826,-2.07975"
     id="path121"
     style="fill:none;stroke:#000000;stroke-width:0.21600001;stroke-miterlimit:2.61310005" /><path
     d="M 137.46472,253 C 207.15476,253 264,196.15535 264,126.53606 264,56.844659 207.15637,0 137.46472,0 67.845233,0 11.000001,56.844659 11.000001,126.53606 11.000001,196.15535 67.843629,253 137.46472,253 l 0,0 z"
     id="path123"
     style="fill:#ffcb05;fill-opacity:1;fill-rule:evenodd;stroke:none" /><path
     d="m 254.98837,184.96649 c 0.0722,-0.36079 2.87029,-6.39159 1.93865,-2.58646 0,1.65001 2.15351,12.35184 -1.57946,13.64267 -2.87028,0.93645 -2.43894,-4.16272 -2.0092,-5.31243 0.5003,-1.58267 1.21867,-4.02161 1.65001,-5.74378 l 0,0 z"
     id="path125"
     style="fill:#fff200;fill-rule:evenodd" /><path
     d="M 137.4648,244 C 202.21189,244 255,191.14063 255,126.53598 255,61.787386 202.21348,9 137.4648,9 72.860121,9 20.000001,61.785787 20.000001,126.53598 20.000001,191.14063 72.858521,244 137.4648,244 l 0,0 z"
     id="path127"
     style="fill:#00bcf2;fill-opacity:1;fill-rule:evenodd;stroke:none" /><path
     d="M 137.5008,227 C 192.84617,227 238,181.77456 238,126.5008 238,71.1533 192.84617,26 137.5008,26 82.226005,26 37.000002,71.1533 37.000002,126.5008 36.998402,181.77456 82.226005,227 137.5008,227 l 0,0 z"
     id="path129"
     style="fill:#e81123;fill-opacity:1;fill-rule:evenodd;stroke:none" /><path
     d="M 137.46472,207.5 C 182.10893,207.5 218.5,171.11191 218.5,126.53766 218.5,81.891292 182.11053,45.5 137.46472,45.5 92.891073,45.5 56.5,81.891292 56.5,126.53766 56.5,171.11191 92.891073,207.5 137.46472,207.5 l 0,0 z"
     id="path131"
     style="fill:#009e49;fill-opacity:1;fill-rule:evenodd;stroke:none" /><polygon
     points="80.474,44.703 44.798,30.194 59.66,65.973 23.939,81.019 59.167,95.751 44.888,131.484 80.743,116.707 96.007,155.352 111.271,116.707 111.271,116.707 147.126,131.484 132.847,95.751 168.881,81.019 132.354,65.928 147.215,30.194 111.539,44.703 96.007,8.924 "
     transform="matrix(1.6035101,0,0,1.6035101,-17.034284,-4.5459506)"
     id="polygon133"
     style="fill:#ffcb05;fill-opacity:1;fill-rule:evenodd" /><polygon
     points="96.007,15.91 81.952,48.285 49.901,35.254 63.286,67.451 31.101,81.019 62.748,94.229 49.901,126.424 82.31,113.08 96.007,147.783 96.007,147.783 109.704,113.08 142.112,126.424 129.266,94.229 161.584,81.019 128.729,67.451 142.112,35.254 110.063,48.285 "
     transform="matrix(1.6035101,0,0,1.6035101,-17.034284,-4.5459506)"
     id="polygon135"
     style="fill:#ffffff;fill-rule:evenodd" /><path
     d="m 149.40365,161.05335 c -0.71838,1.29403 -3.94785,5.24348 -5.67162,5.24348 -1.22027,0 -3.87568,0.069 -4.52029,-0.57566 -1.57946,0 -0.28703,-1.07756 -2.29623,-1.07756 -5.31243,3.87728 -10.98244,2.15511 -15.21731,-2.87189 -1.86649,-1.86649 -4.88109,-6.96565 -5.09596,-9.5489 -0.0705,-0.71677 -3.37378,-11.55971 -3.37378,-13.28348 -0.0722,0.64621 -0.78893,12.99485 0.86108,12.99485 -10.16255,-11.23466 -4.06226,-32.01172 3.08516,-42.9388 -0.71838,10.12456 -0.57406,20.17697 1.72217,30.22937 0,2.65702 3.51649,13.21293 5.31243,13.21293 0,0.71677 2.58485,1.14971 2.58485,-0.78893 0,-2.08296 -0.14431,-2.72917 -0.86268,-4.81053 -3.34878,-5.8017 -5.73009,-12.45393 -6.17191,-19.17157 -0.74109,-11.26776 1.50729,-29.655311 8.97324,-38.415287 1.65001,-2.153514 1.86488,-3.660813 1.43514,-0.287028 0,8.400789 1.93704,17.805375 3.08515,25.991295 1.22027,6.17512 2.65542,6.89349 3.94784,12.42239 0.43135,3.37379 0.43135,6.96405 0,10.41159 -0.64621,5.45675 -1.93704,11.20212 -1.93704,16.65887 1.07596,2.22407 0,2.79973 2.79973,2.79973 2.87189,0 4.0184,-9.47835 3.37218,-11.84673 0,-5.45675 -0.42974,-13.85914 -2.79812,-18.59912 -0.71837,-1.57785 -2.29623,-6.31783 -2.79813,-7.89729 -0.64621,-2.08135 -1.0054,-3.94944 -1.14971,-4.81053 -2.08136,-10.12456 -3.22947,-25.418837 1.14971,-35.039898 0.42975,-1.220271 0.64462,-2.87349 1.36299,-3.949445 0,2.729174 -0.64622,5.745377 0.57245,8.184316 0,6.534303 12.77677,32.384487 13.99704,37.482047 0,0.0722 1.5073,4.30863 1.79433,6.0308 0.71837,7.46915 1.0054,15.9405 0,23.12101 -0.35919,2.94405 -2.5127,8.11537 -4.16271,11.12997 l 0,0 z"
     id="path137"
     style="fill:#e81123;fill-opacity:1;fill-rule:evenodd" /><path
     d="m 150.12042,160.98279 c 1.29242,-1.36298 4.60518,-9.04712 5.16811,-13.28347 0.94437,-7.10688 1.87736,-14.57214 0.86269,-21.4694 -0.81319,-5.52768 -2.78463,-10.96148 -5.09756,-16.08321 -1.78537,-3.95349 -6.31623,-13.714819 -6.24567,-22.906138 1.36458,1.364587 2.12806,3.532664 2.87188,4.81053 3.05971,5.256437 7.5124,10.280968 10.69381,15.509148 2.84779,4.67991 7.34695,12.42107 7.60866,17.80698 1.35251,14.39805 -4.89238,27.15527 -15.79137,36.40289 l -0.0705,-0.78733 0,0 z"
     id="path139"
     style="fill:#e81123;fill-opacity:1;fill-rule:evenodd" /><path
     d="m 94.996553,223.59345 c 2.081356,0 3.803526,1.72217 3.803526,3.73297 0,2.08617 -1.72217,3.80834 -3.803526,3.80834 -2.08296,0 -3.732972,-1.72217 -3.732972,-3.80834 0,-2.0092 1.650012,-3.73297 3.732972,-3.73297 l 0,0 z"
     id="path143"
     style="fill:#ffcb05;fill-rule:evenodd" /><path
     d="m 175.88882,225.24827 c 1.43514,-1.5089 3.80353,-1.5089 5.31083,0 1.43674,1.43514 1.43674,3.80513 0,5.31243 -1.5057,1.43674 -3.87569,1.43674 -5.31083,0 -1.5073,-1.5073 -1.5073,-3.87889 0,-5.31243 l 0,0 z"
     id="path147"
     style="fill:#ffcb05;fill-rule:evenodd" /><path
     d="m 234.24376,169.16871 c 0,-2.08296 1.65001,-3.80513 3.73297,-3.80513 2.08136,0 3.80353,1.72217 3.80353,3.80513 0,2.0108 -1.72217,3.73297 -3.80353,3.73297 -2.08296,0 -3.73297,-1.72217 -3.73297,-3.73297 l 0,0 z"
     id="path151"
     style="fill:#ffcb05;fill-rule:evenodd" /><path
     d="m 235.82322,88.245972 c -1.43675,-1.436745 -1.43675,-3.806733 0,-5.314032 1.5057,-1.436745 3.87568,-1.436745 5.31243,0 1.50569,1.507299 1.50569,3.877287 0,5.314032 -1.43675,1.5073 -3.80513,1.5073 -5.31243,0 l 0,0 z"
     id="path155"
     style="fill:#ffcb05;fill-rule:evenodd" /><path
     d="m 98.926405,28.925602 c -1.433067,1.43253 -3.865759,1.43253 -5.298825,0 -1.50344,-1.502878 -1.50344,-3.865914 0,-5.298444 1.431466,-1.502878 3.865758,-1.502878 5.298825,0 1.431465,1.43253 1.431465,3.793967 0,5.298444 l 0,0 z"
     id="path163"
     style="fill:#ffcb05;fill-rule:evenodd" /><path
     d="m 40.587851,84.368685 c 0,2.08296 -1.722169,3.734575 -3.732971,3.734575 -2.081356,0 -3.80513,-1.651615 -3.80513,-3.734575 0,-2.081356 1.723774,-3.80513 3.80513,-3.80513 2.010802,0 3.732971,1.72217 3.732971,3.80513 l 0,0 z"
     id="path167"
     style="fill:#ffcb05;fill-rule:evenodd" /><path
     d="m 38.93784,165.21927 c 1.507299,1.43514 1.507299,3.87728 0,5.31243 -1.436745,1.5089 -3.80513,1.5089 -5.312429,0 -1.435142,-1.43515 -1.435142,-3.87729 0,-5.31243 1.507299,-1.50891 3.875684,-1.50891 5.312429,0 l 0,0 z"
     id="path171"
     style="fill:#ffcb05;fill-rule:evenodd" /><path
     d="m 41.306224,244.49039 0.07216,6.10456 c 0,0 -7.608656,-0.0722 -7.751368,-2.22727 -0.216474,-2.22728 3.731368,-3.66242 7.67921,-3.87729 l 0,0 z"
     id="path173"
     style="fill:#d2ab67;fill-rule:evenodd" /><path
     d="m 59.32166,278.95624 5.814328,3.23267 c 0,0 -3.22947,6.10136 -5.382984,5.38299 -2.081356,-0.71677 -1.794328,-4.88269 -0.431344,-8.61566 l 0,0 z"
     id="path175"
     style="fill:#d2ab67;fill-rule:evenodd" /><path
     d="m 142.15257,260.64415 -3.87568,-4.5219 c 0,0 4.59406,-4.09376 6.10136,-2.87188 1.57785,1.29243 0.0721,4.66621 -2.22568,7.39378 l 0,0 z"
     id="path177"
     style="fill:#d2ab67;fill-rule:evenodd" /><path
     d="m 109.27901,281.11136 5.16812,4.16271 c 0,0 -4.16272,5.45835 -6.10136,4.38079 -2.0092,-1.0054 -1.0054,-5.09916 0.93324,-8.5435 l 0,0 z"
     id="path179"
     style="fill:#d2ab67;fill-rule:evenodd" /><path
     d="m 197.92426,267.89683 c 0,0 12.48974,-1.86649 18.15975,-4.66622 m -12.70461,-1.22187 c 0,0 13.5657,-3.58866 20.16895,-8.11536"
     id="path181"
     style="fill:none;stroke:#000000;stroke-width:2.01600003;stroke-linecap:round;stroke-miterlimit:2.61310005" /><path
     d="m 220.53375,247.1458 c 0,0 9.90649,-4.01839 16.50974,-8.5435 m -5.45514,0.86109 c 0,0 7.39218,-4.02161 13.99704,-8.5435 m -6.10136,1.21866 c 0,0 7.0346,-2.58325 13.20651,-8.97324 m -7.24947,-3.0162 c 0.79053,-0.64782 2.72757,-1.29403 5.74378,-5.96025"
     id="path183"
     style="fill:none;stroke:#000000;stroke-width:1.80000007;stroke-linecap:round;stroke-miterlimit:2.61310005" /><path
     d="m 234.38808,211.74672 c 0.78893,-0.64462 2.72757,-1.29083 5.74217,-5.96025 m -4.30703,6.31943 c 0.78893,-0.64461 2.72597,-1.29403 5.74217,-5.96025 m -4.81053,6.89349 c 0.78893,-0.64461 2.72757,-1.29403 5.74217,-5.96024"
     id="path185"
     style="fill:none;stroke:#000000;stroke-width:1.00800002;stroke-linecap:round;stroke-miterlimit:2.61310005" /><path
     d="m 223.40564,251.09525 c 0,0 3.5165,-1.0054 10.12135,-4.95485"
     id="path187"
     style="fill:none;stroke:#000000;stroke-width:1.80000007;stroke-linecap:round;stroke-miterlimit:2.61310005" /><use
     transform="translate(83.5,0)"
     id="use3324"
     x="0"
     y="0"
     width="275"
     height="300"
     xlink:href="#path163" /></svg>