<?xml version="1.0" encoding="UTF-8" standalone="no"?>
<!-- Created with Inkscape (http://www.inkscape.org/) -->

<svg
   xmlns:dc="http://purl.org/dc/elements/1.1/"
   xmlns:cc="http://creativecommons.org/ns#"
   xmlns:rdf="http://www.w3.org/1999/02/22-rdf-syntax-ns#"
   xmlns:svg="http://www.w3.org/2000/svg"
   xmlns="http://www.w3.org/2000/svg"
   version="1.1"
   width="480"
   height="600"
   id="svg2816"
   xml:space="preserve"><metadata
     id="metadata2822"><rdf:RDF><cc:Work
         rdf:about=""><dc:format>image/svg+xml</dc:format><dc:type
           rdf:resource="http://purl.org/dc/dcmitype/StillImage" /><dc:title></dc:title></cc:Work></rdf:RDF></metadata><defs
     id="defs2820"><clipPath
       id="clipPath2834"><path
         d="M 294.90137,263.24902 C 210.42334,303.94043 89.58545,384.70508 89.58545,544.46973 C 89.58545,704.23438 97.22363,776.8916 97.22363,776.8916 L 294.90137,776.8916 L 492.58301,776.8916 C 492.58301,776.8916 500.22363,704.23438 500.22363,544.46973 C 500.22363,384.70508 379.38477,303.94043 294.90137,263.24902 z"
         id="path2836" /></clipPath><clipPath
       id="clipPath2834-1"><path
         d="M 294.90137,263.24902 C 210.42334,303.94043 89.58545,384.70508 89.58545,544.46973 C 89.58545,704.23438 97.22363,776.8916 97.22363,776.8916 L 294.90137,776.8916 L 492.58301,776.8916 C 492.58301,776.8916 500.22363,704.23438 500.22363,544.46973 C 500.22363,384.70508 379.38477,303.94043 294.90137,263.24902 z"
         id="path2836-7" /></clipPath></defs><g
     transform="matrix(1.25,0,0,-1.25,-0.625,600.625)"
     id="g2826"><g
       transform="matrix(0.93450196,0,0,0.93450196,-83.088871,-245.50672)"
       id="g3759"><path
         d="M 294.90137,263.24902 C 210.42334,303.94043 89.58545,384.70508 89.58545,544.46973 C 89.58545,704.23438 97.22363,776.8916 97.22363,776.8916 L 294.90137,776.8916 L 492.58301,776.8916 C 492.58301,776.8916 500.22363,704.23438 500.22363,544.46973 C 500.22363,384.70508 379.38477,303.94043 294.90137,263.24902 z"
         id="path2828"
         style="fill:#ee1c25;fill-opacity:1;fill-rule:nonzero;stroke:none" /><g
         id="g2830"><g
           clip-path="url(#clipPath2834)"
           id="g2832"><path
             d="M 312.96875,586.35791 C 335.84277,585.98828 380.4707,585.09229 420.20898,598.38965 C 420.20898,598.38965 419.16016,584.16943 419.16016,567.60449 C 419.16016,551.03564 420.20898,536.81641 420.20898,536.81641 C 383.75879,549.01367 338.74609,549.26758 312.96875,548.94092 L 312.96875,460.69873 L 276.83691,460.69873 L 276.83691,548.94092 C 251.06152,549.26758 206.04834,549.01372 169.59668,536.81641 C 169.59668,536.81641 170.64648,551.03564 170.64648,567.60449 C 170.64648,584.16943 169.59668,598.38965 169.59668,598.38965 C 209.33545,585.09229 253.96289,585.98828 276.83691,586.35791 L 276.83691,641.77588 C 255.98877,641.96094 225.94629,640.96533 191.97803,629.59814 C 191.97803,629.59814 193.02783,643.81836 193.02783,660.38623 C 193.02783,676.95215 191.97803,691.17236 191.97803,691.17236 C 225.896,679.82373 255.90186,678.81201 276.74414,678.99268 C 275.67334,714.08398 265.44971,758.31641 265.44971,758.31641 C 265.44971,758.31641 286.49023,756.67432 294.90137,756.67432 C 303.32129,756.67432 324.35547,758.31641 324.35547,758.31641 C 324.35547,758.31641 314.13477,714.08398 313.06152,678.99268 C 333.90527,678.81201 363.91016,679.82373 397.82715,691.17236 C 397.82715,691.17236 396.77832,676.95215 396.77832,660.38623 C 396.77832,643.81836 397.82715,629.59814 397.82715,629.59814 C 363.86035,640.96533 333.81641,641.96094 312.96875,641.77588 L 312.96875,586.35791 z"
             id="path2838"
             style="fill:#ffffff;fill-opacity:1;fill-rule:nonzero;stroke:none" /><path
             d="M 291.17969,210.83594 L 116.1377,366.86328 C 116.1377,366.86328 138.51563,439.23682 182.19434,439.23682 C 216.9043,439.23682 229.57178,411.25 229.57178,411.25 C 229.57178,411.25 252.35986,470.24512 294.90137,470.24512 C 337.44629,470.24512 360.23535,411.25 360.23535,411.25 C 360.23535,411.25 372.90039,439.23682 407.61133,439.23682 C 451.29004,439.23682 473.66699,366.86328 473.66699,366.86328 L 291.17969,210.83594 z"
             id="path2840"
             style="fill:#0b4ea2;fill-opacity:1;fill-rule:evenodd;stroke:none" /></g></g></g></g></svg>