<?xml version="1.0" encoding="UTF-8" standalone="no"?>
<!-- Created with Inkscape (http://www.inkscape.org/) -->
<svg
   xmlns:dc="http://purl.org/dc/elements/1.1/"
   xmlns:cc="http://web.resource.org/cc/"
   xmlns:rdf="http://www.w3.org/1999/02/22-rdf-syntax-ns#"
   xmlns:svg="http://www.w3.org/2000/svg"
   xmlns="http://www.w3.org/2000/svg"
   xmlns:sodipodi="http://sodipodi.sourceforge.net/DTD/sodipodi-0.dtd"
   xmlns:inkscape="http://www.inkscape.org/namespaces/inkscape"
   version="1.0"
   width="593.65961"
   height="668.93457"
   id="svg4166"
   sodipodi:version="0.32"
   inkscape:version="0.45.1"
   sodipodi:docname="Vedur.svg"
   inkscape:output_extension="org.inkscape.output.svg.inkscape"
   sodipodi:docbase="C:\Documents and Settings\David\My Documents\Data\web\andre\vapen">
  <metadata
     id="metadata27">
    <rdf:RDF>
      <cc:Work
         rdf:about="">
        <dc:format>image/svg+xml</dc:format>
        <dc:type
           rdf:resource="http://purl.org/dc/dcmitype/StillImage" />
      </cc:Work>
    </rdf:RDF>
  </metadata>
  <sodipodi:namedview
     inkscape:window-height="938"
     inkscape:window-width="1280"
     inkscape:pageshadow="2"
     inkscape:pageopacity="0.0"
     guidetolerance="10.0"
     gridtolerance="10.0"
     objecttolerance="10.0"
     borderopacity="1.0"
     bordercolor="#666666"
     pagecolor="#ffffff"
     id="base"
     inkscape:zoom="1.2393162"
     inkscape:cx="439.8549"
     inkscape:cy="504.34602"
     inkscape:window-x="-4"
     inkscape:window-y="-4"
     inkscape:current-layer="svg4166" />
  <defs
     id="defs4168">
    <clipPath
       id="clipPath4937">
      <g
         transform="matrix(0.1661974,0,0,-0.2723667,268.7813,475.56466)"
         style="fill:#ffffff;fill-opacity:1;stroke:#000000;stroke-width:4.70014095;stroke-opacity:1"
         id="g4939">
        <g
           transform="matrix(1.000175,0,0,0.944938,-89.26788,-2.952272)"
           style="fill:#ffffff;fill-opacity:1;stroke:#000000;stroke-width:4.70014095;stroke-opacity:1"
           id="g4941">
          <path
             d="M 90.131913,4.0511306 L 139.74342,4.0511306 L 189.35495,4.0511306 L 189.35495,77.493663 C 189.66179,117.16648 157.2448,131.60081 139.74343,131.60081 C 122.5489,131.60081 89.825075,117.16648 90.131913,77.493663 L 90.131913,4.0511306 z "
             style="color:#000000;fill:#ffffff;fill-opacity:1;fill-rule:nonzero;stroke:#000000;stroke-width:3.65180254;stroke-linecap:round;stroke-linejoin:bevel;marker:none;marker-start:none;marker-mid:none;marker-end:none;stroke-miterlimit:4;stroke-dashoffset:0;stroke-opacity:1;visibility:visible;display:block"
             id="path4943" />
        </g>
      </g>
    </clipPath>
    <clipPath
       id="clipPath4790">
      <g
         transform="matrix(6.90331e-2,0,0,-0.1763874,217.01383,469.06416)"
         style="fill:#ffffff;fill-opacity:1;stroke:#000000;stroke-width:9.06227875;stroke-opacity:1"
         id="g4792">
        <g
           transform="matrix(1.000175,0,0,0.944938,-89.26788,-2.952272)"
           style="fill:#ffffff;fill-opacity:1;stroke:#000000;stroke-width:9.06227875;stroke-opacity:1"
           id="g4794">
          <path
             d="M 90.131913,4.0511306 L 139.74342,4.0511306 L 189.35495,4.0511306 L 189.35495,77.493663 C 189.66179,117.16648 157.2448,131.60081 139.74343,131.60081 C 122.5489,131.60081 89.825075,117.16648 90.131913,77.493663 L 90.131913,4.0511306 z "
             style="color:#000000;fill:#ffffff;fill-opacity:1;fill-rule:nonzero;stroke:#000000;stroke-width:7.04099226;stroke-linecap:round;stroke-linejoin:bevel;marker:none;marker-start:none;marker-mid:none;marker-end:none;stroke-miterlimit:4;stroke-dashoffset:0;stroke-opacity:1;visibility:visible;display:block"
             id="path4796" />
        </g>
      </g>
    </clipPath>
    <clipPath
       id="clipPath1925">
      <path
         d="M 249.55058,-25.928486 L 125.50008,-25.928486 L 1.4495292,-25.928486 L 1.4495292,147.56811 C 0.68228915,241.28899 81.738967,275.38786 125.50006,275.38786 C 168.49391,275.38786 250.31781,241.28899 249.55058,147.56811 L 249.55058,-25.928486 z "
         style="color:#000000;fill:#ffffff;fill-opacity:1;fill-rule:nonzero;stroke:none;stroke-width:1.88832211;stroke-linecap:round;stroke-linejoin:bevel;marker:none;marker-start:none;marker-mid:none;marker-end:none;stroke-miterlimit:4;stroke-dashoffset:0;stroke-opacity:1;visibility:visible;display:block"
         id="use2391" />
    </clipPath>
    <clipPath
       id="clipPath3203">
      <path
         id="path3205"
         style="color:#000000;fill:#ffffff;fill-opacity:1;fill-rule:nonzero;stroke:none;stroke-width:1.88832211;stroke-linecap:round;stroke-linejoin:bevel;marker:none;marker-start:none;marker-mid:none;marker-end:none;stroke-miterlimit:4;stroke-dashoffset:0;stroke-opacity:1;visibility:visible;display:block"
         d="M 249.55058,-25.928486 L 125.50008,-25.928486 L 1.4495292,-25.928486 L 1.4495292,147.56811 C 0.68228915,241.28899 81.738967,275.38786 125.50006,275.38786 C 168.49391,275.38786 250.31781,241.28899 249.55058,147.56811 L 249.55058,-25.928486 z " />
    </clipPath>
    <clipPath
       id="clipPath3195">
      <g
         id="g3197"
         style="fill:#ffffff;fill-opacity:1;stroke:#000000;stroke-width:9.06227875;stroke-opacity:1"
         transform="matrix(6.90331e-2,0,0,-0.1763874,217.01383,469.06416)">
        <g
           id="g3199"
           style="fill:#ffffff;fill-opacity:1;stroke:#000000;stroke-width:9.06227875;stroke-opacity:1"
           transform="matrix(1.000175,0,0,0.944938,-89.26788,-2.952272)">
          <path
             id="path3201"
             style="color:#000000;fill:#ffffff;fill-opacity:1;fill-rule:nonzero;stroke:#000000;stroke-width:7.04099226;stroke-linecap:round;stroke-linejoin:bevel;marker:none;marker-start:none;marker-mid:none;marker-end:none;stroke-miterlimit:4;stroke-dashoffset:0;stroke-opacity:1;visibility:visible;display:block"
             d="M 90.131913,4.0511306 L 139.74342,4.0511306 L 189.35495,4.0511306 L 189.35495,77.493663 C 189.66179,117.16648 157.2448,131.60081 139.74343,131.60081 C 122.5489,131.60081 89.825075,117.16648 90.131913,77.493663 L 90.131913,4.0511306 z " />
        </g>
      </g>
    </clipPath>
    <clipPath
       id="clipPath3187">
      <g
         id="g3189"
         style="fill:#ffffff;fill-opacity:1;stroke:#000000;stroke-width:4.70014095;stroke-opacity:1"
         transform="matrix(0.1661974,0,0,-0.2723667,268.7813,475.56466)">
        <g
           id="g3191"
           style="fill:#ffffff;fill-opacity:1;stroke:#000000;stroke-width:4.70014095;stroke-opacity:1"
           transform="matrix(1.000175,0,0,0.944938,-89.26788,-2.952272)">
          <path
             id="path3193"
             style="color:#000000;fill:#ffffff;fill-opacity:1;fill-rule:nonzero;stroke:#000000;stroke-width:3.65180254;stroke-linecap:round;stroke-linejoin:bevel;marker:none;marker-start:none;marker-mid:none;marker-end:none;stroke-miterlimit:4;stroke-dashoffset:0;stroke-opacity:1;visibility:visible;display:block"
             d="M 90.131913,4.0511306 L 139.74342,4.0511306 L 189.35495,4.0511306 L 189.35495,77.493663 C 189.66179,117.16648 157.2448,131.60081 139.74343,131.60081 C 122.5489,131.60081 89.825075,117.16648 90.131913,77.493663 L 90.131913,4.0511306 z " />
        </g>
      </g>
    </clipPath>
  </defs>
  <path
     style="fill:#21409a;fill-opacity:1"
     d="M 284.7802,665.05821 C 249.75507,653.45399 223.91631,640.87018 193.2802,620.49654 C 172.73924,606.83638 159.45839,595.78822 139.25456,575.55334 C 104.99843,541.24458 82.263772,509.00637 58.823152,461.5 C 43.175702,429.7878 34.513042,407.7379 24.840242,375 C -3.4786679,279.15374 -7.4231279,186.91082 12.182802,79 C 16.069812,57.60593 23.618572,23.55296 28.863992,3.75 L 29.857292,2.8421709e-014 L 297.19711,2.8421709e-014 L 564.53692,2.8421709e-014 L 565.55018,3.75 C 566.10747,5.8125 568.44302,14.23132 570.74028,22.4585 C 579.50323,53.84119 585.25858,83.39736 589.24732,117.5 C 593.43758,153.32558 594.01132,165.94458 593.50571,211.16078 C 593.05722,251.2702 592.87189,254.69042 589.98681,276.10362 C 579.41315,354.58166 557.23633,423.93139 523.62389,483.62889 C 473.02137,573.50171 403.63671,632.95348 313.70761,663.49421 C 304.79093,666.52239 297.22202,668.97037 296.88783,668.93415 C 296.55363,668.89793 291.1052,667.15376 284.7802,665.05821 z "
     id="path2179"
     sodipodi:nodetypes="cssssscccccsssssssc" />
  <g
     id="g3251"
     transform="translate(1172.7623,43.38372)">
    <path
       id="path2325"
       d="M -1065.3638,208.84407 C -1068.5725,207.46628 -1069.2294,204.77032 -1066.3563,204.77032 C -1065.0728,204.77032 -1062.8978,203.88557 -1061.5231,202.80421 C -1055.9871,198.4496 -1055.6153,192.34801 -1059.7235,173.27032 C -1062.3151,161.23579 -1062.0574,156.07483 -1058.6971,152.71454 C -1054.3923,148.40978 -1050.7602,151.5388 -1048.2709,161.69663 C -1046.7942,167.72241 -1046.6182,171.24026 -1047.2001,183.08932 C -1047.9807,198.98172 -1049.0051,203.71919 -1052.3382,206.8505 C -1054.8777,209.23622 -1061.935,210.31634 -1065.3638,208.84407 z "
       style="fill:#ff0000" />
    <path
       sodipodi:nodetypes="ccsssssssssssssscccsssccsssssccscccsssssccccscccsscccsssssssccscssccssssssccsssccccssccsssscccsssssssssssccsssssssscccccsssssssssssssssscsccssssssssssscccccccccccccccccccssscccccccsscccsssscssssscccssssscccsssscccssssscsssscccccssssssssscccccssscccccccsccsscccssssssssccc"
       id="path2359"
       d="M -771.26586,415.501 C -768.97607,428.96836 -778.96425,433.41589 -789.99545,439.36729 C -815.5338,449.16909 -835.91954,455.61992 -834.77936,438.55404 C -834.46548,433.88384 -811.48561,401.19573 -805.81392,397.00581 C -799.86546,392.61141 -792.73852,384.34734 -786.60906,373.62454 C -784.38664,369.73666 -780.77504,364.04352 -778.89149,360.91148 C -777.00793,357.77944 -772.91248,349.50487 -769.35901,342.46191 C -765.80554,335.41895 -761.34101,327.33263 -759.68438,324.36903 C -758.02774,321.40542 -757.02534,317.85448 -757.02534,316.29314 C -757.02534,313.05962 -760.20006,303.90185 -764.14476,296.11736 C -766.49203,291.48523 -767.99708,287.43661 -766.31954,288.3344 C -765.2688,288.89674 -760.62713,291.51943 -758.9017,293.48458 C -755.56552,297.28429 -755.36573,299.66781 -755.63414,294.71512 C -755.72933,292.95866 -755.43333,284.83303 -754.29835,282.26722 C -753.16337,279.7014 -751.92466,281.79546 -752.22369,281.31163 C -752.52271,280.8278 -739.90002,281.79223 -737.98015,283.02333 C -733.40014,285.96025 -731.51708,290.34669 -733.94781,299.00974 C -733.59706,320.93066 -746.17121,321.32094 -743.27161,299.07479 C -728.41376,285.68368 -719.81644,283.99117 -705.3525,299.30345 C -702.3275,302.48069 -701.7262,305.44976 -702.4137,305.03847 C -703.35634,304.47453 -701.24301,305.72579 -701.24301,310.12717 C -701.24301,313.74671 -702.32829,317.19657 -703.2768,318.55077 C -705.02352,321.04455 -709.4783,323.70618 -715.38135,323.71432 C -719.77065,323.82311 -721.41021,323.58194 -719.9677,331.49482 C -720.64542,339.57868 -721.05593,340.23785 -728.62341,345.39364 C -731.67057,347.4697 -736.66245,351.80988 -739.71647,355.03849 C -750.35106,366.281 -755.77127,376.11476 -758.16171,388.50321 C -759.05375,393.12622 -760.43938,400.25683 -761.24089,404.34899 C -762.57229,411.14659 -764.10324,414.40007 -766.17872,414.40007 C -766.62434,414.40007 -767.88981,412.88833 -771.26586,415.501 z M -1001.5641,432.26705 C -1004.5503,436.69817 -1007.246,440.31695 -1023.0766,447.16144 C -1056.4863,461.57553 -1059.3829,455.76304 -1061.4481,447.11232 C -1064.3755,428.86616 -1036.7772,414.17544 -1036.7772,414.17544 L -1036.0296,403.15284 C -1035.4371,396.22108 -1031.0417,387.69724 -1022.5794,376.00524 C -1019.992,372.43024 -1014.3753,363.47599 -1010.0979,356.23018 C -1005.8205,348.98436 -1001.2391,340.56974 -999.54727,338.51722 C -996.94362,335.35854 -996.13603,334.95889 -995.95665,329.80091 C -995.8189,325.84009 -994.99656,320.15317 -992.85823,314.30352 C -991.04877,309.35352 -987.86934,299.8021 -985.91611,292.8316 L -981.15445,278.44332 L -975.65045,285.388 C -956.71821,309.92212 -928.85697,258.85897 -937.10475,291.29469 C -938.75372,294.48346 -948.82412,306.26451 -964.78518,323.67719 C -972.90917,332.54004 -962.98101,329.28704 -960.79058,329.11356 C -944.64647,323.02075 -922.29163,326.74497 -927.60435,335.27853 C -937.41025,342.95625 -983.87008,353.73162 -984.53878,354.89439 C -990.91239,365.97718 -994.6158,384.06388 -994.65966,401.40869 C -994.67287,406.63369 -995.91204,411.69619 -996.01866,412.65869 C -996.28432,415.05691 -999.57698,426.55156 -1001.5641,432.26705 z M -689.45986,411.21253 C -690.88633,409.78606 -693.75517,426.17452 -694.79154,427.23191 C -700.80338,433.36566 -752.15769,462.39525 -752.05966,435.78607 C -752.04963,433.09562 -731.44739,407.40869 -729.00871,407.40869 C -727.46873,407.40869 -728.47735,407.48333 -730.01733,405.78167 C -730.92758,404.77586 -730.6637,403.39136 -730.6637,402.95155 C -730.6637,402.51173 -728.96069,398.34631 -725.52319,394.68126 C -717.28197,385.89451 -710.9538,375.18225 -701.48583,350.70697 C -691.92903,326.00206 -691.93248,319.29654 -696.15231,310.67153 C -697.5941,307.72462 -701.20621,303.29132 -704.17923,300.08011 L -710.49248,293.33378 C -710.49248,293.33378 -701.04405,271.5827 -698.78896,284.72674 C -697.38726,292.8967 -697.39387,289.45898 -697.53574,290.67686 C -693.63169,293.65463 -690.54772,290.40869 -687.69582,290.40869 C -686.14934,290.40869 -685.66004,289.75149 -685.64839,287.65869 C -685.63997,286.14619 -685.1764,284.23369 -684.61825,283.40869 C -676.47105,294.18662 -674.24239,288.709 -669.35742,288.76908 C -669.10567,288.51733 -667.8341,288.59665 -666.5317,288.94535 C -664.92081,289.37664 -661.97998,292.98912 -657.33372,300.24402 C -651.47665,309.38955 -650.56883,311.40725 -650.96065,314.40869 C -651.23583,316.51661 -654.9171,323.477 -660.21621,331.90869 C -670.35861,348.04681 -677.22468,361.92268 -681.70014,375.32627 C -684.27998,383.05265 -684.9291,386.82381 -685.31484,396.32627 C -685.96915,412.44471 -686.46106,414.21133 -689.45986,411.21253 z M -979.14636,373.48875 C -978.53822,372.42365 -978.83723,373.8743 -980.12882,374.36993 C -981.09786,374.74179 -984.85986,373.72253 -987.08069,372.58955 C -991.00928,370.58533 -990.59294,369.0642 -989.24593,365.85101 C -988.50176,364.07583 -987.30917,359.78354 -985.98555,357.18427 L -980.44087,347.82251 C -980.44087,347.82251 -929.31232,323.66823 -924.29762,338.82044 C -926.46905,355.68165 -965.54908,362.88624 -959.68482,359.13099 C -937.03275,361.43655 -973.10995,359.77993 -975.58456,368.48066 C -976.25583,370.84085 -977.98126,373.08274 -978.68237,373.73066 C -979.68037,374.65294 -979.7811,374.60043 -979.14636,373.48875 z M -1036.4192,342.88949 C -1065.1749,317.95214 -1067.0758,318.16348 -1067.0758,314.18993 C -1067.0758,312.3107 -1066.3851,306.43439 -1065.2775,305.02634 C -1064.1775,303.62792 -1063.5703,302.23662 -1063.5582,300.94837 C -1063.5305,297.97007 -1046.8963,279.81077 -1036.2966,271.29511 C -1032.1056,267.92812 -1027.9581,264.24566 -1025.9705,262.37222 L -1018.9273,256.54528 L -1014.5793,262.27741 C -1011.9148,266.82265 -1003.5743,279.40869 -1001.7379,279.40869 C -1001.0986,279.40869 -1000.6575,277.08076 -1000.6484,273.65869 C -1000.6273,265.74092 -995.77997,260.87095 -993.06807,265.25889 C -989.19781,271.5211 -994.35727,285.61503 -999.47006,288.63524 C -1003.1194,290.79094 -1028.7054,302.40869 -1029.8036,302.40869 C -1032.3281,302.40869 -1032.8735,299.24232 -1025.8758,294.48914 C -1019.3689,290.06932 -1019.2386,290.72997 -1025.9976,293.51995 C -1031.4835,295.7844 -1033.6465,298.09323 -1033.6465,300.2328 C -1033.6465,302.82912 -1001.7123,330.5651 -999.9368,329.46777 C -998.82769,328.7823 -1003.3474,341.03069 -1008.0857,351.28607 C -1010.5631,356.64823 -1012.2224,359.39617 -1013.5331,359.34121 C -1014.5314,359.29935 -1026.1615,351.78513 -1036.4192,342.88949 z M -868.48282,308.62573 C -874.45964,303.50649 -878.23337,297.33926 -881.32909,289.43993 C -887.82101,272.87456 -892.70775,275.4569 -892.70775,294.7574 C -892.70775,300.78284 -891.97676,304.39162 -890.90464,306.90222 C -890.02388,308.96472 -888.85489,311.61041 -889.29311,311.61041 C -890.59392,311.61041 -901.18869,308.52021 -905.6191,296.98049 C -906.2778,295.26483 -908.75534,290.80573 -909.91815,286.88994 C -912.41466,278.48297 -913.78831,276.17378 -917.23628,274.40869 C -918.42469,273.80032 -917.69402,275.12248 -917.69051,275.80998 C -917.67289,279.26605 -912.22854,298.78077 -909.71826,303.89364 L -904.3745,311.45921 L -910.87237,311.01696 C -917.49423,309.69258 -924.96981,306.1794 -934.93254,284.71403 C -955.41586,288.03666 -947.23226,285.1586 -955.46819,298.91807 C -955.72422,299.1741 -962.65782,299.73404 -965.08224,298.31324 C -973.15664,293.58132 -980.50264,282.96851 -980.5495,275.77246 C -980.58282,270.65587 -980.64532,270.13017 -982.19117,277.03775 C -983.57208,283.2083 -989.71971,288.32019 -995.82514,291.82541 C -999.11535,293.71437 -1000.1993,293.46221 -998.60125,291.57325 C -995.95033,288.43969 -994.00808,285.72927 -992.93962,279.94941 C -992.06173,275.20051 -991.85042,273.85482 -993.6663,269.6959 C -994.81591,267.06293 -1000.0636,283.07672 -1001.5855,282.16433 C -1022.638,269.54279 -1001.0134,261.16649 -1002.2705,262.88556 C -1003.9106,265.12853 -1005.1239,272.8204 -1004.1164,274.58769 C -1003.7022,275.31424 -1005.0427,274.33369 -1007.0952,272.40869 C -1011.732,268.05986 -1018.4071,260.26126 -1019.8903,254.37076 C -1021.1435,249.39377 -1020.7559,247.9445 -1020.7559,252.1948 C -1020.7559,253.72243 -1021.0244,255.93155 -1021.8456,257.10398 C -1023.1362,258.94659 -1025.0032,258.09985 -1027.149,257.06787 C -1029.7873,255.79905 -1030.4368,254.84978 -1032.3414,251.90869 C -1034.246,248.9676 -1034.7674,245.30352 -1034.7674,245.30352 C -1035.4915,242.00352 -1036.4291,233.80266 -1036.4812,227.20266 C -1036.5626,216.87098 -1035.9315,214.73378 -1033.8158,208.70697 C -1042.7295,200.15534 -1052.997,213.37783 -1040.0213,200.46785 C -1036.2678,196.00707 -1031.3073,188.77814 -1029.9984,182.60947 C -1028.7391,176.67423 -1028.9856,156.23392 -1030.1605,149.11023 C -1030.7127,145.76226 -1034.1767,145.07069 -1033.1886,143.71972 C -1031.7391,141.73789 -1020.874,115.78019 -1020.874,113.30231 C -1020.874,111.14123 -1014.3847,108.40869 -1010.2098,108.40869 C -1004.4008,108.40869 -997.99176,103.96251 -994.77238,97.6992 C -994.14775,96.48398 -992.02365,94.72427 -990.05216,93.78874 C -984.82677,91.30913 -980.70685,84.28703 -980.6827,77.81921 C -980.66603,73.35473 -980.35324,72.58827 -978.13564,71.57786 C -976.7452,70.94433 -976.05997,66.73917 -975.74997,65.93134 C -975.3251,64.82414 -972.66858,67.43311 -968.04772,71.27863 C -964.67622,74.08442 -959.33976,77.3699 -955.81908,78.94952 C -931.50535,88.12032 -946.09007,85.93891 -937.58053,90.41341 C -933.99624,90.45966 -926.53565,93.78398 -922.31511,98.28814 C -919.271,99.59045 -920.12315,100.87096 -915.38746,100.29921 C -910.25795,99.85537 -904.01819,104.49649 -899.02478,103.7949 C -885.83764,103.2819 -889.37316,107.06255 -883.4706,109.03204 C -883.4706,107.86562 -877.3488,106.36834 -873.95668,107.78566 C -864.35504,109.77142 -863.60929,109.40637 -857.41336,107.29921 L -848.91291,108.09831 L -839.8396,104.65777 L -828.83702,106.3729 L -826.04499,103.0798 C -821.6877,99.84771 -810.53738,103.26029 -804.25863,101.01544 C -796.49909,98.3715 -794.59762,95.43705 -788.61659,99.55128 C -781.74555,104.80184 -782.05872,103.01529 -776.48629,99.80047 C -771.64599,97.60388 -765.55977,96.8036 -762.25572,98.5381 C -757.21398,100.23876 -763.05327,99.83139 -748.48848,98.39145 C -743.88991,97.69656 -741.60485,103.89058 -728.18054,100.0324 C -718.51756,99.41082 -704.55785,111.45979 -696.10061,115.07938 C -681.25423,132.8633 -676.28234,143.58337 -669.11007,164.9593 C -667.42363,169.98549 -667.02629,179.04533 -656.94274,193.56447 C -636.48884,223.01571 -642.99158,233.81694 -628.07021,254.15869 C -626.45136,256.36561 -630.11133,258.12335 -633.2126,258.12335 L -648.00485,248.01223 L -650.7246,247.61306 C -652.22046,247.39351 -655.01144,245.92215 -656.92678,244.34337 C -666.50302,237.68087 -650.83188,255.71726 -663.05908,251.57133 C -664.97727,250.32878 -665.03934,247.30007 -665.04615,246.56674 C -667.91671,242.98551 -666.88028,256.00823 -666.84815,257.00325 C -666.75706,265.57947 -665.85953,268.21479 -662.7628,277.29259 C -660.79562,283.05921 -657.5533,289.16533 -657.65335,289.25916 C -657.75339,289.35299 -663.1519,287.54451 -665.58192,286.71962 C -668.01749,291.79209 -683.77176,299.21763 -690.52624,299.80955 L -742.59408,314.76277 C -744.07872,312.99838 -766.91464,287.38324 -770.39019,285.82387 C -773.86574,284.2645 -776.86963,281.65257 -777.18878,280.82088 C -777.52193,279.9527 -777.77742,278.58964 -779.0125,278.77603 C -780.90286,279.0613 -780.69525,279.83749 -780.9551,285.17739 C -781.14302,289.03901 -779.52267,292.21065 -778.53206,294.5815 C -777.6747,296.63345 -776.10768,298.80842 -776.34419,299.04493 C -776.9875,299.68824 -788.46772,296.53628 -791.56205,294.16179 C -793.04843,293.02119 -796.74344,288.73594 -799.21844,285.07047 C -802.1077,280.79148 -804.36024,278.72479 -806.32565,277.93974 C -811.35308,275.93161 -810.15767,275.80596 -809.00572,285.90987 C -807.64462,297.84812 -807.6943,297.31738 -804.79772,301.58573 L -800.72975,305.67991 L -806.43444,305.76378 C -813.26937,304.55094 -815.71647,302.53328 -824.37763,293.70686 C -827.45003,290.57584 -829.42017,286.89181 -829.42017,286.10324 C -829.42017,283.48574 -835.63198,276.36732 -839.47659,275.64606 C -844.73466,274.65964 -844.84227,274.73213 -841.95208,280.16785 C -840.60342,282.70433 -838.89671,286.9067 -838.52923,289.81463 C -837.63577,296.88478 -836.39065,300.70747 -833.44301,305.39255 L -831.04229,309.64151 L -835.58208,310.07501 C -839.39946,309.31154 -845.55327,306.32155 -848.42512,302.67058 C -849.59811,301.17937 -852.56178,295.72533 -854.57957,290.98195 C -856.69232,286.01535 -859.05152,281.9731 -860.48458,280.90317 C -863.08585,278.96104 -865.01386,277.02257 -864.9796,278.21611 C -864.77659,285.28894 -863.69596,306.0425 -858.29449,308.5296 C -855.6753,313.7799 -862.01388,314.16648 -868.48282,308.62573 z M -1077.4979,191.13779 C -1080.7496,190.09749 -1082.5356,188.82245 -1082.1022,183.8804 C -1081.4356,176.27896 -1081.5111,178.89536 -1082.2549,182.47684 C -1083.1152,186.61962 -1084.3441,187.11472 -1085.6406,187.11472 C -1088.3869,187.11472 -1093.2706,181.5147 -1096.7035,173.90869 C -1098.4412,170.05869 -1101.1404,164.20869 -1102.7017,160.90869 C -1110.6662,144.0753 -1118.4706,126.69439 -1119.8827,110.3878 C -1119.8827,107.27064 -1120.257,104.681 -1121.0033,103.79002 C -1121.7305,102.92171 -1122.2244,99.0796 -1122.9638,96.7313 C -1124.8254,90.81825 -1121.6239,72.614 -1118.1094,61.81554 C -1115.0025,52.2696 -1112.9651,40.10715 -1111.6276,36.22049 C -1101.7338,7.46795 -1074.5067,-10.8575 -1058.5463,-12.64066 C -1041.7003,-14.52276 -1019.621,-15.39983 -1009.8032,-2.66742 C -986.06646,-0.62639 -986.49287,12.80515 -984.60132,18.76266 C -980.84622,23.60547 -972.9811,30.83222 -979.22752,53.08713 C -976.7998,65.25582 -971.13535,72.28026 -970.57122,78.33223 C -981.19993,102.11253 -1021.7756,113.55161 -1022.3764,116.47735 C -1025.1889,130.17216 -1026.9186,133.90889 -1030.1553,138.68681 C -1032.101,141.55885 -1034.3767,145.21063 -1034.8426,146.80189 C -1035.3086,148.39315 -1036.4228,157.3614 -1036.7023,166.73134 C -1036.9819,176.10128 -1039.0341,184.17904 -1039.5369,184.68192 C -1040.0398,185.1848 -1041.2866,185.43572 -1042.3075,185.23951 C -1043.7893,184.95473 -1044.3056,183.5986 -1044.8672,178.51678 C -1046.02,168.08572 -1048.5865,157.15148 -1050.3359,155.21839 C -1052.5968,152.72017 -1057.8735,152.87775 -1060.2587,155.51472 C -1061.9496,157.38408 -1062.1682,159.30808 -1062.2041,172.63602 L -1062.2444,187.6513 L -1065.0098,190.02999 C -1068.0057,192.60693 -1071.8421,192.94726 -1077.4979,191.13779 z M -1097.8036,132.47546 C -1099.4303,121.99069 -1099.3409,117.09748 -1097.1492,117.09748 C -1094.3202,117.09748 -1090.6591,113.91206 -1090.1387,109.65612 C -1089.5352,104.72041 -1092.6697,100.18395 -1097.407,98.20456 C -1100.115,97.07309 -1101.3248,95.62246 -1102.1657,92.49961 C -1103.481,89.57669 -1101.0605,86.55631 -1102.9309,85.12306 C -1105.3216,88.99098 -1108.5204,97.15917 -1105.3013,104.86342 C -1104.1553,108.80665 -1097.9121,137.35423 -1097.8036,132.47546 z M -1103.0758,113.94812 C -1103.0758,112.81196 -1103.5667,109.39499 -1104.1052,108.3889 C -1105.9359,101.29189 -1106.2099,99.65892 -1097.9909,100.07613 C -1091.1139,101.10476 -1089.0358,111.88787 -1093.928,115.31449 C -1097.208,117.61185 -1103.0758,116.49183 -1103.0758,113.94812 z M -1044.162,80.41199 C -1045.4795,77.86428 -1045.4781,77.36599 -1044.1504,76.03821 C -1040.3506,72.23841 -1034.4998,72.89118 -1032.1819,77.37352 C -1030.1278,81.34562 -1030.2726,84.12901 -1032.598,85.37351 C -1037.5836,87.90001 -1041.6803,84.6119 -1044.162,80.41199 z M -1017.9741,71.65027 C -1018.9088,69.0424 -1019.6714,65.83682 -1019.6687,64.52677 C -1019.6657,63.10642 -1021.0437,60.84336 -1023.0821,58.92091 C -1026.2024,55.97809 -1027.2453,55.63654 -1035.0432,55.00382 C -1040.4113,54.56826 -1045.1244,54.72492 -1047.7258,55.4254 C -1050.0027,56.03851 -1052.0783,56.32738 -1052.3384,56.06735 C -1053.317,55.08871 -1049.6559,49.65619 -1045.3311,45.66977 C -1038.1281,39.03024 -1029.546,37.86355 -1020.8219,42.33786 C -1016.0681,44.77596 -1013.2649,47.85651 -1010.7477,53.40869 C -1007.2614,61.09881 -1008.5189,69.10567 -1014.0255,74.27888 L -1016.2747,76.39184 L -1017.9741,71.65027 z "
       style="fill:#cccccc;fill-opacity:1" />
    <path
       id="path2341"
       d="M -1060.2518,443.10398 C -1058.3762,436.56419 -1053.5161,429.68465 -1047.9933,425.75209 C -1045.4293,423.92637 -1045.7231,424.54299 -1049.8685,429.68735 C -1052.5721,433.04246 -1055.8022,437.82611 -1057.0465,440.31768 C -1059.7164,445.66359 -1061.4075,447.13362 -1060.2518,443.10398 z M -833.18195,438.60987 C -833.19886,435.39497 -828.44929,427.48024 -823.77552,422.9349 C -818.17306,417.4864 -817.82043,418.38285 -823.0758,424.7137 C -825.21226,427.28738 -828.35804,431.86811 -830.06642,434.89311 C -831.7748,437.91811 -833.17678,439.59065 -833.18195,438.60987 z M -751.19133,438.05104 C -751.19133,435.22499 -746.02325,427.07651 -741.57759,422.89311 L -736.79548,418.39311 L -740.583,423.17075 C -742.66614,425.79846 -745.90521,430.49698 -747.78093,433.61192 C -749.65665,436.72687 -751.19133,438.72447 -751.19133,438.05104 z M -1062.9145,88.92039 C -1066.555,86.70067 -1067.8177,83.27216 -1066.4765,79.24852 C -1064.9745,74.74269 -1063.0319,75.04368 -1063.7713,79.66767 C -1064.5521,84.55098 -1063.2688,87.11299 -1058.9841,89.22474 C -1056.5409,90.42884 -1056.2074,90.85248 -1057.6913,90.8666 C -1058.7913,90.87707 -1061.1417,90.00127 -1062.9145,88.92039 z M -1041.7895,88.98802 C -1046.4105,86.8894 -1047.2007,85.50483 -1047.1694,79.56132 L -1047.1474,75.39311 L -1045.2544,79.56243 C -1043.0263,84.46973 -1040.2396,86.2343 -1035.5775,85.69003 C -1033.7151,85.4726 -1032.1913,85.40818 -1032.1913,85.54686 C -1032.1913,85.68554 -1032.7135,86.94518 -1033.3518,88.34606 C -1034.7268,91.36372 -1036.2955,91.48307 -1041.7895,88.98802 z M -1016.714,80.11701 C -1016.3328,78.31516 -1014.439,74.49018 -1012.5056,71.61706 C -1009.2549,66.78659 -1009.0196,65.93052 -1009.3814,60.24898 C -1009.913,51.90072 -1013.8738,45.44716 -1020.5858,41.99304 C -1025.9111,39.25253 -1025.3383,38.02943 -1019.6143,39.91854 C -1003.5586,45.21739 -1000.2757,67.31941 -1013.6767,79.89311 L -1017.407,83.39311 L -1016.714,80.11701 z M -1061.5969,76.6776 C -1064.208,72.69251 -1064.5675,68.48807 -1062.6437,64.43398 C -1060.5637,60.05081 -1058.273,58.40349 -1051.433,56.37223 C -1045.2035,54.52226 -1042.1175,54.43848 -1027.967,55.73511 C -1027.0186,55.82201 -1025.5255,57.28004 -1024.6489,58.97519 L -1023.0551,62.05726 L -1027.3732,59.58971 C -1032.2522,56.80163 -1033.6974,56.9739 -1037.0462,60.74281 C -1039.0279,62.97303 -1039.3233,63.07611 -1038.9097,61.39311 C -1038.6394,60.29311 -1038.1184,58.66905 -1037.7519,57.78409 C -1037.1659,56.36917 -1037.7104,56.27385 -1042.2652,56.99388 C -1048.4943,57.97856 -1051.1643,60.14428 -1051.2703,64.2981 C -1051.3528,67.53547 -1051.6145,67.21537 -1052.6229,62.64311 C -1053.5007,58.66327 -1056.5753,59.09267 -1059.6553,63.62524 C -1062.5957,67.95255 -1062.9767,73.36779 -1060.5308,76.0705 C -1059.6175,77.07968 -1059.1315,78.16666 -1059.4509,78.486 C -1059.7702,78.80535 -1060.7359,77.99157 -1061.5969,76.6776 z M -1109.6302,61.62674 C -1115.8147,52.188 -1116.7733,33.88051 -1111.2382,30.9182 C -1110.2521,30.39044 -1108.9164,27.85842 -1108.27,25.29148 C -1106.3959,17.84844 -1103.5321,13.22368 -1098.7676,9.94559 C -1096.3275,8.26672 -1093.8983,6.89311 -1093.3695,6.89311 C -1092.8408,6.89311 -1092.1345,5.80279 -1091.8,4.47018 C -1090.2023,-1.89563 -1079.6955,-9.0769 -1071.95,-9.09712 C -1069.2323,-9.10422 -1066.9688,-10.0533 -1063.6771,-12.56586 C -1061.1848,-14.4683 -1057.5528,-16.32365 -1055.606,-16.68887 C -1051.0043,-17.55216 -1044.2052,-16.75917 -1040.5426,-14.93202 C -1038.0238,-13.67548 -1037.1747,-13.67151 -1034.1642,-14.90215 C -1029.5791,-16.77645 -1022.7248,-15.91767 -1016.3052,-12.66459 C -1011.1685,-10.06165 -1009.1913,-7.74425 -1009.1913,-4.32674 C -1009.1913,-2.72873 -1008.4925,-2.43084 -1004.9315,-2.511 C -1002.0036,-2.57691 -999.58031,-1.87416 -997.18148,-0.26354 C -995.2619,1.0253 -994.59133,1.76846 -995.69133,1.38793 C -1004.0931,-1.51859 -1010.0879,0.07544 -1017.0904,7.07794 C -1021.9952,11.98268 -1022.1432,12.05341 -1021.0721,8.98097 C -1019.8877,5.58342 -1014.6847,-0.45512 -1012.1913,-1.3259 C -1007.5772,-2.93732 -1020.4193,-11.1096 -1027.5555,-11.10315 C -1032.1604,-11.09899 -1037.4471,-8.36606 -1039.2053,-5.08086 C -1039.8331,-3.90768 -1040.9175,0.0539 -1041.615,3.72265 L -1042.8831,10.39311 L -1044.1757,6.20933 C -1045.2072,2.87048 -1045.2221,1.15388 -1044.2494,-2.29067 C -1042.0515,-10.07411 -1042.1916,-10.51099 -1047.1913,-11.4704 C -1053.8045,-12.73942 -1059.4777,-10.90989 -1062.9143,-6.39992 C -1065.484,-3.02761 -1065.6867,-2.09162 -1065.6288,6.13486 C -1065.569,14.63605 -1065.6326,14.90193 -1067.0831,12.20915 C -1068.0586,10.39824 -1068.6116,6.60303 -1068.6325,1.57625 L -1068.665,-6.24061 L -1072.1782,-5.59447 C -1078.4228,-4.44595 -1083.5109,-0.95659 -1086.0127,3.89311 C -1088.389,8.49975 -1088.4824,11.56318 -1086.5736,22.29859 C -1085.4206,28.78292 -1087.9036,25.66335 -1090.3195,17.59235 C -1091.5047,13.63277 -1092.5972,10.24415 -1092.7472,10.06209 C -1093.4196,9.24624 -1097.3448,12.22783 -1099.7504,15.38164 C -1105.9154,23.46438 -1104.9035,33.71938 -1096.7066,46.22945 C -1095.599,47.91979 -1095.3862,48.89311 -1096.124,48.89311 C -1098.1184,48.89311 -1102.3642,43.62586 -1104.8509,38.06682 C -1106.2255,34.99414 -1107.7535,32.91316 -1108.4624,33.14853 C -1112.3436,34.43714 -1111.6181,46.08191 -1106.9341,57.67834 C -1104.5804,63.5053 -1104.5399,63.89311 -1106.2845,63.89311 C -1107.3079,63.89311 -1108.8135,62.87324 -1109.6302,61.62674 z "
       style="fill:#ffff99;fill-opacity:1" />
    <path
       id="path2321"
       d="M -1059.5351,452.34879 C -1061.3232,449.61985 -1061.6647,446.81361 -1060.2088,446.81361 C -1059.691,446.81361 -1057.8834,444.22611 -1056.1918,441.06361 C -1052.8944,434.89896 -1041.145,419.48541 -1040.3496,420.28083 C -1040.0856,420.54479 -1041.5452,422.61537 -1043.5931,424.88213 C -1051.8622,434.03505 -1059.0692,448.19111 -1057.8444,452.8747 C -1057.1712,455.44922 -1057.5888,455.31932 -1059.5351,452.34879 z M -833.10789,445.67288 C -834.19669,443.39757 -834.10399,442.6365 -832.43759,440.17288 C -831.37379,438.60028 -828.39069,434.16361 -825.80839,430.31361 C -823.22599,426.46361 -819.26369,421.28861 -817.00319,418.81361 C -812.70589,414.10861 -814.45629,416.8093 -821.21589,425.31361 C -825.72309,430.98411 -829.75949,438.90281 -831.00209,444.51209 L -831.84419,448.31361 L -833.10789,445.67288 z M -750.76649,444.27642 C -752.34659,441.86489 -752.32289,441.62645 -750.28949,439.46197 C -749.11289,438.20948 -748.15009,436.85152 -748.15009,436.44429 C -748.15009,435.21371 -740.49279,424.33822 -738.52449,422.77332 C -737.51469,421.97048 -738.08359,423.11361 -739.78869,425.31361 C -744.20249,431.0085 -748.10309,439.14598 -748.39779,443.27366 C -748.53659,445.21843 -748.75229,446.8105 -748.87709,446.81161 C -749.00189,446.81271 -749.85209,445.67188 -750.76649,444.27642 z M -1006.989,437.23331 C -1006.0754,436.17748 -1005.0258,433.26964 -1004.6566,430.77145 C -1004.098,426.99141 -1004.4235,425.40531 -1006.5965,421.3184 C -1008.0327,418.61741 -1009.8707,415.67486 -1010.6811,414.77941 C -1011.4915,413.88395 -1011.8535,412.85033 -1011.4857,412.48246 C -1007.5861,408.58285 -999.56079,424.345 -1001.504,432.08719 C -1001.8214,433.35175 -1003.5591,435.45888 -1005.3656,436.7697 C -1007.7973,438.5342 -1008.2188,438.65457 -1006.989,437.23331 z M -776.07189,426.84969 C -773.94039,421.24022 -774.35549,416.84273 -777.26489,414.20974 C -779.67439,412.02922 -779.64319,411.17581 -777.13009,410.51862 C -774.47089,409.82321 -772.17279,414.19362 -771.43409,421.35137 C -770.93169,426.21916 -771.11839,426.87973 -773.66399,429.23885 C -777.68019,432.96097 -778.19859,432.44668 -776.07189,426.84969 z M -696.86489,427.03932 C -695.61229,422.34659 -696.39079,418.86945 -699.52919,415.13974 C -701.49939,412.79822 -701.67879,412.09685 -700.57169,411.06267 C -699.83629,410.37569 -698.83529,409.81361 -698.34729,409.81361 C -695.06099,409.81361 -691.06489,420.85879 -692.69889,425.42576 C -693.22209,426.88796 -694.60449,428.71466 -695.77089,429.48509 C -697.85369,430.86083 -697.87319,430.81711 -696.86489,427.03932 z M -734.65009,417.81361 C -733.06929,416.16361 -731.55099,414.81361 -731.27599,414.81361 C -731.00099,414.81361 -732.06929,416.16361 -733.65009,417.81361 C -735.23099,419.46361 -736.74929,420.81361 -737.02429,420.81361 C -737.29929,420.81361 -736.23099,419.46361 -734.65009,417.81361 z M -947.15009,355.48202 C -947.15009,355.29965 -944.91709,353.70345 -942.18779,351.93491 C -935.82079,347.80926 -930.35189,341.40603 -929.55159,337.13984 C -928.73119,332.76679 -927.44039,332.08243 -925.99519,335.25426 C -924.92819,337.59622 -925.24529,338.2841 -929.82429,343.56065 C -935.09699,349.6366 -947.15009,357.92998 -947.15009,355.48202 z M -973.54759,335.9795 C -974.57699,334.31389 -967.40599,328.96708 -961.98269,327.35654 C -958.87819,326.43459 -953.53979,325.87737 -948.71859,325.97204 L -940.65009,326.13047 L -949.15009,326.7432 C -956.30549,327.25901 -958.59929,327.89125 -963.65009,330.73996 C -966.95019,332.60117 -970.39299,334.75846 -971.30089,335.53394 C -972.28369,336.37344 -973.19269,336.55371 -973.54759,335.9795 z M -1032.4065,108.78479 C -1031.1724,108.28866 -1029.2616,106.40468 -1028.1602,104.59817 C -1026.0468,101.13182 -1025.3356,102.39755 -1027.2999,106.12935 C -1028.7452,108.87531 -1030.1113,109.79594 -1032.6502,109.73491 C -1034.4843,109.69082 -1034.4641,109.61204 -1032.4065,108.78479 z M -1012.0721,104.6678 C -1011.4354,103.478 -1011.1315,100.35933 -1011.3901,97.6678 C -1011.9198,92.15553 -1011.5646,91.59693 -1010.0521,95.56361 C -1008.6546,99.22858 -1009.7971,106.81361 -1011.7466,106.81361 C -1012.944,106.81361 -1013.0051,106.41107 -1012.0721,104.6678 z M -1054.4537,101.13746 C -1057.55,99.09837 -1060.3291,96.78973 -1060.6294,96.00715 C -1060.9297,95.22456 -1059.5865,95.97937 -1057.6444,97.68449 C -1052.6458,102.07332 -1047.4257,102.89904 -1040.6502,100.37264 C -1039.5501,99.96249 -1040.0002,100.52004 -1041.6502,101.61165 C -1047.0277,105.16934 -1048.409,105.11818 -1054.4537,101.13746 z M -1036.1502,93.93606 C -1036.1502,93.4534 -1035.4015,92.4409 -1034.4864,91.68606 C -1032.9778,90.44157 -1032.9345,90.52339 -1034.0216,92.56361 C -1035.2615,94.89057 -1036.1502,95.46354 -1036.1502,93.93606 z M -996.15009,91.20552 C -996.15009,87.96894 -997.94639,83.67335 -1000.3911,81.06361 C -1002.0347,79.30906 -1002.1642,78.81361 -1000.9794,78.81361 C -998.87169,78.81361 -996.58879,81.56774 -994.17669,87.0207 C -993.04929,89.5694 -991.56959,91.84433 -990.88849,92.07608 C -990.20739,92.30783 -991.11259,92.71564 -992.90009,92.98233 C -995.75179,93.40779 -996.15009,93.18999 -996.15009,91.20552 z M -1018.7451,78.25668 C -1018.8571,73.11033 -1020.1985,71.18154 -1024.2908,70.28273 C -1025.9421,69.92004 -1027.0682,69.39829 -1026.7932,69.12329 C -1026.5182,68.84829 -1024.9982,68.90771 -1023.4155,69.25533 C -1018.8932,70.2486 -1015.5287,77.71904 -1017.9155,81.46741 C -1018.3195,82.102 -1018.6929,80.65717 -1018.7451,78.25668 z M -1031.0712,78.01816 C -1031.1146,77.30565 -1032.2547,75.61815 -1033.6047,74.26816 C -1034.9547,72.91816 -1035.7081,71.81361 -1035.279,71.81361 C -1033.7489,71.81361 -1029.9453,76.69437 -1030.464,77.99213 C -1030.8856,79.04674 -1031.0082,79.052 -1031.0712,78.01816 z M -1092.0274,76.53036 C -1093.8849,75.93687 -1097.7099,73.24317 -1100.5274,70.54436 L -1105.6501,65.63743 L -1100.6501,69.60577 C -1093.4388,75.32921 -1091.5062,76.13013 -1083.1501,76.85825 L -1075.6501,77.51177 L -1082.1501,77.56061 C -1085.7251,77.58746 -1090.1699,77.12385 -1092.0274,76.53036 z M -1072.8879,76.12193 C -1071.9187,75.8691 -1071.3795,75.25146 -1071.6898,74.74938 C -1072.0001,74.24731 -1071.5908,74.09102 -1070.7802,74.40207 C -1069.9696,74.71312 -1068.3713,74.46713 -1067.2283,73.85543 C -1065.9431,73.16761 -1065.1501,73.1203 -1065.1501,73.73142 C -1065.1501,74.68004 -1071.5822,76.92038 -1073.6501,76.69203 C -1074.2001,76.6313 -1073.8571,76.37475 -1072.8879,76.12193 z M -1077.8793,75.20944 C -1077.547,74.87715 -1076.6845,74.84163 -1075.9626,75.1305 C -1075.1649,75.44972 -1075.4019,75.68668 -1076.5668,75.73466 C -1077.621,75.77808 -1078.2116,75.54174 -1077.8793,75.20944 z M -983.00029,74.56649 C -983.08269,73.60558 -984.83759,70.9289 -986.90009,68.61833 C -989.54859,65.65135 -989.92389,64.91613 -988.17759,66.11545 C -985.41159,68.01522 -980.01069,68.34453 -977.10689,66.79047 C -975.57889,65.97272 -975.30909,66.06427 -975.76279,67.24655 C -976.07499,68.06012 -977.61969,69.29647 -979.19549,69.99398 C -981.01529,70.79948 -982.20469,72.1837 -982.45549,73.7879 C -982.67279,75.17704 -982.91789,75.52741 -983.00029,74.56649 z M -993.27769,63.06361 C -994.52159,61.47755 -994.48619,61.44218 -992.90009,62.68606 C -991.93769,63.4409 -991.15009,64.2284 -991.15009,64.43606 C -991.15009,65.25909 -991.97129,64.72936 -993.27769,63.06361 z M -1055.66,51.06361 C -1052.679,45.64874 -1046.4871,40.5494 -1040.199,38.33085 C -1035.3978,36.63689 -1026.5876,36.29682 -1025.6769,37.77032 C -1025.313,38.35919 -1027.0066,38.49951 -1030.0818,38.1353 C -1038.7403,37.10983 -1048.9638,43.72629 -1053.2473,53.12754 C -1053.9509,54.67177 -1055.2797,55.81361 -1056.3731,55.81361 C -1058.1422,55.81361 -1058.0924,55.48199 -1055.66,51.06361 z M -979.91499,46.08563 L -984.17989,41.85766 L -981.23129,42.44738 C -978.49189,42.99526 -978.23569,42.78642 -977.61979,39.50353 C -976.77069,34.97756 -977.73259,30.46526 -980.75119,24.81361 L -983.15469,20.31361 L -980.68669,23.07955 C -977.26369,26.91567 -975.80839,33.0756 -976.51489,40.73698 C -976.89489,44.85775 -976.70539,47.64456 -975.98619,48.51114 C -973.45529,51.56067 -975.93879,50.02749 -979.91499,46.08563 z M -1002.8953,19.28273 C -1002.4801,18.836 -998.68379,17.73387 -994.45909,16.83355 C -990.23439,15.93323 -986.62549,14.7396 -986.43929,14.18104 C -986.25309,13.62247 -987.22329,11.5113 -988.59529,9.48954 C -989.96729,7.46778 -990.66259,5.81361 -990.14029,5.81361 C -988.79849,5.81361 -985.15009,13.27838 -985.15009,16.02377 C -985.15009,18.16415 -985.55809,18.31473 -991.40009,18.33073 C -994.83759,18.34015 -999.00019,18.74096 -1000.6501,19.22141 C -1002.3001,19.70186 -1003.3104,19.72946 -1002.8953,19.28273 z "
       style="fill:#973e2b;fill-opacity:1" />
    <path
       id="path2323"
       d="M -1052.2709,455.56429 C -1051.3084,455.31277 -1049.7334,455.31277 -1048.7709,455.56429 C -1047.8084,455.81582 -1048.5959,456.02162 -1050.5209,456.02162 C -1052.4459,456.02162 -1053.2334,455.81582 -1052.2709,455.56429 z M -825.77088,449.53022 C -823.98338,449.3084 -821.05838,449.3084 -819.27088,449.53022 C -817.48338,449.75205 -818.94588,449.93355 -822.52088,449.93355 C -826.09588,449.93355 -827.55838,449.75205 -825.77088,449.53022 z M -1032.2709,412.56429 C -1031.3084,412.31277 -1029.7334,412.31277 -1028.7709,412.56429 C -1027.8084,412.81582 -1028.5959,413.02162 -1030.5209,413.02162 C -1032.4459,413.02162 -1033.2334,412.81582 -1032.2709,412.56429 z M -1019.5209,412.85866 C -1019.5209,412.64142 -1017.7587,412.29564 -1015.605,412.09025 C -1013.4513,411.88486 -1011.9028,412.06259 -1012.164,412.48522 C -1012.6392,413.25419 -1019.5209,413.6035 -1019.5209,412.85866 z M -995.95027,409.19921 C -995.74731,406.75413 -995.36961,399.57862 -995.11094,393.25362 C -994.46684,377.50451 -991.96934,368.55334 -983.53183,351.75362 C -977.17075,339.0882 -969.11881,327.32235 -967.74945,328.69171 C -967.4558,328.98535 -968.35312,330.12043 -969.7435,331.2141 C -971.13387,332.30777 -974.14077,336.79565 -976.42549,341.18717 C -981.06111,350.09742 -981.08586,351.58429 -976.72629,359.25362 C -974.78688,362.66542 -974.6067,363.39431 -975.98121,362.26778 C -976.97832,361.45057 -978.64935,358.7868 -979.69462,356.34828 C -981.57368,351.96461 -981.61245,351.93935 -983.13174,354.10845 C -985.57139,357.59153 -990.11692,368.2953 -991.47438,373.75362 C -992.1583,376.50362 -993.02601,385.72862 -993.40262,394.25362 C -993.77924,402.77862 -994.58956,410.62913 -995.20333,411.69921 C -996.12197,413.30078 -996.25404,412.85874 -995.95027,409.19921 z M -802.25005,411.64945 C -801.91776,411.31716 -801.05526,411.28164 -800.33338,411.57051 C -799.53565,411.88973 -799.7726,412.12669 -800.93755,412.17467 C -801.99171,412.21809 -802.58234,411.98174 -802.25005,411.64945 z M -786.43755,411.88175 C -786.20838,411.67722 -783.77088,411.25001 -781.02088,410.9324 C -777.64896,410.54295 -776.83492,410.63158 -778.52088,411.20459 C -781.01928,412.05372 -787.22499,412.58453 -786.43755,411.88175 z M -723.02088,411.26602 C -724.17177,410.7786 -719.92623,410.65503 -713.02088,410.97495 C -706.42088,411.28072 -700.83338,411.69351 -700.60421,411.89226 C -699.71488,412.66355 -721.1339,412.06518 -723.02088,411.26602 z M -772.23538,407.33917 C -773.24944,405.7154 -773.07673,405.19262 -771.09788,403.89603 C -769.80738,403.05046 -768.46671,400.8896 -768.09773,399.06048 C -767.73085,397.24171 -766.76918,394.40362 -765.9607,392.75362 C -765.15221,391.10362 -764.75362,390.65362 -765.07495,391.75362 C -765.39627,392.85362 -766.07944,396.00362 -766.59311,398.75362 C -767.63105,404.31037 -769.42405,409.25362 -770.40165,409.25362 C -770.75263,409.25362 -771.5778,408.39212 -772.23538,407.33917 z M -1010.7709,406.9542 C -1014.2385,405.58396 -1014.5713,402.77316 -1011.1647,403.62817 C -1008.9942,404.17293 -1008.6742,403.72835 -1007.1042,397.98658 C -1006.1668,394.55845 -1004.7484,390.62862 -1003.9522,389.25362 L -1002.5046,386.75362 L -1003.2627,389.75362 C -1003.6797,391.40362 -1004.0209,396.24112 -1004.0209,400.50362 C -1004.0209,409.03182 -1004.4574,409.44897 -1010.7709,406.9542 z M -697.78783,406.53573 C -700.7606,406.08639 -700.59715,404.25362 -697.58431,404.25362 C -694.72687,404.25362 -693.60444,402.07706 -693.1641,395.68215 C -692.82243,390.72012 -686.96067,373.46421 -685.96314,374.48388 C -685.818,374.63224 -686.8536,378.12862 -688.26446,382.25362 C -690.1355,387.72404 -690.80196,391.6479 -690.72727,396.75362 C -690.56936,407.54719 -690.62118,407.61897 -697.78783,406.53573 z M -741.92157,350.33445 C -740.87619,348.45391 -737.46402,344.15432 -734.33896,340.7798 C -728.20222,334.15319 -726.9378,331.17524 -727.95614,325.74705 C -728.5771,322.43704 -728.83227,322.248 -732.81619,322.14653 L -737.02088,322.03944 L -732.709,321.07544 C -727.64155,319.94253 -726.15831,320.79214 -724.51596,325.76852 C -722.66205,331.38594 -724.67617,336.44754 -730.76577,341.47461 C -733.61665,343.82807 -737.72063,347.55362 -739.88572,349.75362 L -743.82226,353.75362 L -741.92157,350.33445 z M -665.91026,329.75362 C -665.55869,328.65362 -664.21174,324.82862 -662.91704,321.25362 C -659.61028,312.12274 -659.82088,310.43032 -665.17439,303.11363 C -672.2916,293.38647 -682.57422,281.25362 -683.70079,281.25362 C -684.25482,281.25362 -684.94347,282.15362 -685.23113,283.25362 C -686.03696,286.3351 -687.64438,285.62167 -686.92096,282.50362 C -686.14565,279.16186 -683.80411,275.25362 -682.57728,275.25362 C -682.08366,275.25362 -681.39717,276.54038 -681.05175,278.11308 C -680.43633,280.91505 -676.75883,285.06818 -673.25464,286.91861 C -670.29887,288.47944 -657.51276,308.26744 -657.5923,311.15791 C -657.63158,312.58555 -659.66302,317.80362 -662.10661,322.75362 C -664.5502,327.70362 -666.26184,330.85362 -665.91026,329.75362 z M -1015.5209,318.06077 C -1020.1959,314.16155 -1026.7144,308.59991 -1030.0065,305.70157 C -1035.8018,300.59942 -1035.9362,300.37008 -1034.2345,298.48969 C -1032.2824,296.33258 -1022.627,290.81418 -1021.9643,291.47683 C -1021.7325,291.70866 -1023.5403,293.39504 -1025.9818,295.22433 C -1028.4232,297.05362 -1030.6951,299.26528 -1031.0304,300.13914 C -1031.6568,301.77137 -1026.0976,307.58505 -1012.5209,319.4961 C -1003.4245,327.47648 -1005.318,326.57053 -1015.5209,318.06077 z M -714.41549,322.87958 C -704.71824,320.79247 -702.89124,318.81516 -702.28742,309.75362 L -702.02088,305.75362 L -699.84609,309.19872 C -697.92533,312.2414 -697.82663,312.94225 -699.00107,315.19872 C -702.1396,321.22877 -707.74211,324.30566 -715.33598,324.16981 L -720.02088,324.086 L -714.41549,322.87958 z M -962.45175,311.74605 C -961.66477,310.64189 -957.64587,305.19721 -953.52087,299.64676 C -949.39587,294.0963 -945.57087,288.78816 -945.02087,287.85089 C -944.15806,286.38053 -943.76671,286.33402 -942.16823,287.51182 C -940.44137,288.78422 -940.95769,289.58555 -949.77353,299.31526 C -954.9754,305.05636 -960.27798,310.65362 -961.55705,311.75362 L -963.88263,313.75362 L -962.45175,311.74605 z M -889.93056,311.03181 C -891.85496,308.0948 -893.54861,299.57081 -893.44039,293.36713 C -893.33732,287.45835 -891.37869,280.01892 -889.78971,279.50089 C -888.93311,279.22162 -889.06675,280.26385 -890.22895,282.92656 C -892.78946,288.79291 -892.52726,301.44847 -889.71657,307.65816 C -887.30237,312.99186 -887.42099,314.86191 -889.93056,311.03181 z M -906.82538,310.46963 C -909.50951,307.50371 -913.32779,297.87777 -915.99696,287.34796 C -918.77995,276.36911 -919.02108,274.25362 -917.48949,274.25362 C -916.23078,274.25362 -916.17719,274.44157 -914.06841,286.25362 C -912.17053,296.88434 -907.82221,307.08482 -903.85969,310.20175 C -901.52911,312.03498 -901.46212,312.25362 -903.23102,312.25362 C -904.31995,312.25362 -905.93741,311.45083 -906.82538,310.46963 z M -860.39758,309.68324 C -861.5096,308.26953 -862.68027,305.23203 -862.99907,302.93324 C -864.13757,294.72357 -865.43511,279.83452 -865.04597,279.44538 C -864.52498,278.92438 -863.75713,284.03316 -863.00305,293.03774 C -862.29,301.55238 -860.94482,306.05603 -858.37194,308.54258 C -857.35386,309.5265 -856.52088,310.764 -856.52088,311.29258 C -856.52088,313.04684 -858.3486,312.2881 -860.39758,309.68324 z M -834.53071,305.57706 C -836.1619,303.00495 -837.74479,299.29245 -838.04826,297.32706 C -839.29642,289.24344 -841.62032,280.80122 -843.02446,279.24966 C -844.84202,277.24128 -844.9924,274.93951 -843.27088,275.47783 C -841.78975,275.94097 -837.87383,287.80162 -837.02863,294.38455 C -836.69332,296.99607 -834.95855,301.46579 -833.05042,304.63455 C -828.98101,311.39246 -830.3072,312.23685 -834.53071,305.57706 z M -803.7453,304.50362 C -806.92634,300.87561 -808.7716,295.67191 -809.47936,288.33335 C -809.88142,284.1645 -810.57695,279.90472 -811.02498,278.86717 C -811.63112,277.46348 -811.47892,277.10073 -810.43023,277.44967 C -808.65077,278.04177 -807.79172,281.9734 -807.63261,290.25362 C -807.50021,297.14333 -806.10927,300.29676 -801.52088,304.10963 C -799.66726,305.64996 -799.43327,306.19568 -800.61589,306.22035 C -801.49315,306.23865 -802.90138,305.46612 -803.7453,304.50362 z M -777.4992,298.28407 C -780.24646,294.4259 -782.10748,285.5893 -780.98842,281.71638 L -780.13234,278.75362 L -779.81883,281.75362 C -778.79055,291.59298 -778.22736,293.51832 -775.45328,296.67783 C -772.15658,300.43256 -771.88734,301.25362 -773.95279,301.25362 C -774.74033,301.25362 -776.33622,299.91732 -777.4992,298.28407 z M -957.71873,295.50975 C -960.17306,292.67215 -961.53619,287.37226 -962.15101,278.27696 C -962.74955,269.42251 -961.43451,262.93998 -959.44363,264.93086 C -958.77308,265.60141 -958.81222,267.5609 -959.56173,270.8437 C -960.95399,276.9416 -960.02203,286.29186 -957.43729,292.15816 C -955.29641,297.01707 -955.3954,298.1959 -957.71873,295.50975 z M -703.53184,289.00362 C -704.6217,287.21612 -705.51509,284.21612 -705.51714,282.33695 C -705.52195,277.93862 -704.37734,279.05162 -703.83645,283.97124 C -703.60772,286.05155 -702.75778,288.76612 -701.94768,290.00362 C -701.13758,291.24112 -700.71676,292.25362 -701.01253,292.25362 C -701.30829,292.25362 -702.44198,290.79112 -703.53184,289.00362 z M -756.47699,289.12862 C -756.55131,284.68367 -755.31335,280.15487 -754.13807,280.57219 C -752.77473,281.05628 -752.9363,282.55419 -754.91265,287.75362 C -756.22487,291.20581 -756.43911,291.39412 -756.47699,289.12862 z M -659.33332,287.60053 C -660.40691,285.48473 -662.70498,279.30866 -664.44015,273.87594 C -667.15046,265.39011 -667.55456,262.78329 -667.30794,255.37594 L -667.02087,246.75362 L -665.78578,256.75362 C -664.30886,268.71166 -662.08894,277.8276 -658.86889,285.15734 C -656.111,291.43506 -656.45892,293.26533 -659.33332,287.60053 z M -736.52088,282.83541 C -736.52088,282.05539 -736.23326,280.66766 -735.88172,279.75156 C -735.0153,277.49371 -733.58783,279.79363 -734.26008,282.36432 C -734.83555,284.56493 -736.52088,284.91611 -736.52088,282.83541 z M -1002.9575,274.99081 C -1003.8625,271.81214 -1002.8603,263.58145 -1001.4631,262.71791 C -999.75077,261.65964 -998.32,263.30666 -999.60579,264.85595 C -1000.2559,265.6393 -1001.099,268.86173 -1001.4793,272.01692 C -1002.0818,277.01505 -1002.2721,277.39792 -1002.9575,274.99081 z M -657.92773,251.96462 C -661.43071,247.37197 -663.33079,239.14192 -664.53841,223.3309 C -665.61871,209.18684 -667.03523,197.03259 -667.99183,193.69933 C -668.29894,192.62919 -667.86672,193.21762 -667.03132,195.00695 C -666.1101,196.9801 -664.92904,205.16665 -664.02988,215.81151 C -662.16578,237.88 -659.71284,247.83808 -654.74529,253.50362 C -653.85373,254.52046 -653.67345,255.25362 -654.31499,255.25362 C -654.92224,255.25362 -656.54798,253.77357 -657.92773,251.96462 z M -1030.1901,246.52467 C -1030.0285,243.09874 -1029.5624,239.96177 -1029.1542,239.55363 C -1028.2099,238.60934 -1026.4608,241.34747 -1027.2218,242.57874 C -1027.5347,243.08508 -1028.3967,245.58157 -1029.1373,248.12649 L -1030.4838,252.75362 L -1030.1901,246.52467 z M -1046.5209,206.38143 C -1046.5209,205.90172 -1044.6908,205.21659 -1042.454,204.85891 C -1039.5424,204.39334 -1037.0271,202.93657 -1033.6003,199.7311 C -1028.537,194.995 -1027.5209,194.46195 -1027.5209,196.54186 C -1027.5209,198.16278 -1035.5369,204.929 -1039.0311,206.2575 C -1042.2631,207.4863 -1046.5209,207.55675 -1046.5209,206.38143 z M -658.13023,192.44829 C -661.74304,187.83297 -664.06645,182.29585 -669.33146,165.75362 C -676.9625,141.77753 -686.89288,123.85986 -697.22858,115.41808 C -702.45397,111.15019 -699.88266,111.43342 -694.2318,115.74818 C -688.6372,120.01997 -679.49401,133.50345 -675.0705,144.00536 C -673.2755,148.2669 -669.90882,157.77948 -667.58899,165.14442 C -663.16434,179.19169 -660.1111,186.58269 -656.49339,192.00362 C -653.88553,195.91134 -655.15041,196.25496 -658.13023,192.44829 z M -1085.2709,188.59134 C -1086.8363,187.95969 -1086.9284,186.16447 -1085.3781,186.50362 C -1084.7495,186.64112 -1083.6614,184.57803 -1082.9601,181.91897 C -1081.3415,175.78229 -1080.5209,174.95568 -1080.5209,179.46195 C -1080.5209,187.58033 -1081.7798,190.00001 -1085.2709,188.59134 z M -1037.3246,172.25362 C -1037.3544,167.02862 -1037.0362,158.84615 -1036.6175,154.07036 C -1035.9389,146.32894 -1035.4578,144.80836 -1032.1815,140.05135 C -1028.8321,135.18819 -1026.4663,127.87891 -1023.9124,114.50362 C -1023.4212,111.93139 -1020.5209,111.40901 -1020.5209,113.89278 C -1020.5209,118.10818 -1026.8652,135.5298 -1030.1273,140.27196 C -1034.0762,146.01277 -1035.41,152.12907 -1035.5749,165.25362 C -1035.6267,169.37862 -1036.0294,174.77862 -1036.4698,177.25362 C -1037.1393,181.01617 -1037.2794,180.19677 -1037.3246,172.25362 z M -1097.5209,138.97256 C -1097.5209,138.08464 -1098.9386,133.44013 -1100.6713,128.65142 C -1103.6025,120.5509 -1103.9251,120.07729 -1105.3059,121.84915 C -1106.7513,123.70406 -1106.77,123.70157 -1106.0249,121.75362 C -1104.3621,117.40705 -1104.309,109.69641 -1105.9153,105.85198 C -1108.188,100.41271 -1108.0029,91.55646 -1105.5318,87.50362 C -1102.8422,83.09236 -1101.5235,83.42002 -1101.5072,88.50362 C -1101.4859,95.13211 -1100.6924,96.78983 -1096.8808,98.16812 C -1092.7898,99.64745 -1089.53,104.38928 -1089.5246,108.86876 C -1089.5207,112.09502 -1092.7798,117.24209 -1094.8435,117.26893 C -1098.2555,117.31331 -1098.5579,118.68041 -1097.4799,129.18525 C -1096.8984,134.85214 -1096.6697,139.7358 -1096.9717,140.03782 C -1097.2738,140.33985 -1097.5209,139.86047 -1097.5209,138.97256 z M -1093.1884,113.03797 C -1089.4407,108.51891 -1093.9325,100.25362 -1100.1362,100.25362 C -1101.9328,100.25362 -1103.7136,100.75644 -1104.0934,101.37099 C -1104.6691,102.30251 -1103.4688,109.81763 -1101.8965,115.12554 C -1101.2967,117.15022 -1095.433,115.74452 -1093.1884,113.03797 z "
       style="fill:#717171;fill-opacity:1" />
    <path
       id="path2383"
       d="M -1057.0017,451.61915 C -1057.0017,445.4279 -1051.3152,434.54275 -1043.1702,425.14268 C -1040.8775,422.49673 -1039.0017,419.88049 -1039.0017,419.32881 C -1039.0017,418.0742 -1049.8154,425.5923 -1053.2649,429.24513 C -1056.2985,432.45759 -1059.9866,439.35194 -1061.042,443.78349 C -1061.7228,446.64211 -1061.807,446.4688 -1061.8993,442.01922 C -1062.0537,434.5782 -1059.0898,429.58519 -1049.24,420.69312 C -1044.5247,416.43633 -1039.7672,411.94811 -1038.6677,410.71931 C -1037.1562,409.03015 -1036.3459,408.75285 -1035.3461,409.58262 C -1034.6188,410.18624 -1034.2392,411.02872 -1034.5025,411.45479 C -1035.1972,412.57884 -1026.9446,413.62552 -1019.5118,413.35605 C -1012.0118,413.08416 -1010.9812,413.72041 -1007.3925,420.83858 C -1005.4033,424.78409 -1004.9243,426.95128 -1005.2977,430.31774 C -1005.9315,436.03155 -1008.258,439.04973 -1015.9742,444.16795 C -1024.9803,450.14187 -1036.6028,455.16774 -1048.5125,455.87774 C -1048.5125,455.87774 -1053.5178,457.01932 -1057.0017,454.74433 C -1057.1068,452.46934 -1057.0017,451.61915 -1057.0017,451.61915 z M -830.00091,445.34511 C -829.99973,440.26413 -825.07728,430.83684 -817.57034,421.53851 C -811.07623,413.49473 -809.41821,410.39796 -813.78266,414.46406 C -814.95714,415.55825 -816.33822,416.4535 -816.85173,416.4535 C -818.47424,416.4535 -827.79671,425.38576 -830.15255,429.19759 C -831.39565,431.20896 -832.96487,434.90187 -833.63972,437.40406 L -834.86671,441.9535 L -834.93421,436.67138 C -835.02057,429.91244 -833.4123,426.19651 -827.62475,419.78274 C -823.96144,415.72306 -821.45309,414.03659 -815.95138,411.93427 C -809.99607,409.65862 -808.70112,409.45807 -807.32689,410.59858 C -806.19162,411.54077 -801.87737,412.00221 -792.84566,412.14743 C -778.29942,412.38133 -776.66903,413.00165 -775.6081,418.70585 C -774.82213,422.93168 -777.47281,430.19717 -781.27837,434.248 C -788.0287,441.43339 -804.28766,447.39724 -819.2517,448.17674 L -830.0017,448.73673 L -830.00091,445.34511 z M -745.7517,446.77347 C -747.01368,446.51598 -747.99925,445.57648 -747.99612,444.63395 C -747.97662,438.75593 -741.82361,427.5551 -733.88014,418.93745 C -731.58616,416.44878 -729.9462,414.17567 -730.23578,413.88609 C -731.05939,413.06248 -739.06247,418.85177 -743.70386,423.62866 C -748.20554,428.26177 -752.55903,436.7427 -751.39908,438.61954 C -750.96396,439.32358 -751.13605,439.4885 -751.84719,439.04899 C -753.60604,437.96197 -753.22657,432.80853 -751.08247,428.66366 C -749.34108,425.29727 -746.60281,422.40565 -735.99085,412.72687 C -732.53287,409.57297 -732.41992,409.54614 -728.49085,410.94523 C -725.9958,411.83368 -720.34616,412.38215 -713.40669,412.40961 C -701.11907,412.45822 -700.44036,412.76606 -697.59225,419.58253 C -694.8194,426.21891 -698.40157,432.23479 -708.78247,438.37531 C -718.56109,444.15957 -737.48893,448.45933 -745.7517,446.77347 z M -972.57632,364.68819 C -973.90636,363.77887 -980.0017,351.60648 -980.0017,349.85969 C -980.0017,347.39933 -974.72725,336.4535 -973.54168,336.4535 C -972.88245,336.4535 -968.8824,334.48135 -964.65269,332.07094 C -957.56369,328.0311 -956.22151,327.63284 -947.48937,326.97817 C -938.94678,326.33771 -937.57376,326.48225 -933.50907,328.44993 C -928.36792,330.93872 -927.96177,332.56743 -930.88017,338.99221 C -933.09943,343.87785 -939.82172,349.97896 -947.68646,354.2455 C -954.40501,357.89024 -952.68462,358.42924 -944.32083,355.29994 C -939.81993,353.61594 -936.94548,351.49008 -931.13749,345.54994 C -925.83203,340.12376 -923.9327,338.66774 -924.48939,340.4535 C -927.42117,349.85817 -943.68447,360.36941 -960.97571,364.03523 C -968.35113,365.59886 -971.02422,365.74931 -972.57632,364.68819 z M -1029.2783,109.78367 C -1026.4983,107.49525 -1024.3468,101.70839 -1025.7532,100.30197 C -1026.4199,99.63531 -1027.1081,100.32006 -1027.818,102.35624 C -1028.4036,104.03609 -1030.2578,106.2468 -1031.9386,107.26893 C -1033.6193,108.29106 -1034.6586,109.48943 -1034.2481,109.93197 C -1033.0366,111.23791 -1040.5944,109.74063 -1044.4506,107.91072 C -1048.7157,105.8868 -1048.9336,104.82152 -1045.2517,103.99536 C -1042.2206,103.31524 -1037.2271,99.89476 -1038.0557,99.06618 C -1038.3439,98.77792 -1040.5066,99.20591 -1042.8616,100.01726 C -1046.0935,101.13075 -1048.054,101.24722 -1050.8576,100.4923 C -1054.5712,99.49235 -1060.1615,94.52364 -1061.3345,91.18036 C -1061.8568,89.69187 -1061.6498,89.57147 -1060.0449,90.43036 C -1057.7881,91.63818 -1055.0017,91.7766 -1055.0017,90.6809 C -1055.0017,90.25598 -1056.5238,89.08862 -1058.3841,88.08678 C -1062.5194,85.85977 -1064.4584,82.17535 -1062.9643,79.38364 C -1062.1378,77.83929 -1061.5198,77.64103 -1060.0255,78.44078 C -1056.7164,80.21171 -1056.0203,79.53647 -1058.451,76.91366 C -1062.0749,73.00345 -1062.418,69.93647 -1059.7687,65.13388 C -1056.8816,59.90013 -1054.0013,59.51631 -1052.7867,64.2035 C -1051.6747,68.49485 -1050.0017,68.35852 -1050.0017,63.97655 C -1050.0017,59.95269 -1047.7431,58.07194 -1041.6177,56.99528 C -1038.1227,56.38097 -1037.81,56.49493 -1038.4963,58.13304 C -1041.0412,64.20796 -1039.7362,66.65986 -1036.6967,61.51435 C -1034.2508,57.37379 -1031.4441,56.75034 -1027.7026,59.51653 C -1026.0137,60.7652 -1024.0401,61.78683 -1023.3168,61.78683 C -1022.5935,61.78683 -1022.0017,62.57503 -1022.0017,63.53838 C -1022.0017,64.50173 -1021.7286,66.00173 -1021.3947,66.87171 C -1020.9019,68.15586 -1021.5605,68.4535 -1024.8947,68.4535 C -1027.1536,68.4535 -1029.0017,68.9035 -1029.0017,69.4535 C -1029.0017,70.0035 -1027.4371,70.4535 -1025.5248,70.4535 C -1018.8015,70.4535 -1016.8675,79.46557 -1022.0047,86.857 L -1024.1568,89.9535 L -1021.0933,86.7035 C -1019.4084,84.916 -1017.6486,83.4535 -1017.1825,83.4535 C -1015.483,83.4535 -1008.9788,76.03758 -1006.8852,71.7128 C -998.48402,54.35832 -1010.849,36.06417 -1031.0017,36.03217 C -1038.916,36.0196 -1044.9301,38.50278 -1051.3763,44.44469 C -1055.4438,48.19393 -1058.5314,53.78375 -1057.8069,56.08659 C -1057.4955,57.07631 -1062.6623,62.4535 -1063.9247,62.4535 C -1064.3824,62.4535 -1065.317,63.1285 -1066.0017,63.9535 C -1067.3644,65.59539 -1065.9997,66.0515 -1064.4278,64.47956 C -1063.7958,63.84764 -1063.5867,64.89919 -1063.8323,67.47399 C -1064.0404,69.65659 -1064.586,71.2104 -1065.0447,70.9269 C -1065.5034,70.6434 -1065.7073,69.5209 -1065.4977,68.43247 C -1065.2384,67.08608 -1065.6576,66.45839 -1066.8091,66.46881 C -1069.2419,66.49082 -1071.3665,68.05427 -1070.6153,69.2697 C -1070.2618,69.84159 -1070.8376,70.58403 -1071.8948,70.91957 C -1072.952,71.2551 -1074.0694,72.1875 -1074.3779,72.99156 C -1074.6865,73.79563 -1075.8796,74.4535 -1077.0293,74.4535 C -1078.3563,74.4535 -1078.8588,74.87566 -1078.4053,75.60944 C -1077.2673,77.45083 -1088.4759,75.7624 -1093.1208,73.39275 C -1098.0609,70.8725 -1105.1758,64.54422 -1104.4286,63.33517 C -1104.1225,62.83987 -1105.0067,59.59833 -1106.3935,56.13175 C -1110.5815,45.66345 -1111.4727,34.77718 -1108.2303,33.69635 C -1107.5613,33.47337 -1106.552,34.56501 -1105.9872,36.12222 C -1104.2892,40.80427 -1102.6418,43.62033 -1099.8505,46.61198 C -1094.5211,52.32393 -1093.3434,49.25954 -1097.9896,41.76994 C -1101.4096,36.25703 -1103.5483,27.18073 -1102.6082,22.16962 C -1101.9264,18.53537 -1094.7687,9.86142 -1093.2342,10.80983 C -1092.7426,11.11364 -1091.785,13.84394 -1091.1062,16.87715 C -1089.8547,22.4694 -1086.7763,27.55369 -1085.4449,26.22733 C -1085.044,25.82793 -1085.2303,22.94038 -1085.8589,19.81055 C -1086.4874,16.68071 -1087.0017,12.60206 -1087.0017,10.74688 C -1087.0017,3.29387 -1080.5415,-3.93554 -1072.7518,-5.19962 L -1069.42,-5.74031 L -1069.3441,1.1066 C -1069.2704,7.76814 -1066.7257,16.51084 -1065.2811,15.06619 C -1064.8991,14.68427 -1064.6982,10.67768 -1064.8345,6.16265 C -1065.1191,-3.26672 -1063.4193,-7.24494 -1057.8824,-10.10822 C -1054.8728,-11.66449 -1044.9574,-11.8355 -1043.4785,-10.35663 C -1043.1895,-10.0676 -1043.6021,-7.33892 -1044.3955,-4.2929 C -1045.8374,1.24297 -1045.456,6.03238 -1043.2609,9.95486 C -1042.142,11.95419 -1041.9067,11.2662 -1040.4954,1.8697 C -1039.2183,-6.63353 -1034.9348,-10.5465 -1026.9034,-10.5465 C -1023.1239,-10.5465 -1013.841,-6.7135 -1012.5461,-4.61825 C -1012.2176,-4.0868 -1013.9278,-1.67301 -1016.3466,0.74573 C -1020.4844,4.88352 -1023.9578,11.83078 -1022.5784,13.21017 C -1022.2359,13.55264 -1021.1892,12.73498 -1020.2524,11.39317 C -1017.9809,8.1396 -1014.171,4.5946 -1010.5017,2.32036 C -1004.5982,-1.33861 -993.55547,0.81066 -990.61079,6.19177 C -987.05483,12.68995 -986.7012,13.48633 -987.16553,13.95066 C -987.43432,14.21945 -990.09492,14.89394 -993.07797,15.44952 C -999.68321,16.67973 -1004.0017,18.35669 -1004.0017,19.69145 C -1004.0017,20.2513 -1003.0173,20.3998 -1001.7517,20.03086 C -993.18181,17.53265 -989.38326,17.16168 -986.51975,18.5433 C -982.35439,20.55304 -978.0017,29.26848 -978.0017,35.59907 C -978.0017,41.75274 -979.34743,42.40763 -986.168,39.57313 C -988.97322,38.40733 -992.2209,37.47455 -993.38505,37.50027 C -994.67875,37.52886 -993.6883,38.25621 -990.83757,39.37103 C -980.7153,43.32951 -974.0017,50.75525 -974.0017,57.99275 C -974.0017,67.25049 -981.96438,70.03271 -989.99343,63.58038 C -996.3305,58.48777 -996.11106,60.82057 -989.71695,66.51955 C -985.87555,69.94333 -983.73901,72.7384 -983.04033,75.25402 C -981.53202,80.68476 -981.70123,81.65698 -985.02917,86.68125 C -988.78789,92.35588 -991.08734,92.13624 -993.47885,85.87415 C -995.31758,81.0595 -999.10911,77.4535 -1002.3327,77.4535 C -1004.1674,77.4535 -1004.0271,77.83211 -1001.0565,80.89695 C -998.39913,83.63867 -997.61887,85.38229 -997.22772,89.45305 C -996.85519,93.33005 -996.39411,94.43432 -995.31995,94.02213 C -994.24259,93.60871 -994.3302,94.20103 -995.68587,96.49599 C -998.32268,100.95976 -1003.1094,105.2184 -1006.4029,106.03069 L -1009.3041,106.74622 L -1008.6407,102.59709 C -1007.9578,98.32693 -1009.6522,92.40555 -1011.9662,90.97544 C -1013.6992,89.90441 -1014.468,91.18667 -1013.0891,92.84816 C -1012.3952,93.68431 -1012.0199,96.47283 -1012.1966,99.47896 C -1012.4771,104.24823 -1012.8271,104.90194 -1016.5345,107.58153 C -1019.3623,109.62533 -1022.201,110.66326 -1026.0345,111.05506 C -1031.4462,111.60816 -1031.4791,111.59526 -1029.2783,109.78367 z M -1029.0017,93.48714 C -1029.0017,93.07118 -1030.0883,92.93857 -1031.4165,93.19245 L -1033.8312,93.65406 L -1031.4165,88.8843 C -1028.0399,82.21475 -1028.2078,77.09358 -1031.9248,73.37657 C -1035.9591,69.34226 -1041.0443,69.34226 -1045.0786,73.37657 C -1050.8885,79.18645 -1048.0154,88.0514 -1039.5918,90.30639 C -1037.3702,90.90111 -1036.5573,91.67646 -1036.6994,93.065 C -1036.8704,94.73548 -1036.3639,94.94552 -1032.9494,94.6199 C -1030.7782,94.41284 -1029.0017,93.9031 -1029.0017,93.48714 z "
       style="fill:#cb9947;fill-opacity:1"
       sodipodi:nodetypes="csssssssssssssccccsssscccssssssccccssssssssssssccsssssssssssccssssssssssssssssssssssssssssscccsssssssssssssssssssssssssssssscccsssssssssssssssssssssssssssssssssscccssssscccccsssssc" />
    <path
       id="path2343"
       d="M -1036.1432,403.3726 C -1036.1432,400.8976 -1035.9482,399.8851 -1035.7099,401.1226 C -1035.4715,402.3601 -1035.4715,404.3851 -1035.7099,405.6226 C -1035.9482,406.8601 -1036.1432,405.8476 -1036.1432,403.3726 z M -811.94254,405.96578 C -812.96494,403.55117 -811.83474,401.76745 -802.60134,391.22439 C -793.20564,380.49599 -785.60324,368.90811 -770.88154,342.8758 C -755.61714,315.88377 -755.56614,315.56691 -763.79834,298.89414 C -768.64934,289.06932 -769.97894,287.18398 -773.42134,285.24925 C -775.61824,284.01454 -777.41564,282.37953 -777.41564,281.61589 C -777.41564,280.59448 -776.73824,280.76028 -774.85314,282.2431 C -773.44384,283.35171 -770.63134,284.78865 -768.60314,285.4363 C -764.72314,286.67533 -759.98384,290.50444 -758.16144,293.87261 C -757.43664,295.21218 -758.30204,294.79942 -760.78224,292.62261 C -764.00744,289.79194 -766.41564,288.55912 -766.41564,289.73872 C -766.41564,289.94008 -764.31504,294.53919 -761.74764,299.95898 C -755.30604,313.55748 -755.13614,316.82862 -760.37594,326.37261 C -762.64064,330.49761 -767.08544,339.04761 -770.25314,345.37261 C -773.42094,351.69761 -777.40274,359.12261 -779.10164,361.87261 C -780.80044,364.62261 -784.36364,370.60471 -787.01964,375.16615 C -792.52574,384.62211 -801.58164,395.97313 -804.31064,396.83927 C -807.06814,397.71449 -809.56044,400.88676 -810.39334,404.58164 C -811.02614,407.38899 -811.25374,407.59239 -811.94254,405.96578 z M -730.87954,406.02267 C -733.89624,403.81676 -732.20504,399.55119 -725.65164,392.83669 C -720.70424,387.76772 -718.19334,383.68264 -709.97774,367.3367 C -704.59724,356.63145 -700.51304,348.77261 -700.90174,349.87261 C -708.17084,370.4458 -716.44144,386.13744 -724.66564,394.95949 C -730.38084,401.09011 -731.51154,403.8767 -729.21564,406.1726 C -727.60334,407.78493 -728.59124,407.69591 -730.87954,406.02267 z M -1034.4156,394.43162 C -1034.4156,393.91408 -1033.9708,393.2157 -1033.4271,392.87968 C -1032.8602,392.52934 -1032.6925,392.93074 -1033.034,393.82066 C -1033.6988,395.55308 -1034.4156,395.87005 -1034.4156,394.43162 z M -1020.688,372.3726 C -1013.4002,359.84426 -1008.7271,350.98747 -1006.1841,344.88377 C -1001.6415,333.98047 -983.29934,279.99496 -981.89824,273.40439 L -981.16084,269.93617 L -979.28364,276.05142 C -976.96184,283.61444 -970.55644,291.09428 -963.14344,294.89896 C -959.67204,296.68065 -958.89114,297.35957 -960.81914,296.91976 C -965.41564,295.87125 -972.07384,290.73948 -976.57824,284.77352 C -978.85874,281.75297 -981.02364,279.63958 -981.38904,280.07711 C -981.75444,280.51463 -983.55274,286.49761 -985.38514,293.37261 C -987.21764,300.24761 -990.03834,309.19568 -991.65354,313.2572 C -993.60254,318.15825 -994.77114,323.20296 -995.12804,328.2572 C -995.56004,334.37439 -996.12214,336.36445 -997.98484,338.37261 C -999.26024,339.74761 -1004.6387,348.07261 -1009.9369,356.87261 C -1015.2352,365.67261 -1020.2797,373.5476 -1021.1471,374.3726 C -1022.201,375.37515 -1022.0488,374.71189 -1020.688,372.3726 z M -986.66564,373.21032 C -988.17814,372.65791 -989.41564,371.77761 -989.41564,371.25409 C -989.41564,370.71887 -988.45634,370.81563 -987.22404,371.47515 C -986.01864,372.12025 -983.88114,372.9974 -982.47404,373.42437 C -980.51994,374.01733 -980.38804,374.20235 -981.91564,374.2077 C -983.01564,374.21155 -985.15314,373.76273 -986.66564,373.21032 z M -698.77184,342.37677 C -698.41594,341.00406 -697.28954,338.07906 -696.26864,335.87677 C -695.24774,333.67448 -694.70354,332.99574 -695.05944,334.36845 C -695.41534,335.74116 -696.54174,338.66616 -697.56264,340.86845 C -698.58354,343.07074 -699.12774,343.74948 -698.77184,342.37677 z M -1043.5432,336.62261 C -1044.787,335.03655 -1044.7517,335.00118 -1043.1656,336.24505 C -1042.2031,336.9999 -1041.4156,337.7874 -1041.4156,337.99505 C -1041.4156,338.81809 -1042.2368,338.28836 -1043.5432,336.62261 z M -1055.6195,327.55999 C -1067.5752,318.37415 -1070.264,312.56793 -1067.3765,302.17128 C -1066.1569,297.78011 -1049.0076,279.92518 -1032.1656,265.51162 C -1022.2682,257.04132 -1021.4156,256.03182 -1021.4156,252.78312 C -1021.4156,248.56451 -1019.8524,249.08693 -1018.8693,253.63408 C -1017.7251,258.9269 -1013.5553,266.29772 -1008.618,271.7554 L -1003.9886,276.87261 L -1008.7819,272.37261 C -1011.4182,269.89761 -1014.7444,265.84761 -1016.1734,263.3726 C -1017.6024,260.89761 -1018.8724,258.72917 -1018.9957,258.55385 C -1019.1189,258.37853 -1024.6081,262.75012 -1031.1939,268.26851 C -1045.6705,280.39886 -1062.3627,297.94551 -1062.3938,301.06545 C -1062.4058,302.27151 -1063.3643,304.86625 -1064.5239,306.83154 C -1068.0719,312.84506 -1066.7689,315.85589 -1056.9825,324.25712 C -1043.2765,336.02314 -1042.66,337.51706 -1055.6195,327.55999 z M -694.33664,329.95594 C -694.38014,328.90178 -694.14374,328.31115 -693.81144,328.64344 C -693.47914,328.97573 -693.44364,329.83823 -693.73254,330.56011 C -694.05174,331.35784 -694.28874,331.12089 -694.33664,329.95594 z M -693.75814,319.68544 C -695.75314,309.39873 -706.63954,296.47908 -718.55824,290.2535 C -726.41084,286.15179 -730.44554,282.53721 -739.43754,271.54796 C -744.81234,264.9795 -749.48294,261.43125 -752.91564,261.30867 C -754.81184,261.24096 -754.80234,261.18246 -752.73254,260.18199 C -750.99134,259.3403 -749.82294,259.57579 -746.95944,261.34554 C -743.57394,263.43788 -734.41564,273.65 -734.41564,275.3327 C -734.41564,277.06369 -724.63204,285.736 -720.07284,288.0463 C -717.39024,289.4057 -712.43244,290.87818 -709.05544,291.31847 C -705.67854,291.75876 -703.85314,292.17606 -704.99894,292.24581 C -708.76824,292.47523 -708.43164,293.58799 -702.73034,299.74605 C -695.98014,307.0371 -692.15454,314.7371 -692.61904,320.0976 L -692.94614,323.87261 L -693.75814,319.68544 z M -727.17804,319.82651 C -729.61624,318.1187 -734.96794,309.59159 -734.12844,308.75208 C -733.83684,308.46047 -733.28104,309.22131 -732.89334,310.44282 C -732.50564,311.66434 -730.38224,314.62325 -728.17474,317.01819 C -723.88374,321.67333 -723.66614,322.28627 -727.17804,319.82651 z M -743.47792,290.66917 C -741.85879,283.64978 -744.21104,284.52979 -744.21104,284.52979 L -747.56334,282.80299 C -755.80384,278.55822 -762.14074,271.5994 -777.46394,249.96792 C -785.97664,237.9506 -790.41594,233.73006 -795.64944,232.67842 C -797.15294,232.37629 -798.11094,231.68855 -797.77814,231.1501 C -796.86074,229.66577 -791.46694,231.09587 -787.99914,233.74288 C -786.30324,235.03741 -779.51564,243.66287 -772.91564,252.91056 C -759.43854,271.79424 -754.04224,277.81163 -746.83484,281.99345 C -741.88384,284.86606 -740.40602,285.18368 -742.10074,289.73394 C -744.74696,293.95961 -743.40132,287.12658 -743.47792,290.66917 z M -873.43814,303.62261 C -875.74404,301.01011 -879.71544,294.82261 -882.26354,289.87261 C -887.96304,278.80045 -888.19774,278.10417 -884.95974,281.87261 C -883.54204,283.52261 -881.43944,287.43247 -880.28724,290.5612 C -879.13514,293.68992 -875.99444,298.97742 -873.30814,302.3112 C -867.48374,309.53911 -867.55774,310.28498 -873.43814,303.62261 z M -902.76444,302.86682 C -906.13484,298.45274 -915.10054,277.72414 -914.08054,276.70412 C -913.24964,275.87327 -910.34244,282.1798 -908.51004,288.78809 C -907.57944,292.14396 -904.91074,297.69833 -902.57964,301.13114 C -897.65414,308.38427 -897.76394,309.41577 -902.76444,302.86682 z M -925.60054,301.29221 C -927.40404,299.04799 -930.01274,295.12121 -931.39764,292.56605 C -933.64464,288.42036 -934.39154,287.83945 -938.33704,287.16934 C -944.07154,286.19536 -947.91954,282.54151 -951.56954,274.6044 C -953.15494,271.15688 -955.38134,267.40688 -956.51724,266.27106 C -957.65304,265.13524 -958.33064,263.95431 -958.02314,263.64677 C -956.78694,262.41054 -953.90764,266.28809 -950.39844,273.91508 C -946.56814,282.23983 -943.91144,284.92345 -938.41134,286.02347 C -934.49524,286.8067 -934.48074,285.06561 -938.35544,279.29626 C -939.97234,276.88874 -941.05914,274.68352 -940.77044,274.39578 C -939.64594,273.27503 -935.52464,279.54505 -932.94024,286.30826 C -931.44784,290.21366 -928.24524,296.10081 -925.82334,299.3908 C -920.81404,306.19544 -920.66964,307.42806 -925.60054,301.29221 z M -817.20454,301.41056 C -821.43424,298.34662 -827.95034,290.31161 -830.83514,284.60289 C -831.74384,282.80455 -834.33874,279.99205 -836.60154,278.35289 C -841.32154,274.93373 -840.79044,274.35983 -835.77484,277.45964 C -833.91754,278.6075 -831.20324,281.645 -829.74314,284.20964 C -825.13734,292.2992 -819.27174,299.3446 -815.02144,301.89249 C -812.76324,303.24615 -811.41064,304.35795 -812.01564,304.36315 C -812.62054,304.36835 -814.95564,303.03969 -817.20454,301.41056 z M -850.38114,300.42103 C -851.53714,298.79767 -853.62794,294.86017 -855.02744,291.67103 C -856.42694,288.4819 -858.96854,284.41685 -860.67544,282.63759 C -864.57044,278.57751 -863.84824,277.48298 -859.68954,281.14334 C -857.87444,282.74093 -855.73024,286.25442 -854.51834,289.61681 C -853.37974,292.77612 -851.31014,297.16362 -849.91934,299.36681 C -846.98154,304.02053 -847.30014,304.74787 -850.38114,300.42103 z M -792.54324,293.62261 C -793.78704,292.03655 -793.75174,292.00118 -792.16564,293.24505 C -791.20314,293.9999 -790.41564,294.7874 -790.41564,294.99505 C -790.41564,295.81809 -791.23684,295.28836 -792.54324,293.62261 z M -998.91564,291.37261 C -997.92014,290.27261 -996.88064,289.37261 -996.60564,289.37261 C -996.33064,289.37261 -996.92014,290.27261 -997.91564,291.37261 C -998.91114,292.47261 -999.95064,293.37261 -1000.2256,293.37261 C -1000.5006,293.37261 -999.91114,292.47261 -998.91564,291.37261 z M -695.43464,286.62261 C -698.32074,285.11011 -701.40964,282.74761 -702.29884,281.37261 C -703.84594,278.98032 -703.76484,278.99777 -700.41564,281.77778 C -698.49064,283.37562 -694.66564,285.73373 -691.91564,287.01801 C -689.16564,288.30229 -687.65174,289.35747 -688.55144,289.36284 C -689.45114,289.36821 -692.54854,288.13511 -695.43464,286.62261 z M -672.12564,285.82982 C -675.65404,284.07155 -677.72004,282.2509 -678.82204,279.9287 C -681.21024,274.89586 -680.75474,274.60442 -677.50724,279.08749 C -675.75114,281.51168 -672.50364,284.14648 -669.31084,285.73752 C -666.40254,287.18682 -664.69794,288.37261 -665.52294,288.37261 C -666.34794,288.37261 -669.31914,287.22836 -672.12564,285.82982 z M -740.14484,285.76844 C -739.81254,285.43615 -738.95004,285.40063 -738.22814,285.6895 C -737.43044,286.00872 -737.66734,286.24568 -738.83234,286.29366 C -739.88644,286.33708 -740.47714,286.10074 -740.14484,285.76844 z M -804.41564,280.16888 C -808.36284,276.55347 -808.51114,276.28101 -805.62284,277.95081 C -803.81174,278.99781 -801.66384,280.87103 -800.84974,282.11353 C -798.86824,285.13771 -799.17114,284.97254 -804.41564,280.16888 z M -993.22064,275.87261 C -993.24104,274.22261 -993.03364,273.42655 -992.75974,274.10358 C -992.48574,274.78061 -992.46914,276.13061 -992.72264,277.10358 C -992.97614,278.07655 -993.20034,277.52261 -993.22064,275.87261 z M -995.24294,269.58992 C -997.58884,264.78698 -997.66044,263.78646 -995.42054,267.10723 C -994.22054,268.88627 -993.39104,270.78406 -993.57714,271.32454 C -993.76334,271.86502 -994.51294,271.08444 -995.24294,269.58992 z M -664.41564,251.37261 C -665.31694,250.79015 -665.44024,250.39712 -664.72464,250.38792 C -664.06964,250.3795 -663.25554,250.82261 -662.91564,251.37261 C -662.14834,252.61414 -662.49454,252.61414 -664.41564,251.37261 z M -645.10754,249.12261 C -648.03094,246.04203 -652.03914,239.37261 -650.96704,239.37261 C -650.69204,239.37261 -649.73004,240.83511 -648.82934,242.62261 C -647.92864,244.41011 -645.80384,247.33511 -644.10754,249.12261 C -642.41124,250.91011 -641.24834,252.37261 -641.52334,252.37261 C -641.79834,252.37261 -643.41124,250.91011 -645.10754,249.12261 z M -1036.3507,238.82368 C -1038.223,228.07258 -1038.727,220.08607 -1037.9641,213.26281 C -1037.316,207.46668 -1036.9419,206.6744 -1033.941,204.74065 L -1030.6325,202.60869 L -1032.508,206.84857 C -1035.3249,213.21655 -1036.3272,222.77377 -1035.4059,234.47876 C -1034.9559,240.19538 -1034.7235,245.00964 -1034.8895,245.17713 C -1035.0555,245.34461 -1035.713,242.48556 -1036.3507,238.82368 z M -1039.0331,198.96378 C -1032.205,190.58077 -1030.1909,184.20584 -1029.6467,169.25526 C -1029.2984,159.68897 -1029.5631,155.35632 -1030.741,151.33797 C -1032.0316,146.93553 -1032.0732,145.72185 -1030.987,144.17104 C -1029.7739,142.43915 -1029.6336,142.53264 -1029.0475,145.46334 C -1028.6999,147.20093 -1028.4156,155.44681 -1028.4156,163.7875 C -1028.4156,184.52528 -1030.5939,192.38042 -1038.7688,201.1226 C -1043.6545,206.34728 -1043.8364,204.861 -1039.0331,198.96378 z M -660.97454,195.81743 C -662.88454,194.28715 -662.88364,194.27699 -660.91564,195.18231 C -659.81564,195.68833 -658.24064,196.35263 -657.41564,196.65853 C -656.11994,197.13897 -656.12794,197.22546 -657.47454,197.29365 C -658.33184,197.33707 -659.90694,196.67278 -660.97454,195.81743 z M -1113.7921,136.83394 C -1114.1351,135.94024 -1114.3872,134.68333 -1114.3523,134.04081 C -1114.3175,133.3983 -1113.8578,133.95043 -1113.3307,135.26778 C -1112.8038,136.58513 -1112.5517,137.84204 -1112.7706,138.06091 C -1112.9894,138.27978 -1113.4491,137.72764 -1113.7921,136.83394 z M -1116.9157,125.3726 C -1117.2954,123.64394 -1117.3976,122.02114 -1117.1428,121.76637 C -1116.888,121.5116 -1116.3921,122.74066 -1116.0407,124.4976 C -1115.207,128.66585 -1116.0149,129.47374 -1116.9157,125.3726 z M -1119.8863,112.6226 C -1120.8594,108.3601 -1122.3362,102.71127 -1123.1681,100.06964 C -1124.4018,96.15177 -1124.4833,93.9404 -1123.6104,88.06964 L -1122.5402,80.8726 L -1122.9159,88.07589 C -1123.2621,94.71554 -1121.5253,102.66484 -1119.3553,104.3726 C -1118.7005,104.88787 -1117.1751,120.3726 -1117.7791,120.3726 C -1117.9649,120.3726 -1118.9132,116.8851 -1119.8863,112.6226 z M -867.82244,112.36067 C -872.39214,108.90281 -877.67494,107.65456 -881.54974,109.11712 C -883.87824,109.99603 -884.57984,109.82896 -886.10874,108.03148 C -887.59354,106.28573 -887.61514,106.13917 -886.22954,107.20923 C -884.98094,108.17351 -884.02504,108.2339 -882.54534,107.44199 C -879.65294,105.89407 -873.73034,106.12945 -869.90574,107.94431 C -866.89454,109.37325 -866.31754,109.37325 -863.55434,107.94431 C -860.08174,106.14855 -853.33074,105.8575 -851.75274,107.4355 C -851.00224,108.18604 -849.59144,107.75299 -846.95214,105.96194 C -841.84784,102.49804 -837.42564,101.79895 -833.49054,103.83384 C -830.43064,105.41619 -830.22424,105.38934 -827.44054,103.04704 C -823.34054,99.59706 -817.99614,98.80707 -813.24644,100.94889 C -809.81454,102.49646 -809.22714,102.51942 -807.66334,101.16711 C -802.56414,96.75761 -792.48814,96.15557 -786.92884,99.92821 L -783.16294,102.48382 L -781.01084,100.46201 C -778.54764,98.14795 -771.31624,95.3726 -767.75004,95.3726 C -766.42234,95.3726 -763.57664,96.27012 -761.42644,97.3671 C -758.36784,98.92747 -756.94754,99.14513 -754.90114,98.3671 C -750.92394,96.85496 -744.55574,97.17678 -741.38434,99.05018 C -738.98284,100.46875 -737.93764,100.54595 -734.61404,99.55018 C -725.20064,96.72987 -716.75394,99.46949 -710.49604,107.3726 L -706.93284,111.8726 L -712.05624,107.19293 C -718.23694,101.54748 -723.63604,99.78242 -730.89994,101.03255 C -735.19234,101.77127 -735.88404,102.20301 -735.69654,104.02636 C -735.49354,106.00046 -735.68444,105.94992 -738.29604,103.33832 C -741.46604,100.16838 -746.68104,98.8246 -751.96564,99.81601 C -755.05174,100.39495 -755.42754,100.76891 -754.84144,102.6773 L -754.16724,104.8726 L -756.54144,102.68921 C -759.45814,100.00693 -763.59584,98.3726 -767.47004,98.3726 C -770.98334,98.3726 -780.46534,101.835 -781.48934,103.4918 C -782.01374,104.34035 -782.96964,104.08197 -784.88774,102.57324 C -788.77494,99.51549 -795.13144,98.85735 -801.86634,100.81526 C -804.97064,101.71768 -807.76844,103.1284 -808.08374,103.9502 C -808.57694,105.23534 -808.95504,105.25163 -810.78644,104.06667 C -814.47224,101.68177 -818.02854,101.32474 -822.47424,102.89329 C -828.91014,105.16398 -829.84194,106.21157 -827.69804,108.76598 C -826.32134,110.40621 -826.52994,110.34266 -828.64014,108.47894 C -832.56584,105.01177 -839.78564,104.50037 -845.27464,107.30066 C -847.97974,108.68071 -849.23334,109.8827 -848.77904,110.66094 C -848.39014,111.32735 -848.93674,111.1535 -849.99374,110.2746 C -853.02354,107.75543 -855.35084,107.27588 -859.27274,108.36263 C -865.09464,109.97586 -866.14274,110.94516 -864.65714,113.34209 C -863.05384,115.92903 -863.14354,115.90121 -867.82244,112.36067 z M -903.32544,106.28066 C -906.14724,102.46398 -911.74924,100.00277 -916.03254,100.69785 C -918.43894,101.08837 -919.70494,100.70931 -921.08014,99.18651 C -923.41694,96.59885 -933.69994,91.3726 -936.45454,91.3726 C -938.12654,91.3726 -938.43764,91.82763 -937.99294,93.6226 C -937.56974,95.33072 -937.74144,95.22193 -938.70584,93.17087 C -940.97894,88.33699 -944.74894,85.25153 -954.41564,80.31377 C -959.64064,77.64483 -966.16564,73.39358 -968.91564,70.86655 L -973.91564,66.27194 L -967.91564,70.76823 C -964.61564,73.24118 -958.09064,76.88193 -953.41564,78.85877 C -948.19144,81.06783 -943.63884,83.7864 -941.60264,85.91281 C -939.78054,87.8157 -937.75554,89.377 -937.10264,89.38237 C -934.91664,89.40036 -925.95224,94.03134 -922.56044,96.89483 C -919.68474,99.32263 -918.45644,99.69271 -913.96484,99.48465 C -909.64024,99.28433 -908.21194,99.67313 -905.79194,101.70942 C -903.32164,103.78801 -902.13404,104.09518 -898.25704,103.65819 C -895.70924,103.37101 -892.82014,103.63024 -891.78514,104.23888 C -890.24534,105.14442 -890.48234,105.23242 -893.12884,104.73782 C -894.89614,104.40754 -897.50914,104.43024 -898.93564,104.78827 C -900.95364,105.29474 -901.39074,105.87573 -900.90504,107.40591 C -900.02994,110.16328 -900.67754,109.8622 -903.32544,106.28066 z M -1096.2935,106.73984 C -1097.1515,105.77053 -1098.7551,105.3422 -1100.5435,105.60468 C -1102.812,105.93762 -1103.4156,105.64229 -1103.4156,104.19941 C -1103.4156,101.99357 -1102.4211,101.92565 -1097.8835,103.82157 C -1095.9761,104.61851 -1094.4156,105.96851 -1094.4156,106.82157 C -1094.4156,108.71289 -1094.5523,108.70694 -1096.2935,106.73984 z "
       style="fill:#ffffff"
       sodipodi:nodetypes="cssccsssssssssssssssssccsssssccssccscccssssssssssccssssccsssccssccsssscccssssssccssccssssssssssccccsssccccsssssscccssssccsssccsssssssssssccssssssccsssssccssccsssccssssccssssccssccssccssccssccssccssssccscccssccssssssccsssccsssccssccscccssccsssssssssssscccssssscccsssscccssssssssssssssccsssssscccsssssssssssccssssc" />
  </g>
  <path
     style="fill:none;fill-rule:evenodd;stroke:#ffffff;stroke-width:1px;stroke-linecap:round;stroke-linejoin:miter;stroke-opacity:1"
     d="M 435.98072,365.5382 C 435.50516,365.14578 435.04372,364.75026 434.59696,364.35113 C 425.46259,356.19044 422.46901,346.51867 430.56039,330.94788"
     id="path4229"
     sodipodi:nodetypes="csc" />
</svg>
