<?xml version="1.0" encoding="UTF-8" standalone="no"?>
<!-- Created with Inkscape (http://www.inkscape.org/) -->

<svg
   xmlns:dc="http://purl.org/dc/elements/1.1/"
   xmlns:cc="http://creativecommons.org/ns#"
   xmlns:rdf="http://www.w3.org/1999/02/22-rdf-syntax-ns#"
   xmlns:svg="http://www.w3.org/2000/svg"
   xmlns="http://www.w3.org/2000/svg"
   xmlns:xlink="http://www.w3.org/1999/xlink"
   xmlns:sodipodi="http://sodipodi.sourceforge.net/DTD/sodipodi-0.dtd"
   xmlns:inkscape="http://www.inkscape.org/namespaces/inkscape"
   version="1.0"
   width="658.00079"
   height="729.09265"
   viewBox="0 0 658.00079 729.09263"
   id="Layer_1"
   xml:space="preserve"
   inkscape:version="0.91 r13725"
   sodipodi:docname="Coat_of_arms_of_Kosovo.svg"><metadata
     id="metadata15"><rdf:RDF><cc:Work
         rdf:about=""><dc:format>image/svg+xml</dc:format><dc:type
           rdf:resource="http://purl.org/dc/dcmitype/StillImage" /><dc:title></dc:title></cc:Work></rdf:RDF></metadata><sodipodi:namedview
     pagecolor="#ffffff"
     bordercolor="#666666"
     borderopacity="1"
     objecttolerance="10"
     gridtolerance="10"
     guidetolerance="10"
     inkscape:pageopacity="0"
     inkscape:pageshadow="2"
     inkscape:window-width="1600"
     inkscape:window-height="837"
     id="namedview13"
     showgrid="false"
     fit-margin-top="0"
     fit-margin-left="0"
     fit-margin-right="0"
     fit-margin-bottom="0"
     inkscape:zoom="0.55715236"
     inkscape:cx="329.00043"
     inkscape:cy="364.54617"
     inkscape:window-x="-8"
     inkscape:window-y="-8"
     inkscape:window-maximized="1"
     inkscape:current-layer="Layer_1" /><defs
     id="defs259" /><path
     d="m 329.00043,1 c 109.391,0 218.609,18.6 328,54.695 0,255.765 2.121,526.904 -328,672.305 C -1.2085715,582.599 1.0004285,311.46 1.0004285,55.695 110.30343,19.6 219.69643,1 329.00043,1 Z"
     id="path238"
     style="fill:#d0a650;fill-opacity:1;fill-rule:evenodd;stroke:#034ea2;stroke-width:2;stroke-miterlimit:4;stroke-dasharray:none;stroke-opacity:1"
     inkscape:connector-curvature="0" /><path
     d="m 329.00043,36.513 c 98.654,0 197.308,16.751 295.96,49.328 0,230.896 1.941,475.501 -295.96,606.732 C 31.055428,561.343 33.039428,316.737 33.039428,85.841 131.69243,53.265 230.34643,36.513 329.00043,36.513"
     id="path242"
     style="fill:#034ea2;fill-opacity:1"
     inkscape:connector-curvature="0" /><path
     d="m 118.87706,190.79839 -25.832622,-18.16805 -25.826092,18.17667 9.942849,-29.29621 -25.914779,-18.05905 31.977671,0.0621 9.809902,-29.33778 9.820411,29.33453 31.97765,-0.0726 -25.90833,18.06767 9.95334,29.29276 z"
     id="star"
     style="fill:#ffffff"
     inkscape:connector-curvature="0" /><use
     transform="translate(87.073666,-27.86267)"
     id="use2460"
     x="0"
     y="0"
     width="658"
     height="729.09302"
     xlink:href="#star" /><use
     transform="translate(281.77235,-47.025462)"
     id="use2462"
     x="0"
     y="0"
     width="658"
     height="729.09302"
     xlink:href="#star" /><use
     transform="translate(375.80187,-27.86267)"
     id="use2464"
     x="0"
     y="0"
     width="658"
     height="729.09302"
     xlink:href="#star" /><use
     transform="translate(179.70631,-47.025462)"
     id="use2466"
     x="0"
     y="0"
     width="658"
     height="729.09302"
     xlink:href="#star" /><use
     transform="translate(471.92137,0)"
     id="use2468"
     x="0"
     y="0"
     width="658"
     height="729.09302"
     xlink:href="#star" /><path
     inkscape:connector-curvature="0"
     style="fill:#d0a650"
     d="m 215.65215,303.33501 c 0,0 1.83442,-1.23629 2.50555,-1.40113 0.67112,-0.16484 3.04245,-0.90661 3.04245,-0.90661 0,0 1.52122,-0.78299 2.32657,-0.78299 0.8501,0 2.50555,0.90661 3.04245,1.6896 0.49216,0.78298 3.17668,2.1429 3.17668,2.1429 0,0 1.83442,0.61814 2.19235,0 0.35794,-0.61815 1.16329,-1.07145 2.01339,-1.07145 0.85009,0 0.98432,-0.78299 0.98432,-1.40113 0,-0.61814 0.35793,-1.40113 0.98432,-2.1429 0.67113,-0.78298 2.01339,-1.23629 2.01339,-1.23629 0,0 1.83441,-0.78298 2.01338,-1.85443 0.17897,-1.07146 2.01339,-1.85444 3.04245,-2.01928 0.98432,-0.16484 0,-0.61814 2.68451,-0.32967 2.68452,0.32967 3.04245,-0.61815 3.17668,-1.40113 0.17897,-0.78299 0,-1.56597 1.70018,-1.40113 1.70019,0.16484 2.50555,0.16484 2.50555,-0.78298 0,-0.90662 1.52122,-1.40113 -1.16329,-2.1429 -2.68451,-0.78299 -2.50554,-0.16484 -2.68451,-1.40113 -0.17896,-1.23629 0,-1.07145 -1.83441,-1.23629 -1.83442,-0.16484 -0.8501,-1.07145 -0.98433,-2.01927 -0.17896,-0.90662 -0.67112,-1.40113 -0.98432,-2.01928 -0.35793,-0.61814 -1.34225,-0.61814 -1.34225,-1.52475 0,-0.90662 -0.17897,-1.40113 -1.16329,-1.40113 -0.98433,0 -1.34226,0 -1.34226,-0.90661 0,-0.90662 0.17897,-1.6896 1.16329,-1.6896 0.98432,0 1.52122,-0.78298 1.34226,-1.68959 -0.17897,-0.90662 -0.17897,-2.92589 -0.17897,-2.92589 l 1.34225,-1.56597 c 0,0 4.02678,-3.25556 4.38471,-3.8737 0.35794,-0.61815 1.70018,-1.07145 2.32657,0.16484 0.67113,1.23629 0.98432,1.56596 1.52122,2.1429 0.49216,0.61814 2.01339,0.16484 2.32658,-0.45331 0.35794,-0.61814 0.49216,-2.88467 1.387,-4.12096 0.89484,-1.19508 1.52122,-1.81323 1.74493,-2.80226 0.22371,-0.98903 0.67113,-1.81322 1.74494,-1.81322 1.0738,0 1.74493,-1.40113 1.74493,-2.22532 0,-0.8242 0.44742,-1.60718 1.74494,-1.81323 1.29751,-0.20605 1.96864,-0.98903 2.41606,0.20605 0.44742,1.19508 0.89484,1.19508 1.74493,1.60718 0.89484,0.41209 2.19236,0.98903 2.81874,0.41209 0.67113,-0.61814 0.98432,-1.60717 1.96865,-0.98903 0.93958,0.61815 1.6107,0 1.83441,-1.19508 0.22371,-1.19508 0.44742,-2.80225 0.44742,-2.80225 0,0 0.22371,-0.8242 1.74494,-0.8242 1.52122,0 0.44742,-0.98903 1.29751,-1.60717 0.89484,-0.61815 0.89484,-1.19508 1.96864,-0.8242 1.07381,0.4121 2.81874,-0.49451 1.96865,-1.48354 -0.89484,-0.98903 -2.81874,-2.59621 -1.74494,-3.8325 1.07381,-1.19508 1.52123,-3.21435 0.44742,-3.4204 -1.0738,-0.20605 -2.63977,0.20605 -2.81874,-0.98903 -0.22371,-1.19508 -0.67112,-2.01927 0.67113,-2.22532 1.29752,-0.20605 3.48987,-0.20605 4.161,-0.82419 0.67113,-0.61815 2.81874,-0.98904 2.81874,-2.80226 0,-1.81322 0.67113,-2.01927 0.89484,-3.0083 0.22371,-0.98904 0.22371,-3.09073 -0.67113,-4.07976 -0.89484,-0.98903 -2.19236,-2.43137 -2.41606,-3.0083 -0.22371,-0.61815 -1.07381,-1.60718 -2.41607,-2.01928 -1.29751,-0.41209 -2.41606,-0.61814 -2.41606,-1.60717 0,-0.98903 0.89484,0.20605 0.89484,-2.43137 0,-2.59621 -1.74494,-3.0083 -1.74494,-3.0083 l -2.63977,-1.60718 c 0,0 -4.65316,-1.23629 -5.90593,-1.23629 -1.25277,0 -2.68451,-1.31871 -1.25277,-2.1429 1.43174,-0.82419 1.78967,-2.30774 1.25277,-3.46161 -0.5369,-1.15387 -0.89484,-1.97806 -2.86348,-2.47258 -1.96864,-0.49452 -2.50555,-0.98903 -1.61071,-2.1429 0.89484,-1.15387 1.07381,-1.97806 2.14761,-1.15387 1.07381,0.82419 2.86348,1.15387 4.29523,0.49451 1.43174,-0.65935 1.96864,-1.15387 2.68451,-0.49451 0.71587,0.65935 1.61071,1.31871 2.68451,0.32968 1.07381,-0.98904 3.04245,-1.15387 3.93729,-0.65936 0.89484,0.49452 3.04245,0.32968 3.75832,0 0.71587,-0.32968 2.14761,-1.48355 2.14761,-2.1429 0,-0.65935 0.89484,-1.81322 1.78968,-2.30774 0.89483,-0.49452 1.96864,-2.1429 2.86348,-2.1429 0.89484,0 1.25277,-0.98903 1.25277,-1.64839 0,-0.65935 0.71587,-1.97806 0.89484,-2.47258 0.17897,-0.49451 1.96864,-1.19508 3.22142,-0.16483 1.25277,0.98903 2.86348,1.3187 2.86348,1.3187 0,0 1.78967,0.32968 2.68451,0 0.89484,-0.32967 2.14761,-0.65935 3.40039,0.16484 1.25277,0.8242 3.04244,0.8242 3.04244,0.8242 0,0 0.35794,-1.31871 0.35794,-1.97807 0,-0.65935 0.35794,-1.81322 -0.35794,-2.30774 -0.71587,-0.49451 -1.6107,-1.15387 -0.17896,-2.1429 1.43174,-0.98903 1.43174,-0.82419 2.86348,-0.82419 1.43174,0 2.32658,0.16484 3.40038,0.16484 1.07381,0 2.86348,0.98903 2.86348,1.97806 0,0.98903 0.71587,1.64839 1.61071,2.1429 0.89484,0.49452 1.96865,0.98903 1.61071,1.81323 -0.35793,0.82419 -0.35793,1.48354 0.71587,1.3187 1.07381,-0.16483 1.43174,0.49452 1.43174,1.31871 0,0.8242 0.35794,1.31871 1.43174,1.64839 1.07381,0.32968 1.61071,0.98903 1.61071,1.81322 0,0.8242 -0.17897,1.31871 0.17897,2.1429 0.35793,0.8242 1.43174,2.14291 1.43174,2.14291 0,0 1.96864,2.30774 -0.5369,1.15387 -2.50555,-1.15387 -3.04245,-1.64839 -3.93729,-1.48355 -0.89484,0.16484 -1.43174,0.65935 -1.43174,0.65935 0,0 -1.25277,0.32968 -2.14761,0.32968 -0.89484,0 -1.78968,1.81322 -0.35794,2.1429 1.43174,0.32968 1.96865,0.65936 1.96865,1.81323 0,1.15387 -0.53691,0.82419 -1.25278,1.64838 -0.71587,0.82419 -1.25277,0.32968 -2.50554,0.32968 -1.25278,0 -1.61071,0.98903 -1.61071,1.97806 0,0.98903 0.5369,0.82419 1.0738,1.64839 0.53691,0.82419 1.43174,0.98903 2.32658,0.16484 0.89484,-0.8242 1.61071,-1.31871 2.14761,0.16483 0.53691,1.48355 1.25278,1.48355 2.32658,1.48355 1.07381,0 1.43174,0 2.32658,-0.49451 0.89484,-0.49452 1.96864,0 2.14761,1.3187 0.17897,1.31871 1.07381,1.48355 1.96865,1.97807 0.89483,0.49451 1.43174,0.82419 1.6107,1.64838 0.17897,0.8242 0.71587,1.15387 1.61071,0.65936 0.89484,-0.49452 2.32658,-0.8242 2.86348,-0.16484 0.53691,0.65935 1.43174,1.97806 1.43174,1.97806 l 0.17897,1.64839 3.40039,1.15387 c 0,0 0.35793,0.82419 0.35793,1.48354 0,0.65936 0.5369,0.98904 1.43174,0.8242 0.89484,-0.16484 2.50555,0 2.50555,0 0,0 1.25277,-0.49452 1.25277,-1.48355 0,-0.98903 0.5369,-1.31871 1.43174,-1.31871 0.89484,0 2.86348,0.65936 3.40039,-0.32968 0.5369,-0.98903 2.14761,-1.3187 3.40038,-0.82419 1.25277,0.49452 4.4742,1.81323 4.4742,1.81323 0,0 -0.35794,0.16483 0.71587,1.81322 1.07381,1.64839 3.04245,1.64839 3.04245,1.64839 0,0 0.17897,1.48354 0.53691,2.1429 0.35793,0.65935 1.96864,0.98903 2.86348,0.32967 0.89483,-0.65935 2.14761,-1.48354 3.22141,-1.48354 1.07381,0 1.78968,0 1.78968,-0.65936 0,-0.65935 -1.07381,-1.15387 -1.07381,-2.1429 0,-0.98903 1.07381,-0.98903 1.25278,-1.97806 0.17896,-0.98903 1.25277,0 1.96864,0.49451 0.71587,0.49452 1.61071,1.31871 1.61071,1.97807 0,0.65935 1.43174,2.96709 2.32658,3.29677 0.89484,0.32968 3.22141,0.49451 3.93728,-0.32968 0.71587,-0.82419 2.50555,-1.15387 2.32658,0.82419 -0.17896,1.97807 -0.5369,2.14291 0.71587,2.80226 1.25278,0.65935 1.43174,2.96709 0.35794,3.62645 -1.07381,0.65935 -1.43174,0.82419 -1.43174,1.97806 0,1.15387 -0.35794,2.47258 0.5369,3.13193 0.89484,0.65936 1.43174,1.15387 1.43174,1.81323 0,0.65935 1.07381,3.62645 1.07381,3.62645 0,0 0.5369,2.96709 0.35793,3.62645 -0.17897,0.65935 -0.5369,1.81322 1.07381,1.64838 1.61071,-0.16484 1.96864,-0.16484 1.96864,1.15387 0,1.31871 0.5369,1.81323 -0.35793,2.30774 -0.89484,0.49452 -1.43174,2.1429 -0.53691,2.47258 0.89484,0.32968 1.61071,0.82419 1.78968,1.48355 0.17897,0.65935 1.61071,1.81322 2.50555,1.15387 0.89483,-0.65936 1.0738,-0.98903 1.78967,-1.15387 0.71587,-0.16484 1.25277,-0.65936 0.5369,-1.48355 -0.71587,-0.82419 -0.89483,-1.64839 -0.17896,-2.1429 0.71587,-0.49452 1.0738,-2.1429 1.0738,-2.1429 0,0 1.07381,-1.48355 2.32658,0 1.25277,1.48354 1.43174,0.98903 2.32658,0.98903 0.89484,0 1.25277,0.82419 1.25277,1.64838 0,0.8242 1.78968,0.65936 1.78968,1.97807 0,1.31871 0.35793,4.45064 0.35793,4.45064 0,0 0,1.81322 1.07381,2.47258 1.0738,0.65935 0.89484,0.82419 0.35793,1.64838 -0.5369,0.8242 -0.35793,2.1429 -0.35793,2.80226 0,0.65935 0.35793,0.98903 -0.5369,1.64838 -0.89484,0.65936 -1.25278,1.48355 -0.71587,2.47258 0.5369,0.98904 0.35793,1.64839 1.78967,2.80226 1.43174,1.15387 1.25278,1.64839 1.25278,2.47258 0,0.82419 1.43174,1.97806 1.43174,2.80225 0,0.8242 1.0738,1.81323 1.96864,1.97807 0.89484,0.16484 1.96864,1.64838 1.96864,2.47258 0,0.82419 0.17897,2.96709 0.17897,2.96709 0,0 -0.17897,0.49452 0.89484,0.49452 1.0738,0 1.78967,1.15387 2.14761,-0.16484 0.35793,-1.31871 1.43174,-1.48355 2.14761,-1.81323 0.71587,-0.32967 2.14761,-0.98903 2.86348,-0.49451 0.71587,0.49451 1.61071,0.49451 2.32658,0.49451 0.71587,0 4.11626,0.16484 4.11626,0.16484 0,0 0.89483,-0.16484 1.43178,1.15387 0.5369,1.31871 2.1476,2.80226 1.2527,3.46161 -0.8948,0.65936 -0.8948,1.97806 0.179,1.97806 1.0738,0 2.1476,0 2.1476,0.8242 0,0.82419 0.179,1.48354 1.0738,0.98903 0.8949,-0.49452 1.4318,-0.65936 1.7897,0 0.3579,0.65935 1.0738,0.65935 1.9686,1.15387 0.8949,0.49451 1.2528,0.16484 1.7897,-0.49452 0.5369,-0.65935 2.6845,-1.31871 2.6845,-1.31871 0,0 2.8635,-0.65935 3.9373,-0.32967 1.0738,0.32967 2.5056,0.98903 2.5056,0.98903 0,0 0.7158,1.64838 0.3579,2.63742 -0.3579,0.98903 -0.7159,0.82419 -0.3579,2.30774 0.3579,1.48354 -0.358,1.64838 -1.0738,1.48354 -0.7159,-0.16484 -1.4318,-0.16484 -1.4318,1.15387 0,1.31871 -0.7159,1.64839 -0.7159,2.80226 0,1.15387 0,0.98903 -0.7158,1.48355 -0.7159,0.49451 -0.8949,1.3187 0.1789,1.48354 1.0738,0.16484 0.7159,1.31871 0.7159,1.97807 0,0.65935 -0.179,2.1429 -0.179,2.1429 0,0 0.179,0.82419 -1.0738,0.82419 -1.2527,0 -2.3265,-0.16484 -2.5055,0.65935 -0.179,0.8242 -1.6107,2.14291 -0.3579,2.9671 1.2527,0.82419 0.8948,1.31871 0.1789,1.64838 -0.7159,0.32968 -1.2528,1.97807 0.179,2.47258 1.4317,0.49452 1.2528,0.98903 0.3579,1.64839 -0.8948,0.65935 -2.6845,1.15387 -2.6845,2.1429 0,0.98903 -0.3579,0.98903 -1.4317,1.15387 -1.0738,0.16484 -1.6107,1.48355 -0.358,3.13193 1.2528,1.64839 1.6107,1.31871 2.5056,1.31871 0.8948,0 0.8948,-1.31871 0.8948,-1.31871 0,0 3.0425,0.16484 3.9373,0.16484 0.8948,0 2.1476,0 2.8635,-0.49451 0.7159,-0.49452 2.6845,-1.31871 2.6845,0.16483 0,1.48355 0.3579,1.31871 1.2528,1.97807 0.8948,0.65935 1.0738,0.16484 1.7896,1.15387 0.7159,0.98903 0.8949,0.16484 1.4318,-0.98903 0.5369,-1.15387 1.6107,-2.30774 2.5055,-0.98904 0.8949,1.31871 0.8949,0.98904 1.9687,0.98904 1.0738,0 1.4317,0.49451 1.4317,1.3187 0,0.8242 1.0738,0.8242 2.3266,0.65936 1.2528,-0.16484 1.4317,0.65935 1.9686,1.48355 0.5369,0.82419 0.7159,0.65935 1.4318,0.65935 0.7159,0 1.4317,0 1.9686,-0.65935 0.5369,-0.65936 1.2528,-1.48355 1.9687,-0.49452 0.7158,0.98903 2.1476,0.82419 2.5055,-0.32968 0.358,-1.15387 1.9687,-2.1429 2.8635,-0.82419 0.8948,1.31871 1.6107,1.31871 2.5055,1.48355 0.8949,0.16484 2.1477,0.16484 2.6846,0.98903 0.5369,0.82419 2.3265,2.1429 1.0738,3.13193 -1.2528,0.98903 -2.6845,2.30774 -1.6107,2.63742 1.0738,0.32968 1.7896,0.65935 2.5055,1.48355 0.7159,0.82419 3.0425,1.15387 4.1163,1.3187 1.0738,0.16484 1.9686,0.32968 3.2214,-0.65935 1.2527,-0.98903 2.5055,-0.98903 2.3266,0.32968 -0.179,1.31871 0.5369,2.80225 0.5369,2.80225 0,0 0.8948,2.1429 0.8948,2.9671 0,0.82419 -0.179,0.98903 1.4317,1.97806 1.6107,0.98903 1.4318,1.64839 2.6845,0.65935 1.2528,-0.98903 1.6108,-1.48354 1.6108,-2.30774 0,-0.82419 0,-2.63741 0,-2.63741 0,0 1.7896,-0.32968 2.5055,-0.8242 0.7159,-0.49451 3.5794,-1.97806 4.2952,-1.3187 0.7159,0.65935 1.6107,0.49451 2.3266,0.16483 0.7159,-0.32967 2.1476,-0.32967 2.8635,-0.32967 0.7159,0 1.9686,0.16484 3.4004,-0.98903 1.4317,-1.15387 1.4317,-0.8242 2.3265,0 0.8949,0.82419 0.8949,1.81322 0.358,2.47257 -0.5369,0.65936 0,2.14291 1.2528,2.14291 1.2527,0 1.6107,0.65935 1.6107,1.48354 0,0.8242 0.1789,1.97807 0.3579,2.63742 0.179,0.65935 0.179,0.98903 2.1476,1.48355 1.9687,0.49451 1.6107,1.64838 1.9687,2.47258 0.3579,0.82419 0.3579,1.48354 -0.7159,1.48354 -1.0738,0 -1.4318,0.49452 -1.6107,1.31871 -0.179,0.82419 -1.7897,1.15387 -1.7897,1.15387 l -1.6107,-0.32968 c 0,0 -1.0738,0 -1.6107,0.65936 -0.5369,0.65935 -1.6107,1.97806 -0.8949,3.13193 0.7159,1.15387 0.7159,1.81323 0,2.30774 -0.7158,0.49452 -1.0738,2.9671 -1.7896,2.47258 -0.7159,-0.49452 -1.6107,0.16484 -2.3266,0.49452 -0.7159,0.32967 -0.5369,2.63741 0.8948,3.46161 1.4318,0.82419 1.7897,1.97806 1.7897,1.97806 l 1.6107,2.47258 c 0,0 -0.5369,0.49451 -0.8948,1.31871 -0.358,0.82419 -1.4318,2.47257 -0.358,2.80225 1.0738,0.32968 0.5369,2.1429 -0.5369,2.1429 -1.0738,0 -2.3265,-0.49451 -2.5055,0.8242 -0.179,1.3187 -0.7159,0.98903 -1.7897,0.82419 -1.0738,-0.16484 -3.7583,-0.82419 -4.4742,0.49451 -0.7158,1.31871 -0.8948,1.81323 -2.1476,1.64839 -1.2528,-0.16484 -0.7159,1.97806 -0.3579,2.80226 0.3579,0.82419 1.6107,1.97806 1.6107,1.97806 0,0 1.0738,0.82419 1.0738,2.47258 0,1.64838 -0.7159,1.48354 -1.4317,0.32967 -0.7159,-1.15387 -2.1477,-0.98903 -2.3266,0.32968 -0.179,1.31871 -0.358,3.29677 -1.6107,3.29677 -1.2528,0 -1.7897,0.32968 -2.3266,0.98903 -0.5369,0.65936 -1.4318,1.81323 -1.4318,2.47258 0,0.65936 -0.1789,1.31871 -1.0738,1.48355 -0.8948,0.16484 -1.0738,1.97806 -1.0738,1.97806 0,0 -2.1476,0.32968 -2.3265,1.15387 -0.179,0.8242 0.1789,2.1429 -1.6108,2.30774 -1.7896,0.16484 -2.8634,1.31871 -3.4003,2.1429 -0.5369,0.8242 -0.7159,1.48355 0,2.30774 0.7158,0.8242 1.2527,3.46161 2.1476,3.95613 0.8948,0.49452 1.6107,0.65935 1.4317,1.97806 -0.179,1.31871 -1.2528,2.30774 0.179,2.30774 1.4317,0 2.3266,0.32968 1.7897,1.48355 -0.5369,1.15387 -0.5369,1.31871 -1.6108,1.81322 -1.0738,0.49452 -1.6107,0.49452 -1.6107,1.81323 0,1.31871 0.358,1.31871 -0.5369,1.81322 -0.8948,0.49452 -0.8948,1.15387 -0.8948,2.1429 0,0.98904 -0.3579,0.65936 -1.4317,1.81323 -1.0738,1.15387 -2.5056,1.15387 -3.4004,0.82419 -0.8949,-0.32968 -1.0738,-0.32968 -1.2528,-1.31871 -0.179,-0.98903 -1.7897,-0.98903 -2.6845,-0.82419 -0.8948,0.16484 -2.1476,1.15387 -2.1476,1.15387 0,0 -1.6107,0.98903 -0.8949,1.81322 0.7159,0.8242 0.358,2.14291 -0.8948,1.97807 -1.2528,-0.16484 -4.1163,1.31871 -5.0111,-0.16484 -0.8948,-1.48355 -3.4004,-2.47258 -3.7583,-0.49452 -0.3579,1.97807 1.0738,1.81323 0.8948,3.79129 -0.1789,1.97806 -0.5369,1.97806 -1.2527,2.63742 -0.7159,0.65935 -0.7159,1.15387 -0.8949,1.97806 -0.179,0.82419 -0.3579,2.63742 0.8949,3.29677 1.2527,0.65936 1.7896,2.47258 1.7896,3.46161 0,0.98903 0,1.97806 1.2528,1.97806 1.2528,0 2.3266,-0.16483 2.5055,-1.3187 0.179,-1.15387 2.6846,-1.81323 2.8635,0.49451 0.179,2.30774 0.179,3.46161 1.0738,4.45064 0.8949,0.98903 1.6107,2.30774 2.3266,2.80226 0.7159,0.49451 1.9239,4.6979 1.9239,4.6979 -1.7449,0.37089 -2.1923,2.63742 -3.3109,3.09072 -0.6264,0.24726 -1.2975,0.0412 -1.8791,0.45331 -0.4475,0.32967 -0.4475,0.94782 -1.0738,1.23629 -1.2976,0.57693 -1.0739,-1.44234 -2.6398,-0.70057 -1.4318,0.65936 -1.566,2.30774 -3.6241,1.60718 -1.0738,-0.37089 -1.7449,-4.57427 -2.0581,-5.5633 -0.179,-0.57694 -1.2976,-2.30774 -1.6555,-2.84347 -1.208,-1.81322 -3.6241,0 -4.3847,-0.53572 -1.208,-0.8242 -0.6711,-2.22532 -2.5055,-2.39016 -3.7136,-0.24726 -1.0739,2.26653 -2.6398,2.84346 -2.9977,1.07145 -2.9977,-2.80225 -5.2348,-1.03024 -0.8501,0.65936 1.3422,1.07145 0.8053,2.22532 -0.4474,0.94782 -2.6397,2.39016 -2.5055,3.50282 0.179,1.52476 1.8344,1.97806 2.3266,3.25556 1.3422,3.37919 -0.8949,5.72814 -4.2505,3.09073 -1.8792,-1.48355 -2.2371,-4.2446 -5.1453,-4.03855 -0.6712,0.0412 -0.8949,0.74178 -1.566,0.82419 -0.6711,0.0412 -1.208,-0.61814 -1.9239,-0.41209 -1.0738,0.37089 -0.1342,1.11266 -0.3579,1.7308 0,0 -1.4318,1.19508 -1.6555,1.52476 -0.8053,1.07145 -0.5369,2.01927 -1.7002,2.88468 -0.9843,0.74177 -1.7449,0.28846 -2.8187,1.44233 -1.1186,1.19508 -1.208,2.9671 -2.63979,4.12097 -0.71587,0.57693 -1.20803,-1.73081 -2.10287,-0.20605 -0.13422,0.20605 -0.26845,0.4121 -0.35793,0.61814 -0.22371,0.45331 -0.26845,0.65936 -0.0447,1.15387 1.87916,3.62645 -2.05813,4.98637 -3.26616,7.54137 -0.53691,1.07145 0.93958,2.06048 0.35793,2.88467 -0.40268,0.61815 -2.14761,2.30774 -2.28183,2.67863 -0.13423,0.37089 -0.3132,1.19508 -0.62639,1.48355 -0.31319,0.32967 -1.387,0.16484 -1.47648,0.65935 -0.0895,0.57694 1.11854,1.03024 1.43174,1.40113 0.40267,0.45331 -0.17897,1.07145 -0.0448,1.19508 2.01339,2.01927 0.80536,1.40113 1.83442,3.17314 0.13423,0.24726 0.76061,-0.20605 0.98432,0.45331 0.22371,0.61814 -0.49216,0.57693 -0.22371,1.2775 0.0448,0.20604 1.47649,2.06048 1.47649,2.10169 0.0895,0.61814 -2.72926,1.89564 -3.35564,1.89564 -1.7002,0.0412 1.47648,-3.50282 -1.29752,-3.50282 -1.20803,0 -1.29751,2.76105 -1.61071,3.04952 -0.13422,0.12362 -1.25277,0 -1.52122,0 -1.78968,0 -2.95297,2.22532 -3.66884,2.43136 -0.44742,0.16484 -1.43174,-0.24725 -2.19235,-0.12362 -0.71587,0.12362 -1.56597,0.82419 -2.2371,0.82419 -0.44742,0 -0.67112,-0.28847 -1.02906,-0.49452 -0.80535,-0.4533 -2.28184,-0.65935 -3.17667,-0.94782 -0.49217,-0.16484 -1.43175,0.61815 -1.74494,0.4121 -0.58164,-0.37089 0.40268,-1.40113 -0.93958,-2.1429 -0.17897,-0.0824 -1.16329,-2.47258 -1.11855,-2.59621 0.44742,-1.56597 0.93958,-3.25556 0.71587,-4.90395 -0.26845,-1.68959 -2.90822,-3.13193 -3.62409,-4.49185 -0.5369,-1.03024 -1.02906,-3.75008 -2.05813,-4.45064 -1.11854,-0.74178 -2.14761,-2.18411 -2.72925,-3.29677 -0.17897,-0.32968 0.35793,-0.90662 -0.0447,-1.48355 -0.44742,-0.61814 -1.29752,-0.8654 -1.52123,-1.6896 -0.17897,-0.65935 0,-2.80225 -0.76061,-3.25556 -0.8501,-0.49451 -6.30861,-1.15387 -7.65087,-1.2775 -0.71587,-0.0412 -1.25277,-0.0412 -1.78967,-0.57693 -0.22371,-0.20605 -0.58165,-1.07145 -0.76061,-1.07145 -0.53691,-0.0412 -1.16329,0.24726 -1.7002,0.28847 -0.40267,0.0412 -1.0738,-0.24726 -1.43174,0 -1.74493,1.19508 -2.19235,2.71983 -3.8478,3.99733 -1.70019,1.2775 -3.57935,1.23629 -5.27954,2.71984 -1.07381,0.94782 -1.78968,3.21435 -2.86349,4.2858 -0.44741,0.45331 -1.16328,0 -1.34225,0.20605 -0.89484,1.11266 -2.14761,1.77201 -3.04245,2.80225 -0.17897,0.20605 -0.13423,0.61815 -0.35794,0.78299 l -1.92391,0.49451 c -0.49216,0.0824 -1.43174,-0.0412 -1.83442,0.0824 -0.89484,0.28847 -0.85009,1.23629 -3.89254,1.85444 -0.22371,0.0412 -0.62639,0.24725 -0.80536,0.37088 -0.35793,0.24726 -0.62638,0.61815 -0.98432,0.86541 -0.22371,0.16483 -0.89484,-0.12363 -1.29751,-0.0824 -0.76062,0.12363 -1.20804,0.78298 -1.92391,0.8654 -1.6107,0.20605 -4.20573,-0.74177 -5.45851,-0.24726 -0.76061,0.28847 -2.86348,2.63742 -3.62409,2.88468 -0.49216,0.16483 -0.8501,-0.0412 -1.387,-0.24726 -0.26845,0.32968 -0.89484,2.88467 -1.11855,3.46161 0,0.0412 -3.44512,2.92588 -3.71358,3.25556 -0.44741,0.49452 -0.62638,1.03024 -1.16328,1.56597 -0.35794,0.37088 -0.93958,0.70056 -1.52123,0.70056 -0.71587,0 -1.78967,-0.53573 -2.4608,-0.65935 -1.29752,-0.20605 -5.19006,-0.37089 -6.35335,-0.12363 -1.20803,0.24725 -0.8501,3.70886 -3.84781,4.03854 -1.74493,0.20605 -3.35564,0.53573 -5.14531,0.70057 -0.17897,0 -1.25278,-0.74178 -2.32658,-0.45331 -0.40268,0.12363 -1.7002,1.44234 -1.7002,1.85443 l 0,0.74178 c 0,0.12363 0.35794,0.57693 0.3132,0.61814 -0.67113,0.78299 -2.19235,2.01927 -2.68452,2.92589 -0.13422,0.24725 -0.31319,0.53572 -0.5369,0.70056 -0.40268,0.28847 -2.4608,1.07145 -2.63977,1.44234 -0.49216,1.23629 1.43174,2.39016 1.25277,2.88467 -0.5369,1.60718 -2.68451,3.13194 -3.35564,4.61548 -0.26845,0.61815 0.71587,2.67863 0.67113,3.37919 -0.22371,1.93686 -0.89484,4.40944 -0.80536,6.30508 0,0.37089 0.26846,2.30774 0.40268,2.51379 0.22371,0.37088 0.71587,0.57693 1.02907,0.90661 0.31319,0.32968 2.68451,4.94516 2.77399,5.43967 0.44742,3.4204 -4.51893,2.22532 -1.65545,5.64572 0.44742,0.53573 0.80536,1.11266 1.29752,1.56597 0.62638,0.61814 4.29522,3.29677 4.33996,3.58524 0.0895,0.49451 -2.95296,0.98903 -3.48987,1.52476 -1.43174,1.40112 -2.63977,3.99733 -4.02677,5.43967 -0.85009,0.90661 -1.61071,-0.0824 -2.72925,2.01927 -0.40268,0.78298 0,2.555 -0.49216,3.04951 -0.71587,0.74178 -1.29752,-0.24725 -2.01339,0.0824 -0.31319,0.12363 -0.49216,1.03025 -0.80535,1.2775 -0.80536,0.70057 -7.96406,4.49185 -8.63519,4.16218 -0.35793,-0.16484 -0.76061,-1.35992 -0.80535,-1.73081 -0.0895,-0.41209 -0.53691,-1.31871 -0.89484,-1.60717 -1.83442,-1.56597 -4.65316,-1.85444 -6.44284,0.0412 -0.44741,0.49451 -0.49216,1.23628 -1.0738,1.7308 -0.98432,0.82419 -2.10287,1.56597 -3.04245,2.39016 -0.17897,0.16484 -0.71587,0.78298 -0.93958,0.74177 -0.71587,-0.0824 -2.4608,-2.06048 -2.90822,-2.5962 -0.80536,-0.94783 -3.13194,-3.21436 -3.35565,-4.28581 0,-3.66766 -2.86348,-7.50015 -4.07151,-11.08539 l 1.78968,0.0412 c 2.01338,-1.35992 1.43174,-4.6979 5.05583,-3.37919 0.44742,-0.61815 0.40268,-1.2775 1.25278,-1.73081 0.31319,-0.16484 0.89483,-0.32967 1.0738,-0.61814 1.20803,-1.85444 2.63977,-8.94249 1.387,-10.75572 -1.11855,-1.64838 -2.28184,-1.56596 -3.17667,-4.2858 -0.26846,-0.74177 0.2237,-1.60718 0,-2.43137 -0.17897,-0.65935 -1.387,-4.57427 -1.56597,-4.86274 -0.22371,-0.32968 -0.98432,-0.74177 -1.02907,-0.94782 -0.0447,-0.32968 -0.31319,-4.57427 -0.17896,-4.90395 -1.20803,-3.29677 -5.27955,-5.39846 -5.50326,-5.76935 -0.49216,-0.78298 -0.98432,-1.81322 -1.52122,-2.67862 -0.62639,-1.03025 -0.62639,-1.56597 -0.98432,-2.555 -0.13423,-0.45331 -0.80536,-0.82419 -0.8501,-1.31871 -0.0895,-0.8654 2.37132,-2.67863 2.28184,-4.20338 -0.0447,-0.49452 -1.56597,-1.97807 -1.25277,-2.80226 0.31319,-0.8654 1.87915,-2.80226 1.83441,-3.75008 -0.0895,-1.2775 -2.4608,-4.03854 -2.77399,-5.39846 -0.13423,-0.65936 0.93958,-1.19508 0.67112,-1.64839 -0.31319,-0.57693 -2.81874,-2.84346 -3.22141,-3.50282 -0.3132,-0.49451 0.93958,-1.15387 0.0447,-2.06048 -0.80536,-0.82419 -0.13423,-0.53572 -0.35794,-1.23629 -0.26845,-0.78298 -1.16329,-1.48354 -1.52122,-2.30774 -0.31319,-0.70056 -2.46081,-8.44797 -2.41606,-8.90128 -0.35794,-0.53573 -0.98432,-0.98903 -1.29751,-1.52476 -0.31319,-0.53572 -0.44742,-1.56596 -0.71587,-1.97806 -0.0447,-0.0412 -2.41606,-0.74177 -2.86348,-1.44234 -0.35793,-0.57693 -0.44742,-2.47258 -1.0738,-3.4204 -0.3132,-0.4533 -0.80536,-0.37088 -1.16329,-0.70056 -0.3132,-0.24726 -0.26845,-0.70057 -0.49216,-0.98903 -0.71587,-0.98903 -2.14762,-0.0824 -3.13194,-3.70887 -1.29751,-0.90661 -2.50554,-1.6896 -3.62409,-2.80226 -0.22371,-0.20605 -0.35794,-0.4533 -0.62639,-0.57693 -0.89484,-0.37089 -2.23709,-0.49452 -2.9977,-1.15387 -0.44742,0 -2.81874,-0.0824 -3.0872,-0.24726 -0.26845,-0.16484 -0.5369,-1.19508 -0.71587,-1.23629 -1.25277,-0.24726 -3.3109,-0.12363 -4.3847,-1.03024 -0.8501,-0.74177 -1.02907,-4.32701 -2.55029,-3.8325 -0.17897,-0.0824 -0.40268,-0.16484 -0.62639,-0.12363 -0.98432,-1.2775 -4.3847,-1.44233 -5.7717,-2.26653 -0.40268,-0.24725 -1.70019,-0.0412 -1.70019,-0.41209 0.31319,-0.70057 0.22371,-1.2775 0.26845,-1.97807 -0.76061,-0.74177 -1.25278,-1.60717 -1.78968,-2.1429 -1.29751,-0.28846 -0.80535,-0.41209 -1.61071,-0.90661 -2.23709,-0.16484 -2.4608,0.20605 -3.89254,1.52476 -0.35794,0.32967 -1.07381,0.41209 -1.52123,0.65935 -0.76061,0.4121 -0.98432,1.77202 -2.05812,1.15387 -0.35794,-0.20605 -0.58165,-0.53572 -0.8501,-0.78298 -0.62639,-0.53573 -0.98432,-0.24726 -1.29751,-1.23629 -1.83442,-0.98903 -6.89026,2.43137 -8.09829,0.0412 -0.85009,-0.45331 -1.47648,0.12363 -2.19235,-0.61815 -0.35794,-0.37088 0.98432,-4.49185 -2.68452,-6.18144 0.8501,-0.65936 1.74494,-1.11266 2.55029,-1.73081 0.22371,-0.4533 -0.0447,-1.15387 -0.0447,-1.60717 0,-0.70057 0.44742,-2.06049 0.31319,-2.555 -0.13422,-0.49452 -0.67112,-0.90661 -0.85009,-1.48355 -0.22371,-0.57693 0.0447,-1.31871 -0.26845,-1.93685 -0.22371,-0.16484 -0.89484,-0.57694 -1.16329,-0.57694 -0.93958,-0.78298 -1.96865,-1.2775 -2.72926,-2.22532 -0.17897,-0.20605 -0.31319,-0.57693 -0.5369,-0.74177 -0.67113,-0.49452 -2.86348,-1.15387 -2.774,-2.18411 0.0447,-0.32968 0.49216,-0.37089 0.62639,-0.70057 0.13422,-0.41209 0.0447,-0.94782 0.35793,-1.3187 1.02907,-1.40113 3.3109,-0.78299 2.95297,-3.3792 -0.17897,-1.15387 -0.98432,-2.1429 -1.20803,-3.37919 -0.40268,-0.28846 -0.44742,-0.78298 -0.80536,-1.07145 -2.23709,-0.20604 -1.9239,-2.51378 -2.72925,-3.04951 -2.37132,-1.60718 -4.20574,-0.61814 -1.56597,-3.79129 0.35794,-1.03024 -2.28184,-2.67862 -2.81874,-3.25556 -0.93958,-0.90661 -0.49216,-2.80225 -0.85009,-3.79129 -0.17897,-0.49451 -1.74494,-1.35991 -2.2371,-2.06048 -0.13423,-0.20605 -0.5369,-1.2775 -0.76061,-1.40113 l 0.0447,-0.32967 c 0.49216,-0.37089 0.22371,-1.11266 0.0895,-1.60718 -0.31319,-0.28847 -0.98432,-0.20605 -1.20803,-0.4121 -2.14761,-1.93685 -4.74264,-2.80225 -7.56138,-3.91491 -0.76061,-0.28847 -0.5369,-0.90661 -1.16329,-1.19508 -0.5369,-0.24726 -4.33996,-1.93686 -4.60841,-1.85444 -0.44742,-0.12362 -0.76062,-1.81322 -1.07381,-2.34895 -0.26845,-0.49451 -1.34226,-1.40112 -1.34226,-1.44233 0.0895,-1.56597 -0.89483,-1.77202 -2.10287,-2.59621 0.0895,-0.20605 -0.13422,-0.70056 -0.13422,-0.94782 0,-0.20605 0.80535,-2.92589 0.93958,-3.29677 0.22371,-0.57694 0.98432,-1.11266 0.8501,-1.77202 -0.17897,-1.03024 -0.3132,-2.63742 -0.67113,-3.54403 -1.20803,-3.21435 -2.63978,-2.80225 -1.87916,-7.00564 0.17896,-0.8654 -0.13423,-1.35992 0.5369,-2.1429 -0.0895,-0.0412 0.31319,-0.4533 0.35793,-0.53572 0.40268,-0.37089 1.52123,-0.98904 1.74494,-1.2775 0.67113,-0.90661 1.0738,-2.9671 1.9239,-3.62645 0.62639,-0.49452 2.41606,-1.44234 2.72926,-1.85444 0.26845,-0.32967 0.67112,-1.35991 0.44742,-1.77201 -0.62639,-0.37089 -1.25278,-0.20605 -1.87916,-0.28847 -0.22371,-0.0412 -1.02907,-0.61814 -1.65545,-0.74177 -0.17897,-0.20605 -0.49217,-0.45331 -0.49217,-0.74177 l -0.26845,-0.24726 c -0.71587,-0.0824 -1.52122,-0.53573 -2.14761,-0.74178 -0.80535,-0.32967 -1.9239,-0.37088 -2.68451,-0.82419 -1.43174,-0.82419 -3.04245,-3.09072 -4.42945,-3.4204 -1.87916,-0.4121 -3.08719,0.16484 -4.87687,0.24726 -1.16329,0.0824 -1.16329,-0.61815 -2.10287,-0.90661 -1.25277,-0.37089 -0.31319,0.65935 -3.17667,-0.24726 -0.35794,-0.28847 0.17897,-1.2775 0.22371,-1.64839 -0.44742,-0.12363 -0.98432,0.12363 -1.52123,0 -2.37132,-0.57693 -1.47648,-2.71983 -2.10286,-4.12096 -0.26846,-0.32968 -1.25278,-0.24726 -1.7002,-0.28847 -0.13422,-0.0412 -0.17896,-0.24726 -0.13422,-0.32968 l 0.22371,-0.16483 c 0.40267,-0.61815 -1.02907,-2.18412 -0.98432,-2.39016 0.0895,-0.49452 2.9977,-0.94783 3.40038,-0.98904 0.13422,-0.37088 -0.26845,-0.70056 -0.31319,-1.07145 -0.0895,-0.82419 0.44741,-1.89564 0.71587,-2.63741 l -0.0895,-0.24726 c -0.80535,-0.45331 -1.0738,-1.11266 -1.78967,-1.64839 0.0447,-0.37088 0.5369,-0.61814 0.62638,-0.98903 1.387,-3.8325 3.53461,-0.78298 5.41377,-4.32701 0.17897,-0.32968 0.71587,-1.19508 0.89484,-1.77202 l 0.35794,-0.0824 c 0.35793,0.0824 0.85009,0.37088 1.20803,0.24725 0.26845,-0.37088 0.85009,-0.49451 1.29751,-0.61814 l 0.67113,0.16484 c 3.48987,-0.74178 2.68451,-2.01928 4.6979,-3.46161 0.5369,-0.37089 2.10287,-0.53573 2.81874,-0.78299 0.76061,0.32968 1.83442,1.52476 3.26616,2.06049 1.02906,0.41209 4.56367,1.15387 5.14532,1.48354 0.76061,0.4121 0.89483,1.40113 1.56596,1.77202 2.01339,1.07145 0.8501,-0.74178 2.774,-0.37089 1.96864,0.4121 3.57935,2.01927 5.41377,2.80226 0.31319,0.12363 1.07381,-0.0412 1.43174,-0.12363 0.58165,-0.12363 3.71358,-0.70057 4.02677,-0.57694 0.35794,0.12363 0.89484,0.45331 1.25278,0.53573 0.44741,0.0824 0.80535,-0.8654 1.11854,-0.82419 1.34226,0.20604 1.387,0.74177 3.17668,0.57693 0.0895,0 0.93958,-5.02758 1.78967,-5.27483 0.49216,-0.12363 1.83442,1.19508 2.2371,1.27749 0.67113,0.16484 -0.0447,-1.03024 -0.0895,-1.11266 -0.17896,-0.41209 -1.11854,-3.50282 -1.0738,-3.79128 0.0447,-0.16484 0.89484,0.24726 1.29751,0.12363 0.98433,-0.32968 2.32658,-0.57694 3.04245,-1.35992 0.0895,-0.0824 1.61071,-2.26653 1.65545,-2.34895 0.0895,-0.37089 -0.40267,-1.23629 -0.17896,-1.52476 0.22371,-0.24726 1.0738,-0.57693 1.47648,-0.98903 0.58164,-0.57693 0.67113,-1.56597 1.47648,-1.97806 3.17668,-0.28847 4.29522,-2.76105 7.1587,-3.09073 0.17897,0 0.80536,-0.12362 0.93958,-0.0824 l 0.58165,0.94783 c 0.17897,0.24725 2.10287,1.40112 2.41606,1.31871 0.26845,-0.0412 0.40268,-0.49452 0.67113,-0.57694 0.58164,0.0824 2.19235,-0.90661 2.37132,-1.40113 0.0447,-0.0824 -0.35793,-0.57693 -0.17897,-0.90661 0.13423,-0.24726 2.14761,-1.7308 2.46081,-1.89564 0.71587,0 1.47648,-0.16484 2.14761,0.0824 0.40268,0.16483 0.44742,0.78298 0.89484,0.8654 0.49216,0.0412 1.387,-0.16484 1.74493,-0.0824 0.40268,0.0824 0.58165,-0.74177 1.07381,-0.78298 z"
     id="path11" /></svg>