<?xml version="1.0" encoding="UTF-8" standalone="no"?>
<!-- Created with Inkscape (http://www.inkscape.org/) -->

<svg
   xmlns:dc="http://purl.org/dc/elements/1.1/"
   xmlns:cc="http://creativecommons.org/ns#"
   xmlns:rdf="http://www.w3.org/1999/02/22-rdf-syntax-ns#"
   xmlns:svg="http://www.w3.org/2000/svg"
   xmlns="http://www.w3.org/2000/svg"
   xmlns:xlink="http://www.w3.org/1999/xlink"
   version="1.1"
   width="706"
   height="883"
   viewBox="0 0 353 441.5"
   id="svg2">
  <metadata
     id="metadata393">
    <rdf:RDF>
      <cc:Work
         rdf:about="">
        <dc:format>image/svg+xml</dc:format>
        <dc:type
           rdf:resource="http://purl.org/dc/dcmitype/StillImage" />
        <dc:title></dc:title>
      </cc:Work>
    </rdf:RDF>
  </metadata>
  <defs
     id="defs391" />
  <clipPath
     id="border">
    <rect
       width="60"
       height="30"
       x="0"
       y="0"
       id="rect5" />
  </clipPath>
  <path
     d="m 339.681,17.190996 0,245.127884 c 0,89.98445 -73.19659,162.93124 -163.181,162.93124 -89.984467,0 -163.181,-72.94679 -163.181,-162.93124 l 0,-245.127884 z"
     id="path3420"
     style="fill:#ffffff;fill-rule:evenodd" />
  <path
     d="m 176.5,17.187496 0,408.062504 c 89.98441,0 163.1875,-72.95305 163.1875,-162.9375 l 0,-245.125004 -163.1875,0 z"
     id="path3014"
     style="fill:#00923f;fill-opacity:1;fill-rule:evenodd" />
  <g
     transform="translate(0,25)"
     id="g3817"
     style="stroke-width:1;stroke-miterlimit:4;stroke-dasharray:none">
    <g
       id="g3784"
       style="fill:#fdcf30;fill-opacity:1;stroke-width:1;stroke-miterlimit:4;stroke-dasharray:none">
      <path
         d="m 176.5,364 c 0,0 20,-37.5 0,-37.5 -20,0 0,37.5 0,37.5 z"
         id="path3769"
         style="fill:#fdcf30;fill-opacity:1;stroke:#000000;stroke-width:1;stroke-linecap:butt;stroke-linejoin:miter;stroke-miterlimit:4;stroke-opacity:1;stroke-dasharray:none" />
      <path
         d="m 165.5,315.5 c -2.5,4 -8,11.5 -17,10 -9,-1.5 -17,5 -17,20.5 2.5,-4 8,-11.5 17,-10 9,1.5 17,-5 17,-20.5 z"
         id="path3771"
         style="fill:#fdcf30;fill-opacity:1;stroke:#000000;stroke-width:1;stroke-linecap:butt;stroke-linejoin:miter;stroke-miterlimit:4;stroke-opacity:1;stroke-dasharray:none" />
      <path
         d="m 360,640.5 a 12.5,12.5 0 1 1 -25,0 12.5,12.5 0 1 1 25,0 z"
         transform="matrix(0.32,0,0,0.32,65.3,114.54)"
         id="path3780"
         style="fill:#fdcf30;fill-opacity:1;stroke:#000000;stroke-width:3.125;stroke-miterlimit:4;stroke-opacity:1;stroke-dasharray:none" />
      <path
         d="m 360,640.5 a 12.5,12.5 0 1 1 -25,0 12.5,12.5 0 1 1 25,0 z"
         transform="matrix(0.32,0,0,0.32,65.3,114.54)"
         id="path3795"
         style="fill:#fdcf30;fill-opacity:1;stroke:#000000;stroke-width:3.125;stroke-miterlimit:4;stroke-opacity:1;stroke-dasharray:none" />
    </g>
    <use
       transform="matrix(0,1,-1,0,480.5,127.5)"
       id="use3789"
       style="stroke-width:1;stroke-miterlimit:4;stroke-dasharray:none"
       x="0"
       y="0"
       width="353"
       height="441.5"
       xlink:href="#g3784" />
    <use
       transform="matrix(0,1,-1,0,480.5,127.5)"
       id="use3791"
       style="stroke-width:1;stroke-miterlimit:4;stroke-dasharray:none"
       x="0"
       y="0"
       width="353"
       height="441.5"
       xlink:href="#use3789" />
    <use
       transform="matrix(0,1,-1,0,480.5,127.5)"
       id="use3793"
       style="stroke-width:1;stroke-miterlimit:4;stroke-dasharray:none"
       x="0"
       y="0"
       width="353"
       height="441.5"
       xlink:href="#use3791" />
    <path
       d="m 360,640.5 a 12.5,12.5 0 1 1 -25,0 12.5,12.5 0 1 1 25,0 z"
       transform="matrix(0.6,0,0,0.6,-32,-80.3)"
       id="path3795-1"
       style="fill:#fdcf30;fill-opacity:1;stroke:#000000;stroke-width:1.66666663;stroke-miterlimit:4;stroke-opacity:1;stroke-dasharray:none" />
  </g>
  <path
     d="m 80,276.5 37.5,0 C 155,221.5 220,241.5 235,275 l 35,0 c 19.05453,-10.26944 33.75396,-26.56133 75,1.5 l 0,-5 c -7.5,-13.79981 -27.96718,-15.99921 -34,-21.5 9.95427,-1.82434 23.84707,-0.11996 34,-8.5 l 0,-10 c -14.82908,9.72175 -30.83922,14.20577 -50.5,2.5 -9.1143,6.31269 -15.22729,14.62625 -29.5,17.5 4.59703,-7.30865 7.46425,-16.41919 7,-29 l 73,-1 0,-22.5 c -28.37795,27.5 -32.5,6.5 -47.5,6.62894 -9.50052,0.0817 -15,8.37106 -26.16557,8.37106 0,0 -10.33443,-21.5 -34.83443,-21.5 -39.00055,0 -45.22739,46.5 -94.5,3.5 0.5,-9.5 0.34785,-22.07537 -12,-32 0.31428,-3.69349 5.98659,-2.31095 10,-2.5 -0.18327,-3.49164 -1.66393,-7.46275 7.5,-7.5 l 0,-8.93183 -85,0 C 48.811408,160.29997 34.809172,175.35806 34.5,198 c -0.354049,3.5 -9.316588,4.31859 -10,7.5 23,-0.41733 33,-1.5 55.5,-1.5 -0.5,-3.5 -3.63264,-9.46731 -10,-10 -25,-12.5 12.5,-27.5 20,11.5 -17.5,11 -13.64169,24.68723 -11,39.5 -19,-8.5 -41.5,-13.5 -71.5,1.5 l 0,10 C 33.753484,243.28965 47.709646,248.20402 61,251 27.728084,249.44565 20.409519,258.06909 7.5,264.5 l 0,17 c 45,-37.5 65,-15 72.5,-5 z"
     id="path3815"
     style="fill:#fdcf30;fill-opacity:1;stroke:#000000;stroke-width:1;stroke-linecap:butt;stroke-linejoin:miter;stroke-miterlimit:4;stroke-opacity:1;stroke-dasharray:none" />
  <path
     d="M 0,-4.42e-6 0,265 C 0,362.47827 79.02171,441.5 176.5,441.5 273.97823,441.5 353,362.47827 353,265 L 353,-4.42e-6 l -353,0 z m 13.5625,17.43750042 325.875,0 0,244.625004 C 339.4375,352.04695 266.48441,425 176.5,425 86.51554,425 13.5625,352.04695 13.5625,262.0625 l 0,-244.625004 z"
     id="path3020"
     style="fill:#fdcf30;fill-opacity:1;fill-rule:evenodd" />
  <use
     transform="matrix(0.56547619,0,0,0.56547619,-29.806548,-95.300595)"
     id="use3828"
     x="0"
     y="0"
     width="353"
     height="441.5"
     xlink:href="#g3817" />
  <path
     d="m 147.5,229 c 9.88457,-5.15856 19.12454,-13.60464 35,-12.5 l 0,-39.5 -10,0 c 0,14.5 -4.06689,13.20068 -6.5,20.5 -12.5,2.5 -44.40105,15.5 -45.5,47 z"
     id="path3834"
     style="fill:#fdcf30;fill-opacity:1;stroke:#000000;stroke-width:1;stroke-linecap:butt;stroke-linejoin:miter;stroke-miterlimit:4;stroke-opacity:1;stroke-dasharray:none" />
  <path
     d="m 327,320 c -5,0 -9,2 -9,8 0,3.47698 3,8 7,8 0.25594,3.02512 -0.27368,5.1774 -2,6 -5,0 -7.46164,-0.078 -7,5 1,11 5.67718,31.5512 11,41 5.32282,-9.4488 10,-30 11,-41 0.46164,-5.078 -2,-5 -7,-5 -1.72632,-0.8226 -2.25594,-2.97488 -2,-6 4,0 7,-4.52302 7,-8 0,-6 -4,-8 -9,-8 z"
     transform="scale(0.5,0.5)"
     id="path3836"
     style="fill:#fdcf30;fill-opacity:1;stroke:#000000;stroke-width:2;stroke-linecap:butt;stroke-linejoin:miter;stroke-miterlimit:4;stroke-opacity:1;stroke-dasharray:none" />
  <path
     d="m 241,169.5 0,-16 c 0,0 5,1.5 5,-12.5 0,-3.5 4,-3.08845 4,0 0,8 0,17.5 0,17.5 -4,3 -2.5,8 -9,11 z"
     id="path3840"
     style="fill:#fdcf30;fill-opacity:1;stroke:#000000;stroke-width:1;stroke-linecap:butt;stroke-linejoin:miter;stroke-miterlimit:4;stroke-opacity:1;stroke-dasharray:none" />
  <path
     d="m 237.5,164 3.5,10 c 0,0 -29.89534,14.86524 -42,6.5 -7.95953,-5.50064 -7,-27.5 -7,-27.5 -8.03327,8.31928 -6.33334,14.33333 -9.5,21.5 l -12,-2.5 0.5,-16.5 c -8.60254,-13.6069 -31.06427,-23.89541 0,-47 l 0,-68 9,0 c -1.16667,7.5 1.5,5.18482 1.5,13.5 0,6 5,5.832149 5,12.5 0,5 -5,9.051205 -5,16.5 0,9.5 6,10.5 6,18.5 0,6.8851 -6.5,7.5 -6.5,13 0,17.5 13,16.5 22,19 7.61728,2.11591 5,15 3,20.5 6.11901,6.87641 3.00038,11.33343 4.5,17 z"
     id="path3842"
     style="fill:#fdcf30;fill-opacity:1;stroke:#000000;stroke-width:1;stroke-linecap:butt;stroke-linejoin:miter;stroke-miterlimit:4;stroke-opacity:1;stroke-dasharray:none" />
  <path
     d="m 205.5,111.5 c 2.01944,-0.4556 1.44606,-6.94882 0.5,-8 -3.5556,-3.950665 -8,-1 -10.5,1.5 -2.45905,2.45905 -7.41997,3.95565 -7,7 0.41059,2.97644 4.49537,4.5 7.5,4.5 4,0 5.47798,-4.09261 9.5,-5 z"
     id="path3844"
     style="fill:#fdcf30;fill-opacity:1;stroke:#000000;stroke-width:1;stroke-linecap:butt;stroke-linejoin:miter;stroke-miterlimit:4;stroke-opacity:1;stroke-dasharray:none" />
  <path
     d="m 207,119.5 c 0.44717,-4.99848 0.98049,-9.36527 1,-17.5 0,0 8,1 8,9.5 0,8 -9,8 -9,8 z"
     id="path3846"
     style="fill:#fdcf30;fill-opacity:1;stroke:#000000;stroke-width:1;stroke-linecap:butt;stroke-linejoin:miter;stroke-miterlimit:4;stroke-opacity:1;stroke-dasharray:none" />
  <path
     d="m 206.5,112.5 c -1.40773,-1.12619 -16.40315,12.35811 -7,18 7.5,4.5 13,-2 13,-5 0,-4.5 -5.25121,-2.62561 -8,-4 -1,-0.5 3.10432,-8.11655 2,-9 z"
     id="path3848"
     style="fill:#fdcf30;fill-opacity:1;stroke:#000000;stroke-width:1;stroke-linecap:butt;stroke-linejoin:miter;stroke-miterlimit:4;stroke-opacity:1;stroke-dasharray:none" />
  <path
     d="m 119.5,245 c 23,-1 33,-7.3237 53,-4.5 16.5,-4 27,-1 41,-4 -5.51664,-1.90335 -7.48533,-5.4624 -17,-5.5 -4,-1 -5.03309,-4.66516 -7.5,-7 -2.5,5 -12.46616,9.40226 -34,2 -16,-5.5 -24.03842,12.32245 -35.5,19 z"
     id="path3832"
     style="fill:#fdcf30;fill-opacity:1;stroke:#000000;stroke-width:1;stroke-linecap:butt;stroke-linejoin:miter;stroke-miterlimit:4;stroke-opacity:1;stroke-dasharray:none" />
  <path
     d="m 129.29687,23.296875 c -21.23506,0 -29.44468,22.875 -48.10937,22.875 l -0.421875,0 c -3.69564,0 -7.109375,-3.869313 -7.109375,-6.65625 0,-3.564604 2.274425,-5.40625 5.859375,-5.40625 3.82176,0.07503 4.953225,4.276272 5.015625,7.0625 4.48687,-6.012376 -0.41377,-10.390625 -5.4375,-10.390625 -4.90561,0 -9.203125,3.554078 -9.203125,8.3125 0,6.768754 5.507365,10.8125 12.546875,10.8125 18.97806,0 28.11106,-18.296875 46.4375,-18.296875 l 0.84375,0 c 7.5364,0 14.07267,3.564283 17.40625,11.390625 1.11138,2.778599 1.5763,3.627984 2.375,7.5 l 26.5,0 1,0 26.5,0 c 0.7987,-3.872016 1.26362,-4.721401 2.375,-7.5 3.33358,-7.826342 9.86985,-11.390625 17.40625,-11.390625 l 0.84375,0 c 18.32644,0 27.45944,18.296875 46.4375,18.296875 7.03951,0 12.54687,-4.043746 12.54687,-10.8125 0,-4.758422 -4.29751,-8.3125 -9.20312,-8.3125 -5.02373,0 -9.92437,4.378249 -5.4375,10.390625 0.0624,-2.786228 1.19387,-6.987466 5.01562,-7.0625 3.58495,0 5.85938,1.841646 5.85938,5.40625 0,2.786937 -3.41373,6.65625 -7.10938,6.65625 l -0.42187,0 c -18.66469,0 -26.87431,-22.875 -48.10938,-22.875 -7.56322,0 -11.68917,2.383362 -15.98437,5.75 C 204.97692,31.19628 199.36498,37.811047 198.5,41.5 l -21.5,0 -1,0 -21.5,0 c -0.86498,-3.688953 -6.47692,-10.30372 -9.21875,-12.453125 -4.2952,-3.366638 -8.42116,-5.75 -15.98438,-5.75 z"
     id="path3937"
     style="fill:#fdcf30;fill-rule:evenodd;stroke:#000000;stroke-width:1;stroke-miterlimit:4;stroke-opacity:1;stroke-dasharray:none" />
  <path
     d="m 171.5,40.5 c 0,0 -1.5,6 -1.5,10 0,0.942809 1.0755,1.8151 2,2 2.5,0.5 8,0 8.5,-1.5 1.15108,-3.45326 -0.5,-10.5 -0.5,-10.5 z"
     id="path4012"
     style="fill:#fdcf30;fill-opacity:1;stroke:#000000;stroke-width:1;stroke-linecap:butt;stroke-linejoin:miter;stroke-miterlimit:4;stroke-opacity:1;stroke-dasharray:none" />
  <use
     transform="translate(213,0)"
     id="use4014"
     x="0"
     y="0"
     width="353"
     height="441.5"
     xlink:href="#use3828" />
</svg>
