<?xml version="1.0" encoding="UTF-8" standalone="no"?>
<svg xmlns="http://www.w3.org/2000/svg" version="1.1" width="340" height="300">
  <path
     d="m 168.3,242.6 c -42.1,-28.3 -78.7,-69 -79.4,-188.35 47.2,21.2 111.5,20.8 158.8,0 C 247,173.6 210.3,214.3 168.3,242.6 z"
     id="path2458"
     style="fill:#ffcb04;fill-opacity:1;fill-rule:evenodd;stroke:#000000;stroke-width:2.3464;stroke-linecap:butt;stroke-linejoin:miter;stroke-miterlimit:4;stroke-opacity:1;stroke-dasharray:none;display:inline" />
  <path
     d="m 171.1,141.2 c 15.9,-13.1 31.7,-31.5 37.6,-63.85 0.2,-1.6 4.2,-1.6 4.9,-0.5 0.7,1.3 2,3.8 1,6.7 3,-0.9 4.3,0.2 3.1,6.9 4.2,-0.1 2.7,5.2 0.5,11.85 2.7,0.1 2.8,3.2 -1.2,10.3 6.3,1.5 -4.1,11.9 -6,13.4 5.9,-0.1 -6.2,10.3 -16.2,18.2"
     id="path3235"
     style="fill:#ffffff;fill-opacity:1;stroke:#000000;stroke-width:2.3464;stroke-linecap:round;stroke-linejoin:round;stroke-miterlimit:4;stroke-opacity:1;stroke-dasharray:none;display:inline" />
  <path
     d="m 172.1,142 c -10,-2.3 -37.1,-38.6 -48.2,-56.65 -1.1,-1.6 -2.4,-2.2 -3,-2.4 -1.4,-0.4 -6.2,-0.9 -2.7,8.3 -5.9,0.9 -4.7,5.3 -2,10.25 -4.9,3.4 -2.6,6.7 0,10.1 -2.4,3.4 -1.3,6.5 1.1,9.5 -0.8,2.3 -1.4,4.7 2.1,8.3 -0.3,2.2 -1.7,4.4 3,7.4 -1.8,4.3 0,5.7 2.3,6.8 0.2,6.7 3,7.6 5.9,7.7 -0.3,2.1 0.5,4.1 4.2,3.8 0.5,2.4 1.4,4.5 4.8,4.5 4.6,0.8 7.8,2.8 9.1,5.9 l -8,11 c -1.4,1.6 0.9,7 5.4,5.9 1.3,2.3 2.2,5.1 7.4,3.3 2.5,3.5 5.4,4.4 8.6,1.5 2.3,2.7 5.6,3 7.4,0 2.7,1.1 6.5,1.2 7.4,-2.1 3.1,0.4 7.2,0.9 8.3,-3.8 3.3,1.5 6.3,0.7 6.2,-4.5 l -15.8,-17.5 c 1.7,0 3.4,-0.2 4.7,-1.3 1.9,-0.2 3.5,-0.8 4.9,-1.9 1.9,0 3.7,-0.7 5.4,-2.1 l 15.6,0 c 0,0 -8.3,-11.7 -13.9,-11.8 -6.9,-0.4 -11.8,1.7 -20.2,-0.2 z"
     id="path3233"
     style="fill:#ffffff;fill-opacity:1;stroke:#000000;stroke-width:2.3464;stroke-linecap:round;stroke-linejoin:round;stroke-miterlimit:4;stroke-opacity:1;stroke-dasharray:none;display:inline" />
  <path
     d="m 406.3,309.3 a 2.652,2.652 0 1 1 -5.4,0 2.652,2.652 0 1 1 5.4,0 z"
     transform="matrix(0.6819,0,0,0.6819,-84.08,-63.33)"
     id="path3301"
     style="fill:#000000;fill-opacity:1;stroke:none;display:inline" />
  <g
     transform="matrix(0.5866,0,0,0.5866,0.5926,1.843)"
     id="g4649"
     style="stroke:#000000;stroke-width:3;stroke-linecap:round;stroke-linejoin:round;stroke-miterlimit:4;stroke-opacity:1;stroke-dasharray:none;display:inline">
    <g
       id="g4125"
       style="fill:#10673c;fill-opacity:1">
      <path
         d="m 345.8,253.3 2.4,-3.2 c 8.8,0 17,-0.3 14.6,-5.9 6.1,-0.5 13.5,-0.2 10,-5.4 6,-0.5 11.2,-1.9 11.1,-7.7 16,-1.3 6.5,-13.4 -2.2,-9.3 -2.7,-8.6 -7.7,-3.9 -12.8,2.4 -3.5,-5.4 -6.9,-0.7 -10.4,5.7 -3.1,-4.7 -6.2,-0.4 -9.3,5.7 -7.5,-5.1 -13.4,11.5 -12.3,14.7 z"
         id="path3303" />
      <path
         d="m 341.7,260.4 -6.5,11.9 c -4.5,2.4 -6.5,0.8 -7,-3.2 l 4.7,-8.9 8.8,0.2 z"
         id="path3319" />
    </g>
    <path
       d="m 362.9,244 c -4,-3 -7.1,-5 -12.5,-3.6"
       id="path3307" />
    <path
       d="m 372.8,238.5 c -4.3,-3.4 -7.7,-4.7 -13,-3.4"
       id="path3311" />
    <path
       d="m 349.2,235.4 c -0.1,4.1 0.6,12.3 -3.1,16.3"
       id="path3305" />
    <path
       d="m 358.8,229.8 c 0.6,3.7 2.3,5.8 -0.2,11.4"
       id="path3309" />
    <path
       d="m 369,224.4 c 0.9,3.4 1.7,5.6 -1.4,11"
       id="path3313" />
    <path
       d="m 384,230.7 c -5,-1.4 -8,-4.4 -14.3,-2.4"
       id="path3315" />
    <path
       d="m 381.9,222.2 c 0.1,3 0,4.7 -4.5,5.9"
       id="path3317" />
  </g>
  <g
     transform="matrix(0.5866,0,0,0.5866,0.5926,1.843)"
     id="g3109">
    <path
       d="m 426.6,2.7 c 1.2,19.1 5,37.1 35.2,50.2 l 3.3,-5.4 C 467.2,19.5 456,6.6 426.6,2.7 z"
       id="path4628"
       style="fill:#00a750;fill-opacity:1;stroke:none" />
    <path
       d="m 425.1,1.2 c -4.1,27.1 16.3,50.5 45.5,58 1,-39 -6.3,-53.9 -45.5,-58 z m 2.4,3.8 c 28.1,6.1 39.7,14.5 37.6,42.5 l -13.4,-18.1 10,23.5 C 434.8,37.5 428.8,24 427.5,5 z"
       id="path4630"
       style="fill:#251c20;fill-opacity:1;stroke:none" />
    <path
       d="m 449.4,49.3 c 7.9,16.4 17.2,32.1 45,45.3 l 0.5,-4.4 C 486.3,66.3 473.1,54.5 449.4,49.3 z"
       id="path4586"
       style="fill:#00a750;fill-opacity:1;stroke:none" />
    <path
       d="m 447.7,47.8 c 3.1,26 29.1,47.7 55.6,52.8 C 489.4,70 478.6,49.3 447.7,47.8 z m 1.7,1.5 c 23.7,5.2 36.9,17 45.5,40.9 L 478.1,73.8 494.3,94.6 C 466.6,81.4 457.3,65.7 449.4,49.3 z"
       id="path4588"
       style="fill:#251c20;fill-opacity:1;stroke:none" />
    <path
       d="m 461.8,32.6 c 8.3,19 18.3,37.2 47.8,52.5 l 0.6,-5.2 C 501.1,52.2 487,38.6 461.8,32.6 z"
       id="path4607"
       style="fill:#00a750;fill-opacity:1;stroke:none" />
    <path
       d="M 460,30.9 C 463.2,59.5 495.6,82.1 519.1,92 510.3,57.1 497.3,32.6 460,30.9 z m 1.8,1.7 c 25.2,6 39.3,19.6 48.4,47.3 L 492.3,61 509.5,85.1 C 480.1,69.8 470.1,51.6 461.8,32.6 z"
       id="path4609"
       style="fill:#251c20;fill-opacity:1;stroke:none" />
    <path
       d="m 505.9,67.5 c 22.8,-2.1 50.2,55.3 38.4,63.3 L 527.9,98 l 13.4,36.1 c -7.2,-0.7 -9.8,-8.5 -10.3,-11.1 -0.3,6.6 -0.1,12.5 -6.6,15.8 l -24.2,-22.3 23.2,28.8 c -23.7,-9.6 -40.6,-26.4 -49.3,-55.5 4.2,-0.6 8.6,-0.7 18.8,3.6 l 13.5,-13.8 c -1.6,-4.4 -2.9,-8.6 -0.5,-12.1 z"
       id="path4321"
       style="fill:#00a750;fill-opacity:1;stroke:none" />
    <path
       d="m 468.4,85.9 c 7.2,21.2 11.6,44.3 47.5,60.6 15.4,5.7 29.2,1.5 37.8,-17.1 -9.8,-54.9 -39.1,-66.4 -49.9,-64.8 -0.7,5.8 -0.9,4.7 -0.2,13.6 l -14.1,10.6 c -3.8,-0.9 -13.8,-1.9 -21.1,-2.9 z m 5.7,3.9 c 4.2,-0.6 8.6,-0.7 18.8,3.7 l 13.5,-13.9 c -1.6,-4.4 -2.9,-8.6 -0.4,-12.1 22.7,-2.1 50.1,55.3 38.3,63.3 L 527.9,98 l 13.4,36.1 c -7.2,-0.7 -9.8,-8.5 -10.3,-11.1 -0.3,6.6 -0.1,12.5 -6.6,15.8 l -24.2,-22.4 23.2,28.9 c -23.8,-9.6 -40.6,-26.4 -49.3,-55.5 z"
       id="path4323"
       style="fill:#251c20;fill-opacity:1;stroke:none" />
    <path
       d="m 489.7,76.5 c 7.2,20.9 15.8,40.9 41.1,57.7 l 0.5,-5.6 C 523.5,98.1 511.4,83.1 489.7,76.5 z"
       id="path4327"
       style="fill:#00a750;fill-opacity:1;stroke:none" />
    <path
       d="m 488.2,74.7 c 4.1,28.5 30.6,56.2 50.8,67.1 C 526.2,102.9 514.6,79 488.2,74.7 z m 1.5,1.8 c 21.7,6.6 33.8,21.6 41.6,52.1 l -15.3,-20.9 14.7,26.5 c -25.2,-16.8 -33.8,-36.8 -41,-57.7 z"
       id="path4329"
       style="fill:#251c20;fill-opacity:1;stroke:none" />
    <path
       d="m 540.2,125.7 c 25.6,5.3 36.2,77.2 20.7,81.9 l -6.9,-41.3 2.5,43.9 c -7.6,-3.1 -7.8,-12.5 -7.5,-15.5 -2.5,7 -4.4,13.6 -12.5,15 l -18.9,-32.5 15.6,39.2 c -22.6,-18.4 -35.3,-42.4 -35.1,-77 4.8,0.8 9.5,2.1 19.3,10.2 l 19.4,-10.5 c -0.3,-5.3 -0.3,-10.3 3.4,-13.4 z"
       id="path4307"
       style="fill:#00a750;fill-opacity:1;stroke:none" />
    <path
       d="m 493.2,133.3 c 0.7,25.4 -2.2,52.1 31.4,81.9 14.9,11.3 31.3,11.5 47,-5.9 7.7,-63.2 -20.4,-85.5 -32.7,-87.4 -2.7,6.1 -2.5,4.8 -4.7,14.7 l -19,6.9 c -3.9,-2.3 -14.4,-6.7 -22,-10.2 z m 4.9,6.1 c 4.8,0.8 9.5,2.1 19.3,10.3 l 19.4,-10.6 c -0.3,-5.3 -0.3,-10.3 3.5,-13.4 25.5,5.3 36.1,77.2 20.6,81.9 l -6.9,-41.3 2.5,43.9 c -7.6,-3.1 -7.8,-12.5 -7.5,-15.5 -2.5,7 -4.4,13.6 -12.5,15 l -18.9,-32.6 15.6,39.3 C 510.5,198 497.9,174 498.1,139.4 z"
       id="path4309"
       style="fill:#251c20;fill-opacity:1;stroke:none" />
    <path
       d="m 519.6,130.1 c 0.8,25.3 3.4,49.9 25.4,76.7 l 2.4,-6 C 549.1,165 541,144.6 519.6,130.1 z"
       id="path4313"
       style="fill:#00a750;fill-opacity:1;stroke:none" />
    <path
       d="m 518.5,127.6 c -5,32.5 14.5,71.6 32.9,90.3 -0.9,-46.8 -5.5,-76.7 -32.9,-90.3 z m 1.1,2.5 c 21.4,14.5 29.5,34.9 27.8,70.7 l -9.7,-27.8 7.2,33.8 C 523,180 520.4,155.4 519.6,130.1 z"
       id="path4315"
       style="fill:#251c20;fill-opacity:1;stroke:none" />
    <path
       d="m 558.6,205.3 c 21.5,14.1 10.1,92.2 -5.3,91.9 l 5.8,-45.1 -10.5,46.3 c -5.9,-5.7 -3.4,-15.5 -2.2,-18.5 -4.3,6.4 -7.9,12.6 -15.7,11.3 l -7.6,-40 2.7,45.9 c -15,-26.6 -19.5,-55.8 -9.2,-91.7 4.1,2.4 8,5.4 14.4,17.1 l 20.5,-4.4 c 1.3,-5.6 2.8,-10.8 7.1,-12.8 z"
       id="path4293"
       style="fill:#00a750;fill-opacity:1;stroke:none" />
    <path
       d="m 514,197.4 c -6.8,26.7 -17.3,53.4 4.4,95.6 10.1,16.7 24.9,22.4 44.1,9.6 25.4,-63 6.6,-95.5 -4,-101.7 -4.2,5.4 -3.7,4.2 -8.6,13.7 l -19.1,0.8 c -2.8,-3.7 -11,-11.7 -16.8,-18 z m 2.6,8 c 4.1,2.4 8,5.4 14.3,17.2 l 20.6,-4.5 c 1.3,-5.6 2.8,-10.8 7.1,-12.7 21.5,14 10.1,92.1 -5.3,91.8 l 5.8,-45.1 -10.5,46.3 c -5.9,-5.7 -3.4,-15.5 -2.2,-18.5 -4.3,6.4 -7.9,12.6 -15.7,11.3 l -7.5,-40.1 2.6,46 c -15.1,-26.7 -19.5,-55.8 -9.2,-91.7 z"
       id="path4295"
       style="fill:#251c20;fill-opacity:1;stroke:none" />
    <path
       d="m 538.7,203 c -6.7,26.5 -11.5,52.9 0.6,88.1 l 3.9,-5.4 c 11.9,-36.6 10.6,-60.5 -4.5,-82.7 z"
       id="path4299"
       style="fill:#00a750;fill-opacity:1;stroke:none" />
    <path
       d="m 538.4,200.1 c -14,32 -7.7,79.1 3.4,104.6 12.8,-48.8 17.3,-81.3 -3.4,-104.6 z m 0.3,2.9 c 15.1,22.2 16.4,46.1 4.5,82.7 l -0.7,-32.1 -3.3,37.4 c -12,-35.1 -7.2,-61.5 -0.5,-88 z"
       id="path4301"
       style="fill:#251c20;fill-opacity:1;stroke:none" />
    <path
       d="m 553.5,299.9 c 15.3,21.2 -25.1,81.5 -39.8,74.6 l 22.6,-35.2 -27.6,34.1 c -3.5,-7.4 2.7,-14.5 4.9,-16.5 -6.5,3.6 -12.4,7.1 -19.3,2.7 l 7.8,-36.7 -14.8,39.5 c -4.3,-28.8 2.3,-55.1 25.8,-80.6 3.1,3.8 5.6,8 7.4,20.5 l 21.4,5.3 c 3.4,-4.2 6.7,-7.9 11.6,-7.7 z"
       id="path4279"
       style="fill:#00a750;fill-opacity:1;stroke:none" />
    <path
       d="m 513.6,274 c -16.6,19.3 -36.7,37.1 -31.9,81.7 3.5,18.4 15.5,29.5 38.9,27.2 48.1,-41.6 42.3,-76.9 34.5,-86.7 -6.1,2.7 -5.1,1.9 -13.4,7.8 L 523,296.3 c -1.3,-4.3 -6.2,-14.6 -9.4,-22.3 z m -0.5,7.8 c 3.1,3.8 5.6,8 7.3,20.6 l 21.5,5.2 c 3.4,-4.2 6.7,-7.9 11.6,-7.6 15.3,21.1 -25.1,81.4 -39.8,74.5 l 22.6,-35.2 -27.6,34.1 c -3.5,-7.4 2.7,-14.5 4.9,-16.5 -6.5,3.6 -12.4,7.1 -19.3,2.7 l 7.9,-36.8 -14.9,39.6 c -4.4,-28.9 2.3,-55.1 25.8,-80.6 z"
       id="path4281"
       style="fill:#251c20;fill-opacity:1;stroke:none" />
    <path
       d="m 535.3,289.4 c -16.4,19.2 -31.1,39.2 -32.8,73.8 l 5.8,-2.8 c 25.3,-25.4 33,-45.9 27,-71 z"
       id="path4285"
       style="fill:#00a750;fill-opacity:1;stroke:none" />
    <path
       d="m 536.1,286.8 c -25.6,20.7 -37.3,62.7 -36.3,88.9 30.8,-35.2 47.4,-60.4 36.3,-88.9 z m -0.8,2.6 c 6,25.1 -1.7,45.6 -27,71 l 11.5,-27.1 -17.3,29.8 c 1.7,-34.5 16.4,-54.5 32.8,-73.7 z"
       id="path4287"
       style="fill:#251c20;fill-opacity:1;stroke:none" />
    <path
       d="m 517.7,380.5 c 7.2,26 -53.5,70.1 -65.2,58.1 l 34.5,-26.2 -39,23.2 c -0.7,-9 7.8,-13.2 10.7,-14.3 -7.6,1 -14.6,2.4 -19.7,-4.4 l 20.8,-32.7 -28.6,32.9 c 6.2,-29.4 22.2,-52.4 54,-68.6 1.6,4.7 2.6,9.7 -0.2,22.5 l 18.8,12.7 c 4.7,-2.8 9.3,-5.1 13.9,-3.2 z"
       id="path4265"
       style="fill:#00a750;fill-opacity:1;stroke:none" />
    <path
       d="m 488.5,341.1 c -22.9,12.7 -48.8,22.6 -60.2,67.6 -3.3,18.9 4.3,33.9 27.7,39.9 61.6,-22.6 68.7,-58.8 64.6,-71.1 -6.8,0.5 -5.6,0.1 -15.7,2.7 l -15.3,-14.1 c 0.3,-4.7 -0.7,-16.4 -1.1,-25 z m -3.3,7.4 c 1.6,4.7 2.6,9.7 -0.3,22.5 l 18.9,12.7 c 4.7,-2.8 9.3,-5.1 14,-3.1 7.1,25.9 -53.6,70 -65.3,58 l 34.5,-26.2 -39,23.2 c -0.7,-9 7.8,-13.2 10.7,-14.3 -7.6,1 -14.6,2.4 -19.7,-4.4 l 20.9,-32.7 -28.7,32.9 c 6.2,-29.5 22.2,-52.4 54,-68.6 z"
       id="path4267"
       style="fill:#251c20;fill-opacity:1;stroke:none" />
    <path
       d="m 503.9,363.8 c -22.7,12.6 -44.1,26.7 -58.2,59.5 l 6.6,-0.6 c 33.6,-15.4 48.5,-32.5 51.6,-58.9 z"
       id="path4271"
       style="fill:#00a750;fill-opacity:1;stroke:none" />
    <path
       d="m 505.7,361.6 c -32.2,10.8 -58.7,47.1 -67.2,73 42.5,-23.1 67.7,-41.5 67.2,-73 z m -1.8,2.2 c -3.1,26.4 -18,43.5 -51.6,58.9 l 20.9,-22.1 -27.5,22.6 c 14.1,-32.7 35.5,-46.8 58.2,-59.4 z"
       id="path4273"
       style="fill:#251c20;fill-opacity:1;stroke:none" />
    <path
       d="m 454.9,438.6 c 2.5,26 -61.6,58 -70.6,45 l 36.6,-19 -40.3,16 c 0.7,-9 9.4,-12 12.3,-12 -7.3,0 -14,0 -17.7,-8 l 24.8,-27 -32.1,26 c 10.6,-27 29.3,-46.1 61.8,-56.4 0.7,4.8 0.8,9.7 -3.9,21.4 l 15.5,15 c 4.9,-2 9.6,-3 13.6,-1 z"
       id="path4228"
       style="fill:#00a750;fill-opacity:1;stroke:none" />
    <path
       d="m 434,396.7 c -23.6,8.4 -49.5,13.7 -67.5,54.9 -6.2,17 -1.5,33 19.4,43 61.4,-12 74,-46 72.2,-58 -6.5,-1 -5.3,-1 -15.2,0 l -12,-15.9 c 1,-4.4 2,-15.7 3.1,-24 z m -4.3,6.5 c 0.7,4.8 0.8,9.7 -4,21.4 l 15.6,15 c 4.9,-2 9.6,-3 13.6,0 2.5,25 -61.6,57 -70.6,44 l 36.6,-19 -40.3,16 c 0.7,-9 9.4,-12 12.3,-12 -7.3,0 -14,0 -17.7,-8 l 24.9,-27 -32.2,26 c 10.6,-27 29.3,-46.1 61.8,-56.4 z"
       id="path4226"
       style="fill:#251c20;fill-opacity:1;stroke:none" />
    <path
       d="m 444.7,420.8 c -23.4,8.8 -45.7,18.8 -64.3,47.8 l 6.3,0 c 34,-9 50.7,-23 58,-47.8 z"
       id="path4208"
       style="fill:#00a750;fill-opacity:1;stroke:none" />
    <path
       d="m 446.7,419 c -31.9,5.1 -62.7,35.6 -74.8,58.6 43.5,-15 70.1,-28 74.8,-58.6 z m -2,1.8 c -7.3,24.8 -24,38.8 -58,47.8 l 23.2,-18 -29.5,18 c 18.6,-29 40.9,-39 64.3,-47.8 z"
       id="path4203"
       style="fill:#251c20;fill-opacity:1;stroke:none" />
    <path
       d="m 152.1,2.7 c -1.2,19.1 -5,37.1 -35.2,50.2 l -3.3,-5.4 c -2.1,-28 9.1,-40.9 38.5,-44.8 z"
       id="path4634"
       style="fill:#00a750;fill-opacity:1;stroke:none" />
    <path
       d="m 153.6,1.2 c 4.1,27.1 -16.3,50.5 -45.5,58 -1,-39 6.3,-53.9 45.5,-58 z M 151.2,5 c -28.1,6.1 -39.7,14.5 -37.6,42.5 L 127,29.4 117,52.9 C 143.9,37.5 149.9,24 151.2,5 z"
       id="path4636"
       style="fill:#251c20;fill-opacity:1;stroke:none" />
    <path
       d="M 128.5,49.3 C 120.6,65.7 111.3,81.4 83.6,94.6 L 83,90.2 c 8.6,-23.9 21.8,-35.7 45.5,-40.9 z"
       id="path4642"
       style="fill:#00a750;fill-opacity:1;stroke:none" />
    <path
       d="m 130.2,47.8 c -3.1,26 -29.1,47.7 -55.6,52.8 14,-30.6 24.7,-51.3 55.6,-52.8 z m -1.7,1.5 C 104.8,54.5 91.6,66.3 83,90.2 L 99.8,73.8 83.7,94.6 c 27.6,-13.2 36.9,-28.9 44.8,-45.3 z"
       id="path4644"
       style="fill:#251c20;fill-opacity:1;stroke:none" />
    <path
       d="m 116.2,32.6 c -8.4,19 -18.3,37.2 -47.8,52.5 L 67.8,79.9 C 76.9,52.2 91,38.6 116.2,32.6 z"
       id="path4648"
       style="fill:#00a750;fill-opacity:1;stroke:none" />
    <path
       d="M 118,30.9 C 114.8,59.5 82.4,82.1 58.9,92 67.7,57.1 80.6,32.6 118,30.9 z m -1.8,1.7 C 91,38.6 76.9,52.2 67.8,79.9 L 85.7,61 68.5,85.1 C 97.9,69.8 107.8,51.6 116.2,32.6 z"
       id="path4650"
       style="fill:#251c20;fill-opacity:1;stroke:none" />
    <path
       d="M 71.7,67.5 C 48.9,65.4 21.5,122.8 33.3,130.8 L 49.7,98 36.3,134.1 c 7.2,-0.7 9.8,-8.5 10.3,-11.1 0.3,6.6 0.1,12.5 6.6,15.8 l 24.2,-22.3 -23.2,28.8 c 23.7,-9.6 40.6,-26.4 49.3,-55.5 -4.2,-0.6 -8.6,-0.7 -18.8,3.6 L 71.2,79.6 c 1.6,-4.4 2.9,-8.6 0.5,-12.1 z"
       id="path4355"
       style="fill:#00a750;fill-opacity:1;stroke:none" />
    <path
       d="M 109.2,85.9 C 102,107.1 97.6,130.2 61.7,146.5 46.3,152.2 32.5,148 23.9,129.4 33.7,74.5 63,63 73.8,64.6 c 0.7,5.8 0.9,4.7 0.2,13.6 l 14.1,10.6 c 3.8,-0.9 13.8,-1.9 21.1,-2.9 z m -5.7,3.9 C 99.3,89.2 94.9,89.1 84.7,93.5 L 71.2,79.6 C 72.8,75.2 74.1,71 71.6,67.5 48.9,65.4 21.5,122.8 33.3,130.8 L 49.7,98 36.3,134.1 c 7.2,-0.7 9.8,-8.5 10.3,-11.1 0.3,6.6 0.1,12.5 6.6,15.8 L 77.4,116.4 54.2,145.3 C 78,135.7 94.8,118.9 103.5,89.8 z"
       id="path4357"
       style="fill:#251c20;fill-opacity:1;stroke:none" />
    <path
       d="m 87.9,76.5 c -7.2,20.9 -15.8,40.9 -41.1,57.7 l -0.5,-5.6 C 54.1,98.1 66.2,83.1 87.9,76.5 z"
       id="path4361"
       style="fill:#00a750;fill-opacity:1;stroke:none" />
    <path
       d="M 89.4,74.7 C 85.3,103.2 58.8,130.9 38.6,141.8 51.4,102.9 63,79 89.4,74.7 z m -1.5,1.8 C 66.2,83.1 54.1,98.1 46.3,128.6 l 15.3,-20.9 -14.7,26.5 c 25.2,-16.8 33.8,-36.8 41,-57.7 z"
       id="path4363"
       style="fill:#251c20;fill-opacity:1;stroke:none" />
    <path
       d="M 37.3,125.7 C 11.77,131 1.17,202.9 16.69,207.6 l 6.91,-41.3 -2.5,43.9 c 7.5,-3.1 7.8,-12.5 7.5,-15.5 2.4,7 4.3,13.6 12.5,15 L 60,177.2 44.4,216.4 c 22.5,-18.4 35.3,-42.4 35,-77 -4.8,0.8 -9.5,2.1 -19.2,10.2 L 40.8,139.1 c 0.3,-5.3 0.3,-10.3 -3.5,-13.4 z"
       id="path4369"
       style="fill:#00a750;fill-opacity:1;stroke:none" />
    <path
       d="m 84.3,133.3 c -0.7,25.4 2.3,52.1 -31.3,81.9 -15,11.3 -31.4,11.5 -47.04,-5.9 -7.7,-63.2 20.34,-85.5 32.64,-87.4 2.7,6.1 2.5,4.8 4.8,14.7 l 18.9,6.9 c 3.9,-2.3 14.4,-6.7 22,-10.2 z m -4.9,6.1 c -4.8,0.8 -9.5,2.1 -19.2,10.3 L 40.8,139.1 c 0.3,-5.3 0.3,-10.3 -3.6,-13.4 -25.43,5.3 -36.03,77.2 -20.51,81.9 l 6.91,-41.3 -2.5,43.9 c 7.5,-3.1 7.8,-12.5 7.5,-15.5 2.4,7 4.3,13.6 12.5,15 L 59.9,177.1 44.4,216.4 C 67,198 79.7,174 79.4,139.4 z"
       id="path4371"
       style="fill:#251c20;fill-opacity:1;stroke:none" />
    <path
       d="m 57.9,130.1 c -0.7,25.3 -3.4,49.9 -25.3,76.7 l -2.5,-6 C 28.4,165 36.6,144.6 57.9,130.1 z"
       id="path4375"
       style="fill:#00a750;fill-opacity:1;stroke:none" />
    <path
       d="m 59,127.6 c 5.1,32.5 -14.5,71.6 -32.8,90.3 0.8,-46.8 5.5,-76.7 32.8,-90.3 z m -1.1,2.5 C 36.6,144.6 28.4,165 30.1,200.8 L 39.8,173 32.6,206.8 C 54.5,180 57.2,155.4 57.9,130.1 z"
       id="path4377"
       style="fill:#251c20;fill-opacity:1;stroke:none" />
    <path
       d="m 19.01,205.3 c -21.5,14.1 -10.14,92.2 5.29,91.9 L 18.46,252.1 29,298.4 c 5.9,-5.7 3.4,-15.5 2.2,-18.5 4.3,6.4 7.9,12.6 15.6,11.3 l 7.6,-40 -2.6,45.9 c 15,-26.6 19.5,-55.8 9.2,-91.7 -4.1,2.4 -8,5.4 -14.4,17.1 l -20.5,-4.4 c -1.3,-5.6 -2.8,-10.8 -7.09,-12.8 z"
       id="path4383"
       style="fill:#00a750;fill-opacity:1;stroke:none" />
    <path
       d="m 63.6,197.4 c 6.8,26.7 17.3,53.4 -4.4,95.6 -10.2,16.7 -24.9,22.4 -44.14,9.6 -25.36,-63 -6.55,-95.5 4.01,-101.7 4.23,5.4 3.73,4.2 8.53,13.7 l 19.1,0.8 c 2.9,-3.7 11.1,-11.7 16.9,-18 z m -2.6,8 c -4.1,2.4 -8,5.4 -14.4,17.2 l -20.5,-4.5 c -1.3,-5.6 -2.8,-10.8 -7.17,-12.7 -21.42,14 -10.06,92.1 5.37,91.8 L 18.46,252.1 29,298.4 c 5.9,-5.7 3.4,-15.5 2.2,-18.5 4.3,6.4 7.9,12.6 15.6,11.3 l 7.6,-40.1 -2.6,46 C 66.9,270.4 71.3,241.3 61,205.4 z"
       id="path4385"
       style="fill:#251c20;fill-opacity:1;stroke:none" />
    <path
       d="m 38.9,203 c 6.6,26.5 11.4,52.9 -0.6,88.1 l -3.9,-5.4 C 22.5,249.1 23.8,225.2 38.9,203 z"
       id="path4389"
       style="fill:#00a750;fill-opacity:1;stroke:none" />
    <path
       d="m 39.1,200.1 c 14.1,32 7.8,79.1 -3.3,104.6 C 23,255.9 18.44,223.4 39.1,200.1 z m -0.2,2.9 c -15.1,22.2 -16.4,46.1 -4.5,82.7 l 0.7,-32.1 3.3,37.4 c 11.9,-35.1 7.1,-61.5 0.5,-88 z"
       id="path4391"
       style="fill:#251c20;fill-opacity:1;stroke:none" />
    <path
       d="m 24,299.9 c -15.33,21.2 25.1,81.5 39.8,74.6 l -22.7,-35.2 27.7,34.1 c 3.4,-7.4 -2.7,-14.5 -4.9,-16.5 6.5,3.6 12.3,7.1 19.3,2.7 l -7.8,-36.7 14.8,39.5 c 4.3,-28.8 -2.3,-55.1 -25.8,-80.6 -3.1,3.8 -5.6,8 -7.4,20.5 l -21.4,5.3 c -3.4,-4.2 -6.7,-7.9 -11.6,-7.7 z"
       id="path4397"
       style="fill:#00a750;fill-opacity:1;stroke:none" />
    <path
       d="m 63.9,274 c 16.6,19.3 36.7,37.1 31.9,81.7 -3.5,18.4 -15.5,29.5 -38.9,27.2 C 8.77,341.3 14.57,306 22.4,296.2 c 6.1,2.7 5.1,1.9 13.4,7.8 l 18.7,-7.7 c 1.3,-4.3 6.2,-14.6 9.4,-22.3 z m 0.5,7.8 c -3.1,3.8 -5.6,8 -7.3,20.6 l -21.5,5.2 C 32.2,303.4 28.9,299.7 24,300 8.67,321.1 49.1,381.4 63.8,374.5 l -22.7,-35.2 27.7,34.1 c 3.4,-7.4 -2.7,-14.5 -4.9,-16.5 6.5,3.6 12.3,7.1 19.3,2.7 l -7.9,-36.8 14.9,39.6 c 4.4,-28.9 -2.3,-55.1 -25.8,-80.6 z"
       id="path4399"
       style="fill:#251c20;fill-opacity:1;stroke:none" />
    <path
       d="m 42.2,289.4 c 16.4,19.2 31,39.2 32.8,73.8 l -5.8,-2.8 c -25.3,-25.4 -33,-45.9 -27,-71 z"
       id="path4403"
       style="fill:#00a750;fill-opacity:1;stroke:none" />
    <path
       d="m 41.4,286.8 c 25.5,20.7 37.3,62.7 36.3,88.9 C 46.9,340.5 30.3,315.3 41.4,286.8 z m 0.8,2.6 c -6,25.1 1.7,45.6 27,71 L 57.6,333.3 75,363.1 C 73.2,328.6 58.6,308.6 42.2,289.4 z"
       id="path4405"
       style="fill:#251c20;fill-opacity:1;stroke:none" />
    <path
       d="m 59.8,380.5 c -7.2,26 53.6,70.1 65.3,58.1 l -34.6,-26.2 39,23.2 c 0.7,-9 -7.7,-13.2 -10.6,-14.3 7.6,1 14.5,2.4 19.6,-4.4 l -20.8,-32.7 28.6,32.9 c -6.2,-29.4 -22.1,-52.4 -54,-68.6 -1.6,4.7 -2.6,9.7 0.2,22.5 l -18.8,12.7 c -4.7,-2.8 -9.3,-5.1 -13.9,-3.2 z"
       id="path4411"
       style="fill:#00a750;fill-opacity:1;stroke:none" />
    <path
       d="m 89,341.1 c 23,12.7 48.9,22.6 60.2,67.6 3.3,18.9 -4.3,33.9 -27.7,39.9 C 60,426 52.8,389.8 56.9,377.5 c 6.9,0.5 5.6,0.1 15.8,2.7 l 15.2,-14.1 c -0.2,-4.7 0.7,-16.4 1.1,-25 z m 3.3,7.4 c -1.6,4.7 -2.6,9.7 0.3,22.5 l -18.9,12.7 c -4.7,-2.8 -9.3,-5.1 -13.9,-3.1 -7.2,25.9 53.6,70 65.3,58 l -34.6,-26.2 39,23.2 c 0.7,-9 -7.7,-13.2 -10.6,-14.3 7.6,1 14.5,2.4 19.6,-4.4 l -20.9,-32.7 28.7,32.9 c -6.2,-29.5 -22.1,-52.4 -54,-68.6 z"
       id="path4413"
       style="fill:#251c20;fill-opacity:1;stroke:none" />
    <path
       d="m 73.6,363.8 c 22.8,12.6 44.1,26.7 58.2,59.5 l -6.6,-0.6 C 91.6,407.3 76.8,390.2 73.6,363.8 z"
       id="path4417"
       style="fill:#00a750;fill-opacity:1;stroke:none" />
    <path
       d="m 71.8,361.6 c 32.2,10.8 58.7,47.1 67.2,73 -42.5,-23.1 -67.6,-41.5 -67.2,-73 z m 1.8,2.2 c 3.2,26.4 18,43.5 51.6,58.9 l -20.9,-22.1 27.6,22.6 C 117.7,390.5 96.4,376.4 73.6,363.8 z"
       id="path4419"
       style="fill:#251c20;fill-opacity:1;stroke:none" />
    <path
       d="m 122.7,438.6 c -2.5,26 61.6,58 70.6,45 l -36.6,-19 40.3,16 c -0.7,-9 -9.4,-12 -12.3,-12 7.3,0 14,0 17.7,-8 l -24.8,-27 32.1,26 c -10.6,-27 -29.3,-46.1 -61.8,-56.4 -0.7,4.8 -0.8,9.7 3.9,21.4 l -15.5,15 c -4.9,-2 -9.6,-3 -13.6,-1 z"
       id="path4425"
       style="fill:#00a750;fill-opacity:1;stroke:none" />
    <path
       d="m 143.6,396.7 c 23.6,8.4 49.5,13.7 67.5,54.9 6.2,17 1.5,33 -19.4,43 -61.4,-12 -74,-46 -72.2,-58 6.5,-1 5.3,-1 15.2,0 l 12,-15.9 c -1,-4.4 -2,-15.7 -3.1,-24 z m 4.3,6.5 c -0.7,4.8 -0.8,9.7 4,21.4 l -15.6,15 c -4.9,-2 -9.6,-3 -13.6,0 -2.5,25 61.6,57 70.6,44 l -36.6,-19 40.3,16 c -0.7,-9 -9.4,-12 -12.3,-12 7.3,0 14,0 17.7,-8 l -24.9,-27 32.2,26 c -10.6,-27 -29.3,-46.1 -61.8,-56.4 z"
       id="path4427"
       style="fill:#251c20;fill-opacity:1;stroke:none" />
    <path
       d="m 132.9,420.8 c 23.4,8.8 45.7,18.8 64.3,47.8 l -6.3,0 c -34,-9 -50.7,-23 -58,-47.8 z"
       id="path4431"
       style="fill:#00a750;fill-opacity:1;stroke:none" />
    <path
       d="m 130.9,419 c 31.9,5.1 62.7,35.6 74.8,58.6 -43.5,-15 -70.1,-28 -74.8,-58.6 z m 2,1.8 c 7.3,24.8 24,38.8 58,47.8 l -23.2,-18 29.5,18 c -18.6,-29 -40.9,-39 -64.3,-47.8 z"
       id="path4433"
       style="fill:#251c20;fill-opacity:1;stroke:none" />
    <path
       d="m 376.9,433.6 c -29.2,2 -57.6,6 -87.9,33 l 7,3 c 41.5,2 64.8,-9 80.9,-36 z"
       id="path4457"
       style="fill:#00a750;fill-opacity:1;stroke:none" />
    <path
       d="m 379.8,432.6 c -37.8,-5 -89.3,15 -103.4,43 54.1,-3 93.4,-3 103.4,-43 z m -2.9,1 c -16.1,27 -39.4,38 -80.9,36 l 38,-11.9 c -11.8,-0.3 -30.8,5.2 -44.9,8.9 30.2,-27 58.6,-31 87.8,-33 z"
       id="path4459"
       style="fill:#251c20;fill-opacity:1;stroke:none" />
    <path
       d="m 388.4,492.6 c -28.2,8 -56.6,12 -93.6,-5 l 5.7,-5 c 39.4,-13 64.7,-10 87.9,10 z"
       id="path4463"
       style="fill:#00a750;fill-opacity:1;stroke:none" />
    <path
       d="m 391.6,493.6 c -34.5,16 -95.1,14 -111.2,-10 52.2,-14 87,-27 111.2,10 z m -3.2,-1 c -23.2,-20 -48.5,-23 -87.8,-10 l 44.5,1.9 c -7.3,2 -24.8,5.1 -47.3,3.8 37,17 62.3,12.3 90.6,4.3 z"
       id="path4465"
       style="fill:#251c20;fill-opacity:1;stroke:none" />
    <path
       d="m 381.8,461.6 c -28.9,-5 -57.5,-7 -92.8,14 l 6.2,4 c 40.4,10 65.3,4 86.6,-18 z"
       id="path4445"
       style="fill:#00a750;fill-opacity:1;stroke:none" />
    <path
       d="m 384.9,460.6 c -35.9,-13 -84.6,2 -109.9,20 53.3,9 88.3,10 109.9,-20 z m -3.1,1 c -21.3,22 -46.2,28 -86.6,18 l 33.8,-6 -40,2 c 35.3,-21 63.9,-19 92.8,-14 z"
       id="path4447"
       style="fill:#251c20;fill-opacity:1;stroke:none" />
    <path
       d="m 197.6,433.6 c 29.2,2 57.6,6 87.9,33 l -7,3 c -41.5,2 -64.8,-9 -80.9,-36 z"
       id="path4560"
       style="fill:#00a750;fill-opacity:1;stroke:none" />
    <path
       d="m 194.8,432.6 c 37.7,-5 89.3,15 103.3,43 -54,-3 -93.4,-3 -103.3,-43 z m 2.8,1 c 16.1,27 39.4,38 80.9,36 l -37.2,-12.1 c 10.9,-0.4 26.9,3.8 44.2,9.1 -30.3,-27 -58.7,-31 -87.9,-33 z"
       id="path4562"
       style="fill:#251c20;fill-opacity:1;stroke:none" />
    <path
       d="m 186.2,492.6 c 28.2,8 56.6,12 93.6,-5 l -5.7,-5 c -39.4,-13 -64.7,-10 -87.9,10 z"
       id="path4566"
       style="fill:#00a750;fill-opacity:1;stroke:none" />
    <path
       d="m 183,493.6 c 34.5,16 95.1,14 111.2,-10 -52.2,-14 -87,-27 -111.2,10 z m 3.2,-1 c 23.2,-20 48.5,-23 87.8,-10 l -48.7,1.4 c 19.3,8.4 33.5,4.9 54.5,3.6 -37,17 -65.3,13 -93.6,5 z"
       id="path4568"
       style="fill:#251c20;fill-opacity:1;stroke:none" />
    <path
       d="m 192.8,461.6 c 28.9,-5 57.5,-7 92.8,14 l -6.2,4 c -40.4,10 -65.3,4 -86.6,-18 z"
       id="path4572"
       style="fill:#00a750;fill-opacity:1;stroke:none" />
    <path
       d="m 189.7,460.6 c 35.9,-13 84.6,2 109.9,20 -53.3,9 -88.3,10 -109.9,-20 z m 3.1,1 c 21.3,22 46.2,28 86.6,18 l -33.8,-6 40,2 c -35.3,-21 -63.9,-19 -92.8,-14 z"
       id="path4574"
       style="fill:#251c20;fill-opacity:1;stroke:none" />
    <path
       d="m 278.8,500.6 c 11.2,-12 19.5,-25 26.7,-40 0.1,-6 -3.7,-6 -7.6,-5 -7.6,13 -16.5,26 -27.5,37 -0.2,8 4,8 8.4,8 z"
       id="path3376"
       style="fill:#00a750;fill-opacity:1;stroke:#251c20;stroke-width:4;stroke-linecap:round;stroke-linejoin:round;stroke-miterlimit:4;stroke-opacity:1;stroke-dasharray:none;stroke-dashoffset:0" />
    <path
       d="m 299.7,497.6 c -10.9,-11 -17.7,-24 -24.7,-38 0.7,-5 4,-6 8,-5 7.9,12 14.1,25 25,37 -1.1,6 -3.8,8 -8.3,6 z"
       id="path3378"
       style="fill:#00a750;fill-opacity:1;stroke:#251c20;stroke-width:4;stroke-linecap:round;stroke-linejoin:round;stroke-miterlimit:4;stroke-opacity:1;stroke-dasharray:none;stroke-dashoffset:0" />
  </g>
  <g
     transform="matrix(0.5866,0,0,0.5866,-129.7,-43.17)"
     id="year"
     style="fill:#000000;fill-opacity:1;stroke:none">
    <path
       d="m 477.3,443.9 c 0,-0.5 -0.1,-1.8 0,-3.6 -0.1,-1.8 0,-4.2 0,-7.1 l 0,-6.3 c 0,-2.8 0,-5.4 0.2,-7.7 0.1,-2.3 0.1,-3.9 0.2,-4.6 l -0.1,0 c -0.6,0.6 -1.7,1.6 -3.4,3.2 -1.8,1.5 -3.4,3.1 -5.2,4.5 l 1.7,2.2 c 1.3,-1.2 2.2,-2.1 2.9,-2.8 l 0,10.6 c 0,2.8 -0.1,5.3 -0.1,7.4 -0.1,2.3 -0.1,3.7 -0.2,4.3 z"
       id="path4519" />
    <path
       d="m 490.1,445.5 c 2,-1.3 3.9,-3.1 5.7,-5.3 1.8,-2.3 3.2,-4.8 4.4,-7.5 1.2,-2.8 1.7,-5.6 1.7,-8.5 -0.1,-2.7 -1,-4.9 -2.6,-6.6 -1.7,-1.6 -3.8,-2.4 -6.5,-2.4 -2.6,0.1 -4.9,1.2 -6.8,3.1 -1.9,1.8 -2.8,4.2 -2.8,6.9 0.1,2.7 1.4,4.7 3.8,6.2 2.4,1.5 5.3,2.1 9,1.9 -1.2,2.3 -2.4,4.3 -4,6 -1.6,1.6 -3,2.8 -4.1,3.6 z m 7.8,-20.6 c 0,1.2 0,2.3 -0.2,3.3 -0.2,0.9 -0.4,1.7 -0.6,2.3 -2.6,0.4 -5,0 -6.8,-1 -2,-1.1 -3.1,-2.7 -3.2,-5.1 0,-1.6 0.5,-3.1 1.5,-4.3 1,-1.2 2.3,-1.8 4,-2 1.5,0 2.8,0.5 3.7,1.7 1,1.1 1.5,2.9 1.6,5.1 z"
       id="path4521" />
    <path
       d="m 518.1,413.7 c -1.9,1.4 -3.8,3.2 -5.7,5.4 -1.7,2.3 -3.3,4.8 -4.4,7.5 -1.2,2.8 -1.8,5.5 -1.8,8.2 0.1,1.7 0.3,3 0.8,4.2 0.4,1.2 1.2,2.1 2,3 0.8,0.7 1.8,1.3 2.7,1.6 1,0.3 2.2,0.5 3.4,0.5 2.5,-0.2 4.9,-1.2 6.8,-3.1 2,-1.8 3.1,-4.2 3.1,-7.2 -0.2,-2.7 -1.5,-4.7 -3.7,-6.2 -2.4,-1.5 -5.4,-2.2 -9.1,-2 1.1,-2.2 2.4,-4.1 4,-5.7 1.7,-1.6 3.1,-2.8 4.2,-3.4 z m -8.1,20.8 c 0,-1.3 0,-2.4 0.2,-3.3 0.2,-1 0.5,-1.9 0.8,-2.7 2.6,-0.3 4.9,0.1 6.8,1.2 2,1.1 3.1,2.7 3.2,5.1 0,1.6 -0.5,3 -1.5,4.2 -1,1.3 -2.5,2 -4.2,2 -1.5,0.1 -2.8,-0.5 -3.7,-1.6 -1,-1.2 -1.5,-2.8 -1.6,-4.9 z"
       id="path4523" />
    <path
       d="m 539.1,414.8 c -2.7,0 -4.8,1 -6.2,2.8 -1.8,2.3 -3.2,6 -3.2,11.2 0,5.2 1.3,9.4 2.9,11.4 1.6,2.1 3.8,3.1 6.5,3.1 2.6,0 4.7,-0.9 6.1,-2.8 1.8,-2.3 3.2,-6.5 3.2,-11.7 0,-5.2 -1.4,-8.9 -3.1,-11.1 -1.5,-1.9 -3.6,-2.9 -6.2,-2.9 z m -0.6,3.4 c 0.8,0 1.8,0.1 2.5,0.5 0.8,0.3 1.5,1.3 2.1,2.6 0.6,1.5 0.8,3.3 1.2,7 0.2,3.8 0,6.6 -0.4,8.2 -0.2,1.3 -0.7,2 -1.7,2.7 -0.5,0.5 -1.4,0.8 -2.2,0.9 -1.1,0 -2,-0.2 -2.7,-0.5 -0.9,-0.4 -1.6,-1.4 -2.2,-2.7 -0.5,-1.4 -0.9,-3.9 -1.3,-7.8 -0.2,-3.8 0.1,-5.8 0.6,-7.4 0.3,-1.2 0.8,-2.3 1.6,-2.7 0.5,-0.5 1.5,-0.7 2.5,-0.8 z"
       id="path3961" />
  </g>
  <g
     transform="matrix(0.5866,0,0,0.5866,-129.7,-43.17)"
     id="g3970"
     style="fill:none;stroke:#000000;stroke-width:3;stroke-linecap:round;stroke-linejoin:round;stroke-miterlimit:4;stroke-opacity:1;stroke-dasharray:none;display:inline">
    <path
       d="m 419,246.2 24.3,28.6"
       id="path3245" />
    <path
       d="M 419,263.7 443.3,286"
       id="path3247" />
    <path
       d="m 420.8,279.8 24.8,17.8"
       id="path3249" />
    <path
       d="m 424.1,293.3 c 5.6,4.7 15.5,12.6 21.7,11.4"
       id="path3251" />
    <path
       d="m 429,305.8 c 3.5,2.3 7.8,6.1 20.8,7.2"
       id="path3253" />
    <path
       d="m 431.9,317.5 22.9,1.2"
       id="path3255" />
    <path
       d="m 443.3,331.9 14.2,-7.8"
       id="path3257" />
    <path
       d="m 459.2,345.7 9.6,-10.9"
       id="path3261" />
    <path
       d="M 470.1,384.9 478,363.7"
       id="path3277" />
    <path
       d="m 482.8,390.4 4.8,-21.2"
       id="path3279" />
    <path
       d="M 497.5,393 498,368.5"
       id="path3281" />
    <path
       d="m 510.4,393 -0.8,-23.8"
       id="path3283" />
    <path
       d="m 523.9,389.4 -5.3,-23.5"
       id="path3285" />
    <path
       d="M 537.6,383 525.9,363.1"
       id="path3287" />
    <path
       d="m 422.4,228.9 c 8,11.8 17.3,23.2 20.9,36.3"
       id="path3243" />
    <path
       d="m 547.9,315.7 c -0.4,-4.1 0.7,-9.8 3.6,-14 4.8,-6.8 8.2,-13 3.6,-16.2 3.9,-5.5 4.8,-12.1 -0.9,-16.4"
       id="path3237" />
    <path
       d="m 451,338.7 10.4,-9.5"
       id="path3259" />
  </g>
  <g
     transform="matrix(0.5866,0,0,0.5866,-129.7,-43.17)"
     id="g3988"
     style="fill:#000000;fill-opacity:1;stroke:none">
    <path
       d="m 449,261.1 c 9.5,14.3 26.1,49.5 40.4,56.5 1.3,0.6 3.8,1.8 4.9,0.9 -1.9,-0.8 -3.1,-1.4 -4.4,-2.3 -11.9,-8.4 -33.4,-55 -40.9,-55.1 z"
       id="path3239" />
    <path
       d="m 585.1,216.2 -3.7,20.1 c 0,0 5.9,-18 6.5,-18.3 z"
       id="path3263" />
    <path
       d="m 493,351.6 c -2.6,0.3 -5.7,-0.1 -7.1,-1.8 -4.9,4 -10,3.3 -9.9,1.2 0,-0.7 0.6,-2.4 -0.6,-2.4 -1.5,0 -5.3,0.6 -4.6,-1.4 0.3,-1 2.6,-3.5 -1,-2.9 -1.4,0.2 -3.3,1.1 -4.7,1.6 -0.9,0.3 -0.5,1.7 -0.3,1.8 0.7,0.3 8.5,4 8.5,4.2 0.9,3.7 9.5,4.5 12.5,0.1 1.3,2 4.8,1.7 5.5,2.6 -1.7,12.5 11.9,6.1 17.3,-0.1 6.7,3.4 18.3,-1.9 15.4,-5.2 -1.1,-1.2 -3.5,10.4 -15.3,1.8 -1.4,2.9 -6.4,9.3 -12.6,9.6 -1.3,-0.2 -3,-1.1 -2.5,-3.6 0.8,-4.1 4.9,-14 4,-14.5 -0.6,-0.3 -3.3,6 -4.6,9 z"
       id="path4571" />
    <path
       d="m 590.5,226.4 -5.7,19.7 8.3,-17.5 z"
       id="path4674" />
    <path
       d="m 591.5,246.4 -8,16.2 9.8,-13 z"
       id="path4676" />
    <path
       d="m 589.7,263.9 -5.6,11 6.9,-8 z"
       id="path4678" />
    <path
       d="m 483.9,333.2 c -5.6,3.6 -12,4.3 -16.7,2.3 -2.3,-2.4 -4.8,-4.2 -8.6,-3.7 -1,-2.5 -2.3,-4 -4.4,-5.4 3.1,-3.1 -1.6,-6.2 -3.3,-6.8 0.5,-3.2 0.2,-5.1 -5.9,-7.5 0.3,-3 -0.6,-6 -1.7,-9 3.7,-2 1.4,-5.7 -3.6,-9 1.8,-2.6 5.4,-3 -0.8,-13.5 l 0.3,-9.3 c 6.3,-1.8 -0.2,-10.8 -1.3,-17.6 12.4,15.3 10.5,27.9 6.8,31.1 2.7,2.4 4.5,9.8 2.8,13.1 2,4.1 3.8,8.7 3.3,13.8 4.5,2.2 7.4,5.7 5.3,8.1 3.3,2.4 5.8,5 6.2,8.2 6.1,-0.8 10.7,1.6 8.4,5 3.8,1.3 8.8,-0.5 13.2,0.2 z"
       id="path3189" />
  </g>
</svg>
