<?xml version="1.0" encoding="UTF-8" standalone="no"?>
<!-- Generator: Adobe Illustrator 18.0.0, SVG Export Plug-In . SVG Version: 6.00 Build 0)  -->

<svg
   xmlns:dc="http://purl.org/dc/elements/1.1/"
   xmlns:cc="http://creativecommons.org/ns#"
   xmlns:rdf="http://www.w3.org/1999/02/22-rdf-syntax-ns#"
   xmlns:svg="http://www.w3.org/2000/svg"
   xmlns="http://www.w3.org/2000/svg"
   xmlns:xlink="http://www.w3.org/1999/xlink"
   xmlns:sodipodi="http://sodipodi.sourceforge.net/DTD/sodipodi-0.dtd"
   xmlns:inkscape="http://www.inkscape.org/namespaces/inkscape"
   version="1.1"
   id="Layer_1"
   x="0px"
   y="0px"
   width="538px"
   height="528.3px"
   viewBox="0 0 538 528.3"
   enable-background="new 0 0 538 528.3"
   xml:space="preserve"
   sodipodi:docname="Coat_of_arms_of_Greece.svg"
   inkscape:version="0.92.2 (5c3e80d, 2017-08-06)"><metadata
     id="metadata281"><rdf:RDF><cc:Work
         rdf:about=""><dc:format>image/svg+xml</dc:format><dc:type
           rdf:resource="http://purl.org/dc/dcmitype/StillImage" /></cc:Work></rdf:RDF></metadata><defs
     id="defs279" /><sodipodi:namedview
     pagecolor="#ffffff"
     bordercolor="#666666"
     borderopacity="1"
     objecttolerance="10"
     gridtolerance="10"
     guidetolerance="10"
     inkscape:pageopacity="0"
     inkscape:pageshadow="2"
     inkscape:window-width="1280"
     inkscape:window-height="737"
     id="namedview277"
     showgrid="false"
     inkscape:zoom="2.5270067"
     inkscape:cx="236.05895"
     inkscape:cy="471.14695"
     inkscape:window-x="-8"
     inkscape:window-y="-8"
     inkscape:window-maximized="1"
     inkscape:current-layer="g274" /><g
     id="g274"><path
       fill="#2C5AA0"
       d="M125.7,380V115.1l4.1-2L408.2,380c0,23.9-134.2,6.9-135.4,27.1l-1.6,27.7l-3.5,1.6   c-8.1-12.7-27-19.7-37.9-21.1c-9.6-1.3-43.2-5.7-70.2-5.7C139.3,409.6,125.7,404,125.7,380L125.7,380z"
       id="path2" /><path
       fill="none"
       stroke="#2C5AA0"
       stroke-width="2.9108"
       stroke-linecap="round"
       stroke-linejoin="round"
       d="M125.7,380V115.1   l4.1-2L408.2,380c0,23.9-134.2,6.9-135.4,27.1l-1.6,27.7l-3.5,1.6c-8.1-12.7-27-19.7-37.9-21.1c-9.6-1.3-43.2-5.7-70.2-5.7   C139.3,409.6,125.7,404,125.7,380L125.7,380z"
       id="path4" /><path
       fill="#FFFFFF"
       d="M348.2,56.3c-19.2,8.6-57.1,3.6-57.1,3.6L266.8,60c0,0,24.4-36.5,63.7-40.2L348.2,56.3z"
       id="path6" /><path
       fill="none"
       stroke="#2C5AA0"
       stroke-width="2.2725"
       stroke-linejoin="round"
       d="M348.2,56.3c-19.2,8.6-57.1,3.6-57.1,3.6   L266.8,60c0,0,24.4-36.5,63.7-40.2L348.2,56.3z"
       id="path8" /><path
       fill-rule="evenodd"
       clip-rule="evenodd"
       fill="#2C5AA0"
       d="M275.7,56.5c7.6-9.4,30.4-11.9,36.4-13.4c-0.7-1.6-2.8-2-7-3.9   c3.9-0.4,8.5,2.2,9.7,3c4.1-1.1,8.4-2.3,12.6-3.4c-1.7-2.9-4.6-4-7.1-5.1c2.6-0.7,9.5,3.4,9.8,4.4c5-1.2,10.4-2.3,15.4-3.4   c-2.1-3.1-8.8-7.1-14.5-8.9c8.1,1.1,14.2,5.9,17.4,8.2c4.5-1,11.9-1,16.4-1.9c-1.7-2.9-8.2-3.5-11.5-5.4c2.8,0.5,12.1,1,14.4,4.4   c-10.5,5.3-19.6,3.8,0.5,1.9c0.6,1.1-9.8,12.3-16.4,14.8c5-4.4,14.9-10.5,13.6-13.9c-5.7,1.1-14.1,1.3-19.8,2.7   c0.2,2.9-5.9,14.7-13.6,17.4c5.9-4.5,11-13.6,10.5-16.6c-5.9,1.4-11.9,2.8-17.7,4.3c0.1,4.1-4.4,9-9.8,12c4.8-4,8.9-6.7,6.2-11.1   c-3.2,0.8-7.3,1.6-10.5,2.5c-0.9,3.3-4.5,6.3-10.5,9.5c4.2-2.2,7.4-6.3,7.3-8.6c-3.2,0.8-22.1,1-30.5,9.4L275.7,56.5z"
       id="path10" /><path
       fill="none"
       stroke="#2C5AA0"
       stroke-width="1.1275"
       d="M275.7,56.5c7.6-9.4,30.4-11.9,36.4-13.4c-0.7-1.6-2.8-2-7-3.9   c3.9-0.4,8.5,2.2,9.7,3c4.1-1.1,8.4-2.3,12.6-3.4c-1.7-2.9-4.6-4-7.1-5.1c2.6-0.7,9.5,3.4,9.8,4.4c5-1.2,10.4-2.3,15.4-3.4   c-2.1-3.1-8.8-7.1-14.5-8.9c8.1,1.1,14.2,5.9,17.4,8.2c4.5-1,11.9-1,16.4-1.9c-1.7-2.9-8.2-3.5-11.5-5.4c2.8,0.5,12.1,1,14.4,4.4   c-10.5,5.3-19.6,3.8,0.5,1.9c0.6,1.1-9.8,12.3-16.4,14.8c5-4.4,14.9-10.5,13.6-13.9c-5.7,1.1-14.1,1.3-19.8,2.6   c0.2,2.9-5.9,14.7-13.6,17.4c5.9-4.5,11-13.6,10.5-16.6c-5.9,1.4-11.9,2.8-17.7,4.3c0.1,4.1-4.4,9-9.8,12c4.8-4,8.9-6.7,6.2-11.1   c-3.2,0.8-7.3,1.6-10.5,2.5c-0.9,3.3-4.5,6.3-10.5,9.5c4.2-2.2,7.4-6.3,7.3-8.6c-3.2,0.8-22.1,1-30.5,9.4L275.7,56.5z"
       id="path12" /><path
       fill="#FFFFFF"
       d="M99.2,71.7c0,0,24.4-1.8,43-12c23.1-12.8,14.4-20,38-38.9c16.4-13.1,53.4-13.1,53.4-13.1L257,1.5   c0,0-14.5,41.4-51.6,54.8c-29.2,10.6-49.6,1.4-86.2,21.9C119.2,78.2,105,85.1,99.2,71.7L99.2,71.7z"
       id="path14" /><g
       id="g24"><defs
         id="defs17"><rect
           id="SVGID_1_"
           x="0"
           y="0"
           width="538"
           height="528.3" /></defs><clipPath
         id="SVGID_2_"><use
           xlink:href="#SVGID_1_"
           overflow="visible"
           id="use19" /></clipPath><path
         clip-path="url(#SVGID_2_)"
         fill="none"
         stroke="#2C5AA0"
         stroke-width="2.2723"
         stroke-linejoin="round"
         d="M99.2,71.7    c0,0,24.4-1.8,43-12c23.1-12.8,14.4-20,38-38.9c16.4-13.1,53.4-13.1,53.4-13.1L257,1.5c0,0-14.5,41.4-51.6,54.8    c-29.2,10.6-49.6,1.4-86.2,21.9C119.2,78.2,105,85.1,99.2,71.7L99.2,71.7z"
         id="path22" /></g><path
       d="m 249.4,7.1 c -5,11 -26.4,19.1 -31.9,22.1 1.1,1.4 3.2,1.3 7.7,2 -3.7,1.3 -8.8,0 -10.1,-0.5 -3.7,2.1 -7.5,4.3 -11.3,6.4 2.3,2.4 5.4,2.7 8.2,3.2 -2.3,1.3 -10,-1 -10.6,-1.8 -4.5,2.5 -9.5,4.8 -14.1,7.2 2.8,2.5 10.3,4.7 16.3,5 -8.1,1 -15.2,-2.2 -18.9,-3.6 -4.1,2.1 -11.3,4 -15.4,5.9 2.3,2.4 8.8,1.3 12.5,2.4 -2.8,0.2 -12,2.1 -15,-0.7 -4.9,2.3 -14.4,5.1 -19.2,7.1 -2.1,1 0,0 -2.1,1 -8.4,3.5 -32.1,8 -38.8,16.4 0.1,-1.1 -1.4,-2.3 -1.5,-3.6 9.4,-8 32,-11.3 39.3,-14.5 2.3,-0.8 0,0 2.3,-0.8 4.8,-2.1 14.3,-4.9 19.1,-7.2 -0.9,-0.9 6.4,-14.4 12.2,-18.4 -3.8,5.5 -11.8,13.9 -9.7,16.9 5.2,-2.5 13.3,-4.8 18.5,-7.5 -1,-2.8 2,-15.8 8.8,-20.3 -4.6,5.9 -7.2,15.9 -6,18.7 5.3,-2.8 10.8,-5.7 16.1,-8.6 -1.1,-3.9 2,-9.8 6.5,-14.1 -3.7,5.1 -6.9,8.7 -3.3,12.3 2.8,-1.6 6.7,-3.4 9.5,-5 0.1,-3.4 2.8,-7.2 7.8,-11.8 -3.5,3.1 -5.5,7.9 -4.9,10.1 2.9,-1.6 21.1,-6.5 27.2,-16.7 z"
       id="path26"
       inkscape:connector-curvature="0"
       style="clip-rule:evenodd;fill:#2c5aa0;fill-rule:evenodd"
       sodipodi:nodetypes="ccccccccccccccccccccccccccccccccc" /><path
       d="m 249.4,7.1 c -5,11 -26.4,19.1 -31.9,22.1 1.1,1.4 3.2,1.3 7.7,2 -3.7,1.3 -8.8,0 -10.1,-0.5 -3.7,2.1 -7.5,4.3 -11.3,6.4 2.3,2.4 5.4,2.7 8.2,3.2 -2.3,1.3 -10,-1 -10.6,-1.8 -4.5,2.5 -9.5,4.8 -14.1,7.2 2.8,2.5 10.3,4.7 16.3,5 -8.1,1 -15.2,-2.2 -18.9,-3.6 -4.1,2.1 -11.3,4 -15.4,5.9 2.3,2.4 8.8,1.3 12.5,2.4 -2.8,0.2 -12,2.1 -15,-0.7 -4.9,2.3 -14.4,5.1 -19.2,7.1 -3.3,-0.1 -5.3,2.1 -2.1,1 -8.4,3.5 -32.1,8 -38.8,16.4 0.1,-1.1 -1.4,-2.3 -1.5,-3.6 9.4,-8 32,-11.3 39.3,-14.5 -2.45786,-8.351299 -0.9,-8.5 2.3,-0.8 4.8,-2.1 14.3,-4.9 19.1,-7.2 -0.9,-0.9 6.4,-14.4 12.2,-18.4 -3.8,5.5 -11.8,13.9 -9.7,16.9 5.2,-2.5 13.3,-4.8 18.5,-7.5 -1,-2.8 2,-15.8 8.8,-20.3 -4.6,5.9 -7.2,15.9 -6,18.6 5.3,-2.8 10.8,-5.7 16.1,-8.6 -1.1,-3.9 2,-9.8 6.5,-14.1 -3.7,5.1 -6.9,8.7 -3.3,12.3 2.8,-1.6 6.7,-3.4 9.5,-5 0.1,-3.4 2.8,-7.2 7.8,-11.8 -3.5,3.1 -5.5,7.9 -4.9,10.1 2.9,-1.6 21.1,-6.5 27.2,-16.7 z"
       id="path28"
       inkscape:connector-curvature="0"
       style="fill:none;stroke:#2c5aa0;stroke-width:1.12750006"
       sodipodi:nodetypes="ccccccccccccccccccccccccccccccccc" /><path
       fill="#FFFFFF"
       d="M47.6,221.6c0,0,3.8-28.5,17.1-49.4c16.6-26.1,18.9-20.7,42.7-46.9C123.9,107,132,69,132,69l2.6-26.1   c0,0-43.2,13.1-61.5,55.5c-14.4,33.4-5.1,57.9-31.6,99.3C41.5,197.8,32.4,213.8,47.6,221.6L47.6,221.6z"
       id="path30" /><path
       fill="none"
       stroke="#2C5AA0"
       stroke-width="2.6619"
       stroke-linejoin="round"
       d="M47.6,221.6c0,0,3.8-28.5,17.1-49.4   c16.6-26.1,18.9-20.7,42.7-46.9C123.9,107,132,69,132,69l2.6-26.1c0,0-43.2,13.1-61.5,55.5c-14.4,33.4-5.1,57.9-31.6,99.3   C41.5,197.8,32.4,213.8,47.6,221.6L47.6,221.6z"
       id="path32" /><path
       fill-rule="evenodd"
       clip-rule="evenodd"
       fill="#2C5AA0"
       d="M127.5,52.2c-6.9,7.8-16.1,25-19.6,30.1c-1.2-1.3-0.9-3.3-1.2-7.9   c-1.7,3.5-0.9,8.8-0.5,10.1c-2.4,3.5-5.1,7-7.5,10.6c-2.2-2.6-2.1-5.7-2.3-8.4c-1.6,2.2,0,10.1,0.8,10.8c-2.9,4.3-5.7,8.9-8.6,13.3   c-2.2-3-3.7-10.7-3.4-16.7c-1.8,8,0.6,15.4,1.7,19.2c-2.5,3.9-5.1,10.9-7.5,14.8c-2.1-2.6-4.2-13.4-4.8-17.2   c-0.5,2.8,0.4,16.3,2.9,19.6c-2.8,4.7-6.5,13.9-9,18.4c-0.9-2,0.6-7-0.1-10.5c-0.8,3.4-2.5,9.6-1,12.5c-4.3,8-11.2,31.2-20.2,37   c1.1,0,2.2,1.7,3.5,1.9c8.9-8.5,14.5-30.7,18.3-37.7c0.8,2.2,7.3-1.5,11.1-6.4c-5.6,2.6-8.1,6.5-10.1,4.2   c2.6-4.5,6.3-13.7,9.1-18.3c0.8,1,9.7-2.1,14.3-7.4c-5.8,3.2-9.8,7.4-12.5,5.1c3-4.9,6.1-12.7,9.3-17.7c2.7,1.2,15.9-0.4,21-6.8   c-6.3,4-16.6,5.6-19.2,4.1c3.3-5,6.7-10.2,10.2-15.1c3.8,1.5,10-1,14.7-5.1c-5.4,3.2-9.3,6-12.5,2c1.9-2.7,4-6.3,5.9-9   c3.4,0.3,7.5-2,12.5-6.6c-3.5,3.2-8.5,4.7-10.6,3.8c1.9-2.7,3.3-9.1,13.4-22.2L127.5,52.2z"
       id="path34" /><path
       fill="none"
       stroke="#2C5AA0"
       stroke-width="1.1275"
       d="M127.5,52.2c-6.9,7.8-16.1,25-19.6,30.1c-1.2-1.3-0.9-3.3-1.2-7.9   c-1.7,3.5-0.9,8.8-0.5,10.1c-2.4,3.5-5.1,7-7.5,10.6c-2.2-2.6-2.1-5.7-2.3-8.4c-1.6,2.2,0,10.1,0.8,10.8c-2.9,4.3-5.7,8.9-8.6,13.3   c-2.2-3-3.7-10.7-3.4-16.7c-1.8,8,0.6,15.4,1.7,19.2c-2.5,3.9-5.1,10.9-7.5,14.8c-2.1-2.6-4.2-13.4-4.8-17.2   c-0.5,2.8,0.4,16.3,2.9,19.6c-2.8,4.7-6.5,13.9-9,18.4c-0.9-2,0.6-7-0.1-10.5c-0.8,3.4-2.5,9.6-1,12.5c-4.3,8-11.2,31.2-20.2,37   c1.1,0,2.2,1.7,3.5,1.9c8.9-8.5,14.5-30.7,18.3-37.7c0.8,2.2,7.3-1.5,11.1-6.4c-5.6,2.6-8.1,6.5-10.1,4.2   c2.6-4.5,6.3-13.7,9.1-18.3c0.8,1,9.7-2.1,14.3-7.4c-5.8,3.2-9.8,7.4-12.5,5.1c3-4.9,6.1-12.7,9.3-17.7c2.7,1.2,15.9-0.4,21-6.8   c-6.3,4-16.6,5.6-19.2,4.1c3.3-5,6.7-10.2,10.2-15.1c3.8,1.5,10-1,14.7-5.1c-5.4,3.2-9.3,6-12.5,2c1.9-2.7,4-6.3,5.9-9   c3.4,0.3,7.5-2,12.5-6.6c-3.5,3.2-8.5,4.7-10.6,3.8c1.9-2.7,3.3-9.1,13.4-22.2L127.5,52.2z"
       id="path36" /><path
       fill="#FFFFFF"
       d="M48,337.4c0,0-12.3-26.9-12.2-52.4c0.2-31.9,17.2-34.1,23.5-70c4.4-24.9-12.9-62.1-12.9-62.1l-5.7-24.4   c0,0-37.6,58.9-30.3,105.8c5.8,37,19.5,35,19.1,85.6C29.6,320,30.5,339,48,337.4L48,337.4z"
       id="path38" /><g
       id="g48"><defs
         id="defs41"><rect
           id="SVGID_3_"
           x="0"
           y="0"
           width="538"
           height="528.3" /></defs><clipPath
         id="SVGID_4_"><use
           xlink:href="#SVGID_3_"
           overflow="visible"
           id="use43" /></clipPath><path
         clip-path="url(#SVGID_4_)"
         fill="none"
         stroke="#2C5AA0"
         stroke-width="2.739"
         stroke-linejoin="round"
         d="M48,337.4    c0,0-12.3-26.9-12.2-52.4c0.2-31.9,17.2-34.1,23.5-70c4.4-24.9-12.9-62.1-12.9-62.1l-5.7-24.4c0,0-37.6,58.9-30.3,105.8    c5.8,37,19.5,35,19.1,85.6C29.6,320,30.5,339,48,337.4L48,337.4z"
         id="path46" /></g><path
       fill-rule="evenodd"
       clip-rule="evenodd"
       fill="#2C5AA0"
       d="M38.4,141.2c1.3,10.3-0.8,29.7-0.8,35.9c1.7-0.3,2.6-2.2,5.4-5.8   c-0.6,3.8-4.2,7.7-5.3,8.6c0,4.3,0.2,8.7,0.2,13c3.2-0.9,5-3.5,6.7-5.6c0.1,2.7-5.7,8.4-6.7,8.4c0,5.2-0.3,10.6-0.4,15.8   c3.5-1.3,9-6.8,12.2-11.9c-3,7.6-9.2,12.4-12.2,14.9c-0.1,4.6,0.7,12.7,0.5,17.3c3.2-0.9,10.6-10.9,13.3-13.6   c-1.1,2.6-9.2,15.3-13.1,16.6c-0.3,5.4-2.4,15.1-2.9,20.3c1.9-1.2,10.8-10.8,13.3-13.2c-1.3,3.3-10.7,14-13.5,15.6   c-1,9.1-7.7,31.1-3.5,41c-0.9-0.6-2.7,0.2-3.9-0.4c-2.6-12.1,4.7-32.6,5.5-40.5c-1.9,1.3-11.1-8.1-11.5-14.2   c3.2,5.3,9,12.6,11.9,11.9c0.4-5.2,2.5-14.9,2.8-20.2c-1.2,0.3-14.1-9.4-14.9-16.4c3,5.9,11.1,13.8,14.7,13.4   c0.3-5.8-0.5-14.8-0.4-20.7c-2.9-0.5-12.9-9.3-13.6-17.4c2.9,6.9,10.5,13.9,13.5,14.2c0.1-6,0.2-12.2,0.1-18.2   c-4-0.9-7.7-6.4-9.3-12.5c2.7,5.7,4.3,10.2,9.2,8.8c0-3.3,0.2-7.5,0.2-10.7c-3-1.7-5-5.9-6.6-12.5c1.1,4.6,4.3,8.7,6.6,9.1   c0-3.3,2.4-9.4,1.4-25.9L38.4,141.2z"
       id="path50" /><path
       fill="none"
       stroke="#2C5AA0"
       stroke-width="1.1275"
       d="M38.4,141.2c1.3,10.3-0.8,29.7-0.8,35.9c1.7-0.3,2.6-2.2,5.4-5.8   c-0.6,3.8-4.2,7.7-5.3,8.6c0,4.3,0.2,8.7,0.2,13c3.2-0.9,5-3.5,6.7-5.6c0.1,2.7-5.7,8.4-6.7,8.4c0,5.2-0.3,10.6-0.4,15.8   c3.5-1.3,9-6.8,12.2-11.9c-3,7.6-9.2,12.4-12.2,14.9c-0.1,4.6,0.7,12.7,0.5,17.3c3.2-0.9,10.6-10.9,13.3-13.6   c-1.1,2.6-9.2,15.3-13.1,16.6c-0.3,5.4-2.4,15.1-2.9,20.3c1.9-1.2,10.8-10.8,13.3-13.2c-1.3,3.3-10.7,14-13.5,15.6   c-1,9.1-7.7,31.1-3.5,41c-0.9-0.6-2.7,0.2-3.9-0.4c-2.6-12.1,4.7-32.6,5.5-40.5c-1.9,1.3-11.1-8.1-11.5-14.2   c3.2,5.3,9,12.6,11.9,11.9c0.4-5.2,2.5-14.9,2.8-20.2c-1.2,0.3-14.1-9.4-14.9-16.4c3,5.9,11.1,13.8,14.7,13.4   c0.3-5.8-0.5-14.8-0.4-20.7c-2.9-0.5-12.9-9.3-13.6-17.4c2.9,6.9,10.5,13.9,13.5,14.2c0.1-6,0.2-12.2,0.1-18.2   c-4-0.9-7.7-6.4-9.3-12.5c2.7,5.7,4.3,10.2,9.2,8.8c0-3.3,0.2-7.5,0.2-10.7c-3-1.7-5-5.9-6.6-12.5c1.1,4.6,4.3,8.7,6.6,9.1   c0-3.3,2.4-9.4,1.4-25.9L38.4,141.2z"
       id="path52" /><path
       fill="#FFFFFF"
       d="M17.3,338.1c15.6-27.8-2.2-46.7,15.7-78.4c13-23.1,46.4-59.3,46.4-59.3l4.1,6.1l6.9-6.9   c0,0,3.5,69.7-26,107c-23.3,29.3-19.3-6-44,38.2L17.3,338.1z"
       id="path54" /><path
       fill="none"
       stroke="#2C5AA0"
       stroke-width="2.739"
       stroke-linejoin="round"
       d="M17.3,338.1c15.6-27.8-2.2-46.7,15.7-78.4   c13-23.1,46.4-59.3,46.4-59.3l4.1,6.1l6.9-6.9c0,0,3.5,69.7-26,107c-23.3,29.3-19.3-6-44,38.2L17.3,338.1z"
       id="path56" /><path
       fill-rule="evenodd"
       clip-rule="evenodd"
       fill="#2C5AA0"
       d="M81.6,214.2c-2.9,10-5.5,18.9-7.9,24.6c1.7,0.4,3.3-1,7.3-3.2   c-2,3.3-6.9,5.4-8.2,5.8c-1.6,3.9-3.2,8-5,12c3.3,0.4,5.9-1.2,8.4-2.5c-1,2.5-8.5,5.4-9.5,5.1c-2.1,4.7-4.5,9.6-6.6,14.3   c3.7,0.2,11-2.6,15.9-6.1c-5.8,5.8-13.3,7.7-17.1,8.9c-1.9,4.2-4.4,11.9-6.4,16c3.3,0.4,14-5.8,17.6-7.2   c-2,1.9-14.5,10.5-18.6,10.1c-2.4,4.9-8.2,12.9-10.7,17.5c2.2-0.4,14.2-5.6,17.5-6.9c-2.5,2.5-15.3,8.7-18.5,9   c-4.5,7.9-19.4,25.5-19.4,36.3c-0.6-0.9-2.6-0.9-3.4-1.9c2.4-12.1,17.2-28.1,21-35.1c-2.3,0.5-7.1-11.8-5-17.6   c0.8,6.1,3.3,15.1,6.2,15.6c2.5-4.6,8.2-12.7,10.5-17.5c-1.3-0.2-9.2-14.2-7.2-20.9c0.4,6.6,4.7,17.1,8.2,18.2   c2.5-5.2,5.4-13.8,7.8-19.2c-2.5-1.6-8.1-13.6-5.6-21.4c0,7.5,4.2,17,6.8,18.4c2.5-5.5,5-11.1,7.3-16.7c-3.3-2.4-4.5-8.9-3.6-15.1   c0.2,6.3-0.1,11.1,5,11.7c1.2-3,3.2-6.8,4.4-9.8c-2.1-2.8-2.3-7.4-1.2-14.1c-0.8,4.6,0.6,9.7,2.4,11   C75.4,230.3,75.9,229.7,81.6,214.2L81.6,214.2z"
       id="path58" /><path
       fill="none"
       stroke="#2C5AA0"
       stroke-width="1.1275"
       d="M81.6,214.2c-2.9,10-5.5,18.9-7.9,24.6c1.7,0.4,3.3-1,7.3-3.2   c-2,3.3-6.9,5.4-8.2,5.8c-1.6,3.9-3.2,8-5,12c3.3,0.4,5.9-1.2,8.4-2.5c-1,2.5-8.5,5.4-9.5,5.1c-2.1,4.7-4.5,9.6-6.6,14.3   c3.7,0.2,11-2.6,15.9-6.1c-5.8,5.8-13.3,7.7-17.1,8.9c-1.9,4.2-4.4,11.9-6.4,16c3.3,0.4,14-5.8,17.6-7.2   c-2,1.9-14.5,10.5-18.6,10.1c-2.4,4.9-8.2,12.9-10.7,17.5c2.2-0.4,14.2-5.6,17.5-6.9c-2.5,2.5-15.3,8.7-18.5,9   c-4.5,7.9-19.4,25.5-19.4,36.3c-0.6-0.9-2.6-0.9-3.4-1.9c2.4-12.1,17.2-28.1,21-35.1c-2.3,0.5-7.1-11.8-5-17.6   c0.8,6.1,3.3,15.1,6.2,15.6c2.5-4.6,8.2-12.7,10.5-17.5c-1.3-0.2-9.2-14.2-7.2-20.9c0.4,6.6,4.7,17.1,8.2,18.2   c2.5-5.2,5.4-13.8,7.8-19.2c-2.5-1.6-8.1-13.6-5.6-21.4c0,7.5,4.2,17,6.8,18.4c2.5-5.5,5-11.1,7.3-16.7c-3.3-2.4-4.5-8.9-3.6-15.1   c0.2,6.3-0.1,11.1,5,11.7c1.2-3,3.2-6.8,4.4-9.8c-2.1-2.8-2.3-7.4-1.2-14.1c-0.8,4.6,0.6,9.7,2.4,11   C75.4,230.3,75.9,229.7,81.6,214.2L81.6,214.2z"
       id="path60" /><path
       fill="#FFFFFF"
       d="M111.5,445.7c0,0-24-17.2-36.5-39.5c-6.8-12.1-7.2-22.5-7.1-33c0.2-9.1,0.8-18.2-1.8-28.6   c-1.3-5.2-3.4-10.8-6.8-16.8c-4.4-7.8-11.1-17.1-18.1-26c-7-8.9-14.2-17.4-19.6-23.6c-5.2-5.9-8.7-9.7-8.7-9.7l-4.1,6.1l-6.9-6.8   c0,0-0.4,8.1,0.2,20.3c0.5,9.4,1.6,21.2,4,33.6c1.9,10,4.7,20.3,8.7,30c3.4,8.4,7.7,16.3,13.2,23.1c6.5,8.2,12,13.4,17.2,17.7   c13.3,11,24,15.4,41.8,47.3C86.9,439.7,97,455.7,111.5,445.7L111.5,445.7z"
       id="path62" /><g
       id="g72"><defs
         id="defs65"><rect
           id="SVGID_5_"
           x="0"
           y="0"
           width="538"
           height="528.3" /></defs><clipPath
         id="SVGID_6_"><use
           xlink:href="#SVGID_5_"
           overflow="visible"
           id="use67" /></clipPath><path
         clip-path="url(#SVGID_6_)"
         fill="none"
         stroke="#2C5AA0"
         stroke-width="2.739"
         stroke-linejoin="round"
         d="M111.5,445.7    c0,0-24-17.3-36.5-39.5c-6.8-12.1-7.2-22.5-7.1-33c0.2-9.1,0.8-18.2-1.8-28.6c-1.3-5.2-3.4-10.8-6.8-16.8    c-4.4-7.8-11.1-17.1-18.1-26c-7-8.9-14.2-17.4-19.6-23.6c-5.2-5.9-8.7-9.7-8.7-9.7l-4.1,6.1l-6.9-6.8c0,0-0.4,8.1,0.2,20.3    c0.5,9.4,1.6,21.2,4,33.6c1.9,10,4.7,20.3,8.7,30c3.4,8.4,7.7,16.3,13.2,23.1c6.5,8.2,12,13.4,17.2,17.7    c13.3,11,24,15.4,41.8,47.3C86.9,439.6,97,455.7,111.5,445.7L111.5,445.7z"
         id="path70" /></g><path
       fill-rule="evenodd"
       clip-rule="evenodd"
       fill="#2C5AA0"
       d="M9.8,278.5c2.9,10,5.5,18.9,7.9,24.6c-1.7,0.4-3.3-1-7.3-3.2   c2,3.3,6.9,5.4,8.2,5.8c1.6,3.9,3.2,8,5,12c-3.3,0.4-5.9-1.2-8.4-2.5c1,2.5,8.5,5.4,9.5,5.1c2.1,4.7,4.5,9.6,6.6,14.3   c-3.7,0.2-11-2.6-15.9-6.1c5.8,5.8,13.3,7.7,17.1,8.9c1.9,4.2,4.4,11.9,6.4,16c-3.3,0.4-14-5.8-17.6-7.2c2,1.9,14.5,10.5,18.6,10.1   c2.4,4.9,8.2,12.9,10.7,17.5c-2.2-0.4-14.2-5.6-17.5-6.9c2.5,2.5,15.3,8.7,18.5,9c4.5,7.9,19.4,25.5,19.4,36.3   c0.6-0.9,2.6-0.9,3.4-1.9c-2.4-12.1-17.2-28.1-21-35.1c2.3,0.5,7.1-11.8,5-17.6c-0.8,6.1-3.3,15.1-6.2,15.6   c-2.5-4.6-8.2-12.7-10.5-17.5c1.3-0.2,9.2-14.2,7.2-20.9c-0.4,6.6-4.7,17.1-8.2,18.2c-2.5-5.2-5.4-13.8-7.8-19.2   c2.5-1.6,8.1-13.6,5.6-21.4c0,7.5-4.2,17-6.8,18.4c-2.5-5.5-5-11.1-7.3-16.7c3.3-2.4,4.5-8.9,3.6-15.1c-0.2,6.3,0.1,11.1-5,11.7   c-1.2-3-3.2-6.8-4.4-9.8c2.1-2.8,2.3-7.4,1.2-14.1c0.8,4.6-0.5,9.7-2.4,11C16,294.6,15.5,294,9.8,278.5L9.8,278.5z"
       id="path74" /><path
       fill="none"
       stroke="#2C5AA0"
       stroke-width="1.1275"
       d="M9.8,278.5c2.9,10,5.5,18.9,7.9,24.6c-1.7,0.4-3.3-1-7.3-3.2   c2,3.3,6.9,5.4,8.2,5.8c1.6,3.9,3.2,8,5,12c-3.3,0.4-5.9-1.2-8.4-2.5c1,2.5,8.5,5.4,9.5,5.1c2.1,4.7,4.5,9.6,6.6,14.3   c-3.7,0.2-11-2.6-15.9-6.1c5.8,5.8,13.3,7.7,17.1,8.9c1.9,4.2,4.4,11.9,6.4,16c-3.3,0.4-14-5.8-17.6-7.2c2,1.9,14.5,10.5,18.6,10.1   c2.4,4.9,8.2,12.9,10.7,17.5c-2.2-0.4-14.2-5.6-17.5-6.9c2.5,2.5,15.3,8.7,18.5,9c4.5,7.9,19.4,25.5,19.4,36.3   c0.6-0.9,2.6-0.9,3.4-1.9c-2.4-12.1-17.2-28.1-21-35.1c2.3,0.5,7.1-11.8,5-17.6c-0.8,6.1-3.3,15.1-6.2,15.6   c-2.5-4.6-8.2-12.7-10.5-17.5c1.3-0.2,9.2-14.2,7.2-20.9c-0.4,6.6-4.7,17.1-8.2,18.2c-2.5-5.2-5.4-13.8-7.8-19.2   c2.5-1.6,8.1-13.6,5.6-21.4c0,7.5-4.2,17-6.8,18.4c-2.5-5.5-5-11.1-7.3-16.7c3.3-2.4,4.5-8.9,3.6-15.1c-0.2,6.3,0.1,11.1-5,11.7   c-1.2-3-3.2-6.8-4.4-9.8c2.1-2.8,2.3-7.4,1.2-14.1c0.8,4.6-0.5,9.7-2.4,11C16,294.6,15.5,294,9.8,278.5L9.8,278.5z"
       id="path76" /><path
       fill="#FFFFFF"
       d="M117.5,457.8c-10-30.2,7.7-23.3-3.8-57.9c-8.4-25.2-24.7-65.3-24.7-65.3l-6.9,2.1L79,328   c0,0-26.5,50.1-1,110.7c10,23.7,14.5-28.3,30.3,19.8C158.6,499.6,122.7,470.1,117.5,457.8L117.5,457.8z"
       id="path78" /><path
       fill="none"
       stroke="#2C5AA0"
       stroke-width="2.739"
       stroke-linejoin="round"
       d="M117.5,457.8c-10-30.2,7.7-23.3-3.8-57.9   c-8.4-25.2-24.7-65.3-24.7-65.3l-6.9,2.1L79,328c0,0-26.5,50.1-1,110.7c10,23.7,14.5-28.3,30.3,19.8   C158.6,499.6,122.7,470.1,117.5,457.8L117.5,457.8z"
       id="path80" /><path
       fill-rule="evenodd"
       clip-rule="evenodd"
       fill="#2C5AA0"
       d="M80.9,340c0.7,10.4,1.5,19.6,2.7,25.7c-1.8,0-3-1.6-6.5-4.7   c1.3,3.7,5.7,6.8,6.9,7.4c0.8,4.2,1.5,8.5,2.4,12.8c-3.4-0.3-5.5-2.4-7.7-4.2c0.5,2.6,7.2,7.1,8.2,7c1,5.1,2.4,10.3,3.5,15.4   c-3.7-0.6-7.1-3.5-11.2-7.9c4.5,6.9,8.4,9,11.9,10.9c1,4.5,4.1,11.1,5.2,15.5c-3.3-0.3-9.2-2.7-12.4-4.8c1.6,2.3,8.7,7.3,12.7,7.8   c15.4,51.8,27.2,62.4,1.9-0.3c1.3,0.1,10.7-4,10-11c-1.8,6.4-6.9,7.8-10.5,8.1c-1.4-5.6-4.7-13.2-5.9-18.9c2.7-1,8.8-3.8,7.9-11.9   c-1.5,7.3-5.6,7.8-8.5,8.7c-1.3-5.9-2.6-11.9-3.7-17.8c3.7-1.7,7.3-1.7,6.2-8.3c-1.5,6.1-1.8,5.1-6.9,4.6   c-0.6-3.2-1.7-7.3-2.3-10.5c2.6-2.3,4.2-1.6,4.5-8.4c-0.1,4.7-3,4.2-5.1,5.1C83.6,357,83.2,356.3,80.9,340L80.9,340z"
       id="path82" /><path
       fill="none"
       stroke="#2C5AA0"
       stroke-width="1.1275"
       d="M80.9,340c0.7,10.4,1.5,19.6,2.7,25.7c-1.8,0-3-1.6-6.5-4.7   c1.3,3.7,5.7,6.8,6.9,7.4c0.8,4.2,1.5,8.5,2.4,12.8c-3.4-0.3-5.5-2.4-7.7-4.2c0.5,2.6,7.2,7.1,8.2,7c1,5.1,2.4,10.3,3.5,15.4   c-3.7-0.6-7.1-3.5-11.2-7.9c4.5,6.9,8.4,9,11.9,10.9c1,4.5,4.1,11.1,5.2,15.5c-3.3-0.3-9.2-2.7-12.4-4.8c1.6,2.3,8.7,7.3,12.7,7.8   c15.4,51.8,27.2,62.4,1.9-0.3c1.3,0.1,10.7-4,10-11c-1.8,6.4-6.9,7.8-10.5,8.1c-1.4-5.6-4.7-13.2-5.9-18.9c2.7-1,8.8-3.8,7.9-11.9   c-1.5,7.3-5.6,7.8-8.5,8.7c-1.3-5.9-2.6-11.9-3.7-17.8c3.7-1.7,7.3-1.7,6.2-8.3c-1.5,6.1-1.8,5.1-6.9,4.6   c-0.6-3.2-1.7-7.3-2.3-10.5c2.6-2.3,4.2-1.6,4.5-8.4c-0.1,4.7-3,4.2-5.1,5.1C83.6,357,83.2,356.3,80.9,340L80.9,340z"
       id="path84" /><path
       fill="#FFFFFF"
       d="M249.8,494.3c0,0-29.5,0-52.7-10.7c-28.9-13.4-27.2-35.2-60.3-50.5c-24.1-11.1-56.3-13.4-56.3-13.4   L56.8,414c0,0,37.9,58.7,83.7,71.5c36.1,10.2,40-3.2,85.8,18.3C226.3,503.8,243.9,510.9,249.8,494.3L249.8,494.3z"
       id="path86" /><path
       fill="none"
       stroke="#2C5AA0"
       stroke-width="2.739"
       stroke-linejoin="round"
       d="M249.8,494.3c0,0-29.5,0-52.7-10.7   c-28.9-13.4-27.2-35.2-60.3-50.5c-24.1-11.1-56.3-13.4-56.3-13.4L56.8,414c0,0,37.9,58.7,83.7,71.5c36.1,10.2,40-3.2,85.8,18.3   C226.3,503.8,243.9,510.9,249.8,494.3L249.8,494.3z"
       id="path88" /><g
       id="g100"><defs
         id="defs91"><rect
           id="SVGID_7_"
           x="0"
           y="0"
           width="538"
           height="528.3" /></defs><clipPath
         id="SVGID_8_"><use
           xlink:href="#SVGID_7_"
           overflow="visible"
           id="use93" /></clipPath><path
         clip-path="url(#SVGID_8_)"
         fill="#FFFFFF"
         d="M353.8,515c0,0-34.2,6.8-52.7-10.7c-18.5-17.6-22.5-33.2-57.6-42.9    c-35.1-9.8-67.3-24.4-67.3-24.4l1,4.9l-3.9,3.9c0,0,27.8,41.3,71.2,60.5c22.9,10.2,35.1-3.9,81,17.6    C325.5,523.8,347.9,531.6,353.8,515L353.8,515z"
         id="path96" /><path
         clip-path="url(#SVGID_8_)"
         d="M353.8,515    c0,0-34.2,6.8-52.7-10.7c-18.5-17.6-22.5-33.2-57.6-42.9c-35.1-9.8-67.3-24.4-67.3-24.4l1,4.9l-3.9,3.9c0,0,27.8,41.3,71.2,60.5    c22.9,10.2,35.1-3.9,81,17.6C325.5,523.8,347.9,531.6,353.8,515L353.8,515z"
         id="path98"
         stroke-linejoin="round"
         stroke-width="2.7391"
         stroke="#2C5AA0"
         fill="none" /></g><path
       fill="#2C5AA0"
       d="M138,72.7c0,3,2.6,5.5,5.9,5.5c3.2,0,5.9-2.5,5.9-5.5c0-3-2.6-5.5-5.9-5.5C140.6,67.2,138,69.7,138,72.7   L138,72.7z"
       id="path102" /><path
       fill="none"
       stroke="#2C5AA0"
       stroke-width="2.7328"
       stroke-linecap="round"
       stroke-linejoin="round"
       d="M138,72.7   c0,3,2.6,5.5,5.9,5.5c3.2,0,5.9-2.5,5.9-5.5c0-3-2.6-5.5-5.9-5.5C140.6,67.2,138,69.7,138,72.7L138,72.7z"
       id="path104" /><path
       fill="#2C5AA0"
       d="M136.1,58c0,3,2.6,5.5,5.9,5.5c3.2,0,5.8-2.5,5.8-5.5c0-3-2.6-5.5-5.8-5.5C138.7,52.5,136.1,54.9,136.1,58   L136.1,58z"
       id="path106" /><path
       fill="none"
       stroke="#2C5AA0"
       stroke-width="2.7328"
       stroke-linecap="round"
       stroke-linejoin="round"
       d="M136.1,58   c0,3,2.6,5.5,5.9,5.5c3.2,0,5.8-2.5,5.8-5.5c0-3-2.6-5.5-5.8-5.5C138.7,52.5,136.1,54.9,136.1,58L136.1,58z"
       id="path108" /><path
       fill="#2C5AA0"
       d="M60,177.1c0,3,2.6,5.5,5.9,5.5c3.2,0,5.9-2.5,5.9-5.5c0-3-2.6-5.5-5.9-5.5C62.6,171.6,60,174.1,60,177.1   L60,177.1z"
       id="path110" /><path
       fill="none"
       stroke="#2C5AA0"
       stroke-width="2.7328"
       stroke-linecap="round"
       stroke-linejoin="round"
       d="M60,177.1   c0,3,2.6,5.5,5.9,5.5c3.2,0,5.9-2.5,5.9-5.5c0-3-2.6-5.5-5.9-5.5C62.6,171.6,60,174.1,60,177.1L60,177.1z"
       id="path112" /><path
       fill="#2C5AA0"
       d="M52.4,159.3c0,3,2.6,5.5,5.8,5.5c3.2,0,5.9-2.5,5.9-5.5c0-3-2.6-5.5-5.9-5.5   C55,153.8,52.4,156.2,52.4,159.3L52.4,159.3z"
       id="path114" /><path
       fill="none"
       stroke="#2C5AA0"
       stroke-width="2.7328"
       stroke-linecap="round"
       stroke-linejoin="round"
       d="M52.4,159.3   c0,3,2.6,5.5,5.8,5.5c3.2,0,5.9-2.5,5.9-5.5c0-3-2.6-5.5-5.9-5.5C55,153.8,52.4,156.2,52.4,159.3L52.4,159.3z"
       id="path116" /><path
       fill="#2C5AA0"
       d="M52.3,406.9c0,3,2.6,5.5,5.8,5.5c3.2,0,5.9-2.5,5.9-5.5c0-3-2.6-5.5-5.9-5.5   C55,401.4,52.3,403.9,52.3,406.9L52.3,406.9z"
       id="path118" /><path
       fill="none"
       stroke="#2C5AA0"
       stroke-width="2.7328"
       stroke-linecap="round"
       stroke-linejoin="round"
       d="M52.3,406.9   c0,3,2.6,5.5,5.8,5.5c3.2,0,5.9-2.5,5.9-5.5c0-3-2.6-5.5-5.9-5.5C55,401.4,52.3,403.9,52.3,406.9L52.3,406.9z"
       id="path120" /><path
       fill="#2C5AA0"
       d="M177.6,495.4c0,3,2.6,5.5,5.9,5.5c3.2,0,5.8-2.5,5.8-5.5c0-3-2.6-5.5-5.8-5.5   C180.2,489.9,177.6,492.4,177.6,495.4L177.6,495.4z"
       id="path122" /><path
       fill="none"
       stroke="#2C5AA0"
       stroke-width="2.7328"
       stroke-linecap="round"
       stroke-linejoin="round"
       d="M177.6,495.4   c0,3,2.6,5.5,5.9,5.5c3.2,0,5.8-2.5,5.8-5.5c0-3-2.6-5.5-5.8-5.5C180.2,489.9,177.6,492.4,177.6,495.4L177.6,495.4z"
       id="path124" /><path
       fill-rule="evenodd"
       clip-rule="evenodd"
       fill="#2C5AA0"
       d="M185.1,447.3c8.1,6.6,15.3,12.4,20.6,15.7   c-1.2,1.3-3.3,1.1-7.8,1.5c3.6,1.5,8.8,0.5,10.1,0.1c3.6,2.3,7.3,4.8,10.9,7c-2.5,2.3-5.6,2.4-8.3,2.7c2.2,1.5,10.1-0.4,10.7-1.2   c4.4,2.7,9.2,5.3,13.6,8c-2.9,2.3-7.4,2.8-13.5,2.8c8.1,1.4,12.3,0.1,16-1.2c4,2.4,10.9,4.6,14.9,6.9c-2.5,2.3-8.3,4.9-12,5.8   c2.8,0.4,11.3-1.3,14.4-3.9c4.8,2.6,14.1,5.9,18.7,8.2c-2,0.9-11.2,2.2-14.6,3.1c3.4,0.7,13.8-0.4,16.7-2   c8.2,4,23.1,11.7,30.5,14.2c0-1.1,1.6-2.2,1.7-3.6c-7-3-24-8.7-31.2-12.3c2.1-0.9,1.1-10.9-3.9-14.5c2.8,5.5,3.8,11.4,1.7,13.5   c-4.6-2.4-13.9-5.7-18.6-8.3c0.9-0.9,4.4-10.5-1.1-14.9c3.4,5.7,1,10.4-1.3,13.2c-5.1-2.8-12.8-5.6-17.8-8.6   c1.1-2.7,3.3-9-3.2-13.9c4.3,6.1,1.8,9.5,0.5,12.1c-5.2-3.1-10.4-6.3-15.5-9.5c1.3-3.9,3.7-6.5-1.8-10.2c3.4,5.3,2.5,4.8-1.4,8.2   c-2.7-1.8-6.5-3.8-9.2-5.5c0.1-3.4,1.7-4.2-3.1-9c3.3,3.3,1,5,0.2,7.2C199.3,457,198.6,456.8,185.1,447.3L185.1,447.3z"
       id="path126" /><path
       fill="none"
       stroke="#2C5AA0"
       stroke-width="1.1275"
       d="M185.1,447.3c8.1,6.6,15.3,12.4,20.6,15.7c-1.2,1.3-3.3,1.1-7.8,1.5   c3.6,1.5,8.8,0.5,10.1,0.1c3.6,2.3,7.3,4.8,10.9,7c-2.5,2.3-5.6,2.4-8.3,2.7c2.2,1.5,10.1-0.4,10.7-1.2c4.4,2.7,9.2,5.3,13.6,8   c-2.9,2.3-7.4,2.8-13.5,2.8c8.1,1.4,12.3,0.1,16-1.2c4,2.4,10.9,4.6,14.9,6.9c-2.5,2.3-8.3,4.9-12,5.8c2.8,0.4,11.3-1.3,14.4-3.9   c4.8,2.6,14.1,5.9,18.7,8.2c-2,0.9-11.2,2.2-14.6,3.1c3.4,0.7,13.8-0.4,16.7-2c8.2,4,23.1,11.7,30.5,14.2c0-1.1,1.6-2.2,1.7-3.6   c-7-3-24-8.7-31.2-12.3c2.1-0.9,1.1-10.9-3.9-14.4c2.8,5.5,3.8,11.4,1.7,13.5c-4.6-2.4-13.9-5.7-18.6-8.3   c0.9-0.9,4.4-10.5-1.1-14.9c3.4,5.7,1,10.4-1.3,13.2c-5.1-2.8-12.8-5.6-17.8-8.6c1.1-2.7,3.3-9-3.2-13.9c4.3,6.1,1.8,9.5,0.5,12.1   c-5.2-3.1-10.4-6.3-15.5-9.5c1.3-3.9,3.7-6.5-1.8-10.2c3.4,5.3,2.5,4.8-1.4,8.2c-2.7-1.8-6.5-3.8-9.2-5.5c0.1-3.4,1.7-4.2-3.1-9   c3.3,3.3,1,5,0.2,7.2C199.3,457,198.6,456.8,185.1,447.3L185.1,447.3z"
       id="path128" /><path
       fill-rule="evenodd"
       clip-rule="evenodd"
       fill="#2C5AA0"
       d="M69.4,424.3c9.9,3,18.8,5.8,24.5,8.4c0.4-1.7-0.9-3.3-3.1-7.4   c3.3,2.1,5.3,7,5.7,8.3c3.9,1.7,8,3.4,12,5.2c0.5-3.3-1.1-6-2.4-8.4c2.5,1,5.3,8.6,4.9,9.6c4.7,2.1,9.5,4.6,14.2,6.8   c0.3-3.7-1.8-8.1-5.2-13.1c5.7,5.9,6.9,10.5,8,14.4c4.2,2,9.9,8.3,14,10.4c0.5-3.3-1.3-13-2.7-16.6c1.9,2.1,5.9,13.5,5.5,17.6   c4.8,2.5,12.8,10.3,17.3,12.9c-0.3-2.2-4.4-10.5-5.6-13.8c2.5,2.5,7.4,11.7,7.7,14.9c7.9,4.6,27.2,14.2,37.9,14.4   c-1,0.6-1,2.5-2,3.4c-12.1-2.6-29.7-12.1-36.7-16c0.4,2.3-15.6,7-21.4,4.8c6.1-0.7,18.8-3.2,19.3-6.1c-4.6-2.5-12.5-10.3-17.2-12.7   c-0.2,1.3-12.3,9.1-19,7c6.6-0.3,15.2-4.6,16.3-8c-5.2-2.6-11.8-9.4-17.1-11.9c-1.6,2.4-12.1,8.9-19.8,6.2   c7.5,0.1,15.3-4.9,16.8-7.5c-5.5-2.6-11-5.2-16.6-7.6c-2.5,3.2-3.3,6.7-9.4,4.2c6.3-0.1,5.4-0.6,6-5.7c-3-1.3-6.7-3.3-9.7-4.6   c-2.8,2-4,2.2-10.7,1c4.6,0.9,6.3-0.4,7.6-2.3C85.4,430.8,84.8,430.2,69.4,424.3L69.4,424.3z"
       id="path130" /><path
       fill="none"
       stroke="#2C5AA0"
       stroke-width="1.1275"
       d="M69.4,424.3c9.9,3,18.8,5.8,24.5,8.4c0.4-1.7-0.9-3.3-3.1-7.4   c3.3,2.1,5.3,7,5.7,8.3c3.9,1.7,8,3.4,12,5.2c0.5-3.3-1.1-6-2.4-8.4c2.5,1,5.3,8.6,4.9,9.6c4.7,2.1,9.5,4.6,14.2,6.8   c0.3-3.7-1.8-8.1-5.2-13.1c5.7,5.9,6.9,10.5,8,14.4c4.2,2,9.9,8.3,14,10.4c0.5-3.3-1.3-13-2.7-16.6c1.9,2.1,5.9,13.5,5.5,17.6   c4.8,2.5,12.8,10.3,17.3,12.9c-0.3-2.2-4.4-10.5-5.6-13.8c2.5,2.5,7.4,11.7,7.7,14.9c7.9,4.6,27.2,14.2,37.9,14.4   c-1,0.6-1,2.5-2,3.4c-12.1-2.6-29.7-12.1-36.7-16c0.4,2.3-15.6,7-21.4,4.8c6.1-0.7,18.8-3.2,19.3-6.1c-4.6-2.5-12.5-10.3-17.2-12.7   c-0.2,1.3-12.3,9.1-19,7c6.6-0.3,15.2-4.6,16.3-8c-5.2-2.6-11.8-9.4-17.1-11.9c-1.6,2.4-12.1,8.9-19.8,6.2   c7.5,0.1,15.3-4.9,16.8-7.5c-5.5-2.6-11-5.2-16.6-7.6c-2.5,3.2-3.3,6.7-9.4,4.2c6.3-0.1,5.4-0.6,6-5.7c-3-1.3-6.7-3.3-9.7-4.6   c-2.8,2-4,2.2-10.7,1c4.6,0.9,6.3-0.4,7.6-2.3C85.4,430.8,84.8,430.2,69.4,424.3L69.4,424.3z"
       id="path132" /><path
       fill="#FFFFFF"
       d="M129.7,378V113.1h282.6V378c0,23.9-13.5,29.6-33.8,29.6c-27,0-60.7,4.4-70.3,5.7   c-10.8,1.4-28.4,8.4-36.5,21.1c-8.1-12.7-27-19.7-37.9-21.1c-9.6-1.3-43.2-5.7-70.2-5.7C143.3,407.6,129.7,402,129.7,378L129.7,378   z"
       id="path134" /><path
       fill="none"
       stroke="#2C5AA0"
       stroke-width="2.9108"
       stroke-linecap="round"
       stroke-linejoin="round"
       d="M129.7,378V113.1   h282.6V378c0,23.9-13.5,29.6-33.8,29.6c-27,0-60.7,4.4-70.3,5.7c-10.8,1.4-28.4,8.4-36.5,21.1c-8.1-12.7-27-19.7-37.9-21.1   c-9.6-1.3-43.2-5.7-70.2-5.7C143.3,407.6,129.7,402,129.7,378L129.7,378z"
       id="path136" /><path
       fill="#2C5AA0"
       d="M135.2,373.7v-67.5h89.9v100.1c-14.2-1.7-37.6-4.1-57.4-4.1C148.2,402.2,135.2,396.8,135.2,373.7   L135.2,373.7z"
       id="path138" /><rect
       x="135.2"
       y="119"
       fill="#2C5AA0"
       width="89.9"
       height="94.4"
       id="rect140" /><rect
       x="316.7"
       y="119"
       fill="#2C5AA0"
       width="90.2"
       height="94.4"
       id="rect142" /><path
       fill="#2C5AA0"
       d="M406.8,306.2v67.5c0,23.1-13,28.5-32.5,28.5c-19.9,0-43.6,2.4-57.7,4.2V306.2L406.8,306.2z"
       id="path144" /><path
       fill="#FFFFFF"
       d="M438.4,71.7c0,0-24.4-1.8-43-12c-23.1-12.8-14.4-20-38-38.9C341,7.6,304.1,7.7,304.1,7.7l-23.5-6.2   c0,0,14.5,41.4,51.6,54.8c29.2,10.6,49.6,1.4,86.2,21.9C418.4,78.2,432.6,85.1,438.4,71.7L438.4,71.7z"
       id="path146" /><g
       id="g156"><defs
         id="defs149"><rect
           id="SVGID_9_"
           x="0"
           y="0"
           width="538"
           height="528.3" /></defs><clipPath
         id="SVGID_10_"><use
           xlink:href="#SVGID_9_"
           overflow="visible"
           id="use151" /></clipPath><path
         clip-path="url(#SVGID_10_)"
         fill="none"
         stroke="#2C5AA0"
         stroke-width="2.2725"
         stroke-linejoin="round"
         d="M438.4,71.7    c0,0-24.4-1.8-43-12c-23.1-12.8-14.4-20-38-38.9C341,7.6,304.1,7.7,304.1,7.7l-23.5-6.2c0,0,14.5,41.4,51.6,54.8    c29.2,10.6,49.6,1.4,86.2,21.9C418.4,78.2,432.6,85.1,438.4,71.7L438.4,71.7z"
         id="path154" /></g><path
       fill-rule="evenodd"
       clip-rule="evenodd"
       fill="#2C5AA0"
       d="M288.2,7.1c5,11,26.4,19.1,31.9,22.1c-1.1,1.4-3.2,1.3-7.7,2   c3.6,1.3,8.8,0,10.1-0.5c3.7,2.1,7.5,4.3,11.3,6.4c-2.3,2.4-5.4,2.7-8.2,3.2c2.3,1.3,10-1,10.6-1.8c4.5,2.5,9.4,4.8,14,7.2   c-2.8,2.5-10.3,4.7-16.3,5c8.1,1,15.2-2.2,18.9-3.6c4.1,2.1,11.3,4,15.4,5.9c-2.3,2.4-8.8,1.3-12.5,2.4c2.8,0.2,12,2.1,15-0.7   c4.9,2.3,14.4,5.1,19.2,7.1c3.3-0.1,5.3,2.1,2.1,1c8.4,3.5,32.1,8,38.8,16.4c-0.1-1.1,1.4-2.3,1.5-3.6c-9.4-8-32-11.3-39.3-14.5   c-10.8-13.1,0.9-8.5-2.3-0.8c-4.8-2.1-14.3-4.9-19.1-7.2c0.9-0.9-6.4-14.4-12.2-18.4c3.8,5.5,11.8,13.9,9.7,16.9   c-5.2-2.5-13.3-4.8-18.5-7.5c1-2.8-2-15.8-8.8-20.3c4.6,5.9,7.2,15.9,6,18.7c-5.3-2.8-10.8-5.7-16.1-8.6c1.1-3.9-2-9.8-6.5-14.1   c3.7,5.1,6.9,8.7,3.3,12.3c-2.8-1.6-6.7-3.4-9.5-5c-0.1-3.4-2.8-7.2-7.8-11.8c3.5,3.1,5.5,7.9,4.9,10.1   c-2.9-1.6-21.1-6.5-27.2-16.7L288.2,7.1z"
       id="path158" /><path
       d="m 288.2,7.1 c 5,11 26.4,19.1 31.9,22.1 -1.1,1.4 -3.2,1.3 -7.7,2 3.6,1.3 8.8,0 10.1,-0.5 3.7,2.1 7.5,4.3 11.3,6.4 -2.3,2.4 -5.4,2.7 -8.2,3.2 2.3,1.3 10,-1 10.6,-1.8 4.5,2.5 9.4,4.8 14,7.2 -2.8,2.5 -10.3,4.7 -16.3,5 8.1,1 15.2,-2.2 18.9,-3.6 4.1,2.1 11.3,4 15.4,5.9 -2.3,2.4 -8.8,1.3 -12.5,2.4 2.8,0.2 12,2.1 15,-0.7 4.9,2.3 14.4,5.1 19.2,7.1 3.3,-0.1 5.3,2.1 2.1,1 8.4,3.5 32.1,8 38.8,16.4 -0.1,-1.1 1.4,-2.3 1.5,-3.6 -9.4,-8 -32,-11.3 -39.3,-14.5 -2.3,-0.8 0,0 -2.3,-0.8 -4.8,-2.1 -14.3,-4.9 -19.1,-7.2 0.9,-0.9 -6.4,-14.4 -12.2,-18.4 3.8,5.5 11.8,13.9 9.7,16.9 -5.2,-2.5 -13.3,-4.8 -18.5,-7.5 1,-2.8 -2,-15.8 -8.8,-20.3 4.6,5.9 7.2,15.9 6,18.6 -5.3,-2.8 -10.8,-5.7 -16.1,-8.6 1.1,-3.9 -2,-9.8 -6.5,-14.1 3.7,5.1 6.9,8.7 3.3,12.3 -2.8,-1.6 -6.7,-3.4 -9.5,-5 -0.1,-3.4 -2.8,-7.2 -7.8,-11.8 3.5,3.1 5.5,7.9 4.9,10.1 C 313.2,23.7 295,18.8 288.9,8.6 Z"
       id="path160"
       inkscape:connector-curvature="0"
       style="fill:none;stroke:#2c5aa0;stroke-width:1.12750006"
       sodipodi:nodetypes="ccccccccccccccccccccccccccccccccc" /><path
       fill="#FFFFFF"
       d="M490,221.6c0,0-3.8-28.5-17.1-49.4c-16.6-26.1-18.9-20.7-42.7-46.9C413.7,107,405.7,69,405.7,69L403,43   c0,0,43.2,13.1,61.5,55.5c14.4,33.4,5.1,57.9,31.6,99.3C496.1,197.8,505.2,213.8,490,221.6L490,221.6z"
       id="path162" /><path
       fill="none"
       stroke="#2C5AA0"
       stroke-width="2.6619"
       stroke-linejoin="round"
       d="M490,221.6c0,0-3.8-28.5-17.1-49.4   c-16.6-26.1-18.9-20.7-42.7-46.9C413.7,107,405.7,69,405.7,69L403,43c0,0,43.2,13.1,61.5,55.5c14.4,33.4,5.1,57.9,31.6,99.3   C496.1,197.8,505.2,213.8,490,221.6L490,221.6z"
       id="path164" /><path
       fill-rule="evenodd"
       clip-rule="evenodd"
       fill="#2C5AA0"
       d="M410.2,52.2c6.9,7.8,16.1,25,19.6,30.1c1.2-1.3,0.9-3.3,1.2-7.9   c1.7,3.5,0.9,8.8,0.5,10.1c2.4,3.5,5.1,7,7.5,10.6c2.2-2.6,2.1-5.7,2.3-8.4c1.6,2.2,0,10.1-0.8,10.8c2.9,4.3,5.7,8.9,8.6,13.3   c2.2-3,3.7-10.7,3.4-16.7c1.8,8-0.6,15.4-1.7,19.2c2.5,3.9,5.1,10.9,7.5,14.8c2.2-2.6,4.2-13.4,4.8-17.2c0.5,2.8-0.4,16.3-2.9,19.6   c2.8,4.7,6.5,13.9,9,18.4c0.9-2-0.6-7,0.1-10.5c0.8,3.4,2.5,9.6,1,12.5c4.3,8,11.2,31.2,20.2,37c-1.1,0-2.2,1.7-3.5,1.9   c-8.9-8.5-14.5-30.7-18.4-37.7c-0.8,2.2-7.3-1.5-11.1-6.4c5.6,2.6,8.1,6.5,10.1,4.2c-2.6-4.5-6.3-13.7-9.1-18.3   c-0.8,1-9.7-2.1-14.3-7.4c5.8,3.2,9.8,7.4,12.6,5.1c-3-4.9-6.1-12.7-9.3-17.7c-2.7,1.2-15.9-0.4-21-6.8c6.3,4,16.6,5.6,19.2,4.1   c-3.3-5-6.7-10.2-10.2-15.1c-3.8,1.5-10-1-14.7-5.1c5.4,3.2,9.3,6,12.5,2c-1.9-2.7-4-6.3-5.9-9c-3.4,0.3-7.5-2-12.5-6.6   c3.5,3.2,8.5,4.7,10.6,3.8c-1.9-2.7-3.3-9.1-13.4-22.2L410.2,52.2z"
       id="path166" /><path
       fill="none"
       stroke="#2C5AA0"
       stroke-width="1.1275"
       d="M410.2,52.2c6.9,7.8,16.1,25,19.6,30.1c1.2-1.3,0.9-3.3,1.2-7.9   c1.7,3.5,0.9,8.8,0.5,10.1c2.4,3.5,5.1,7,7.5,10.6c2.2-2.6,2.1-5.7,2.3-8.4c1.6,2.2,0,10.1-0.8,10.8c2.9,4.3,5.7,8.9,8.6,13.3   c2.2-3,3.7-10.7,3.4-16.7c1.8,8-0.6,15.4-1.7,19.2c2.5,3.9,5.1,10.9,7.5,14.8c2.2-2.6,4.2-13.4,4.8-17.2c0.5,2.8-0.4,16.3-2.9,19.6   c2.8,4.7,6.5,13.9,9,18.4c0.9-2-0.6-7,0.1-10.5c0.8,3.4,2.5,9.6,1,12.5c4.3,8,11.2,31.2,20.2,37c-1.1,0-2.2,1.7-3.5,1.9   c-8.9-8.5-14.5-30.7-18.4-37.7c-0.8,2.2-7.3-1.5-11.1-6.4c5.6,2.6,8.1,6.5,10.1,4.2c-2.6-4.5-6.3-13.7-9.1-18.3   c-0.8,1-9.7-2.1-14.3-7.4c5.8,3.2,9.8,7.4,12.6,5.1c-3-4.9-6.1-12.7-9.3-17.7c-2.7,1.2-15.9-0.4-21-6.8c6.3,4,16.6,5.6,19.2,4.1   c-3.3-5-6.7-10.2-10.2-15.1c-3.8,1.5-10-1-14.7-5.1c5.4,3.2,9.3,6,12.5,2c-1.9-2.7-4-6.3-5.9-9c-3.4,0.3-7.5-2-12.5-6.6   c3.5,3.2,8.5,4.7,10.6,3.8c-1.9-2.7-3.3-9.1-13.4-22.2L410.2,52.2z"
       id="path168" /><path
       fill="#FFFFFF"
       d="M489.6,337.4c0,0,12.3-26.9,12.2-52.4c-0.2-31.9-17.2-34.1-23.5-70c-4.4-24.9,12.9-62.1,12.9-62.1l5.7-24.4   c0,0,37.6,58.9,30.3,105.8c-5.8,37-19.6,35-19.1,85.6C508,320,507.1,339,489.6,337.4L489.6,337.4z"
       id="path170" /><g
       id="g180"><defs
         id="defs173"><rect
           id="SVGID_11_"
           x="0"
           y="0"
           width="538"
           height="528.3" /></defs><clipPath
         id="SVGID_12_"><use
           xlink:href="#SVGID_11_"
           overflow="visible"
           id="use175" /></clipPath><path
         clip-path="url(#SVGID_12_)"
         fill="none"
         stroke="#2C5AA0"
         stroke-width="2.739"
         stroke-linejoin="round"
         d="M489.6,337.4    c0,0,12.3-26.9,12.2-52.4c-0.2-31.9-17.2-34.1-23.5-70c-4.4-24.9,12.9-62.1,12.9-62.1l5.7-24.4c0,0,37.6,58.9,30.3,105.8    c-5.8,37-19.6,35-19.1,85.6C508,320,507.1,339,489.6,337.4L489.6,337.4z"
         id="path178" /></g><path
       fill-rule="evenodd"
       clip-rule="evenodd"
       fill="#2C5AA0"
       d="M499.2,141.2c-1.3,10.3,0.8,29.7,0.8,35.9   c-1.7-0.3-2.6-2.2-5.4-5.8c0.6,3.8,4.2,7.7,5.3,8.6c0,4.3-0.2,8.7-0.2,13c-3.2-0.9-5-3.5-6.7-5.6c-0.1,2.7,5.7,8.4,6.7,8.4   c0,5.2,0.3,10.6,0.4,15.8c-3.5-1.3-9-6.8-12.2-11.9c3,7.6,9.2,12.4,12.2,14.9c0.1,4.6-0.7,12.7-0.5,17.3   c-3.2-0.9-10.6-10.9-13.3-13.6c1.1,2.6,9.2,15.3,13.1,16.6c0.3,5.4,2.4,15.1,2.9,20.3c-1.9-1.2-10.8-10.8-13.3-13.2   c1.3,3.3,10.7,14,13.5,15.6c1,9.1,7.7,31.1,3.5,41c0.9-0.6,2.7,0.2,3.9-0.4c2.6-12.1-4.7-32.6-5.5-40.5c1.9,1.3,11.1-8.1,11.5-14.2   c-3.2,5.3-9,12.6-11.9,11.9c-0.4-5.2-2.5-14.9-2.8-20.2c1.2,0.3,14.1-9.4,14.9-16.4c-3,5.9-11.1,13.8-14.7,13.4   c-0.3-5.8,0.5-14.8,0.4-20.7c2.9-0.5,12.9-9.3,13.6-17.4c-2.9,6.9-10.5,13.9-13.5,14.2c-0.1-6-0.2-12.2-0.1-18.2   c4-0.9,7.6-6.4,9.3-12.5c-2.7,5.7-4.3,10.2-9.2,8.8c0-3.3-0.2-7.5-0.2-10.7c3-1.7,5-5.9,6.6-12.5c-1.1,4.6-4.3,8.7-6.5,9.1   c0-3.3-2.4-9.4-1.4-25.9L499.2,141.2z"
       id="path182" /><path
       fill="none"
       stroke="#2C5AA0"
       stroke-width="1.1275"
       d="M499.2,141.2c-1.3,10.3,0.8,29.7,0.8,35.9c-1.7-0.3-2.6-2.2-5.4-5.8   c0.6,3.8,4.2,7.7,5.3,8.6c0,4.3-0.2,8.7-0.2,13c-3.2-0.9-5-3.5-6.7-5.6c-0.1,2.7,5.7,8.4,6.7,8.4c0,5.2,0.3,10.6,0.4,15.8   c-3.5-1.3-9-6.8-12.2-11.9c3,7.6,9.2,12.4,12.2,14.9c0.1,4.6-0.7,12.7-0.5,17.3c-3.2-0.9-10.6-10.9-13.3-13.6   c1.1,2.6,9.2,15.3,13.1,16.6c0.3,5.4,2.4,15.1,2.9,20.3c-1.9-1.2-10.8-10.8-13.3-13.2c1.3,3.3,10.7,14,13.5,15.6   c1,9.1,7.7,31.1,3.5,41c0.9-0.6,2.7,0.2,3.9-0.4c2.6-12.1-4.7-32.6-5.5-40.5c1.9,1.3,11.1-8.1,11.5-14.2c-3.2,5.3-9,12.6-11.9,11.9   c-0.4-5.2-2.5-14.9-2.8-20.2c1.2,0.3,14.1-9.4,14.9-16.4c-3,5.9-11.1,13.8-14.7,13.4c-0.3-5.8,0.5-14.8,0.4-20.7   c2.9-0.5,12.9-9.3,13.6-17.4c-2.9,6.9-10.5,13.9-13.5,14.2c-0.1-6-0.2-12.2-0.1-18.2c4-0.9,7.6-6.4,9.3-12.5   c-2.7,5.7-4.3,10.2-9.2,8.8c0-3.3-0.2-7.5-0.2-10.7c3-1.7,5-5.9,6.6-12.5c-1.1,4.6-4.3,8.7-6.5,9.1c0-3.3-2.4-9.4-1.4-25.9   L499.2,141.2z"
       id="path184" /><path
       fill="#FFFFFF"
       d="M520.3,338.1c-15.6-27.8,2.2-46.7-15.7-78.4c-13-23.1-46.4-59.3-46.4-59.3l-4.1,6.1l-6.9-6.9   c0,0-3.6,69.7,26,107c23.3,29.3,19.3-6,44,38.2L520.3,338.1z"
       id="path186" /><path
       fill="none"
       stroke="#2C5AA0"
       stroke-width="2.739"
       stroke-linejoin="round"
       d="M520.3,338.1c-15.6-27.8,2.2-46.7-15.7-78.4   c-13-23.1-46.4-59.3-46.4-59.3l-4.1,6.1l-6.9-6.9c0,0-3.6,69.7,26,107c23.3,29.3,19.3-6,44,38.2L520.3,338.1z"
       id="path188" /><path
       fill-rule="evenodd"
       clip-rule="evenodd"
       fill="#2C5AA0"
       d="M456,214.2c2.9,10,5.5,18.9,8,24.6c-1.7,0.4-3.3-1-7.3-3.2   c2,3.3,6.9,5.4,8.2,5.8c1.6,3.9,3.2,8,5,12c-3.3,0.4-5.9-1.2-8.4-2.5c1,2.5,8.5,5.4,9.5,5.1c2.1,4.7,4.5,9.6,6.6,14.3   c-3.7,0.2-11-2.6-15.9-6.1c5.8,5.8,13.3,7.7,17.1,8.9c1.9,4.2,4.4,11.9,6.4,16c-3.3,0.4-14-5.8-17.6-7.2   c2.1,1.9,14.5,10.5,18.6,10.1c2.4,4.9,8.2,12.9,10.7,17.5c-2.2-0.4-14.2-5.6-17.4-6.9c2.5,2.5,15.3,8.7,18.5,9   c4.5,7.9,19.4,25.5,19.4,36.3c0.6-0.9,2.6-0.9,3.4-1.9c-2.4-12.1-17.2-28.1-21-35.1c2.3,0.5,7.1-11.8,5-17.6   c-0.8,6.1-3.3,15.1-6.2,15.6c-2.5-4.6-8.2-12.7-10.5-17.5c1.3-0.2,9.2-14.2,7.2-20.9c-0.4,6.6-4.8,17.1-8.2,18.2   c-2.5-5.2-5.4-13.8-7.8-19.2c2.5-1.6,8.1-13.6,5.6-21.4c0,7.5-4.2,17-6.8,18.4c-2.5-5.5-5-11.1-7.3-16.7c3.3-2.4,4.5-8.9,3.6-15.1   c-0.2,6.3,0.1,11.1-5,11.7c-1.2-3-3.2-6.8-4.4-9.8c2.1-2.8,2.3-7.4,1.2-14.1c0.8,4.6-0.5,9.7-2.4,11   C462.2,230.3,461.7,229.7,456,214.2L456,214.2z"
       id="path190" /><path
       fill="none"
       stroke="#2C5AA0"
       stroke-width="1.1275"
       d="M456,214.2c2.9,10,5.5,18.9,8,24.6c-1.7,0.4-3.3-1-7.3-3.2   c2,3.3,6.9,5.4,8.2,5.8c1.6,3.9,3.2,8,5,12c-3.3,0.4-5.9-1.2-8.4-2.5c1,2.5,8.5,5.4,9.5,5.1c2.1,4.7,4.5,9.6,6.6,14.3   c-3.7,0.2-11-2.6-15.9-6.1c5.8,5.8,13.3,7.7,17.1,8.9c1.9,4.2,4.4,11.9,6.4,16c-3.3,0.4-14-5.8-17.6-7.2   c2.1,1.9,14.5,10.5,18.6,10.1c2.4,4.9,8.2,12.9,10.7,17.5c-2.2-0.4-14.2-5.6-17.4-6.9c2.5,2.5,15.3,8.7,18.5,9   c4.5,7.9,19.4,25.5,19.4,36.3c0.6-0.9,2.6-0.9,3.4-1.9c-2.4-12.1-17.2-28.1-21-35.1c2.3,0.5,7.1-11.8,5-17.6   c-0.8,6.1-3.3,15.1-6.2,15.6c-2.5-4.6-8.2-12.7-10.5-17.5c1.3-0.2,9.2-14.2,7.2-20.9c-0.4,6.6-4.8,17.1-8.2,18.2   c-2.5-5.2-5.4-13.8-7.8-19.2c2.5-1.6,8.1-13.6,5.6-21.4c0,7.5-4.2,17-6.8,18.4c-2.5-5.5-5-11.1-7.3-16.7c3.3-2.4,4.5-8.9,3.6-15.1   c-0.2,6.3,0.1,11.1-5,11.7c-1.2-3-3.2-6.8-4.4-9.8c2.1-2.8,2.3-7.4,1.2-14.1c0.8,4.6-0.5,9.7-2.4,11   C462.2,230.3,461.7,229.7,456,214.2L456,214.2z"
       id="path192" /><path
       fill="#FFFFFF"
       d="M426.2,445.7c0,0,24-17.2,36.5-39.5c6.8-12.1,7.2-22.5,7.1-33c-0.2-9.1-0.8-18.2,1.8-28.6   c1.3-5.2,3.4-10.8,6.8-16.8c4.4-7.8,11.1-17.1,18.1-26c7-8.9,14.2-17.4,19.6-23.6c5.2-5.9,8.7-9.7,8.7-9.7l4.1,6.1l6.9-6.8   c0,0,0.4,8.1-0.2,20.3c-0.5,9.4-1.6,21.2-4,33.6c-1.9,10-4.7,20.3-8.7,30c-3.4,8.4-7.7,16.3-13.2,23.1c-6.5,8.2-12,13.4-17.2,17.7   c-13.3,11-24,15.4-41.8,47.3C450.7,439.7,440.6,455.7,426.2,445.7L426.2,445.7z"
       id="path194" /><g
       id="g204"><defs
         id="defs197"><rect
           id="SVGID_13_"
           x="0"
           y="0"
           width="538"
           height="528.3" /></defs><clipPath
         id="SVGID_14_"><use
           xlink:href="#SVGID_13_"
           overflow="visible"
           id="use199" /></clipPath><path
         clip-path="url(#SVGID_14_)"
         fill="none"
         stroke="#2C5AA0"
         stroke-width="2.739"
         stroke-linejoin="round"
         d="M426.2,445.7    c0,0,24-17.3,36.5-39.5c6.8-12.1,7.2-22.5,7.1-33c-0.2-9.1-0.8-18.2,1.8-28.6c1.3-5.2,3.4-10.8,6.8-16.8    c4.4-7.8,11.1-17.1,18.1-26c7-8.9,14.2-17.4,19.6-23.6c5.2-5.9,8.7-9.7,8.7-9.7l4.1,6.1l6.9-6.8c0,0,0.4,8.1-0.2,20.3    c-0.5,9.4-1.6,21.2-4,33.6c-1.9,10-4.7,20.3-8.7,30c-3.4,8.4-7.7,16.3-13.2,23.1c-6.5,8.2-12,13.4-17.2,17.7    c-13.3,11-24,15.4-41.8,47.3C450.7,439.6,440.6,455.7,426.2,445.7L426.2,445.7z"
         id="path202" /></g><path
       fill-rule="evenodd"
       clip-rule="evenodd"
       fill="#2C5AA0"
       d="M527.8,278.5c-2.9,10-5.5,18.9-8,24.6c1.7,0.4,3.3-1,7.3-3.2   c-2,3.3-6.9,5.4-8.2,5.8c-1.7,3.9-3.2,8-5,12c3.3,0.4,5.9-1.2,8.4-2.5c-1,2.5-8.5,5.4-9.5,5.1c-2.1,4.7-4.5,9.6-6.6,14.3   c3.7,0.2,11-2.6,15.9-6.1c-5.8,5.8-13.3,7.7-17.1,8.9c-1.9,4.2-4.4,11.9-6.4,16c3.3,0.4,14-5.8,17.6-7.2   c-2.1,1.9-14.5,10.5-18.6,10.1c-2.4,4.9-8.2,12.9-10.7,17.5c2.2-0.4,14.2-5.6,17.5-6.9c-2.5,2.5-15.3,8.7-18.5,9   c-4.5,7.9-19.4,25.5-19.4,36.3c-0.6-0.9-2.6-0.9-3.4-1.9c2.4-12.1,17.2-28.1,21-35.1c-2.3,0.5-7.1-11.8-5-17.6   c0.8,6.1,3.3,15.1,6.2,15.6c2.5-4.6,8.2-12.7,10.5-17.5c-1.3-0.2-9.2-14.2-7.2-20.9c0.4,6.6,4.8,17.1,8.2,18.2   c2.5-5.2,5.4-13.8,7.8-19.2c-2.5-1.6-8.1-13.6-5.6-21.4c0,7.5,4.2,17,6.8,18.4c2.5-5.5,5-11.1,7.3-16.7c-3.3-2.4-4.5-8.9-3.6-15.1   c0.2,6.3-0.1,11.1,5,11.7c1.2-3,3.2-6.8,4.4-9.8c-2-2.8-2.3-7.4-1.2-14.1c-0.8,4.6,0.5,9.7,2.4,11   C521.6,294.6,522.1,294,527.8,278.5L527.8,278.5z"
       id="path206" /><path
       fill="none"
       stroke="#2C5AA0"
       stroke-width="1.1275"
       d="M527.8,278.5c-2.9,10-5.5,18.9-8,24.6c1.7,0.4,3.3-1,7.3-3.2   c-2,3.3-6.9,5.4-8.2,5.8c-1.7,3.9-3.2,8-5,12c3.3,0.4,5.9-1.2,8.4-2.5c-1,2.5-8.5,5.4-9.5,5.1c-2.1,4.7-4.5,9.6-6.6,14.3   c3.7,0.2,11-2.6,15.9-6.1c-5.8,5.8-13.3,7.7-17.1,8.9c-1.9,4.2-4.4,11.9-6.4,16c3.3,0.4,14-5.8,17.6-7.2   c-2.1,1.9-14.5,10.5-18.6,10.1c-2.4,4.9-8.2,12.9-10.7,17.5c2.2-0.4,14.2-5.6,17.5-6.9c-2.5,2.5-15.3,8.7-18.5,9   c-4.5,7.9-19.4,25.5-19.4,36.3c-0.6-0.9-2.6-0.9-3.4-1.9c2.4-12.1,17.2-28.1,21-35.1c-2.3,0.5-7.1-11.8-5-17.6   c0.8,6.1,3.3,15.1,6.2,15.6c2.5-4.6,8.2-12.7,10.5-17.5c-1.3-0.2-9.2-14.2-7.2-20.9c0.4,6.6,4.8,17.1,8.2,18.2   c2.5-5.2,5.4-13.8,7.8-19.2c-2.5-1.6-8.1-13.6-5.6-21.4c0,7.5,4.2,17,6.8,18.4c2.5-5.5,5-11.1,7.3-16.7c-3.3-2.4-4.5-8.9-3.6-15.1   c0.2,6.3-0.1,11.1,5,11.7c1.2-3,3.2-6.8,4.4-9.8c-2-2.8-2.3-7.4-1.2-14.1c-0.8,4.6,0.5,9.7,2.4,11   C521.6,294.6,522.1,294,527.8,278.5L527.8,278.5z"
       id="path208" /><path
       fill="#FFFFFF"
       d="M420.2,457.8c10-30.2-7.7-23.3,3.8-57.9c8.4-25.2,24.7-65.3,24.7-65.3l6.9,2.1l3.1-8.7   c0,0,26.5,50.1,1,110.7c-10,23.7-14.5-28.3-30.3,19.8C379,499.6,414.9,470.1,420.2,457.8L420.2,457.8z"
       id="path210" /><path
       fill="none"
       stroke="#2C5AA0"
       stroke-width="2.739"
       stroke-linejoin="round"
       d="M420.2,457.8c10-30.2-7.7-23.3,3.8-57.9   c8.4-25.2,24.7-65.3,24.7-65.3l6.9,2.1l3.1-8.7c0,0,26.5,50.1,1,110.7c-10,23.7-14.5-28.3-30.3,19.8   C379,499.6,414.9,470.1,420.2,457.8L420.2,457.8z"
       id="path212" /><path
       fill-rule="evenodd"
       clip-rule="evenodd"
       fill="#2C5AA0"
       d="M456.7,340c-0.7,10.4-1.5,19.6-2.7,25.7c1.8,0,3-1.6,6.5-4.7   c-1.3,3.7-5.7,6.8-6.9,7.4c-0.8,4.2-1.5,8.5-2.4,12.8c3.4-0.3,5.5-2.4,7.7-4.2c-0.5,2.6-7.2,7.1-8.2,7c-1,5.1-2.4,10.3-3.5,15.4   c3.7-0.6,7.1-3.5,11.2-7.9c-4.5,6.9-8.4,9-11.9,10.9c-1,4.5-4.1,11.1-5.2,15.5c3.3-0.3,9.2-2.7,12.4-4.8c-1.6,2.3-8.7,7.3-12.8,7.8   c-15.4,51.8-27.2,62.4-1.9-0.3c-1.3,0.1-10.7-4-10.1-11c1.8,6.4,6.9,7.8,10.5,8.1c1.4-5.6,4.7-13.2,5.9-18.9   c-2.7-1-8.8-3.8-7.9-11.9c1.5,7.3,5.6,7.8,8.5,8.7c1.3-5.9,2.6-11.9,3.7-17.8c-3.7-1.7-7.3-1.7-6.2-8.3c1.5,6.1,1.8,5.1,6.9,4.6   c0.6-3.2,1.7-7.3,2.3-10.5c-2.6-2.3-4.2-1.6-4.5-8.4c0.1,4.7,3,4.2,5.1,5.1C454,357,454.4,356.3,456.7,340L456.7,340z"
       id="path214" /><path
       fill="none"
       stroke="#2C5AA0"
       stroke-width="1.1275"
       d="M456.7,340c-0.7,10.4-1.5,19.6-2.7,25.7c1.8,0,3-1.6,6.5-4.7   c-1.3,3.7-5.7,6.8-6.9,7.4c-0.8,4.2-1.5,8.5-2.4,12.8c3.4-0.3,5.5-2.4,7.7-4.2c-0.5,2.6-7.2,7.1-8.2,7c-1,5.1-2.4,10.3-3.5,15.4   c3.7-0.6,7.1-3.5,11.2-7.9c-4.5,6.9-8.4,9-11.9,10.9c-1,4.5-4.1,11.1-5.2,15.5c3.3-0.3,9.2-2.7,12.4-4.8c-1.6,2.3-8.7,7.3-12.8,7.8   c-15.4,51.8-27.2,62.4-1.9-0.3c-1.3,0.1-10.7-4-10.1-11c1.8,6.4,6.9,7.8,10.5,8.1c1.4-5.6,4.7-13.2,5.9-18.9   c-2.7-1-8.8-3.8-7.9-11.9c1.5,7.3,5.6,7.8,8.5,8.7c1.3-5.9,2.6-11.9,3.7-17.8c-3.7-1.7-7.3-1.7-6.2-8.3c1.5,6.1,1.8,5.1,6.9,4.6   c0.6-3.2,1.7-7.3,2.3-10.5c-2.6-2.3-4.2-1.6-4.5-8.4c0.1,4.7,3,4.2,5.1,5.1C454,357,454.4,356.3,456.7,340L456.7,340z"
       id="path216" /><path
       fill="#FFFFFF"
       d="M287.8,494.3c0,0,29.5,0,52.7-10.7c28.9-13.4,27.2-35.2,60.3-50.5c24.1-11.1,56.3-13.4,56.3-13.4l23.6-5.7   c0,0-37.9,58.7-83.7,71.5c-36.1,10.2-40-3.2-85.8,18.3C311.3,503.8,293.7,510.9,287.8,494.3L287.8,494.3z"
       id="path218" /><path
       fill="none"
       stroke="#2C5AA0"
       stroke-width="2.739"
       stroke-linejoin="round"
       d="M287.8,494.3c0,0,29.5,0,52.7-10.7   c28.9-13.4,27.2-35.2,60.3-50.5c24.1-11.1,56.3-13.4,56.3-13.4l23.6-5.7c0,0-37.9,58.7-83.7,71.5c-36.1,10.2-40-3.2-85.8,18.3   C311.3,503.8,293.7,510.9,287.8,494.3L287.8,494.3z"
       id="path220" /><g
       id="g232"><defs
         id="defs223"><rect
           id="SVGID_15_"
           x="0"
           y="0"
           width="538"
           height="528.3" /></defs><clipPath
         id="SVGID_16_"><use
           xlink:href="#SVGID_15_"
           overflow="visible"
           id="use225" /></clipPath><path
         clip-path="url(#SVGID_16_)"
         fill="#FFFFFF"
         d="M183.8,515c0,0,34.2,6.8,52.7-10.7c18.5-17.6,22.4-33.2,57.6-42.9    c35.1-9.8,67.3-24.4,67.3-24.4l-1,4.9l3.9,3.9c0,0-27.8,41.3-71.2,60.5c-22.9,10.2-35.1-3.9-81,17.6    C212.1,523.8,189.7,531.6,183.8,515L183.8,515z"
         id="path228" /><path
         clip-path="url(#SVGID_16_)"
         d="m 183.8,515 c 0,0 34.2,6.8 52.7,-10.7 18.5,-17.6 22.4,-33.2 57.6,-42.9 35.1,-9.8 67.3,-24.4 67.3,-24.4 l -1,4.9 3.9,3.9 c 0,0 -27.8,41.3 -71.2,60.5 -22.9,10.2 -35.1,-3.9 -81,17.6 0,-0.1 -22.4,7.7 -28.3,-8.9 z"
         id="path230"
         inkscape:connector-curvature="0"
         style="fill:none;stroke:#2c5aa0;stroke-width:2.73909998;stroke-linejoin:round"
         sodipodi:nodetypes="ccccccccc" /></g><path
       fill="#2C5AA0"
       d="M400.8,73.9c0,3-2.6,5.5-5.9,5.5c-3.2,0-5.8-2.5-5.8-5.5c0-3,2.6-5.5,5.8-5.5   C398.1,68.3,400.8,70.8,400.8,73.9L400.8,73.9z"
       id="path234" /><path
       fill="none"
       stroke="#2C5AA0"
       stroke-width="2.7328"
       stroke-linecap="round"
       stroke-linejoin="round"
       d="M400.8,73.9   c0,3-2.6,5.5-5.9,5.5c-3.2,0-5.8-2.5-5.8-5.5c0-3,2.6-5.5,5.8-5.5C398.1,68.3,400.8,70.8,400.8,73.9L400.8,73.9z"
       id="path236" /><path
       fill="#2C5AA0"
       d="M399.2,57.4c0,3-2.6,5.5-5.9,5.5c-3.2,0-5.8-2.5-5.8-5.5c0-3,2.6-5.5,5.8-5.5   C396.6,51.9,399.2,54.4,399.2,57.4L399.2,57.4z"
       id="path238" /><path
       fill="none"
       stroke="#2C5AA0"
       stroke-width="2.7328"
       stroke-linecap="round"
       stroke-linejoin="round"
       d="M399.2,57.4   c0,3-2.6,5.5-5.9,5.5c-3.2,0-5.8-2.5-5.8-5.5c0-3,2.6-5.5,5.8-5.5C396.6,51.9,399.2,54.4,399.2,57.4L399.2,57.4z"
       id="path240" /><path
       fill="#2C5AA0"
       d="M477.1,172.5c0,3-2.6,5.5-5.8,5.5c-3.2,0-5.9-2.5-5.9-5.5c0-3,2.6-5.5,5.9-5.5   C474.5,167,477.1,169.5,477.1,172.5L477.1,172.5z"
       id="path242" /><path
       fill="none"
       stroke="#2C5AA0"
       stroke-width="2.7328"
       stroke-linecap="round"
       stroke-linejoin="round"
       d="M477.1,172.5   c0,3-2.6,5.5-5.8,5.5c-3.2,0-5.9-2.5-5.9-5.5c0-3,2.6-5.5,5.9-5.5C474.5,167,477.1,169.5,477.1,172.5L477.1,172.5z"
       id="path244" /><path
       fill="#2C5AA0"
       d="M485.8,157.6c0,3-2.6,5.5-5.9,5.5c-3.2,0-5.9-2.5-5.9-5.5c0-3,2.6-5.5,5.9-5.5   C483.1,152.1,485.8,154.5,485.8,157.6L485.8,157.6z"
       id="path246" /><path
       fill="none"
       stroke="#2C5AA0"
       stroke-width="2.7328"
       stroke-linecap="round"
       stroke-linejoin="round"
       d="M485.8,157.6   c0,3-2.6,5.5-5.9,5.5c-3.2,0-5.9-2.5-5.9-5.5c0-3,2.6-5.5,5.9-5.5C483.1,152.1,485.8,154.5,485.8,157.6L485.8,157.6z"
       id="path248" /><path
       fill="#2C5AA0"
       d="M486.9,403.7c0,3-2.6,5.5-5.8,5.5c-3.2,0-5.9-2.5-5.9-5.5c0-3,2.6-5.5,5.9-5.5   C484.3,398.2,486.9,400.6,486.9,403.7L486.9,403.7z"
       id="path250" /><path
       fill="none"
       stroke="#2C5AA0"
       stroke-width="2.7328"
       stroke-linecap="round"
       stroke-linejoin="round"
       d="M486.9,403.7   c0,3-2.6,5.5-5.8,5.5c-3.2,0-5.9-2.5-5.9-5.5c0-3,2.6-5.5,5.9-5.5C484.3,398.2,486.9,400.6,486.9,403.7L486.9,403.7z"
       id="path252" /><path
       fill="#2C5AA0"
       d="M360,495.4c0,3-2.6,5.5-5.8,5.5c-3.2,0-5.9-2.5-5.9-5.5c0-3,2.6-5.5,5.9-5.5   C357.4,489.9,360,492.4,360,495.4L360,495.4z"
       id="path254" /><path
       fill="none"
       stroke="#2C5AA0"
       stroke-width="2.7328"
       stroke-linecap="round"
       stroke-linejoin="round"
       d="M360,495.4   c0,3-2.6,5.5-5.8,5.5c-3.2,0-5.9-2.5-5.9-5.5c0-3,2.6-5.5,5.9-5.5C357.4,489.9,360,492.4,360,495.4L360,495.4z"
       id="path256" /><path
       fill-rule="evenodd"
       clip-rule="evenodd"
       fill="#2C5AA0"
       d="M352.5,447.3c-8.1,6.6-15.3,12.4-20.6,15.7   c1.2,1.3,3.3,1.1,7.8,1.5c-3.6,1.5-8.8,0.5-10.1,0.1c-3.6,2.3-7.3,4.8-10.9,7c2.5,2.3,5.6,2.4,8.3,2.7c-2.2,1.5-10.1-0.4-10.7-1.2   c-4.4,2.7-9.2,5.3-13.6,8c2.9,2.3,7.4,2.8,13.5,2.8c-8.1,1.4-12.3,0.1-16-1.2c-4,2.4-10.9,4.6-14.9,6.9c2.5,2.3,8.3,4.9,12,5.8   c-2.8,0.4-11.3-1.3-14.4-3.9c-4.8,2.6-14.1,5.9-18.8,8.2c2,0.9,11.2,2.2,14.6,3.1c-3.4,0.7-13.8-0.4-16.7-2   c-8.2,4-23.1,11.7-30.5,14.2c0-1.1-1.6-2.2-1.7-3.6c7-3,24-8.7,31.2-12.3c-2.1-0.9-1.1-10.9,3.9-14.5c-2.8,5.5-3.8,11.4-1.7,13.5   c4.6-2.4,13.9-5.7,18.6-8.3c-1-0.9-4.4-10.5,1.1-14.9c-3.4,5.7-1,10.4,1.3,13.2c5.1-2.8,12.8-5.6,17.8-8.6c-1.1-2.7-3.3-9,3.2-13.9   c-4.3,6.1-1.8,9.5-0.5,12.1c5.2-3.1,10.4-6.3,15.5-9.5c-1.3-3.9-3.7-6.5,1.8-10.2c-3.4,5.3-2.5,4.8,1.4,8.2   c2.8-1.8,6.5-3.8,9.2-5.5c-0.1-3.4-1.7-4.2,3.1-9c-3.3,3.3-1,5-0.2,7.2C338.3,457,339,456.8,352.5,447.3L352.5,447.3z"
       id="path258" /><path
       fill="none"
       stroke="#2C5AA0"
       stroke-width="1.1275"
       d="M352.5,447.3c-8.1,6.6-15.3,12.4-20.6,15.7c1.2,1.3,3.3,1.1,7.8,1.5   c-3.6,1.5-8.8,0.5-10.1,0.1c-3.6,2.3-7.3,4.8-10.9,7c2.5,2.3,5.6,2.4,8.3,2.7c-2.2,1.5-10.1-0.4-10.7-1.2c-4.4,2.7-9.2,5.3-13.6,8   c2.9,2.3,7.4,2.8,13.5,2.8c-8.1,1.4-12.3,0.1-16-1.2c-4,2.4-10.9,4.6-14.9,6.9c2.5,2.3,8.3,4.9,12,5.8c-2.8,0.4-11.3-1.3-14.4-3.9   c-4.8,2.6-14.1,5.9-18.8,8.2c2,0.9,11.2,2.2,14.6,3.1c-3.4,0.7-13.8-0.4-16.7-2c-8.2,4-23.1,11.7-30.5,14.2c0-1.1-1.6-2.2-1.7-3.6   c7-3,24-8.7,31.2-12.3c-2.1-0.9-1.1-10.9,3.9-14.4c-2.8,5.5-3.8,11.4-1.7,13.5c4.6-2.4,13.9-5.7,18.6-8.3c-1-0.9-4.4-10.5,1.1-14.9   c-3.4,5.7-1,10.4,1.3,13.2c5.1-2.8,12.8-5.6,17.8-8.6c-1.1-2.7-3.3-9,3.2-13.9c-4.3,6.1-1.8,9.5-0.5,12.1   c5.2-3.1,10.4-6.3,15.5-9.5c-1.3-3.9-3.7-6.5,1.8-10.2c-3.4,5.3-2.5,4.8,1.4,8.2c2.8-1.8,6.5-3.8,9.2-5.5c-0.1-3.4-1.7-4.2,3.1-9   c-3.3,3.3-1,5-0.2,7.2C338.3,457,339,456.8,352.5,447.3L352.5,447.3z"
       id="path260" /><path
       fill-rule="evenodd"
       clip-rule="evenodd"
       fill="#2C5AA0"
       d="M468.2,424.3c-9.9,3-18.8,5.8-24.5,8.4c-0.4-1.7,0.9-3.3,3.1-7.4   c-3.3,2.1-5.3,7-5.7,8.3c-3.9,1.7-8,3.4-11.9,5.2c-0.5-3.3,1.1-6,2.4-8.4c-2.5,1-5.3,8.6-4.9,9.6c-4.7,2.1-9.5,4.6-14.2,6.8   c-0.3-3.7,1.8-8.1,5.2-13.1c-5.7,5.9-6.9,10.5-8,14.4c-4.2,2-9.9,8.3-14,10.4c-0.5-3.3,1.3-13,2.7-16.6c-1.9,2.1-5.9,13.5-5.5,17.6   c-4.8,2.5-12.8,10.3-17.3,12.9c0.3-2.2,4.4-10.5,5.6-13.8c-2.5,2.5-7.4,11.7-7.7,14.9c-7.9,4.6-27.2,14.2-37.9,14.4   c1,0.6,1,2.5,2,3.4c12.1-2.6,29.7-12.1,36.7-16c-0.4,2.3,15.6,7,21.4,4.8c-6.1-0.7-18.8-3.2-19.3-6.1c4.6-2.5,12.5-10.3,17.2-12.7   c0.2,1.3,12.3,9.1,19,7c-6.6-0.3-15.2-4.6-16.3-8c5.2-2.6,11.8-9.4,17.1-11.9c1.6,2.4,12.1,8.9,19.8,6.2   c-7.5,0.1-15.3-4.9-16.8-7.5c5.5-2.6,11-5.2,16.6-7.6c2.5,3.2,3.3,6.7,9.4,4.2c-6.3-0.1-5.4-0.6-6-5.7c3-1.3,6.7-3.3,9.7-4.6   c2.8,2,4,2.2,10.7,1c-4.6,0.9-6.3-0.4-7.6-2.3C452.2,430.8,452.8,430.2,468.2,424.3L468.2,424.3z"
       id="path262" /><path
       fill="none"
       stroke="#2C5AA0"
       stroke-width="1.1275"
       d="M468.2,424.3c-9.9,3-18.8,5.8-24.5,8.4c-0.4-1.7,0.9-3.3,3.1-7.4   c-3.3,2.1-5.3,7-5.7,8.3c-3.9,1.7-8,3.4-11.9,5.2c-0.5-3.3,1.1-6,2.4-8.4c-2.5,1-5.3,8.6-4.9,9.6c-4.7,2.1-9.5,4.6-14.2,6.8   c-0.3-3.7,1.8-8.1,5.2-13.1c-5.7,5.9-6.9,10.5-8,14.4c-4.2,2-9.9,8.3-14,10.4c-0.5-3.3,1.3-13,2.7-16.6c-1.9,2.1-5.9,13.5-5.5,17.6   c-4.8,2.5-12.8,10.3-17.3,12.9c0.3-2.2,4.4-10.5,5.6-13.8c-2.5,2.5-7.4,11.7-7.7,14.9c-7.9,4.6-27.2,14.2-37.9,14.4   c1,0.6,1,2.5,2,3.4c12.1-2.6,29.7-12.1,36.7-16c-0.4,2.3,15.6,7,21.4,4.8c-6.1-0.7-18.8-3.2-19.3-6.1c4.6-2.5,12.5-10.3,17.2-12.7   c0.2,1.3,12.3,9.1,19,7c-6.6-0.3-15.2-4.6-16.3-8c5.2-2.6,11.8-9.4,17.1-11.9c1.6,2.4,12.1,8.9,19.8,6.2   c-7.5,0.1-15.3-4.9-16.8-7.5c5.5-2.6,11-5.2,16.6-7.6c2.5,3.2,3.3,6.7,9.4,4.2c-6.3-0.1-5.4-0.6-6-5.7c3-1.3,6.7-3.3,9.7-4.6   c2.8,2,4,2.2,10.7,1c-4.6,0.9-6.3-0.4-7.6-2.3C452.2,430.8,452.8,430.2,468.2,424.3L468.2,424.3z"
       id="path264" /><path
       fill="#2C5AA0"
       d="M344.1,486.9c0,3-2.6,5.5-5.9,5.5c-3.2,0-5.8-2.5-5.8-5.5c0-3,2.6-5.5,5.8-5.5   C341.4,481.4,344.1,483.8,344.1,486.9L344.1,486.9z"
       id="path266" /><path
       fill="none"
       stroke="#2C5AA0"
       stroke-width="2.7328"
       stroke-linecap="round"
       stroke-linejoin="round"
       d="M344.1,486.9   c0,3-2.6,5.5-5.9,5.5c-3.2,0-5.8-2.5-5.8-5.5c0-3,2.6-5.5,5.8-5.5C341.4,481.4,344.1,483.8,344.1,486.9L344.1,486.9z"
       id="path268" /><path
       fill="#2C5AA0"
       d="M205.5,485.7c0,3-2.6,5.5-5.9,5.5c-3.2,0-5.9-2.5-5.9-5.5c0-3,2.6-5.5,5.9-5.5   C202.9,480.2,205.5,482.7,205.5,485.7L205.5,485.7z"
       id="path270" /><path
       fill="none"
       stroke="#2C5AA0"
       stroke-width="2.7328"
       stroke-linecap="round"
       stroke-linejoin="round"
       d="M205.5,485.7   c0,3-2.6,5.5-5.9,5.5c-3.2,0-5.9-2.5-5.9-5.5c0-3,2.6-5.5,5.9-5.5C202.9,480.2,205.5,482.7,205.5,485.7L205.5,485.7z"
       id="path272" /></g></svg>