<?xml version="1.0" encoding="UTF-8" ?>
<svg xmlns="http://www.w3.org/2000/svg" version="1.1" width="600" height="300">
<path fill="#de0000" d="M0 0h600v300H0z"/>
<path fill="#068e6b" d="M0 112.5h600v75H0z"/>
<path d="M75.01 14.75l-.93 2.9-2.42 7.42H60.82l2.46 1.8 6.32 4.57-2.41 7.4-.94 2.89 2.47-1.8 6.3-4.55 6.28 4.55 2.47 1.8-.94-2.9-2.4-7.41 6.28-4.56 2.47-1.8H78.35l-2.4-7.41zm0 6.4l1.7 5.2.2.7h6.17l-4.4 3.18-.59.43.25.7 1.68 5.2-4.42-3.22-.59-.43-.58.43L70 36.56l1.68-5.2.22-.7-.57-.43-4.39-3.18h6.16l.22-.7 1.68-5.2z" fill="gold"/>
<path d="M62.17 56.03L48.6 68.97l7.24 7.24 6.26-6.3 33.47 33.97c3.26 3.39 8.94-1.21 5.3-5.12-12.45-12.13-21.07-20.88-34.04-33.6l7.69-7.74z" fill="gold"/>
<path d="M61.72 92.33c24.3 22.55 63.69-18.11 13.35-47.58 37.46 41.62 1.5 54.38-11.52 41.54l-.66-.54-1.6 1.79c-1-.95-2.57-1.23-3.05.4-1.98-.14-3.15.96-3.67 3.01-3.68 2.45-7.67 4.59-9.97 8.43-1.31 4.05 1.28 5.82 4.22 5.48 4.8-2 6.3-6.31 8.87-9.88 1.82-.58 3.36-1.35 3.64-3.01" fill="gold"/>
</svg>