<?xml version="1.0" encoding="UTF-8" standalone="no"?>
<svg xmlns="http://www.w3.org/2000/svg"
   xmlns:dc="http://purl.org/dc/elements/1.1/"
   xmlns:cc="http://creativecommons.org/ns#"
   xmlns:rdf="http://www.w3.org/1999/02/22-rdf-syntax-ns#"
   width="468" height="468">
  <metadata>
    <rdf:RDF>
      <cc:Work rdf:about="">
        <dc:format>image/svg+xml</dc:format>
        <dc:type rdf:resource="http://purl.org/dc/dcmitype/StillImage"/>
      </cc:Work>
    </rdf:RDF>
  </metadata>
  <circle fill="#0f47af"
     cx="234.52" cy="234.564" r="225.001"/>
  <path fill="#fcdd09"
     d="M63.3284,178.241H194.107L223.675,87.2361 L231.562,111.507L188.59,243.756L175.831,234.485L189.232,193.241H83.9741 L63.3284,178.241 M128.717,379.486L169.129,255.11L91.7166,198.866H117.236L229.735,280.6 L216.973,289.87L181.891,264.382L149.363,364.486L128.717,379.486 M340.321,379.486L234.52,302.617L157.105,358.861L164.991,334.591 L277.489,252.857L282.364,267.856L247.279,293.347L332.434,355.216 L340.321,379.486 M405.709,178.241L299.908,255.11L329.476,346.117L308.83,331.117 L265.861,198.866H281.632L295.033,240.11L380.188,178.241H405.709 M234.52,53.8643L274.93,178.241H370.618L349.975,193.241H210.919 L215.791,178.241H259.159L226.633,78.1345L234.52,53.8643Z"/>
  <path stroke="#fcdd09" stroke-width="7.5" fill="none"
     d="M234.52,317.065V414.565 M156.057,260.057L63.3286,290.188 M186.028,167.82L128.718,88.9404 M283.012,167.82L340.321,88.9404 M312.982,260.057L405.709,290.188L312.982,260.057Z"/>
</svg>