<?xml version="1.0" encoding="UTF-8" standalone="no"?>
<!-- Created with Inkscape (http://www.inkscape.org/) -->

<svg
   xmlns:dc="http://purl.org/dc/elements/1.1/"
   xmlns:cc="http://creativecommons.org/ns#"
   xmlns:rdf="http://www.w3.org/1999/02/22-rdf-syntax-ns#"
   xmlns:svg="http://www.w3.org/2000/svg"
   xmlns="http://www.w3.org/2000/svg"
   xmlns:sodipodi="http://sodipodi.sourceforge.net/DTD/sodipodi-0.dtd"
   xmlns:inkscape="http://www.inkscape.org/namespaces/inkscape"
   version="1.0"
   width="556.85565"
   height="558.45886"
   viewBox="0 0 15715703 15760950"
   id="svg5129"
   xml:space="preserve"
   inkscape:version="0.47 r22583"
   sodipodi:docname="VVa1.svg"><metadata
     id="metadata75"><rdf:RDF><cc:Work
         rdf:about=""><dc:format>image/svg+xml</dc:format><dc:type
           rdf:resource="http://purl.org/dc/dcmitype/StillImage" /></cc:Work></rdf:RDF></metadata><sodipodi:namedview
     pagecolor="#ffffff"
     bordercolor="#666666"
     borderopacity="1"
     objecttolerance="10"
     gridtolerance="10"
     guidetolerance="10"
     inkscape:pageopacity="0"
     inkscape:pageshadow="2"
     inkscape:window-width="1280"
     inkscape:window-height="1004"
     id="namedview73"
     showgrid="false"
     inkscape:zoom="0.80732657"
     inkscape:cx="291.22225"
     inkscape:cy="256.0305"
     inkscape:window-x="-8"
     inkscape:window-y="-8"
     inkscape:window-maximized="1"
     inkscape:current-layer="palms" /><defs
     id="defs5774"><inkscape:perspective
       sodipodi:type="inkscape:persp3d"
       inkscape:vp_x="0 : 292.32285 : 1"
       inkscape:vp_y="0 : 1000 : 0"
       inkscape:vp_z="584.64569 : 292.32285 : 1"
       inkscape:persp3d-origin="292.32285 : 194.8819 : 1"
       id="perspective77" /></defs><g
     transform="translate(-385229.31,-428747.32)"
     id="global"><circle
       cx="8250000"
       cy="7319040"
       r="6059330"
       style="fill:#ffffff"
       id="white-bg"
       sodipodi:cx="8250000"
       sodipodi:cy="7319040"
       sodipodi:rx="6059330"
       sodipodi:ry="6059330"
       d="m 14309330,7319040 c 0,3346476 -2712854,6059330 -6059330,6059330 -3346475.6,0 -6059330,-2712854 -6059330,-6059330 0,-3346475.6 2712854.4,-6059330 6059330,-6059330 3346476,0 6059330,2712854.4 6059330,6059330 z" /><path
       d="m 8249559,1259416.6 c -3344750,0 -6058958.1,2715090.3 -6058958,6059840 0,3344750.4 2714208,6058958.4 6058958,6058958.4 3344750,0 6059840,-2714208 6059840,-6058958.4 0,-3344750 -2715090,-6059840 -6059840,-6059840 z m 0,250472.2 c 3206877,0 5810250,2602490.7 5810250,5809367.8 0,3206877.4 -2603373,5809367.4 -5810250,5809367.4 -3206877.1,0 -5809367.8,-2602490 -5809367.8,-5809367.4 -0.1,-3206876.8 2602490.7,-5809367.8 5809367.8,-5809367.8 z"
       style="fill:#06376c"
       id="border" /><path
       d="m 292.3125,61.9375 c -108.96115,-10e-7 -197.375,88.44511 -197.375,197.40625 2e-6,108.96114 88.41385,197.375 197.375,197.375 108.96116,10e-6 197.40625,-88.41382 197.40625,-197.375 0,-108.96115 -88.44509,-197.40625 -197.40625,-197.40625 z m -0.0937,29.28125 c 92.7499,-3e-6 168.03125,75.3022 168.03125,168.09375 0,92.79156 -75.28135,168.125 -168.03125,168.125 -92.74989,-10e-6 -168.03125,-75.33345 -168.03125,-168.125 0,-92.79154 75.28135,-168.09375 168.03125,-168.09375 z"
       transform="scale(28222.221,28222.221)"
       style="fill:#06376c"
       id="inner_circle" /><g
       id="bars"><path
         d="m 120.125,327.25 c 2.37472,6.24608 5.07277,12.34662 8.0625,18.25 l 328.0625,0 c 2.98973,-5.90338 5.68778,-12.00392 8.0625,-18.25 l -344.1875,0 z"
         transform="scale(28222.221,28222.221)"
         style="fill:#06376c"
         id="bar_top" /><path
         d="m 135.28125,358.28125 c 3.90151,6.41898 8.20523,12.56246 12.8125,18.4375 l 288.25,0 c 4.60727,-5.87504 8.91099,-12.01852 12.8125,-18.4375 l -313.875,0 z"
         transform="scale(28222.221,28222.221)"
         style="fill:#06376c"
         id="bar_middle" /><path
         d="m 158.84375,389.28125 c 6.31321,6.73777 13.11742,12.99341 20.34375,18.71875 l 226.0625,0 c 7.22632,-5.72534 14.03054,-11.98098 20.34375,-18.71875 l -266.75,0 z"
         transform="scale(28222.221,28222.221)"
         style="fill:#06376c"
         id="bar_bottom" /></g><path
       d="m 5506583.5,8577459.2 -49198.4,-151412.9 -211603.9,68757.3 -37293.7,-114749.2 c -23010,-70835.5 34040.2,-100174 91325.5,-123278 15760,-6930.3 71907.5,-27871.6 87234.9,-47251.9 l -48653,-149767.4 c -14565.8,27222.8 -99233.6,57454.6 -123137,66989.6 -53730.8,22887.8 -117118.8,63265.8 -111646.1,129879.2 l -1655,545.4 c -43434.1,-53392.3 -112633.4,-64206.1 -175306.8,-43829.1 -117222.3,38083.6 -130819.6,154092.9 -97484.7,256627.2 l 96252.9,296328.1 581165.3,-188838.3 z m -509079.2,-1993.5 -39146.2,-120475.9 c -13747.7,-42324.5 -5322.3,-82843.6 37810.9,-96864 43951.3,-14293.1 76298.9,2191 91128,47797.3 l 41243.1,126973.5 -131035.8,42569.1 z m 325591.4,-565198.4 -60388.4,-491861.6 -135916.2,16709.7 40998.7,333838.2 -115548.5,14189.6 -36503.9,-297334.2 -122300.1,15026.5 36513.3,297315.5 -106201.6,13051.9 -39964.3,-325337.5 -126550.4,15515.5 59344.6,483361 606516.8,-74474.6 z m -71296.3,-556697.8 5538.6,-159104.9 -203564,-7090.1 4579.5,-130866.6 c 4682.8,-134289.4 -51314.2,-222737.4 -202708.3,-228031.5 -144557.9,-5049.6 -200460.8,100023.6 -204429,213813.6 l -10118.1,289943.3 610701.3,21336.2 z M 4774080.5,7277595 4777823,7170669.4 c 1702,-48756.4 26066.1,-84724.3 83389,-82721.4 55611.5,1946.5 74869.6,38600.8 73148.7,88194.1 l -3742.5,106916.3 -156537.7,-5463.4 z m -196031.9,-813165 105571.5,109586.7 23104.1,-100098.7 -94014.8,-159593.9 -34660.8,150105.9 z m 221797.1,-226376.5 -35817.4,155127.2 358578.3,82777.8 c 76712.6,17715.9 109379.9,55113.1 91861.5,130988.8 -17537.3,75903.9 -63265.9,95199.6 -139978.5,77483.7 l -358597.1,-82777.8 -35798.6,155108.5 349410.1,80662 c 172626.8,39860.8 276928.9,-19512 318520,-199624 41581.7,-180140.1 -26160.2,-279223.4 -198768.2,-319065.4 l -349410.1,-80680.8 z m 442588,-200884 53881.2,-115567.3 c 20273.7,-43453 52442.6,-69961 101321.2,-47176.7 45756.8,21336.2 47233.1,60726.9 25868.7,106502.5 l -53871.9,115567.3 -127199.2,-59325.8 z m 175485.5,257492.2 124058.5,-266068.1 c 55338.8,-118670.4 60237.9,-234435.2 -71634.8,-295923.8 -62823.8,-29291.4 -131017,-16700.3 -175579.5,34265.9 -1457.6,-53552.2 -28040.9,-101819.6 -77709.4,-124970.7 -115567.3,-53909.4 -189223.8,39212 -232140.8,135342.6 l -120814.4,259100.2 553820.4,258253.9 z m -374865,-350463.3 52104,-111702.5 c 14095.7,-30231.8 40679,-52799.9 81000.6,-33974.3 39569.3,18430.6 36832.9,58733.4 25276.2,83539.4 l -52104,111702.6 -106276.8,-49565.2 z m 635234.6,-183421.9 261093.7,-359358.8 -110790.4,-80464.6 -167492.6,230542.2 -383610.1,-278678 -93563.5,128797.8 494362.9,359161.4 z m 297014.6,-399294.9 104433.7,-120146.8 -461159.6,-400884 -104461.9,120127.9 461187.8,400902.9 z m 337411.4,-854746.7 c -97898.4,-110019.3 -261310,-82382.9 -362245.7,2341.4 -141633.4,118820.9 -142639.6,304010.7 -28774.3,439729.4 113865.3,135718.7 296544.4,166984.9 438149.6,48135.8 118651.6,-99553.4 147642.2,-244731.9 52997.4,-370896.8 l -121952.2,102336.8 c 40528.5,57623.8 35253.2,117908.7 -21778.2,165753 -78687.3,66030.4 -167154.2,21825.2 -225464.4,-47665.6 -58319.6,-69472 -86473.3,-164295.5 -7786,-230297.7 51116.7,-42916.9 108740.5,-48803.4 154911,-7099.5 l 121942.8,-102336.8 z m 306380.3,-234924.2 1476.3,-836.9 162866.2,154337.4 -121256.3,67234 -43086.2,-220734.5 z m -55508.1,535681.3 143081.6,-79326.8 -19436.8,-114485.9 186393.4,-103295.9 86059.6,77549.5 145206.7,-80483.4 -496102.5,-423687.2 -141483,78414.6 96281,645315.1 z m 822521.4,-392722 256015.9,-59100.1 c 180948.9,-41788.5 267619.7,-172457.6 222558.7,-367596.2 -42540.8,-184296.4 -177375.5,-269979.9 -360007.6,-227834 l -256034.7,59128.3 137467.7,595402 z m 48455.5,-497795.1 73365,-16944.8 c 105910.1,-24439.4 176416.5,14603.4 201448.2,123024.1 27542.5,119244 -8594.6,175908.7 -125591.2,205538.7 l -73365.1,16954.2 -75856.9,-328572.2 z m 569730.8,380770.3 495453.7,-8641.7 -2388.4,-136903.5 -336283,5867.7 -2040.6,-116385.4 299497.1,-5218.9 -2144,-123212.2 -299497,5228.2 -1871.3,-106991.4 327725.9,-5717.2 -2209.7,-127490.8 -486906.1,8500.6 10663.4,610964.6 z m 1477051.7,-200978 c 33974.4,-143307.3 -82382.8,-261310 -209676.1,-295406.6 -178560.4,-47844.3 -330866.6,57520.3 -376708,228642.7 -45850.8,171122.4 33306.7,338699.7 211867.1,386544 149616.9,40077.1 285185.1,-19436.8 334214.2,-169326.4 L 9287261.1,4206006 c -23941,66246.7 -76345.9,96525.5 -148253.4,77258 -99214.9,-26583.3 -113743.1,-124434.7 -90272.3,-212045.8 23452,-87629.9 84968.8,-165085.4 184183.7,-138502.1 64469.4,17292.8 102355.5,61103.1 94673,122864.3 l 153754.3,41186.8 z m 367662,124585.1 1504.6,789.9 -36880,221326.9 -123522.5,-62946.1 158897.9,-159170.7 z m -475151.8,253552.2 145799.1,74277.2 84028.5,-80116.7 189872.6,96751.2 -16164.3,114702.2 147914.8,75358.5 73835.2,-648192.4 -144115.9,-73440.3 -481170,440660.3 z m 858884.4,189524.8 100466,78518 c 37792,29507.8 56392,66839.1 23179,109332.9 -31059,39785.6 -69792,32347.5 -109577,1260 l -100485,-78489.8 86417,-110621.1 z m -290385.4,113084.8 231332.4,180723.2 c 103202,80615 214904,111429.8 304481,-3225.4 42663,-54614.7 45747,-123917.5 6084,-178786.1 52518,10625.8 105543,-4429 139264,-47590.4 78518,-100493.7 4363,-193201.5 -79675,-256664.7 l -225267,-175993.3 -376219.4,481536.7 z m 425812.4,-286426.4 97118,75885.1 c 26283,20546.4 42297,51511.6 14905,86567.4 -26885,34416.3 -65532,22690.3 -87094,5839.4 l -97137,-75875.7 72208,-92416.2 z m 256261,444167.7 c -133697,116235 -169073,290996.4 -42720,436353.6 126334,145328.9 304331,134609.1 438028,18374.2 133697,-116206.8 168959,-290902.4 42644,-436203.1 -126353,-145347.8 -304227,-134731.4 -437952,-18524.7 z m 104462,120146.8 c 68456,-59495.1 162762,-89303.7 230147,-11801.2 67375,77502.5 24731,166759.2 -43735,226254.2 -68457,59523.3 -162763,89332 -230147,11829.5 -67375,-77530.8 -24731,-166759.2 43735,-226282.5 z m 988124,1028304.5 -70196,-150500.8 -462486,83492.5 -743,-1551.6 361240,-300681.9 -70215,-150604.2 -472397,432911.9 77409,165988.2 637388,-79054.1 z m -556707,279524.3 119883,480812.6 132860,-33128 -81377,-326353 112935,-28163.1 72481,290657.9 119554,-29808.7 -72453,-290657.9 103823,-25887.4 79298,318049.9 123720,-30852.5 -117805,-472509.4 -592919,147839.6 z m 139865,549353.7 5539,159095.5 222389,-7757.8 4213,120598.1 c 2586,74418.2 -60360,86915.3 -121774,93319 -17048,2313.2 -76816,6967.9 -96873,21383.2 l 5501,157374.7 c 21477,-22144.9 111204,-27862.2 136800,-30476.3 57972,-7165.4 130030,-28501.6 143138,-94061.8 l 1721,-47.1 c 27025,63265.9 90582,92754.8 156434,90441.6 123184,-4288 168245,-112069.3 164474,-219831.8 l -10889,-311345.3 -610673,21308 z m 488796,142225.9 4439,126606.8 c 1551,44459.1 -17735,81094.6 -63069,82702.6 -46189,1598.6 -72725,-23160.5 -74399,-71080 l -4655,-133405.5 137684,-4823.9 z m -477173,447957.3 -32028,260821 c -22615,184296.5 70534,310433.1 269303,334844.3 187747,23066.4 314373,-74343 337214,-260369.7 l 32027,-260821 -606516,-74474.6 z m 451211,215778.9 -9169,74775.5 c -13249,107875.4 -74079,160769.3 -184522,147219 -121482,-14923.1 -162349,-68240.2 -150181,-188311.7 l 9168,-74775.5 334704,41092.7 z m -563600,406770.6 -153134,471305.8 130227,42305.7 103935,-319902.3 110716,35967.9 -92586,284893.6 117194,38083.6 92586,-284884.2 101744,33052.8 -101274,311749.6 121256,39390.7 150501,-463134.3 -581165,-188828.9 z"
       style="fill:#1f1a17;fill-rule:nonzero"
       id="text" /><g
       transform="matrix(0.9050607,0,0,0.9050607,783235.65,564847.41)"
       id="center"><polygon
         points="8250010,4755040 8250010,4755040 9391210,6731630 10532400,8708220 8250010,8708220 5967630,8708220 7108810,6731630 "
         style="fill:#06376c;stroke:none"
         id="blue_triangle" /><g
         transform="translate(83493.25,0)"
         id="torch"><g
           transform="translate(-22198.586,0)"
           id="flame"><path
             d="m 7852898,6668419 c -237916.1,9031.2 -204054.5,-196149.2 -160768,-317413.7 144188.6,67788.8 269757.5,191945.9 160768,317413.7 z"
             transform="matrix(1.1048983,0,0,1.1048983,-865395.71,-624098.93)"
             style="fill:#ffffff;fill-opacity:1;fill-rule:evenodd;stroke:#06376c;stroke-width:56444.44140625;stroke-linecap:butt;stroke-linejoin:miter;stroke-miterlimit:4;stroke-opacity:1;stroke-dasharray:none"
             id="left_flame" /><path
             d="m 8281612.6,5654344.1 c -331517.9,191067 -591147.1,566576.6 -222601.8,898651.8 l 82445.1,-136034.5 140156.7,160768 c 29669.3,-181699.6 232778.5,-319057.8 177257.1,-535893.2 0,0 -45344.9,78322.7 -119545.5,74200.6 16869.4,-96655.6 -70703.5,-263316.7 -57711.6,-461692.7 z"
             transform="matrix(1.1048983,0,0,1.1048983,-865395.71,-624098.93)"
             style="fill:#ffffff;fill-rule:evenodd;stroke:#06376c;stroke-width:56444.44140625;stroke-linecap:butt;stroke-linejoin:miter;stroke-miterlimit:4;stroke-opacity:1;stroke-dasharray:none"
             id="center_flame" /><path
             d="m 8685593.7,6169626.1 c 108127.7,433416 -14884.3,463070.4 -107178.7,507037.5 -236487.7,-68484.4 -139865.8,-396018.2 107178.7,-507037.5 z"
             transform="matrix(1.1048983,0,0,1.1048983,-865395.71,-624098.93)"
             style="fill:#ffffff;fill-rule:evenodd;stroke:#06376c;stroke-width:56444.44140625;stroke-linecap:butt;stroke-linejoin:miter;stroke-miterlimit:4;stroke-opacity:1;stroke-dasharray:none"
             id="right_flame" /></g><rect
           width="1673877.5"
           height="257812.38"
           ry="59981.945"
           x="7329583"
           y="6949907.5"
           style="fill:#ffffff;fill-opacity:1;stroke:none"
           id="torch_base"
           rx="59981.945" /><path
           d="m 8028004.6,7963867 c 0,-89638.3 -2309.9,-422008.9 -339562.4,-422008.9 l 0,-135176.4 956159.1,0 0,138749 c -322686,0 -328280,316885.1 -328280,418456.3 l 0,766594.4 -288316.7,0 0,-766614.4 z"
           style="fill:#ffffff;stroke:none"
           id="torch_handle" /><rect
           width="573095.81"
           height="272466.12"
           ry="136233.06"
           x="7879974"
           y="7958573.5"
           style="fill:#ffffff;fill-opacity:1;stroke:#06376c;stroke-width:124730.734375;stroke-miterlimit:4;stroke-opacity:1;stroke-dasharray:none"
           id="torch_handle_ring"
           rx="136233.06" /></g></g><g
       id="plumb_bob"><path
         d="m 8249999.9,442858.43 c -140148.6,0 -253763.5,113603.25 -253763.2,253763.23 0,140171.18 113614.6,253763.23 253763.2,253763.23 140148.7,0 253763.6,-113592.08 253763.3,-253763.23 0,-140159.96 -113614.6,-253763.23 -253763.3,-253763.23 z m 0,133299.76 c 66391,0 120463.5,54072.5 120463.5,120463.47 0,66379.76 -54072.5,120463.48 -120463.5,120463.48 -66390.9,0 -119476.1,-54083.69 -119476.1,-120463.48 0,-66391 53085.2,-120463.47 119476.1,-120463.47 z"
         style="fill:#fcd116;stroke:#000000;stroke-width:28222.21875;stroke-miterlimit:4;stroke-opacity:1;stroke-dasharray:none"
         id="circle" /><path
         d="m 8113888.6,950377.59 c 5127.5,101964.61 -112136.7,309519.21 -348497.8,309519.21 m 1101346.1,161.9 -1233473.9,0 c 143414.2,0 411158,-184175.8 411158,-309618.49 l 411157.9,0 c 0,128519.39 260004.6,309618.49 411158,309618.49 z M 8219706.4,950281.23 c 0,0 -25838.1,309664.77 -223342,309664.77"
         style="fill:#fcd116;fill-rule:nonzero;stroke:#000000;stroke-width:28222.22070313;stroke-linecap:butt;stroke-linejoin:miter;stroke-miterlimit:4;stroke-opacity:1"
         id="body_top" /><path
         d="m 8249999.9,3109112.2 796069,-1849037.7 -1592137.4,28 796068.4,1849009.7 z m -484592.2,-1849009.7 484611.3,1848768 m -265373.2,-1848768 265351.1,1848869.8 m -657966.2,-1848869.8 658033.2,1848862.8"
         style="fill:#fcd116;stroke:#000000;stroke-width:28222.22070313;stroke-miterlimit:4;stroke-opacity:1"
         id="body_bottom" /></g><g
       id="chain"><g
         transform="matrix(0.9396926,0.3420201,-0.3420201,0.9396926,5651419.5,-2132117.5)"
         id="right_link_rotation"><path
           d="m 364.21875,510.59375 c -3.48374,0.1627 -6.95162,1.04864 -10.09375,2.59375 l -36.25,17.84375 c -10.05448,4.94447 -17.01744,16.84906 -11.6875,27.6875 5.32996,10.83845 19.00815,12.60039 29.0625,7.65625 l 36.25,-17.8125 c 10.05414,-4.94461 16.98632,-16.88065 11.65625,-27.71875 -3.66434,-7.45144 -11.27326,-10.60795 -18.9375,-10.25 z m 1.40625,9.8125 c 3.84298,0.0821 7.19743,1.78266 8.6875,4.8125 2.38377,4.84761 -0.85911,11.35662 -7.1875,14.46875 L 330.90625,557.5 c -6.32839,3.11215 -13.45998,1.69135 -15.84375,-3.15625 -2.38411,-4.84773 0.82754,-11.35674 7.15625,-14.46875 l 36.25,-17.8125 c 2.37332,-1.16713 4.85046,-1.7055 7.15625,-1.65625 z"
           transform="matrix(26520.214,-9652.5676,9652.5676,26520.214,-4623644.7,4076469.8)"
           style="fill:#fcd116;stroke:#000000;stroke-opacity:1"
           id="right_link" /></g><g
         transform="matrix(0.9396926,-0.3420201,0.3420201,0.9396926,-4655890,3511079.6)"
         id="left_link_rotation"><path
           d="m 218.34375,510.59375 c -6.92893,0.26223 -13.54378,3.47598 -16.875,10.25 -5.33007,10.8381 1.63335,22.77417 11.6875,27.71875 L 249.375,566.375 c 10.05435,4.94414 23.73256,3.18217 29.0625,-7.65625 5.32994,-10.83844 -1.60179,-22.743 -11.65625,-27.6875 l -36.25,-17.84375 c -3.77055,-1.85413 -8.03014,-2.75109 -12.1875,-2.59375 z M 219,520.40625 c 2.30579,-0.0492 4.81418,0.48912 7.1875,1.65625 l 36.21875,17.8125 c 6.32873,3.11204 9.57161,9.62102 7.1875,14.46875 -2.38378,4.84762 -9.51536,6.2684 -15.84375,3.15625 L 217.5,539.6875 c -6.32839,-3.11216 -9.54002,-9.62114 -7.15625,-14.46875 1.49007,-3.02982 4.81327,-4.73043 8.65625,-4.8125 z"
           transform="matrix(26520.214,9652.5676,-9652.5676,26520.214,5618716.3,-1566862.8)"
           style="fill:#fcd116;stroke:#000000;stroke-opacity:1"
           id="left_link" /></g><path
         d="m 7441418.4,15509823 1598900,0 c 104659.1,0 153838.1,74525 153838.1,143585 0,66720 -48334.7,143585 -153838.1,143585 l -1598900,0 c -101387.2,0 -135574.9,-77207 -135574.9,-143585 0,-68726 41732.9,-143585 135574.9,-143585 z"
         style="fill:#fcd116;stroke:#000000;stroke-width:28222.22070313;stroke-miterlimit:4;stroke-opacity:1;stroke-dasharray:none"
         id="middle_link" /></g><g
       id="palms"><g
         id="right_palm"
         style="stroke:#00923f;stroke-opacity:1"><path
           d="m 11324771,14763053 31284,157786 c 1891284,-1009558 3394282,-2655887 4180194,-4455715 -706547,1376460 -2014812,3136678 -4211478,4297929 z"
           style="fill:#00923f;stroke:#00923f;stroke-width:28222.22070313;stroke-miterlimit:4;stroke-opacity:1;stroke-dasharray:none"
           id="right_stem" /><path
           d="m 12032376,14340827 c -167445,-592520 72547,-969574 389019,-1314081 -129825,507191 -257388,650208 -389019,1314081 z"
           style="fill:#00923f;stroke:#00923f;stroke-width:28222.22070313;stroke-linejoin:round;stroke-miterlimit:4;stroke-opacity:1;stroke-dasharray:none"
           id="leaf_R1" /><path
           d="m 12314383,14341949 c 546092,160712 1169696,-4906 1656668,-541670 -495330,223146 -1084633,473492 -1656668,541670 z"
           style="fill:#00923f;stroke:#00923f;stroke-width:28222.22070313;stroke-linejoin:round;stroke-miterlimit:4;stroke-opacity:1;stroke-dasharray:none"
           id="leaf_R2" /><path
           d="m 12547127,13983246 c -46367,-860933 128457,-1201608 589777,-1783508 -200717,647862 -377380,1268995 -589777,1783508 z"
           style="fill:#00923f;stroke:#00923f;stroke-width:28222.22070313;stroke-linejoin:round;stroke-miterlimit:4;stroke-opacity:1;stroke-dasharray:none"
           id="leaf_R3" /><path
           d="m 12980888,13835541 c 451810,68375 1177475,-120909 1611440,-657854 -416335,241577 -1069731,409658 -1611440,657854 z"
           style="fill:#00923f;stroke:#00923f;stroke-width:28222.22070313;stroke-linejoin:round;stroke-miterlimit:4;stroke-opacity:1;stroke-dasharray:none"
           id="leaf_R4" /><path
           d="m 13265722,13409200 c -94918,-870516 91967,-1376574 575084,-1904826 -160528,707698 -454369,1265799 -575084,1904826 z"
           style="fill:#00923f;stroke:#00923f;stroke-width:28222.22070313;stroke-linejoin:round;stroke-miterlimit:4;stroke-opacity:1;stroke-dasharray:none"
           id="leaf_R5" /><path
           d="m 13649943,13211011 c 1057932,7127 1361227,-414391 1692533,-954213 -550688,571243 -845600,529704 -1692533,954213 z"
           style="fill:#00923f;stroke:#00923f;stroke-width:28222.22070313;stroke-linejoin:round;stroke-miterlimit:4;stroke-opacity:1;stroke-dasharray:none"
           id="leaf_R6" /><path
           d="m 13884632,12798454 c -60248,-567811 117034,-1415466 674745,-1962605 -201106,795276 -446100,1249252 -674745,1962605 z"
           style="fill:#00923f;stroke:#00923f;stroke-width:28222.22070313;stroke-linejoin:round;stroke-miterlimit:4;stroke-opacity:1;stroke-dasharray:none"
           id="leaf_R7" /><path
           d="m 14292386,12513792 c 667196,72957 1140406,-503239 1366757,-1045226 -510714,475605 -787131,769515 -1366757,1045226 z"
           style="fill:#00923f;stroke:#00923f;stroke-width:28222.22070313;stroke-linejoin:round;stroke-miterlimit:4;stroke-opacity:1;stroke-dasharray:none"
           id="leaf_R8" /><path
           d="m 14461025,12129577 c 8886,-628334 357508,-1371471 875578,-1825740 -256559,610130 -405668,882191 -875578,1825740 z"
           style="fill:#00923f;stroke:#00923f;stroke-width:28222.22070313;stroke-linejoin:round;stroke-miterlimit:4;stroke-opacity:1;stroke-dasharray:none"
           id="leaf_R9" /><path
           d="m 14846350,11754256 c 522133,-430913 634850,-693967 1053451,-1176664 -61558,412626 -541657,1238747 -1053451,1176664 z"
           style="fill:#00923f;stroke:#00923f;stroke-width:28222.22070313;stroke-linejoin:round;stroke-miterlimit:4;stroke-opacity:1;stroke-dasharray:none"
           id="leaf_R10" /><path
           d="m 15312075,10901525 c 189366,-722636 415882,-898436 774747,-1552919.3 -135415,675217.3 -148231,868556.3 -774747,1552919.3 z"
           style="fill:#00923f;stroke:#00923f;stroke-width:28222.22070313;stroke-linejoin:round;stroke-miterlimit:4;stroke-opacity:1;stroke-dasharray:none"
           id="leaf_R11" /></g><g
         transform="matrix(-1,0,0,1,16486162,-17611.299)"
         id="left_palm"
         style="stroke:#00923f;stroke-opacity:1"><path
           d="m 11324771,14763053 31284,157786 c 1891284,-1009558 3394282,-2655887 4180194,-4455715 -706547,1376460 -2014812,3136678 -4211478,4297929 z"
           style="fill:#00923f;stroke:#00923f;stroke-width:28222.22070313;stroke-miterlimit:4;stroke-opacity:1;stroke-dasharray:none"
           id="left_stem" /><path
           d="m 12032376,14340827 c -167445,-592520 72547,-969574 389019,-1314081 -129825,507191 -257388,650208 -389019,1314081 z"
           style="fill:#00923f;stroke:#00923f;stroke-width:28222.22070313;stroke-linejoin:round;stroke-miterlimit:4;stroke-opacity:1;stroke-dasharray:none"
           id="leaf_L1" /><path
           d="m 12314383,14341949 c 546092,160712 1169696,-4906 1656668,-541670 -495330,223146 -1084633,473492 -1656668,541670 z"
           style="fill:#00923f;stroke:#00923f;stroke-width:28222.22070313;stroke-linejoin:round;stroke-miterlimit:4;stroke-opacity:1;stroke-dasharray:none"
           id="leaf_L2" /><path
           d="m 12547127,13983246 c -46367,-860933 128457,-1201608 589777,-1783508 -200717,647862 -377380,1268995 -589777,1783508 z"
           style="fill:#00923f;stroke:#00923f;stroke-width:28222.22070313;stroke-linejoin:round;stroke-miterlimit:4;stroke-opacity:1;stroke-dasharray:none"
           id="leaf_L3" /><path
           d="m 12980888,13835541 c 451810,68375 1177475,-120909 1611440,-657854 -416335,241577 -1069731,409658 -1611440,657854 z"
           style="fill:#00923f;stroke:#00923f;stroke-width:28222.22070313;stroke-linejoin:round;stroke-miterlimit:4;stroke-opacity:1;stroke-dasharray:none"
           id="leaf_L4" /><path
           d="m 13265722,13409200 c -94918,-870516 91967,-1376574 575084,-1904826 -160528,707698 -454369,1265799 -575084,1904826 z"
           style="fill:#00923f;stroke:#00923f;stroke-width:28222.22070313;stroke-linejoin:round;stroke-miterlimit:4;stroke-opacity:1;stroke-dasharray:none"
           id="leaf_L5" /><path
           d="m 13649943,13211011 c 1057932,7127 1361227,-414391 1692533,-954213 -550688,571243 -845600,529704 -1692533,954213 z"
           style="fill:#00923f;stroke:#00923f;stroke-width:28222.22070313;stroke-linejoin:round;stroke-miterlimit:4;stroke-opacity:1;stroke-dasharray:none"
           id="leaf_L6" /><path
           d="m 13884632,12798454 c -60248,-567811 117034,-1415466 674745,-1962605 -201106,795276 -446100,1249252 -674745,1962605 z"
           style="fill:#00923f;stroke:#00923f;stroke-width:28222.22070313;stroke-linejoin:round;stroke-miterlimit:4;stroke-opacity:1;stroke-dasharray:none"
           id="leaf_L7" /><path
           d="m 14292386,12513792 c 667196,72957 1140406,-503239 1366757,-1045226 -510714,475605 -787131,769515 -1366757,1045226 z"
           style="fill:#00923f;stroke:#00923f;stroke-width:28222.22070313;stroke-linejoin:round;stroke-miterlimit:4;stroke-opacity:1;stroke-dasharray:none"
           id="leaf_L8" /><path
           d="m 14461025,12129577 c 8886,-628334 357508,-1371471 875578,-1825740 -256559,610130 -405668,882191 -875578,1825740 z"
           style="fill:#00923f;stroke:#00923f;stroke-width:28222.22070313;stroke-linejoin:round;stroke-miterlimit:4;stroke-opacity:1;stroke-dasharray:none"
           id="leaf_L9" /><path
           d="m 14846350,11754256 c 522133,-430913 634850,-693967 1053451,-1176664 -61558,412626 -541657,1238747 -1053451,1176664 z"
           style="fill:#00923f;stroke:#00923f;stroke-width:28222.22070313;stroke-linejoin:round;stroke-miterlimit:4;stroke-opacity:1;stroke-dasharray:none"
           id="leaf_L10" /><path
           d="m 15312075,10901525 c 189366,-722636 415882,-898436 774747,-1552919.3 -135415,675217.3 -148231,868556.3 -774747,1552919.3 z"
           style="fill:#00923f;stroke:#00923f;stroke-width:28222.22070313;stroke-linejoin:round;stroke-miterlimit:4;stroke-opacity:1;stroke-dasharray:none"
           id="leaf_L11" /></g></g><g
       transform="translate(25502.5,0)"
       id="stars"
       style="stroke:#fcd116;stroke-opacity:1"><g
         transform="translate(114000,0)"
         id="left_stars"
         style="stroke:#fcd116;stroke-opacity:1"><polygon
           points="1915630,3534430 2016100,3227150 1754180,3037600 2077470,3038220 2176790,2730570 2176790,2730570 2276100,3038220 2599430,3037600 2337470,3227150 2437960,3534430 2176790,3343910 "
           transform="translate(80882.352,20220.588)"
           style="fill:#fcd116;stroke:#fcd116;stroke-width:28222.22070313;stroke-miterlimit:4;stroke-opacity:1;stroke-dasharray:none"
           id="star_L1" /><polygon
           points="1188730,4770160 1289200,4462880 1027280,4273330 1350570,4273950 1449890,3966300 1449890,3966300 1549200,4273950 1872530,4273330 1610570,4462880 1711060,4770160 1449890,4579640 "
           transform="translate(60661.765,-20220.588)"
           style="fill:#fcd116;stroke:#fcd116;stroke-width:28222.22070313;stroke-miterlimit:4;stroke-opacity:1;stroke-dasharray:none"
           id="star_L2" /><polygon
           points="704130,5933200 804610,5625920 542680,5436370 865970,5436990 965290,5129340 965290,5129340 1064600,5436990 1387930,5436370 1125970,5625920 1226460,5933200 965290,5742680 "
           transform="translate(101102.94,101102.94)"
           style="fill:#fcd116;stroke:#fcd116;stroke-width:28222.22070313;stroke-miterlimit:4;stroke-opacity:1;stroke-dasharray:none"
           id="star_L3" /><polygon
           points="558750,7265850 659220,6958570 397300,6769020 720590,6769640 819910,6461990 819910,6461990 919220,6769640 1242550,6769020 980590,6958570 1081070,7265850 819910,7075330 "
           transform="translate(40441.176,101102.94)"
           style="fill:#fcd116;stroke:#fcd116;stroke-width:28222.22070313;stroke-miterlimit:4;stroke-opacity:1;stroke-dasharray:none"
           id="star_L4" /><polygon
           points="728360,8550040 828830,8242760 566910,8053210 890200,8053830 989520,7746180 989520,7746180 1088820,8053830 1412160,8053210 1150190,8242760 1250690,8550040 989520,8359520 "
           transform="translate(80882.353,181985.29)"
           style="fill:#fcd116;stroke:#fcd116;stroke-width:28222.22070313;stroke-miterlimit:4;stroke-opacity:1;stroke-dasharray:none"
           id="star_L5" /></g><g
         transform="matrix(-1,0,0,1,16334995,0)"
         id="right_stars"
         style="stroke:#fcd116;stroke-opacity:1"><polygon
           points="1915630,3534430 2016100,3227150 1754180,3037600 2077470,3038220 2176790,2730570 2176790,2730570 2276100,3038220 2599430,3037600 2337470,3227150 2437960,3534430 2176790,3343910 "
           transform="translate(80882.352,20220.588)"
           style="fill:#fcd116;stroke:#fcd116;stroke-width:28222.22070313;stroke-miterlimit:4;stroke-opacity:1;stroke-dasharray:none"
           id="star_R1" /><polygon
           points="1188730,4770160 1289200,4462880 1027280,4273330 1350570,4273950 1449890,3966300 1449890,3966300 1549200,4273950 1872530,4273330 1610570,4462880 1711060,4770160 1449890,4579640 "
           transform="translate(60661.765,-20220.588)"
           style="fill:#fcd116;stroke:#fcd116;stroke-width:28222.22070313;stroke-miterlimit:4;stroke-opacity:1;stroke-dasharray:none"
           id="star_R2" /><polygon
           points="704130,5933200 804610,5625920 542680,5436370 865970,5436990 965290,5129340 965290,5129340 1064600,5436990 1387930,5436370 1125970,5625920 1226460,5933200 965290,5742680 "
           transform="translate(101102.94,101102.94)"
           style="fill:#fcd116;stroke:#fcd116;stroke-width:28222.22070313;stroke-miterlimit:4;stroke-opacity:1;stroke-dasharray:none"
           id="star_R3" /><polygon
           points="558750,7265850 659220,6958570 397300,6769020 720590,6769640 819910,6461990 819910,6461990 919220,6769640 1242550,6769020 980590,6958570 1081070,7265850 819910,7075330 "
           transform="translate(40441.176,101102.94)"
           style="fill:#fcd116;stroke:#fcd116;stroke-width:28222.22070313;stroke-miterlimit:4;stroke-opacity:1;stroke-dasharray:none"
           id="star_R4" /><polygon
           points="728360,8550040 828830,8242760 566910,8053210 890200,8053830 989520,7746180 989520,7746180 1088820,8053830 1412160,8053210 1150190,8242760 1250690,8550040 989520,8359520 "
           transform="translate(80882.353,181985.29)"
           style="fill:#fcd116;stroke:#fcd116;stroke-width:28222.22070313;stroke-miterlimit:4;stroke-opacity:1;stroke-dasharray:none"
           id="star_R5" /></g></g></g></svg>