<?xml version="1.0" encoding="UTF-8" standalone="no"?>
<!-- Created with Inkscape (http://www.inkscape.org/) -->

<svg
   xmlns:dc="http://purl.org/dc/elements/1.1/"
   xmlns:cc="http://creativecommons.org/ns#"
   xmlns:rdf="http://www.w3.org/1999/02/22-rdf-syntax-ns#"
   xmlns:svg="http://www.w3.org/2000/svg"
   xmlns="http://www.w3.org/2000/svg"
   xmlns:sodipodi="http://sodipodi.sourceforge.net/DTD/sodipodi-0.dtd"
   xmlns:inkscape="http://www.inkscape.org/namespaces/inkscape"
   width="478.22647"
   height="478.88654"
   id="svg2"
   version="1.1"
   inkscape:version="0.48.1 "
   sodipodi:docname="ZZ1.svg">
  <defs
     id="defs4">
    <inkscape:path-effect
       effect="skeletal"
       id="path-effect3728"
       is_visible="true"
       pattern="M 0,0 0,10 10,5 z"
       copytype="single_stretched"
       prop_scale="1"
       scale_y_rel="false"
       spacing="0"
       normal_offset="0"
       tang_offset="0"
       prop_units="false"
       vertical_pattern="false"
       fuse_tolerance="0" />
    <inkscape:path-effect
       effect="skeletal"
       id="path-effect2920"
       is_visible="true"
       pattern="M 0,0 0,10 10,5 z"
       copytype="single_stretched"
       prop_scale="1"
       scale_y_rel="false"
       spacing="0"
       normal_offset="0"
       tang_offset="0"
       prop_units="false"
       vertical_pattern="false"
       fuse_tolerance="0" />
    <inkscape:perspective
       sodipodi:type="inkscape:persp3d"
       inkscape:vp_x="0 : 526.18109 : 1"
       inkscape:vp_y="0 : 1000 : 0"
       inkscape:vp_z="744.09448 : 526.18109 : 1"
       inkscape:persp3d-origin="372.04724 : 350.78739 : 1"
       id="perspective10" />
    <inkscape:perspective
       id="perspective2911"
       inkscape:persp3d-origin="0.5 : 0.33333333 : 1"
       inkscape:vp_z="1 : 0.5 : 1"
       inkscape:vp_y="0 : 1000 : 0"
       inkscape:vp_x="0 : 0.5 : 1"
       sodipodi:type="inkscape:persp3d" />
    <inkscape:perspective
       id="perspective3845"
       inkscape:persp3d-origin="450 : 200 : 1"
       inkscape:vp_z="900 : 300 : 1"
       inkscape:vp_y="0 : 1000 : 0"
       inkscape:vp_x="0 : 300 : 1"
       sodipodi:type="inkscape:persp3d" />
    <inkscape:perspective
       id="perspective3871"
       inkscape:persp3d-origin="0.5 : 0.33333333 : 1"
       inkscape:vp_z="1 : 0.5 : 1"
       inkscape:vp_y="0 : 1000 : 0"
       inkscape:vp_x="0 : 0.5 : 1"
       sodipodi:type="inkscape:persp3d" />
    <inkscape:perspective
       id="perspective4086"
       inkscape:persp3d-origin="0.5 : 0.33333333 : 1"
       inkscape:vp_z="1 : 0.5 : 1"
       inkscape:vp_y="0 : 1000 : 0"
       inkscape:vp_x="0 : 0.5 : 1"
       sodipodi:type="inkscape:persp3d" />
    <path
       style="fill:none;stroke:#000000;stroke-width:1px;stroke-linecap:butt;stroke-linejoin:miter;stroke-opacity:1"
       d="m 21,250 c 6.967407,76.64616 37.641275,183.97705 208,214 146.69619,-6.58835 217.83674,-86.87001 230,-210"
       id="path4067"
       sodipodi:nodetypes="ccc"
       inkscape:connector-curvature="0" />
    <inkscape:perspective
       id="perspective4139"
       inkscape:persp3d-origin="0.5 : 0.33333333 : 1"
       inkscape:vp_z="1 : 0.5 : 1"
       inkscape:vp_y="0 : 1000 : 0"
       inkscape:vp_x="0 : 0.5 : 1"
       sodipodi:type="inkscape:persp3d" />
  </defs>
  <sodipodi:namedview
     id="base"
     pagecolor="#ffffff"
     bordercolor="#666666"
     borderopacity="1.0"
     inkscape:pageopacity="0.0"
     inkscape:pageshadow="2"
     inkscape:zoom="1.4142136"
     inkscape:cx="176.64252"
     inkscape:cy="152.7141"
     inkscape:document-units="px"
     inkscape:current-layer="layer4"
     showgrid="false"
     inkscape:window-width="1280"
     inkscape:window-height="1004"
     inkscape:window-x="-8"
     inkscape:window-y="-8"
     inkscape:window-maximized="1"
     showguides="true"
     inkscape:guide-bbox="true"
     fit-margin-top="0"
     fit-margin-left="0"
     fit-margin-right="0"
     fit-margin-bottom="0" />
  <metadata
     id="metadata7">
    <rdf:RDF>
      <cc:Work
         rdf:about="">
        <dc:format>image/svg+xml</dc:format>
        <dc:type
           rdf:resource="http://purl.org/dc/dcmitype/StillImage" />
        <dc:title />
      </cc:Work>
    </rdf:RDF>
  </metadata>
  <g
     inkscape:groupmode="layer"
     id="layer4"
     inkscape:label="Base"
     style="display:inline"
     transform="translate(-1.8913285,-1.7245776)">
    <path
       sodipodi:type="arc"
       style="fill:#ffffff;fill-opacity:1;fill-rule:nonzero;stroke:#000000;stroke-width:1;stroke-linecap:round;stroke-linejoin:round;stroke-miterlimit:4;stroke-opacity:1;stroke-dasharray:none;stroke-dashoffset:0"
       id="path4061"
       sodipodi:cx="509.11688"
       sodipodi:cy="200.5715"
       sodipodi:rx="118.79394"
       sodipodi:ry="76.367531"
       d="m 627.91082,200.5715 c 0,42.17663 -53.18586,76.36753 -118.79394,76.36753 -65.60808,0 -118.79394,-34.1909 -118.79394,-76.36753 0,-42.17662 53.18586,-76.36753 118.79394,-76.36753 65.60808,0 118.79394,34.19091 118.79394,76.36753 z"
       transform="matrix(2.0043545,0,0,3.1153424,-779.43111,-383.70169)" />
  </g>
  <g
     inkscape:groupmode="layer"
     id="layer3"
     inkscape:label="Centro"
     style="display:inline"
     sodipodi:insensitive="true"
     transform="translate(-1.8913285,-1.7245776)">
    <path
       sodipodi:type="arc"
       style="fill:#006233;fill-opacity:1;fill-rule:nonzero;stroke:#000000;stroke-width:1.5889703;stroke-linecap:round;stroke-linejoin:round;stroke-miterlimit:4;stroke-opacity:1;stroke-dasharray:none;stroke-dashoffset:0"
       id="path3861"
       sodipodi:cx="265.16504"
       sodipodi:cy="245.11923"
       sodipodi:rx="147.78532"
       sodipodi:ry="129.40054"
       d="m 412.95036,245.11923 c 0,71.46595 -66.16574,129.40055 -147.78532,129.40055 -81.61958,0 -147.78533,-57.9346 -147.78533,-129.40055 0,-71.46594 66.16575,-129.40054 147.78533,-129.40054 81.61958,0 147.78532,57.9346 147.78532,129.40054 z"
       transform="matrix(1.1742035,0,0,1.3492271,-71.258493,-91.77102)" />
    <path
       sodipodi:type="star"
       style="fill:#ffc400;fill-opacity:1;stroke:#000000;stroke-width:0.95231819;stroke-linecap:round;stroke-linejoin:round;stroke-miterlimit:4;stroke-opacity:1;stroke-dasharray:none;stroke-dashoffset:0"
       id="path3741"
       sodipodi:sides="5"
       sodipodi:cx="231.12515"
       sodipodi:cy="127.38559"
       sodipodi:r1="66.248428"
       sodipodi:r2="25.836887"
       sodipodi:arg1="0.7140907"
       sodipodi:arg2="1.3424092"
       inkscape:flatsided="false"
       inkscape:rounded="0"
       inkscape:randomized="0"
       d="m 281.18837,170.77371 -44.21357,-18.22214 -31.64382,35.85463 3.66755,-47.68055 -43.87826,-19.01537 46.48023,-11.24606 4.52556,-47.606775 25.05882,40.730105 46.67521,-10.40724 -30.99303,36.41865 z"
       transform="matrix(1.0143614,0.23153592,-0.22686403,1.0352505,35.769763,-17.617224)" />
    <path
       style="fill:#ffc400;fill-opacity:1;fill-rule:nonzero;stroke:#000000;stroke-width:1;stroke-linecap:round;stroke-linejoin:round;stroke-miterlimit:4;stroke-opacity:1;stroke-dasharray:none;stroke-dashoffset:0"
       d="M 131.6875,174.34375 C 118.82574,194.13828 111.375,217.70116 111.375,243 c 0,70.104 50.92284,128.2452 127.96875,126.9375 79.87921,-1.35579 128,-56.8335 128,-126.9375 0,-25.29884 -7.45074,-48.86172 -20.3125,-68.65625 l -2.4375,0 c 6.24872,14.18047 9.14876,33.14919 7.1875,53.59375 -0.10622,1.10721 -0.21163,2.21967 -0.34375,3.3125 7.5e-4,0.14611 0,0.29124 0,0.4375 0,53.49946 -50.19802,96.875 -112.09375,96.875 -61.89573,0 -112.0625,-43.37554 -112.0625,-96.875 0,-0.35521 -0.004,-0.70819 0,-1.0625 -0.13639,-1.12192 -0.26592,-2.2379 -0.375,-3.375 -1.92976,-20.11618 0.83348,-38.80305 6.875,-52.90625 l -2.09375,0 z"
       id="path3892"
       sodipodi:nodetypes="csssccscssscscc"
       inkscape:connector-curvature="0" />
    <g
       id="g4295">
      <path
         sodipodi:type="arc"
         style="fill:#e5e5e5;fill-opacity:1;fill-rule:nonzero;stroke:#000000;stroke-width:0.5;stroke-linecap:round;stroke-linejoin:round;stroke-miterlimit:4;stroke-opacity:1;stroke-dasharray:none;stroke-dashoffset:0"
         id="path3968"
         sodipodi:cx="661.25"
         sodipodi:cy="320"
         sodipodi:rx="5.75"
         sodipodi:ry="5.5"
         d="m 667,320 c 0,3.03757 -2.57436,5.5 -5.75,5.5 -3.17564,0 -5.75,-2.46243 -5.75,-5.5 0,-3.03757 2.57436,-5.5 5.75,-5.5 3.17564,0 5.75,2.46243 5.75,5.5 z"
         transform="translate(-498.71739,-15.04899)" />
      <path
         id="path3902"
         d="m 180.43355,402.21825 -1.41422,-105.35891 -11.66726,-4.94974 -6.36396,102.88403 c 0,0 13.08148,7.42462 19.44544,7.42462 z"
         style="fill:#e5e5e5;fill-opacity:1;stroke:#000000;stroke-width:1px;stroke-linecap:butt;stroke-linejoin:miter;stroke-opacity:1"
         inkscape:connector-curvature="0" />
      <path
         id="path3904"
         d="m 167.03261,303.70101 3.25,3.75 3.25,-4.25 2.25,3.5 2.75,-3.5"
         style="fill:#e5e5e5;fill-opacity:1;stroke:#000000;stroke-width:0.5;stroke-linecap:butt;stroke-linejoin:miter;stroke-miterlimit:4;stroke-opacity:1;stroke-dasharray:none"
         inkscape:connector-curvature="0" />
      <path
         sodipodi:nodetypes="cccccc"
         id="path3906"
         d="m 166.03261,316.95101 1.75,-2.25 2.25,4 3.25,-4.5 2.75,3.75 3,-3.75"
         style="fill:#e5e5e5;fill-opacity:1;stroke:#000000;stroke-width:0.5;stroke-linecap:butt;stroke-linejoin:miter;stroke-miterlimit:4;stroke-opacity:1;stroke-dasharray:none"
         inkscape:connector-curvature="0" />
      <path
         sodipodi:nodetypes="cccccc"
         id="path3908"
         d="m 165.03261,328.20101 3,-3 1.75,4.25 3.75,-3.25 1.75,3.25 4.25,-4.75"
         style="fill:#e5e5e5;fill-opacity:1;stroke:#000000;stroke-width:0.5;stroke-linecap:butt;stroke-linejoin:miter;stroke-miterlimit:4;stroke-opacity:1;stroke-dasharray:none"
         inkscape:connector-curvature="0" />
      <path
         sodipodi:nodetypes="cccccc"
         id="path3910"
         d="m 164.78261,339.70101 3,-3.5 2.5,4.75 3,-4 2.75,3.5 3.75,-4"
         style="fill:#e5e5e5;fill-opacity:1;stroke:#000000;stroke-width:0.5;stroke-linecap:butt;stroke-linejoin:miter;stroke-miterlimit:4;stroke-opacity:1;stroke-dasharray:none"
         inkscape:connector-curvature="0" />
      <path
         id="path3912"
         d="m 163.28261,353.70101 4.25,-4.5 2.25,4.5 3.5,-3.5 2,3.5 2.25,-3.75 1.75,3.75"
         style="fill:#e5e5e5;fill-opacity:1;stroke:#000000;stroke-width:0.5;stroke-linecap:butt;stroke-linejoin:miter;stroke-miterlimit:4;stroke-opacity:1;stroke-dasharray:none"
         inkscape:connector-curvature="0" />
      <path
         id="path3914"
         d="m 162.03261,370.45101 5,-4 2.75,4 3,-4.25 2,3 1.75,-3.25 3.25,4"
         style="fill:#e5e5e5;fill-opacity:1;stroke:#000000;stroke-width:0.5;stroke-linecap:butt;stroke-linejoin:miter;stroke-miterlimit:4;stroke-opacity:1;stroke-dasharray:none"
         inkscape:connector-curvature="0" />
      <path
         id="path3916"
         d="m 161.53261,382.95101 2.25,4 2.75,-4 2.5,4 3.5,-3.5 2,3.75 2.5,-4 2.75,4.5"
         style="fill:#e5e5e5;fill-opacity:1;stroke:#000000;stroke-width:0.5;stroke-linecap:butt;stroke-linejoin:miter;stroke-miterlimit:4;stroke-opacity:1;stroke-dasharray:none"
         inkscape:connector-curvature="0" />
      <path
         transform="matrix(1.1191158,0,0,1.1608422,-579.66728,-72.695008)"
         d="m 673,304 c 0,3.31371 -5.0368,6 -11.25,6 -6.2132,0 -11.25,-2.68629 -11.25,-6 0,-3.31371 5.0368,-6 11.25,-6 6.2132,0 11.25,2.68629 11.25,6 z"
         sodipodi:ry="6"
         sodipodi:rx="11.25"
         sodipodi:cy="304"
         sodipodi:cx="661.75"
         id="path3960"
         style="fill:#e5e5e5;fill-opacity:1;fill-rule:nonzero;stroke:#000000;stroke-width:0.5;stroke-linecap:round;stroke-linejoin:round;stroke-miterlimit:4;stroke-opacity:1;stroke-dasharray:none;stroke-dashoffset:0"
         sodipodi:type="arc" />
      <path
         sodipodi:nodetypes="cscccccccccccccccccccccccccccccscc"
         id="path3924"
         d="m 157.03261,293.20101 c 0,0 -9.68478,6.98552 -10.75,4.5 -0.75,-1.75 -0.75,-4.75 -0.75,-4.75 l -6.75,1.75 -0.25,-3.75 -6.25,6.25 -2.75,-5.5 -4.25,8 -1.5,-5 -6,9.5 -0.75,-4.75 -6,10.25 -0.25,-7 -5.25,8.5 -1.75,-6.25 -4.75,11.5 -2,-8.5 -7.25,8.5 3.25,-10.25 -9.5,-1 14,-6.75 -5.5,-3.5 13.25,-2.75 -6,-3 15,-2.5 -6.75,-3.25 17,-0.75 -3.25,-4.25 13,3.25 -0.5,-5.25 10.5,5.25 c 0,0 0.25,-4.25 2.5,-3.5 2.25,0.75 10.25,7.5 10.25,7.5 l 0,7.5 z"
         style="fill:#e5e5e5;fill-opacity:1;stroke:#000000;stroke-width:0.5;stroke-linecap:butt;stroke-linejoin:miter;stroke-miterlimit:4;stroke-opacity:1;stroke-dasharray:none"
         inkscape:connector-curvature="0" />
      <path
         transform="translate(-503.21739,-23.54899)"
         d="m 667,320 c 0,3.03757 -2.57436,5.5 -5.75,5.5 -3.17564,0 -5.75,-2.46243 -5.75,-5.5 0,-3.03757 2.57436,-5.5 5.75,-5.5 3.17564,0 5.75,2.46243 5.75,5.5 z"
         sodipodi:ry="5.5"
         sodipodi:rx="5.75"
         sodipodi:cy="320"
         sodipodi:cx="661.25"
         id="path3966"
         style="fill:#e5e5e5;fill-opacity:1;fill-rule:nonzero;stroke:#000000;stroke-width:0.5;stroke-linecap:round;stroke-linejoin:round;stroke-miterlimit:4;stroke-opacity:1;stroke-dasharray:none;stroke-dashoffset:0"
         sodipodi:type="arc" />
      <path
         id="path3920"
         d="m 161.78261,305.20101 2.5,5 -5.75,4.5 -2.25,-5 -4.5,8.75 -2.75,-5 -2,10.25 -3.5,-3.25 0.25,11.5 -4.75,-6.25 1.5,13 -4.25,-5.25 c 0,0 0.25,11.75 1,13.5 0.75,1.75 -5,-7.75 -5,-7.75 l 1,12.25 -3.75,-4 1.5,12.5 -5.5,-5.5 c 0,0 -2,8.25 -1.5,10 0.5,1.75 -3.5,-7.5 -2.75,-9.5 0.75,-2 -7.25,2 -7.25,2 l 5.5,-9.75 -7.5,-0.25 9.5,-9.5 c 0,0 -5.75,0.5 -6.75,1.5 -1,1 8.5,-9.25 9.75,-9.5 1.25,-0.25 -5.25,-0.5 -6,0.75 -0.75,1.25 7.75,-8 9,-8 1.25,0 -6,-0.5 -6,-0.5 l 10.75,-6.25 c 0,0 -4,-3 -5.25,-1.75 -1.25,1.25 13.75,-7.5 13.75,-7.5 l -6.5,-0.25 c 0,0 11.5,-9.5 22,-8.75 10.5,0.75 6,8.25 5.5,8 z"
         style="fill:#e5e5e5;fill-opacity:1;stroke:#000000;stroke-width:0.5;stroke-linecap:butt;stroke-linejoin:miter;stroke-miterlimit:4;stroke-opacity:1;stroke-dasharray:none"
         inkscape:connector-curvature="0" />
      <path
         sodipodi:nodetypes="cc"
         id="path3922"
         d="m 161.53261,299.20101 c -24.16608,9.02172 -36.13123,45.66037 -39.25,50.75"
         style="fill:#e5e5e5;fill-opacity:1;stroke:#000000;stroke-width:1px;stroke-linecap:butt;stroke-linejoin:miter;stroke-opacity:1"
         inkscape:connector-curvature="0" />
      <path
         sodipodi:nodetypes="ccc"
         id="path3926"
         d="m 97.53261,305.20101 c 15.39915,-11.65207 29.35012,-26.83408 55,-13.5 l 0.25,0"
         style="fill:#e5e5e5;fill-opacity:1;stroke:#000000;stroke-width:1px;stroke-linecap:butt;stroke-linejoin:miter;stroke-opacity:1"
         inkscape:connector-curvature="0" />
      <path
         transform="translate(-501.46739,-22.54899)"
         d="m 672,288.5 c 0,3.17564 -2.40647,5.75 -5.375,5.75 -2.96853,0 -5.375,-2.57436 -5.375,-5.75 0,-3.17564 2.40647,-5.75 5.375,-5.75 2.96853,0 5.375,2.57436 5.375,5.75 z"
         sodipodi:ry="5.75"
         sodipodi:rx="5.375"
         sodipodi:cy="288.5"
         sodipodi:cx="666.625"
         id="path3956"
         style="fill:#e5e5e5;fill-opacity:1;fill-rule:nonzero;stroke:#000000;stroke-width:0.5;stroke-linecap:round;stroke-linejoin:round;stroke-miterlimit:4;stroke-opacity:1;stroke-dasharray:none;stroke-dashoffset:0"
         sodipodi:type="arc" />
      <path
         sodipodi:nodetypes="ccsccccccccccccccccccccccccccccccc"
         id="path3928"
         d="m 169.78261,273.70101 -6.75,6 c 0,0 -11.77978,-1.45984 -16,-2.5 -1.21368,-0.29914 4.75,-5 4.75,-5 l -13.75,1.5 2.25,-6.25 -10.25,3.5 0.5,-3.75 -9,6.25 1,-7.25 -11.25,6.5 2.5,-6.75 -10.5,9.5 -0.25,-7.5 -8.75,7.75 0.5,-8.25 -9.75,14 -0.75,-9.75 -10.75,6.5 6.75,-10.25 -8.25,-5.5 20.5,-1.5 -5,-6.5 14.75,4.5 -2,-6.25 15.5,3.75 -6,-6 17.25,6 -5,-7 16.5,8.75 -1.75,-7.5 14.5,10.75 0.5,-5 18,17.25 z"
         style="fill:#e5e5e5;fill-opacity:1;stroke:#000000;stroke-width:0.5;stroke-linecap:butt;stroke-linejoin:miter;stroke-miterlimit:4;stroke-opacity:1;stroke-dasharray:none"
         inkscape:connector-curvature="0" />
      <path
         sodipodi:nodetypes="cc"
         id="path3930"
         d="m 84.28261,267.45101 c 27.77171,-7.73584 54.5143,-10.71196 77,6"
         style="fill:#e5e5e5;fill-opacity:1;stroke:#000000;stroke-width:1px;stroke-linecap:butt;stroke-linejoin:miter;stroke-opacity:1"
         inkscape:connector-curvature="0" />
      <path
         id="path3936"
         d="m 175.53261,262.45101 9.75,-8.25 2.25,-6.75 -3.5,0 7,-6.25 -4.25,-2.5 6,-5 -4,-2.75 5.5,-2.75 -2.25,-2 7,-7.25 -8.5,0 -2.5,-8.75 -2.25,10.25 -3.25,-2.5 -0.5,8.5 -4.75,-3.25 0.25,10.75 -2.75,-2 0.75,11 -3,-0.75 -0.25,17 3.25,3.25 z"
         style="fill:#e5e5e5;fill-opacity:1;stroke:#000000;stroke-width:0.5;stroke-linecap:butt;stroke-linejoin:miter;stroke-miterlimit:4;stroke-opacity:1;stroke-dasharray:none"
         inkscape:connector-curvature="0" />
      <path
         id="path3932"
         d="m 167.78261,264.45101 -7.25,-3.25 -7,-11 5.5,-0.75 -9.5,-5.25 c 0,0 4.25,-2.25 5.75,-0.75 1.5,1.5 -10.75,-4.75 -10.75,-4.75 0,0 1.5,-2 4.5,-1.75 3,0.25 -10.25,-4 -10.25,-4 0,0 2.75,-2 5,-1.75 2.25,0.25 -10.25,-2.5 -10.25,-2.5 0,0 4,-3.25 6,-2.5 2,0.75 -10.25,-5.5 -10.25,-5.5 l 10,-1 2,-7 5,9.75 2.75,-3.5 3.5,9.25 2.75,-4.75 4,9.25 3.25,-4.75 2.5,10.75 2.5,-4 -0.5,11.5 5.25,-3 2.25,14.25 -2.25,4.25 -4.5,2.75 z"
         style="fill:#e5e5e5;fill-opacity:1;stroke:#000000;stroke-width:0.5;stroke-linecap:butt;stroke-linejoin:miter;stroke-miterlimit:4;stroke-opacity:1;stroke-dasharray:none"
         inkscape:connector-curvature="0" />
      <path
         sodipodi:nodetypes="cc"
         id="path3934"
         d="m 140.78261,223.20101 c 11.82223,9.72545 23.72794,19.37439 27.75,36.25"
         style="fill:#e5e5e5;fill-opacity:1;stroke:#000000;stroke-width:1px;stroke-linecap:butt;stroke-linejoin:miter;stroke-opacity:1"
         inkscape:connector-curvature="0" />
      <path
         sodipodi:nodetypes="cc"
         id="path3938"
         d="m 189.28261,221.45101 c -6.66471,10.40504 -8.90367,21.44233 -11,32.5"
         style="fill:#e5e5e5;fill-opacity:1;stroke:#000000;stroke-width:1px;stroke-linecap:butt;stroke-linejoin:miter;stroke-opacity:1"
         inkscape:connector-curvature="0" />
      <path
         transform="translate(-501.21739,-21.79899)"
         d="m 695,293.375 c 0,3.38274 -3.91751,6.125 -8.75,6.125 -4.83249,0 -8.75,-2.74226 -8.75,-6.125 0,-3.38274 3.91751,-6.125 8.75,-6.125 4.83249,0 8.75,2.74226 8.75,6.125 z"
         sodipodi:ry="6.125"
         sodipodi:rx="8.75"
         sodipodi:cy="293.375"
         sodipodi:cx="686.25"
         id="path3952"
         style="fill:#e5e5e5;fill-opacity:1;fill-rule:nonzero;stroke:#000000;stroke-width:0.5;stroke-linecap:round;stroke-linejoin:round;stroke-miterlimit:4;stroke-opacity:1;stroke-dasharray:none;stroke-dashoffset:0"
         sodipodi:type="arc" />
      <path
         id="path3940"
         d="m 177.53261,265.20101 8.5,-9.75 10.75,-5 -0.75,4.75 10.75,-5.75 -0.75,4.75 13,-4.5 -1.5,5.5 14.25,-2.5 -1.75,4.5 14.25,1.5 -2.75,3.25 13.75,4.5 -9.5,4.25 5,10.5 -7.25,-5.25 -1.25,4.25 -3.75,-7.75 -2.25,4.75 -5,-8 -1,5 -6.75,-6.5 -0.25,4.5 -7.25,-7.25 -2,5 -8.5,-6.25 -1,5.25 c 0,0 -25.25,0.75 -27,-3.75 z"
         style="fill:#e5e5e5;fill-opacity:1;stroke:#000000;stroke-width:0.5;stroke-linecap:butt;stroke-linejoin:miter;stroke-miterlimit:4;stroke-opacity:1;stroke-dasharray:none"
         inkscape:connector-curvature="0" />
      <path
         sodipodi:nodetypes="cc"
         id="path3942"
         d="m 186.28261,262.70101 c 20.95642,-3.14832 41.21015,-4.65701 56.25,6"
         style="fill:#e5e5e5;fill-opacity:1;stroke:#000000;stroke-width:1px;stroke-linecap:butt;stroke-linejoin:miter;stroke-opacity:1"
         inkscape:connector-curvature="0" />
      <path
         sodipodi:nodetypes="cscsccccccccccccccccccccccccccccccc"
         id="path3944"
         d="m 179.03261,273.45101 c 3.5,-0.25 26,-1.65027 29.5,0.5 0.21301,0.13087 -3,2.75 -3,2.75 0,0 16,0.25 15,1.25 -1,1 -6,4.25 -6,4.25 l 11.25,1 -6.5,2.75 10,0.75 -3,2.75 7.25,4.25 -3.25,1.75 9.5,5 -3.75,2.25 10.25,8.25 -9,2.5 -0.25,11.5 -3.5,-9.5 -5,5 0.5,-12.5 -4.75,6.75 -0.75,-12 -4.25,4.5 -0.75,-10 -3.75,4.5 -1.75,-7.75 -3.5,3 -2.25,-7.5 -3,3.75 -4.25,-8.25 -2.5,3.5 -3.75,-5.25 -1.75,3 -2.5,0.75 -9,-5.5 -1.5,-8 z"
         style="fill:#e5e5e5;fill-opacity:1;stroke:#000000;stroke-width:0.5;stroke-linecap:butt;stroke-linejoin:miter;stroke-miterlimit:4;stroke-opacity:1;stroke-dasharray:none"
         inkscape:connector-curvature="0" />
      <path
         sodipodi:nodetypes="cc"
         id="path3946"
         d="m 185.28261,277.95101 c 15.37312,0.25862 31.6548,6.4229 51,32.5"
         style="fill:#e5e5e5;fill-opacity:1;stroke:#000000;stroke-width:1px;stroke-linecap:butt;stroke-linejoin:miter;stroke-opacity:1"
         inkscape:connector-curvature="0" />
      <path
         id="path3948"
         d="m 167.53261,292.20101 -0.25,-7 4,-2.5 11,1.25 13,7 -4.75,3 11.75,5.75 -4.5,1.5 10,7.5 -6.25,1 8.75,7.5 -5,0.5 6.5,9.5 -5.5,1 6.25,10.75 -8.75,-1.75 -5.5,7.75 1.25,-13.25 -4.25,2.25 1.75,-11.25 -5,1.75 2,-9 -3.25,1.75 0.5,-9.25 -3.25,1 -2.25,-8 -3,1.75 -2.5,-8.75 -2,3 -10.75,-4.75 z"
         style="fill:#e5e5e5;fill-opacity:1;stroke:#000000;stroke-width:0.5;stroke-linecap:butt;stroke-linejoin:miter;stroke-miterlimit:4;stroke-opacity:1;stroke-dasharray:none"
         inkscape:connector-curvature="0" />
      <path
         sodipodi:nodetypes="cc"
         id="path3950"
         d="m 173.53261,287.95101 c 26.59847,7.70524 23.62285,28.85325 30,45.75"
         style="fill:#e5e5e5;fill-opacity:1;stroke:#000000;stroke-width:1px;stroke-linecap:butt;stroke-linejoin:miter;stroke-opacity:1"
         inkscape:connector-curvature="0" />
      <path
         transform="matrix(1.1538462,0,0,1.1538462,-598.27508,-74.933605)"
         d="m 681,291.125 c 0,3.1066 -2.79822,5.625 -6.25,5.625 -3.45178,0 -6.25,-2.5184 -6.25,-5.625 0,-3.1066 2.79822,-5.625 6.25,-5.625 3.45178,0 6.25,2.5184 6.25,5.625 z"
         sodipodi:ry="5.625"
         sodipodi:rx="6.25"
         sodipodi:cy="291.125"
         sodipodi:cx="674.75"
         id="path3954"
         style="fill:#e5e5e5;fill-opacity:1;fill-rule:nonzero;stroke:#000000;stroke-width:0.5;stroke-linecap:round;stroke-linejoin:round;stroke-miterlimit:4;stroke-opacity:1;stroke-dasharray:none;stroke-dashoffset:0"
         sodipodi:type="arc" />
      <path
         transform="matrix(1.0784314,0,0,1.0784314,-553.57033,-44.053892)"
         d="m 680,290.125 c 0,3.38274 -2.74226,6.125 -6.125,6.125 -3.38274,0 -6.125,-2.74226 -6.125,-6.125 0,-3.38274 2.74226,-6.125 6.125,-6.125 3.38274,0 6.125,2.74226 6.125,6.125 z"
         sodipodi:ry="6.125"
         sodipodi:rx="6.125"
         sodipodi:cy="290.125"
         sodipodi:cx="673.875"
         id="path3958"
         style="fill:#e5e5e5;fill-opacity:1;fill-rule:nonzero;stroke:#000000;stroke-width:0.5;stroke-linecap:round;stroke-linejoin:round;stroke-miterlimit:4;stroke-opacity:1;stroke-dasharray:none;stroke-dashoffset:0"
         sodipodi:type="arc" />
      <path
         transform="matrix(1.0980392,0,0,1.0980392,-568.40367,-52.245068)"
         d="m 682.5,301.375 c 0,3.24467 -2.74226,5.875 -6.125,5.875 -3.38274,0 -6.125,-2.63033 -6.125,-5.875 0,-3.24467 2.74226,-5.875 6.125,-5.875 3.38274,0 6.125,2.63033 6.125,5.875 z"
         sodipodi:ry="5.875"
         sodipodi:rx="6.125"
         sodipodi:cy="301.375"
         sodipodi:cx="676.375"
         id="path3962"
         style="fill:#e5e5e5;fill-opacity:1;fill-rule:nonzero;stroke:#000000;stroke-width:0.5;stroke-linecap:round;stroke-linejoin:round;stroke-miterlimit:4;stroke-opacity:1;stroke-dasharray:none;stroke-dashoffset:0"
         sodipodi:type="arc" />
      <path
         transform="matrix(0.99775673,0,0,1.1225698,-500.47786,-62.040766)"
         d="m 670.5,312 c 0,3.31371 -2.91015,6 -6.5,6 -3.58985,0 -6.5,-2.68629 -6.5,-6 0,-3.31371 2.91015,-6 6.5,-6 3.58985,0 6.5,2.68629 6.5,6 z"
         sodipodi:ry="6"
         sodipodi:rx="6.5"
         sodipodi:cy="312"
         sodipodi:cx="664"
         id="path3964"
         style="fill:#e5e5e5;fill-opacity:1;fill-rule:nonzero;stroke:#000000;stroke-width:0.5;stroke-linecap:round;stroke-linejoin:round;stroke-miterlimit:4;stroke-opacity:1;stroke-dasharray:none;stroke-dashoffset:0"
         sodipodi:type="arc" />
      <path
         transform="matrix(1.1041667,0,0,1.1041667,-566.4726,-56.231282)"
         d="m 667,320 c 0,3.03757 -2.57436,5.5 -5.75,5.5 -3.17564,0 -5.75,-2.46243 -5.75,-5.5 0,-3.03757 2.57436,-5.5 5.75,-5.5 3.17564,0 5.75,2.46243 5.75,5.5 z"
         sodipodi:ry="5.5"
         sodipodi:rx="5.75"
         sodipodi:cy="320"
         sodipodi:cx="661.25"
         id="path3970"
         style="fill:#e5e5e5;fill-opacity:1;fill-rule:nonzero;stroke:#000000;stroke-width:0.5;stroke-linecap:round;stroke-linejoin:round;stroke-miterlimit:4;stroke-opacity:1;stroke-dasharray:none;stroke-dashoffset:0"
         sodipodi:type="arc" />
    </g>
    <g
       id="g4347">
      <path
         id="path4010"
         d="m 340.5,233 -22.5,20.5 6,2.5 17.5,-13.5 -1,-9.5 z"
         style="fill:#e5e5e5;fill-opacity:1;stroke:#000000;stroke-width:1px;stroke-linecap:butt;stroke-linejoin:miter;stroke-opacity:1"
         inkscape:connector-curvature="0" />
      <path
         id="path4022"
         d="m 344.25,328.75 c 0,0 8.25,-15 12.5,-15.75 4.25,-0.75 35.75,-3.75 38.25,-1 2.5,2.75 -15.5,10.75 -15.5,10.75 0,0 -15.5,4 -19,3 -3.5,-1 -13,18.5 -13,18.5 l -3.25,-15.5 z"
         style="fill:#e5e5e5;fill-opacity:1;stroke:#000000;stroke-width:1px;stroke-linecap:butt;stroke-linejoin:miter;stroke-opacity:1"
         inkscape:connector-curvature="0" />
      <path
         sodipodi:nodetypes="ccssccssc"
         id="path4018"
         d="m 351.77078,373.02587 -13.43503,10.6066 c 0,0 3.23419,-26.28485 0.32843,-38.93377 -5.13697,-22.36153 -21.59189,-55.44722 -36.0122,-59.51829 -22.16618,-6.25785 -18.76345,0.87132 -18.76345,0.87132 L 283.75,272 c 0,0 11.75,-7.5 29,7.75 17.25,15.25 29.25,32.75 33,52 3.75,19.25 5.5,42 6.02078,41.27587 z"
         style="fill:#e5e5e5;fill-opacity:1;stroke:#000000;stroke-width:1px;stroke-linecap:butt;stroke-linejoin:miter;stroke-opacity:1"
         inkscape:connector-curvature="0" />
      <path
         sodipodi:nodetypes="csacc"
         id="path4016"
         d="m 276.99424,340.1454 c 0,0 -10.79707,3.09882 -14.67246,13.61181 -0.51766,1.40427 8.29907,-3.64642 12.70116,-4.58603 3.93819,-0.84058 12.04757,-0.89405 12.04757,-0.89405 0,0 -4.06586,-10.78338 -10.07627,-8.13173 z"
         style="fill:#e5e5e5;fill-opacity:1;stroke:#000000;stroke-width:1px;stroke-linecap:butt;stroke-linejoin:miter;stroke-opacity:1"
         inkscape:connector-curvature="0" />
      <path
         sodipodi:nodetypes="csscc"
         id="path4014"
         d="m 291,405.5 c 0,0 4.98111,-71.00173 -15,-65 -0.86017,0.25837 9.50469,-3.3874 14.69742,0.21381 C 302.20526,348.69459 299.5,355.5 299.5,355.5 l -8.5,50 z"
         style="fill:#e5e5e5;fill-opacity:1;stroke:#000000;stroke-width:1px;stroke-linecap:butt;stroke-linejoin:miter;stroke-opacity:1"
         inkscape:connector-curvature="0" />
      <path
         sodipodi:nodetypes="cssscc"
         id="path4020"
         d="m 284.25,284.75 c 0,0 10.75,21 15.5,25 4.75,4 -24.36344,-11.25435 -24,-19.25 0.5,-11 3.44432,-15.19635 6.25,-17 3.5,-2.25 2.5,-1.75 2.5,-1.75 l -0.25,13 z"
         style="fill:#e5e5e5;fill-opacity:1;stroke:#000000;stroke-width:1px;stroke-linecap:butt;stroke-linejoin:miter;stroke-opacity:1"
         inkscape:connector-curvature="0" />
      <path
         sodipodi:nodetypes="ccssc"
         id="path4024"
         d="M 368.5,281.5 406,282 c 0,0 -6.76694,5.65115 -15.5,6.25 -9.00499,0.6175 -21,-0.75 -23,-1.5 C 365.5,286 363,287 363,287"
         style="fill:#e5e5e5;fill-opacity:1;stroke:#000000;stroke-width:1px;stroke-linecap:butt;stroke-linejoin:miter;stroke-opacity:1"
         inkscape:connector-curvature="0" />
      <path
         id="path4026"
         d="m 368.5,281.5 c 0,0 -5,6 -9.25,7.5 -4.25,1.5 -21.75,15.75 -22,19.5 -0.25,3.75 0,0.25 0,0.25"
         style="fill:#e5e5e5;fill-opacity:1;stroke:#000000;stroke-width:1px;stroke-linecap:butt;stroke-linejoin:miter;stroke-opacity:1"
         inkscape:connector-curvature="0" />
      <path
         sodipodi:nodetypes="cscccccs"
         id="path4040"
         d="m 396.67157,230.10355 c 0.39874,-2.23157 -3.25,-7 -6.75,-0.5 -1.09275,2.02939 -10.25,18.75 -10.25,18.75 l 3.75,8 12.5,0 10,-13 -3.75,-12.5 c 0,0 -7.06118,7.98726 -5.5,-0.75 z"
         style="fill:#e5e5e5;fill-opacity:1;stroke:#000000;stroke-width:1px;stroke-linecap:butt;stroke-linejoin:miter;stroke-opacity:1"
         inkscape:connector-curvature="0" />
      <path
         sodipodi:nodetypes="csscsc"
         id="path4028"
         d="m 347.67157,252.60355 c 0,0 27.25,-23.25 41.75,-22.25 1.16154,0.0801 -1.28394,4.62858 -1.3514,5.43115 -0.30158,3.5875 -1.3986,7.06885 -1.3986,7.06885 0,0 -11.75,1.75 -19.75,4 -8,2.25 -19.5,6 -19.25,5.75 z"
         style="fill:#e5e5e5;fill-opacity:1;stroke:#000000;stroke-width:1px;stroke-linecap:butt;stroke-linejoin:miter;stroke-opacity:1"
         inkscape:connector-curvature="0" />
      <path
         sodipodi:nodetypes="ccssc"
         id="path4034"
         d="m 395.92157,261.10355 8,-5.25 c 0,0 -6.24999,-6.24989 -9.5,-6 -0.99362,0.0764 7.18384,-1.58778 -1.00458,2.71952 -3.06842,1.61406 2.85172,8.87762 2.50458,8.53048 z"
         style="fill:#e5e5e5;fill-opacity:1;stroke:#000000;stroke-width:1px;stroke-linecap:butt;stroke-linejoin:miter;stroke-opacity:1"
         inkscape:connector-curvature="0" />
      <path
         sodipodi:nodetypes="csscasc"
         id="path4032"
         d="m 363.42157,255.10355 c 0,0 8,5 8.75,7.5 0.75,2.5 23,-0.5 24,-1.5 1,-1 -3,-6 -3,-6 0,0 -1.27252,1.16224 -2,1 -1.96892,-0.43911 -2,-5.5 -3.75,-4.75 -1.75,0.75 -24.25,4 -24,3.75 z"
         style="fill:#e5e5e5;fill-opacity:1;stroke:#000000;stroke-width:1px;stroke-linecap:butt;stroke-linejoin:miter;stroke-opacity:1"
         inkscape:connector-curvature="0" />
      <path
         sodipodi:nodetypes="cscccc"
         id="path4030"
         d="m 347.17157,258.35355 c 0,0 9.5,-2.5 17,-3.75 7.5,-1.25 19.25,-1.5 19.25,-1.5 l 0.75,-10 c -10.32583,-0.68167 -23.37444,4.08221 -37,10 l 0,5.25 z"
         style="fill:#e5e5e5;fill-opacity:1;stroke:#000000;stroke-width:1px;stroke-linecap:butt;stroke-linejoin:miter;stroke-opacity:1"
         inkscape:connector-curvature="0" />
      <path
         id="path4036"
         d="m 403.17157,255.85355 c 0,0 4.25,-1.5 4,-8.25 -0.25,-6.75 3,-3.25 3,-3.25 0,0 5.75,-7 -0.25,-7.75 -6,-0.75 -6.5,0 -6.5,0 0,0 2.75,5.5 -0.25,6.25 -3,0.75 -9,-2.75 -8.5,1.5 0.5,4.25 0.5,7 0.5,7 l 8,4.5 z"
         style="fill:#e5e5e5;fill-opacity:1;stroke:#000000;stroke-width:1px;stroke-linecap:butt;stroke-linejoin:miter;stroke-opacity:1"
         inkscape:connector-curvature="0" />
      <path
         sodipodi:nodetypes="cscsc"
         id="path4038"
         d="m 407.92157,236.10355 c 0,0 2.5,-12.5 -4,-9.75 -6.5,2.75 -6.25,2.5 -6.25,2.5 0,0 -3.75,4.5 1.25,6.25 5,1.75 9.25,0.5 9,1 z"
         style="fill:#e5e5e5;fill-opacity:1;stroke:#000000;stroke-width:1px;stroke-linecap:butt;stroke-linejoin:miter;stroke-opacity:1"
         inkscape:connector-curvature="0" />
      <path
         sodipodi:nodetypes="ccsccsscc"
         id="path4008"
         d="m 291,404.5 9.5,-52.5 c 0,0 32.40098,-78.35147 37.5,-86 2,-3 3.5,-34 3.5,-34 l 10,1.5 c 0,0 0.87843,22.65796 -3,33 -12.14338,32.38095 -39.5,79 -41.5,99.5 -2,20.5 -1.5,33 -1.5,33 0,0 -9.5,5 -14.5,5.5 z"
         style="fill:#e5e5e5;fill-opacity:1;stroke:#000000;stroke-width:1px;stroke-linecap:butt;stroke-linejoin:miter;stroke-opacity:1"
         inkscape:connector-curvature="0" />
    </g>
  </g>
  <g
     inkscape:groupmode="layer"
     id="layer2"
     inkscape:label="Texto"
     style="display:inline"
     transform="translate(-1.8913285,-1.7245776)">
    <path
       style="fill:#006233;fill-opacity:1;stroke:none"
       d="m 45.9375,154.75 c -2.20234,0.12791 -3.416831,1.32749 -4.625,1.5 -1.142994,0.1632 2.30137,4.32483 6.1875,3.03125 4.561822,-1.5185 4.4325,-0.3875 4.875,0.71875 1.039382,2.59845 -1.625,8.40625 -1.625,8.40625 0,0 -0.025,1.1875 -1.5,1.1875 -1.475001,0 -7.737497,-2.43625 -10.6875,0.21875 -2.950003,2.655 1.96961,4.89525 5.09375,2.8125 1.548752,-1.0325 5.421093,0.21579 5.3125,0.8125 -0.975077,5.35799 -2.019516,14.03046 -3.0625,14.65625 -1.042984,0.62579 -17.53125,0.5 -17.53125,0.5 0,0 -1.795733,0.49136 -2.0625,1.3125 -0.273274,0.84118 1.010422,2.03473 2.59375,2.5625 2.197166,0.73239 3.030189,0.58539 3.25,0.375 -0.0207,0.3741 -0.121717,2.10933 0.28125,3 1.634277,3.61221 7.007499,9.805 8.1875,8.625 1.180001,-1.18 4.571476,-4.35283 3.09375,-8.6875 -0.829688,-2.43376 -1.261191,-2.8266 -1.4375,-2.875 0.276337,0.027 5.57596,0.49881 7.875,-2.375 2.360003,-2.95 4.722499,-15.61624 5.3125,-19.15625 0.59,-3.54 2.9375,-13.71875 2.9375,-13.71875 0,0 -1.55398,0.56098 -8.78125,-2.21875 -1.498049,-0.57618 -2.686437,-0.74564 -3.6875,-0.6875 z m -7.96875,37.5625 c 0.786595,0.0885 1.611326,1.12625 1.96875,2.53125 0.408485,1.60571 0.05726,3.09124 -0.8125,3.3125 -0.86976,0.22126 -1.904015,-0.89429 -2.3125,-2.5 -0.408485,-1.60571 -0.05726,-3.09124 0.8125,-3.3125 0.10872,-0.0277 0.231379,-0.0439 0.34375,-0.0312 z"
       id="path2918"
       inkscape:connector-curvature="0" />
    <path
       style="fill:#006233;fill-opacity:1;stroke:none"
       d="m 17.96875,186.5 c -0.07882,0.0171 -0.140221,0.0827 -0.1875,0.15625 l -2.53125,3.9375 c -0.09456,0.14702 -0.05326,0.34294 0.09375,0.4375 l 3.4375,2.1875 -1.9375,3.65625 c -0.07957,0.15076 -0.04042,0.36359 0.09375,0.46875 l 3.375,2.625 c 0.134172,0.10516 0.326677,0.0883 0.40625,-0.0625 l 2.125,-4.03125 c 0.07957,-0.15076 0.04042,-0.36359 -0.09375,-0.46875 l -2.75,-2.125 2.375,-3.6875 c 0.09456,-0.14702 0.05326,-0.34294 -0.09375,-0.4375 l -4.0625,-2.59375 c -0.07351,-0.0473 -0.171183,-0.0796 -0.25,-0.0625 z"
       id="rect3696"
       inkscape:connector-curvature="0" />
    <path
       id="path3701"
       d="m 60.823879,172.99767 c -0.0803,0.008 -0.149113,0.0653 -0.204856,0.13268 l -2.984385,3.60618 c -0.111479,0.13465 -0.09394,0.3341 0.04071,0.44558 l 3.15093,2.58326 -2.361238,3.39803 c -0.09704,0.14015 -0.08365,0.35614 0.03697,0.4766 l 3.036509,3.01013 c 0.120619,0.12046 0.313758,0.12677 0.41081,-0.0134 l 2.592278,-3.7479 c 0.09704,-0.14015 0.08365,-0.35613 -0.03696,-0.4766 l -2.475855,-2.4389 2.799332,-3.37669 c 0.111479,-0.13465 0.09394,-0.3341 -0.04071,-0.44558 l -3.722807,-3.0614 c -0.06732,-0.0558 -0.160423,-0.0995 -0.24072,-0.092 z"
       style="fill:#006233;fill-opacity:1;stroke:none"
       inkscape:connector-curvature="0" />
    <rect
       style="fill:#006233;fill-opacity:1;stroke:none"
       id="rect3703"
       width="6.0475063"
       height="5.0150051"
       x="-94.563164"
       y="129.03949"
       ry="0.30771634"
       transform="matrix(0.68096518,-0.7323158,0.7323158,0.68096518,0,0)"
       rx="0.30771634" />
    <path
       style="fill:#006233;fill-opacity:1;fill-rule:evenodd;stroke:none"
       d="m 32.302533,147.76466 c 0,0 7.227507,-1.18 15.782516,3.6875 8.555009,4.86751 14.897515,-0.885 14.897515,-0.885 0,0 11.357512,-23.45252 13.275014,-25.22252 1.917502,-1.77001 -10.177511,-8.11251 -10.177511,-8.11251 0,0 -7.080007,-1.77 -5.752505,0.59 1.327501,2.36 0.7375,4.72 2.802502,4.13 2.065003,-0.59 8.112509,-0.1475 7.817508,1.9175 -0.295,2.06501 -5.015005,8.70251 -5.015005,8.70251 0,0 -1.032501,0.295 -3.245003,-1.475 -2.212502,-1.77 -9.88251,-1.0325 -9.88251,-1.0325 0,0 0,4.27751 2.950003,4.57251 2.950003,0.295 6.637507,-0.295 6.637507,-0.295 0,0 2.360002,0.1475 1.032501,3.0975 -1.327502,2.95 -6.490007,11.94751 -6.490007,11.94751 0,0 -2.212502,0.7375 -5.900006,-1.0325 -3.687504,-1.77 -19.175019,-6.19501 -21.535022,-5.90001 -2.360002,0.295 2.065002,2.36001 2.065002,2.36001 l 0.737501,2.95 z"
       id="path3726"
       inkscape:connector-curvature="0" />
    <path
       id="path3730"
       d="m 44.666549,124.32223 c -0.07969,-0.0124 -0.160592,0.0267 -0.231181,0.0783 l -3.779121,2.76213 c -0.14115,0.10312 -0.173157,0.30077 -0.07005,0.44192 l 2.419421,3.27841 -3.123929,2.71351 c -0.128512,0.112 -0.585806,0.32465 -0.498493,0.47107 l 2.620794,3.66406 c 0.08731,0.14642 0.272979,0.2 0.401509,0.088 l 3.903209,-3.3609 c 0.571013,-0.407 -0.144282,-0.84616 -0.231595,-0.99257 l -1.956975,-2.08604 3.543342,-2.58515 c 0.141151,-0.10312 0.173167,-0.30076 0.07005,-0.44191 l -2.856248,-3.88244 c -0.05155,-0.0706 -0.131046,-0.13589 -0.210734,-0.14831 l 1e-6,-8e-5 z"
       style="fill:#006233;fill-opacity:1;stroke:none"
       sodipodi:nodetypes="ccccccccccccccccc"
       inkscape:connector-curvature="0" />
    <path
       style="fill:none;stroke:none"
       d="m 20.37138,247.72669 c 6.96741,76.64616 37.64128,183.97705 208,214 146.69619,-6.58835 217.83674,-86.87001 230,-210"
       id="path4094"
       sodipodi:nodetypes="ccc"
       inkscape:connector-curvature="0" />
    <path
       style="fill:#006233;fill-opacity:1;stroke:none;display:inline"
       d="m 83.68663,128.95755 c 0,0 6.1114,-4.7214 7.52251,-7.96501 0.73439,-1.68809 6.93543,-13.72275 -3.09751,-19.32252 -3.17125,-1.769999 -6.0475,0 -6.0475,0 0,0 -1.9175,-3.65829 -2.950006,-4.867502 -0.04789,-0.05609 4.916206,-0.680513 7.006256,0.36875 4.4256,2.221765 9.08287,5.407322 11.06251,9.956262 1.72676,3.96785 1.3275,9.73501 -0.22125,12.98001 -2.08112,4.36044 -5.9,6.85876 -9.80876,8.40751 -2.33521,0.92527 -3.90875,0.295 -3.46625,0.4425 z"
       id="path3734"
       sodipodi:nodetypes="csscssassc"
       inkscape:connector-curvature="0" />
    <path
       style="fill:#006233;fill-opacity:1;stroke:none;display:inline"
       d="m 117.375,44.53125 c -0.4066,0.03142 -0.71755,0.114377 -0.8125,0.3125 -1.08367,2.261244 1.89412,5.634758 3.25,6.15625 1.35588,0.521491 14.375,17.4375 14.375,17.4375 0,0 -0.41324,0.206226 -3.125,1.875 -2.71175,1.668773 -2.60646,1.822869 -4.0625,1.65625 -2.62601,-0.300501 -4.3027,-2.935806 -6.46875,-4.59375 -2.84547,-2.177981 -6.13701,0.23401 -6.65625,6.375 -0.60735,7.183038 -1.26911,8.01912 -2.625,9.375 -1.45458,1.454575 -1.96806,1.336214 -3.03125,1.15625 C 106.83185,84.046491 105,81.5625 105,81.5625 c 0,0 -5.55306,-2.34806 -6.25,0.9375 -0.73008,3.441846 -0.80471,4.681747 1.875,7.71875 3.12895,3.546145 6.25,2.625 6.25,2.625 0,0 2.86871,-2.398941 3.125,-1.15625 2.62721,12.73876 -9.1875,18.03125 -9.1875,18.03125 0.20859,-0.2086 -2.71492,2.71017 2.5,1.25 5.21492,-1.46018 10.13397,-8.2148 11.28125,-11.34375 1.14728,-3.128951 -2.28125,-10.875 -2.28125,-10.875 -1.35781,0.355991 5.24542,-2.387513 6.03125,-7.1875 0.24714,-1.509612 5,-0.71875 5,-0.71875 0,0 13.46756,-7.40546 14.40625,-8.03125 0.93868,-0.62579 1.44844,-1.164033 1.03125,-3.25 -0.41719,-2.085967 -13.125,-17.1875 -13.125,-17.1875 0,0 -0.2293,-1.581621 -0.125,-2.9375 0.1043,-1.355878 -2.28125,-4.78125 -2.28125,-4.78125 -0.13645,0.818718 -4.11305,-0.261152 -5.875,-0.125 z M 121.1875,71.25 c 0.93582,-0.06897 1.42867,0.931696 1.6875,1.5 0.41413,0.909286 -0.3368,1.523752 -2,2.28125 -1.6632,0.757498 -3.33587,0.628036 -3.75,-0.28125 -0.41413,-0.909286 0.5868,-2.273752 2.25,-3.03125 0.6237,-0.284062 1.25101,-0.427369 1.8125,-0.46875 z m -16.8125,14 c 1.58782,0 2.875,0.559644 2.875,1.25 0,0.690356 -1.28718,1.25 -2.875,1.25 -1.58782,0 -2.875,-0.559644 -2.875,-1.25 0,-0.690356 1.28718,-1.25 2.875,-1.25 z"
       id="path3736"
       sodipodi:nodetypes="csscsssssscsscscsscscsscscccssssccsssc"
       inkscape:connector-curvature="0" />
    <path
       style="fill:#006233;fill-opacity:1;stroke:none;display:inline"
       d="m 129.41167,38.097458 c 0,0 13.86502,21.387522 14.89752,26.402527 1.0325,5.015005 -1.18,7.080007 -1.18,7.080007 l -9.57629,-18.354976 -6.05873,-7.45755 1.9175,-7.670008 z"
       id="path3738"
       sodipodi:nodetypes="cscccc"
       inkscape:connector-curvature="0" />
    <path
       sodipodi:nodetypes="ccccccccccccccccc"
       style="fill:#006233;fill-opacity:1;stroke:none"
       d="m 80.710629,127.34514 c -0.07969,-0.0124 -0.160592,0.0267 -0.231181,0.0783 l -3.18912,3.05713 c -0.14115,0.10312 -0.468158,0.74327 -0.365051,0.88442 l 2.124421,2.54091 -3.123929,2.71351 c -0.128512,0.112 -0.585806,0.32465 -0.498493,0.47107 l 2.620794,3.66406 c 0.08731,0.14642 0.272979,0.2 0.401509,0.088 l 3.903211,-3.3609 c 0.57101,-0.407 -0.14428,-0.84616 -0.2316,-0.99257 l -1.956972,-2.08604 3.543342,-2.58515 c 0.14115,-0.10312 0.17317,-0.30076 0.07,-0.44191 l -2.856248,-3.88244 c -0.05155,-0.0706 -0.131046,-0.13589 -0.210734,-0.14831 l 10e-7,-8e-5 z"
       id="path3732"
       inkscape:connector-curvature="0" />
    <path
       style="fill:#006233;fill-opacity:1;stroke:none"
       d="m 169.71875,32.46875 c 0,0 -2.84191,2.294733 -1.78125,4.0625 1.06066,1.767767 2.3125,2.8125 2.3125,2.8125 0,0 -4.06618,2.319859 -6.1875,6.5625 -2.12132,4.242641 -1.23835,7.239276 -0.53125,7.0625 0.70711,-0.176778 6.18934,-0.01256 7.25,-1.25 1.06066,-1.237437 3.53125,-3.34375 3.53125,-3.34375 0,0 3.92852,7.28704 6.34375,6.71875 3.0052,-0.707106 25.48692,-3.24201 26.53125,-6.375 0.88388,-2.65165 5.65625,-0.34375 5.65625,-0.34375 0,0 4.05546,1.767767 6,0 1.94454,-1.767767 1.58211,-3.016243 0.875,-6.375 -0.72836,-3.459696 -6.69914,-10.070464 -7.40625,-8.65625 -0.70711,1.414213 -6.72059,6.545653 -7.78125,8.84375 -1.06066,2.298097 -5.12684,4.06158 -6.1875,3.53125 -1.06066,-0.53033 -0.51899,-5.851109 -5.46875,-10.09375 -2.42421,-2.07789 -2.00298,1.290664 -2.75,2.53125 -0.72893,1.210536 -0.47486,1.300058 0.0937,1.5625 2.2981,1.060661 5.65441,7.041973 4.59375,7.21875 -1.06066,0.176777 -12.56618,3.008883 -14.6875,2.125 -1.09464,-0.456098 -4.23131,-4.578743 -5.46875,-7.9375 -0.99484,-2.700285 -4.2304,-8.833027 -4.9375,-8.65625 z M 211.1875,39.875 c 0.45255,-0.03877 0.98049,0.0062 1.53125,0.125 1.46869,0.316843 2.51902,1.113662 2.375,1.78125 -0.14402,0.667588 -1.43756,0.941843 -2.90625,0.625 -1.46869,-0.316843 -2.55027,-1.113662 -2.40625,-1.78125 0.09,-0.417242 0.65201,-0.685378 1.40625,-0.75 z m -39.59375,3.25 c 0.42981,-0.01342 0.78656,0.100796 0.96875,0.34375 0.48584,0.647877 -0.3301,2.003544 -1.8125,3.03125 -1.4824,1.027706 -3.07666,1.335377 -3.5625,0.6875 -0.48584,-0.647877 0.3301,-2.003544 1.8125,-3.03125 0.9265,-0.642316 1.87739,-1.008889 2.59375,-1.03125 z"
       id="path4162"
       inkscape:connector-curvature="0" />
    <path
       style="fill:#006233;fill-opacity:1;stroke:none"
       d="m 163.69522,27.507116 c 0,0 -4.77297,-1.590991 -5.65685,0.353553 -0.88389,1.944544 -0.36671,5.182833 0.7071,5.126524 2.82383,-0.148079 4.5962,0.53033 4.94975,-0.707107 0.35355,-1.237437 0.35355,-3.358757 0.35355,-3.358757 0,0 5.3033,0.707107 5.48008,-1.06066 0.23925,-2.392491 0.53033,-4.596194 -0.53033,-4.772971 -2.23305,-0.372175 -4.41942,-0.353554 -4.59619,0.176777 -0.46097,1.382935 -0.53033,4.242641 -0.70711,4.242641 z"
       id="path4164"
       sodipodi:nodetypes="cssscsssc"
       inkscape:connector-curvature="0" />
    <path
       sodipodi:nodetypes="cssscsssc"
       id="path4166"
       d="m 193.62381,59.509895 c 0,0 -4.5384,-2.171504 -5.65696,-0.351801 -1.11857,1.819702 -1.00761,5.097152 0.0649,5.174653 2.82036,0.203805 4.49474,1.0971 4.99925,-0.08684 0.50451,-1.183941 0.76799,-3.288835 0.76799,-3.288835 0,0 5.17441,1.360335 5.56939,-0.371786 0.53456,-2.344249 1.0971,-4.494733 0.0666,-4.801882 -2.16954,-0.646652 -4.34129,-0.899736 -4.58256,-0.395467 -0.62917,1.314971 -1.05319,4.143917 -1.2286,4.12196 z"
       style="fill:#006233;fill-opacity:1;stroke:none"
       inkscape:connector-curvature="0" />
    <path
       style="fill:#006233;fill-opacity:1;stroke:none"
       d="m 243,14.249999 c 0,0 -4.25,1.25 -3.25,4.5 1,3.25 3.5131,12.456362 0.375,17.625 -4.25,7 -18.375,10.125 -18.375,10.125 0,0 -3,2.5 -2,3 1,0.5 16,-0.5 18.25,-4.25 2.25,-3.75 5,-8.75 5,-8.75 0,0 -0.125,7.125 3.375,9.625 3.5,2.5 5.875,1.875 8.625,2.375 2.75,0.5 5.5,-1.75 7.75,-0.75 2.25,1 4.97285,1.663047 7.5,2 3.75,0.5 3.2888,-2.224136 5.5,-0.75 2.25,1.5 4.125,2.5 5.625,1.875 1.95814,-0.815892 2.25,-7.5 2.25,-7.5 l -0.625,-6.125 -1.75,-1.75 c 0,0 -2.25,1.75 -1.75,3.25 0.5,1.5 2.5,4.25 1.25,5.5 -1.25,1.25 -2.875,0.5 -3.25,-0.25 -1.12361,-2.247221 -1,-7.5 -1,-7.5 0,0 -2.25,-0.25 -3,1.75 -0.75,2 0.75,2.75 -0.25,4.5 -1,1.75 -3.625,2 -6.125,0.5 -2.3188,-1.391281 -1.77324,-0.952823 -2.625,-3.5 -0.39288,-1.174892 0.25,-2.5 -1.25,-3.5 -1.51435,-1.00957 -2.625,1.125 -2.625,1.125 0,0 0.875,3.375 -0.375,4.125 -1.25,0.75 -7.25,1.5 -9.25,0.75 -2,-0.75 -4.25,-1.25 -4.75,-5 -0.62865,-4.714849 -1.5,-19.5 -3.25,-23 z"
       id="path4168"
       sodipodi:nodetypes="csscsscsssssscccssscssssscsssc"
       inkscape:connector-curvature="0" />
    <path
       style="fill:#006233;fill-opacity:1;stroke:none"
       d="m 238.625,34.624999 c 0,0 2.75,-4.125 -1,-8.375 -3.75,-4.25 -12,-11.625 -16.875,-11.375 -4.875,0.25 2.625,9.5 3.75,9.625 1.125,0.125 3.93105,0.562601 5.75,0.5 4.33463,-0.14918 8.25,9.875 8.375,9.625 z"
       id="path4170"
       sodipodi:nodetypes="cssssc"
       inkscape:connector-curvature="0" />
    <path
       sodipodi:nodetypes="cscccc"
       id="path4172"
       d="m 464.77397,203.94298 c 0,0 -25.1994,3.8282 -30.19467,2.70406 -4.99526,-1.12414 -5.96602,-3.99067 -5.96602,-3.99067 l 20.6699,-1.16866 9.29078,-2.45043 6.20001,4.9057 z"
       style="fill:#006233;fill-opacity:1;stroke:none;display:inline"
       inkscape:connector-curvature="0" />
    <path
       style="fill:#006233;fill-opacity:1;stroke:none"
       d="m 416.75,170.25 -1.75,4.25 4.25,2 2.5,-5 -5,-1.25 z"
       id="path4174"
       inkscape:connector-curvature="0" />
    <path
       style="fill:#006233;fill-opacity:1;stroke:none"
       d="m 407.5,108.78125 c -0.18201,3.7e-4 -0.38867,0.0137 -0.59375,0.0312 -2.46094,0.21094 -6.40625,1.625 -8.65625,4.4375 -3,3.75 1.75,8 1.75,8 0,0 -2,-0.75 -7.25,-0.5 -5.25,0.25 -9,-4.25 -9,-4.25 l -4,-5.75 c 0,0 0,9.5 7.25,13.5 7.89235,4.3544 14.25,-1 14.25,-1 l 1.25,2.25 c 0,0 -4.10946,2.90348 -5.25,6.25 -1.95877,5.74735 0.80114,10.05684 5.25,9.75 4.48933,-0.30963 5.5,-6.75 5.5,-6.75 0,0 1.75,0 4.75,6.5 3,6.5 7.25,8 7.25,8 0,0 -0.60696,8.25361 1,11 5.28869,9.03869 6.75,37.5 7.75,39.5 1,2 24,-6 24,-6 0,0 2.5,1.25 5,1.5 2.83629,0.28363 3.5,-0.5 4.5,-3 1,-2.5 2.5,-2.75 2.5,-2.75 0,0 -3.7875,-1.69906 -5.78125,-1.5625 -1.97283,0.13513 -5.46875,2.3125 -5.46875,2.3125 0,0 -18,7 -19,3.5 -1.5434,-5.40189 0.75,-11.5 0.75,-11.5 0,0 5,-11.25 5,-16.75 0,-5.5 -6.25,-5 -6.25,-5 0,0 -0.75,-2 -0.25,4.25 0.5,6.25 -2.5,10 -2.5,10 l -4.25,-16 c 0,0 7.25,-6.5 6.5,-9.5 -0.75,-3 -9.75,-4.75 -12,-5.25 -2.25,-0.5 -9.25,-13.75 -9.25,-13.75 0,0 1,1 5,0.5 4,-0.5 4.75,-3 4.75,-3 0,0 -0.25,-2.25 -2.25,-4.25 -2,-2 -12,-0.5 -12,-0.5 l -2.25,-2.5 c 0,0 2.75,-3.5 4.75,-5.5 2,-2 0,-5.25 -1.5,-6 -0.28125,-0.14062 -0.70398,-0.21985 -1.25,-0.21875 z M 403.625,113 c 0.48325,0 0.875,1.11929 0.875,2.5 0,1.38071 -0.39175,2.5 -0.875,2.5 -0.48325,0 -0.875,-1.11929 -0.875,-2.5 0,-1.38071 0.39175,-2.5 0.875,-2.5 z m 10.875,13 c 1.51878,0 2.75,0.39175 2.75,0.875 0,0.48325 -1.23122,0.875 -2.75,0.875 -1.51878,0 -2.75,-0.39175 -2.75,-0.875 0,-0.48325 1.23122,-0.875 2.75,-0.875 z m -11.5,3 c 0.82843,0 1.5,1.7349 1.5,3.875 0,2.1401 -0.67157,3.875 -1.5,3.875 -0.82843,0 -1.5,-1.7349 -1.5,-3.875 0,-2.1401 0.67157,-3.875 1.5,-3.875 z m 23.625,20.25 c 1.03553,0 1.875,1.11929 1.875,2.5 0,1.38071 -0.83947,2.5 -1.875,2.5 -1.03553,0 -1.875,-1.11929 -1.875,-2.5 0,-1.38071 0.83947,-2.5 1.875,-2.5 z"
       id="path4176"
       inkscape:connector-curvature="0" />
    <path
       style="fill:#006233;fill-opacity:1;stroke:none"
       d="m 287.25,63.999999 c 0,0 -3,1.5 -3.25,2.5 -0.25,1 8.75,-0.25 8.75,-0.25 0,0 3.5,-1 1.25,-1.5 -2.25,-0.5 -4.25,-0.75 -4.25,-0.75 l -0.75,-1.5 c 0,0 3.75,1.5 4.25,-0.25 0.5,-1.75 1,-3.25 -2,-2 -3,1.25 -5,0.25 -5,2 0,1.75 1,2 1,1.75 z"
       id="path4178"
       sodipodi:nodetypes="cscsccsssc"
       inkscape:connector-curvature="0" />
    <path
       style="fill:#006233;fill-opacity:1;stroke:none"
       d="m 393.25,88.999999 -4.75,3.5 -0.5,6.25 c 0,0 0.25,5.500001 -9.75,5.500001 -10,0 -10.09806,-8.29721 -16.25,-9.000001 -0.60276,-0.06886 -1.75,0.5 -1.75,0.5 0,0 4.5,10.500001 9.75,12.000001 5.25,1.5 8.75,2.25 13.25,-0.25 4.5,-2.5 8.5,-8.750001 8.5,-8.750001 l 2.25,-2 -0.75,-7.75 z"
       id="path4180"
       sodipodi:nodetypes="cccsacssccc"
       inkscape:connector-curvature="0" />
    <path
       style="fill:#006233;fill-opacity:1;stroke:none;display:inline"
       d="m 327.6067,28.992265 c 0,0 -6.12433,24.741816 -9.07751,28.92454 -2.95316,4.182711 -5.97285,3.980441 -5.97285,3.980441 l 6.84433,-19.538825 1.29836,-9.520372 6.90767,-3.845784 z"
       id="path4182"
       sodipodi:nodetypes="cscccc"
       inkscape:connector-curvature="0" />
    <path
       style="fill:#006233;fill-opacity:1;stroke:none"
       d="m 289.90625,19.5625 c 0,0 -1.74816,7.066179 -0.6875,9.1875 1.06066,2.12132 3.32599,4.884803 5.09375,4.53125 1.76777,-0.353553 5.15625,13.5 5.15625,13.5 0,0 -3.74572,4.013483 -8.15625,4.90625 -3.87428,0.784221 -1.75,5.34375 -1.75,5.34375 0,0 7.40196,2.017767 10.8125,1.375 3.88446,-0.732084 2.00966,-7.865215 2.46875,-9.875 0.68934,-3.017767 6.45896,-10.556374 6.8125,-13.03125 0.10355,-0.724874 3.0625,-2.25 3.0625,-2.25 0,0 1.39978,-2.223724 1.28125,-3.4375 -0.13423,-1.3746 -2.15625,-3.53125 -2.15625,-3.53125 l -1.0625,-3.1875 c 0,0 -3.31066,3.181376 -3.25,5.65625 0.066,2.691773 0.40648,5.035798 -0.3125,7.40625 -0.90925,2.997744 -4.875,8.03125 -4.875,8.03125 0,0 -4.26401,-15.212787 -8.78125,-21.5 -0.9352,-1.301644 -3.65625,-3.125 -3.65625,-3.125 z M 300.25,50.25 l 0,3.25 -4,-0.75 4,-2.5 z"
       id="path4186"
       inkscape:connector-curvature="0" />
    <path
       style="fill:#006233;fill-opacity:1;stroke:none"
       d="m 358.67991,45.715115 c 0,0 -2.47486,-3.005204 -3.18198,-2.65165 -1.85067,0.92533 -4.77297,1.767767 -3.71231,3.18198 1.06066,1.414214 3.18198,5.303301 4.06587,3.889088 0.88388,-1.414214 2.82843,-2.121321 2.82843,-2.121321 0,0 2.29809,3.358757 3.53553,2.828427 1.23744,-0.53033 3.71231,-1.59099 3.53553,-3.18198 -0.17677,-1.59099 -2.12132,-4.242641 -2.82842,-3.889087 -0.70711,0.353553 -3.18199,0.883883 -4.24265,1.944543 z"
       id="path4188"
       sodipodi:nodetypes="cssscsssc"
       inkscape:connector-curvature="0" />
    <path
       sodipodi:nodetypes="cssscsssc"
       id="path4190"
       d="m 356.02682,89.697837 c 0,0 -2.82662,-3.849027 -3.48271,-3.520983 -1.71714,0.858564 -4.42859,1.640216 -3.44446,2.952387 0.98413,1.312173 2.95239,4.920647 3.7725,3.608475 0.82011,-1.312173 2.62435,-1.968259 2.62435,-1.968259 0,0 2.66261,3.646739 3.81076,3.154675 1.14815,-0.492065 3.62123,-0.59231 3.45721,-2.068504 -0.16402,-1.476193 -2.57049,-4.759184 -3.15467,-4.315581 -1.3632,1.03515 -2.59885,1.173661 -3.58298,2.15779 z"
       style="fill:#006233;fill-opacity:1;stroke:none"
       inkscape:connector-curvature="0" />
    <path
       style="fill:#006233;fill-opacity:1;stroke:none"
       d="m 356.4375,54.5625 c -1.40804,0.339872 -2.1875,4.21875 -2.1875,4.21875 0,0 -6.29763,-0.650412 -9.1875,0.375 -1.66599,0.591147 -2.65901,0.712626 -4.25,3.1875 -1.42109,2.210595 3.0144,5.12684 5.3125,6.1875 2.2981,1.06066 5.67493,-1.05882 4.4375,1.0625 -1.23744,2.12132 -1.25,6.875 -1.25,6.875 0,0 13.24295,10.78217 15.1875,11.3125 1.94454,0.53033 1.59375,1.0625 1.59375,1.0625 0,0 5.31526,-7.418813 6.90625,-8.65625 1.59099,-1.237437 0.71783,-7.940259 0.1875,-9.53125 -0.53033,-1.59099 -4.78125,1.9375 -4.78125,1.9375 0,0 0.69822,4.232233 0.875,6 0.17677,1.767767 -2.11611,2.666973 -3,2.84375 C 365.39737,81.614276 356.91422,74.353553 355.5,74 c -1.41421,-0.353554 -0.69822,-2.295653 -0.875,-4.59375 -0.17533,-2.279281 5.19299,-12.54345 5.28125,-14.78125 -0.23193,0.105591 -1.80238,0.08793 -3.15625,-0.0625 -0.0994,-0.01105 -0.21863,-0.02266 -0.3125,0 z m 3.46875,0.0625 c 0.0406,-0.01849 0.0527,-0.03615 0,-0.0625 0,0.01737 7.3e-4,0.04403 0,0.0625 z M 351.25,61.5 c 1.65685,0 3,0.727537 3,1.625 0,0.897463 -1.34315,1.625 -3,1.625 -1.65685,0 -3,-0.727537 -3,-1.625 0,-0.897463 1.34315,-1.625 3,-1.625 z"
       id="path4192"
       inkscape:connector-curvature="0" />
    <path
       style="fill:none;stroke:#e5e5e5;stroke-width:1px;stroke-linecap:butt;stroke-linejoin:miter;stroke-opacity:0"
       d="m 19.79899,261.38268 c 31.90464,92.65485 63.583624,185.44907 220.61732,200.81833 155.8198,-25.38793 201.77298,-107.19385 219.2031,-203.64675 l 0,-1.41422"
       id="path4431"
       sodipodi:nodetypes="cccc"
       inkscape:connector-curvature="0" />
    <text
       xml:space="preserve"
       style="font-size:40px;font-style:normal;font-weight:normal;fill:#006233;fill-opacity:1;stroke:none;font-family:Bitstream Vera Sans"
       x="254.70575"
       y="62.1175"
       id="text4439"
       transform="matrix(0.30938473,0.95093695,-0.95093695,0.30938473,0,0)"><tspan
         sodipodi:role="line"
         id="tspan4441"
         x="254.70575"
         y="62.1175"
         style="font-size:33.44800186px;fill:#006233;fill-opacity:1;stroke:none">R</tspan></text>
    <text
       transform="matrix(0.30938473,0.95093695,-0.95093695,0.30938473,0,0)"
       id="text4443"
       y="61.161777"
       x="277.62598"
       style="font-size:40px;font-style:normal;font-weight:normal;fill:#006233;fill-opacity:1;stroke:none;font-family:Bitstream Vera Sans"
       xml:space="preserve"><tspan
         style="font-size:33.44800186px;fill:#006233;fill-opacity:1;stroke:none"
         y="61.161777"
         x="277.62598"
         id="tspan4445"
         sodipodi:role="line">E</tspan></text>
    <text
       xml:space="preserve"
       style="font-size:40px;font-style:normal;font-weight:normal;fill:#006233;fill-opacity:1;stroke:none;font-family:Bitstream Vera Sans"
       x="292.00989"
       y="91.010818"
       id="text4447"
       transform="matrix(0.4022209,0.91554265,-0.91554265,0.4022209,0,0)"><tspan
         sodipodi:role="line"
         id="tspan4449"
         x="292.00989"
         y="91.010818"
         style="font-size:33.44800186px;fill:#006233;fill-opacity:1;stroke:none">P</tspan></text>
    <text
       transform="matrix(0.4022209,0.91554265,-0.91554265,0.4022209,0,0)"
       id="text4451"
       y="90.926453"
       x="311.70743"
       style="font-size:40px;font-style:normal;font-weight:normal;fill:#006233;fill-opacity:1;stroke:none;font-family:Bitstream Vera Sans"
       xml:space="preserve"><tspan
         style="font-size:33.44800186px;fill:#006233;fill-opacity:1;stroke:none"
         y="90.926453"
         x="311.70743"
         id="tspan4453"
         sodipodi:role="line">U</tspan></text>
    <text
       xml:space="preserve"
       style="font-size:40px;font-style:normal;font-weight:normal;fill:#006233;fill-opacity:1;stroke:none;font-family:Bitstream Vera Sans"
       x="326.87131"
       y="120.67603"
       id="text4455"
       transform="matrix(0.48410034,0.87501249,-0.87501249,0.48410034,0,0)"><tspan
         sodipodi:role="line"
         id="tspan4457"
         x="326.87131"
         y="120.67603"
         style="font-size:33.44800186px;fill:#006233;fill-opacity:1;stroke:none">B</tspan></text>
    <text
       transform="matrix(0.56070425,0.82801615,-0.82801615,0.56070425,0,0)"
       id="text4459"
       y="151.41121"
       x="337.53403"
       style="font-size:40px;font-style:normal;font-weight:normal;fill:#006233;fill-opacity:1;stroke:none;font-family:Bitstream Vera Sans"
       xml:space="preserve"><tspan
         style="font-size:33.44800186px;fill:#006233;fill-opacity:1;stroke:none"
         y="151.41121"
         x="337.53403"
         id="tspan4461"
         sodipodi:role="line">L</tspan></text>
    <text
       xml:space="preserve"
       style="font-size:40px;font-style:normal;font-weight:normal;fill:#006233;fill-opacity:1;stroke:none;font-family:Bitstream Vera Sans"
       x="343.77914"
       y="179.10893"
       id="text4463"
       transform="matrix(0.62417335,0.78128588,-0.78128588,0.62417335,0,0)"><tspan
         sodipodi:role="line"
         id="tspan4465"
         x="343.77914"
         y="179.10893"
         style="font-size:33.44800186px;fill:#006233;fill-opacity:1;stroke:none">I</tspan></text>
    <text
       transform="matrix(0.70421537,0.70998642,-0.70998642,0.70421537,0,0)"
       id="text4467"
       y="216.31097"
       x="332.13989"
       style="font-size:40px;font-style:normal;font-weight:normal;fill:#006233;fill-opacity:1;stroke:none;font-family:Bitstream Vera Sans"
       xml:space="preserve"><tspan
         style="font-size:33.44800186px;fill:#006233;fill-opacity:1;stroke:none"
         y="216.31097"
         x="332.13989"
         id="tspan4469"
         sodipodi:role="line">Q</tspan></text>
    <text
       xml:space="preserve"
       style="font-size:40px;font-style:normal;font-weight:normal;fill:#006233;fill-opacity:1;stroke:none;font-family:Bitstream Vera Sans"
       x="324.18051"
       y="264.83932"
       id="text4471"
       transform="matrix(0.79641191,0.60475455,-0.60475455,0.79641191,0,0)"><tspan
         sodipodi:role="line"
         id="tspan4473"
         x="324.18051"
         y="264.83932"
         style="font-size:33.44800186px;fill:#006233;fill-opacity:1;stroke:none">U</tspan></text>
    <text
       xml:space="preserve"
       style="font-size:40px;font-style:normal;font-weight:normal;fill:#006233;fill-opacity:1;stroke:none;font-family:Bitstream Vera Sans"
       x="324.62695"
       y="294.44946"
       id="text4475"
       transform="matrix(0.84626712,0.53275882,-0.53275882,0.84626712,0,0)"><tspan
         sodipodi:role="line"
         id="tspan4477"
         x="324.62695"
         y="294.44946"
         style="font-size:33.44800186px;fill:#006233;fill-opacity:1;stroke:none">E</tspan></text>
    <text
       transform="matrix(0.91333039,0.40721935,-0.40721935,0.91333039,0,0)"
       id="text4479"
       y="339.74222"
       x="310.54095"
       style="font-size:40px;font-style:normal;font-weight:normal;fill:#006233;fill-opacity:1;stroke:none;font-family:Bitstream Vera Sans"
       xml:space="preserve"><tspan
         style="font-size:33.44800186px;fill:#006233;fill-opacity:1;stroke:none"
         y="339.74222"
         x="310.54095"
         id="tspan4481"
         sodipodi:role="line">I</tspan></text>
    <text
       xml:space="preserve"
       style="font-size:40px;font-style:normal;font-weight:normal;fill:#006233;fill-opacity:1;stroke:none;font-family:Bitstream Vera Sans"
       x="286.00867"
       y="371.54745"
       id="text4483"
       transform="matrix(0.94916627,0.31477514,-0.31477514,0.94916627,0,0)"><tspan
         sodipodi:role="line"
         id="tspan4485"
         x="286.00867"
         y="371.54745"
         style="font-size:33.44800186px;fill:#006233;fill-opacity:1;stroke:none">S</tspan></text>
    <text
       xml:space="preserve"
       style="font-size:40px;font-style:normal;font-weight:normal;fill:#006233;fill-opacity:1;stroke:none;font-family:Bitstream Vera Sans"
       x="293.45236"
       y="381.85681"
       id="text4487"
       transform="matrix(0.9593186,0.28232574,-0.28232574,0.9593186,0,0)"><tspan
         sodipodi:role="line"
         id="tspan4489"
         x="293.45236"
         y="381.85681"
         style="font-size:33.44800186px;fill:#006233;fill-opacity:1;stroke:none">L</tspan></text>
    <text
       transform="matrix(0.98321558,0.18244757,-0.18244757,0.98321558,0,0)"
       id="text4491"
       y="412.31735"
       x="272.45001"
       style="font-size:40px;font-style:normal;font-weight:normal;fill:#006233;fill-opacity:1;stroke:none;font-family:Bitstream Vera Sans"
       xml:space="preserve"><tspan
         style="font-size:33.44800186px;fill:#006233;fill-opacity:1;stroke:none"
         y="412.31735"
         x="272.45001"
         id="tspan4493"
         sodipodi:role="line">A</tspan></text>
    <text
       xml:space="preserve"
       style="font-size:40px;font-style:normal;font-weight:normal;fill:#006233;fill-opacity:1;stroke:none;font-family:Bitstream Vera Sans"
       x="213.26958"
       y="462.14719"
       id="text4495"
       transform="matrix(0.99998617,-0.00525924,0.00525924,0.99998617,0,0)"><tspan
         sodipodi:role="line"
         id="tspan4497"
         x="213.26958"
         y="462.14719"
         style="font-size:33.44800186px;fill:#006233;fill-opacity:1;stroke:none">M</tspan></text>
    <text
       xml:space="preserve"
       style="font-size:40px;font-style:normal;font-weight:normal;fill:#006233;fill-opacity:1;stroke:none;font-family:Bitstream Vera Sans"
       x="206.66115"
       y="478.43167"
       id="text4499"
       transform="matrix(0.99705153,-0.07673496,0.07673496,0.99705153,0,0)"><tspan
         sodipodi:role="line"
         id="tspan4501"
         x="206.66115"
         y="478.43167"
         style="font-size:33.44800186px;fill:#006233;fill-opacity:1;stroke:none">I</tspan></text>
    <text
       xml:space="preserve"
       style="font-size:40px;font-style:normal;font-weight:normal;fill:#006233;fill-opacity:1;stroke:none;font-family:Bitstream Vera Sans"
       x="164.65556"
       y="497.90866"
       id="text4503"
       transform="matrix(0.98333394,-0.18180857,0.18180857,0.98333394,0,0)"><tspan
         sodipodi:role="line"
         id="tspan4505"
         x="164.65556"
         y="497.90866"
         style="font-size:33.44800186px;fill:#006233;fill-opacity:1;stroke:none">Q</tspan></text>
    <text
       transform="matrix(0.9640885,-0.26558117,0.26558117,0.9640885,0,0)"
       id="text4507"
       y="513.13739"
       x="148.71086"
       style="font-size:40px;font-style:normal;font-weight:normal;fill:#006233;fill-opacity:1;stroke:none;font-family:Bitstream Vera Sans"
       xml:space="preserve"><tspan
         style="font-size:33.44800186px;fill:#006233;fill-opacity:1;stroke:none"
         y="513.13739"
         x="148.71086"
         id="tspan4509"
         sodipodi:role="line">U</tspan></text>
    <text
       transform="matrix(0.93747615,-0.34804952,0.34804952,0.93747615,0,0)"
       id="text4511"
       y="525.38007"
       x="127.95069"
       style="font-size:40px;font-style:normal;font-weight:normal;fill:#006233;fill-opacity:1;stroke:none;font-family:Bitstream Vera Sans"
       xml:space="preserve"><tspan
         style="font-size:33.44800186px;fill:#006233;fill-opacity:1;stroke:none"
         y="525.38007"
         x="127.95069"
         id="tspan4513"
         sodipodi:role="line">E</tspan></text>
    <text
       xml:space="preserve"
       style="font-size:40px;font-style:normal;font-weight:normal;fill:#006233;fill-opacity:1;stroke:none;font-family:Bitstream Vera Sans"
       x="93.389336"
       y="540.49286"
       id="text4515"
       transform="matrix(0.88649363,-0.4627408,0.4627408,0.88649363,0,0)"><tspan
         sodipodi:role="line"
         id="tspan4517"
         x="93.389336"
         y="540.49286"
         style="font-size:33.44800186px;fill:#006233;fill-opacity:1;stroke:none">D</tspan></text>
    <text
       xml:space="preserve"
       style="font-size:40px;font-style:normal;font-weight:normal;fill:#006233;fill-opacity:1;stroke:none;font-family:Bitstream Vera Sans"
       x="72.556656"
       y="548.64801"
       id="text4519"
       transform="matrix(0.84446707,-0.53560748,0.53560748,0.84446707,0,0)"><tspan
         sodipodi:role="line"
         id="tspan4521"
         x="72.556656"
         y="548.64801"
         style="font-size:33.44800186px;fill:#006233;fill-opacity:1;stroke:none">E</tspan></text>
    <text
       transform="matrix(0.74120824,-0.67127517,0.67127517,0.74120824,0,0)"
       id="text4523"
       y="557.784"
       x="9.614974"
       style="font-size:40px;font-style:normal;font-weight:normal;fill:#006233;fill-opacity:1;stroke:none;font-family:Bitstream Vera Sans"
       xml:space="preserve"><tspan
         style="font-size:33.44800186px;fill:#006233;fill-opacity:1;stroke:none"
         y="557.784"
         x="9.614974"
         id="tspan4525"
         sodipodi:role="line">M</tspan></text>
    <text
       xml:space="preserve"
       style="font-size:40px;font-style:normal;font-weight:normal;fill:#006233;fill-opacity:1;stroke:none;font-family:Bitstream Vera Sans"
       x="-32.784992"
       y="557.22174"
       id="text4527"
       transform="matrix(0.65039353,-0.75959743,0.75959743,0.65039353,0,0)"><tspan
         sodipodi:role="line"
         id="tspan4529"
         x="-32.784992"
         y="557.22174"
         style="font-size:33.44800186px;fill:#006233;fill-opacity:1;stroke:none">A</tspan></text>
    <text
       xml:space="preserve"
       style="font-size:40px;font-style:normal;font-weight:normal;fill:#006233;fill-opacity:1;stroke:none;font-family:Bitstream Vera Sans"
       x="-105.2565"
       y="547.5235"
       id="text4531"
       transform="matrix(0.50747985,-0.86166362,0.86166362,0.50747985,0,0)"><tspan
         sodipodi:role="line"
         id="tspan4533"
         x="-105.2565"
         y="547.5235"
         style="font-size:33.44800186px;fill:#006233;fill-opacity:1;stroke:none">U</tspan></text>
    <text
       transform="matrix(0.42921495,-0.90320237,0.90320237,0.42921495,0,0)"
       id="text4535"
       y="538.27106"
       x="-130.14786"
       style="font-size:40px;font-style:normal;font-weight:normal;fill:#006233;fill-opacity:1;stroke:none;font-family:Bitstream Vera Sans"
       xml:space="preserve"><tspan
         style="font-size:33.44800186px;fill:#006233;fill-opacity:1;stroke:none"
         y="538.27106"
         x="-130.14786"
         id="tspan4537"
         sodipodi:role="line">R</tspan></text>
    <text
       transform="matrix(0.39107311,-0.92035962,0.92035962,0.39107311,0,0)"
       id="text4539"
       y="533.24054"
       x="-129.73177"
       style="font-size:40px;font-style:normal;font-weight:normal;fill:#006233;fill-opacity:1;stroke:none;font-family:Bitstream Vera Sans"
       xml:space="preserve"><tspan
         style="font-size:33.44800186px;fill:#006233;fill-opacity:1;stroke:none"
         y="533.24054"
         x="-129.73177"
         id="tspan4541"
         sodipodi:role="line">I</tspan></text>
    <text
       xml:space="preserve"
       style="font-size:40px;font-style:normal;font-weight:normal;fill:#006233;fill-opacity:1;stroke:none;font-family:Bitstream Vera Sans"
       x="-148.07082"
       y="525.52057"
       id="text4543"
       transform="matrix(0.34019781,-0.9403539,0.9403539,0.34019781,0,0)"><tspan
         sodipodi:role="line"
         id="tspan4545"
         x="-148.07082"
         y="525.52057"
         style="font-size:33.44800186px;fill:#006233;fill-opacity:1;stroke:none">T</tspan></text>
    <text
       transform="matrix(0.29757492,-0.95469847,0.95469847,0.29757492,0,0)"
       id="text4547"
       y="518.64008"
       x="-153.88261"
       style="font-size:40px;font-style:normal;font-weight:normal;fill:#006233;fill-opacity:1;stroke:none;font-family:Bitstream Vera Sans"
       xml:space="preserve"><tspan
         style="font-size:33.44800186px;fill:#006233;fill-opacity:1;stroke:none"
         y="518.64008"
         x="-153.88261"
         id="tspan4549"
         sodipodi:role="line">A</tspan></text>
    <text
       xml:space="preserve"
       style="font-size:40px;font-style:normal;font-weight:normal;fill:#006233;fill-opacity:1;stroke:none;font-family:Bitstream Vera Sans"
       x="-183.27724"
       y="503.7413"
       id="text4551"
       transform="matrix(0.20010423,-0.97977462,0.97977462,0.20010423,0,0)"><tspan
         sodipodi:role="line"
         id="tspan4553"
         x="-183.27724"
         y="503.7413"
         style="font-size:33.44800186px;fill:#006233;fill-opacity:1;stroke:none">N</tspan></text>
    <text
       xml:space="preserve"
       style="font-size:40px;font-style:normal;font-weight:normal;fill:#006233;fill-opacity:1;stroke:none;font-family:Bitstream Vera Sans"
       x="-194.79056"
       y="490.62839"
       id="text4555"
       transform="matrix(0.13222689,-0.99121948,0.99121948,0.13222689,0,0)"
       inkscape:transform-center-y="3.2471435"><tspan
         sodipodi:role="line"
         id="tspan4557"
         x="-194.79056"
         y="490.62839"
         style="font-size:33.44800186px;fill:#006233;fill-opacity:1;stroke:none">I</tspan></text>
    <text
       transform="matrix(0.09732886,-0.99525228,0.99525228,0.09732886,0,0)"
       id="text4559"
       y="484.43851"
       x="-204.94463"
       style="font-size:40px;font-style:normal;font-weight:normal;fill:#006233;fill-opacity:1;stroke:none;font-family:Bitstream Vera Sans"
       xml:space="preserve"><tspan
         style="font-size:33.44800186px;fill:#006233;fill-opacity:1;stroke:none"
         y="484.43851"
         x="-204.94463"
         id="tspan4561"
         sodipodi:role="line">E</tspan></text>
  </g>
</svg>
