<?xml version="1.0" encoding="UTF-8" standalone="no"?>
<!-- Created with Inkscape (http://www.inkscape.org/) -->
<svg
   xmlns:svg="http://www.w3.org/2000/svg"
   xmlns="http://www.w3.org/2000/svg"
   version="1.0"
   width="500"
   height="669.17883"
   id="svg2"
   xml:space="preserve"><defs
     id="defs4"><clipPath
       id="clipPath4489"><path
         d="M 88.036471,162.68037 C 93.749078,149.93625 106.6431,146.22269 112.26127,134.71353 C 118.9104,123.26666 113.46304,112.54501 108.58681,107.53448 C 103.61087,102.42148 99.430918,101.27179 93.043587,101.70967 C 81.372366,105.43256 75.581475,106.13322 64.206986,101.93977 C 60.768877,100.67224 56.863853,100.66353 54.027672,101.99806 C 9.208698,123.08713 79.570097,184.99687 88.036471,162.68037 z "
         style="fill:none;fill-rule:evenodd;stroke:#000000;stroke-width:0.56444448;stroke-linecap:butt;stroke-linejoin:miter;stroke-miterlimit:4;stroke-dasharray:none;stroke-opacity:1"
         id="path4491" /></clipPath></defs><g
     transform="matrix(4.3505564,0,0,4.3505564,-89.846339,-236.90305)"
     style="fill-rule:evenodd;stroke:#000000;stroke-width:0.56444448;stroke-miterlimit:4;stroke-dasharray:none;stroke-opacity:1;display:inline"
     id="g2588"><g
       style="stroke:#000000;stroke-width:0.56444448;stroke-miterlimit:4;stroke-dasharray:none;stroke-opacity:1"
       id="g2515"><g
         transform="translate(-36.199138,-14.96817)"
         style="stroke:#000000;stroke-width:0.56444448;stroke-miterlimit:4;stroke-dasharray:none;stroke-opacity:1"
         id="g135">
       <path
   d="M 113.347,95.0762 C 110.1218,83.3136 104.6939,72.6128 94.1587,70.8153 C 102.8928,75.9326 108.2817,89.9574 109.5269,96.6412 L 113.347,95.0762 L 113.347,95.0762 z "
   style="fill:#00923f;stroke:#000000;stroke-width:0.56444448;stroke-miterlimit:4;stroke-dasharray:none;stroke-opacity:1"
   id="path137" />
       
      </g><g
         transform="translate(-36.199138,-14.96817)"
         style="stroke:#000000;stroke-width:0.56444448;stroke-miterlimit:4;stroke-dasharray:none;stroke-opacity:1"
         id="g141">
       <path
   d="M 115.462,88.3868 C 117.2893,81.2268 121.3344,74.9574 129.0325,72.6131 C 123.3455,77.0412 120.5276,83.268 119.2811,89.9521 L 115.462,88.3868 L 115.462,88.3868 z "
   style="fill:#00923f;stroke:#000000;stroke-width:0.56444448;stroke-miterlimit:4;stroke-dasharray:none;stroke-opacity:1"
   id="path143" />
       
      </g><g
         transform="translate(-36.199138,-14.96817)"
         style="stroke:#000000;stroke-width:0.56444448;stroke-miterlimit:4;stroke-dasharray:none;stroke-opacity:1"
         id="g147">
       <path
   d="M 119.406,96.9399 C 114.0761,94.2584 112.1925,87.9943 115.542,83.4768 C 120.9953,86.0481 122.6691,92.3639 119.406,96.9399 z "
   style="fill:#00923f;stroke:#000000;stroke-width:0.56444448;stroke-miterlimit:4;stroke-dasharray:none;stroke-opacity:1"
   id="path149" />
       
      </g><g
         transform="translate(-36.199138,-14.96817)"
         style="stroke:#000000;stroke-width:0.56444448;stroke-miterlimit:4;stroke-dasharray:none;stroke-opacity:1"
         id="g153">
       <path
   d="M 116.231,110.121 L 112.5737,109.7768 C 109.7454,98.125 107.2588,75.8955 123.155,69.7039 C 111.8422,79.9803 114.622,97.3941 116.231,110.121 L 116.231,110.121 z "
   style="fill:#00923f;stroke:#000000;stroke-width:0.56444448;stroke-miterlimit:4;stroke-dasharray:none;stroke-opacity:1"
   id="path155" />
       
      </g><g
         transform="translate(-36.199138,-14.96817)"
         style="stroke:#000000;stroke-width:0.56444448;stroke-miterlimit:4;stroke-dasharray:none;stroke-opacity:1"
         id="g159">
       <path
   d="M 92.4316,115.164 C 92.6845,111.6516 94.5885,109.8367 97.588,108.889 C 102.1442,107.4409 105.1931,109.3842 108.4039,114.3858 L 104.2561,114.4018 C 101.1835,110.9033 95.4829,110.7306 92.4316,115.164 z "
   style="fill:#00923f;stroke:#000000;stroke-width:0.56444448;stroke-miterlimit:4;stroke-dasharray:none;stroke-opacity:1"
   id="path161" />
       
      </g><g
         transform="translate(-36.199138,-14.96817)"
         style="stroke:#000000;stroke-width:0.56444448;stroke-miterlimit:4;stroke-dasharray:none;stroke-opacity:1"
         id="g165">
       <path
   d="M 86.5852,88.3605 C 88.4868,84.7916 92.9244,82.5989 97.9471,83.3298 C 103.8958,84.1468 107.8457,88.7042 109.894,93.7351 C 112.0884,99.2387 112.1369,105.774 112.1369,112.2236 L 109.6015,112.2236 C 109.2601,105.7311 108.626,99.7117 105.7492,94.466 C 103.9935,91.2843 101.5065,87.5003 97.7031,86.3397 C 93.7532,85.1788 89.9985,85.9954 86.5852,88.3605 L 86.5852,88.3605 z "
   style="fill:#00923f;stroke:#000000;stroke-width:0.56444448;stroke-miterlimit:4;stroke-dasharray:none;stroke-opacity:1"
   id="path167" />
       
      </g><g
         transform="translate(-36.199138,-14.96817)"
         style="stroke:#000000;stroke-width:0.56444448;stroke-miterlimit:4;stroke-dasharray:none;stroke-opacity:1"
         id="g285">
       <path
   d="M 82.1899,98.06 C 83.7173,93.7958 88.3185,91.2263 93.3172,90.7019 C 99.2352,90.0387 103.8071,91.9874 107.8377,96.5267 C 111.8544,101.0244 113.8483,106.9616 114.8977,114.3834 L 113.2295,114.3949 C 110.9088,108.2261 108.4379,102.5414 104.0715,98.2192 C 101.4524,95.5637 97.1674,93.7227 93.2232,93.5834 C 88.522,93.4535 84.8895,95.2475 82.1899,98.06 L 82.1899,98.06 z "
   style="fill:#00923f;stroke:#000000;stroke-width:0.56444448;stroke-miterlimit:4;stroke-dasharray:none;stroke-opacity:1"
   id="path287" />
       
      </g><g
         transform="translate(-36.199138,-14.96817)"
         style="stroke:#000000;stroke-width:0.56444448;stroke-miterlimit:4;stroke-dasharray:none;stroke-opacity:1"
         id="g291">
       <path
   d="M 82.5333,108.5 C 83.3242,105.5791 84.6118,101.1959 89.9015,98.7235 C 94.0034,96.8133 98.2763,96.871 101.873,98.302 C 108.2506,100.8303 111.8098,108.6573 113.5836,114.381 L 109.9869,114.3795 C 108.5106,109.4302 104.485,102.5231 98.4502,101.0711 C 91.5925,99.4209 85.6923,103.4737 82.5333,108.5 L 82.5333,108.5 z "
   style="fill:#00923f;stroke:#000000;stroke-width:0.56444448;stroke-miterlimit:4;stroke-dasharray:none;stroke-opacity:1"
   id="path293" />
       
      </g><g
         transform="translate(-36.199138,-14.96817)"
         style="stroke:#000000;stroke-width:0.56444448;stroke-miterlimit:4;stroke-dasharray:none;stroke-opacity:1"
         id="g297">
       <path
   d="M 88.1434,112.451 C 88.756,109.2113 90.4393,106.1526 93.3412,104.8012 C 100.991,101.2681 108.8653,106.6451 111.7184,114.2716 L 108.3482,114.2884 C 106.5478,110.4935 103.3983,107.628 99.2281,106.9879 C 94.5619,106.2473 90.4496,108.5683 88.1434,112.451 L 88.1434,112.451 z "
   style="fill:#00923f;stroke:#000000;stroke-width:0.56444448;stroke-miterlimit:4;stroke-dasharray:none;stroke-opacity:1"
   id="path299" />
       
      </g></g><g
       style="stroke:#000000;stroke-width:0.56444448;stroke-miterlimit:4;stroke-dasharray:none;stroke-opacity:1"
       id="g2544"><g
         transform="translate(-36.199138,-14.96817)"
         style="stroke:#000000;stroke-width:0.56444448;stroke-miterlimit:4;stroke-dasharray:none;stroke-opacity:1"
         id="g171">
       <path
   d="M 118.133,117.737 C 112.189,116.3903 108.4985,110.7867 110.377,105.6502 C 116.4065,106.8614 119.9107,112.5644 118.133,117.737 z "
   style="fill:#277d7c;stroke:#000000;stroke-width:0.56444448;stroke-miterlimit:4;stroke-dasharray:none;stroke-opacity:1"
   id="path173" />
       
      </g><g
         transform="translate(-36.199138,-14.96817)"
         style="stroke:#000000;stroke-width:0.56444448;stroke-miterlimit:4;stroke-dasharray:none;stroke-opacity:1"
         id="g177">
       <path
   d="M 138.241,100.088 C 144.2652,99.0543 148.3269,93.6524 146.7962,88.4268 C 140.6957,89.3201 136.8133,94.8314 138.241,100.088 L 138.241,100.088 z "
   style="fill:#277d7c;stroke:#000000;stroke-width:0.56444448;stroke-miterlimit:4;stroke-dasharray:none;stroke-opacity:1"
   id="path179" />
       
      </g><g
         transform="translate(-36.199138,-14.96817)"
         style="stroke:#000000;stroke-width:0.56444448;stroke-miterlimit:4;stroke-dasharray:none;stroke-opacity:1"
         id="g183">
       <path
   d="M 119.661,108.618 C 125.771,109.1264 131.3964,104.9562 131.6014,99.562 C 125.4637,98.901 119.9754,103.2203 119.661,108.618 L 119.661,108.618 z "
   style="fill:#277d7c;stroke:#000000;stroke-width:0.56444448;stroke-miterlimit:4;stroke-dasharray:none;stroke-opacity:1"
   id="path185" />
       
      </g><g
         transform="translate(-36.199138,-14.96817)"
         style="stroke:#000000;stroke-width:0.56444448;stroke-miterlimit:4;stroke-dasharray:none;stroke-opacity:1"
         id="g189">
       <path
   d="M 132.189,105.739 C 127.537,102.2098 127.0436,95.7437 131.3094,91.8731 C 136.1061,95.3139 136.3823,101.7963 132.189,105.739 z "
   style="fill:#277d7c;stroke:#000000;stroke-width:0.56444448;stroke-miterlimit:4;stroke-dasharray:none;stroke-opacity:1"
   id="path191" />
       
      </g><g
         transform="translate(-36.199138,-14.96817)"
         style="stroke:#000000;stroke-width:0.56444448;stroke-miterlimit:4;stroke-dasharray:none;stroke-opacity:1"
         id="g195">
       <path
   d="M 124.226,96.4477 C 118.9226,93.7251 117.1012,87.4471 120.4953,82.9554 C 125.9229,85.5683 127.5337,91.8974 124.226,96.4477 z "
   style="fill:#277d7c;stroke:#000000;stroke-width:0.56444448;stroke-miterlimit:4;stroke-dasharray:none;stroke-opacity:1"
   id="path197" />
       
      </g><g
         transform="translate(-36.199138,-14.96817)"
         style="stroke:#000000;stroke-width:0.56444448;stroke-miterlimit:4;stroke-dasharray:none;stroke-opacity:1"
         id="g201">
       <path
   d="M 137.566,101.162 C 132.9136,97.633 132.4205,91.1667 136.6863,87.2958 C 141.483,90.7369 141.7593,97.2192 137.566,101.162 z "
   style="fill:#277d7c;stroke:#000000;stroke-width:0.56444448;stroke-miterlimit:4;stroke-dasharray:none;stroke-opacity:1"
   id="path203" />
       
      </g><g
         transform="translate(-36.199138,-14.96817)"
         style="stroke:#000000;stroke-width:0.56444448;stroke-miterlimit:4;stroke-dasharray:none;stroke-opacity:1"
         id="g207">
       <path
   d="M 122.198,103.497 C 116.5161,101.4514 113.7221,95.4577 116.3741,90.5938 C 122.1611,92.5152 124.7554,98.585 122.198,103.497 z "
   style="fill:#277d7c;stroke:#000000;stroke-width:0.56444448;stroke-miterlimit:4;stroke-dasharray:none;stroke-opacity:1"
   id="path209" />
       
      </g><g
         transform="translate(-36.199138,-14.96817)"
         style="stroke:#000000;stroke-width:0.56444448;stroke-miterlimit:4;stroke-dasharray:none;stroke-opacity:1"
         id="g213">
       <path
   d="M 120.172,110.053 C 114.2286,108.7063 110.5372,103.103 112.4163,97.9668 C 118.4458,99.1777 121.95,104.881 120.172,110.053 z "
   style="fill:#277d7c;stroke:#000000;stroke-width:0.56444448;stroke-miterlimit:4;stroke-dasharray:none;stroke-opacity:1"
   id="path215" />
       
      </g><g
         transform="translate(-36.199138,-14.96817)"
         style="stroke:#000000;stroke-width:0.56444448;stroke-miterlimit:4;stroke-dasharray:none;stroke-opacity:1"
         id="g225">
       <path
   d="M 128.102,107.824 C 133.0993,110.9652 140.3382,109.8448 143.5838,105.2684 C 138.6493,101.9823 131.4441,103.2929 128.102,107.824 z "
   style="fill:#277d7c;stroke:#000000;stroke-width:0.56444448;stroke-miterlimit:4;stroke-dasharray:none;stroke-opacity:1"
   id="path227" />
       
      </g><g
         transform="translate(-36.199138,-14.96817)"
         style="stroke:#000000;stroke-width:0.56444448;stroke-miterlimit:4;stroke-dasharray:none;stroke-opacity:1"
         id="g231">
       <path
   d="M 123.993,112.563 C 128.3032,116.4153 135.6527,116.4088 139.7422,112.3926 C 135.5217,108.4073 128.1686,108.606 123.993,112.563 z "
   style="fill:#277d7c;stroke:#000000;stroke-width:0.56444448;stroke-miterlimit:4;stroke-dasharray:none;stroke-opacity:1"
   id="path233" />
       
      </g><g
         transform="translate(-36.199138,-14.96817)"
         style="stroke:#000000;stroke-width:0.56444448;stroke-miterlimit:4;stroke-dasharray:none;stroke-opacity:1"
         id="g237">
       <path
   d="M 133.884,102.589 C 139.4689,104.8322 146.3328,102.5147 148.5287,97.4764 C 142.9736,95.08 136.184,97.5787 133.884,102.589 z "
   style="fill:#277d7c;stroke:#000000;stroke-width:0.56444448;stroke-miterlimit:4;stroke-dasharray:none;stroke-opacity:1"
   id="path239" />
       
      </g><g
         transform="translate(-36.199138,-14.96817)"
         style="stroke:#000000;stroke-width:0.56444448;stroke-miterlimit:4;stroke-dasharray:none;stroke-opacity:1"
         id="g243">
       <path
   d="M 115.583,117.119 C 121.6923,117.6269 127.3178,113.457 127.5234,108.0631 C 121.385,107.4017 115.8968,111.721 115.583,117.119 z "
   style="fill:#277d7c;stroke:#000000;stroke-width:0.56444448;stroke-miterlimit:4;stroke-dasharray:none;stroke-opacity:1"
   id="path245" />
       
      </g><g
         transform="translate(-36.199138,-14.96817)"
         style="stroke:#000000;stroke-width:0.56444448;stroke-miterlimit:4;stroke-dasharray:none;stroke-opacity:1"
         id="g249">
       <path
   d="M 122.964,96.8621 C 128.801,98.5333 135.323,95.5453 136.8578,90.3203 C 131.0309,88.4945 124.6059,91.6546 122.964,96.8621 z "
   style="fill:#277d7c;stroke:#000000;stroke-width:0.56444448;stroke-miterlimit:4;stroke-dasharray:none;stroke-opacity:1"
   id="path251" />
       
      </g><g
         transform="translate(-36.199138,-14.96817)"
         style="stroke:#000000;stroke-width:0.56444448;stroke-miterlimit:4;stroke-dasharray:none;stroke-opacity:1"
         id="g255">
       <path
   d="M 123.979,97.619 C 129.7814,95.8562 132.9513,90.0089 130.6105,85.0211 C 124.7099,86.6547 121.7352,92.5884 123.979,97.619 z "
   style="fill:#277d7c;stroke:#000000;stroke-width:0.56444448;stroke-miterlimit:4;stroke-dasharray:none;stroke-opacity:1"
   id="path257" />
       
      </g></g><g
       transform="translate(-36.199138,-14.96817)"
       style="stroke:#000000;stroke-width:0.56444448;stroke-miterlimit:4;stroke-dasharray:none;stroke-opacity:1"
       id="g261">
       <path
   d="M 118.271,104.89 C 119.295,104.89 120.1241,105.6212 120.1241,106.5237 C 120.1241,107.4264 119.295,108.1144 118.271,108.1144 C 117.247,108.1144 116.4665,107.4264 116.4665,106.5237 C 116.4665,105.6212 117.247,104.89 118.271,104.89 z M 120.1241,108.0718 C 121.1481,108.0718 121.9772,108.8024 121.9772,109.7057 C 121.9772,110.6081 121.1481,111.2961 120.1241,111.2961 C 119.0998,111.2961 118.3198,110.6081 118.3198,109.7057 C 118.3198,108.8024 119.0998,108.0718 120.1241,108.0718 z M 122.9036,104.804 C 123.9276,104.804 124.7566,105.5349 124.7566,106.4376 C 124.7566,107.3409 123.9276,108.0286 122.9036,108.0286 C 121.8796,108.0286 121.0993,107.3409 121.0993,106.4376 C 121.0993,105.5349 121.8796,104.804 122.9036,104.804 z M 127.8286,106.395 C 128.8523,106.395 129.6817,107.1256 129.6817,108.0286 C 129.6817,108.9313 128.8523,109.6193 127.8286,109.6193 C 126.8046,109.6193 126.0244,108.9313 126.0244,108.0286 C 126.0244,107.1256 126.8046,106.395 127.8286,106.395 L 127.8286,106.395 z M 131.8758,105.1477 C 132.8995,105.1477 133.7289,105.8786 133.7289,106.7819 C 133.7289,107.6846 132.8995,108.3726 131.8758,108.3726 C 130.8518,108.3726 130.0715,107.6846 130.0715,106.7819 C 130.0715,105.8786 130.8518,105.1477 131.8758,105.1477 z M 128.755,102.6542 C 129.779,102.6542 130.6078,103.3851 130.6078,104.2881 C 130.6078,105.1909 129.779,105.8786 128.755,105.8786 C 127.731,105.8786 126.9508,105.1909 126.9508,104.2881 C 126.9508,103.3851 127.731,102.6542 128.755,102.6542 z M 132.3636,101.6223 C 133.3873,101.6223 134.2163,102.3531 134.2163,103.2559 C 134.2163,104.1592 133.3873,104.8469 132.3636,104.8469 C 131.3396,104.8469 130.5593,104.1592 130.5593,103.2559 C 130.5593,102.3531 131.3396,101.6223 132.3636,101.6223 z M 135.2891,99.214 C 136.3131,99.214 137.1422,99.9455 137.1422,100.8482 C 137.1422,101.7509 136.3131,102.4395 135.2891,102.4395 C 134.2651,102.4395 133.4849,101.7509 133.4849,100.8482 C 133.4849,99.9455 134.2651,99.214 135.2891,99.214 z M 138.8001,97.4517 C 139.8241,97.4517 140.6528,98.1826 140.6528,99.0853 C 140.6528,99.9881 139.8241,100.6763 138.8001,100.6763 C 137.7761,100.6763 136.9958,99.9881 136.9958,99.0853 C 136.9958,98.1826 137.7761,97.4517 138.8001,97.4517 z M 134.8502,95.8175 C 135.8745,95.8175 136.7033,96.5487 136.7033,97.4517 C 136.7033,98.3545 135.8745,99.0421 134.8502,99.0421 C 133.8262,99.0421 133.0462,98.3545 133.0462,97.4517 C 133.0462,96.5487 133.8262,95.8175 134.8502,95.8175 z M 125.9268,96.7637 C 126.9508,96.7637 127.7795,97.4946 127.7795,98.3973 C 127.7795,99.3004 126.9508,99.9881 125.9268,99.9881 C 124.9028,99.9881 124.1225,99.3004 124.1225,98.3973 C 124.1225,97.4946 124.9028,96.7637 125.9268,96.7637 z M 121.7823,98.0534 C 122.806,98.0534 123.6347,98.7842 123.6347,99.6875 C 123.6347,100.5903 122.806,101.2783 121.7823,101.2783 C 120.758,101.2783 119.9777,100.5903 119.9777,99.6875 C 119.9777,98.7842 120.758,98.0534 121.7823,98.0534 z M 122.6596,94.399 C 123.6838,94.399 124.5126,95.1298 124.5126,96.0323 C 124.5126,96.9356 123.6838,97.6236 122.6596,97.6236 C 121.6356,97.6236 120.8556,96.9356 120.8556,96.0323 C 120.8556,95.1298 121.6356,94.399 122.6596,94.399 z "
   style="fill:#da251d;stroke:#000000;stroke-width:0.56444448;stroke-miterlimit:4;stroke-dasharray:none;stroke-opacity:1"
   id="path263" />
       
      </g></g><g
     transform="matrix(4.3505564,0,0,4.3505564,-89.846339,-236.90305)"
     style="fill-rule:evenodd;display:inline"
     id="g7891"><g
       style="stroke:#000000;stroke-width:0.56444448;stroke-miterlimit:4;stroke-dasharray:none;stroke-opacity:1"
       id="g2843"><g
         transform="translate(-36.199138,-14.96817)"
         style="stroke:#000000;stroke-width:0.56444448;stroke-miterlimit:4;stroke-dasharray:none;stroke-opacity:1"
         id="g71">
       <path
   d="M 69.1232,127.789 C 72.3685,132.2304 70.7967,138.4037 65.5859,140.9847 C 62.1776,136.5905 63.9582,130.4543 69.1232,127.789 z "
   style="fill:#277d7c;stroke:#000000;stroke-width:0.56444448;stroke-miterlimit:4;stroke-dasharray:none;stroke-opacity:1"
   id="path73" />
       
      </g><g
         transform="translate(-36.199138,-14.96817)"
         style="stroke:#000000;stroke-width:0.56444448;stroke-miterlimit:4;stroke-dasharray:none;stroke-opacity:1"
         id="g77">
       <path
   d="M 59.4647,127.682 C 65.695,129.436 69.2323,135.5986 66.8755,140.9623 C 60.5443,139.3473 57.2126,133.0892 59.4647,127.682 z "
   style="fill:#277d7c;stroke:#000000;stroke-width:0.56444448;stroke-miterlimit:4;stroke-dasharray:none;stroke-opacity:1"
   id="path79" />
       
      </g><g
         transform="translate(-36.199138,-14.96817)"
         style="stroke:#000000;stroke-width:0.56444448;stroke-miterlimit:4;stroke-dasharray:none;stroke-opacity:1"
         id="g83">
       <path
   d="M 69.495,132.515 C 73.1993,136.6677 72.2931,142.9445 67.381,145.9461 C 63.519,141.8537 64.6367,135.5973 69.495,132.515 z "
   style="fill:#277d7c;stroke:#000000;stroke-width:0.56444448;stroke-miterlimit:4;stroke-dasharray:none;stroke-opacity:1"
   id="path85" />
       
      </g><g
         transform="translate(-36.199138,-14.96817)"
         style="stroke:#000000;stroke-width:0.56444448;stroke-miterlimit:4;stroke-dasharray:none;stroke-opacity:1"
         id="g89">
       <path
   d="M 57.2105,135.827 C 63.7337,136.2503 68.8049,141.5143 67.9332,147.2155 C 61.3488,146.9481 56.4525,141.5486 57.2105,135.827 L 57.2105,135.827 z "
   style="fill:#277d7c;stroke:#000000;stroke-width:0.56444448;stroke-miterlimit:4;stroke-dasharray:none;stroke-opacity:1"
   id="path91" />
       
      </g><g
         transform="translate(-36.199138,-14.96817)"
         style="stroke:#000000;stroke-width:0.56444448;stroke-miterlimit:4;stroke-dasharray:none;stroke-opacity:1"
         id="g95">
       <path
   d="M 69.3057,141.969 C 73.8273,145.4356 74.2706,151.7508 70.0833,155.5111 C 65.4203,152.1294 65.1887,145.7988 69.3057,141.969 z "
   style="fill:#277d7c;stroke:#000000;stroke-width:0.56444448;stroke-miterlimit:4;stroke-dasharray:none;stroke-opacity:1"
   id="path97" />
       
      </g><g
         transform="translate(-36.199138,-14.96817)"
         style="stroke:#000000;stroke-width:0.56444448;stroke-miterlimit:4;stroke-dasharray:none;stroke-opacity:1"
         id="g101">
       <path
   d="M 65.6877,169.596 C 67.4594,175.1484 74.3218,178.4807 80.4841,176.5904 C 78.8745,170.9546 71.8961,167.7998 65.6877,169.596 z "
   style="fill:#277d7c;stroke:#000000;stroke-width:0.56444448;stroke-miterlimit:4;stroke-dasharray:none;stroke-opacity:1"
   id="path103" />
       
      </g><g
         transform="translate(-36.199138,-14.96817)"
         style="stroke:#000000;stroke-width:0.56444448;stroke-miterlimit:4;stroke-dasharray:none;stroke-opacity:1"
         id="g107">
       <path
   d="M 79.5066,163.185 C 85.2329,165.9736 87.3454,172.6254 83.8513,177.4833 C 77.9957,174.8148 76.1057,168.1047 79.5066,163.185 z "
   style="fill:#277d7c;stroke:#000000;stroke-width:0.56444448;stroke-miterlimit:4;stroke-dasharray:none;stroke-opacity:1"
   id="path109" />
       
      </g><g
         transform="translate(-36.199138,-14.96817)"
         style="stroke:#000000;stroke-width:0.56444448;stroke-miterlimit:4;stroke-dasharray:none;stroke-opacity:1"
         id="g113">
       <path
   d="M 72.8317,152.395 C 78.5633,155.1751 80.6885,161.8228 77.2042,166.6866 C 71.3436,164.0267 69.4408,157.3198 72.8317,152.395 z "
   style="fill:#277d7c;stroke:#000000;stroke-width:0.56444448;stroke-miterlimit:4;stroke-dasharray:none;stroke-opacity:1"
   id="path115" />
       
      </g><g
         transform="translate(-36.199138,-14.96817)"
         style="stroke:#000000;stroke-width:0.56444448;stroke-miterlimit:4;stroke-dasharray:none;stroke-opacity:1"
         id="g119">
       <path
   d="M 86.5329,170.022 C 92.7904,171.6999 96.425,177.8188 94.1525,183.2112 C 87.7962,181.6737 84.3654,175.4567 86.5329,170.022 z "
   style="fill:#277d7c;stroke:#000000;stroke-width:0.56444448;stroke-miterlimit:4;stroke-dasharray:none;stroke-opacity:1"
   id="path121" />
       
      </g><g
         transform="translate(-36.199138,-14.96817)"
         style="stroke:#000000;stroke-width:0.56444448;stroke-miterlimit:4;stroke-dasharray:none;stroke-opacity:1"
         id="g125">
       <path
   d="M 74.2346,177.781 C 76.7179,183.1169 83.969,185.7322 89.8447,183.2302 C 87.5107,177.7943 80.1674,175.3674 74.2346,177.781 z "
   style="fill:#277d7c;stroke:#000000;stroke-width:0.56444448;stroke-miterlimit:4;stroke-dasharray:none;stroke-opacity:1"
   id="path127" />
       
      </g><g
         transform="translate(-36.199138,-14.96817)"
         style="stroke:#000000;stroke-width:0.56444448;stroke-miterlimit:4;stroke-dasharray:none;stroke-opacity:1"
         id="g219">
       <path
   d="M 100.286,185.976 C 95.6952,182.3986 88.4355,182.3986 83.5244,185.976 C 88.1155,191.059 96.763,192.0002 102.3142,187.7643 C 104.5565,187.7643 107.5457,188.329 109.4674,188.9883 C 112.6701,190.1176 116.4064,192.1889 120.1433,194.8246 L 120.1433,191.059 C 117.6878,189.4589 114.3783,188.329 111.4959,187.1053 C 110.3213,186.635 107.3321,185.5992 104.1294,184.5637 C 103.8091,180.7043 100.286,176.7509 95.5884,176.0916 C 94.6274,179.0101 95.6952,181.8339 97.5101,184.0934 C 99.325,186.2585 100.286,185.976 100.286,185.976 L 100.286,185.976 z "
   style="fill:#277d7c;stroke:#000000;stroke-width:0.56444448;stroke-miterlimit:4;stroke-dasharray:none;stroke-opacity:1"
   id="path221" />
       
      </g><g
         transform="translate(-36.199138,-14.96817)"
         style="stroke:#000000;stroke-width:0.56444448;stroke-miterlimit:4;stroke-dasharray:none;stroke-opacity:1"
         id="g331">
       <path
   d="M 58.4898,145.46 C 65.0224,145.1692 70.7928,149.8408 70.7269,155.5928 C 64.1555,156.0454 58.5398,151.2206 58.4898,145.46 z "
   style="fill:#277d7c;stroke:#000000;stroke-width:0.56444448;stroke-miterlimit:4;stroke-dasharray:none;stroke-opacity:1"
   id="path333" />
       
      </g></g><g
       id="g4929"><g
         transform="translate(6.8935877,0.5570576)"
         id="g4894"><path
           d="M 23.048256,105.78998 C 22.582027,109.44516 22.056162,113.08368 22.143038,115.81702"
           style="fill:none;fill-rule:evenodd;stroke:#000000;stroke-width:0.70555556;stroke-linecap:butt;stroke-linejoin:miter;stroke-miterlimit:4;stroke-dasharray:none;stroke-opacity:1"
           id="path3919" /><path
           d="M 19.98444,110.03754 C 20.843623,110.13361 21.866324,115.5563 22.003774,115.32959"
           style="fill:none;fill-rule:evenodd;stroke:#000000;stroke-width:0.70555556;stroke-linecap:butt;stroke-linejoin:miter;stroke-miterlimit:4;stroke-dasharray:none;stroke-opacity:1"
           id="path3921" /><path
           d="M 26.181705,108.29674 C 23.908516,109.55427 23.186421,113.57821 22.143038,115.53849"
           style="fill:none;fill-rule:evenodd;stroke:#000000;stroke-width:0.70555556;stroke-linecap:butt;stroke-linejoin:miter;stroke-miterlimit:4;stroke-dasharray:none;stroke-opacity:1"
           id="path3923" /></g><g
         id="g4906"><path
           d="M 27.713614,146.80334 C 32.771546,149.07972 37.165751,152.62132 40.943732,155.9948"
           style="fill:none;fill-rule:evenodd;stroke:#000000;stroke-width:0.70555556;stroke-linecap:butt;stroke-linejoin:miter;stroke-miterlimit:4;stroke-dasharray:none;stroke-opacity:1"
           id="path4900" /><path
           d="M 32.866397,145.75886 C 36.12049,148.90627 38.773422,152.50456 41.291893,156.20369"
           style="fill:none;fill-rule:evenodd;stroke:#000000;stroke-width:0.70555556;stroke-linecap:butt;stroke-linejoin:miter;stroke-miterlimit:4;stroke-dasharray:none;stroke-opacity:1"
           id="path4902" /><path
           d="M 30.707799,151.60797 C 34.791546,152.39881 37.894027,154.41624 41.291893,156.06443"
           style="fill:none;fill-rule:evenodd;stroke:#000000;stroke-width:0.70555556;stroke-linecap:butt;stroke-linejoin:miter;stroke-miterlimit:4;stroke-dasharray:none;stroke-opacity:1"
           id="path4904" /></g></g><g
       style="stroke:#000000;stroke-width:0.56444448;stroke-miterlimit:4;stroke-dasharray:none;stroke-opacity:1"
       id="g2678"><g
         transform="translate(-36.199138,-14.96817)"
         style="stroke:#000000;stroke-width:0.56444448;stroke-miterlimit:4;stroke-dasharray:none;stroke-opacity:1"
         id="g337">
       <path
   d="M 59.8673,162.762 C 59.4283,162.1172 60.696,162.2891 60.7454,161.859 C 60.7936,161.4292 59.5747,161.2142 59.672,160.698 C 59.7697,160.1822 61.1838,160.5688 61.3793,160.1393 C 61.5745,159.7092 60.5499,159.2366 61.1838,158.8062 C 61.8179,158.3762 64.8414,160.0964 64.4025,161.859 C 63.963,163.6221 60.3065,163.4068 59.8673,162.762 z M 63.1342,168.1795 C 62.4515,167.7063 63.7686,167.5344 63.6704,167.105 C 63.5737,166.6746 62.403,166.8039 62.3054,166.2445 C 62.2084,165.6855 63.7195,165.7287 63.7195,165.2989 C 63.7195,164.8689 62.6955,164.6535 63.1342,164.0951 C 63.5737,163.5358 67.0358,164.353 67.1816,166.1585 C 67.3284,167.9645 63.8168,168.6525 63.1342,168.1795 L 63.1342,168.1795 z M 65.0849,159.8382 C 64.9872,159.1073 66.1094,159.795 66.3526,159.4084 C 66.5963,159.021 65.6702,158.3762 66.0118,157.9464 C 66.3526,157.516 67.4745,158.4193 67.8155,158.1182 C 68.1571,157.8171 67.5233,156.9576 68.3035,156.8283 C 69.0832,156.6994 70.9369,159.4084 69.6201,160.827 C 68.3035,162.2456 65.1825,160.5688 65.0849,159.8382 L 65.0849,159.8382 z M 63.9144,118.0889 C 64.5483,117.5728 64.6465,118.6911 65.1334,118.6911 C 65.6211,118.6911 65.6211,117.5728 66.2068,117.5728 C 66.7915,117.5728 66.6457,118.8198 67.1331,118.863 C 67.6206,118.9059 67.9619,118.0025 68.547,118.4329 C 69.1323,118.863 67.9619,121.8294 65.9136,121.8294 C 63.8656,121.8294 63.2812,118.6048 63.9144,118.0889 L 63.9144,118.0889 z M 69.4249,120.1097 C 70.2051,119.8518 69.8641,120.9695 70.3027,121.0988 C 70.7417,121.228 71.2779,120.2387 71.8145,120.4108 C 72.3507,120.5826 71.6196,121.701 72.0582,121.9157 C 72.4968,122.1305 73.2286,121.3564 73.5696,122.0012 C 73.9113,122.6037 71.4731,124.9682 69.6201,124.2373 C 67.767,123.5062 68.6449,120.3679 69.4249,120.1097 L 69.4249,120.1097 z M 59.7697,123.5496 C 59.9164,122.8185 60.7936,123.678 61.135,123.4204 C 61.4769,123.1622 60.7936,122.2165 61.2326,121.9157 C 61.6712,121.6146 62.4515,122.6892 62.8907,122.4745 C 63.3294,122.2594 62.9395,121.3564 63.7195,121.3999 C 64.4998,121.4428 65.5235,124.4524 63.8656,125.5272 C 62.2084,126.6024 59.6232,124.2805 59.7697,123.5496 L 59.7697,123.5496 z "
   style="fill:#fff500;stroke:#000000;stroke-width:0.56444448;stroke-miterlimit:4;stroke-dasharray:none;stroke-opacity:1"
   id="path339" />
       
      </g><g
         transform="translate(-36.199138,-14.96817)"
         style="stroke:#000000;stroke-width:0.56444448;stroke-miterlimit:4;stroke-dasharray:none;stroke-opacity:1"
         id="g343">
       
      </g></g></g><g
     transform="matrix(4.3505564,0,0,4.3505564,-247.33275,-302.02292)"
     style="fill-rule:evenodd;stroke:#000000;stroke-width:0.56444448;stroke-miterlimit:4;stroke-dasharray:none;stroke-opacity:1;display:inline"
     id="g375">
       <path
   d="M 165.959,130.72 C 166.8854,129.6022 168.7873,129.6022 169.8113,129.9891 C 171.8593,130.72 171.7617,134.4178 170.9814,135.9657 C 170.4449,132.5692 167.178,132.6547 166.3004,133.6867 C 165.3249,134.8473 164.0084,136.8255 163.4233,139.7064 C 164.5937,138.2441 167.0318,137.7279 168.3972,138.1583 C 170.4449,138.8463 171.6644,142.7157 170.3476,145.2952 C 170.3476,142.028 166.7878,140.4802 164.4476,141.813 C 162.0095,143.1458 161.5217,144.9515 161.1316,146.8865 C 162.5945,145.5963 164.9347,144.9947 166.4953,145.6827 C 168.446,146.5422 168.7873,148.778 168.3484,151.2295 C 167.8606,149.7239 166.3977,148.0046 164.6422,148.1332 C 161.3753,148.3483 159.3761,151.1002 158.4497,154.4967 C 160.79,152.3901 164.2036,151.2721 166.4953,152.5191 C 168.4948,153.594 168.2022,156.9907 167.0803,159.3552 C 167.3244,157.2057 165.7641,154.841 163.8622,154.841 C 160.6926,154.841 158.1081,157.3776 156.4017,159.6563 C 158.4982,158.2806 160.9852,157.4634 162.9356,158.3235 C 164.4961,159.0115 164.6422,161.7206 163.7158,163.0962 C 162.6921,160.2156 161.0828,160.5596 159.6198,160.8169 C 156.7428,161.3763 156.4017,163.3539 153.866,164.9452 C 157.6207,164.3001 161.5217,163.655 162.9356,165.7618 C 164.6913,168.2559 162.7406,171.6097 160.3025,174.5758 C 161.6678,171.2222 161.5217,168.2559 159.3276,167.7826 C 155.8652,167.0949 152.8905,169.2015 149.4287,170.3195 C 152.6471,170.0616 155.7676,170.3621 156.4991,172.34 C 157.3769,174.834 155.914,177.457 153.1833,179.8647 C 154.11,177.1559 154.11,174.0174 152.1105,173.372 C 149.0874,172.4264 146.3073,175.4791 143.0895,176.339 C 146.0151,176.4248 147.5753,177.371 147.9655,178.9188 C 148.4041,180.8967 147.2831,182.6163 145.3321,184.6368 C 146.1127,182.4016 145.5273,180.5095 144.162,179.8647 C 141.9185,178.8759 139.822,180.1658 137.1886,180.2516 C 139.9684,180.8106 141.6751,181.4125 142.1628,183.1754 C 142.6503,184.9811 141.0409,186.9161 139.1393,188.5071 C 139.9196,186.8304 140.2612,185.0672 139.1881,184.1213 C 137.6764,182.7882 135.2871,182.4442 132.9954,183.0035 C 134.5068,183.5194 135.7748,185.4541 135.5796,186.5292 C 135.2386,188.464 133.2391,189.5391 130.5572,190.5276 C 134.1167,187.776 132.3127,185.5404 128.5089,185.5404 C 122.7551,185.5404 112.4663,190.0121 105.2978,194.7842 L 105.2978,190.9577 C 107.6389,189.4099 110.857,188.1628 113.8805,186.959 C 117.001,185.7123 130.0695,181.8855 130.0695,179.0906 C 130.0695,177.9297 128.8991,177.242 127.6802,177.2849 C 129.3868,175.5649 132.7513,175.7371 133.0439,178.3169 C 134.8484,176.9412 134.6044,173.8449 131.7761,173.4149 C 134.6044,172.6843 136.7009,173.5012 136.9937,176.6401 C 138.0177,173.4149 137.2377,170.4914 132.8489,170.8351 C 134.8969,168.8578 137.5788,169.0296 138.7983,169.8892 C 140.0169,170.7496 140.407,171.8671 140.3094,173.6302 C 141.626,171.6952 142.6503,169.2447 141.9185,167.3096 C 141.4316,166.0197 139.2366,165.1599 136.5548,166.4501 C 137.5303,163.7839 141.1385,163.397 142.7479,163.9132 C 144.5033,164.4722 145.4788,166.9231 144.4545,169.8892 C 146.0639,167.5247 146.2591,165.5468 146.2591,163.4831 C 146.2591,161.9353 144.065,159.7427 141.09,161.4623 C 142.3086,159.1402 145.5273,157.9795 147.5268,158.9254 C 149.7212,159.9574 149.7212,163.397 148.6966,166.0629 C 149.7697,164.4722 151.1842,162.0643 151.1842,160.2156 C 151.1842,159.1833 150.8916,157.3776 150.1599,156.6464 C 149.6236,156.0448 147.7702,155.6579 146.3073,156.3885 C 147.1855,155.0989 148.4041,153.7658 150.6476,153.7658 C 152.2079,153.7658 153.5247,155.0989 154.0124,156.9475 C 154.5487,154.4106 154.8412,150.7988 152.9881,149.8532 C 152.0617,149.4231 150.3548,149.5521 149.0383,150.5412 C 149.8188,148.778 151.2327,147.2731 152.842,147.2305 C 154.0609,147.1876 155.2798,147.8324 155.8652,148.9937 C 156.2553,147.5742 156.6943,144.6507 156.0601,142.9307 C 155.5724,141.7269 154.3049,140.8671 152.0617,141.2971 C 152.7932,139.964 154.6463,138.7599 155.914,138.8034 C 158.2057,138.8463 158.9375,140.4802 159.3276,143.0168 C 159.5222,140.222 159.4737,137.2121 158.3521,134.8905 C 157.7671,133.6867 156.0601,132.2681 153.3298,133.5148 C 153.8172,132.1388 155.2313,130.5907 156.6943,130.5907 C 158.6447,130.5907 159.8636,131.5798 160.6926,133.6867 C 159.3276,128.2691 157.3769,123.4106 155.7676,120.874 C 157.8647,121.9917 159.9612,125.2595 161.4241,129.1718 C 161.7166,125.8183 161.0828,118.0363 160.01,115.3275 C 161.2292,117.0043 163.6673,118.7671 164.106,129.5593 C 164.9347,123.7546 167.8606,122.3354 170.5916,121.1316 C 167.4705,124.3997 167.2756,126.4202 165.959,130.72 L 165.959,130.72 z "
   style="fill:#00923f;stroke:#000000;stroke-width:0.56444448;stroke-miterlimit:4;stroke-dasharray:none;stroke-opacity:1"
   id="path377" />
       
      </g><g
     transform="matrix(4.3505564,0,0,4.3505564,-89.846339,-236.90305)"
     style="fill-rule:evenodd;stroke:#000000;stroke-width:0.56444448;stroke-miterlimit:4;stroke-dasharray:none;stroke-opacity:1;display:inline"
     id="g2943"><path
       d="M 48.142262,197.16483 C 51.344962,199.89493 43.551162,190.95223 40.454962,187.94003 C 41.202362,187.75153 42.270162,187.56343 43.124062,187.75153 C 41.522662,184.08033 42.376862,181.16183 41.522662,179.18543 C 44.298262,180.40913 43.871762,184.17443 49.102662,186.71573 C 49.209462,184.36253 47.074562,178.43213 48.462062,176.26693 C 49.743362,179.46793 56.042062,180.59753 56.682662,183.89193 C 56.682662,183.23293 56.896262,180.97403 60.205762,178.90293 C 60.419262,181.25593 62.981362,182.76233 63.622062,184.08033 C 63.942362,181.82113 65.543462,180.97403 66.931562,179.84413 C 67.679262,182.38553 68.960262,183.70413 70.881962,185.20963 C 71.309062,183.23293 73.336962,180.31503 74.725362,179.46793 C 74.725362,180.69153 74.938962,183.79783 76.219662,186.15113 C 76.539962,184.73903 76.860362,184.08033 78.141662,183.23293 C 78.461662,184.36253 79.742762,186.62203 79.742762,186.62203 C 80.276562,184.45683 82.091562,182.66823 82.945762,181.82113 C 84.547062,182.76233 86.148462,184.92773 86.468462,186.62203 C 87.429462,184.45683 90.632262,183.70413 93.088062,178.99703 C 94.689162,181.16183 92.767462,183.04483 94.689162,186.43383 C 95.116262,184.64503 97.891862,181.44463 100.45426,179.74983 C 101.20136,180.59753 100.45426,182.38553 102.26916,183.51543 C 102.69626,180.40913 107.71416,179.84413 109.52886,176.64353 C 110.38306,178.33803 109.63586,182.76233 108.46106,185.20963 C 109.31526,184.36253 110.59656,183.89193 112.19796,183.89193 C 110.16946,186.05703 109.74236,187.28073 109.31526,189.35173 C 108.88816,191.42283 102.80276,197.25923 102.80276,197.25923 C 102.80276,197.25923 93.728162,201.68323 82.731862,201.68323 C 77.287462,201.68323 71.309062,201.68323 65.971162,201.68323 C 56.255562,201.68323 48.142262,197.16483 48.142262,197.16483 L 48.142262,197.16483 z "
       style="fill:#fff500;stroke:#000000;stroke-width:0.56444448;stroke-miterlimit:4;stroke-dasharray:none;stroke-opacity:1"
       id="path355" /><path
       d="M 105.08686,199.41883 C 108.71666,196.87723 108.07606,194.99453 110.53186,192.26483 C 111.59906,190.75843 111.49226,190.00593 112.23976,188.31113 C 108.50316,189.72343 108.71666,189.34663 106.68856,191.98263 C 106.47496,189.91153 106.68856,188.97013 105.08686,187.08743 C 104.76656,189.34663 102.20446,191.69983 101.56376,194.14743 C 101.02996,191.79393 101.02996,190.00593 99.641562,188.31113 C 99.001762,191.41773 98.361062,191.41773 95.799062,193.67683 C 95.478362,191.60613 94.517362,191.22953 94.410962,190.00593 C 93.983762,188.87573 94.410962,188.21703 93.663162,186.99343 C 93.556662,187.84053 92.275662,189.06413 92.062162,189.06413 C 89.926862,190.75843 89.713262,190.75843 88.539062,193.30063 C 88.218762,191.41773 87.898362,190.66433 86.617062,189.91153 C 85.976962,191.79393 84.909262,192.45323 83.094262,193.67683 C 82.774262,192.26483 81.919462,190.75843 80.531962,190.00593 C 79.678062,191.79393 78.503762,192.35913 76.368262,193.30063 C 76.368262,191.79393 75.193962,189.72343 73.592662,188.49983 C 73.272262,189.34663 72.418662,190.57023 72.204762,190.66433 C 70.176362,192.82973 69.001762,192.26483 68.041362,195.74763 C 66.439762,194.14743 66.012662,193.30063 66.439762,190.66433 C 65.371962,191.13523 63.984462,191.79393 63.770862,191.98263 C 63.450562,192.26483 62.489562,193.30063 61.955362,194.14743 C 60.888462,193.20603 60.141062,191.98263 59.820762,190.28783 C 59.286862,190.57023 59.286862,190.94713 58.752662,191.22953 C 58.005562,190.00593 56.831262,189.06413 55.977062,188.87573 C 56.190562,189.53473 56.190562,190.00593 56.190562,190.75843 C 56.190562,192.26483 54.802762,193.39443 55.122862,195.74763 C 54.802762,194.61863 51.920062,190.66433 49.251562,190.28783 C 49.465062,191.22953 49.785162,191.79393 49.465062,192.45323 C 48.930962,192.35913 47.649562,192.26483 47.008962,191.98263 C 47.543162,192.82973 47.970262,193.77093 47.970262,194.61863 C 47.970262,197.25403 47.970262,197.81873 48.930962,199.13643 L 105.08686,199.41883 L 105.08686,199.41883 z "
       style="fill:#da251d;stroke:#000000;stroke-width:0.56444448;stroke-miterlimit:4;stroke-dasharray:none;stroke-opacity:1"
       id="path361" /><polygon
       points="88.5468,217.024 94.8458,222.954 132.105,222.954 138.404,217.024 142.461,217.024 142.461,214.105 84.3834,214.105 84.3834,217.024 88.5468,217.024 "
       transform="translate(-36.199138,-14.96817)"
       style="fill:#1f1a17;stroke:#000000;stroke-width:0.56444448;stroke-miterlimit:4;stroke-dasharray:none;stroke-opacity:1"
       id="polygon367" /><polygon
       points="97.8757,220.863 131.742,220.863 131.742,216.383 97.8757,216.383 97.8757,220.863 "
       transform="translate(-36.199138,-14.96817)"
       style="fill:#ffffff;stroke:#000000;stroke-width:0.56444448;stroke-miterlimit:4;stroke-dasharray:none;stroke-opacity:1"
       id="polygon383" /></g><path
     d="M 244.32439,223.25031 C 261.94588,223.25031 281.88665,218.94717 301.36365,216.32727 L 301.36365,187.63652 C 283.51159,193.43625 257.54267,196.24149 244.32439,196.24149 C 231.10608,196.24149 205.13979,193.43625 187.2851,187.63652 L 187.2851,216.32727 C 206.76081,218.94717 226.70289,223.25031 244.32439,223.25031 z "
     style="fill:#0093dd;fill-rule:evenodd;stroke:#000000;stroke-width:2.45564747;stroke-miterlimit:4;stroke-dasharray:none;stroke-opacity:1;display:inline"
     id="path305" /><g
     transform="matrix(4.3505564,0,0,4.3505564,-91.2941,-235.03692)"
     clip-path="url(#clipPath4489)"
     id="g3475"><rect
       width="66.765907"
       height="12.013926"
       x="47.464851"
       y="100.64125"
       style="opacity:1;fill:#0093dd;fill-opacity:1;fill-rule:evenodd;stroke:none;stroke-width:2;stroke-miterlimit:4;stroke-dasharray:none;stroke-dashoffset:0;stroke-opacity:1;display:inline"
       id="rect3340" /><rect
       width="39.262321"
       height="14.181743"
       x="-167.21629"
       y="73.379639"
       transform="matrix(0,-1,1,0,0,0)"
       style="fill:#ffffff;fill-opacity:1;stroke:#000000;stroke-width:0.60489672;stroke-miterlimit:4;stroke-dasharray:none;stroke-dashoffset:0;stroke-opacity:1"
       id="rect9334" /><path
       d="M 85.647604,168.73749 C 74.404651,157.49454 74.784981,135.70846 74.784981,129.04713 L 36.7658,129.04713 C 46.506248,168.4912 65.261007,171.87802 85.647604,168.73749 z "
       style="fill:#0093dd;fill-opacity:1;fill-rule:evenodd;stroke:#000000;stroke-width:0.56444448;stroke-linecap:butt;stroke-linejoin:miter;stroke-miterlimit:4;stroke-dasharray:none;stroke-opacity:1"
       id="path3318" /><path
       d="M 93.0549,153.116 C 93.1714,158.7444 96.5386,163.5816 102.2871,166.1676 C 102.204,160.7063 98.7232,155.5319 93.0549,153.116 z M 102.9828,169.806 L 101.1436,173.4959 L 104.3972,172.6627 L 108.3219,174.5992 L 108.1616,170.7043 L 110.3504,168.5241 L 105.7291,168.281 C 107.3592,159.5359 100.2808,150.6678 89.9787,148.7517 C 87.4394,157.7299 93.306,167.102 102.9828,169.806 L 102.9828,169.806 z "
       transform="translate(-35.008193,-15.239418)"
       style="opacity:1;fill:#ffffff;fill-rule:evenodd;stroke:#000000;stroke-width:0.42333335;stroke-miterlimit:4;stroke-dasharray:none;stroke-opacity:1;display:inline"
       id="path349" /><path
       d="M 91.228798,167.9019 C 78.936068,154.29146 80.366175,136.26686 80.366175,129.04713 L 118.38523,129.04713 L 91.228798,167.9019 z "
       style="fill:#fff500;fill-opacity:1;fill-rule:evenodd;stroke:#000000;stroke-width:0.56444448;stroke-linecap:butt;stroke-linejoin:miter;stroke-miterlimit:4;stroke-dasharray:none;stroke-opacity:1"
       id="path3320" /><polygon
       points="126.985,162.598 122.693,155.891 126.985,149.184 131.227,155.891 126.985,162.598 "
       transform="translate(-35.008193,-15.239418)"
       style="opacity:1;fill:#da251d;fill-rule:evenodd;stroke:#000000;stroke-width:0.42333335;stroke-miterlimit:4;stroke-dasharray:none;stroke-opacity:1;display:inline"
       id="polygon319" /><g
       style="fill:#00ffff;fill-opacity:1;stroke:#000000;stroke-width:0.56444448;stroke-miterlimit:4;stroke-dasharray:none;stroke-opacity:1"
       id="g3335"><path
         d="M 137.82881,411.39148 L 410,411.375 C 400.59815,403.75512 399.92262,389.51952 382.06212,392.8959 C 380.31487,389.00086 382.94737,386.20344 371.94804,386.26035 C 360.94871,386.31726 360.69539,388.95874 353.2732,392.37768 C 348.03492,389.5504 339.52438,386.63577 335.8357,387.03393 C 331.97452,387.45072 328.06093,386.95528 322.74444,394.63535 C 318.69284,389.17107 315.79283,380.23999 304.25,378.9375 C 296.96072,379.77074 283.66653,384.93379 277.04716,389.41679 L 215.625,386.125 C 211.19543,380.42421 208.17861,371.75373 200.625,373 C 167.38455,381.18151 158.76087,398.59432 137.82881,411.39148 z "
         transform="matrix(0.2822222,0,0,0.2822222,-1.3919578e-6,0)"
         style="fill:#60877d;fill-opacity:1;fill-rule:evenodd;stroke:#000000;stroke-width:2.00000024;stroke-linecap:butt;stroke-linejoin:miter;stroke-miterlimit:4;stroke-dasharray:none;stroke-opacity:1"
         id="path3326" /><path
         d="M 68.243036,109.20855 C 70.45306,108.3185 72.014953,106.30705 75.628646,106.35278 C 79.456574,107.41832 79.853235,110.08716 81.537134,111.86737"
         style="fill:#60877d;fill-opacity:1;fill-rule:evenodd;stroke:#000000;stroke-width:0.56444448;stroke-linecap:butt;stroke-linejoin:miter;stroke-miterlimit:4;stroke-dasharray:none;stroke-opacity:1"
         id="path3330" /><path
         d="M 60.069627,109.7994 C 62.86913,108.70212 65.000657,106.26889 68.73541,107.04211 C 71.668721,107.42412 72.346342,110.06181 73.8561,111.86737"
         style="fill:#60877d;fill-opacity:1;fill-rule:evenodd;stroke:#000000;stroke-width:0.56444448;stroke-linecap:butt;stroke-linejoin:miter;stroke-miterlimit:4;stroke-dasharray:none;stroke-opacity:1"
         id="path3328" /></g><rect
       width="77.797966"
       height="8.2589378"
       x="38.70013"
       y="115.80324"
       style="fill:#00923f;fill-opacity:1;stroke:#000000;stroke-width:0.52210718;stroke-miterlimit:4;stroke-dasharray:none;stroke-dashoffset:0;stroke-opacity:1"
       id="rect3322" /><g
       id="g3464"><path
         d="M 50.483343,115.19033 C 49.563172,116.34064 48.772941,118.55708 50.204815,120.62164"
         style="fill:none;fill-rule:evenodd;stroke:#000000;stroke-width:0.56444448;stroke-linecap:butt;stroke-linejoin:miter;stroke-miterlimit:4;stroke-dasharray:none;stroke-opacity:1"
         id="path3444" /><path
         d="M 45.678722,115.19033 C 46.744226,117.02398 46.840586,118.85762 45.678722,120.69127"
         style="fill:none;fill-rule:evenodd;stroke:#000000;stroke-width:0.56444448;stroke-linecap:butt;stroke-linejoin:miter;stroke-miterlimit:4;stroke-dasharray:none;stroke-opacity:1"
         id="path3446" /><path
         d="M 49.554231,117.05845 L 66.568382,122.43208"
         style="fill:none;fill-rule:evenodd;stroke:#000000;stroke-width:0.56444448;stroke-linecap:butt;stroke-linejoin:miter;stroke-miterlimit:4;stroke-dasharray:none;stroke-opacity:1"
         id="path3448" /><path
         d="M 51.527826,115.53849 L 68.657348,119.50752"
         style="fill:none;fill-rule:evenodd;stroke:#000000;stroke-width:0.56444448;stroke-linecap:butt;stroke-linejoin:miter;stroke-miterlimit:4;stroke-dasharray:none;stroke-opacity:1"
         id="path3450" /><path
         d="M 52.990103,115.74738 L 52.990103,118.74157"
         style="fill:none;fill-rule:evenodd;stroke:#000000;stroke-width:0.56444448;stroke-linecap:butt;stroke-linejoin:miter;stroke-miterlimit:4;stroke-dasharray:none;stroke-opacity:1"
         id="path3454" /><path
         d="M 56.123552,116.51334 L 56.123552,119.71642"
         style="fill:none;fill-rule:evenodd;stroke:#000000;stroke-width:0.56444448;stroke-linecap:butt;stroke-linejoin:miter;stroke-miterlimit:4;stroke-dasharray:none;stroke-opacity:1"
         id="path3456" /><path
         d="M 59.257001,117.48819 L 59.257001,120.55201"
         style="fill:none;fill-rule:evenodd;stroke:#000000;stroke-width:0.56444448;stroke-linecap:butt;stroke-linejoin:miter;stroke-miterlimit:4;stroke-dasharray:none;stroke-opacity:1"
         id="path3458" /><path
         d="M 62.111921,117.97561 L 62.111921,121.52686"
         style="fill:none;fill-rule:evenodd;stroke:#000000;stroke-width:0.56444448;stroke-linecap:butt;stroke-linejoin:miter;stroke-miterlimit:4;stroke-dasharray:none;stroke-opacity:1"
         id="path3460" /><path
         d="M 65.593531,118.53267 L 65.593531,122.7106"
         style="fill:none;fill-rule:evenodd;stroke:#000000;stroke-width:0.56444448;stroke-linecap:butt;stroke-linejoin:miter;stroke-miterlimit:4;stroke-dasharray:none;stroke-opacity:1"
         id="path3462" /></g><path
       d="M 72.10626,118.29598 C 72.06866,118.31818 71.96836,118.34008 71.91866,118.30758 C 71.38066,117.83288 71.11806,118.06448 70.60516,118.00938 C 69.94196,118.13098 69.77926,118.31818 69.10406,118.35108 C 69.02866,118.47258 68.86596,118.57198 68.80356,118.73768 C 68.77866,118.73768 68.76596,118.77078 68.74086,118.77078 C 68.70356,118.77078 68.59056,118.81488 68.59056,118.77078 C 68.57876,118.73768 68.52846,118.69328 68.47816,118.69328 C 68.26576,118.59418 68.26576,118.47258 68.09036,118.35108 C 67.66536,118.21908 67.46516,117.83288 66.77686,117.88818 C 66.67686,117.91038 66.37666,117.88818 66.28876,117.91038 C 66.25156,118.21908 66.38936,118.45068 66.32696,118.66018 C 66.25156,118.81488 66.13856,118.91388 66.02646,118.91388 C 65.91376,118.91388 65.77616,118.84768 65.72596,118.68228 C 65.38846,119.38808 65.16306,119.84028 64.88766,120.45848 C 64.62506,120.98798 64.75046,121.69338 64.63776,121.98058 C 64.62506,122.03558 64.67496,122.47718 64.76286,122.47718 C 64.77526,122.55378 64.95036,122.63128 64.90036,122.71948 C 64.80016,122.75288 64.67496,122.75288 64.56286,122.71948 C 64.57536,122.75288 64.57536,122.78568 64.57536,122.80788 C 64.55016,122.84038 64.53776,122.84038 64.42476,122.84038 C 64.28756,122.84038 64.35026,122.75288 64.28756,122.75288 C 64.25026,122.75288 64.27506,122.86288 64.22486,122.86288 C 64.15026,122.87388 63.73706,122.86288 63.66196,122.86288 C 63.58716,122.84038 63.56196,122.59818 63.62466,122.49908 C 63.62466,122.43288 63.62466,122.26718 63.62466,122.19058 C 63.43686,121.92528 63.49956,121.84808 63.56196,121.60558 C 63.56196,121.10918 63.77466,120.43628 63.66196,119.76368 C 63.58716,119.42148 64.08756,119.00208 64.08756,118.13098 C 64.08756,117.33648 63.58716,116.81798 63.56196,115.89158 C 63.51196,116.78488 63.49956,117.64528 63.47416,118.52758 C 63.46166,118.94738 63.76196,119.02428 63.46166,119.82938 C 63.33656,119.70808 63.43686,119.54278 63.33656,119.48718 C 63.31206,119.49898 63.24936,119.54278 63.23666,119.56468 C 63.24936,119.10148 62.99906,118.81488 63.23666,118.40668 C 63.32416,117.19308 63.13666,116.49798 63.39926,115.19678 C 63.47416,114.84368 63.66196,114.63368 63.91216,114.33608 C 64.18756,114.00538 64.48746,113.83978 65.10036,113.82888 C 65.81376,113.82888 65.97616,113.56408 66.93946,113.64128 C 68.25306,113.69628 70.59266,114.07138 71.75606,113.56408 C 71.89386,113.32128 71.68086,113.13378 72.16896,112.73678 C 72.98206,111.97578 73.85756,112.81398 74.82116,112.97968 C 75.38376,112.83588 75.52136,112.52738 75.85936,112.29518 L 75.62126,112.17428 C 75.45866,112.05298 75.40926,111.92018 75.73396,111.92018 L 76.10936,111.92018 L 76.19686,111.88758 L 76.82246,111.86548 C 77.22296,111.84328 77.47316,112.24048 77.81066,112.44988 C 78.16116,112.39518 78.44866,112.54928 78.69856,112.65928 C 78.76136,112.68178 78.76136,112.73678 78.61166,112.79178 C 78.47386,112.84688 78.37356,112.94648 78.37356,112.94648 C 78.26116,113.02338 78.09846,113.01248 77.99846,113.02338 C 78.16116,113.43158 78.44866,113.64128 78.76136,113.80698 C 78.79916,114.01638 78.66136,114.29208 78.44866,114.26988 C 78.21146,114.38048 77.99846,114.51268 77.86066,114.43548 C 77.63556,114.63368 77.59826,114.38048 77.37316,114.72208 C 77.33566,114.81028 77.39806,114.84368 77.17296,115.10868 C 77.17296,115.42838 77.02296,115.61598 76.76006,115.72598 C 76.05966,116.04628 76.29716,116.63048 76.07206,117.07208 C 76.03416,117.49088 75.85936,118.30758 75.29656,118.36228 C 75.23386,118.82548 75.14626,118.47258 74.70826,118.84768 C 74.60826,118.99078 74.32046,118.96918 74.22016,119.04638 C 74.22016,119.57558 74.13296,119.97308 73.93266,120.20438 C 73.92026,120.52448 73.93266,121.43988 73.95816,121.74898 C 73.95816,121.79308 73.95816,121.86998 73.92026,121.90308 C 73.95816,121.98058 74.02026,122.13498 74.05746,122.25628 C 74.15746,122.32248 74.28286,122.49908 74.28286,122.63128 C 74.28286,122.63128 74.24536,122.64228 74.22016,122.63128 C 74.22016,122.63128 74.15746,122.59818 74.13296,122.59818 C 74.13296,122.59818 74.09536,122.59818 74.09536,122.59818 C 74.09536,122.59818 74.09536,122.66468 74.02026,122.66468 C 73.83266,122.68628 73.71996,122.68628 73.53246,122.63128 C 73.53246,122.63128 73.50736,122.59818 73.46976,122.55378 C 73.24466,122.59818 73.14476,122.59818 72.93176,122.54288 C 72.89446,122.44378 72.89446,122.36628 72.95686,122.24528 C 72.98206,122.17878 72.98206,121.96968 72.94446,121.90308 C 72.69426,121.78178 72.93176,121.49488 72.80666,120.43628 C 72.59426,120.07218 72.75696,119.54278 72.61906,118.73768 C 72.59426,118.52758 72.30646,118.41758 72.10626,118.29598 L 72.10626,118.29598 z "
       style="fill:#ffffff;fill-rule:evenodd;stroke:#000000;stroke-width:0.42333335;stroke-miterlimit:4;stroke-dasharray:none;stroke-opacity:1;display:inline"
       id="path269" /><path
       d="M 78.878785,119.50413 C 78.841185,119.52603 78.740885,119.54853 78.691285,119.51503 C 78.152885,119.04093 77.890285,119.27283 77.377685,119.21723 C 76.713985,119.33853 76.551585,119.52603 75.875985,119.55943 C 75.801185,119.68073 75.637885,119.78013 75.575485,119.94573 C 75.550585,119.94573 75.538185,119.97823 75.513385,119.97823 C 75.475185,119.97823 75.363085,120.02263 75.363085,119.97823 C 75.350385,119.94573 75.300385,119.90133 75.250385,119.90133 C 75.037785,119.80223 75.037785,119.68073 74.862685,119.55943 C 74.436985,119.42693 74.236785,119.04093 73.548785,119.09623 C 73.448785,119.11783 73.147985,119.09623 73.060785,119.11783 C 73.023185,119.42693 73.160685,119.65853 73.098585,119.86823 C 73.023185,120.02263 72.910785,120.12173 72.798085,120.12173 C 72.685085,120.12173 72.547885,120.05573 72.497585,119.89013 C 72.160085,120.59643 71.934385,121.04873 71.658985,121.66663 C 71.396985,122.19573 71.521785,122.90203 71.409085,123.18893 C 71.396985,123.24373 71.446985,123.68533 71.534185,123.68533 C 71.546885,123.76253 71.722285,123.84003 71.671785,123.92783 C 71.572385,123.96093 71.446985,123.96093 71.334285,123.92783 C 71.346685,123.96093 71.346685,123.99413 71.346685,124.01623 C 71.321785,124.04943 71.309085,124.04943 71.196385,124.04943 C 71.058885,124.04943 71.121585,123.96093 71.058885,123.96093 C 71.021585,123.96093 71.046485,124.07163 70.996185,124.07163 C 70.921685,124.08223 70.508385,124.07163 70.433285,124.07163 C 70.358185,124.04943 70.333285,123.80653 70.396085,123.70753 C 70.396085,123.64123 70.396085,123.47593 70.396085,123.39873 C 70.208185,123.13363 70.270885,123.05613 70.333285,122.81393 C 70.333285,122.31733 70.546285,121.64443 70.433285,120.97153 C 70.358185,120.62953 70.858985,120.21013 70.858985,119.33853 C 70.858985,118.54463 70.358185,118.02583 70.333285,117.09913 C 70.282785,117.99273 70.270885,118.85313 70.245485,119.73603 C 70.233385,120.15483 70.533285,120.23233 70.233385,121.03773 C 70.108285,120.91623 70.208185,120.75083 70.108285,120.69553 C 70.083385,120.70653 70.020685,120.75083 70.007985,120.77303 C 70.020685,120.30983 69.770185,120.02263 70.007985,119.61443 C 70.095485,118.40083 69.907985,117.70603 70.170985,116.40403 C 70.245485,116.05143 70.433285,115.84173 70.683585,115.54363 C 70.958885,115.21263 71.259085,115.04703 71.872285,115.03603 C 72.585085,115.03603 72.747785,114.77133 73.711185,114.84883 C 75.024985,114.90383 77.364685,115.27893 78.528585,114.77133 C 78.665785,114.52883 78.453085,114.34153 78.941185,113.94403 C 79.754585,113.18273 80.630085,114.02093 81.593785,114.18653 C 82.156585,114.04313 82.294485,113.73433 82.632185,113.50273 L 82.394385,113.38113 C 82.232085,113.26013 82.181785,113.12793 82.507385,113.12793 L 82.882785,113.12793 L 82.969685,113.09453 L 83.595585,113.07263 C 83.995785,113.05043 84.246285,113.44773 84.584085,113.65683 C 84.934285,113.60213 85.221785,113.75653 85.472285,113.86683 C 85.534985,113.88903 85.534985,113.94403 85.384785,113.99903 C 85.247285,114.05433 85.147285,114.15403 85.147285,114.15403 C 85.034285,114.23063 84.871885,114.21973 84.771585,114.23063 C 84.934285,114.63913 85.221785,114.84883 85.534985,115.01383 C 85.572285,115.22353 85.434785,115.49953 85.221785,115.47763 C 84.984285,115.58773 84.771585,115.71993 84.634085,115.64303 C 84.408985,115.84173 84.370885,115.58773 84.146085,115.92993 C 84.108185,116.01833 84.171185,116.05143 83.946085,116.31593 C 83.946085,116.63563 83.795885,116.82343 83.532885,116.93383 C 82.832485,117.25353 83.069985,117.83833 82.844585,118.27993 C 82.807285,118.69873 82.632185,119.51503 82.069085,119.57043 C 82.006385,120.03383 81.919085,119.68073 81.480785,120.05573 C 81.380785,120.19923 81.092985,120.17703 80.992985,120.25453 C 80.992985,120.78393 80.905485,121.18093 80.705485,121.41283 C 80.692785,121.73253 80.705485,122.64833 80.730085,122.95713 C 80.730085,123.00143 80.730085,123.07863 80.692785,123.11153 C 80.730085,123.18893 80.792785,123.34333 80.830285,123.46493 C 80.930885,123.53093 81.055685,123.70753 81.055685,123.84003 C 81.055685,123.84003 81.018485,123.85093 80.992985,123.84003 C 80.992985,123.84003 80.930885,123.80653 80.905485,123.80653 C 80.905485,123.80653 80.868185,123.80653 80.868185,123.80653 C 80.868185,123.80653 80.868185,123.87283 80.792785,123.87283 C 80.605285,123.89503 80.492885,123.89503 80.304985,123.84003 C 80.304985,123.84003 80.280185,123.80653 80.242285,123.76253 C 80.017185,123.80653 79.917285,123.80653 79.704585,123.75183 C 79.666985,123.65213 79.666985,123.57523 79.729385,123.45373 C 79.754585,123.38773 79.754585,123.17803 79.716685,123.11153 C 79.466785,122.99053 79.704585,122.70393 79.579185,121.64443 C 79.366485,121.28033 79.529485,120.75083 79.391685,119.94573 C 79.366485,119.73603 79.078985,119.62513 78.878785,119.50413 L 78.878785,119.50413 z "
       style="fill:#ffffff;fill-rule:evenodd;stroke:#000000;stroke-width:0.42333335;stroke-miterlimit:4;stroke-dasharray:none;stroke-opacity:1;display:inline"
       id="path275" /><g
       style="fill:#ffffff;fill-opacity:1"
       id="g3426"><rect
         width="84.885277"
         height="5.7115383"
         x="38.099998"
         y="123.81336"
         style="fill:#ffffff;fill-opacity:1;stroke:#000000;stroke-width:0.56444448;stroke-miterlimit:4;stroke-dasharray:none;stroke-dashoffset:0;stroke-opacity:1"
         id="rect3343" /><g
         transform="translate(-1.6933335,0)"
         style="fill:#ffffff;fill-opacity:1"
         id="g3375"><path
           d="M 42.615555,123.85399 L 42.615555,129.35494"
           style="fill:#ffffff;fill-opacity:1;fill-rule:evenodd;stroke:#000000;stroke-width:0.56444448;stroke-linecap:butt;stroke-linejoin:miter;stroke-miterlimit:4;stroke-dasharray:none;stroke-opacity:1"
           id="path3345" /><path
           d="M 45.437777,123.71473 L 45.437777,129.4942"
           style="fill:#ffffff;fill-opacity:1;fill-rule:evenodd;stroke:#000000;stroke-width:0.56444448;stroke-linecap:butt;stroke-linejoin:miter;stroke-miterlimit:4;stroke-dasharray:none;stroke-opacity:1"
           id="path3347" /><path
           d="M 48.26,123.85399 L 48.26,129.35494"
           style="fill:#ffffff;fill-opacity:1;fill-rule:evenodd;stroke:#000000;stroke-width:0.56444448;stroke-linecap:butt;stroke-linejoin:miter;stroke-miterlimit:4;stroke-dasharray:none;stroke-opacity:1;display:inline"
           id="path3351" /><path
           d="M 51.082222,123.71473 L 51.082222,129.4942"
           style="fill:#ffffff;fill-opacity:1;fill-rule:evenodd;stroke:#000000;stroke-width:0.56444448;stroke-linecap:butt;stroke-linejoin:miter;stroke-miterlimit:4;stroke-dasharray:none;stroke-opacity:1;display:inline"
           id="path3353" /><path
           d="M 53.904444,123.85399 L 53.904444,129.35494"
           style="fill:#ffffff;fill-opacity:1;fill-rule:evenodd;stroke:#000000;stroke-width:0.56444448;stroke-linecap:butt;stroke-linejoin:miter;stroke-miterlimit:4;stroke-dasharray:none;stroke-opacity:1;display:inline"
           id="path3355" /><path
           d="M 56.726666,123.71473 L 56.726666,129.4942"
           style="fill:#ffffff;fill-opacity:1;fill-rule:evenodd;stroke:#000000;stroke-width:0.56444448;stroke-linecap:butt;stroke-linejoin:miter;stroke-miterlimit:4;stroke-dasharray:none;stroke-opacity:1;display:inline"
           id="path3357" /><path
           d="M 59.548889,123.85399 L 59.548889,129.35494"
           style="fill:#ffffff;fill-opacity:1;fill-rule:evenodd;stroke:#000000;stroke-width:0.56444448;stroke-linecap:butt;stroke-linejoin:miter;stroke-miterlimit:4;stroke-dasharray:none;stroke-opacity:1;display:inline"
           id="path3359" /><path
           d="M 62.371111,123.71473 L 62.371111,129.4942"
           style="fill:#ffffff;fill-opacity:1;fill-rule:evenodd;stroke:#000000;stroke-width:0.56444448;stroke-linecap:butt;stroke-linejoin:miter;stroke-miterlimit:4;stroke-dasharray:none;stroke-opacity:1;display:inline"
           id="path3361" /><path
           d="M 65.193333,123.85399 L 65.193333,129.35494"
           style="fill:#ffffff;fill-opacity:1;fill-rule:evenodd;stroke:#000000;stroke-width:0.56444448;stroke-linecap:butt;stroke-linejoin:miter;stroke-miterlimit:4;stroke-dasharray:none;stroke-opacity:1;display:inline"
           id="path3363" /><path
           d="M 68.015555,123.71473 L 68.015555,129.4942"
           style="fill:#ffffff;fill-opacity:1;fill-rule:evenodd;stroke:#000000;stroke-width:0.56444448;stroke-linecap:butt;stroke-linejoin:miter;stroke-miterlimit:4;stroke-dasharray:none;stroke-opacity:1;display:inline"
           id="path3365" /><path
           d="M 70.837778,123.85399 L 70.837778,129.35494"
           style="fill:#ffffff;fill-opacity:1;fill-rule:evenodd;stroke:#000000;stroke-width:0.56444448;stroke-linecap:butt;stroke-linejoin:miter;stroke-miterlimit:4;stroke-dasharray:none;stroke-opacity:1;display:inline"
           id="path3367" /><path
           d="M 73.66,123.71473 L 73.66,129.4942"
           style="fill:#ffffff;fill-opacity:1;fill-rule:evenodd;stroke:#000000;stroke-width:0.56444448;stroke-linecap:butt;stroke-linejoin:miter;stroke-miterlimit:4;stroke-dasharray:none;stroke-opacity:1;display:inline"
           id="path3369" /><path
           d="M 76.482222,123.85399 L 76.482222,129.35494"
           style="fill:#ffffff;fill-opacity:1;fill-rule:evenodd;stroke:#000000;stroke-width:0.56444448;stroke-linecap:butt;stroke-linejoin:miter;stroke-miterlimit:4;stroke-dasharray:none;stroke-opacity:1;display:inline"
           id="path3371" /></g><path
         d="M 74.645717,126.61982 L 74.645717,126.61982 L 123.24899,126.61982"
         style="fill:#ffffff;fill-opacity:1;fill-rule:evenodd;stroke:#000000;stroke-width:0.56444448;stroke-linecap:butt;stroke-linejoin:miter;stroke-miterlimit:4;stroke-dasharray:none;stroke-opacity:1"
         id="path3409" /></g><path
       d="M 49.43886,102.86543 C 51.448871,103.60906 52.337021,105.03516 51.736723,106.38185 C 53.374576,106.27326 54.460349,107.44291 53.895321,108.71453 C 56.05518,109.25022 55.907138,110.6479 55.009436,111.55751 C 56.89244,113.41101 55.735871,114.7338 53.878426,114.44827 C 53.449726,115.41221 52.859832,115.86083 51.040401,115.43404 C 49.547597,116.61773 48.409803,116.11512 47.280262,115.5733 C 46.095408,116.05573 44.900888,116.39317 43.624572,115.50368 C 42.512628,115.99117 41.407393,116.37132 40.386674,115.39922 C 38.692927,107.56609 44.516304,103.46124 49.43886,102.86543 z "
       style="fill:#277d7c;fill-opacity:1;fill-rule:evenodd;stroke:#000000;stroke-width:0.56444448;stroke-linecap:butt;stroke-linejoin:miter;stroke-miterlimit:4;stroke-dasharray:none;stroke-opacity:1"
       id="path3324" /></g><path
     d="M 291.71353,472.7132 C 316.56655,417.26919 372.66272,401.11314 397.10489,351.04189 C 426.0323,301.24164 402.33325,254.59649 381.11894,232.7979 C 359.47083,210.55351 341.28572,205.55171 313.49727,207.45674 C 262.72097,223.65338 237.52737,226.70164 188.04201,208.4578 C 173.08433,202.94334 156.0953,202.90544 143.75633,208.71139 C -51.23114,300.46058 254.88009,569.8024 291.71353,472.7132 z "
     style="fill:none;fill-rule:evenodd;stroke:#000000;stroke-width:2.45564747;stroke-linecap:butt;stroke-linejoin:miter;stroke-miterlimit:4;stroke-dasharray:none;stroke-opacity:1"
     id="path3314" /></svg>