<?xml version="1.0" encoding="UTF-8"?>
<!DOCTYPE svg PUBLIC "-//W3C//DTD SVG 1.1//EN" "http://www.w3.org/Graphics/SVG/1.1/DTD/svg11.dtd">
<!-- Creator: CorelDRAW -->
<svg xmlns="http://www.w3.org/2000/svg" width="500px" height="720px" viewBox="0 -2 1000 1445" xmlns:xlink="http://www.w3.org/1999/xlink">
<defs>
	<style type="text/css">
	<![CDATA[
		.str1 {stroke:black;stroke-width:2}
		.str0 {stroke:#000000;stroke-width:4}
		.str3 {stroke:black;stroke-width:6}
		.str4 {stroke:black;stroke-width:1}
		.fil3 {fill:none}
		.fil0 {fill:#FFF212}
		.fil1 {fill:white}
		.fil2 {fill:red}
		.fil4 {fill:#F8D45C}
		.fil5 {fill:black}
		.fil6 {fill:#E6E7E8}
		.fil7 {fill:#00A859}
		.fil8 {fill:#D2D3D5}
		.fil9 {fill:#0098DA}
	]]>
	</style>
	<line id="raio" stroke="#000000" stroke-width="3" x1="-100" x2="100"/>
	<g id="sol">
		<ellipse fill="#FFF212" rx="100" ry="100"/> 
		<use xlink:href="#raio" /><use xlink:href="#raio" transform="rotate(4.5)" /><use xlink:href="#raio" transform="rotate(9.0)" /><use xlink:href="#raio" transform="rotate(13.5)" /><use xlink:href="#raio" transform="rotate(18.0)" /><use xlink:href="#raio" transform="rotate(22.5)" /><use xlink:href="#raio" transform="rotate(27.0)" /><use xlink:href="#raio" transform="rotate(31.5)" /><use xlink:href="#raio" transform="rotate(36.0)" /><use xlink:href="#raio" transform="rotate(40.5)" /><use xlink:href="#raio" transform="rotate(45.0)" /><use xlink:href="#raio" transform="rotate(49.5)" /><use xlink:href="#raio" transform="rotate(54.0)" /><use xlink:href="#raio" transform="rotate(58.5)" /><use xlink:href="#raio" transform="rotate(63.0)" /><use xlink:href="#raio" transform="rotate(67.5)" /><use xlink:href="#raio" transform="rotate(72.0)" /><use xlink:href="#raio" transform="rotate(76.5)" /><use xlink:href="#raio" transform="rotate(81.0)" /><use xlink:href="#raio" transform="rotate(85.5)" /><use xlink:href="#raio" transform="rotate(90.0)" /><use xlink:href="#raio" transform="rotate(94.5)" /><use xlink:href="#raio" transform="rotate(99.0)" /><use xlink:href="#raio" transform="rotate(103.5)" /><use xlink:href="#raio" transform="rotate(108.0)" /><use xlink:href="#raio" transform="rotate(112.5)" /><use xlink:href="#raio" transform="rotate(117.0)" /><use xlink:href="#raio" transform="rotate(121.5)" /><use xlink:href="#raio" transform="rotate(126.0)" /><use xlink:href="#raio" transform="rotate(130.5)" /><use xlink:href="#raio" transform="rotate(135.0)" /><use xlink:href="#raio" transform="rotate(139.5)" /><use xlink:href="#raio" transform="rotate(144.0)" /><use xlink:href="#raio" transform="rotate(148.5)" /><use xlink:href="#raio" transform="rotate(153.0)" /><use xlink:href="#raio" transform="rotate(157.5)" /><use xlink:href="#raio" transform="rotate(162.0)" /><use xlink:href="#raio" transform="rotate(166.5)" /><use xlink:href="#raio" transform="rotate(171.0)" /><use xlink:href="#raio" transform="rotate(175.5)" />
		<ellipse fill="#FFF212" rx="55" ry="55"/> 
	</g>
 </defs>
  <path class="fil0 str0" d="m 557.1796,1383.1736 c 29.6,-15.8303 49.4752,-42.6201 62.8583,-78.339 l 19.8709,6.4949 -10.1386,-49.9264 -46.2307,21.9189 18.6543,10.9595 c -24.737,60 -49.4741,81.1796 -75.8339,62.5 -12.9768,0 -16.2213,-88 -17.8441,-200.11 l 36,0 29.6,53.5784 163.429,42.2138 39.3366,58.8567 c 37.3,-21.1 68.941,-50.7378 97.3276,-86 l -44.2,-44.2429 24.737,-51.5504 c 15,8.524 25.9547,4.4657 32.4425,-13.8 8.11064,3.2468 15,1.2177 20.6823,-6.9 l 47.8524,-87.6745 c 6,-15.8303 1.62284,-22.32401 -8.11064,-25.57211 -1.62165,-8.52402 -6.4878,-12.9886 -15,-13.8 -6,-7.7126 -14.1933,-10.148 -24.737,-8.93032 -48.2327,-73.9571 152.15104,-257.622 73.8,-355.976 l -70.969,-86 c -21.8977,-23.1366 -45.4193,-21.9189 -70.1564,13.8 -25.1433,-26.7886 -22.7103,-53.1733 7.29922,-79.1505 l -36,-36.5315 c -68.2796,48.339 -130.882,-8.27481 -51.5,-52.767 -47.4615,-43.4327 -126.2,-88.232 -190.351,-56.1308 -5.67756,-11.7721 -18.4973,-12.8728 -30.6638,-7.59568 -4.46103,-10.148 -10.5437,-10.5532 -18.2492,-4.87087 -5.27126,-5.27717 -11.7602,-7.3 -21,-6.9 -9.32717,-0.4 -15.8162,1.62284 -21,6.9 -7.7,-5.68229 -13.7882,-5.27717 -18.2492,4.87087 -12.1654,-5.27717 -22.3,-4.87087 -27.9815,6.9 -64.1138,-32 -145.559,13.3819 -193,56.8264 82.1646,46 18.1914,102.1 -51.5,52.767 l -36,36.5315 c 30,25.9772 32.4425,52.3619 7.29922,79.1505 -24.737,-35.7189 -48.2575,-36.9366 -70.1564,-13.8 l -70.9678,86 c -80.3257,100.84 125.96,276 73.8,355.976 -10.5437,-1.21772 -18.6543,1.21772 -24.737,8.93032 -8.51575,0.81142 -13.3831,5.27599 -15,13.8 -9.73229,3.24803 -14.1933,9.74169 -8.11064,25.57209 l 47.8524,87.6745 c 5.67756,8.1189 12.5717,10.148 20.6823,6.9 6.48898,18.2658 17.4378,22.324 32.4425,13.8 l 24.737,51.5504 -44.2,44.2429 c 29.152,36.5469 62.1296,68.3516 97.3276,86 l 39.3366,-58.8567 163.429,-42.2138 29.6,-53.5784 36,0 c -1.62284,112 -4.86615,200.11 -17.8441,200.11 -26.3587,18.6709 -51,-2.4354 -75.8339,-62.5 l 18.6543,-10.9595 -46.2307,-21.9189 -10.1386,49.9264 19.8721,-6.4949 c 13.3819,35.7189 33.2528,62.5 62.8571,78.339 25.9536,10.9595 57.07697,56.8265 57.07697,56.8265 0,0 31.12337,-45.867 57.07697,-56.8264 z"/>
  <ellipse class="fil1 str0" cx="500" cy="750" rx="312" ry="355"/>
  <ellipse class="fil0 str1" cx="500" cy="750" rx="245" ry="275"/>
  <path class="fil0 str3" d="M73 1067.27c5.67638,-3.25 13,-3.25 15,0.4 2.43307,4 -1.21772,10.148 -6.8941,13.8 -6,3.24685 -12.978,3.24685 -15,-0.812599 -2.43307,-4 0.810237,-9.74174 6.8941,-13.3949zm-6.48898 -14.2c5.67756,-3.24685 12.9768,-3.24685 15,0.4 2.43307,4 -1.21654,10.1469 -6.8941,13.8 -6,3.24803 -12.9768,3.24803 -15,-0.811418 -2.43307,-4 0.811418,-9.74174 6.8941,-13.3949zm867.838 14.2c-5.67756,-3.24685 -12.978,-3.24685 -15,0.4 -2.43425,4 1.21654,10.148 6.8941,13.8 6,3.24685 12.9768,3.24685 15,-0.812599 2.43425,-4 -0.810237,-9.74174 -6.89292,-13.3949zm6.4878 -14.2c-5.67756,-3.24685 -12.9768,-3.24685 -15,0.4 -2.43307,4 1.21654,10.1469 6.8941,13.8 6,3.24803 12.9768,3.24803 15,-0.811418 2.43307,-4 -0.811418,-9.74174 -6.8941,-13.3949z"/>
  <path class="fil4 str1" d="M129.977 119.334c59.2,4 119.226,6 186.545,-5.68229 36.9,-5.27717 69.3461,5.68229 98.9493,31.2544 18.6555,2.43543 34.8768,10.5532 49.8804,25.9784 39.7429,7.71142 69.3461,-13.8 90.4335,-62.915 23.1154,-32 49.4752,-49.1138 80.2961,-51.9556 74.6174,-10.5532 133.825,-32.4721 191,-56 4.46103,21.9189 -2.43307,43.4315 -34.4693,64.539 -32,40.5898 -64.8851,60.8847 -98.9505,63.3201 -20.276,28 -44.6,44.2441 -71.7792,48.7 -12.5705,9.74174 -12.5705,18.2658 0,25.9772l67.3193 24.7606c21.1524,7.77757 14.1933,18.2658 -2.83937,22.7303 -37.7138,5.68229 -78.6733,0.811418 -118.82,-5.68229 -22.7103,-2 -32,3.65315 -27.5764,17.4532l10.1386 5.68347 -5.67756 7.3c2.83819,22.7315 29.6,24.7606 23.1154,40.1847l-38.9315 -2.84173c-5.67756,-13.8 11.3551,-15.8291 1.62165,-31.6595l-8.92087 2.84055 -15.411 -18.6709 1.21654 10.1469c-12.1654,-14.2 -23.5205,-17 -34.4693,-14.6114l0 17.4532 -7.3 0 -1.21654 15.8303c8.51694,0.811418 11.7614,6.49489 14.1945,12.9886l-42.9863 15.8303c-1.21654,-12.9886 3.24331,-21.1 12.9768,-24.7595l4.46103 -18.6721 -7.3 0 0 -15.8303c-41.3634,-3.65315 -68.9398,-18.2658 -67.3182,-56 -17.4378,5.27599 -34,2.43543 -50.2855,-7.3 -18.6543,5.27599 -37.3,2.43543 -55.963,-7.3 -31.226,-1.21772 -54.7477,-6 -70.1575,-14.2 -39.3366,-2.43543 -63.2623,-22.3252 -71.7792,-58.8567z"/>
  <path class="fil5 str1" d="M828.3 12.5c-59,25 -118,43.6 -177.3,56.589l20.2772 2.84173 -55.963 28.8189 20.276 0 -30 24.3543 14.1933 1.62284 -31.6311 27.1961 11.3551 0 -27.1713 24.3543 15.8162 1.62284 -31.6311 23.1366 10.1386 2.84173 -31.6323 24.3543 3.96496 23.7851c3.24449,-10.148 11.8512,-14 27.6673,-10.7965 40.9583,6.49371 103.4,11.9291 119.45,7.69725 14.5,-3.82441 23.8914,-15.9898 1.27323,-24.7358 -36.4973,-12.5835 -74,-28.8284 -74.8985,-37.7587 1.21654,-9.33544 7.51536,-8.49449 9.15827,-12.1725 19.526,0.758268 66.4193,-31.3784 71.1367,-49.5248 32.3292,0.424016 66.913,-22.324 101.789,-63.7264 23.5,-13.3524 33.1831,-32.8985 33.7323,-50.5zm-692.316 121.533c60.4241,10.5543 120.848,8.93032 182,-4 38.5252,-2.43543 63.6686,6 76.2402,28.4126 2.83819,19 15.4,30 38.5252,34.5 -20.276,38.9658 -5.67756,53.9847 24.3319,58.8556l-11.3551 11.3988c-42.9863,-2 -67.7233,-20.3291 -67.3182,-56 -20.165,3.58937 -34.4681,0 -50.2843,-8.52402 -20,5.75079 -41.2902,2.68347 -56.2949,-6.24686 -28.3878,-0.811418 -53.53,-4.46339 -70.1575,-14.2 -22.3,0 -59.9587,-16.5 -65.7709,-44zm318.343 78.339c2.43307,-15 15,-21.9177 38.9303,-19.8886 12.1665,2 25.1386,0.950788 38.1154,-7.16693 5.67756,35.3126 -27.5185,19.8921 -38.8737,40.187 -8.92205,-8.93032 -21.9508,-13.1315 -38.1721,-13.1315z"/>
  <path class="fil6 str4" d="M766.53 57.1748c2,0 4,3.24685 4,6.9 0,3.65315 -2,6.49489 -4,6.49489 -2,0 -3.64961,-2.84173 -3.64961,-6.49489 0,-3.65315 1.62284,-6.9 3.64961,-6.9zm-36 29.6303c3.24449,0 6,3.24803 6,6.9 0,3.65315 -2.83819,6.9 -6,6.9 -3.24449,0 -5.67756,-3.24685 -5.67756,-6.9 0,-3.65315 2.43307,-6.9 5.67756,-6.9zm-30.4146 3.65315c2.43307,0 4.46103,2.43543 4.46103,5.27717 0,2.84173 -2,5.27717 -4.46103,5.27717 -2.43307,0 -4.46103,-2.43543 -4.46103,-5.27717 0,-2.84173 2,-5.27717 4.46103,-5.27717zm-19 23.5429c2,0 3.65079,2.84173 3.65079,6.49489 0,3.65315 -1.62284,6.49371 -3.65079,6.49371 -2,0 -3.24331,-2.84055 -3.24331,-6.49371 0,-3.65315 1.21654,-6.49489 3.24331,-6.49489zm-5.67638 -32c2.83819,0 5.27126,2.43543 5.27126,5.68229 0,3.24685 -2.43307,5.68229 -5.27126,5.68229 -2.83937,0 -4.86733,-2.43543 -4.86733,-5.68229 0,-3.24685 2,-5.68229 4.86733,-5.68229zm-15.411 22.7303c2.83937,0 4.86615,2.84055 4.86615,6 0,3.24685 -2,5.68229 -4.86615,5.68229 -2.83819,0 -4.86615,-2.43543 -4.86615,-5.68229 0,-3.24803 2,-6 4.86615,-6zm-10.1374 25.1658c-1.21772,-1.62402 -5.67756,1.21772 -9.73347,5.68229 -4.46103,4.46457 -6.4878,8.93032 -4.86615,10.5532 1.62165,1.21772 6,-1.21772 10.1386,-5.68229 4,-4.46457 6,-9.33544 4.46103,-10.5532z"/>
  <path class="fil3 str1" d="M665.613 70.1245c-38.1201,-4.46457 -68.9398,10.148 -93.2717,45 -12.1665,27.1949 -26.3599,51.1441 -40.9595,70.2213m-39.7418 39.3721l29.1981 27.1949 -19 0 4.12559 12.6791m38.5252 10.1457l-14 5.84646m-65.1461 -2.9l-12.4 1.11969m17.7721 -47.5843c6.48898,-0.812599 10.9488,2 12.9768,6.9m-10.1386 21.9189l-16.2236 -8.27127"/>
  <path class="fil0 str3" d="M109.276 1041.37c3.65079,-0.811418 7.3,2 8.11064,5.27599 0.4,3.65315 -2,7.7126 -5.67638,8.1189 -3.65079,0.4 -6.8941,-2 -7.3,-5.68347 -0.810237,-2.84055 1.21654,-7.3 4.86615,-7.71142zm-13.3819 -1.62402c3.24449,-0.4 7.29922,2.84173 8.11064,6 0.811418,3.24685 -2.83937,6.9 -5.67756,7.7126 -3.64961,0.811418 -6.8941,-2 -7.7,-5.27717 -0.4,-3.65315 1.62284,-7.71142 5.27245,-8.52402zm-4 14.6126c3.24449,-0.811418 7.3,2 7.7,5.68229 0.811418,3.65315 -2,6.49489 -5.27245,7.3 -3.64961,0.812599 -7.29922,-1.62284 -7.7,-5.27599 -0.811418,-3.65315 1.62165,-6.9 5.27126,-7.7126zm13.7882 0.811418c3.64961,-0.811418 7.3,2 8.11064,5.68347 0.4,3.24685 -2.43307,7.3 -5.67756,7.71142 -3.64961,0.812599 -6.8941,-2 -7.7,-4.87087 -0.811418,-3.65315 1.62165,-8.11772 5.27126,-8.52402zm30.8209 -38.1544c2.83819,0 5.67756,2.84173 5.67756,5.68229 0,2.84173 -2.83937,5.27717 -5.67756,5.27717 -2.83937,0 -5.27245,-2.43543 -5.27245,-5.27717 0,-2.84055 2.43307,-5.68229 5.27245,-5.68229zm-10.5437 -2.84173c2.83819,0 5.67756,2.84173 5.67756,5.68347 0,2.84055 -2.83937,5.27599 -5.67756,5.27599 -2.83937,0 -5.27245,-2.43543 -5.27245,-5.27599 0,-2.84173 2.43307,-5.68347 5.27245,-5.68347zm-5.27245 10.5543c2.83937,0 5.67756,2.84055 5.67756,5.68229 0,2.84173 -2.83819,5.27717 -5.67756,5.27717 -2.83819,0 -5.27126,-2.43543 -5.27126,-5.27717 0,-2.84173 2.43307,-5.68229 5.27126,-5.68229zm10.95 2.84055c2.83819,0 5.67756,2.84173 5.67756,5.68347 0,2.84055 -2.83937,5.27599 -5.67756,5.27599 -2.83937,0 -5.27245,-2.43543 -5.27245,-5.27599 0,-2.84173 2.43307,-5.68347 5.27245,-5.68347zm768.888 13.8c-3.64961,-0.811418 -7.29922,2 -8.11064,5.27599 -0.4,3.65315 2,7.7126 5.67756,8.1189 3.64961,0.4 6.8941,-2 7.29922,-5.68347 0.811418,-2.84055 -1.21654,-7.3 -4.86615,-7.71142zm13.3819 -1.62402c-3.24331,-0.4 -7.29922,2.84173 -8.11064,6 -0.810237,3.24685 2.83937,6.9 5.67756,7.7126 3.64961,0.811418 6.8941,-2 7.7,-5.27717 0.4,-3.65315 -1.62165,-7.71142 -5.27245,-8.52402zm4 14.6126c-3.24449,-0.811418 -7.29922,2 -7.7,5.68229 -0.810237,3.65315 2,6.49489 5.27245,7.3 3.64961,0.812599 7.29922,-1.62284 7.7,-5.27599 0.811418,-3.65315 -1.62165,-6.9 -5.27126,-7.7126zm-13.7882 0.811418c-3.64961,-0.811418 -7.29922,2 -8.11064,5.68347 -0.4,3.24685 2.43307,7.3 5.67756,7.71142 3.64961,0.812599 6.8941,-2 7.7,-4.87087 0.810237,-3.65315 -1.62284,-8.11772 -5.27245,-8.52402zm-30.8209 -38.1544c-2.83819,0 -5.67638,2.84173 -5.67638,5.68229 0,2.84173 2.83819,5.27717 5.67638,5.27717 2.83937,0 5.27245,-2.43543 5.27245,-5.27717 0,-2.84055 -2.43307,-5.68229 -5.27245,-5.68229zm10.5449 -2.84173c-2.83937,0 -5.67756,2.84173 -5.67756,5.68347 0,2.84055 2.83819,5.27599 5.67756,5.27599 2.83819,0 5.27126,-2.43543 5.27126,-5.27599 0,-2.84173 -2.43307,-5.68347 -5.27126,-5.68347zm5.27126 10.5543c-2.83819,0 -5.67756,2.84055 -5.67756,5.68229 0,2.84173 2.83937,5.27717 5.67756,5.27717 2.83937,0 5.27245,-2.43543 5.27245,-5.27717 0,-2.84173 -2.43307,-5.68229 -5.27245,-5.68229zm-10.9488 2.84055c-2.83937,0 -5.67756,2.84173 -5.67756,5.68347 0,2.84055 2.83819,5.27599 5.67756,5.27599 2.83819,0 5.27126,-2.43543 5.27126,-5.27599 0,-2.84173 -2.43307,-5.68347 -5.27126,-5.68347z"/>
  <path class="fil7 str0" d="M427.815 1123c-50.2855,-12.5823 -99,-40 -142.814,-83l-19.9996 24.9992c-38.9315,-18.6709 -65.2619,-51.2918 -90,-100l-10 35 -35 -5c50.2867,81.5847 107.6,136 170.462,165.265l16.2378 -29.1154c27.1713,20.2961 59.2,31.2544 93.2729,38.5607l-17 11.3658c-12.9768,-0.4 -21.4925,5.27717 -25.5484,17 -13.3819,-0.811418 -23.9256,3.24685 -33.6591,9.74174 -10.1386,-5.27717 -21,-8.1189 -32.4425,-4 -11.7602,-5.27599 -23.1154,-6.9 -35.687,-5.68229 -4,-15.424 -13.3819,-27.1961 -36.4973,-30l-12.9768 -14.2c-6.48898,-24.3543 -19,-34.9 -39.3366,-33.691l-22.7103 0 -11.3551 8.1189c-4.45985,27.6 1.21654,46.2721 21.4937,53.9847 0.811418,13.8 9.73229,23.5418 26.765,30 6,14.6126 15.8162,19.4835 26.765,21.1l17 8.52284c8.51575,20.7 21.8988,26.3847 39.3366,22.7315 15,15.424 23.1154,13.8 30,10.1469l6.8941 -15.8303c17.8429,16.6429 32,19.8898 42.1748,10.148l5.67756 -12.9886c27.1701,6 48.6638,0 59.6126,-22.7303 25.5484,5.68229 38.9315,-4.46575 37.715,-32.4733 13.3819,-7.3 18.2492,-23.5418 18.2492,-42.6189l-46.637 -35.3138zm144.37 0c50.2855,-12.5823 99,-35 142.817,-78l17.7732 22.8284c38.9315,-18.6721 67.4882,-54.1205 92.2265,-102.829l10 35 34.9996 0c-50.2878,81.5859 -107.6,131 -170.46,160.265l-14.5382 -30.2646c-27.1713,20.2949 -60.9,32.4 -94.9749,39.7l17 11.3658c12.9768,-0.4 21.4925,5.27717 25.5484,17 13.3819,-0.811418 23.9268,3.24685 33.6591,9.74174 10.1386,-5.27717 21,-8.1189 32.4425,-4 11.7602,-5.27599 23.1154,-6.9 35.687,-5.68229 4,-15.424 13.3819,-27.1961 36.4973,-30l12.9768 -14.2c6.48898,-24.3543 19,-34.9 39.3366,-33.691l22.7103 0 11.3551 8.1189c4.46103,27.6 -1.21654,46.2721 -21.4937,53.9847 -0.811418,13.8 -9.73229,23.5418 -26.765,30 -6,14.6126 -15.8162,19.4835 -26.765,21.1l-17 8.52284c-8.51575,20.7 -21.8988,26.3847 -39.3366,22.7315 -15,15.424 -23.1154,13.8 -30,10.1469l-6.8941 -15.8303c-17.8441,16.6429 -32,19.8898 -42.176,10.148l-5.67756 -12.9886c-27.1701,6 -48.6638,0 -59.6126,-22.7303 -25.5484,5.68229 -38.9315,-4.46575 -37.715,-32.4733 -13.3819,-7.3 -18.248,-23.5418 -18.248,-42.6189l46.6359 -35.3138z"/>
  <g id="_198376048">
   <polygon id="_200374992" class="fil8 str1" points="420,1132.5 410,1132.5 410,1147.49 420,1147.5 "/>
   <polygon id="_198345256" class="fil8 str1" points="420,1127.5 435,1127.5 435,1152.52 420,1152.5 "/>
   <polygon id="_382322336" class="fil8 str1" points="454.941,1117.5 435,1117.5 435,1162.5 454.994,1162.5 "/>
   <polygon id="_312738464" class="fil8 str1" points="454.927,1107.5 480,1107.5 480,1172.5 455,1172.5 "/>
   <polygon id="_315948664" class="fil8 str1" points="580.2,1132.4 590.2,1132.4 590.2,1147.35 580.171,1147.4 "/>
   <polygon id="_315946624" class="fil8 str1" points="580.2,1127.4 565.2,1127.4 565.2,1152.4 580.2,1152.4 "/>
   <polygon id="_198345592" class="fil8 str1" points="545.235,1117.4 565.2,1117.4 565.2,1162.4 545.182,1162.4 "/>
   <polygon id="_198345496" class="fil8 str1" points="545.249,1107.4 520.2,1107.4 520.2,1172.4 545.2,1172.35 "/>
  </g>
  <path class="fil9 str1" d="M733.88 667.84c6.48898,25.1658 11.1213,54.5587 11.1213,82.1599 0,149.372 -109,275.344 -242,275.344 -34.8756,0 -75.9886,-10.5709 -107.215,-26.4 23.9256,-60.4796 59.7437,-114.592 108.4,-140.164 34.8756,-13.3949 62.452,-47.491 83.5394,-95.7934 31.226,-57.6378 80.4721,-90.2741 146.169,-95.145z"/>
  <path class="fil9 str1" d="M699.199 589.863c-44.2,-70.2213 -121.737,-112.997 -199.194,-112.997 -59.6126,0 -119.321,23.2902 -162.712,67.5331 15.4,22.3252 37.9677,42 63.1111,56.2666 26.765,17.8606 49,47.8973 68.941,84.4276 23.5205,53.9859 46.2307,67.3796 69.3449,41.4 32.4425,-81.1808 83.8642,-132.573 160.51,-136.632z"/>
  <path class="fil7 str1" d="M330.922 949c-46.2307,-49.9264 -75.9213,-125.655 -75.9213,-198.718 0,-47.8961 13.1303,-99.4643 33.8126,-139.649 59.2,25.1658 94.6548,54.8162 97,83.6351 19.4658,36.9366 42.9874,61.6973 67.7245,84.4276 19,16.6417 16.6264,32.4721 -6.8941,47.8961 -25.9536,12.1772 -47.8524,32.4721 -64,61.291 -7.7,19.8898 -27.4,42.4465 -51.7359,61.1174z"/>
  <path class="fil5 str4" d="M318.873 831.578l-13.3831 1.21772 -10.9488 16.2366 13.3819 2.43543 4.46103 11.7709 14.1945 -18.6721 -7.7 -12.9886zm41.3646 0l13.3819 1.21772 10.95 16.2366 -13.3831 2.43543 -4.46103 11.7709 -14.1933 -18.6721 7.7 -12.9886zm-36 -101.881l-17.8429 10.1469 -3.24449 -26.3835 21 16.2366zm37.715 0l17.8429 10.1469 3.24449 -26.3835 -21 16.2366zm-54.3414 79.1505c36.4985,-31.2544 73.8,-43.4315 112.332,-45.4607 7.7,4 6,9.74174 -4.86615,17 -40.9595,13.3949 -65.2902,14.2 -72.5906,4.87087l-34.8756 23.5418zm66.913 1.21772c-32,-30 -66.1,-43 -102.194,-47 -7.7,2.84173 -6.48898,8.52402 3.64961,15.424 37.3,14.2 60,16.2366 67.3182,8.52402l31.226 23.1366z"/>
  <path class="fil3 str0" d="M891.788 1115.46c-26.3599,-7.3 -41.7697,-20.7 -50.6918,-39.3721 -9.32717,4.46457 -15,20.2949 -17.4378,45.867 8.11064,2.43543 16.2213,2 24.3319,-0.812599l10.5437 8.1189"/>
  <polygon class="fil0" points="639.8,749.761 673.43,749.761 683.869,717.7 694.247,749.761 727.874,749.761 700.652,769.699 711,801.819 683.869,782 656.584,801.819 666.96,769.699 "/>
  <path class="fil0 str0" d="M500 1104.75c8.51575,2.43543 17,-2.84055 25.1433,-25.5709 15,17.8595 29.1981,23.9481 43.3914,17.4532 15.4,8.93032 27.1713,4.87087 36.9,-12.1772 -18.2492,8.11772 -30.4146,4.87087 -38.5252,-10.1469l8.92087 -17.8606 28.3878 -10.9583c34.8756,14.2 55.963,3.65315 64.4788,-31.2555l30.4158 -20.7c31.226,-10.9595 50.2855,-30 41.7697,-65.7567l11.7602 -22.324c31.6311,-15.4252 39.3366,-39.3733 23.9268,-70.2213l4.45985 -26.7898c27.1713,-23.5418 27.9827,-48.7 2.83937,-75.4973l-0.811418 -24.3543c18.6543,-30.8481 19.8709,-56.8264 -14.5984,-71.8442l-4.46103 -23.9492c11.3539,-31.2544 1.62165,-53.1733 -29.1981,-65.7556l-17 -17c-1.62284,-36.1252 -15,-59.667 -55.5579,-55.6l-21 -13.3949c-11.3551,-25.1658 -30.8209,-33.6898 -57.1808,-32l-14.1933 31.6607c19.8709,23.5418 40.9583,34 66.5,16.2354l21.4925 12.5835c0,29.6303 15.4,45.4607 44.6,46.6784l16.2213 23.5418c-7.3,27.1961 2.83819,47.491 28.7918,60.8859l4.46103 20.7c-15,23.9481 -13.3819,46.2721 13.3831,67.3796l0 27.1949c-23.5217,22.3252 -23.9268,45.4618 -1.21654,69l-6 30.4429c-30,9.33544 -32.4425,32.8784 -21.4925,62.915l-9.73229 19.8886c-29.1992,5.68347 -43.3926,25.1658 -42.176,59.2619l-24.737 20.7c-28.7929,-10.5532 -46.2307,3.24685 -57.1808,29.6303l-29.1981 10.148 -17.8429 -13.8c0.4,-7.3 3.64961,-11.7709 10.9488,-14.2l32.8488 -14.6126c-7.7,-14.2 -20.2772,-19 -38.9315,-14.2 -21.4925,0.811418 -34.4705,9.33544 -37.3,26.7898 -5.27245,-9.74174 -12.9,-12.9886 -23.1154,-12.9886 -10.2106,0 -17.8429,3.24685 -23.1154,12.9886 -2.83819,-17.4543 -15.8162,-25.9784 -37.3,-26.7898 -18.6543,-4.87087 -31.226,0 -38.9315,14.2l32.8488 14.6126c7.29922,2.43543 10.5437,6.9 10.9488,14.2l-17.8429 13.8 -29.1992 -10.148c-10.9488,-26.3835 -28.3866,-40.1835 -57.1796,-29.6303l-24.737 -20.7c1.21654,-34 -12.9768,-53.5784 -42.176,-59.2619l-9.73229 -19.8886c10.9488,-30 8.51575,-53.5796 -21.4925,-62.915l-6 -30.4429c22.7103,-23.5418 22.3,-46.6784 -1.21654,-69l0 -27.1949c26.765,-21.1 28.3878,-43.4315 13.3831,-67.3796l4.46103 -20.7c25.9536,-13.3949 36,-33.6898 28.7918,-60.8859l16.2213 -23.5418c29.1992,-1.21772 44.6,-17 44.6,-46.6784l21.4925 -12.5835c25.5484,17.8595 46.637,7.3 66.5,-16.2354l-14.1933 -31.6607c-26.3599,-1.62402 -45.8256,6.9 -57.1808,32l-21 13.3949c-40.5532,-4 -53.9351,19.4835 -55.5579,55.6l-17 17c-30.8197,12.5823 -40.5532,34.5 -29.1981,65.7556l-4.46103 23.9492c-34.4693,15 -33.2528,40.9961 -14.5984,71.8442l-0.811418 24.3543c-25.1433,26.7898 -24.3319,51.9556 2.83937,75.4973l4.45985 26.7898c-15.4,30.8481 -7.7,54.7961 23.9268,70.2213l11.7602 22.324c-8.51575,35.7201 10.5437,54.7973 41.7697,65.7567l30.4146 20.7c8.51694,34.9 29.6,45.4618 64.48,31.2555l28.3878 10.9583 8.92087 17.8606c-8.11064,15 -20.276,18.2646 -38.5252,10.1469 9.73229,17 21.4937,21.1 36.9,12.1772 14.1933,6.49489 28.3866,0.4 43.3914,-17.4532 8.11064,22.7303 16.6276,28 25.1433,25.5709m-189.789 -603.169c6.8941,-5.68347 15,-8.52402 17.4378,-6 2.43307,2.84055 -1.62165,10.1469 -8.51575,16.2354 -6.8941,6 -14.1933,8.93032 -16.6264,6 -2.43307,-2.43543 0.810237,-9.74174 7.7,-16.2354zm81.9178 -49.115c8.51575,-2.84055 17,-2.43543 18.2492,0.812599 1.21654,3.65315 -5.27245,8.92914 -13.7882,12.1772 -8.92205,2.84055 -16.6276,2.84055 -17.8441,-0.812599 -1.21654,-3.24685 4.46103,-8.92914 13.3831,-12.1772zm-138.692 125.83c5.27245,-6.9 12.5717,-11.7709 15.411,-10.148 3.24331,2 0.810237,9.74174 -4,17.4543 -4.86615,7.3 -11.3551,11.7709 -14.5984,9.74174 -2.83937,-1.62402 -1.62284,-9.33544 3.24331,-17zm-21.8988 78.7453c4.86733,0 8.11064,7.71142 7.3,16.6417 -0.811418,8.92914 -5.67756,16.2354 -10.5437,16.2354 -4.86733,0 -8.11064,-7.3 -7.3,-16.2354 0.811418,-8.93032 5.67756,-16.6417 10.5437,-16.6417zm-4.86615 98.2276c4.86615,0 8.51694,7.7126 8.51694,16.6417 -0.4,8.93032 -4.86733,16.2366 -9.73347,16.2366 -4.86615,0 -8.51575,-7.3 -8.11064,-16.2366 0,-8.92914 4.46103,-16.6417 9.32717,-16.6417zm7.7 94.5757c4,0 10.1386,8.52402 12.9768,18.6709 3.24449,10.148 2.43307,18.2658 -1.62165,18.2658 -4,0 -9.32717,-8.11772 -12.5717,-18.2658 -2.83937,-10.1469 -2.83937,-18.6709 1.21654,-18.6709zm38.5252 88c4.46103,-0.812599 14.1933,5.68229 20.6823,15 6.8941,8.93032 8.51575,17 4,17.8595 -4.86615,1.21772 -13.3819,-5.27599 -20.276,-14.2 -6.8941,-9.33544 -9.32717,-17.4532 -4.46103,-18.6709zm77 72.2505c4,-2.84173 15,0.811418 24.3319,8.11772 8.92087,7.3 12.9768,15 8.92087,17.8595 -4.46103,2.84173 -14.5984,-0.811418 -23.9256,-8.11772 -8.92205,-7.3 -13.7882,-15.424 -9.32717,-17.8595zm339.835 -508.595c-6.8941,-5.68347 -15,-8.52402 -17.4378,-6 -2.43307,2.84055 1.62165,10.1469 8.51575,16.2354 6.8941,6 14.1933,8.93032 16.6264,6 2.43307,-2.43543 -0.810237,-9.74174 -7.7,-16.2354zm-81.9178 -49.115c-8.51575,-2.84055 -17,-2.43543 -18.2492,0.812599 -1.21654,3.65315 5.27245,8.92914 13.7882,12.1772 8.92205,2.84055 16.6276,2.84055 17.8441,-0.812599 1.21654,-3.24685 -4.46103,-8.92914 -13.3831,-12.1772zm138.692 125.83c-5.27245,-6.9 -12.5717,-11.7709 -15.411,-10.148 -3.24331,2 -0.810237,9.74174 4,17.4543 4.86615,7.3 11.3551,11.7709 14.5984,9.74174 2.83937,-1.62402 1.62284,-9.33544 -3.24331,-17zm21.8988 78.7453c-4.86733,0 -8.11064,7.71142 -7.3,16.6417 0.811418,8.92914 5.67756,16.2354 10.5437,16.2354 4.86733,0 8.11064,-7.3 7.3,-16.2354 -0.811418,-8.93032 -5.67756,-16.6417 -10.5437,-16.6417zm4.86615 98.2276c-4.86615,0 -8.51694,7.7126 -8.51694,16.6417 0.4,8.93032 4.86733,16.2366 9.73347,16.2366 4.86615,0 8.51575,-7.3 8.11064,-16.2366 0,-8.92914 -4.46103,-16.6417 -9.32717,-16.6417zm-7.7 94.5757c-4,0 -10.1386,8.52402 -12.9768,18.6709 -3.24449,10.148 -2.43307,18.2658 1.62165,18.2658 4,0 9.32717,-8.11772 12.5717,-18.2658 2.83937,-10.1469 2.83937,-18.6709 -1.21654,-18.6709zm-38.5252 88c-4.46103,-0.812599 -14.1933,5.68229 -20.6823,15 -6.8941,8.93032 -8.51575,17 -4,17.8595 4.86615,1.21772 13.3819,-5.27599 20.276,-14.2 6.8941,-9.33544 9.32717,-17.4532 4.46103,-18.6709zm-77 72.2505c-4,-2.84173 -15,0.811418 -24.3319,8.11772 -8.92087,7.3 -12.9768,15 -8.92087,17.8595 4.46103,2.84173 14.5984,-0.811418 23.9256,-8.11772 8.92205,-7.3 13.7882,-15.424 9.32717,-17.8595z"/>
  <path class="fil0 str0" d="M479.472 1051.73l-0.933072 -30c8.11064,-10.1469 19.9807,-4.87087 24.4406,3.65315 0.4,8.52402 -8,17 -23.5,26.3835zm33.241 6.9l-0.4 30c-0.152362,11.4319 -18,5.59725 -20.6811,-3.65315 -2.34213,-8.2 5.67756,-17 21,-26.3835z"/>
  <path class="fil7 str0" d="M153.266 844.528l0 -53.1721c8.92087,-2 15.815,-6.49489 19.4658,-13.8 2,-6.9 6.4878,-10.9595 13.3819,-12.1772 14.1933,-2.43543 23.9268,-9.33544 27.9815,-20.7 -9.73229,3.24803 -18.6543,5.27717 -27.9815,2 -9.73229,0.4 -17.4378,4.46457 -21.4925,15.424 -4,8.52402 -8.11064,9.74174 -12.1665,2.84055 -2.83819,-7.3 -7.29922,-8.11772 -8.92205,0.4 -4.86615,4.46457 -10.1374,2 -15.815,-6.9 16.6264,-1.21772 25.9536,-8.52402 33.6591,-17 6.4878,-10.9595 9.32717,-23.1366 6.8941,-38.1544 -5.27245,-12.9898 -11.7602,-23.1366 -24.7382,-28l0 -17.8595c6.48898,-8.93032 6.48898,-14.2 0,-15l0 -16.6417c6.48898,-10.9595 6.48898,-16.6417 0,-18.6721l0 -19.4823c3.24449,-9.74174 4.46103,-16.6429 -2.43307,-16.6429 -8.51575,-15.424 -14.5984,-14.6126 -18.248,3.24803l0.4 9.74174c-5.67756,8.92914 -6,15.424 0.4,17.8595l0.4 14.6126c-4.86733,9.33544 -4.86733,15.8303 0.4,18.6709l0.4 15.8303c-6,10.5532 -5.67756,15.424 0.4,16.2366l0.4 6c-15,1.21772 -26.765,7.71142 -33.6591,18.6709 -8.51575,17 -8.92205,32.4721 0.4,46.2733 3.64961,6.49371 7.3,11.7709 12.5717,15.8303 -9.73229,2.43543 -18.2492,1.62284 -25.5484,-2.84173 6.8941,13.8 17,21.9189 29.6,25.1658 -10.95,12.1772 -14.5996,25.5721 -9.73347,39.7784 -2.43307,16.2366 0.811418,28.8189 7.3,39.7784 1.21654,12.9886 5.67638,18.6721 10.9488,21.5126 2,12.9886 5.27245,17.8595 9.32717,18.2658 5.67756,11.3658 11.3551,17 17,18.2658 6.8941,8.93032 13.3819,14.6126 19.8709,16.6417 5.27126,3.65315 10.5437,7.3 15.8162,11.3658 5.67638,4.46457 11.3539,5.68229 17,4.87087 6.48898,1.62284 10.5437,0.4 13.7882,-2.84173 -2,-5.68229 -6.4878,-10.5532 -13.3819,-12.9886l6.4878 -11.3658 3.24449 -14.2c0.811418,-6.9 -1.21654,-12.5835 -5.67756,-16.2366 2.43307,-6.49371 2,-14.2 -0.4,-22.7303 -2.43307,-4 -8.11064,-8.92914 -24.7382,-10.9595 -7.7,2.43543 -15,-15.424 -22.7,-10.9595zm-37.715 -63.3201c8.51694,9.74174 18.2492,10.148 27.9815,10.148l0 46.6784c-5.27126,-0.4 -9.32717,-4 -12.1654,-9.74174 -2.83937,-6.9 -8.51575,-11.7709 -15.4,-12.9886 1.21654,-7.3 0,-15 -3.65079,-21.5126l3.24449 -12.5835zm10.1386 -51.5493c4.46103,0 8.11064,3.65315 8.11064,8.11772 0,4.46457 -3.64961,7.7126 -8.11064,7.7126 -4.46103,0 -7.7,-3.24803 -7.7,-7.7126 0,-4.46457 3.24449,-8.11772 7.7,-8.11772zm22.7103 -17.4543c4.45985,0 8.11064,3.65315 8.11064,8.1189 0,4.46457 -3.65079,7.71142 -8.11064,7.71142 -4.46103,0 -7.7,-3.24685 -7.7,-7.71142 0,-4.46575 3.24449,-8.1189 7.7,-8.1189zm-18.6555 -23.9481c4.46103,0 8.11064,3.65315 8.11064,8.11772 0,4.46575 -3.64961,7.7126 -8.11064,7.7126 -4.45985,0 -7.7,-3.24685 -7.7,-7.7126 0,-4.46457 3.24449,-8.11772 7.7,-8.11772zm-23.9256 21.1c4.46103,0 8.11064,3.65315 8.11064,8.11772 0,4.46457 -3.64961,7.71142 -8.11064,7.71142 -4.46103,0 -7.7,-3.24685 -7.7,-7.71142 0,-4.46457 3.24449,-8.11772 7.7,-8.11772z"/>
  <path class="fil3 str0" d="M860.2 1208.46c-27.5764,33.2835 -59.2,60.4784 -92.8666,85.239"/>
  <path class="fil3 str0" d="M834.248 1172.74c-11.7602,12.9886 -23.1154,16.6417 -34,14.6126l2.83937 -18.2658"/>
  <line class="fil3 str0" x1="556.458" y1="1188.57" x2="546.726" y2= "1169" />
  <line class="fil3 str0" x1="783.151" y1="1234" x2="785.584" y2= "1214.14" />
  <line class="fil3 str0" x1="642.43" y1="1256.36" x2="665.546" y2= "1253.11" />
  <path class="fil3 str0" d="M554.836 1232.81c-18.2492,48.3 -10.1386,70.6276 39.3366,54.391"/>
  <path class="fil3 str0" d="M950.635 993.331c-0.4,11.3658 -8.92205,9.74174 -19.4658,5.68229 -10.9488,-7.71142 -17.8429,-17.4532 -22.7,-27.6"/>
  <path class="fil3 str0" d="M935.63 980.748c-6,0.4 -10.5437,4 -12.1654,11.7721"/>
  <path class="fil3 str0" d="M746.652 386.1c-30.4146,-30.4429 -67.4398,-46.9 -109.899,-56 -31.3559,-6.7252 -55.8,-6.57875 -66.9119,13.8 -10.9996,20.1862 -2.77205,39.7111 18.248,42.2138 13.8378,1.64646 21.4937,-8.52402 16.6276,-23.9492 -5.67756,12.1772 -14.928,17.3634 -23.5217,8.93032 -12.3957,-12.163 -3.5504,-33.313 17.439,-31.2544 20.6622,2 32.4414,19.8886 20.276,46.2733 -11.3551,20.7 -32.1803,20.8961 -54.3414,8.11772 -15.3213,-8.83465 -19.9536,-26.6398 -16.2213,-45.867 1.98189,-10.2 9.89292,-18.6118 21.6532,-28.3536"/>
  <path class="fil3 str0" d="M582.413 1233.63c6.4878,-9.33544 19.8709,-9.33544 40.552,-1.62402 -28.7918,-5.68229 -49.8804,-16.6417 -54.7465,-41.4 15.8162,-2.43543 30.8209,2.84173 44.6,15.4252 -11.3551,-10.9595 -13.7882,-19.8898 -6,-25.1658"/>
  <path class="fil3 str0" d="M588 1219.82c-17.4378,0 -32.4425,-6 -42.58,-29.6303 10.1374,-2 19.4646,-2 28.3866,0 -6,-7.3 -8.92205,-14.6126 -7.7,-21.9189l27.9815 2"/>
  <path class="fil3 str0" d="M440.311 980.977c13.7882,10.5543 22.598,33.124 20.4425,62.6859 -1.92166,26.3599 -15.8445,42.4158 -28.8213,52.1575"/>
  <path class="fil3 str0" d="M444.442 1022.66c2,17.4543 -2.57599,35 -12.3,53.3245"/>
  <path class="fil3 str0" d="M475 1079.69c5.8193,-15.5232 3.8,-24 3.47717,-40.4457 -0.279921,-13.8697 -0.538583,-23.152 -2,-33.567"/>
  <line class="fil3 str0" x1="502.715" y1="1024.98" x2="491.286" y2= "1083.28" />
  <line class="fil3 str0" x1="512.66" y1="1059.9" x2="520.647" y2= "1036.44" />
  <path class="fil3 str0" d="M563.946 980.127c-13.7882,10.5543 -20.1862,33.9744 -18,63.5363 1.92166,26.3587 10.8201,43.8839 23.7969,53.6256"/>
  <path class="fil3 str0" d="M555.558 1022.66c-2,17.4543 2.3,34.6 12,52.8662"/>
  <path class="fil3 str0" d="M525.143 1079.18c-6,-23.9481 -5.27245,-48.7 -2,-71.439"/>
  <line class="fil3 str0" x1="318.411" y1="831.376" x2="370.725" y2= "733.149" />
  <line class="fil3 str0" x1="359.775" y1="830.565" x2="314.355" y2= "733.149" />
  <line class="fil3 str0" x1="479.813" y1="306.951" x2="490.356" y2= "348.353" />
  <line class="fil3 str0" x1="461.158" y1="312.228" x2="474.135" y2= "353.631" />
  <path class="fil3 str0" d="M159 541.563c4,21.1 -7.7,30.8481 -12.5717,46.2721"/>
  <path class="fil3 str0" d="M37.3772 634.515c-60.3591,125.864 111.447,207.3 76.2402,335.68 -10.9536,39.939 -41.3646,48.3 -69.3461,47"/>
  <path class="fil3 str0" d="M52.8119 993.331c0.961418,26.9717 31.5,-4.42914 39.2233,-20.5252"/>
  <path class="fil3 str0" d="M67.2981 981.737c6,0.4 8.19331,1.4126 12.6602,8.12363"/>
  <path class="fil3 str0" d="M112.8 1115.51c26.3599,-7.3 41.7697,-20.7 50.6918,-39.3733 9.32717,4.46575 15,20.2961 17.4378,45.867 -8.11064,2.43543 -16.2213,2 -24.3319,-0.811418l-10.5437 8.11772"/>
  <path class="fil3 str0" d="M156.199 1120.78c9.32717,-12.9886 8.51575,-22.324 -4,-27.6"/>
  <path class="fil3 str0" d="M143.222 1208.46c27.5752,33.2835 59.2,60.4784 92.8666,85.239"/>
  <line class="fil3 str0" x1="251.498" y1="1086.69" x2="316.699" y2= "1131.15" />
  <polyline class="fil3 str0" points="299.764,1159.86 250,1085 265,1065 "/>
  <line class="fil3 str0" x1="141.194" y1="836.247" x2="154.982" y2= "843.553" />
  <path class="fil3 str0" d="M144 912.963c-4.45985,-9.74174 -4,-20.7 -0.4,-32.4721"/>
  <path class="fil3 str0" d="M132.272 829.753c-4.86615,2.84055 -6,7.71142 -5.27126,16.2354"/>
  <line class="fil3 str0" x1="98.6127" y1="815.141" x2="104.695" y2= "799.717" />
  <path class="fil3 str0" d="M106.318 854.1c-2,-10.5532 -1.62284,-17.4532 1.62165,-20.7"/>
  <path class="fil3 str0" d="M117.267 876.838c-2,-8.52402 -0.810237,-15.4252 2.43307,-19"/>
  <line class="fil3 str0" x1="127" y1="895.5" x2="129.434" y2= "882.114" />
  <path class="fil3 str0" d="M169.58 854.1c-7.29922,0 -12.1654,2.43543 -16.2213,8.93032"/>
  <path class="fil3 str0" d="M153.765 843.553c-7.7,-0.811418 -12.1665,0.4 -15,4.46575"/>
  <path class="fil3 str0" d="M115.645 781.451c4,-8.1189 2.43307,-14.2 -6.8941,-5.68347"/>
  <path class="fil3 str0" d="M103 753.85c8.11064,-2.43543 17,-1.21772 25.1433,4"/>
  <line class="fil3 str0" x1="143.627" y1="656" x2="123.756" y2= "666.987" />
  <line class="fil3 str0" x1="143.627" y1="641.415" x2="123.756" y2= "652.374" />
  <line class="fil3 str0" x1="143.222" y1="623.96" x2="124.973" y2= "637.355" />
  <line class="fil3 str0" x1="142.41" y1="605.696" x2="124.161" y2= "619" />
  <line class="fil3 str0" x1="142.815" y1="588.241" x2="124.567" y2= "601.636" />
  <line class="fil3 str0" x1="140.789" y1="570.382" x2="122.539" y2= "583.777" />
  <path class="fil3 str0" d="M144 674.698c-6,-2.43543 -12.9768,-3.24685 -20.276,-2"/>
  <path class="fil3 str0" d="M56.4378 657.245c17,2 26.5512,-3.64961 26.3599,-17.8595 -0.212599,-15.8492 -10.3453,-23.7106 -27.1713,-17.8606 -21.9402,7.62638 -28.4528,26.2347 -15,43.8378 13.2413,17.3303 34.591,18.1996 55.1528,4.87087 22.1256,-14.341 28.8414,-40.3772 8.51575,-62.915 -21.9508,-24.3402 -50.2855,-20.7484 -75.8339,-2.88898"/>
  <path class="fil3 str0" d="M173.231 1119.97c14.5984,20.2949 30,32.4721 44.6,32"/>
  <path class="fil3 str0" d="M145.655 1129.31c19,18.2658 37.7138,25.9784 53.53,17.8595"/>
  <path class="fil3 str0" d="M169.175 1172.74c11.7602,12.9886 23.1154,16.6417 34,14.6126l-2.83819 -18.2658"/>
  <path class="fil3 str0" d="M193.912 1215.36c1.62284,-12.5835 1.62284,-21.5126 -0.810237,-28m0 0c10.5437,18.6721 21.8988,30.8492 38.9303,28.4138 2.83937,-12.5835 -2.43307,-24.3543 -16.6264,-35.7201 16.2213,19.8898 34.4705,25.1658 53.1248,17.4543"/>
  <path class="fil3 str0" d="M238.116 1243.77c8.11064,4.46575 16.2213,3.24803 24.3319,-3.65315 -4.86733,-10.5532 -15,-19 -28.7929,-27.1949m0 0c14.1933,12.5823 29.1981,15.424 44.6,6.9 -8.51575,-6 -12.1654,-13.8 -12.1654,-21.9189"/>
  <path class="fil3 str0" d="M304.218 1204.81l8.11064 12.9886c-15,7.71142 -26.7662,8.11772 -34.4705,1.21772m0 0c10.9488,6 17.8429,13.8 20.276,23.9481 -12.9768,7.7126 -24.3319,6.49489 -36,-3.24685l15.4 24.7595"/>
  <path class="fil3 str0" d="M327.332 1243.77c19.8721,2.43543 32.8488,-3.24685 39.3366,-17.8595 -8.92087,-5.27599 -17.4378,-6.49371 -27.1701,-3.65315"/>
  <path class="fil3 str0" d="M367.39 1198.12c2.83937,9.74174 1.7126,18.4536 -6.8,25.3536m0 0c9.73347,-14.2 23.1154,-19 40.5532,-16.2354 -1.62165,19 -14.5984,27.1949 -38.9303,25.9772l21.8977 2.84173c1.62284,10.5532 -3.24331,17.8595 -14.1933,21.9189"/>
  <path class="fil3 str0" d="M421 1233.63c-6.4878,-9.33544 -19.8709,-9.33544 -40.5532,-1.62402 28.7929,-5.68229 49.8804,-16.6417 54.7477,-41.4 -15.8162,-2.43543 -30.8209,2.84173 -44.6,15.4252 11.3551,-10.9595 13.7882,-19.8898 6,-25.1658"/>
  <path class="fil3 str0" d="M415.333 1219.82c17.4378,0 32.4425,-6 42.5811,-29.6303 -10.1386,-2 -19.4658,-2 -28.3866,0 6,-7.3 8.92087,-14.6126 7.7,-21.9189l-27.9815 2"/>
  <line class="fil3 str0" x1="446.965" y1="1188.57" x2="456.697" y2= "1169" />
  <path class="fil3 str0" d="M190.263 1150.82c7.7,20.7 21,32 42.5811,31.6607l-5.27245 -19"/>
  <path class="fil3 str0" d="M163 1143.51c6.8941,13.3949 7.7,26.3847 4.86615,40.1847"/>
  <line class="fil3 str0" x1="220.272" y1="1234" x2="217.839" y2= "1214.14" />
  <path class="fil3 str0" d="M288.4 1247c12.1654,14.2 28.7929,16.6417 49.8804,6.9l-43.3819 -17.8736c0,0 36.4878,-2.82756 44.5985,-13.787l-3.64961 -15"/>
  <line class="fil3 str0" x1="360.992" y1="1256.36" x2="337.877" y2= "1253.11" />
  <path class="fil3 str0" d="M448.587 1232.81c18.2492,48.3 10.1386,70.6276 -39.3366,54.391"/>
  <path class="fil3 str0" d="M199.996 887.391c0,-7.7126 -3.65079,-14.6126 -13.7882,-19.8898 -12.1665,-4.87087 -21.4937,-2.43543 -27.9815,5.68347 -6.8941,18.6709 -2.83937,37.3429 6,56.8264"/>
  <path class="fil3 str0" d="M96.1796 761.968c10.5437,-1.62402 18.6543,-0.4 25.9536,3.65315 5.67756,7.3 12.1665,11.7709 17.8441,12.9886"/>
  <path class="fil3 str0" d="M195.129 754.661c-10.5437,0 -18.248,2.43543 -24.737,7.7126 -4.46103,8.11772 -10.1386,13.8 -15.8162,15.8291"/>
  <path class="fil3 str0" d="M633.51 1198.72c-2.83937,9.74174 0.810237,17.8595 9.32717,24.7595m0 0c-9.73347,-14.2 -23.1154,-19 -40.5532,-16.2354 1.62165,19 14.5984,27.1949 38.9303,25.9772l-21.8988 2.84173c-1.62165,10.5532 3.24449,17.8595 14.1945,21.9189"/>
  <path class="fil3 str0" d="M676 1243.77c-19.8709,2.43543 -32.8477,-3.24685 -39.3366,-17.8595 8.92205,-5.27599 17.4378,-6.49371 27.1713,-3.65315"/>
  <path class="fil3 str0" d="M715 1247c-12.1665,14.2 -28.7929,16.6417 -49.8804,6.9 10.1386,-11.7709 24.3319,-17.8595 42.5811,-18.6721m0 0c-21,2.84173 -35.687,-2 -43.7977,-12.9886l3.64961 -15"/>
  <path class="fil3 str0" d="M699.2 1204.81l-8.11064 12.9886c15,7.71142 26.765,8.11772 34.4705,1.21772m0 0c-10.9488,6 -17.8429,13.8 -20.276,23.9481 12.9768,7.7126 24.3307,6.49489 36,-3.24685l-15.411 24.7595"/>
  <path class="fil3 str0" d="M765.3 1243.77c-8.11064,4.46575 -16.2213,3.24803 -24.3319,-3.65315 4.86615,-10.5532 15,-19 28.7929,-27.1949m0 0c-14.1933,12.5823 -29.1981,15.424 -44.6,6.9 8.51575,-6 12.1654,-13.8 12.1654,-21.9189"/>
  <path class="fil3 str0" d="M809.5 1215.36c-1.62165,-12.5835 -1.62165,-21.5126 0.811418,-28m0 0c-10.5437,18.6721 -21.8988,30.8492 -38.9303,28.4138 -2.83937,-12.5835 2.43307,-24.3543 16.6264,-35.7201 -16.2213,19.8898 -34.4705,25.1658 -53.1248,17.4543"/>
  <path class="fil3 str0" d="M813.16 1150.82c-7.7,20.7 -21,32 -42.5811,31.6607l5.27126 -19"/>
  <path class="fil3 str0" d="M840.33 1143.51c-6.8941,13.3949 -7.7,26.3847 -4.86615,40.1847"/>
  <path class="fil3 str0" d="M857.768 1129.31c-19,18.2658 -37.715,25.9784 -53.53,17.8595"/>
  <path class="fil3 str0" d="M830.192 1119.97c-14.5984,20.2949 -30,32.4721 -44.6,32"/>
  <path class="fil3 str0" d="M847.224 1120.78c-9.32717,-12.9886 -8.51575,-22.324 4,-27.6"/>
  <path class="fil3 str0" d="M841.658 543.137c-4,21.1 10.4327,29.2736 15.2988,44.6977"/>
  <path class="fil3 str0" d="M966 634.515c58.5603,122.1 -112.834,227.643 -76.239,335.68 13.2862,39.2233 41.3634,48.3 69.3449,47"/>
  <path class="fil3 str0" d="M946.985 657.245c-17,2 -26.55,-3.64961 -26.3599,-17.8595 0.212599,-15.848 10.3441,-23.7106 27.1713,-17.8606 21.9402,7.62757 28.4528,26.2347 15,43.8378 -13.2413,17.3303 -34.591,18.1996 -55.1528,4.87087 -22.1256,-14.341 -28.8414,-40.3772 -8.51575,-62.915 21.9496,-24.3402 48.7985,-18.4 74.3469,-0.542126"/>
  <line class="fil3 str0" x1="542.265" y1="312.228" x2="529.288" y2= "353.631" />
  <line class="fil3 str0" x1="523.61" y1="306.951" x2="513" y2= "348.353" />
  <polyline class="fil3 str0" points="732.774,1067.83 750,1090 699.524,1160.26 "/>
  <line class="fil3 str0" x1="750" y1="1090" x2="685" y2= "1130" />
  <path class="fil3 str0" d="M256.771 386.1c30.4146,-30.4429 67.441,-46.9 109.898,-56 31.3559,-6.72402 55.8,-6.57875 66.913,13.8 10.9996,20.1874 2.77323,39.7 -18.2492,42.2138 -13.839,1.64764 -21.4925,-8.52402 -16.6264,-23.9492 5.67756,12.1772 13.3831,15.4252 23.5205,8.93032 10.5437,-13.8 3.3874,-33.2965 -17.4378,-31.2544 -20.8252,2 -33.2575,20.2843 -20.276,46.2733 10.5484,21.1181 32.1815,20.8961 54.3414,8.11772 15.3213,-8.83347 19.9547,-26.6386 16.2213,-45.867 -1.98307,-10.2106 -9.32717,-19 -21,-28.8189"/>
  <path class="fil5" d="M763.888 1080.39l4.3 -4.3c0.969686,-0.969686 1.7811,-1.63583 2.44134,-1.99725 0.885827,-0.484252 1.83071,-0.712205 2.83229,-0.682678 1,0 2,0.283465 3,0.772442 0.999213,0.494882 2,1.28504 3.13937,2.37992 0.957875,0.960237 1.66654,1.9 2.12244,2.8441 0.557481,1.13858 0.829135,2.24173 0.810237,3.31063 -0,0.8 -0.250394,1.66772 -0.722835,2.58662 -0.35315,0.68504 -0.966142,1.46221 -1.83898,2.33504l-4.42796 4.43268 -11.6634 -11.6728zm4.32874 -0.381496l7.72205 7.73032 1.75748 -1.75866c0.656693,-0.657875 1,-1.16811 1.31457,-1.5378 0.284646,-0.475985 0.441733,-0.954331 0.466536,-1.43504 0,-0.48189 -0.148819,-1 -0.510237,-1.74567 -0.36378,-0.679134 -0.996851,-1.4752 -1.89803,-2.37756 -0.9,-0.9 -1.67362,-1.51181 -2.31378,-1.8378 -0.643701,-0.323622 -1.2437,-0.478347 -1.79764,-0.461811 -0.559843,0 -1.1,0.198425 -1.64055,0.543308 -0.4,0.252756 -1,0.862205 -2,1.82362l-1 1zm19.1 0.269292l-11.6634 -11.6728 8.64568 -8.65394 1.9748 1.97599 -6.29174 6.29646 2.58425 2.5878 5.85473 -5.85945 1.96417 1.96536 -5.85473 5.85945 3.17362 3.17717 6.51497 -6.51969 1.96536 1.96772 -8.86772 8.87599zm20.6185 -20.6374l-2.23583 2.23701 -8.42599 -8.43308c-0,1.58386 -0.447638,3.11103 -1.19173,4.58504l-2 -2c0.390945,-0.772442 0.664961,-1.76929 0.817323,-2.98701 0.148819,-1.22126 -0,-2.31378 -0.461811,-3.27874l1.81417 -1.81536 11.7118 11.7225zm-1 -11.5618c-0.823229,0.334252 -1.58032,0.418111 -2.26772,0.252756 -0.689764,-0.162992 -1.28976,-0.5 -1.79764,-1 -0.869292,-0.869292 -1.2874,-1.89213 -1.24606,-3 0,-1.17638 0.618898,-2.32677 1.7374,-3.44646 1.1,-1.1 2.25473,-1.68543 3.43229,-1.72914 1.18228,-0 2.2,0.367323 3,1.23662 0.540945,0.540945 0.879922,1.16339 1,1.87087 0.140551,0.7 0,1.42087 -0.217323,2.15197 0.9,-0.388583 1.7752,-0.499607 2.6126,-0.336614 0.832678,0.16063 1.57677,0.568111 2.22874,1.22008 1,1 1.61102,2.29725 1.59685,3.65906 -0,1.36063 -0.589371,2.61142 -1.73032,3.75355 -1,1 -2.22047,1.66772 -3.48307,1.81772 -1.4941,0.173622 -2.81103,-0.312992 -3.9567,-1.45984 -0.629528,-0.630709 -1,-1.36654 -1.2685,-2.2 -0.21378,-0.839764 -0.127559,-1.74213 0.261024,-2.7zm-1.78937 -2.71536c0.445276,0.446457 0.917717,0.668504 1.41732,0.66378 0.5,-0 0.961418,-0.212599 1.38189,-0.634252 0.424016,-0.424016 0.637796,-0.88819 0.641339,-1.39606 0,-0.5 -0.219685,-0.981497 -0.664961,-1.42795 -0.421654,-0.420473 -0.879922,-0.629528 -1.38543,-0.630709 -0.5,0 -0.961418,0.2 -1.37717,0.623623 -0.42874,0.42874 -0.64252,0.89882 -0.646064,1.4 0,0.5 0.211417,0.972048 0.633071,1.3937zm4.78701 5.2c0.616536,0.616536 1.25433,0.940158 1.91457,0.969686 0.660237,0 1.2248,-0.19252 1.69725,-0.664961 0.461811,-0.462992 0.679134,-1 0.649607,-1.64528 -0,-0.633071 -0.356693,-1.26378 -0.983859,-1.89095 -0.54567,-0.546851 -1.14095,-0.831497 -1.77874,-0.8563 -0.637796,-0 -1.1941,0.2 -1.66654,0.67441 -0.54567,0.54567 -0.762993,1.14331 -0.654331,1.78583 0.1,0.646064 0.382677,1.18701 0.822048,1.62756zm6 -11.5595c-0.822048,0.334252 -1.58032,0.418111 -2.26772,0.252756 -0.689764,-0.162992 -1.28976,-0.5 -1.79764,-1 -0.869292,-0.870473 -1.28622,-1.89213 -1.24606,-3 0,-1.17756 0.618898,-2.32677 1.7374,-3.44646 1.1,-1.1 2.25473,-1.68543 3.43229,-1.72914 1.18228,-0 2.2,0.367323 3,1.23662 0.540945,0.540945 0.879922,1.16339 1,1.87087 0.140551,0.7 0,1.42087 -0.217323,2.15197 0.9,-0.388583 1.7752,-0.499607 2.6126,-0.336614 0.832678,0.16063 1.57677,0.568111 2.22874,1.22008 1,1 1.61102,2.29725 1.59685,3.65906 -0,1.36063 -0.589371,2.61142 -1.73032,3.75355 -1,1 -2.22047,1.66772 -3.48307,1.81772 -1.4941,0.173622 -2.81103,-0.312992 -3.9567,-1.45984 -0.629528,-0.630709 -1,-1.36654 -1.2685,-2.2 -0.21378,-0.839764 -0.127559,-1.74213 0.261024,-2.7zm-1.78937 -2.71536c0.445276,0.446457 0.917717,0.668504 1.41732,0.66378 0.5,-0 0.961418,-0.212599 1.38189,-0.634252 0.424016,-0.424016 0.637796,-0.88819 0.641339,-1.39606 0,-0.5 -0.219685,-0.981497 -0.664961,-1.42795 -0.421654,-0.420473 -0.879922,-0.629528 -1.38543,-0.630709 -0.5,0 -0.961418,0.2 -1.37717,0.622441 -0.42874,0.429922 -0.64252,0.9 -0.646064,1.4 0,0.5 0.211417,0.972048 0.633071,1.3937zm4.78701 5.2c0.616536,0.616536 1.25433,0.940158 1.91457,0.969686 0.660237,0 1.2248,-0.19252 1.69725,-0.666142 0.461811,-0.461811 0.679134,-1 0.649607,-1.6441 -0,-0.633071 -0.356693,-1.26378 -0.983859,-1.89095 -0.54567,-0.546851 -1.13976,-0.831497 -1.77874,-0.8563 -0.637796,-0 -1.1941,0.2 -1.66654,0.67441 -0.54567,0.54567 -0.762993,1.14331 -0.654331,1.78583 0.1,0.646064 0.382677,1.18701 0.822048,1.62756zm7.7882 -6l1.9252 -2.4c0.494882,0.38504 0.959056,0.572835 1.39252,0.562205 0.434646,-0 0.833859,-0.198425 1.2,-0.565748 0.46063,-0.461811 0.640158,-1 0.539764,-1.81181 -0,-0.751182 -0.77126,-1.8378 -2,-3.26811 0,1.21772 -0.285827,2.24764 -1.12677,3 -0.918898,0.918898 -2,1.35591 -3.43819,1.31575 -1.37362,-0 -2.62914,-0.630709 -3.76418,-1.76693 -1.18347,-1.18465 -1.78347,-2.49213 -1.8,-3.92244 -0,-1.42323 0.511418,-2.68465 1.59685,-3.77244 1.18465,-1.18465 2.6126,-1.69606 4.28859,-1.54134 1.67244,0.158268 3.5563,1.28386 5.6504,3.37914 2.13425,2.13662 3.2752,4 3.42992,5.8 0.151181,1.73504 -0.4,3.2374 -1.67244,4.5 -0.912993,0.912993 -1.89095,1.4 -2.93858,1.48347 -1,0 -2.13425,-0.288189 -3.25866,-1zm0.175984 -9.95552c-0.721654,-0.722835 -1.44685,-1.11732 -2.17441,-1.18228 -0.731103,-0 -1.31457,0.119291 -1.74921,0.553937 -0.412205,0.413386 -0.594095,0.921261 -0.539764,1.52008 0,0.6 0.45,1.27205 1.1941,2 0.752363,0.753544 1.4563,1.15748 2.1,1.21181 0.648426,0 1.19764,-0.138189 1.64291,-0.583465 0.42874,-0.429922 0.624804,-0.962599 0.57756,-1.59567 -0,-0.636615 -0.39567,-1.28268 -1,-1.94055z"/>
  <path class="fil5" d="M601.552 1148.16l0.438189 2.88662 -8.49804 2.11654c-0,-1.11378 0,-2.21575 0.360237,-3.3 0.31063,-1 1,-2.6126 2.13425,-4.56496 0.897639,-1.57559 1.4315,-2.62795 1.6,-3.15355 0.23504,-0.725197 0.3,-1.4 0.211417,-2 -0.1,-0.690945 -0.329528,-1.18701 -0.677953,-1.48701 -0.347244,-0.3 -0.775985,-0.386221 -1.28858,-0.258662 -0.5,0.125197 -0.87756,0.421654 -1.1185,0.885827 -0.237402,0.465355 -0.312992,1.15866 -0.223229,2l-2.46142 0.292914c-0.114567,-1.74567 0.15,-3 0.796064,-4 0.647245,-0.933072 1.53898,-1.54252 2.67874,-1.82599 1.24843,-0.311811 2.2937,-0.121654 3.13701,0.561024 0.843308,0.686221 1.36299,1.6689 1.55669,2.95276 0.111024,0.72756 0.113386,1.44803 0,2.15906 -0.1,0.711024 -0.322441,1.48228 -0.654331,2.3126 -0.222047,0.552756 -0.647245,1.3748 -1.27441,2.4626 -0.628347,1 -1,1.81063 -1.18228,2.15551 -0.158268,0.344882 -0.282284,0.673229 -0.367323,0.983859l4.81418 -1.19882zm3.6 1.99725l-2.42362 0.6 -1.77638 -11.7c-0.724016,1.28504 -1.64764,2.33032 -2.77205,3.13465l-0.427559 -2.81811c0.590552,-0.421654 1.2,-1 1.83307,-2 0.628347,-0.928347 1,-1.91929 1.1315,-2.97638l1.96654 -0.488977 2.46851 16.2744zm5.57835 -18.2894l4.56969 -1.67835c1,-0.379134 1.83662,-0.56693 2.42362,-0.563386 0.787796,0 1.52008,0.265748 2.19331,0.778347 0.67441,0.5 1.26142,1.2189 1.75866,2.13189 0.496063,0.917717 0.911812,2.11654 1.24488,3.6 0.291733,1.3 0.416929,2.47795 0.37441,3.51733 -0,1.26614 -0.282284,2.36339 -0.699213,3.28819 -0.31063,0.7 -0.8,1.33819 -1.47284,1.91221 -0.5,0.42874 -1.21299,0.810237 -2.13898,1.15039l-4.7 1.72795 -3.5504 -15.8705zm3.1 1.76811l2.35158 10.5 1.86614 -0.68504c0.696851,-0.256299 1.19055,-0.490158 1.47874,-0.7 0.375591,-0.277559 0.66378,-0.620079 0.862205,-1 0.199606,-0.4 0.3,-1 0.311811,-1.77402 0,-0.77126 -0.122835,-1.77402 -0.396851,-3 -0.275197,-1.22717 -0.571654,-2.13307 -0.885827,-2.72953 -0.316536,-0.595276 -0.668504,-1 -1,-1.27677 -0.388583,-0.257481 -0.830316,-0.362599 -1.32638,-0.320079 -0.372048,0 -1,0.227953 -2,0.6l-1.12205 0.412205zm12.7228 9.66142l-3.9815 -15.7 9 -3.78307 0.673229 2.65866 -6.6 2.75197 0.882284 3.48071 6.15119 -2.56181 0.669686 2.64331 -6.15 2.56181 1 4.27323 6.84331 -2.85 0.670867 2.64685 -9.31654 3.87992zm16.4634 -6.78308l-4.61693 -15.4134 2.36457 -1.16221 8 7.87087 -3 -10.2921 2.25709 -1.11024 4.61693 15.4122 -2.44016 1.2 -7.85788 -7.66772 3 10 -2.25709 1.11024zm9 -13.5484c-0.49252,-1.56142 -0.724016,-2.96339 -0.693308,-4.21063 0,-0.917717 0.175984,-1.81181 0.45,-2.6752 0.276378,-0.859843 0.646064,-1.58622 1.11024,-2.17441 0.617717,-0.79252 1.41142,-1.43504 2.38465,-1.93937 1.75984,-0.911812 3.3874,-0.941339 4.88622,-0 1.49764,0.850394 2.63977,2.52284 3.4252,5 0.779528,2.47323 0.862205,4.67717 0.255118,6.61772 -0.6,1.93583 -1.79173,3.36024 -3.54331,4.26733 -1.77756,0.920079 -3.4,0.956694 -4.89449,0.113386 -1.48701,-0.846851 -2.6126,-2.48977 -3.38032,-4.92402zm2.45079 -1.39016c0.54567,1.73268 1.27441,2.88544 2.18032,3.45709 0.9,0.570473 1.84016,0.6 2.8,0.1 0.959056,-0.497244 1.6,-1.34764 1.94646,-2.55827 0.335433,-1.2 0.22441,-2.69528 -0.335433,-4.47048 -0.552756,-1.75276 -1.26496,-2.9 -2.13662,-3.46181 -0.872835,-0.551575 -1.8,-0.569292 -2.79921,-0 -0.99567,0.514961 -1.65827,1.3689 -1.99252,2.55709 -0.330709,1.18701 -0.222047,2.66103 0.334252,4.42441zm16.4362 0.285827l-9.78662 -12.2528 2.53701 -1.58622 7.1 9.15355 -1.3441 -12.7559 2.48032 -1.55079 1.5 17.4307 -2.49567 1.56142zm7.8 -4.81772l-5.44371 -14.9622 8.65512 -5.17323 0.921261 2.53347 -6.29882 3.76418 1.2 3.31654 5.86182 -3.5 0.916536 2.51929 -5.86182 3.5 1.48228 4 6.52087 -3.89646 0.918898 2.52166 -8.87953 5.3zm10.8721 -6.48898l-5.84882 -14.7106 3.47008 -2.26536 6 8.6752 -1.9311 -11.3787 3.47717 -2.27008 5.84764 14.7106 -2.15079 1.4 -4.6 -11.5795 2.32441 13 -2.23229 1.4563 -6.8752 -10 4.6 11.5795 -2.15197 1.4zm7.17166 -23.8536l4.54725 -3c0.9,-0.612993 1.59213,-1 2,-1.22717 0.48189,-0.2 0.960237,-0.275197 1.43622,-0.2 0.475985,0 0.933072,0.275197 1.37717,0.624804 0.442914,0.347244 0.796064,0.838583 1,1.46575 0.283465,0.682678 0.4,1.4 0.351969,2.17205 -0,0.767717 -0.264567,1.46102 -0.636615,2 0.798426,-0.21378 1.51654,-0.137008 2.14488,0.231496 0.633071,0.370866 1.12205,0.976772 1.47165,1.8189 0.274016,0.661418 0.422835,1.3878 0.441733,2.18032 0,0.787796 -0.1,1.51417 -0.362599,2.17087 -0.259843,0.656693 -0.677953,1.2378 -1.25433,1.74213 -0.359055,0.311811 -1.26969,0.975591 -2.72835,1.98662l-3.87284 2.63858 -6 -14.5772zm3.3 0.859843l1.39725 3.37087 1.5 -1c0.895276,-0.61063 1.44449,-1 1.64764,-1.18819 0.367323,-0.324803 0.6,-0.7 0.711024,-1.15039 0.1,-0.441733 0,-0.89882 -0.137008,-1.37008 -0.186614,-0.451181 -0.434646,-0.752363 -0.744095,-0.9 -0.312992,-0.148819 -0.672048,-0.121654 -1,0 -0.240945,0.121654 -0.9,0.550394 -1.98307,1.28622l-1.31811 0.89882zm2.4 5.79685l1.61575 3.89646 2.1248 -1.44685c0.829135,-0.564567 1.34173,-0.949607 1.53898,-1.16221 0.3,-0.31063 0.5,-0.696851 0.594095,-1.14921 0,-0.454725 0,-0.94252 -0.191339,-1.45866 -0.18189,-0.437008 -0.420473,-0.750001 -0.711024,-0.943702 -0.292914,-0.191339 -0.624804,-0.252756 -0.99567,-0.179528 -0.369685,0 -1,0.470079 -2.12244,1.1811l-1.85315 1.2626zm11.3433 0l-6.24567 -14.4402 4.79055 -3.4c1.2,-0.8563 2.13425,-1.34528 2.79213,-1.47402 0.656693,-0.12874 1.29449,0 1.9,0.45 0.616536,0.432284 1.1,1 1.4752,1.92756 0.468898,1 0.6,2.15788 0.416929,3.21614 -0.191339,1 -0.742914,2 -1.65354,2.91496 0.65315,0 1.23425,0.133465 1.74449,0.347244 0.510237,0.212599 1.27795,0.687402 2.3,1.42441l2.59607 1.83898 -2.72008 1.93228 -3 -1.9748c-1,-0.7 -1.7752,-1.13032 -2.11654,-1.26969 -0.341339,-0.13937 -0.655512,-0.175984 -0.944883,-0.115748 -0.288189,0 -0.692127,0.281103 -1.21654,0.65315l-0.459449 0.325985 2.6 6 -2.27717 1.61811zm-1.32756 -9.95198l1.68189 -1.19528c1,-0.774804 1.74803,-1.31693 1.97008,-1.62874 0.219685,-0.3 0.34252,-0.664961 0.373229,-1 0,-0.398032 -0,-0.812599 -0.237402,-1.24725 -0.211417,-0.486615 -0.48189,-0.8 -0.81378,-0.960237 -0.33189,-0.154725 -0.699213,-0.140551 -1.1,0 -0.197244,0.1 -0.758268,0.477166 -1.68189,1.13268l-1.77284 1.26024 1.58386 3.66142zm7.43032 -3.71103c-0.656693,-1.45866 -1,-2.8 -1.14331,-4 -0,-0.912993 -0,-1.8248 0.154725,-2.72953 0.179528,-0.9 0.467717,-1.68543 0.863387,-2.3504 0.52441,-0.895276 1.24134,-1.67362 2.15079,-2.34685 1.6441,-1.21654 3.25276,-1.53662 4.82835,-0.957875 1.57559,0.574016 2.8878,2 3.93662,4.35355 1,2.31024 1.36299,4.47756 0.970867,6.5 -0.393307,2 -1.4,3.64725 -3,4.85788 -1.65945,1.22835 -3.27166,1.55551 -4.83426,0.98504 -1.56378,-0.574016 -2.85827,-2 -3.88229,-4.27323zm2.27599 -1.81299c0.728741,1.61693 1.57559,2.62914 2.53465,3 0.960237,0.4 1.88858,0.271654 2.7874,-0.393307 0.895276,-0.662599 1.44803,-1.62165 1.65,-2.88071 0.199606,-1.25315 -0,-2.7 -0.818505,-4.36654 -0.737008,-1.63701 -1.56851,-2.65158 -2.49095,-3 -0.924804,-0.390945 -1.85079,-0.242126 -2.77914,0.444095 -0.929528,0.688583 -1.49291,1.65118 -1.69488,2.8878 -0.198425,1.23425 0,2.67402 0.811418,4.32284z"/>
  <path class="fil5" d="M281.27 1064l2.4 1.77756 -4.9 8.6c-0.641339,1.12441 -1.2248,1.9252 -1.74095,2.4 -0.68504,0.618898 -1.47047,0.94252 -2.35748,0.966142 -0.88819,0 -1.83189,-0.333071 -2.83583,-1 -1.17756,-0.870473 -1.87087,-1.91457 -2,-3.13937 -0.2,-1.2189 0,-2.55827 0.924804,-4l2.44016 1.38189c-0.415748,0.799607 -0.629528,1.42441 -0.641339,1.87441 -0,0.680315 0.242126,1.21772 0.772442,1.61102 0.536221,0.396851 1,0.5 1.43976,0.317717 0.420473,-0.184252 0.944883,-0.826772 1.57323,-1.92874l5 -8.78032zm4.7504 3.87402l2.43662 1.73386 -4 7.44568c-0.648426,1.1811 -1,1.97126 -1.17047,2.36221 -0.2,0.636615 -0.2,1.26614 0,1.88386 0.2,0.622441 0.649607,1.17402 1.32992,1.65827 0.690945,0.491339 1.3,0.7 1.82953,0.630709 0.527953,-0 0.955513,-0.317717 1.28268,-0.734646 0.330709,-0.418111 0.791339,-1.17284 1.38898,-2.26063l4.17166 -7.6 2.43662 1.73386 -3.96142 7.22127c-0.9,1.65118 -1.6,2.77087 -2.11536,3.35788 -0.5,0.588189 -1,0.989765 -1.6748,1.2 -0.61063,0.216142 -1.29095,0.252756 -2,0.111024 -0.746457,-0.144095 -1.59685,-0.558662 -2.55236,-1.2378 -1.15276,-0.820867 -1.9441,-1.59213 -2.37284,-2.32087 -0.42874,-0.72756 -0.681497,-1.4563 -0.762993,-2.18504 -0,-0.729922 -0,-1.4 0.153543,-2 0.271654,-0.9 0.830316,-2.1189 1.6748,-3.65906l4 -7.33229zm5 22.8579l7.75158 -13.5945 2.34567 1.73386 -0.290551 12.6933 5.17559 -9 2.24055 1.65709 -7.75158 13.5957 -2.42126 -1.79055 0.245669 -12.424 -5 8.86536 -2.23937 -1.65709zm12.5658 7.88977l7.54253 -13.7469 2.43898 1.73622 -2.96811 5.4 4.7752 3.39922 2.96693 -5.4 2.43662 1.73386 -7.54134 13.7469 -2.43662 -1.73386 3.29764 -6 -4.77402 -3.39922 -3.29764 6 -2.44016 -1.73622zm14.9 1.2c0.7,-1.44567 1.4811,-2.53819 2.33858,-3.27874 0.634252,-0.540945 1.33583,-0.947245 2.1,-1.21299 0.767717,-0.262205 1.51181,-0.348425 2.22874,-0.258662 0.960237,0.114567 1.94291,0.49252 2.95748,1.13386 1.83425,1.15748 2.98583,2.73071 3.45591,4.72323 0.47126,1.98898 0.145276,4.13977 -0.977954,6.44764 -1.11496,2.29016 -2.53347,3.73347 -4.25552,4.33819 -1.72087,0.6 -3.49725,0.325985 -5.32323,-0.827953 -1.85079,-1.16811 -3,-2.74252 -3.47835,-4.71615 -0.465355,-1.97717 -0.147638,-4 0.949607,-6.34843zm2.63386 1.5378c-0.780709,1.6 -1,3 -0.799607,4.26851 0.249213,1.24016 0.874016,2.17441 1.87677,2.8 1,0.630709 2,0.741733 3,0.322441 1,-0.418111 1.96181,-1.44567 2.76142,-3 0.790158,-1.62402 1,-3 0.833859,-4.22835 -0.237402,-1.19528 -0.874016,-2.1189 -1.9,-2.77205 -1,-0.655512 -2,-0.775985 -3,-0.368504 -1,0.4 -1.93701,1.42677 -2.73307,3zm18.9236 1.85669l4.75985 2.52874c1,0.569292 1.85197,1 2.33977,1.58268 0.65315,0.655512 1.11614,1.45158 1.3878,2.38701 0.276378,0.933072 0.362599,1.94528 0.261024,3 -0.1,1 -0.438189,2.32087 -1,3.69922 -0.494882,1.2 -1,2.18032 -1.67717,2.91496 -0.758268,0.896457 -1.57205,1.5189 -2.44252,1.85906 -0.656693,0.264567 -1.42559,0.330709 -2.3,0.2 -0.659056,-0 -1.47047,-0.4 -2.43425,-0.914174l-4.89804 -2.6 6 -14.6917zm1.58622 3.86929l-3.98268 9.72875 1.94291 1c0.726379,0.386221 1.27087,0.620079 1.63347,0.696851 0.470079,0.1 0.9,0 1.3,-0 0.398032,-0.138189 0.817323,-0.494882 1.26378,-1 0.442914,-0.564567 0.9,-1.41614 1.36654,-2.55236 0.464174,-1.13504 0.729922,-2 0.8,-2.75315 0,-0.7 0,-1.3 -0.157087,-1.81536 -0.178347,-0.511418 -0.486615,-0.954331 -0.923623,-1.33228 -0.324803,-0.28937 -1,-0.711024 -2,-1.27559l-1.16811 -0.62126zm5.41418 17.9681l5.1 -15.1335 9.8504 4.3 -0.863387 2.56181 -7.16812 -3.13465 -1.13032 3.35551 6.66969 2.91614 -0.858662 2.54764 -6.66969 -2.91614 -1.3878 4.11851 7.42087 3.24449 -0.859843 2.55118 -10.1 -4.41733zm23.439 10l-2.57835 -1 3.34725 -11c-1.24725,0.636615 -2.58071,0.943702 -4,0.920079l0.8 -2.66575c0.745276,0 1.62165,-0.173622 2.62323,-0.563386 1,-0.393307 1.79055,-0.998032 2.36575,-1.8189l2 0.820867 -4.65355 15.3921zm8.44016 -6.2315c-0.596457,-0.548032 -0.976772,-1.15984 -1.13976,-1.82835 -0.165354,-0.670867 -0.16063,-1.34882 0,-2 0.291733,-1.16102 0.88819,-2 1.79173,-2.53229 0.9,-0.525591 2,-0.575197 3.32599,-0.147638 1.29921,0.425197 2.21339,1.13622 2.73898,2.12835 0.529134,0.993308 0.647245,2 0.354331,3.23268 -0.180709,0.722835 -0.5,1.31102 -0.982678,1.76811 -0.468898,0.455906 -1,0.735827 -1.71378,0.838583 0.672048,0.591733 1.12087,1.28858 1.34764,2 0.227953,0.79252 0.231496,1.62638 0,2.49803 -0.362599,1.43976 -1,2.47677 -2,3.11339 -1,0.636615 -2.21575,0.737008 -3.55276,0.3 -1.24606,-0.4 -2.1874,-1.11496 -2.82874,-2.12953 -0.755906,-1.2 -0.940158,-2.56418 -0.555119,-4 0.212599,-0.842127 0.591733,-1.55433 1.13622,-2.14252 0.543308,-0.583465 1.26024,-0.938977 2.14606,-1zm1.29803 -2.8311c-0.15,0.595276 -0.120473,1.1 0,1.53425 0.212599,0.431103 0.562205,0.725197 1,0.887009 0.496063,0.161811 0.936615,0.125197 1.32165,-0.114567 0.380315,-0.240945 0.647245,-0.656693 0.797245,-1.25079 0.141732,-0.562205 0.1,-1 -0.1,-1.49055 -0.211417,-0.434646 -0.557481,-0.728741 -1,-0.887009 -0.5,-0.165354 -0.947245,-0.125197 -1.33228,0.114567 -0.381496,0.244488 -0.644882,0.644882 -0.786615,1.2zm-1.92166 6.59292c-0.2,0.82441 -0.184252,1.52599 0,2.1 0.253937,0.581103 0.657875,0.960237 1.21181,1.14213 0.542126,0.175984 1,0.1 1.51063,-0.225591 0.465355,-0.327166 0.8,-0.9 1,-1.74567 0.184252,-0.728741 0.15,-1.37599 -0,-1.93701 -0.249213,-0.559843 -0.651969,-0.930709 -1.2,-1.11142 -0.640158,-0.2 -1.18228,-0.112205 -1.62047,0.287008 -0.442914,0.4 -0.734646,0.895276 -0.883465,1.48228zm8.12481 3.4l2.61614 0.531496c-0.114567,0.761812 -0,1.39606 0.2,1.9 0.246851,0.511418 0.622441,0.855119 1.12323,1 0.538583,0.187795 1,0.111024 1.54725,-0.226772 0.493701,-0.336614 0.844489,-0.897639 1,-1.6878 0.199606,-0.747638 0.184252,-1.4 -0,-1.96063 -0.233858,-0.562205 -0.6,-0.929528 -1.11378,-1.1 -0.33189,-0.116929 -0.751182,-0.183071 -1.25669,-0.197244l0.937796 -2.31851c0.7,0.264567 1.2874,0.27874 1.7563,0 0.470079,-0.243307 0.788977,-0.668504 0.954331,-1.28268 0.140551,-0.523229 0.115748,-0.98504 -0,-1.39134 -0.190158,-0.4 -0.512599,-0.687402 -0.962599,-0.843308 -0.446457,-0.155906 -0.874016,-0.111024 -1.28268,0.133465 -0.411024,0.238583 -0.742914,0.688583 -0.990946,1.33937l-2.28071 -1.29921c0.419292,-0.879922 0.871654,-1.5437 1.36063,-1.98543 0.486615,-0.441733 1,-0.718111 1.76457,-0.829135 0.690945,-0.111024 1.41024,-0 2.15788,0.222047 1.28386,0.447638 2.18504,1.27087 2.7,2.47087 0.432284,0.983859 0.522048,1.95473 0.264567,2.91378 -0.364961,1.36063 -1.3,2.22047 -2.83229,2.57362 0.728741,0.462992 1.23543,1.1 1.52599,1.93347 0.288189,0.822048 0.3,1.7 0,2.64331 -0.364961,1.36063 -1.1126,2.36693 -2.24292,3 -1.12795,0.65315 -2.34331,0.754725 -3.64252,0.3 -1.23307,-0.42874 -2.14488,-1.18819 -2.74016,-2.27599 -0.594095,-1 -0.779528,-2.3 -0.559843,-3.66024zm19.2106 7.21182l-0.656693 2.78858 -9.23741 -2.81929c0.350788,-1 0.883465,-1.92992 1.6,-2.72126 0.720473,-0.791339 2,-1.74095 3.84331,-2.85118 1.48701,-0.895276 2.41536,-1.52953 2.78858,-1.89685 0.5,-0.5 0.83504,-1 0.976772,-1.67008 0.157087,-0.667323 0.121654,-1.22953 -0.111024,-1.68662 -0.231496,-0.458268 -0.624804,-0.768898 -1.18228,-0.940158 -0.550394,-0.167717 -1,-0.111024 -1.44449,0.165354 -0.413386,0.279921 -0.748819,0.849213 -1,1.7l-2.55473 -1.1c0.54567,-1.6 1.31457,-2.63858 2.3,-3.1 0.99567,-0.465355 2.11063,-0.512599 3.34961,-0.134646 1.35709,0.414567 2.32441,1.15984 2.9,2.22638 0.578741,1 0.721654,2.2252 0.429922,3.46536 -0.165354,0.7 -0.434646,1.33937 -0.8,1.91103 -0.370866,0.570473 -0.879922,1.13032 -1.52362,1.67953 -0.42874,0.364961 -1.16221,0.8563 -2.19567,1.47165 -1,0.612993 -1.7,1 -1.98898,1.24843 -0.287008,0.217323 -0.53504,0.43937 -0.735827,0.666142l5.23347 1.59803z"/>
  <path class="fil5" d="M178.99 1037l-2 2 -7.64528 -7.65237c0.850394,-0.682678 1.82244,-1.16221 2.92441,-1.43268 1,-0.272835 2.82756,-0.36378 5.17914,-0.27874 1.9,0 3.12402,0 3.67323,-0 0.748819,-0.151181 1.34528,-0.445276 1.78465,-0.885827 0.485433,-0.485433 0.728741,-0.988583 0.728741,-1.51417 0,-0.52441 -0.230315,-1 -0.690945,-1.47638 -0.455906,-0.455906 -0.954331,-0.679134 -1.49764,-0.676772 -0.542126,0 -1.15512,0.3 -1.83307,0.9l-1.95591 -2.39292c1.3311,-1 2.59725,-1.52717 3.8,-1.36772 1.2,0.161811 2.32087,0.752363 3.34607,1.77874 1.12323,1.12441 1.7,2.3126 1.73858,3.55985 0,1.24843 -0.398032,2.32205 -1.29921,3.22441 -0.511418,0.511418 -1,0.9 -1.7374,1.18819 -0.647245,0.281103 -1.42323,0.474804 -2.32677,0.583465 -0.6,0 -1.5626,0 -2.87953,0 -1.31929,-0 -2.17795,-0 -2.56772,-0 -0.388583,0 -0.741733,0 -1,0.157087l4.33111 4.33583zm8.84174 8.84883l-2 2 -7.64646 -7.65355c0.850394,-0.681497 1.82244,-1.16221 2.92441,-1.43268 1,-0.272835 2.82756,-0.362599 5.18032,-0.277559 1.89921,0 3.12402,0 3.67205,-0 0.750001,-0.151181 1.34528,-0.445276 1.78583,-0.885827 0.484252,-0.485433 0.728741,-0.989765 0.728741,-1.51417 0,-0.525591 -0.230315,-1 -0.692127,-1.47756 -0.455906,-0.455906 -0.95315,-0.679134 -1.49646,-0.675591 -0.543308,0 -1.15512,0.3 -1.83307,0.9l-1.95591 -2.39173c1.32992,-1 2.59607,-1.52717 3.8,-1.3689 1.2,0.161811 2.32087,0.753544 3.34725,1.77992 1.12323,1.12441 1.7,2.3126 1.7374,3.55866 0,1.24961 -0.398032,2.32323 -1.29803,3.22441 -0.511418,0.511418 -1,0.9 -1.73858,1.18819 -0.646064,0.281103 -1.42205,0.474804 -2.32559,0.583465 -0.6,0 -1.56378,0 -2.88071,0 -1.31929,-0 -2.17677,-0 -2.56654,-0 -0.389764,0 -0.741733,0 -1,0.155906l4.33229 4.33583zm24.5516 5.85237l4.2 4.2c0.946064,0.946064 1.59449,1.73977 1.94764,2.38347 0.47126,0.864568 0.693308,1.78819 0.664961,2.76614 -0,0.979135 -0.275197,1.95709 -0.752363,2.93268 -0.48189,0.976772 -1.25315,1.99725 -2.32087,3 -0.935434,0.935434 -1.86024,1.62756 -2.77205,2 -1.11024,0.543308 -2.18504,0.8 -3.22677,0.790158 -0.786615,-0 -1.62638,-0.244488 -2.52284,-0.7 -0.667323,-0.343701 -1.42441,-0.943702 -2.2748,-1.79528l-4.32166 -4.3252 11.3787 -11.3894zm0.372048 4.22717l-7.53544 7.54253 1.71378 1.71496c0.641339,0.64252 1.13976,1 1.5,1.28386 0.462992,0.27874 0.929528,0.432284 1.39843,0.455906 0.468898,0 1,-0.145276 1.7,-0.498426 0.662599,-0.355512 1.43858,-0.973229 2.31851,-1.85433 0.879922,-0.879922 1.47284,-1.63347 1.79055,-2.25827 0.316536,-0.629528 0.466536,-1.21536 0.451181,-1.7563 -0,-0.54567 -0.193701,-1 -0.530315,-1.6 -0.245669,-0.39567 -0.839764,-1 -1.77756,-1.99725l-1 -1zm-0.263386 18.6614l11.3799 -11.3894 8.43544 8.44253 -1.9252 1.92874 -6.13937 -6.14528 -2.52166 2.5252 5.71182 5.71772 -1.91575 1.91693 -5.71182 -5.71772 -3 3.1 6.3567 6.36142 -1.91811 1.92047 -8.65394 -8.66103z"/>
  <path class="fil7 str0" d="M884.885 652.87c25.1433,0.811418 45,23.5418 45,50.7378 0,28.8189 -21.8988,51.9556 -49,51.9556 -27.1713,0 -49,-23.1366 -49,-51.9556 0,-23.1366 15,-44.2441 35.687,-50.7378l2 -8.93032c-2.83819,-4 -2.43307,-11.3646 -0.4,-19.4835 -3.24449,-1.62284 -2.83937,-7.71142 -0.4,-17.4532 -3.64961,-6.49489 -3.64961,-12.5835 -0.4,-18.2658l-0.4 -8.93032c5.27126,-14.6114 10.9488,-15 17,-2 4.46103,5.27717 4,12.1772 0,21.5126 6,3.24803 5.67756,8.93032 0,18.2658 5.27245,4.87087 5.27245,11.7709 0,19l0 16.2366z"/>
  <path class="fil7 str0" fill-rule="evenodd" d="M864.859 766.829c11.3551,0 20.6823,19.8898 20.6823,44.2429 0,24.3543 -9.32717,43.8378 -20.6823,43.8378 -11.3539,0 -20.276,-19.4835 -20.276,-43.8378 0,-24.3532 8.92205,-44.2429 20.276,-44.2429zm0.760631 122.111l-35.2299 -32.4 2 -22.3252 -9.73229 -0.4 0 -11.7721 8.51575 -1.21772 1.62284 -15.424 -6 -0.4 2 -15 5.67756 0.4 2.83937 -10.148 -6.48898 -2.84173 5.27245 -12.5823 5.27126 1.21772 12.1665 -11.7709 52.7185 0c3.24449,8.92914 4.9,16 4,25.8201 12.1654,4.46457 10,11 0.279921,19.5484 11.6232,39.9237 -27.9449,71 -44.9788,89.3245z"/>
  <path class="fil3 str0" d="M867.447 645.1l15.8162 -8.11772m-15.4 -12.1772l15.4 -6m-15.8162 -10.9595l16.2213 -8.11772m-17.4378 -10.9595l17.8441 -9.74174m-19 74.6859l19 -0.4"/>
  <line class="fil3 str0" x1="888.825" y1="867.336" x2="883.148" y2= "853.129" />
  <line class="fil3 str0" x1="895.314" y1="860" x2="885.581" y2= "847.853" />
  <line class="fil3 str0" x1="900.18" y1="851.911" x2="887.2" y2= "841.764" />
  <line class="fil3 str0" x1="904.641" y1="842.982" x2="891.663" y2= "835.269" />
  <line class="fil3 str0" x1="907.885" y1="833.645" x2="893.286" y2= "827.963" />
  <line class="fil3 str0" x1="909.5" y1="824.716" x2="896.531" y2= "821.469" />
  <line class="fil3 str0" x1="910.319" y1="816.192" x2="896.936" y2= "814.974" />
  <line class="fil3 str0" x1="910.724" y1="807.262" x2="897.747" y2= "808.886" />
  <line class="fil3 str0" x1="909.5" y1="776.414" x2="897.747" y2= "783.72" />
  <line class="fil3 str0" x1="910.724" y1="768.7" x2="897.341" y2= "773.978" />
  <line class="fil3 str0" x1="909.1" y1="761.395" x2="896.531" y2= "767.483" />
  <polyline class="fil3 str0" points="888.83,814.36 881.931,814.568 881.12,851.911 881.12,870.583 887.49,873.83 "/>
  <path class="fil3 str0" d="M881.725 793.667c3.64961,-13.8 6.28819,-21.313 1.82717,-35.113l8.92205 -3.24803c11.7189,43.6831 7.4504,72.1701 -9.84331,94"/>
  <path class="fil7 str0" d="m 888.82976,814.35975 -6.89876,0.20825 -0.811,37.343 0,18.672 c 30.31108,15.27662 3.02576,44.93757 -11.3938,52.9242 9.73229,-20.7 -1.59331,-36.6756 -28.3583,-37.8933 5.75515,-8.58781 17.55767,-20.13042 27.5321,-17.8749 l -0.4,-43.8366 -27.1713,13.8 0,-15 43.154,-21.8492 c 7.97914,-7.14432 11.03703,12.97479 4.34706,13.50655 z"/>
  <path class="fil7 str0" d="M880.84 666.128c27.1701,0 49,21.9189 49,48.7 0,26.7898 -21.8988,48.7 -49,48.7 -27.1713,0 -49,-21.9189 -49,-48.7 0,-26.7886 21.8988,-48.7 49,-48.7z"/>
  <path class="fil0 str0" d="M901 686.54c5.27245,0 9.32717,4 9.32717,9.33544 0,5.27717 -4,9.33544 -9.32717,9.33544 -5.27126,0 -9.32717,-4 -9.32717,-9.33544 0,-5.27717 4,-9.33544 9.32717,-9.33544zm-1.21654 32.8784c5.27245,0 9.32717,4 9.32717,9.33544 0,5.27599 -4,9.33544 -9.32717,9.33544 -5.27126,0 -9.32717,-4 -9.32717,-9.33544 0,-5.27717 4,-9.33544 9.32717,-9.33544zm-26.3599 10.5532c5.27245,0 9.32835,4 9.32835,9.33544 0,5.27717 -4,9.33544 -9.32835,9.33544 -5.27126,0 -9.32717,-4 -9.32717,-9.33544 0,-5.27717 4,-9.33544 9.32717,-9.33544zm-25.5484 -19.4835c4.86733,0 8.51694,3.65315 8.51694,8.52402 0,4.87087 -3.64961,8.52402 -8.51694,8.52402 -4.86615,0 -8.51575,-3.65315 -8.51575,-8.52402 0,-4.87087 3.64961,-8.52402 8.51575,-8.52402zm12.5717 -29.2252c5.27245,0 9.32717,4 9.32717,9.33544 0,5.27717 -4,9.33662 -9.32717,9.33662 -5.27126,0 -9.32717,-4 -9.32717,-9.33662 0,-5.27599 4,-9.33544 9.32717,-9.33544zm17 23.9481c4.86615,0 9.32717,4.46575 9.32717,9.33662 0,4.87087 -4.46103,8.92914 -9.32717,8.92914 -4.86615,0 -8.92205,-4 -8.92205,-8.92914 0,-4.87087 4,-9.33662 8.92205,-9.33662z"/>
  <path class="fil8 str1" d="M205 932.587c2.83819,0 5.27126,3.65315 5.27126,8.1189 0,4.46457 -2.43307,7.71142 -5.27126,7.71142 -2.83937,0 -5.27245,-3.24685 -5.27245,-7.71142 0,-4.46575 2.43307,-8.1189 5.27245,-8.1189zm-12.1665 -1.62284c3.64961,0 6.8941,3.65315 6.8941,8.11772 0,4.46457 -3.24449,7.7126 -6.8941,7.7126 -3.64961,0 -6.4878,-3.24803 -6.4878,-7.7126 0,-4.46457 2.83819,-8.11772 6.4878,-8.11772zm-12.9768 -2.43543c3.24449,0 6,2.84055 6,6.49371 0,3.65315 -2.83819,6.49489 -6,6.49489 -3.24449,0 -5.67756,-2.84173 -5.67756,-6.49489 0,-3.65315 2.43307,-6.49371 5.67756,-6.49371zm-10.5437 -12.5835c4.46103,0 8.11064,3.65315 8.11064,7.7126 0,4 -3.64961,7.71142 -8.11064,7.71142 -4.46103,0 -7.7,-3.65315 -7.7,-7.71142 0,-4 3.24449,-7.7126 7.7,-7.7126zm16.6264 0c3.64961,0 6.8941,3.65315 6.8941,7.7126 0,4 -3.24449,7.71142 -6.8941,7.71142 -3.64961,0 -6.4878,-3.65315 -6.4878,-7.71142 0,-4 2.83819,-7.7126 6.4878,-7.7126zm14.1945 -4.46457c2.43307,0 4.86615,3.24685 4.86615,7.3 0,4 -2.43307,7.3 -4.86615,7.3 -2.43425,0 -4.46103,-3.24803 -4.46103,-7.3 0,-4 2,-7.3 4.46103,-7.3zm0.4 -17.8595c3.64961,0 6.4878,2.84055 6.4878,6.49371 0,3.65315 -2.83819,6 -6.4878,6 -3.64961,0 -6,-2.43543 -6,-6 0,-3.65315 2.43307,-6.49371 6,-6.49371zm-11.7602 6c4.46103,0 8.11064,3.65315 8.11064,8.52284 0,4.87087 -3.64961,8.52402 -8.11064,8.52402 -4.46103,0 -8.11064,-3.65315 -8.11064,-8.52402 0,-4.86969 3.64961,-8.52284 8.11064,-8.52284zm-14.5996 2c3.64961,0 6.8941,3.65315 6.8941,8.11772 0,4.46457 -3.24449,7.7126 -6.8941,7.7126 -3.64961,0 -6.8941,-3.24803 -6.8941,-7.7126 0,-4.46457 3.24449,-8.11772 6.8941,-8.11772zm-13.7882 -4.46457c4,0 7.7,3.65315 7.7,8.11772 0,4.46457 -3.64961,7.71142 -7.7,7.71142 -4,0 -7.29922,-3.24685 -7.29922,-7.71142 0,-4.46457 3.24449,-8.11772 7.29922,-8.11772zm1.62284 -14.2c2.83819,0 5.67756,3.24803 5.67756,7.3 0,4 -2.83937,7.3 -5.67756,7.3 -2.83937,0 -5.27245,-3.24685 -5.27245,-7.3 0,-4 2.43307,-7.3 5.27245,-7.3zm15.815 -1.62284c3.64961,0 6.48898,4.87087 6.48898,10.5532 0,5.68229 -2.83937,10.5532 -6.48898,10.5532 -3.64961,0 -6,-4.87087 -6,-10.5532 0,-5.68229 2.43307,-10.5532 6,-10.5532zm13.7882 -4c2.83937,0 5.27245,4 5.27245,8.52402 0,4.46457 -2.43307,8.11772 -5.27245,8.11772 -2.83819,0 -5.27126,-3.65315 -5.27126,-8.11772 0,-4.46457 2.43307,-8.52402 5.27126,-8.52402zm-4.86615 -10.9595c2.43307,0 4.46103,3.65315 4.46103,8.11772 0,4.46575 -2,7.7126 -4.46103,7.7126 -2.43307,0 -4.46103,-3.24685 -4.46103,-7.7126 0,-4.46457 2,-8.11772 4.46103,-8.11772zm-10.9488 -1.62284c3.24331,0 5.67638,3.24685 5.67638,7.3 0,4 -2.43307,6.9 -5.67638,6.9 -3.24449,0 -5.67756,-2.84173 -5.67756,-6.9 0,-4 2.43307,-7.3 5.67756,-7.3zm-10.5449 5.27599c2.83937,0 4.86733,2.84173 4.86733,6.49489 0,3.65315 -2,6.49371 -4.86733,6.49371 -2.83819,0 -4.86615,-2.84055 -4.86615,-6.49371 0,-3.65315 2,-6.49489 4.86615,-6.49489z"/>
  <ellipse class="fil2 str1" cx="500" cy="1140" rx="38" ry="38"/>
  <ellipse class="fil2 str1" cx="500" cy="1140" rx="14" ry="14"/>
  <line class="fil3 str1" x1="500" y1="1154" x2="500" y2= "1178" />
  <line class="fil3 str1" x1="500" y1="1102" x2="500" y2= "1126" />
  <line class="fil3 str1" x1="462" y1="1140" x2="486" y2= "1140" />
  <line class="fil3 str1" x1="514" y1="1140" x2="538" y2= "1140" />
  <line class="fil3 str1" x1="472.7" y1="1167.25" x2="490" y2= "1150.14" />
  <line class="fil3 str1" x1="527.154" y1="1112.81" x2="510" y2= "1130.2" />
  <line class="fil3 str1" x1="472.846" y1="1112.81" x2="489.958" y2= "1130.2" />
  <line class="fil3 str1" x1="527.293" y1="1167.25" x2="509.9" y2= "1150.14" />
  <path id="_112527384" class="fil2 str1" d="M460.322 637.856l90.978 3.51614c0,0 1.69843,-27.7264 -7.59449,-36.3284 0,0 -0.819686,-17 -10.9441,-23 0,0 -1.65591,-14.6256 -16.1539,-16.3406 0,0 -6,-6.9378 -16.2189,-7 0,0 -18,5 -21.4914,8.38583 0,0 -18.1536,15.2351 -21.587,21.2504 0,0 -12,2.49331 -7.81536,11.1791 4.14331,8.55119 18.7512,3.5 17.9138,-1.64055 0,0 13.7102,-1.67126 19.8508,-6.78071 0,0 0,-5.14016 -6,-5.99174 0,0 6,2.6126 6,5.99174 0,3.51614 0,0 0,0 0,0 13.6335,8.74489 23.9882,1.9 0,0 -10.7681,7.24725 -23.9882,-1.9 2.96929,2.18268 0,0 0,0 0,0 -9.6756,6.3 -16.1847,6.25867l-10.7528 40.5756z"/>
  <use xlink:href="#sol" x="500" y="440"/>
</svg>
