<?xml version="1.0" encoding="UTF-8" standalone="no"?>
<svg xmlns="http://www.w3.org/2000/svg" xmlns:xlink="http://www.w3.org/1999/xlink" viewBox="-222 -295 480 520" style="fill-rule:evenodd">
<defs>
	<style type="text/css">
	<![CDATA[
		.fil0 {fill:none}
		.fil1 {fill:white}
		.fil2 {fill:black}
		.fil3 {fill:#FEF6F9}
		.fil4 {fill:#28166F}
		.fil5 {fill:#FFF500}
		.fil6 {fill:#00923F}
		.fil7 {fill:#DA251D}
	]]>
	</style>
	<polygon id="triangle" points="0.1624598481164531,0 0,-0.5 -0.1624598481164531,0" transform="scale(50)" />
	<g id="star">
		<use xlink:href="#triangle"/>
		<use xlink:href="#triangle" transform="rotate(72)"/>
		<use xlink:href="#triangle" transform="rotate(-72)"/>
		<use xlink:href="#triangle" transform="rotate(144)"/>
		<use xlink:href="#triangle" transform="rotate(-144)"/>
	</g>
	<line id="raio1" stroke="#fff500" stroke-width="3" x1="-145" x2="145"/>
	<line id="raio2" stroke="#fff500" stroke-width="1.5" x1="-115" x2="115"/>
	<g id="sol">
		<use xlink:href="#raio1" />
		<use xlink:href="#raio1" transform="rotate(7.2)" /><use xlink:href="#raio1" transform="rotate(14.4)" /><use xlink:href="#raio1" transform="rotate(21.6)" /><use xlink:href="#raio1" transform="rotate(28.8)" /><use xlink:href="#raio1" transform="rotate(36)" /><use xlink:href="#raio1" transform="rotate(43.2)" /><use xlink:href="#raio1" transform="rotate(50.4)" /><use xlink:href="#raio1" transform="rotate(57.6)" /><use xlink:href="#raio1" transform="rotate(64.8)" /><use xlink:href="#raio1" transform="rotate(72)" /><use xlink:href="#raio1" transform="rotate(79.2)" /><use xlink:href="#raio1" transform="rotate(86.4)" /><use xlink:href="#raio1" transform="rotate(93.6)" /><use xlink:href="#raio1" transform="rotate(100.8)" /><use xlink:href="#raio1" transform="rotate(108)" /><use xlink:href="#raio1" transform="rotate(115.2)" /><use xlink:href="#raio1" transform="rotate(122.4)" /><use xlink:href="#raio1" transform="rotate(129.6)" /><use xlink:href="#raio1" transform="rotate(136.8)" /><use xlink:href="#raio1" transform="rotate(144)" /><use xlink:href="#raio1" transform="rotate(151.2)" /><use xlink:href="#raio1" transform="rotate(158.4)" /><use xlink:href="#raio1" transform="rotate(165.6)" /><use xlink:href="#raio1" transform="rotate(172.8)" /><use xlink:href="#raio1" transform="rotate(180)" />
		<use xlink:href="#raio2" transform="rotate(3.6)" /><use xlink:href="#raio2" transform="rotate(10.8)" /><use xlink:href="#raio2" transform="rotate(18)" /><use xlink:href="#raio2" transform="rotate(25.2)" /><use xlink:href="#raio2" transform="rotate(32.4)" /><use xlink:href="#raio2" transform="rotate(39.6)" /><use xlink:href="#raio2" transform="rotate(46.8)" /><use xlink:href="#raio2" transform="rotate(54)" /><use xlink:href="#raio2" transform="rotate(61.2)" /><use xlink:href="#raio2" transform="rotate(68.4)" /><use xlink:href="#raio2" transform="rotate(75.6)" /><use xlink:href="#raio2" transform="rotate(82.8)" /><use xlink:href="#raio2" transform="rotate(90)" /><use xlink:href="#raio2" transform="rotate(97.2)" /><use xlink:href="#raio2" transform="rotate(104.4)" /><use xlink:href="#raio2" transform="rotate(111.6)" /><use xlink:href="#raio2" transform="rotate(118.8)" /><use xlink:href="#raio2" transform="rotate(126)" /><use xlink:href="#raio2" transform="rotate(133.2)" /><use xlink:href="#raio2" transform="rotate(140.4)" /><use xlink:href="#raio2" transform="rotate(147.6)" /><use xlink:href="#raio2" transform="rotate(154.8)" /><use xlink:href="#raio2" transform="rotate(162)" /><use xlink:href="#raio2" transform="rotate(169.2)" /><use xlink:href="#raio2" transform="rotate(176.4)" />	<ellipse class="fil1" rx="45" ry="45" /> 
	</g>
	<path id="path3001" fill="#1f1a15" d="m -139.10907,-80.831393 -4.35181,-1.44046 -3.87228,-1.47207 c -6.6028,-3.948977 -10.79122,-8.469495 -13.56673,-15.00791 -2.04986,-5.108717 -1.40787,-9.561667 0.47998,-14.527447 5.61042,-6.81397 12.92456,-10.6606 20.35089,-12.60833 6.2101,-1.60171 12.02733,-5.27784 16.9268,-7.74418 3.47999,-1.11442 6.83332,-0.15276 10.17559,0.96 l 0.99155,-1.43955 c 4.13427,-4.16903 11.51144,-4.3521 16.447281,-4.3521 4.461117,0.88869 7.773412,3.35864 11.13463,6.30371 6.378424,7.22738 11.765573,15.13604 16.95931,23.23164 l 1.47197,-5.3112 c 2.031538,-4.71649 4.671553,-9.00379 7.74367,-13.08879 l 3.87138,-2.91163 c 3.109286,-2.07458 6.650142,-2.52453 10.17559,-3.39208 l 2.3994,0 79.93091,0.48045 c 3.910861,-0.64863 7.710765,-0.35314 11.61505,0 4.822231,0.81738 8.671683,4.32201 11.64756,7.26373 3.968663,4.87499 5.558716,11.03469 7.26324,16.95952 l 4.83133,0.48045 c 0.828611,-8.54089 5.920176,-15.5788 13.56745,-19.35999 0.471696,-7.10162 3.745837,-12.64667 8.22318,-17.92044 4.557423,-3.75235 9.738819,-5.67017 15.518949,-6.30372 9.78044,0.0279 17.00391,3.97774 24.22255,10.17626 11.84092,16.46778 20.65363,29.09501 30.49425,45.535777 l 0,3.87164 c 0.25969,9.66394 -0.40778,20.092119 -1.91989,28.57625 1.52874,-0.600193 2.56037,-0.499584 3.87138,0 1.18551,-10.362179 0.89343,-16.083846 10.17559,-19.87206 l 2.91234,-0.96002 5.79127,-0.47955 5.82378,0 5.79127,0 4.86383,-0.48045 c -3.98728,10.982228 -11.37162,20.112629 -21.31021,24.22415 5.6521,4.847312 12.37921,9.21631 16.44638,14.0479 l 2.43192,3.39209 2.43191,2.88003 -2.91143,0.99251 -2.91235,0.95 c -8.29984,4.032102 -14.88647,4.506486 -23.2301,2.43118 0.42525,3.476832 1.48935,7.308275 2.39941,10.17625 11.19253,-10.01105 21.53509,-3.038982 32.95777,-2.91162 l -2.43191,1.92001 c -6.45709,10.819842 -12.66489,17.198924 -23.74213,20.8320593 11.6267,6.42039051 17.33959,16.4991683 18.39877,27.1358007 l 0,6.30372 -1.43946,-0.99162 c -3.03578,-0.999598 -6.01272,-1.92002 -9.21565,-1.92002 -1.28923,-0.326202 -2.58082,-0.642795 -3.87228,-0.95 l -1,9.18375 c -3.43786,20.829281 -8.96601,49.35638 -29.05388,60.064121 -3.96729,1.666288 -8.04491,3.006265 -12.12708,4.3521 -6.41654,1.366572 -12.95595,1.499178 -19.35871,2.911631 -4.70144,0.892891 -6.3033,2.302531 -6.3033,6.784171 l 0,0.95 5.34335,-2.39957 c 6.54745,-2.91819 13.43846,-1.95253 20.31866,-1.95253 2.90933,-0.0681 5.52904,-1.02417 8.2557,-1.92001 l -1.47197,2.40047 -1.44037,3.39209 c -3.98054,9.3551 -11.03059,13.84221 -20.35027,16.47997 -2.78674,0.67487 -5.42679,0.30815 -8.22319,0 3.17361,4.08002 8.3178,7.36521 10.65511,11.13537 l 0.47952,2.43208 c -2.61918,8.4926 -7.99066,16.55526 -9.69516,25.18415 l -1,2.91164 c -3.04277,2.37335 -5.98537,3.91261 -9.69516,4.83255 -16.222113,3.22275 -33.459289,-2.2431 -48.445099,-8.22374 l -5.31175,-2.43208 c -0.605067,1.87203 -1.65946,3.78457 -2.43192,5.34372 2.840746,3.73045 3.1451,8.77541 3.87228,12.57582 l -0.48042,2.43208 c -3.997777,13.53591 -15.849293,16.91866 -23.74213,26.62372 -3.699094,4.5592 -5.97515,9.87348 -10.65511,13.56835 -4.261263,2.8572 -9.046571,2.49982 -14.04696,2.91163 -24.071192,-0.27254 -42.333328,-19.57855 -53.27644,-36.31952 l -3.87228,-7.7758 -3.87138,-8.70418 -3.87229,-9.21625 -3.39096,-9.6642 c -16.604125,4.82592 -26.793653,15.48836 -43.101751,15.48836 l -4.35181,0 -3.39186,-0.48046 -2.91144,-0.96 c -8.56987,-3.9658 -12.55565,-14.00798 -18.39877,-18.91115 -7.59689,-3.98201 -17.56509,-5.26324 -24.70207,-5.3121 l 0.47952,-2.43209 0.48042,-1.92001 c 2.37964,-2.8439 4.61598,-5.61003 7.26325,-8.25624 l 1.95149,-2.39957 1,-2.43208 c -4.10507,-3.0382 -8.59389,-6.07645 -12.12708,-8.7367 l -1.43946,-1.43955 -1.95213,-1.44047 2.91207,-0.99161 c 3.97506,-2.84005 8.24865,-5.06028 12.6066,-7.26373 2.5617,-0.56295 5.14094,-0.48046 7.74367,-0.48046 -4.55523,-2.47427 -9.27957,-4.715126 -14.04697,-6.784162 l -3.39186,-0.96002 c -9.29517,-2.605934 -17.76658,-5.671022 -24.70225,-12.607431 -5.81186,-4.431528 -8.70343,-10.710464 -8.70343,-17.92044 0.16497,-3.153462 1.48102,-5.363318 3.39177,-7.74418 -3.04909,-0.502104 -6.05865,-2.43117 -9.21546,-2.43117 0.50893,-2.068167 1.4795,-3.908056 2.43191,-5.79256 1.98838,-5.452358 6.62912,-9.150409 10.17532,-13.56744 -5.07466,1.232128 -10.37801,1.327824 -15.51903,0.47955 -4.71057,-1.183639 -7.34897,-4.437032 -10.65529,-7.74418 -1.35503,-2.191804 -3.24792,-3.455734 -5.31166,-4.83165 l -1.95186,-1 -2.43182,0 c 0.17441,-8.170287 10.33854,-13.0420912 17.43883,-14.0479007 9.16063,-2.8436179 18.7193,1.2189777 25.1824,7.7441907 1.06401,-9.7404671 7.05093,-14.7246596 15.51877,-18.3999907 l 4.3518,-1.43957 -1.91989,0 -1.47197,-0.48045 c -2.46962,-1.5189679 -5.13206,-2.331868 -6.78336,-4.86416 l -1,-1.4395503 c -5.21746,2.37641 -10.84686,2.8857003 -16.47897,3.3920803 -10.52934,-0.00744 -18.84117,-4.6338803 -27.10221,-10.6567193 l 2.87983,-1.47116 c 4.27095,-2.340317 7.72592,-5.79955 11.16732,-9.18464 1.53581,-1.563784 3.38231,-2.437688 5.31157,-3.39209 l -1.9198,-2.91163 -1.95194,-2.43208 -1.95186,-1.92002 -1.91989,-1.95161 -1.95185,-1.92002 -2.39986,-1.95253 -2.43183,-1.92002 -2.43183,-2.43208 c 8.42611,-0.171048 16.57569,-2.33083 24.70235,-4.35209 10.90768,-1.524114 18.62276,2.782457 27.13462,9.18464 l 1,-2.40047 c 1.5113,-3.266221 3.23198,-5.85621 4.35091,-9.21535 0.22324,-1.488285 -0.44821,-1.898813 -1.43947,-2.91253 l -5.31175,0 c -5.83643,-0.88913 -11.36334,-2.895899 -16.47879,-5.79165 -8.26721,-4.960136 -12.06828,-13.705025 -15.51903,-22.30414 l -2.39977,-3.87254 5.31156,0 c 5.55308,-0.04201 10.94375,-0.496755 16.47898,0 8.20137,1.849392 14.00449,6.300271 19.35827,12.60833 l 2.43192,3.87165 c 2.16951,-2.027043 4.58784,-4.106646 6.3042,-5.82327 z m 72.666761,-20.352517 c 0,0 -0.293465,0.1633 3.87228,-7.26373 -0.184531,-6.34044 4.167864,-11.64663 7.74277,-15.9679 4.022195,-4.16895 8.186688,-5.34372 13.56744,-5.34372 6.232323,2.40082 8.556812,7.81919 11.13553,13.56745 l -4.3518,0.48045 c -10.377261,2.22214 -12.347439,19.345472 -2.43192,24.223257 2.286451,1.289938 5.022364,0.96 7.26324,0.96 5.215538,-1.175519 10.795236,-0.147765 15.96686,-1.5 5.39725,2.584034 13.21675369,7.74419 13.21675369,7.74419 0,0 8.38067971,-5.384844 11.99825631,-7.74419 6.732609,1.34045 14.016273,0.966197 19.83823,1.95163 3.568756,0.983415 6.125339,-0.503651 8.73522,-2.43208 4.905633,-5.916615 4.485568,-18.161017 -3.39186,-21.311617 -2.081824,-1.01779 -4.054571,-0.95 -6.3033,-0.95 1.843899,-4.87255 3.957402,-7.66654 7.74367,-10.65581 4.738135,-3.03461 9.840386,-2.53876 14.52739,-1 6.616931,3.86406 9.964326,11.4218 11.64666,17.92043 l 1,4.38371 c 3.551703,0 7.103407,0 10.65511,0 2.527867,-7.37953 5.468609,-15.00884 12.09547,-18.4316 1.823034,3.47043 4.25421,6.28831 7.26324,8.7358 1.659394,1.33898 3.317228,1.58624 5.344259,1.92001 7.31051,-0.47642 14.67283,-6.10979 19.83824,-9.18374 2.34203,-1.50861 4.90049,-2.45379 7.29575,-3.87253 2.22955,2.31893 4.49586,4.01662 6.75122,6.2721 -17.2389,5.73168 -30.99302,22.71598 -34.36563,36.832497 -1.309689,4.733921 -1.514514,9.657837 -1.951499,14.52744 l -2.91234,1.44046 c -3.665451,2.21114 -4.811873,6.283816 -7.74276,9.21625 -1.493416,1.8347 -3.37256,3.058317 -5.31175,4.3512 l 2.39941,0.48045 c 7.302775,5.215614 14.1134,7.251733 22.783089,5.82417 3.78847,-0.827332 7.20913,-2.64346 10.6551,-4.3521 l 1.43947,0.47955 1.47197,0.96002 c 3.67349,3.341149 3.53589,9.021457 2.40031,13.56834 l -1,1.95162 c -1.81026,4.527555 -10.30076,9.595332 -8.22409,0.48045 0.53388,-6.65097 -3.6054,-9.286653 -9.21474,-11.13626 -4.89256,0.02325 -10.644248,0.584563 -13.087929,5.3121 l -1,2.91163 0.48042,2.91253 c 2.036055,6.420788 1.289431,13.344961 2.91144,19.83956 l -7.74276,6.7841693 8.22318,8.25624 c 0.104468,7.5644291 -1,13.4205387 -1,20.3200107 -1.029718,2.981465 0.59359,4.503362 2.43192,6.30371 2.973503,3.364329 7.510849,3.787247 11.615049,4.86416 5.6096,-0.841506 9.15776,-3.258129 11.61505,-8.25624 0.72457,-2.230509 0.22661,-3.673113 -0.47952,-5.79166 1.12781,0 2.37994,0 3.39186,0 3.41785,6.641492 1.61662,14.965936 1,21.31163 -2.02309,-1.118014 -4.15075,-2.002757 -6.27169,-2.91163 -9.28269,-3.278559 -18.45292,-0.253389 -27.134899,3.39209 1.100193,0.193289 1.667111,0.699077 2.43192,1.43955 1.971626,2.653755 2.819649,6.176557 4.35181,9.21625 3.224939,5.077983 8.940139,7.318681 14.527389,8.7042 l 4.3518,0.99161 5.82378,0 1,3.87254 c 3.15056,11.596047 7.29343,19.216012 17.91835,24.70371 l 1.9524,0.960011 1.91988,0.47955 -2.91234,0.96 c -5.73949,1.883542 -11.92991,2.169341 -17.91835,2.91254 -2.4899,0.334148 -4.584,1.319866 -6.78372,2.43208 -3.60501,-4.311152 -8.74044,-6.724691 -13.05542,-10.176261 l -2.91144,-2.91163 -0.48042,0.47955 -0.479519,0.48045 -0.51203,0.47955 -1,0.99253 c -0.86545,1.200812 -1.256981,2.544501 -1.91988,3.871641 l -0.99246,-0.960011 c -1.347193,-0.579672 -2.415666,-0.99161 -3.87138,-0.99161 -5.769391,2.760577 -8.907897,8.598921 -14.04697,12.127883 l -1.91988,1.43955 c -0.448145,0.76295 -0.703588,1.60159 -0.99246,2.43209 -0.126683,3.19563 0.245084,6.14223 1.9524,8.70418 -7.28433,-0.81523 -9.990913,-8.03336 -15.00691,-8.22373 -1.479067,0.63183 -2.841751,1.38996 -3.87229,2.43208 -2.736919,5.33304 2.881852,10.94818 1.91989,15.48745 -10.373672,-3.63862 -21.478522,-5.34371 -32.44574,-5.34371 -0.215124,-0.84941 -0.570925,-1.62311 -1,-2.40047 -1.849538,-3.62782 -2.261241,-7.74327 -7.490061,-7.74327 -5.766657,0.4026 -6.556899,7.04601 -6.556899,11.61582 -6.159521,5.07732 -14.2069044,8.70499 -19.3903302,13.56743 -4.8497518,-4.13899 -9.3941158,-7.47381 -13.5674398,-11.64742 1.197059,-3.38216 1.677334,-8.31441 0,-11.61581 -1.078212,-2.99766 -4.026215,-3.19396 -6.78373,-3.87255 -4.866479,0.82009 -4.448956,6.82847 -6.27169,9.21625 -4.857778,-0.26401 -9.63782,-1 -14.52649,-1 l -1.9524,-0.47955 0,-0.48045 0.48043,-0.95 c 0.281314,-5.16318 2.216092,-8.26075 -0.48043,-11.13536 -0.872962,-0.11133 -1.616519,0.2139 -2.43192,0.47955 -6.898819,3.55184 -19.169117,17.43183 -25.66201,9.18374 l -1,-2.39957 c 1.691198,1.10888 4.94192,1.70262 6.78373,0.96 l 1,-0.47955 c 1.419784,-2.13801 0.952228,-4.39113 0.47952,-6.78417 -0.438996,-1.72616 -1.376468,-2.975388 -2.43192,-4.352092 -7.899828,-1.572425 -13.129652,-9.216251 -20.31866,-9.216251 -2.795385,0.947165 -5.505459,3.096733 -7.263241,4.864161 l -2.91144,-1.47208 -1.9524,-0.48045 -1,0 -1,0 c -2.95713,9.794312 -13.7978,12.393552 -21.31021,8.704182 -6.15842,-3.842667 -10.78717,-7.263722 -17.91925,-7.263722 7.42681,-3.951888 15.30069,-7.045467 21.31111,-13.056281 l 2.87983,-3.39208 2.43192,-4.86326 c 6.61566,8.495485 13.70935,10.17536 23.742131,10.17536 l 2.91144,-0.47955 3.87229,0 0,-2.43209 0,-2.88002 -0.48043,-2.91253 -0.47952,-2.91163 -0.99245,-3.39209 -2.39941,-3.87164 -3.39186,-4.35209 -4.863841,-4.3837 c 7.221886,-6.665243 10.422615,-14.304885 13.567451,-22.27253 -2.486684,-0.139569 -4.721458,-0.47956 -7.26324,-0.47956 l -1.44037,-0.48046 -1.47198,0 1.9524,-0.96 1,-1.95163 c 3.769124,-8.851288 0.0039,-19.440465 1,-29.05580073 l 7.74276,-7.74416997 -7.74276,-6.3046293 c -0.317886,-7.381775 1.47107,-12.747541 1.47107,-19.87206 -2.580817,-15.848063 -21.854981,-9.146594 -22.301761,3.87254 0.13746,0.974861 -0.0621,1.596239 -0.48043,2.43208 -7.65371,-7.953746 -8.85562,-17.88785 -1,-24.22415 4.22293,-3.323435 14.52739,-5.3121 14.52739,-5.3121 l -1.44037,-15.99953 c 0,0 4.60572,-2.412557 6.783731,-3.87254 2.624645,-3.693076 4.552244,-7.758834 5.79127,-12.09627 1.134239,-2.157306 1.773008,-4.455558 2.43192,-6.78328 l -3.87139,0 c -7.208331,-1.279672 -15.024431,-2.339706 -21.310211,-1.47206 -4.29161,-10.957757 -13.75245,-18.132667 -24.22255,-22.752087 l 1.91989,-0.99251 c 4.79878,-2.38536 9.75075,-4.38741 14.55899,-6.75167 1.4506,0 2.90121,0 4.35181,0 7.32255,0.98426 12.83177,5.38499 18.878291,9.6642 l -0.47952,-1.92002 c -2.783481,-4.08029 -7.145341,-7.22956 -10.175581,-10.17625 4.41179,-3.02357 9.64337,-4.57125 14.527391,-3.3921 2.017486,0.2703 3.615332,1.43781 5.34336,2.43208 l 2.91143,2.40047 2.87984,3.39119 c 4.754967,5.17723 8.182462,11.37001 11.64756,17.43998 1.32927,3.17911 6.3033,7.74418 6.3033,7.74418 z" />
	<clipPath id="contorno_cut">
		<use xlink:href="#path3001" />
	</clipPath>
</defs>
<use xlink:href="#sol" y="-145" />
<rect class="fil3" x="-200" y="-160" width="400" height="370"  clip-path="url(#contorno_cut)"/>
<use xlink:href="#path3001" />
<path id="path3003" class="fil2" d="m -174.95,-263.45 8.2,1.5  7.7,1.4 7.3,1.95 7.3,2.4 6.8,1.95 6.8,2.9 c 11,4.95 21.75669,10.72102 32.4,16.4 l 1.5 ,1 1.4,0.95 2.4,0.95 2.4,1 5.31175,0.95 6.30421,1.5 c 6.4,0.57481 12.235258,2.54893 17.9,5.34461 l 1.4,0.95 c -12.545649,6.50225 -28.453986,6.4 -39.70989,10.65672 l -2.4,0.95 -1.95,1.5  -1.4,1.4 -1.5 ,1.5  -0.5,1.4 0,1.95 c -2.56421,0.70955 -4.31737,2.21268 -6.3033,3.9 -4.4,3.63568 -3.86785,8.54944 -2.4,13.56834 l 1.9,3.9 c 2.33476,-3.32286 4.1219,-7.31134 7.74276,-8.25533 3.95,-0.82683 7.601084,0.6 11.647561,1.5  19,0.80858 39.207442,1.11082 55.67674,2.4 l 5.82288,0.5 5.31175,1.5 4.86384,1.4 4.3518,1.5  2.4,2.4 c 5,5.95 7.3356767,13.4 9.1831298,20.8 l -7.7436598,0 -1.4,0 c -2.4,1.31661 -3.4,3.15559 -3.4,5.82416 0,1.3 0,2.5811 0,3.9 -3.251059,2.5 -7.2,6.8 -5.34336,10.65671 2.9,2.4 6.626779,2.5371 10.17469,1.95 3.455863,1.30107 7,1.4 10.6559998,1.4 2.5689474,0.50165 5.1419851,0.5  7.74277,0.5  l 4.4,-0.5  c 3.6242902,0.31458 7.1020012,-0.37431 10.6551102,-0.95 3.95,0.33626 8.642374,-1.28046 8.70361,-4.86415 -0.4,-3.1 -2.533134,-4.86422 -4.8,-6.8 l 0,-2.65604 0,-2.65606 c 0,-5.21274 -5.655798,-5.82416 -12.12708,-5.82416 l 0,-1.9 8.73522,-1.5  -2.4,-3.9 2.9,-1.4 -2.4,-1.95 2.9,-1.4 -2.4,-1.95 1.95,-2.4 -1.95,-1.5  -1,-2.4 1,-3.9 c 10,6.8 17.424736,16.4 27.1,23.7446 l 1.95,-0.95 2.4,0 2.4,0 2.4,0 2.4,0 2.4,0 2.4,-0.5 2.4,-1 2.4,-0.95 2.4,0 2.4,0 2.4,0 2.4,0.5  2.4,0 2.4,-0.5  2.4,-0.95 1.9,-1.95 2.4,-0.95 1.95,-0.95 1.9,-0.5  2.4,-0.5 1.9,-0.5 1.95,-0.5 2.4,-0.95 1.4,-0.95 1.5 ,-1 1.9,-0.95 1.4,-0.95 1.5 ,-0.95 1.4,-1.5  1.95,-0.95 1.4,-0.5 2.9,-1.5  1.95,-1.9 1.4,-1.95 0,-1.9 -0.5,-1.95 -1.4,-1.9 -1.95,-1 -3.4,-0.95 -7.74277,-1.5 -7.743659,-1.95 c -9.680982,-2.76763 -19.2,-5.8 -29,-7.74418 l -7.74367,-0.95 -7.74276,0 2.9,-1 2.9,-1.5 2.9,-0.95 2.9,-1 3.4,-0.95 2.9,-0.95 2.9,-1.5  2.9,-0.95 0,-1.4 0.5 ,-0.95 0.5,-1 1,-0.95 2.4,-0.95 2.9,-1.5  2.4,-0.95 1.95,-0.95 1,-0.5  0,-1 0,-0.95 -1,-1.4 1.4,-2.4 1.95,-1.4 1.95,-1 1.4,-0.95 1.4,-0.5  1,-1.5  0,-1.9 -1,-2.4 0,-0.95 1,-0.5 1.4,-0.5  1.95,0 1.9,-0.5 1.95,-0.5 1.4,-0.5  0.5 ,-0.95 1.95,-0.95 2.4,-0.5 1.95,0 1.95,-0.5 1.9,-0.5 1.5 ,-0.95 0.5 ,-1.4 0,-2.4 1,-0.95 1.4,0 1.5 ,-0.5 1.9,0.5 1.95,0 1.4,0 1,-1 1,-1.5 1.4,-0.95 1.95,-1 2.9,0 2.4,-0.5  2.4,-0.5 1.9,-1.4 0.5,-0.5 0.5 ,-1 0.5,-0.95 0,-1.4 2.4,-0.5 2.4,-0.5 2.4,0 2.4,0 2.9,-0.5  2.4,-0.5 2.4,-1.4 1.9,-1.95 2.9,0.5 2.4,0 2.4,-0.95 2.4,-0.5 2.4,-0.95 2.4,-0.5 2.4,0 2.4,0.5 2.4,-0.5 2.4,-0.5  2.4,0 2.4,-0.5 1.9,-0.95 1.5 ,-0.5  1,-1.5  0.5 ,-1.4 2.4,-0.95 3.4,-0.5 4.35181,-0.5  4.3518,0 4.35181,0 2.9,-0.5 1,-0.5  0.5,-0.5 0,-0.5  -0.5,-0.95 1.4,0.5  1.95,0 1.9,0 1.95,0 1.9,-0.5  1.95,-0.5 1.9,-0.95 1.5 ,-0.95 2.4,0.5 2.4,-0.5 1.95,0 2.4,0 1.95,0 2.4,0 2.4,0 2.4,0 3.4,-0.95 2.4,-1.5  1.4,-0.95 0,-1.5 -0.5 ,-1.5  -1.95,-0.95 -2.9,-0.95 -3.35935,-0.5 -15.5,-0.95 -14.52739,-0.5 -15,0 -15,0.5 -14.55899,0.95 -15,1.5  -15,1.4 -15.5,2.4 -5.31085,1.9 -7.26415,1.5  -8.73522,1.4 -10.143069,1.5  -10.17559,1.4 -10.6551,1.95 -10.17559,1.9 -9.21564,2.4 -7.74276,2.9 -7.74367,3.4 -8.2557,3.4 -7.74367,3.4 -7.74367,3.4 -7.74276,2.88002 -7.7436702,2.9 -7.26414,2.4 -1,-1.95 -1,-0.95 -1,-1.4 -1.5 ,-0.5 -1.4,-0.5 -1.95,0 -1.9,0 -2.9,1 0,-1.95 -0.5,-1.4 -1,-1.5  -1,-1.4 -1.4,-0.95 -1.95,-0.5 -2.4,0 -2.4,0.5 -0.5,-1.95 -1,-1.95 -1.5 ,-1.9 -1.4,-1.4 -1.95,-1 -2.4,-0.5 -1.95,0 -2.4,0.95 -1,-1.5 -1.4,-1.4 -1.5 ,-1 -1.9,-0.5 -1.95,-0.5  -1.9,0 -1.95,0.5  -1.95,0.5 -1.9,-0.95 -1.95,-0.95 -1.4,-1 -1.95,0 -1,0 -1.4,1 -1,0.95 -0.5,0.95 -1.9,-1.4 -1.5 ,-0.95 -1.9,-0.5 -1.5 ,-0.5  -1.4,0 -1.95,0.5  -1.4,1 -1.4,1.5 -1.95,-1.9 -2.4,-1.5  -1.9,-0.95 -2.4,-0.95 -2.4,-0.5 -2.4,0 -2.4,0.5 -2.9,0.95 -1.4,-1.5  -1.95,-0.95 -1.9,-0.5  -1.5 ,-0.5 -1.9,0.5 -1.95,0.5  -1.9,0.5 -1.5 ,1 -2.9,-0.5 -2.9,-0.95 -2.9,-0.5  -2.4,0 -2.9,-0.5 -2.4,0 -2.9,0 -2.9,0.5 -4.3518,-1.4 -4.86384,-1 -4.8,-0.95 -5.34336,0 -5.31175,0 -5.3439,0 -5.31166,0.5 -5.34363,0.5  -4.35171,-0.5  -4.35172,-0.95 c -10.25892,-1 -20.74603,-4.45722 -31,-2.4 l -3.9,1.5  -1.4,0.5  -1,0.95 -1,0.95 -0.5 ,1.5  0,0.95 0.5 ,0.95 c 11.95,8.95 30.2753,7.99777 44.5731,10.65581 z" />
<path id="path3011" class="fil3" d="m 11.537101,-96.8 -11.2,6.8 -11.1,-6.8 1.95,-5.344597 1,-4.8 0,-4.4 -0.5 ,-4.3521 -1,-4.35209 -1.95,-3.4 -2.4,-3.4 -3.35935,-2.9 -15.99937,0 3.4,5.34372 2.9,5.3121 1.9,4.86415 1,4.3512 0.5,4.35209 -1,4.35209 -0.5 ,1.5  -1,1.9 -1.4,1.5  -1.5 ,1.4 17.4,0 0,-0.5 11.61504983,7.26372 11.64756017,-7.26372 16.95,0 -1,-0.95 -1,-1.5  -1,-1.5 -0.5 ,-1.95 -0.5,-4.35209 0.5,-4.8 1,-4.86417 2.4,-4.8 2.9,-4.8 3.9,-4.86327 -16.9,0 -2.9,2.9 -1.95,3.4 -1.9,3.9 -1.5 ,4.35208 -0.5 ,4.4 0,4.3521 0,4.8 1.5 ,4.864147 z m -47.5,-6.8 0.5 ,-1.95 0.5,-1.5 -0.5,-1 0,-0.5  -1,0 -1,0.5  -1,1 -1,1.9 0,1.5  0,1.5 0,1.95 1,0.95 0.5,1.5 1,1 1.4,0.95 1.5 ,0 1,0 1.4,-0.5 1.5 ,-1 1,-0.95 1,-1.4 1,-1.95 0.5,-1.4 0,-1.95 0,-2.9 -1,-1.9 -1,-1.5  -1,-0.5 -1,0 -0.5 ,1 0,1.4 0.5 ,1.95 0.5,0.95 0,0.95 0,1.5  0,1.4 -0.5,0.95 -0.5 ,1 -1,0.5 -1.4,0.5  -1,0 -0.5,0 -0.5,-0.5  -0.5 ,-0.5 -0.5,-0.5 0,-0.5  0,-0.95 0.5,-0.95 z m 70.71527,-1.5  -0.5 ,-0.95 -0.5,-0.95 0,-1 0,-0.95 0.5,-0.5  1,-0.5 1,0 1.4,0.5 1.4,0.95 1,1.5  0.5,1.9 0.5 ,2.4 -0.5 ,1.95 -0.5,2.4 -1.5 ,1.5  -1.4,1.4 -1.95,0.5 -1.4,0 -1.5 ,-0.5 -0.5 ,-0.95 0,-0.5  0.5 ,-1 1,-0.5  1.4,-0.5 1,-0.5  0.5,-0.5 0.5 ,-0.95 0.5,-0.5 0,-0.95 -0.5,-0.95 -0.5 ,-0.95 -1.5 ,-1 z" />
<path id="path3013" class="fil1" d="m 1.8410308,-126.4 0.5,0 0.5 ,0 0.5,0.5 0.5 ,0.5 0,0.5  0.5,0.5 0,0.5  0.5,0.5 -0.5,0.5  0,0.5 -0.5,0.5  0,0.5 -0.5 ,0.5 -0.5,0 -0.5 ,0.5  -0.5,0 -0.95,0 -0.5,-0.5  -0.5 ,0 -0.5,-0.5 0,-0.5 -0.5 ,-0.5  0,-0.5 0,-0.5  0,-0.5 0,-0.5  0.5 ,-0.5 0,-0.5  0.5,-0.5 0.5 ,-0.5 0.5,0 0.95,0 z m 0,9.21625 0.5,0.5 0.5 ,0 0.5,0 0.5 ,0.5  0,0.5 0.5,0.5  0,0.5 0.5,0.5 -0.5,0.95 0,0.5  -0.5,0.5 0,0.5  -0.5 ,0 -0.5,0.5 -0.5 ,0 -0.5,0 -0.95,0 -0.5,0 -0.5 ,-0.5 -0.5,0 0,-0.5  -0.5 ,-0.5 0,-0.5  0,-0.95 0,-0.5 0,-0.5 0.5 ,-0.5  0,-0.5 0.5,-0.5  0.5 ,0 0.5,0 0.95,-0.5 z m 0,9.7 0.5,0 0.5 ,0 0.5,0.5 0.5 ,0.5  0,0.5 0.5,0.5  0,0.5 0.5,0.5  -0.5,0.5 0,0.5 -0.5,0.5  0,0.5 -0.5 ,0.5  -0.5,0 -0.5 ,0.5 -0.5,0 -0.95,0 -0.5,-0.5 -0.5 ,0 -0.5,-0.5  0,-0.5 -0.5 ,-0.5  0,-0.5 0,-0.5 0,-0.5  0,-0.5 0.5 ,-0.5  0,-0.5 0.5,-0.5  0.5 ,-0.5 0.5,0 0.95,0 z m -13,-22.30325 25.18249,0 -2.4,3.9 -1.95,3.9 -1.4,3.9 -0.5,3.9 -0.5,3.9 0,4.35208 0,3.9 1,3.9 -7.26413997,4.35209 -7.77528003,-4.35209 1,-4.352097 1,-4.35209 0,-3.9 0,-3.9 -0.5,-3.9 -1.5 ,-3.9 -1.9,-3.4 -2.4,-3.9 z" />
<path id="path3015" class="fil3" d="m 126.31315,-140.9 -1,-1.9 -1,-1 -1.5 ,-0.95 -1.4,-0.95 -3.9,-1.5  -3.9,0 -4.4,0.5 -4.3518,1.5  -4.35181,1.9 -4.351799,2.9 -1.5 ,1.5  -1,1.9 -1,1.95 -0.5,1.9 -0.5,4.4 0.5,4.3521 0.5,1.9 0.5 ,1.95 1,1.4 1,1.5  1.5 ,0.95 1.4,0 1.5 ,0 1.9,-0.5 1,-0.5  0.5,-1 0.5 ,-0.95 0.5,-0.95 0,-0.95 0,-1.5  0,-0.95 0,-1.5 -0.5,-1.5  -0.5 ,-0.95 -1,-0.95 -1,-0.5 -1,0 -1,0 -1,0.5 -0.5,0.95 0,0.5  0,0.5 0,0.95 0.5,0 0.5 ,0.5 0.5,0.5  1,0 1.4,0 0,0.5 0,0.95 0,0.5  -0.5,0.95 -0.5 ,0.5 -0.95,0.5 -1.5 ,-0.5 -1.4,-0.5 -1,-1.4 -0.5,-1.4 0,-1.95 0,-1.4 0.5,-1.5  1,-1.4 1,-0.95 1,-0.5 1.5 ,-0.5  1.4,-0.5 1.95,0 2.4,-0.5  1.95,-0.5 2.4,0 2.4,0 1.95,0 0,-1.95 1,-1.4 1,-0.95 1.5 ,-1 1.9,-0.5 1.95,0 2.4,-0.5  1.9,0 z" />
<path id="path3017" class="fil3" d="m 103.56257,-130.71926 1.4,0.95 1,1.5  1,1.4 0.5,1.95 0.5 ,1.9 -0.5 ,1.5  -0.5,1.9 -0.5,1.95 16.95,-8.25624 0.5 ,-0.95 0,-1.4 0,-1 -0.5 ,-1.5 -0.5,-0.5 -1,-0.95 -0.5 ,0 -1,0 -16.9,1.4 z" />
<path id="path3019" class="fil3" d="m 117.60954,-135 1.4,-0.5 1.95,0 1.4,0.5 1.4,0.95 1.5 ,0.95 1,1.95 0.5,1.9 0.5 ,1.95 1.5 ,0 1.4,0.95 1.5 ,1 1.9,0.95 1.5 ,1.4 1.4,1.5  1.4,1.9 1,0.95 0.5 ,-2.88002 0.5,-2.4 -0.5,-2.9 -1,-1.9 -1,-2.4 -1.4,-1.5  -1.5 ,-1.9 -1.9,-0.95 -1.95,-1.5  -1.9,-0.5  -1.95,-0.5 -1.9,0 -2.4,0 -1.95,0.5 -1.4,0.95 -1.4,1.5  z" />
<path id="path3021" class="fil3" d="m 137.4,-99.231383 0.5 ,-1.4 0,-1.95 0.5,-1.95 0,-1.9 0.5,-1.95 0,-1.9 0,-1.95 0,-1.9 -2.4,-0.5 -2.4,0.5 -2.4,0.5  -2.4,0.95 -2.4,0.95 -1.9,1.5  -1.95,1.4 -1.4,1.5  1.9,0 2.4,0 2.4,0.5 2.4,0.95 1.95,0.95 1.9,1.5  1.5 ,1.9 1.4,2.4 z" />
<path id="path3023" class="fil1" d="m 126.31315,-94.4 0.5,0 1,0 0.5 ,0 0.5,0.5 0.5 ,0.5 0.5,0.5 0.5 ,0.5  0.5,0.5 1,-0.5 0.5,-0.95 1,-1 0.5 ,-0.95 0,-0.95 0,-1 0,-0.95 0,-1.4 -0.5 ,-0.95 -0.5,-1 -1,-0.5 -1,0 -1,0 -1,0.5 -1,0.5  -1,1 0,0.5  -0.5,0.5 0,0.95 0,0.5  0,1 0,0.95 0,0.5  0,0.95 z" />
<path id="path3025" class="fil3" d="m 120.5,-85.183493 0,-0.95 0,-1.5  0,-0.95 0.5,-1.4 0.5,-1 0.5 ,-0.95 1,-0.95 1.5 ,-1 -0.5,-0.95 0,-1.4 0,-1.95 0,-1.4 0.5,-1.5  1,-1.5 1,-0.95 1.5 ,-0.5 -1,-0.5 -1.4,-0.5  -1.5 ,0 -1.4,0 -1.4,0.5  -1.5 ,0.5 -1,0.5 -1.4,0.5  -1.5 ,1.4 -1.4,1 -1.5 ,1.4 -1,1.5 -1.4,1.5  -1,1.9 -0.5,1.5  -0.5 ,1.9 1,0 1.95,0 1.4,0 1.95,1 1.9,0.5 1.5 ,1.5 1.4,1.4 1,1.5  z" />
<path id="path3027" class="fil6" d="m 136.95,-95.359743 0,2.9 -1,2.4 -1,2.4 -1.95,1.95 -1.95,1.4 -1.9,0.5  -2.4,0 -2.4,-1.4 -1.5 ,-0.95 -0.5 ,-1.5  0,-1.4 0.5 ,-0.95 1.5 ,-1 1,-0.5 1.4,0.5 1.5 ,1.5  1,0.95 1,0.5  1,0 1,-0.95 1,-0.95 1.4,-1 1,-1.9 1.4,-2.4 z" />
<path id="path3029" class="fil6" d="m 134.53634,-83.263473 -0.5 ,1.95 0,1.4 -0.5,1.5  -0.5 ,1.5 -0.5,1.5  -0.5 ,1.9 -0.5,1.5  -0.5,1.4 -1,0.5 -1.4,0 -1.5 ,0.5  -1,0.5 -1.4,0.5 -1.5 ,0.95 -1,0.95 -1,0.95 1,-1.9 0.5 ,-2.4 0.5,-1.9 0.5 ,-2.4 0,-2.4 -0.5 ,-1.9 -0.5,-2.4 -0.5 ,-1.4 1.4,0.5  1.95,0.5 1.4,0.5  1.95,0 1.4,-0.5  1.5 ,0 1.4,-0.5 1,-1 z" />
<path id="path3031" class="fil6" d="m 115.65804,-61.4 0.5 ,-3.4 0,-3.4 0,-3.4 -1,-3.4 -1.4,-2.9 -1.5 ,-2.4 -1.9,-1.9 -1.95,-1 -1.4,0 -1,-0.95 -0.5,-0.5 0,-0.95 0,-1 1,-0.95 1.5 ,-0.5 1.4,0 2.4,0 1.95,0.5 1.9,0.95 1.5 ,1.5  1,1.9 1,1.95 1,1.95 0.5 ,1.9 0,2.4 0,2.4 0,1.95 -0.5 ,2.4 -1,1.9 -1,1.95 -1,1.5 -1.5 ,1.5  z" />
<path id="path3033" class="fil6" d="m 104,-81.8 1.9,0.5 1.95,0.95 1.9,1.5  1.5 ,1.9 1.4,2.9 1,3.4 0,4.3521 -0.5,5.34462 -1,-0.5 -1,-1 -0.5,-0.95 -1,-0.95 -1,-1.5  -0.5 ,-1.4 -1,-0.95 -0.5,-1 -1,-0.95 -1,-1.9 -1,-1.5  -0.5,-1.9 0,-1.95 0,-1.9 0,-1.5  0.5,-0.95 z" />
<path id="path3035" class="fil6" d="m 100.17071,-66.8 1,-0.5 0.5,0 0.5 ,0 1,0 0.5 ,0 1,0.5 0.5,0 1,0.5 -1,-1.5 -0.5,-1.5  -1,-1.4 -0.5 ,-1.4 -0.5,-1.95 -0.5,-1.9 -0.5 ,-1.5  0,-1.4 -1,1.4 -0.5,1.5  -0.5 ,1.4 0,1.9 0,1.5  0,1.9 0.5 ,1 0,1.4 z" />
<path id="path3037" class="fil6" d="m 89.5,-55.2 1.4,-1.4 1.5 ,-1.95 1.4,-1.9 1.4,-1.4 1.95,-1 1.9,-0.95 1.95,-0.5 1.95,0 1.4,0 1.4,0.5 1.5 ,0.95 1.4,1 1,1.4 1.5 ,0.95 1,1.5  1,1.4 -1.9,-0.95 -1.95,-1 -1.4,-0.5 -1.95,0 -1.4,0 -1.95,0 -1.4,0.5 -1,0.5 -1,0.5 -1,0.5 -1,0.95 -1.5 ,0.5  -1.4,0.5 -1.4,0 -1.95,0.5 -1.4,-0.5 z" />
<path id="path3039" class="fil6" d="m 87.564111,-52.735593 2.4,0 1.9,0 1.95,-0.5 1.4,-0.5 1.95,-0.95 1.9,-0.5 1.5 ,-0.5 1.9,-0.5  1.5 ,0 1.9,0 1.95,0 1.9,0.5  1.5 ,0.5 1.4,0.5 1.5 ,0.5 1.4,0.5 -1,1.5 -1.5 ,1.5  -1.4,0.95 -1.95,0.95 -2.4,0.5 -1.95,0.5 -1.4,0.5 -1.5 ,0 -1.9,0 -1.95,0 -1.9,-1 -1.95,-0.5 -1.9,-0.95 -1.95,-0.95 -1.9,-1 -1.5 ,-0.95 z" />
<path id="path3041" class="fil6" d="m 130.18453,-66.8 -0.5 ,0.95 -0.5,1 0,0.95 -0.5 ,0.95 -0.5,1 0,0.95 0,0.95 -0.5 ,0.5 -1.5 ,0.95 -1.4,1 -1.5 ,0.95 -1.9,0.5 -1.5 ,0 -1.4,0 -1.4,-0.5 -1.5 ,-0.5 1,-1.95 1.5 ,-1.9 1.9,-1.5  1.95,-1.4 1.9,-1.5 2.4,-0.5 1.95,-0.5 1.9,-0.5 z" />
<path id="path3043" class="fil6" d="m 126.8,-55.648133 0,1 -0.5,0.5 -0.5 ,0.95 0,0.5 0,0.95 -0.5,1 0,0.5 0,0.5 -0.5 ,-0.5 -0.5,-0.5 -1,-0.5 -1,-0.5 -1,-0.5 -1,-0.5 -1.4,-0.5 -1.4,-0.5 1,0 1.4,-0.5 1,0 1.4,-0.5 1.4,0 1,-0.5 1,0 1,-0.5 z" />
<path id="path3045" class="fil6" d="m 97.259271,-10.111454 9.7,3.4 -9.215639,4.8 -6.3033,-3.35957 5.82378,-4.8641603 z" />
<path id="path3047" class="fil6" d="m 97.259271,-24.639803 2.9,0.95 2.9,1 3.35935,0 2.9,0 3.4,-1 2.9,-0.95 2.9,-0.95 3.4,-1.5  0,2.4 0,2.4 -0.5 ,2.4 0,2.9 -0.5,2.4 0,2.9 0,2.4 0,2.4 0,3.4 0.5,3.4 0.5 ,3.4 0.5,3.4 1,3.4 0.5 ,2.9 1,2.9 1,2.4 -2.4,-2.4 -3.4,-1.95 -3.4,-1.4 -3.9,-1 -3.9,0 -3.9,0 -3.4,0.5 -2.9,1.5  0,-11.6158207 1.95,-1 1.9,-1.5 1.5 ,-0.95 1.9,-1 2.4,-0.5 1.95,-0.5 2.4,-0.5 1.95,0 0.5 ,-6.3037203 -2.4,0 -1.9,0 -2.4,0 -2.4,-0.5 -1.9,-0.5 -2.4,-0.95 -1.9,-1 -2.4,-0.95 0,-10.65581 z" />
<path id="path3049" class="fil6" d="m 106.4,15.552267 1,-0.5  1,0 1,0 1,0 1,0 0.5 ,0 1,0.5  1,0.5 1,0 0.5 ,0.95 0.5,0.5  0.5 ,0.5 -0.5 ,0.5 0,0.5 -1,0.5 -1,0 -1,0 -1,-0.5 -0.5 ,0 -1,0 -1,0.5 -1,0 -1,0 -0.5,0 -1.5 ,0.5  -0.5 ,-0.5  -0.5,-0.5 -0.5 ,-0.95 0.5 ,-0.5 0.5,-0.95 0.5 ,-1 1,0 z" />
<path id="path3051" class="fil6" d="m 101.61108,15.552267 0,10.65581 1,-0.95 1,-0.95 1,-0.95 1.4,-0.5  1,-0.5 1,0 1,0 1.5 ,-0.5 1.4,0.5 1.95,0.5 1,0.95 0.5 ,1.5 0,0.95 -1,1.5  -1.5 ,0.95 -2.9,0.5 -2.9,0.5  -2.4,-0.5  -1.95,-0.5 -1.9,-0.5 -1.5 ,-0.95 -1,-1 -1,-1.5 -0.5,-1.4 0,-1 0.5,-1.4 0,-0.95 0.5 ,-1 1,-0.95 1,-0.95 0.95,-0.95 1,-0.5 z" />
<path id="path3053" class="fil6" d="m 128.26465,23.808507 1,1.5 1,0.95 1.5 ,1.5  1.4,1.4 1.4,1.5  1.95,0.95 1.4,0.95 1.95,1 -1.95,1.4 -1.4,1.9 -1.4,1.5  -1,2.4 -1,1.9 -0.5,2.4 0,2.9 0,2.88002 -0.5 ,-0.95 -1,-1.4 -0.5 ,-0.95 -1,-1 -0.5,-0.95 -1,-0.95 -1,-0.5 -0.5 ,-0.5 0,-2.4 0.5 ,-2.4 0.5,-2.4 0,-2.4 0.5 ,-2.9 0,-2.4 0,-2.4 0,-2.4 z" />
<path id="path3055" class="fil6" d="m 132.1,56.256397 -1,-2.9 -1.9,-2.9 -1.95,-2.88002 -2.9,-2.4 -2.9,-1.95 -2.9,-1.4 -3.4,-1.5  -3.4,-0.5 -1.4,-0.5 -1.5 ,0 -1.4,0 -1.5 ,0 -1,0 -1,0.5 -0.5,0.5 -0.5 ,1 0.5 ,0.95 0.5,0.5 0.5 ,0.5 1.4,0 1,0.5  1.4,0 1.4,0 1.5 ,0 2.4,0.5 2.9,0.5 2.4,0.95 2.4,1.4 2.4,1.95 2.9,1.9 2.4,2.4 2.9,2.9 z" />
<path id="path3057" class="fil6" d="m 130.66496,57.7 -2.4,-2.4 -2.9,-1.95 -2.9,-1.9 -2.9,-1.95 -2.9,-1.5 -3.4,-1 -3.4,-0.95 -3.4,-0.5  -1.9,0 -1,-0.5 -1,-0.5 -1,-0.5 -0.5,-1 0,-0.5 0,-1.4 0,-1 -0.5 ,0 -0.95,0.5 -1,0 -0.5 ,0 -1,0.5 -1,0.5 -0.5,0.5 -1,0.5 1.95,0.95 1,1 0.5,1.9 1,1.95 1,1.9 1.9,2.4 2.9,1.95 4.3518,1.9 2.4,0.5 2.9,0.5 2.4,0 2.9,0.5 2.9,0 2.4,0 2.4,-0.5 2.9,0 z" />
<path id="path3059" class="fil1" d="m 125.35321,61 1,-0.5 0.5,0 1,0 0.5 ,0 1,0 0.5,0 1,0 0.5 ,0 0,1.5  0,1.5 0,1.4 -0.5 ,1.95 0,1.4 -0.5,1.5  -1,1.4 -0.5 ,1 -1,-1.5  -1,-1.4 -1,-1.5  0,-1.5 -0.5,-1.5  0,-1.4 0,-0.95 0,-1.5  z" />
<path id="path3061" class="fil3" d="m 133.57639,59.2 0,2.4 0,1.9 0,1.95 -0.5 ,1.9 -0.5,1.95 -0.5 ,1.4 -1,1.5  -1,1.4 0,0.95 0.5,1.5  1,1.5 0.5,0.95 1,1 1,0.95 1,0.95 1,0.5 1.4,-0.95 1.5 ,-1.4 1.9,-1.5  1.5 ,-1.4 1,-1.95 1.4,-1.9 1,-1.95 1,-2.4 1,-2.88002 1,-2.4 1,-1.95 1,-2.4 1.4,-1.95 1,-1.9 0.5 ,-1.95 0.5,-2.4 -1.95,2.9 -2.4,2.4 -2.4,1.9 -2.4,1 -2.9,0.5 -2.9,0.5 -2.4,0 -2.9,-0.5 z" />
<path id="path3063" class="fil6" d="m 134.53634,56.256397 2.9,-2.4 2.9,-2.9 2.4,-2.88002 2.9,-2.4 2.4,-2.9 2.4,-2.4 2.9,-2.4 2.9,-2.4 0,2.4 -0.5,1.9 -0.5,2.4 -0.5 ,2.4 -1,1.9 -1.4,1.95 -1.5 ,1.9 -1.4,1.5  -1.5 ,1.4 -1.4,0.95 -1.95,1 -1.9,0.5 -1.95,0.5 -2.4,0.5 -1.95,0 -1.95,-0.5 z" />
<path id="path3065" class="fil6" d="m 134,53.824317 1.5 ,-1.5 1.4,-1.5  1,-1.4 1.5 ,-1.5 1.4,-1.5  1,-1.4 1.5 ,-1.5  1.4,-1.4 1.5 ,-1.4 1.4,-1.5  1.5 ,-1.5 1.4,-1.5  1.4,-1.4 1.5 ,-0.95 1.4,-1.5  1.95,-0.95 -2.4,0.95 -1.9,1 -2.4,0.5 -1.95,0.5 -2.4,0.5 -1.95,0.5 -1.95,0.95 -1.9,1 -1.4,1.4 -1.5 ,1.95 -1,1.9 -0.5 ,1.95 0,2.4 -0.5,1.95 -0.5,2.4 -0.5 ,2.4 z" />
<path id="path3067" class="fil5" d="m 142.8,-125.88761 0,12.12788 -1,11.1 -1.4,9.7 -1.9,9.18374 -2.4,8.7358 -2.4,9.18463 -2.9,10.17536 -2.4,11.1 -1.5 ,7.7758 -1.4,10.17625 -0.5 ,5.3121 -0.5,6.30372 0,5.8 0.5,6.30372 0.5 ,5.82416 1,5.8241703 1.95,5.3121004 1.9,4.8 1.5 ,2.4 1,1.95 1.9,1.9 1.5 ,1.5  1.9,1.4 2.4,1.4 1.95,1 2.9,0.5 2.4,-0.95 2.4,-1 2.9,-0.95 2.4,-0.5 2.4,-0.5 1.95,-0.5 1.9,-0.5 1.5 ,-0.95 -2.4,-2.4 -1.95,-2.9 -1.4,-3.4 -1.4,-3.4 -1.95,-6.8 -1.4,-7.74418 -0.5,-7.26372 0,-7.2646293 0,-6.8 0.5,-6.8 1,-6.8 2.4,-8.25625 2.4,-9.66419 2.4,-10.17535 2.4,-10.17626 1,-9.7 0,-4.3521 -0.5 ,-3.9 -1,-3.4 -1.9,-3.4 -1.95,-2.4 -2.4,-3.4 -2.4,-3.4 -1.95,-3.4 -2.4,-3.9 -2.4,-3.4 -1.95,-3.4 -2.4,-3.4 z" />
<path id="path3069" class="fil6" d="m 167,-60.95 0.5 ,-1.95 0.5,-2.4 1,-1.95 1,-2.4 1,-1.9 1.4,-2.4 1.5 ,-2.4 1.9,-2.4 2.9,-2.4 2.4,-1.4 3.4,-0.5 2.9,-0.5 2.9,0 2.4,0.5 2.4,0.5 2.4,0.5  -2.9,0 -2.4,0.95 -2.4,0.5 -1.9,0.95 -2.4,1.5  -1.95,1.5 -1.9,1.5  -1.95,1.4 -1.9,1.95 -1.5 ,2.4 -1.4,1.5  -1.5 ,1.9 -1.4,1.5  -1.4,1.4 -1.5 ,1.5  -1.9,0.95 z" />
<path id="path3071" class="fil6" d="m 173.28628,-62.9 4.4,-4.8 3.9,-3.9 3.4,-2.9 2.9,-1.95 2.9,-1.4 2.9,-0.95 2.9,-1.5  3.4,-1.4 -1.95,1.9 -1.4,1.95 -1,1.4 -1,1.95 -1,1.4 -1.4,1.95 -1.95,1.9 -2.9,1.95 -1.4,0.95 -1.4,0.5 -1.95,1 -1.9,0.95 -1.95,0.5 -1.95,0.5  -1.9,0 -1.5 ,0 z" />
<path id="path3073" class="fil6" d="m 162.15075,-54.655613 2.4,-1.5  1.9,-0.95 2.4,-0.95 2.4,-0.5 2.4,0 2.4,0 2.4,0.5 2.9,0.5 2.9,0.95 2.4,1.95 2.4,1.5 1.95,2.4 1.4,1.9 1.9,1.95 1.5 ,1.9 1.9,1.95 -2.4,-0.95 -1.95,-1 -2.4,-0.95 -2.9,-1.4 -2.4,-1.5  -2.4,-1.4 -2.4,-1 -1.95,-1.4 -1.9,-0.5 -1.95,-0.5 -1.4,-0.5 -1.95,-0.5 -1.4,-0.5 -2.4,0 -2.4,0 -3.4,0.5 z" />
<path id="path3075" class="fil6" d="m 159.75135,-51.3 2.9,-0.95 2.4,-0.5 1.95,0 2.4,0 1.95,0 2.4,0.95 2.4,1 2.4,0.95 1.4,1.4 1.95,1 2.4,0.95 1.9,1.4 2.4,1 2.4,0.95 2.9,0.5 2.4,0.95 -2.4,1 -2.4,0.95 -2.4,0.5 -2.9,0.5 -2.9,0 -2.9,-0.5 -2.9,-0.5 -2.4,-0.5 -2.4,-1.5  -1.4,-1.4 -1,-1.95 -1,-1.4 -1,-1.95 -1.4,-1.4 -2.9,-0.95 -4.3509,-0.5 z" />
<path id="path3077" fill="#a2a1a1" d="m 159.75135,-47.4 -1,2.4 -0.5 ,2.9 -0.5,2.4 -1,2.9 -0.5 ,2.88002 -0.5,2.9 -0.5,2.9 0,2.4 0.5,3.9 0.5,2.9 1.4,1.9 1.4,1.5  1.5 ,1.5 1.4,1.5  1.5 ,1.9 1.4,2.4 0,-2.9 -0.5 ,-2.4 -0.5,-1.9 -1,-1.95 -0.5,-1.9 -1,-1.95 0,-2.4 -0.5,-2.4 0.5,-2.9 0,-2.9 0,-2.9 0,-2.9 0,-2.88002 -0.5,-2.9 -1,-2.4 -0.5 ,-1.4 z" />
<path id="path3079" class="fil6" d="m 161.67123,-47.9 1.5 ,3.4 1,2.9 0,2.9 0,2.4 0,2.9 0,2.4 0,1.95 0.5,2.4 0,2.4 0,1.95 0.5 ,1.9 0.5,2.4 1,1.95 0.5,1.9 0.5 ,2.4 0,1.9 0.5,-2.8800193 1,-2.4 1,-1.95 1,-2.4 0.5,-1.95 1,-2.9 0,-2.9 0,-3.9 -0.5,-2.9 -1,-2.88002 -1,-2.9 -1.4,-2.9 -1.4,-2.4 -1.95,-1.9 -0.5 ,-0.5 -1,-0.5 -1,0 -1,0 z" />
<path id="path3081" class="fil6" d="m 171.84592,-13.983993 0.5,-2.4 1,-2.4 1,-1.95 1,-1.9 1.4,-1.5  1.5 ,-1.4 1.9,-1.5  2.4,-0.95 3.4,-0.95 2.9,-0.5 2.4,-0.5 2.9,0 1.95,0.5 2.4,0 1.9,0.5 1.5 ,0.5 -3.4,0.5 -3.9,0.95 -4.35181,1.5  -3.9,1.4 -4.35181,2.4 -3.4,1.9 -3.9,2.9 -2.9,2.9 z" />
<path id="path3083" class="fil6" d="m 169.9,-8.1598237 1.95,-1.95 1.4,-1.9 1.95,-1.95 1.4,-1.5 1.95,-1.5  2.4,-1.4 1.9,-0.95 1.95,-1.5  2.4,-0.95 1.95,-0.95 2.4,-1 2.4,-0.5 2.4,-0.95 2.4,-0.5 2.4,-0.5 2.4,-0.5 -1.4,1.9 -1.95,1.95 -1.9,1.9 -1.5 ,1.95 -1.9,1.9 -1.95,1.95 -2.4,1.9 -1.9,1.5  -1.95,0.95 -2.4,0.5 -2.4,0 -1.95,0.5  -2.4,0 -2.9,0.5 -2.4,0.5 -2.4,0.5 z" />
<path id="path3085" fill="#a2a1a1" d="m 154.88751,-16.416073 0,2.9 0,2.9 0,2.9 0.5 ,2.9 0,2.88002 0.5,2.4 0.5,2.9 0.5 ,2.4 1,-1 1,-0.95 1,-0.5 1,-0.95 1.4,-0.5 1,-0.5 1,-0.5 1,-0.5  0,-0.95 0,-0.5  0,-1 0,-0.5 -0.5 ,-0.95 0,-0.95 0,-0.5 -0.5,-1 -1,-1.4 -1,-1.4 -1,-1.5  -1,-0.95 -1.5 ,-0.95 -1,-1 -1.4,-1.5 -1.5 ,-1.95 z" />
<path id="path3087" fill="#a2a1a1" d="m 157.8,9.7606066 0,1.4 0.5,1.95 1,1.9 1,1.5  1,1.4 1,1.5  1.5 ,0.95 1.9,1.4 -0.5,-2.4 0,-2.4 0.5,-2.4 0.5 ,-1.9 1,-2.4 0.5 ,-2.4 1,-1.9 1,-2.4 -1.4,0.5 -1.95,0 -1.4,0.95 -1.95,0.5 -1.4,0.95 -1.4,0.95 -1,0.95 -1,1.5  z" />
<path id="path3089" class="fil6" d="m 169.414,-4.2872937 1.95,0.5  2.4,0.95 1.9,0.95 2.4,0.5 1.9,1.5 1.95,0.95 1.9,1.5  1.95,1.9 1.4,1.95 1.95,1.4 1.4,2.4 1.5 ,1.9 1.9,1.95 1.5 ,1.95 1.4,2.4 1.95,1.95 -0.5,-1.95 -0.5,-2.4 -1,-2.4 -1,-2.9 -1,-2.4 -1.5 ,-2.4 -1.9,-2.4 -1.95,-1.95 -3.4,-2.88002 -2.9,-1.95 -2.9,-1.4 -2.4,-1 -2.4,0 -1.9,0 -2.4,0.5 -1.95,0.95 z" />
<path id="path3091" class="fil6" d="m 196,20.416427 -1.5 ,-1.95 -1.9,-1.9 -1.4,-1.95 -1.95,-2.4 -1.4,-1.9 -1.95,-1.95 -1.4,-1.9 -1.95,-1.5  0.95,1.95 1,1.95 1,1.4 0.5 ,1.9 1,1.95 0,1.95 0.5,1.9 -0.5,1.5  1.5 ,0 1,-0.5 1,0 1,0 1.4,0 1,0.5 1.5 ,0.5  1,0.5 z" />
<path id="path3093" class="fil6" d="m 180.58204,3.95 -1,0 -1.4,-0.5 -1,0 -1,0 -1,0 -0.5 ,0 -1.5 ,0 -1,0 0,-0.95 -0.5,-0.5 -0.5 ,-1 -0.5,-0.5  -0.5 ,-0.5 -0.5,-0.5 -1,-0.5  -0.5,-0.5 1.4,0 1.5 ,0.5 1.9,0.5  1.5 ,0.5 1.9,0.95 1.5 ,1 1.4,0.95 1,0.95 z" />
<path id="path3095" class="fil5" d="m 138.9,84.352197 4.8,-5.34372 2.9,-3.4 1.4,-2.4 1,-1.95 0.5,-1.9 0,-1.5  1,-1.9 1.95,-1.95 1.4,-4.3521 1.95,-3.9 1.4,-3.9 1,-4.35209 1,-3.9 1,-4.3521 0.5,-3.9 0.5 ,-3.9 1.95,-0.5 1.4,-0.5 0.5 ,-1 0.5,-0.95 0,-1.4 0.5 ,-1 0.5,-0.5 1,0 1,-1.4 0.5,-1.5 0,-1.5  0,-1.4 0,-1.5  0,-0.95 0,-1.4 1,-1.5  0,-1.9 0.5,-1.5  0.5 ,-1.4 1,-1.5  1,-0.5 1,-0.5 1.4,-0.5 1,0 2.4,0.95 1.95,1.95 1.4,2.9 1,3.4 0,2.4 0.5 ,2.9 0.5,2.4 0,2.4 0.5,2.4 0,2.4 -1,2.4 -0.95,2.4 -1.4,8.7358 -2.4,8.22373 -1.95,7.74419 -2.9,7.74417 -1.95,3.4 -1.4,3.4 -2.4,2.9 -1.95,2.9 -2.4,2.4 -2.9,2.4 -2.9,1.95 -2.9,1.9 -2.4,0 -2.4,-0.5 -2.4,-0.5 -1.9,-0.5  -1.5 ,-0.95 -1.9,-1 -1.5 ,-0.95 -1.9,-0.95 z" />
<path id="path3097" class="fil6" d="m 103,-30.95 1,0 1,0 0.5 ,0.5 1,0 0.5,0 1,-0.5 0.5,0 1,0 0.5 ,0 0.5,0 0.5 ,0.5 0,0.5 0,0.5 0,0.5 -0.5 ,0.5 -1,0.5 -1,0 -1,0.5 -0.5,0 -1,0 -0.5,0 -1,0 -0.5 ,0 -1,-0.5 -1,-0.5 -0.5 ,-0.5 -0.5,-0.5 0,-0.5 0,-0.5 0.5,-0.5 0.5 ,0 1,0 z" />
<path id="path3099" class="fil6" d="m 98.7,-30.463973 0,-0.5 0,-0.5 0,-0.5 -0.5 ,-0.95 0,-0.5 0,-0.5 0,-0.5 0,-0.95 0.5 ,-0.95 1,-0.5 0.5 ,0 1,0 0.5,0 0.5 ,0.5 0.5,0.5 0.5,0.5 1,0.95 1,0.5 1.4,0 1,0 1.4,-0.5 1,-0.5 0.5,-0.5 0.5 ,-0.95 0,-0.95 -0.5 ,-0.5 -0.5,-0.95 -1,-0.5 -1,-0.5 -1.5 ,-0.5 -1,0 -1.4,-0.5 -1.5 ,0 -1.4,0.5 -1.4,0 -1.5 ,0.5 -1,0.5 -1.5 ,0.95 -0.5,1 -0.5 ,1.4 0,0.95 0,0.95 0.5 ,1 1,0.95 0.5 ,0.5 0.5,0.5 1,0.5 0.5 ,0 z" />
<path id="path3101" class="fil5" d="m -3,137.1526 1,1.5 1.4,1 1.5 ,1.5 1.4,1.4 1.4,1.5  1.5 ,1.9 1,1.5  1.5 ,1.4 5.8,-1.4 6.8,-1 6.8,0 6.8,1 7.26325,1.4 6.8,1.95 6.3033,2.4 5.8,3.4 7.26325,3.4 8.2557,2.9 7.74366,2.4 8.22319,1.9 4.35181,0.5 3.9,0 3.4,0 3.9,0 2.9,-0.5 3.4,-0.95 2.4,-0.95 2.4,-1.5  1,-3.9 1,-3.4 1.5 ,-3.4 1.4,-2.4 1.5 ,-2.9 1.4,-2.4 1.4,-3.4 1,-3.4 -3.9,1.5  -4.4,1.4 -3.9,0.5 -3.9,0.5 -4.3518,-0.5 -4.35181,0 -4.4,-0.95 -4.35181,-0.95 -8.70361,-2.4 -8.2557,-2.9 -8.7027,-2.9 -8.2241,-3.4 -8.73521,-2.4 -9.21565,-2.4 -4.3518,-0.95 -4.3509,-0.5 -4.35181,-0.5 -4.35181,0 -4.4,0.5 -3.9,0.5 -3.9,1.4 -3.9,1.5  -3.4,1.9 -3.4,2.4 -2.9,3.4 -2.9,3.9 z" />
<path id="path3103" class="fil5" d="m -124.10216,144.9 1.5 ,1.95 1.4,1.9 1.4,1.95 1.95,1.9 1.4,1.95 1.95,1.9 1.9,1.95 1.95,1.9 2.4,1.5  3.4,0.95 3.4,0.5 3.4,0 3.9,-0.5 3.4,-0.95 3.4,-1.5  3.4,-1.4 8.22318,-3.9 8.2241,-3.9 9.21564,-3.9 9.18313,-2.9 4.86384,-0.95 5.31174,-1 4.86294,0 5.31175,0.5 5.34426,0.95 5.8,1.5 5.34335,2.4 5.8237798,3.4 0,-0.95 0,-1 0,-0.95 0,-0.95 0,-1 0,-0.95 0,-0.95 0,-0.95 -1.5 ,-3.4 -1.9,-3.4 -1.95,-2.4 -2.4,-2.9 -2.4,-2.4 -2.9,-2.4 -2.9,-1.95 -2.9,-1.4 -3.4,-1.5  -3.4,-0.95 -3.9,-0.95 -3.9,-0.5 -3.9,-0.5  -4.35181,0 -4.4,0.5  -4.35181,0.5 -7.74367,1.9 -7.74366,2.9 -6.8,2.9 -7.26415,3.9 -7.74367,3.4 -8.735221,3.9 -9.7,3.4 -11.61505,2.9 z" />
<path id="path3105" class="fil3" d="m -34.988119,145.37633 1.5 ,1.95 1.4,2.4 1,2.4 0.5 ,2.9 0,2.4 0,2.88002 -0.5 ,2.4 -1,2.9 3.4,0.5 3.4,-0.5 3.4,-0.5 3.4,-0.95 3.4,-0.5 2.9,-0.5 2.9,0 2.4,1 0,-1 0,-1.4 0,-0.95 0,-1 0.5,-1.4 0,-0.95 0,-1 0.5,-1.4 -3.4,-2.4 -3.9,-1.9 -3.4,-1.95 -3.9,-0.95 -3.9,-1.5  -3.9,-0.5 -3.4,-0.5 -3.4,0 z" />
<path id="path3107" class="fil3" d="m -47.563119,148.76842 -0.5,0 -0.5 ,0 -1,0.5 -0.5 ,0 -0.5,0 -1,0.5 -0.5 ,0 -0.5,0.5 0.5,2.88002 0.5 ,2.4 0.5,2.9 1,1.9 1,1.95 1,1.95 1.4,0.95 1.5 ,0.95 1.9,0.95 1.95,0 1.9,0 1.5 ,-0.5 1.4,-0.95 1.4,-1.4 1,-1.95 0.5,-2.4 0,-1.4 0,-0.95 0,-1 0,-0.95 0,-0.95 -0.5,-0.5 0,-0.5  -0.5 ,-0.5 -0.5,1 -0.5,0.5 0,0.95 -0.5 ,0.95 -0.5,0.5 -1,1 -1,0.95 -1,0.5 -1.9,0.95 -1.95,-0.5 -1,-0.5 -1.5 ,-1.4 -0.5,-1.95 -1,-1.9 0,-2.9 -0.5 ,-2.4 z" />
<path id="path3109" class="fil1" d="m -40.779389,147.80841 -0.5,0.5  -1,0 0,0.5 -0.5,0.5 -0.5 ,0.5 -0.5,1 0,0.5 0,0.95 0,0.95 0,0.5 0.5,0.95 0.5 ,0.5  0.5,0.5 0,0.5 1,0 0.5,0.5 0.5 ,-0.5 0.5,0 0.5 ,-0.5 0.5,-0.5 0,-0.5  0.5 ,-0.95 0,-0.5 0,-0.95 0,-0.95 0,-0.5 -0.5 ,-1 0,-0.5 -0.5,-0.5 -0.5 ,-0.5 -0.5,0 -0.5 ,-0.5  z" />
<path id="path3111" class="fil3" d="m 6.6732608,150.24049 -1,1.5 -1,0.95 -0.5,1.5  -0.5,1.4 0,1.5 0,1.5  0.5,1.4 0.5,1 0,1.4 0,1.95 -0.5,2.4 0,2.4 -0.5,2.4 -0.5 ,2.4 -1,1.5  -1,0.5 -1,-0.5 -1,-1 -0.5 ,-1.4 -0.5,-1.95 -0.5 ,-1.9 -0.5,-2.4 -0.5,-2.9 0,-2.88002 0,-1.95 0,-2.4 0,-2.4 0,-2.4 0,-2.9 0,-2.4 0,-1.9 0.5,-1.4 9.18403,7.26372 z" />
<path id="path3113" class="fil3" d="m 7.1527808,165.72794 0.5,-0.95 0.5,-1.5  0,-0.95 0,-0.95 0,-1 -0.5,-0.5 -0.5,-1.4 -0.5 ,-0.95 0,-1.5  0,-0.95 0.5 ,-0.5  1,-0.5 0.5 ,-0.5  1,-0.5 0,-0.95 0,-0.95 2.9,-0.95 2.9,-0.5 2.9,-0.5 3.4,0 3.4,0 3.4,0.5 3.4,0.5 3.4,0.5 -1.4,1.9 -1.5 ,1.95 -1,2.4 -1,2.4 0,2.9 -0.5 ,2.4 0,1.9 0,1.95 -2.4,-1 -2.4,-0.95 -2.9,-0.5 -3.4,-0.5 -2.9,-0.5 -3.4,0 -2.9,0 -2.4,0.5 z" />
<path id="path3115" class="fil3" d="m -16.557739,168.2 1.4,3.4 1.4,2.88003 2.4,2.9 2.4,2.4 3.4,1.9 3.4,1.5  3.9,1.5 3.9,1 1,0 1.5 ,0 1,0 1.4,0 1,0.5 1.4,0 1.4,0.5 1,0.5 1.9,0.5 2.4,0.5 1.9,0 1.5 ,-0.95 1.4,-0.5 1.5 ,-1.5  1,-0.95 0.5,-1.4 0.5 ,-2.9 -0.5 ,-2.9 -1.4,-2.4 -1.95,-2.4 -2.9,-1.95 -3.4,-0.95 -1.9,-0.5  -2.4,0 -2.4,0 -2.9,0.5  0,1.9 -0.5,1.5  -0.5,1.9 -0.5 ,1.5  -1,1.4 -1,1.5  -1.5 ,0.5 -1.4,0.5 -1.95,-0.5 -1.4,-1.5  -1.5 ,-1.5 -1,-1.95 -1,-1.9 -0.5,-1.95 -0.5 ,-1.9 -0.5,-1.95 -1.95,0 -1.4,0 -1,0 -1,0 -1.4,0.5 -1,0 -1,0.5 -1.4,0.5 z" />
<path id="path3117" class="fil3" d="m 27,188.5 1.95,-1.9 1,-1.5  1,-1.9 0,-2.4 0,-2.4 -0.5,-1.9 -0.5 ,-2.4 -1,-1.9 1.4,-0.5 1,-0.5 1.5 ,0 1,0 2.4,1 2.4,0.95 2.9,0.5 3.4,-0.5 1.4,-0.95 2.4,-1 1.95,-1.4 2.4,-2.4 1,1.5  1,0.95 0.5,1.4 0.5 ,1.5  0,0.95 0,1.5  -0.5 ,1.4 -0.5,0.95 -1.4,-0.5 -1.5 ,-0.5 -1,0 -1,0 -1,0.5 -0.5,0.95 0,1 -0.5 ,0.95 -1.4,2.4 -1.95,1.4 -2.4,1.4 -2.4,1.5  -2.9,0.95 -3.4,0.5 -3.4,0 -3.4,0.5  z" />
<path id="path3119" class="fil3" d="m 33.327731,166.68795 0.5 ,0.95 1,1 1,0.95 1.5 ,0.5 1.9,0 1.5 ,0 1.9,0 1.95,0 1.9,-1.5 1.95,-1.5  1,-1.4 1,-1.4 1,-1.5  0.5,-1.4 1,-1.5  0.5 ,-1.4 -0.5 ,-0.5 0,-0.5 -0.5,-0.5 -0.5 ,0 -0.5,-0.5 -1,-0.5 -0.5,0 -1,-0.5 -1,0.5 -1,0 -0.5,0.5 0,0.5 0,1 0,0.5 0,0.95 0.5,0.95 0,1.5  -0.5,0.95 0,0.5 -1,0.5 -0.5 ,0 -1,0 -1.5 ,0 -1.4,-0.95 -1.4,-0.5 -1.95,-0.5 -1.95,0 -1.4,0.5 -1,0.5 -0.5,1.5  0.5,2.4 z" />
<path id="path3121" class="fil1" d="m 44.462361,160.9 -0.5 ,-0.5 0,-0.95 -0.5,-0.95 0,-0.95 0.5,-1 0,-1.4 0.5 ,-0.95 0.5,-1 -2.4,-0.95 -1.9,-0.5 -1.95,0.5 -1.4,0.5  -1.5 ,1.5  -0.5 ,1.4 -0.5,1.95 0,1.9 1,-0.5 1.5 ,0 1,0 1.5 ,0.5 1.4,0.5 1.4,0.5 1,0.5 1,0 z" />
<path id="path3123" class="fil5" d="m -19.95,169.60049 -1.5 ,0 -1.4,0.5 -1.5 ,0 -1.4,0 -1.4,0 -1.5 ,0 -1.4,-0.5 -1.5 ,0 -1.4,0 -1.4,0.5 -1.5 ,0 -1.9,0.5 -1.5 ,0.5 -1.4,0.5 -1.95,0.95 -1.4,0.5 1.4,3.9 1.5 ,3.4 1.4,3.4 1.95,3.4 1.9,2.9 2.4,3.4 2.4,2.9 2.9,3.4 3.9,3.9 4.86384,3.9 4.8,3.4 4.8638298,2.9 5.31175,2.4 5.34336003,1.5  5.31174997,0.5 5.8237802,0 3.9,0 3.4,0 2.4,-1 1.95,-0.95 1.4,-0.95 1,-0.95 1,-1.5  0.5,-1.4 1.5 ,-2.4 1.4,-2.4 1.9,-2.4 1.95,-1.95 4.3509,-3.9 4.3518,-3.9 4.4,-3.4 3.4,-3.4 1.4,-1.9 1,-1.5  0.5,-1.9 0.5 ,-2.4 -2.4,2.4 -2.4,1.9 -2.4,1.5  -2.4,1.4 -5.34336,1.95 -5.8,1.4 -5.82378,0.5 -6.3042,-0.5 -6.27079,-0.95 -6.3042102,-1.5  -1.5 ,-0.5 -1.4,0 -1.4,0 -1.95,-0.5 -1.4,0 -1.5 ,-0.5 -0.95,0 -1,0 -1,0 -1,-0.5 -0.5 ,-0.5 -1.4,-1 -1,-0.5 -1.4,-0.95 -1.95,-0.95 -1.4,-0.5 -1.5 ,-1.4 -1.4,-1.5 -1,-1.5  -1,-1.4 -1,-1.5  -0.5 ,-1.9 -1,-1.5  -0.5,-1.4 z" />
<path id="path3125" class="fil6" d="m 112.26618,116.80008 1.95,-2.4 1.4,-1.9 1.95,-0.95 1.9,-1 1.95,-0.95 1.9,-0.5 1.95,-0.95 1.4,-1.5  2.4,-1.4 2.4,-0.5  2.4,0 2.9,0 2.4,0.5  2.4,0 1.95,0.5 1.95,0 -2.4,0.5 -1.5 ,0.95 -1.9,1 -1.95,0.95 -1.9,0.95 -2.4,0.5 -2.4,0 -2.9,0 -1.5 ,0 -1.4,0.5 -1.5 ,0.5 -1.9,0.95 -2.4,0.95 -2.4,0.95 -2.4,1 -2.4,1.5 z" />
<path id="path3127" class="fil6" d="m 111.8,118.75261 1.95,-1 2.4,-0.95 1.95,-0.95 2.4,-0.95 1.95,-0.5 1.95,-0.5 1.4,-0.5 1.4,0 3.9,0 3.4,-0.5 2.9,-0.95 2.4,-1 2.4,-1.4 1.9,-1.4 1.95,-1 2.4,-0.95 -1.4,1.95 -1.4,2.4 -1.95,1.95 -1.95,1.9 -1.9,1.95 -2.4,1.5 -1.9,1.5  -1.95,0.5 -2.9,0.5 -2.4,0.5 -2.4,0 -2.9,-0.5 -2.4,-0.5 -2.9,-0.5 -2.9,0 -2.9,-0.5  z" />
<path id="path3129" class="fil6" d="m 110.3463,96.4 1,0.5 1,0.5 1,0.5 1,0.95 0.5,0.5 1,0.5 1,0.5  1,0 -0.5 ,1 0,0.95 0,0.95 0,1 0,0.95 0,1.4 0.5 ,0.95 0.5,1 -1.5 ,0.5 -1.4,1.4 -1,1 -1.5 ,1.4 -1,1.4 -1.4,1.95 -1,1.5 -1,1.5  0,-2.9 0.5 ,-2.4 1.5 ,-2.4 1,-2.4 1,-2.4 0.5 ,-2.9 0,-1.5 -0.5 ,-1.95 -1,-1.9 -1,-1.95 z" />
<path id="path3131" class="fil6" d="m 102,90.176357 1.5 ,0.95 1.9,1.4 1,1.5  1.5 ,1.9 1,2.4 1,1.9 1,1.95 0,1.95 0,1.4 -0.5 ,1.9 -0.5,1.5  -1,1.9 -1,1.5  -1,2.4 -0.5,1.9 -0.5 ,2.4 0.5 ,-3.4 -0.5 ,-3.9 0,-3.9 -0.5,-3.9 -0.5 ,-3.9 -1,-3.4 -1,-3.9 -1,-2.880021 z" />
<path id="path3133" class="fil6" d="m 100.65113,88.704287 0.5 ,3.4 1,3.9 0.5,3.9 0.5,3.4 1,3.9 0.5 ,3.4 0,3.9 0,3.9 -0.5 ,-1.9 -1,-1.4 -1,-1.5  -1.4,-1.4 -0.95,-1 -0.5,-1.4 -1,-1.4 -0.5,-1.5  0,-1.9 0,-2.4 0.5,-1.95 0.5 ,-2.4 0.5,-2.4 0.5,-2.4 0.5 ,-1.9 0.5,-2.4 z" />
<path id="path3135" class="fil6" d="m 117.60954,138.1126 1,0.5  1,0 1,-0.5  1.5 ,0 1.9,-0.5 1.5 ,-0.95 1.9,-1 1.5 ,-0.95 -1.5 ,-2.4 -1.9,-2.4 -2.4,-2.9 -2.4,-1.95 -2.9,-1.9 -2.9,-1.5  -2.9,-0.95 -2.9,0.5 1.5 ,1.5  1.4,1.9 1.4,1.95 1.5 ,2.4 1.4,1.9 1,2.4 0.5 ,2.4 0,2.4 z" />
<path id="path3137" class="fil6" d="m 106.95,122.1447 1.9,1.4 1.5 ,1.95 1.4,1.9 1,1.95 1,2.4 1,1.95 0.5 ,2.4 0.5,2.4 -1,0.5 -1,0 -1,0 -1.4,0 -1,0 -1,0 -1,-0.5 -1,0 0,-1.9 0.5 ,-2.4 0,-1.95 0,-1.9 0,-1.95 -0.5 ,-2.4 0,-1.95 -0.5,-1.9 z" />
<path id="path3139" class="fil6" d="m 105.5,126 0.5,1.4 0,1.5  0,1.9 0,1.4 0,1.5  -0.5,1.9 -0.5 ,1.5  -0.5,1.5 -1.95,-0.5  -1.4,0 -1.95,-0.5 -1.9,-0.5 -1.95,-0.5 -1.9,-0.5  -1.95,-0.5 -1.4,-0.5 2.9,-0.5 2.4,-0.95 2.4,-0.95 1.95,-1 1.9,-1.5 1.5 ,-1.4 1.4,-1.5  1,-1.4 z" />
<path id="path3141" class="fil6" d="m 75.95,129.4 1.9,0.5 1.95,0.5 1.4,0.5 1.95,0.95 1.9,0.5 1.95,0.5 1.95,0 2.4,0 2.4,-0.5 1.9,-0.95 2.4,-0.95 1.95,-1.4 1.4,-1.5  1.5 ,-1.9 1,-1.5  0.5 ,-2.4 -1.4,-0.5 -1.5 ,-0.5 -1.4,0 -1.95,0.5 -3.4,0.5 -3.4,1.95 -3.9,1.4 -3.4,1.95 -3.9,1.4 -4.3518,1 z" />
<path id="path3143" class="fil6" d="m 100.65113,118.75261 -3.9,0.5  -3.9,0.95 -3.9,1.95 -3.9,1.4 -3.4,1.95 -2.9,0.95 -2.4,0.95 -1.4,-0.5 1.4,-0.95 1.4,-1 1,-1.4 1.4,-1.4 1.4,-1 1.5 ,-0.95 1,-1.5 1.5 ,-0.5 1.9,-0.95 1.5 ,-0.5 1.9,0 1.95,0 1.9,0.5 1.95,0 1.9,0.95 1.95,0.5 z" />
<path id="path3145" class="fil6" d="m 87.564111,115.4 1.95,-0.5 1.9,-0.5 1.95,0 1.9,0.5 1.95,0 1.9,0.95 1.5 ,0.5 1.9,1.5 -1,-1.5 -1,-1.4 -0.95,-1.5  -1.5 ,-0.95 -1,-1.5  -0.5,-1.9 -0.5 ,-1.95 -0.5,-1.9 -0.5,1.4 -1,1.5  -1,0.95 -1.5 ,1.4 -1,1 -1.4,0.95 -1,1.4 -1,1.5  z" />
<path id="path3147" class="fil6" d="m 81.259911,101.8 1,0 1.4,0.5 1,0.5 1,0.95 1,1 1,0.95 1,1.5 1,1.5  1,0 1,-1 0.5 ,-0.5 1,-0.95 0.5 ,-0.95 1,-0.95 0.5,-1.5  1,-0.5 1,-3.9 0,-2.9 0,-0.95 -1,-0.5 -0.5,-0.5 -1,-0.5 -1.4,-0.5 -1.95,0.5 -1.9,1 -1.5 ,1.4 -0.5,0.95 -0.5 ,1 -0.5,0.95 -1,0.5 -0.5,0.95 -1,0.5  -1.4,1 -1,0.5 z" />
<path id="path3149" class="fil6" d="m 80.3,112.4 0,-0.5  0.5,-0.5 0.5 ,-0.5 0.5,-0.95 0.5,-0.5 0.5 ,-0.95 1,-0.5 1,-0.5 -0.5 ,-1.4 -1,-0.95 -1,-0.5  -1,-0.5 -1,-0.5 -1.4,0.5 -1,0.5 -0.5 ,0.95 -0.5,1.5 -0.5 ,1 0.5 ,0.95 0,0.5 1,0.95 0.5,0.5 1,1 1,0.5  z" />
<path id="path3151" class="fil6" d="m 81.259911,113.88845 0.5,-0.95 0.5,-0.5 0.5 ,-0.95 1,-0.5 0.5,-0.95 1,-0.5 0.5,-0.5 1,-0.95 0.5 ,0.95 0.5,0.5 0,0.95 0.5 ,1 -0.5 ,0.5 0,0.95 -0.5,0.95 -1,1 -1,0.95 -1,0 -0.5,0 -0.5 ,0 -0.5,-0.5 -0.5 ,-0.5 -0.5,-0.5 -0.5,-0.5 z" />
<path id="path3153" class="fil3" d="m 83.212301,116.80008 -3.9,0 -3.9,-0.95 -3.4,-1.5  -2.9,-1.4 -2.4,-1.4 -2.4,-1.5  -1.5 ,-0.5 -1.4,0 -0.5,1.4 0,1.5  0,1.9 0.5,1.95 0.5 ,1.9 0.5,1.95 0,1.95 -0.5,1.9 1,0.5  1,1 1.5 ,0.5 1.4,0.95 1,0 1.4,0.5 1.4,0 1.95,0 1,-1.4 1.5 ,-1.5  1.4,-1.4 1,-1.5  1.5 ,-0.95 1.4,-1.4 1.4,-1 1.5 ,-1.4 z" />
<path id="path3155" class="fil1" d="m 14.416931,119.71262 1,-0.5 1,-0.5  1,0 1.5 ,0 1,0 1,0 1.5 ,-0.5 1,0 -0.5,-0.95 0,-0.95 0,-1.4 -0.5 ,-1 -0.5,-1.4 -0.5,-0.95 -1,-0.5 -1.9,0 -1.5 ,0 -1.4,1 -0.5 ,0.95 0,1.4 0,1.5  0,0.95 0,1.4 -0.5,1.5  z" />
<path id="path3157" class="fil1" d="m -31.6,116.80008 1.5 ,0.5 1,0.5 1,0.5 1.5 ,0.5 1,0.5  1.4,0.5 1,0.95 1,0.5 0,-1.4 0.5 ,-1.5  0,-1.9 0,-1.4 -0.5 ,-1.95 -0.5,-0.95 -1,-1 -1.5 ,-0.95 -1,0 -1.5 ,0.5 -0.5 ,0.5 -1,1.5  -0.5,0.95 -0.5 ,1.5  -0.5,0.95 -1,0.95 z" />
<path id="path3159" class="fil3" d="m -99.9,103.71219 2.4,0 2.4,1 1.95,1.9 2.9,1.5  2.4,2.4 2.9,1.95 2.9,1.4 3.4,1.5  3.4,0.5 2.9,0 2.9,-0.5 2.9,-1 2.9,-1.4 3.4,-2.4 3.9,-2.9 4.4,-3.9 0,1.5  -0.5,1.9 -0.5,1.5  -0.5 ,1.4 -0.5,1.5  -1,1.4 -0.5 ,0.95 -0.5,1.5  -6.8,1.9 -6.8,2.4 -7.26415,3.4 -6.8,2.9 -5.82378,3.4 -5.31175,2.4 -4.4,1.95 -2.9,0.95 0,-1.9 0,-1.95 -1,-1.5 -0.5 ,-1 -1.4,-0.95 -1,-0.95 -1.4,-0.95 -1.4,-0.5 2.4,-0.5 2.4,-0.95 1.95,-0.95 1.9,-1 1,-1.4 1,-0.95 1,-1.5  0.5,-1.5 0,-2.9 -0.5,-2.9 -1.5 ,-3.4 -1.4,-3.4 z" />
<path id="path3161" class="fil3" d="m -99.4,100.8 2.4,0.5 1.9,0.5 2.4,0.95 1.95,1.5  1.9,1.4 1.95,1.9 1.9,1.5  1.95,0.95 0,-1.9 0,-1.5  0,-1.9 0.5,-1.5  0.5 ,-1.4 1,-0.95 1,-1 1,-0.5 -1.95,-0.5 -1.4,-0.95 -1.95,-1 -1.9,-0.95 -1.95,-0.95 -1.4,-1.4 -1.95,-1 -1.4,-0.95 -1.95,0.5 -1.4,0.5 -1.4,1 -0.5,1.4 -1,0.95 0,1.5  0,1.4 0,1.95 z" />
<path id="path3163" class="fil1" d="m -73.226039,108.57635 -0.5,0 -1,-0.5 -1,-0.5 -1,-0.5 -1,0 -1,-0.5 -1,0 -1,0 0,-0.95 0,-0.95 0.5,-1 0,-0.95 0.5 ,-0.95 1,-0.5 0.5,-0.5 1.5 ,0.5 1.4,0.5 0.5 ,0.95 0.5,0.95 0.5 ,1 0,0.95 0.5,0.95 0,0.95 0,1 z" />
<path id="path3165" class="fil6" d="m -101.31997,105.18427 1,1.4 0.5,1.95 0.5 ,1.4 0.5,1.5  0.5 ,1.9 0,1.5  -0.5 ,1.9 -1,1.4 -0.95,1.5  -1.5 ,0.95 -1.9,0.95 -1.95,0.5 -1.9,0.95 -1.95,0 -1.4,0.5 -1.5 ,0 1.95,-1.95 1.9,-2.4 1.95,-1.95 1.95,-2.4 1.4,-2.4 1.4,-2.4 1,-2.4 0,-2.4 z" />
<path id="path3167" class="fil6" d="m -115.4,123.1047 1.4,-1.5  1.95,-1.9 1.9,-1.95 1.95,-2.4 1.4,-2.9 1.95,-2.9 1,-2.9 1,-2.9 -1,-0.5 -1.4,0.5 -1.5 ,0.5 -1.4,0.95 -1,0.95 -1.4,0.95 -1,1 -1,0.95 -0.5 ,1.4 -0.5,1.95 -0.5 ,1.4 0,1.95 -0.5,1.9 0,1.95 -0.5 ,1.4 -0.5,1.95 z" />
<path id="path3169" class="fil6" d="m -116.35849,115.4 0.5,-1.95 0.5 ,-1.4 0.5,-1.95 1,-1.4 0.5 ,-1.5  1,-0.95 1,-0.95 0.5,-1.5  1.4,-0.5 1,-0.5 1.4,-0.5 1,-0.5 1.5 ,-0.5 1.4,0 1,0 1,0.5 0.5,-1.5  -0.5,-0.95 -0.5 ,-1.4 -0.5,-1 -0.5,-0.95 -1,-0.95 -1,-0.5 -1.5 ,0 -0.5 ,0.95 -0.5,0.95 -0.5 ,1 -1,0.95 -0.5,0.95 -1,0.95 -1,0.5 -1,0.5 -1,0.95 -1.9,0.5 -1.95,0.95 -2.4,0.5 -2.4,0 -1.95,0 -1.9,0 -1.95,-0.5 1.95,1 1.4,0.95 1.5 ,1.5 1.4,1.5  1.4,1.4 1.5 ,1.5  1,1.9 1,1.95 z" />
<path id="path3171" class="fil6" d="m -152.67652,110.5 2.9,-0.95 2.9,-1.4 3.4,-1 2.9,-0.5 2.9,-0.95 3.4,0 2.4,0 2.4,0.5 2.4,0.95 2.4,1 1.95,1.9 1.9,1.95 1.5 ,2.4 1.4,1.95 1,2.4 0,2.4 -2.9,-2.4 -3.4,-2.4 -3.9,-2.4 -4.3509,-1.9 -4.35181,-1.5  -5.34426,-0.95 -5.8,0 -5.82378,0.95 z" />
<path id="path3173" class="fil6" d="m -153.15604,113.4 2.9,-1.4 3.9,0 4.8,0 4.86384,0.95 4.8,1.95 5.34336,1.9 4.35181,2.9 4.3518,3.4 -3.4,-0.95 -2.9,-1 -2.9,0 -2.4,0 -2.4,0 -2.4,0 -1.9,0 -1.95,0 -1.9,-0.95 -1.95,-0.95 -1.9,-1 -1.95,-0.95 -1.95,-1.4 -1.4,-0.95 -1.95,-1 -1.9,-0.5 z" />
<path id="path3175" class="fil6" d="m -117.31844,125 -3.4,-0.95 -2.9,-0.5 -2.9,-0.5 -2.9,0 -2.4,0.5 -2.4,0 -1.9,0.95 -1.95,0.5 -1.9,1.5  -1.5 ,1.5 -1.4,1.5  -1.5 ,1.5 -1,1.95 -1.4,1.4 -1.5 ,1.4 -1.4,1.5  3.4,-0.95 3.9,-1.5  4.3518,-2.4 4.35181,-1.9 3.9,-2.4 4.3518,-1.5 4.35181,-0.95 3.9,-0.5 z" />
<path id="path3177" class="fil6" d="m -149.76508,138.6 3.9,-0.5  4.3518,-1.4 4.35181,-2.4 4.4,-1.95 4.3518,-1.9 3.9,-1.95 3.9,-0.95 2.9,0 -1,1.5  -1,1.4 -1,1.9 -1,1.5  -1.5 ,1.4 -1,1.5  -1.4,0.95 -1,0.5 -3.4,0.95 -2.9,1 -2.9,0 -3.4,0 -2.9,-0.5 -2.9,-0.5 -2.4,0 -2.4,-0.5 z" />
<path id="path3179" class="fil6" d="m -119.75035,132.28844 0,1.5  0,0.95 0,1.5  0,0.95 0.5,0.95 0,0.95 0.5 ,1 0.5,0.5 -1.95,0.95 -1.4,0.5 -1.95,0.5 -1.4,0 -1.4,0 -1.5 ,0 -1.4,-0.5 -1.5 ,-0.5 1.95,-0.5 1.9,-0.5 1.5 ,-0.95 1.9,-1 1,-0.95 1.4,-1.5 1,-1.95 0.5,-1.95 z" />
<path id="path3181" class="fil6" d="m -116.35849,127.95 -0.5,1.5  -0.5 ,1.9 -0.5,1.95 0,1.4 0,1.95 0,1.4 0.5,1.5  0.5 ,0.95 1,0 1,-0.5 1,0 0.5 ,-0.5 1,-0.5 0.5,-0.5 1,0 1,-0.5  0,-0.95 -0.5,-1.5  -1,-1.4 -1,-0.95 -1,-1.5  -1.4,-1.5 -1,-0.95 -0.5,-1.5  z" />
<path id="path3183" class="fil6" d="m -115.4,125.53678 0.5,1.5 1,1.4 1,1.5  1,1.4 1.4,1.5  1,1.4 1,1.4 0.5 ,1.5  0.5,0 1,0 0.5 ,-0.5 0.5,0 0.5,0 0.5 ,-0.5  0.5,0 0.5 ,0 0,-2.4 -1,-2.4 -1,-1.4 -1,-1.5  -1.9,-1.4 -1.95,-0.5 -2.4,-0.5 -2.4,-0.5 z" />
<path id="path3185" class="fil6" d="m -150.2446,88.224727 -3.4,-2.9 -3.9,-2.4 -3.4,-1.95 -2.9,-1.95 -3.4,-1.4 -2.9,-1.95 -2.9,-1.4 -2.4,-2.4 -1,-0.95 -0.5 ,-1.4 -0.5 ,-1.5  0,-1.9 0,-1.5  0.5 ,-1.5 0.5 ,-1.4 1,-1 2.4,-0.95 1.95,0.5  1,0.5 1,1.5  1,1.5 1,0.95 1,0.5 1.5 ,0 1,-1.4 0.5 ,-1.5 -0.5 ,-1.5  -1,-1.4 -1.5 ,-1 -1.4,-0.5 -1.95,-0.95 -2.4,0 -1.5 ,0 -1.4,0.5 -1.95,0.5 -1.4,1 -1,0.95 -1.5 ,1.4 -0.5 ,1 -0.5 ,1.5 -0.5 ,3.4 0,2.4 1,2.4 1.4,2.4 1.5 ,2.4 1.9,1.9 1.95,1.5  1.9,1.9 2.4,1.95 2.9,1.4 2.9,1.5  2.9,0.95 3.4,0.95 2.9,0 2.4,0 2.4,-0.5  z" />
<path id="path3187" class="fil6" d="m -172,61.600107 0.5 ,0.95 0.5 ,0.95 0.5 ,0.95 0.5 ,1 1,0.95 1,0.5 1,0.5 1.4,0 -1,0.95 -1,0.5 -1,0.95 -1,0.5 -1,0 -1,0.5 -1,-0.5 -1,-0.5 -0.5 ,-0.5 -0.5 ,-1 -0.5 ,-0.95 -0.5 ,-1.4 0,-1 0.5 ,-1.4 1,-0.95 1.95,-0.95 z" />
<path id="path3189" class="fil6" d="m -160.9,59.648477 -0.5 ,2.9 -0.5,1.9 -1,1.95 -1,1.9 -1.4,1 -1.5 ,1.4 -1.9,0.95 -1.95,0.5 3.4,1.9 3.4,1.95 3.4,1.9 3.9,1.95 3.4,2.4 2.9,1.95 2.4,1.9 1.5 ,1.95 2.4,-0.95 2.4,-0.5 1.95,-1 1.4,-1.4 1,-0.95 0.5,-1.5  -0.5,-1.4 -1,-1.5  -2.9,-0.95 -2.9,0 -1.95,0 -2.4,0 -1.9,0 -1.5 ,0 -1.4,-0.5 -1.4,0 -1,-0.5 0,-0.95 0.5 ,-1 0.5,-0.95 1,-1.4 1,-1.5  0.5,-1.4 0,-1.95 -0.5,-0.95 -1,-1.5 -1,-1 -1.5 ,-1.5 -1,-0.95 -1.5 ,-1 -1.4,-0.95 -1,-0.5  z" />
<path id="path3191" class="fil6" d="m -152.67652,75.1 1.4,-2.4 1.5 ,-2.4 1,-2.9 1,-2.4 1.5 ,-2.4 1.4,-2.9 1.5 ,-2.4 1.9,-1.9 2.4,-1.95 1.9,-1.4 2.4,-0.5 2.4,-0.5 1.9,-0.5 2.4,0 2.4,-0.5 1.9,-0.95 -2.9,3.4 -3.4,3.4 -3.9,3.4 -3.4,3.4 -3.9,3.4 -3.9,2.9 -3.9,3.4 -3.9,2.88002 z" />
<path id="path3193" class="fil6" d="m -152.2,75.616397 4.35091,-2.4 4.4,-2.4 3.9,-3.4 3.4,-3.4 3.9,-3.4 3.4,-3.4 2.9,-3.4 3.4,-2.9 -0.5,2.4 -0.5,2.9 -0.5 ,2.9 -0.5,2.9 -1,2.88002 -1,2.4 -1.5 ,2.4 -1.9,1.4 -1.95,1.95 -2.4,0.95 -2.9,0.5 -2.9,0 -2.9,0.5 -3.4,0 -2.9,0.5 -2.9,0 z" />
<path id="path3195" class="fil6" d="m -138.62955,76.608017 1,0.5 1,0.95 0.5 ,0.5 0.5,1 0.5 ,0.95 0,0.95 0,0.95 0,1.5  2.9,-1.95 2.9,-1.9 2.4,-2.9 1.95,-2.4 1.4,-2.9 1,-3.4 0.5 ,-2.88002 -1,-2.9 -1,3.4 -1.4,2.9 -1.5 ,2.4 -1.4,1.95 -1.95,0.95 -1.9,0.95 -2.9,1 -3.4,0.5  z" />
<path id="path3197" class="fil6" d="m -121.2,54.815927 0,2.88002 0,2.9 0.5,2.9 0.5 ,2.9 1,2.4 1.9,2.4 1.95,2.4 2.9,1.9 1.95,1 1.95,0.95 1.9,0.95 2.4,0.5 1.9,0.5 2.9,0.5 2.9,0 3.4,-0.5 -3.9,-2.4 -3.4,-2.4 -3.9,-2.9 -3.4,-3.4 -3.9,-3.4 -3.4,-3.4 -2.9,-3.42369 -3.4,-3.4 z" />
<path id="path3199" class="fil6" d="m -120.7103,51.9 2.9,3.9 3.4,3.4 3.9,3.9 3.4,3.4 3.9,3.4 3.9,2.9 3.4,2.88002 2.9,2.4 -0.5 ,-1.9 0,-1.95 0,-1.9 0,-1.95 -0.5,-1.95 -1,-2.4 -1.9,-2.9 -2.9,-2.9 -1.9,-1.5 -1.95,-1.5  -2.4,-0.95 -2.4,-0.95 -2.4,-0.5 -2.9,-1 -3.4,-0.95 -3.4,-0.95 z" />
<path id="path3201" class="fil6" d="m -119.75035,50.9 1.95,0 2.4,0.5 1.9,0.5 2.4,0.5 1.9,0.5 1.5 ,0 1.4,-0.5 1.5 ,-0.95 1.9,-1 2.4,-1.4 1.4,-2.4 1.95,-2.4 1.4,-2.9 1.5 ,-2.4 1.4,-2.9 1.5 ,-1.9 -2.9,2.4 -3.4,1.95 -3.9,1.9 -3.9,1.95 -3.9,1.4 -3.9,1.95 -3.4,2.4 -3.4,2.88002 z" />
<path id="path3203" class="fil6" d="m -121.2,49.5  1,-0.5 1.5 ,-0.5 1,-0.95 1.95,-1 1.4,-1.4 1.4,-0.95 1.5 ,-1.5  1.4,-0.5 1.95,-0.95 1.9,-1 2.4,-0.95 2.4,-0.95 1.9,-0.95 1.95,-1 1.9,-0.95 1.95,-1.5 -2.4,0 -2.4,0 -2.4,0 -2.4,0.5 -2.4,0.5 -1.9,0.5 -2.4,0.95 -2.4,1.5  -1,0.95 -1.4,1.4 -1,1.5  -1.5 ,1.4 -1,1.5  -1,1.5 -1,1.95 -1,1.5 z" />
<path id="path3205" class="fil6" d="m -121.2,46.560597 1,-2.4 1.5 ,-2.4 1.9,-1.95 1.5 ,-1.9 1.9,-1.5  1.5 ,-1.4 1.9,-0.95 1.95,-1 -1.5 ,0 -1.4,-0.5 -1,-0.95 -0.5,-0.95 -1,-2.4 -0.5 ,-2.4 0,-2.88003 -0.5,-2.9 -0.5 ,-2.9 -1,-1.95 -1.95,1 -1.4,1.4 -1.5 ,0.95 -1,1.5  -1.5 ,3.9 -1,3.9 0,4.3521 0.5 ,4.8 1,4.86325 1.4,4.8 z" />
<path id="path3207" class="fil6" d="m -106.66333,21.855977 1,0 1,0 1,0.5 1,0.5 0.5,0.5  0.5,0.95 0.5 ,0.95 0,0.95 0,0.5 -0.5 ,0.95 -0.5,0.95 -0.5,0.5 -1,0.5  -1,0.5 -1,0 -1,0.5 -1,-0.5 -1,0 -1,-0.5 -0.5 ,-0.5  -1,-0.5 -0.5,-0.95 0,-0.95 0,-0.5 0,-0.95 0,-0.95 0.5,-0.95 1,-0.5  0.5 ,-0.5 1,-0.5 1,0 1,0 z" />
<path id="path3209" class="fil6" d="m -114.4,13.152697 0,0.95 0.5,0.95 0.5 ,1 0.5,0.95 0,1.5 0.5 ,1 0.5,1.4 0,0.95 0.5 ,-0.95 1,-0.5 1,-0.5 1,-0.5  1.4,0 1,0 1,0 1,0 0.5 ,-3.4 -0.5 ,-2.9 -1,-1.95 -1,-0.95 -1.4,-0.5  -1.95,0.5  -2.4,0.95 -2.4,1.95 z" />
<path id="path3211" class="fil6" d="m -102.31152,20.416427 1,0.95 0.5,0.5 0.5 ,1 0.5,0.95 0,0.95 0,1.5 0,1 0,1.4 1.4,-1.9 0.5,-1.95 0.5,-2.4 0,-2.4 -0.5,-2.9 -0.5,-2.9 -0.5 ,-2.4 -0.5,-2.8800204 -1.9,-0.5 -1.5 ,0.5 0,0.95 0,1.4 0.5,1.95 0.5,2.4 0,2.4 -0.5,2.4 z" />
<path id="path3213" class="fil6" d="m -110,7.8080763 -2.9,1.95 -3.4,1.9 -2.4,2.4 -2.4,1.95 -1.95,2.88002 -1.4,2.4 -0.5 ,3.4 -0.5,2.9 -1,-1.5  -1,-0.95 -1,-1.5 -1,-0.95 -1,-1.5  -1,-0.95 -1,-0.95 -1,-0.5 1.9,-2.4 2.9,-1.95 2.9,-1.9 2.9,-1.5  3.4,-1.4 3.4,-0.95 2.9,-1 2.9,0 z" />
<path id="path3215" class="fil6" d="m -144.45333,16 2.4,4.3521 2.9,3.9 2.4,3.4 2.9,3.9 2.9,3.9 2.9,3.9 2.4,3.9 2.4,4.4 -0.5,-1.95 -0.5 ,-2.4 -0.5,-2.4 0,-1.95 -0.5 ,-2.4 -0.5,-2.4 -0.5 ,-2.4 -1.5 ,-2.9 -1,-2.4 -1.95,-2.4 -2.4,-1.95 -2.4,-1.9 -2.4,-1.5  -2.4,-0.95 -2.4,-0.95 -1.95,-0.5 z" />
<path id="path3217" class="fil6" d="m -146.37322,17.503897 1.9,2.9 2.9,3.4 2.4,3.9 2.9,3.4 2.4,3.9 2.4,3.4 2.4,3.4 2.4,3.4 -1.95,-1.5  -1.95,-0.95 -1.9,-0.95 -1.95,-0.95 -1.9,-1.5  -1.95,-1.5 -1.9,-1.5  -1.5 ,-1.4 -1.4,-2.4 -1,-2.4 -1,-1.95 0,-2.4 -0.5,-1.9 -0.5 ,-2.4 0,-1.9 -0.5,-1.95 z" />
<path id="path3219" class="fil6" d="m -145.41327,32 0.5,1.5  1,0.95 0.5,1.4 1,0.95 0.5 ,1 1,1.5 1,0.95 1.4,1 1,0.95 1.5 ,0.95 1.4,0.5  1.5 ,0.5 1.9,0.95 1.5 ,0.5 1.9,0.95 1.5 ,1.5  -1.5 ,0.5 -1.9,0 -1.95,0.5 -1.95,0.5 -1.9,0 -1.95,0.95 -1.9,0.5 -1.5 ,1 -1.4,1.4 -1.4,1.95 -1.5 ,1.9 -1,1.95 -1,1.9 -1,1.95 -1,2.4 -1,1.5 -1.5 ,-1.5 -1.4,-1.95 -1.4,-1.9 -1.5 ,-1.95 -1.9,-1.5  -2.4,-1.4 -2.4,-0.95 -2.9,-0.95 2.9,-1.95 2.4,-1.95 2.9,-1.4 2.9,-1.9 2.9,-2.4 2.4,-2.9 1.95,-4.35209 1.9,-5.82416 z" />
<path id="path3221" class="fil6" d="m -148.32471,33.504307 -1,2.88002 -1,2.4 -1.5 ,2.9 -1.9,1.9 -2.4,1.95 -1.9,1.95 -2.4,1.9 -2.9,1.4 -2.4,1 -2.4,0.5 -2.9,0 -2.9,0.5 -2.9,-0.5 -2.4,0 -2.9,0 -2.9,0 4.3518,-2.9 5.34363,-2.4 5.8,-2.88002 5.8236,-2.4 5.31166,-2.4 4.4,-2.4 3.4,-1.9 2.4,-1.4 z" />
<path id="path3223" class="fil6" d="m -187,51.9 3.9,-2.9 4.86374,-2.9 4.8,-2.4 5.34363,-2.4 4.8,-2.4 4.8,-1.95 4.86357,-2.4 4.3518,-1.95 -2.4,-0.5 -2.9,-0.95 -2.9,-0.5 -2.9,0 -2.9,-0.5 -2.9,0.5 -2.4,0.5 -2.4,0.95 -2.4,1.95 -2.4,2.4 -2.9,2.9 -2.4,2.9 -1.95,2.9 -1.9,2.4 -1.5 ,2.4 -0.5 ,1.95 z" />
<path id="path3225" class="fil6" d="m -171,29.120607 3.4,-0.95 2.9,0 3.4,0 3.4,0.5 2.9,0.5 3.4,0.5  2.9,1 2.9,0.95 -1,-1.95 0,-1.9 -0.5,-1.95 0,-1.9 -0.5,-1.95 0,-1.9 -0.5 ,-1.95 -0.5,-2.4 -2.4,1.95 -2.9,1.95 -2.9,1.4 -2.9,1.95 -2.9,1.5 -2.9,1.4 -2.4,1.95 -2.9,1.4 z" />
<path id="path3227" class="fil6" d="m -144.45333,-1.8877237 -1,2.4 -0.5 ,2.4 -0.5,1.9 -0.5 ,2.4 -0.5,2.4 -1,1.9 -1.9,1.95 -1.95,1.9 -1.9,1 -1.95,0.95 -1.9,1.4 -2.4,1.5  -2.4,1.4 -2.4,1.5  -2.4,1.4 -1.95,1.5 2.9,-5.3121 2.9,-4.8 2.9,-3.9 3.4,-3.3595704 2.9,-2.9 2.9,-2.9 3.4,-2.4 3.9,-2.4 z" />
<path id="path3229" class="fil6" d="m -144.95,-2.8477237 -4.35181,2.9 -3.9,2.9 -3.9,2.9 -2.9,3.4 -2.9,3.4 -2.9,3.4 -1.9,3.4 -1.95,3.4 -0.5 ,-1.5  -0.5 ,-1.9 0.5 ,-2.4 0.5 ,-2.4 1,-2.9 1,-2.4 1.4,-2.4 1,-1.95 1.9,-1.4 2.4,-1.95 2.4,-1.4 2.9,-1.5 2.9,-1 2.9,-0.5 2.4,0 2.4,0 z" />
<path id="path3231" class="fil6" d="m -210.8,17.984347 4.8,0.5 4.35171,0.5 4.86366,0 4.8,0 4.8,1 4.86375,0.95 4.8,1.4 4.8,2.4 -0.5 ,-1.9 -1,-1.95 -1.4,-2.4 -1.95,-2.4 -2.4,-1.95 -1.9,-1.4 -2.9,-1.5  -2.4,-0.5  -3.4,0 -3.4,0 -3.4,0.5  -3.3598,0.95 -3.4,1 -2.9,1.5 -2.4,1.95 -1.4,1.4 z" />
<path id="path3233" class="fil6" d="m -212.25652,20.9 1.95,0.5 2.4,1.5  2.9,1.9 2.4,1.5 2.9,1.95 2.4,1.4 2.9,1.5  2.9,0.95 2.4,0.5 2.9,0 2.9,0 2.9,0 2.9,-0.5 2.4,-0.95 1.9,-1.5  1,-1.9 -3.9,-1.95 -4.86365,-1.4 -4.8,-0.95 -5.34372,-1 -5.8,-0.5 -5.34363,-0.5 -5.31166,-0.5 -4.86365,0 z" />
<path id="path3235" class="fil6" d="m -144.95,13.152697 0.5 ,-0.5 1,0 1.4,0 1.5 ,0.5 1.4,0.5 1.4,0.95 1.5 ,0.5 1.4,1 -1,-2.4 -0.5,-2.4 -0.5 ,-2.4 -0.5,-2.9 -0.5,-2.4 -1,-2.4 -0.5 ,-2.4 -1,-2.4 -1,1.4 -1,1.95 -1,1.9 -0.5 ,2.4 -0.5,2.4 0,2.4 -0.5,2.4 -0.5 ,1.95 z" />
<path id="path3237" class="fil6" d="m -138.14913,-5.2472937 1,0.5 1,0.95 1,0.5 1.4,0.5 1,0.5 1,0.5 1,1 1.5 ,0.5  -0.5,1.5 -0.5,1.95 -0.5,1.9 0,2.4 -0.5 ,2.4 0,1.9 -0.5,1.5  -1,0.95 -0.5 ,-1.4 -1,-2.4 -0.5 ,-2.4 -0.5,-2.4 -0.5 ,-2.9 -1,-2.4 -0.5,-2.9 -1,-2.4 z" />
<path id="path3239" class="fil6" d="m -128.95,12.2 0,-1.5 0,-1.9 0.5,-1.95 0,-1.4 0.5 ,-1.95 0,-1.4 0.5,-1.5  0.5 ,-1.9 -1,-0.5 -1,-0.5 -0.5 ,-0.95 -1,-0.5 -1,-0.5  -1,-0.95 -1,-0.5 -1,-0.5 1,-0.95 1,-0.5 0.5 ,-0.95 1,-0.5 1,-0.95 0.5,-0.95 1,-0.5 1,-0.95 -0.5,-2.9 -0.5 ,-2.9 0,-3.4 -0.5,-3.4 0,-3.4 0,-3.4 0.5,-2.9 0.5 ,-3.4 1,2.9 1.5 ,2.4 1.4,2.4 1.95,1.5  1.4,1.4 1.95,1.5  1.4,0.95 1.95,0.5 3.9,0.95 4.35181,0 3.9,-0.95 4.8,-1.5 0,1.5 0,1.4 0,1.5  0,1.4 0,1 0,1.4 0,1.4 0,1.5  -2.4,1.4 -1.95,1.5  -2.4,1.4 -2.9,1.4 -2.4,1 -3.4,0.5 -2.9,0.95 -3.4,0.5  2.9,0 2.4,1 2.9,0.5 2.4,0.95 2.4,0.95 2.4,0.95 2.4,1.5  2.4,1.5 0,1 0,0.5 0,0.5 0,0.95 0,0.5 0,0.5 0,0.5 0,0.95 -3.9,-0.5 -3.9,-0.5 -3.9,0.5 -3.9,0.5 -3.9,0.5 -3.4,1.4 -3.4,1.95 -2.9,1.9 z" />
<path id="path3241" class="fil6" d="m -111.5,-6.2398137 1.9,-0.5  1.5 ,-0.5 1.4,-0.5 1.5 ,-0.95 1.9,-0.5 1.5 ,-0.95 1.9,-0.95 1.4,-1.4 1,0.5 0.5 ,0.5  0.5,0.95 0.5 ,0.5 0.5,0.5  1,1 0.5 ,0.5 1,0.5 -1,0.95 -0.5 ,0.5  -0.5,1 -0.5 ,0.5 -0.5,0.95 -0.5 ,0.5 -0.5,0.95 -1,0.5 -1.5 ,-0.5 -1.9,-0.95 -1.95,-0.95 -1.4,-0.5 -1.95,-0.5 -1.4,-0.5 -1.95,-0.5 -1.4,0 z" />
<path id="path3243" class="fil6" d="m -111.5,-33.856053 1.9,0.5 1.5 ,0 1.4,-0.5 1.5 ,-0.95 1.9,-0.95 1.5 ,-0.95 1.9,-1 1.4,0 -1,-1.5 -0.95,-0.95 -1.4,-1 -1,0 -1,0 -1.4,0.5 -1,0.5 -1,0 -1,0.5 -1,0.5 -1,0.5 -1,0.95 -0.5,1 -0.5 ,0.95 0,0.95 0.5 ,0.95 z" />
<path id="path3245" class="fil6" d="m -111.95,-31.423973 1.9,0.5 1.95,0 1.9,-0.95 1.5 ,-0.5 1.4,-0.95 1.5 ,-1 1.4,-0.5 1.4,-0.5 0.5 ,0.95 0,1 0.5,0.95 -0.5,0.95 -0.5 ,0.95 -0.5,1 -1.4,0.95 -1.95,0.5 -2.4,0.5 -1.95,0 -1.4,-0.5 -1,-0.5 -1,-0.5 -0.5 ,-0.95 -0.5,-1 -0.5 ,-0.5 z" />
<path id="path3247" class="fil6" d="m -130.4,-37.727693 0,2.4 -0.5,1.95 0,2.4 0,2.4 0,2.4 0,2.4 0.5,1.95 0,1.9 -1,0 -1,0 -1,-0.5 -1.5 ,-0.5  -1,0 -1,-0.5 -1,-0.5 -1.4,-0.5 0,-1.5  -0.5,-1.9 0,-1.5  -0.5 ,-1.9 0,-1.95 0.5 ,-1.9 0,-1.5  0.5,-1.9 1,-0.5 1,-0.5 1,0 1.4,-0.5 1,0 1,0 1,0 1.4,0 z" />
<path id="path3249" class="fil6" d="m -141,-36.255623 -0.5 ,1.5 -0.5,1.95 0,1.4 0,1.95 0,1.4 0,1.95 0.5,1.9 0.5 ,1.5  -1.4,0 -1.4,0 -1.5 ,-0.5 -1,0 -1.5 ,-0.95 -1,-0.95 -0.5 ,-1.95 0,-2.4 0.5 ,-1.95 0.5,-1.9 1,-1 1.4,-0.95 1,-0.5 1.5 ,0 1.4,-0.5 1,0 z" />
<path id="path3251" class="fil6" d="m -149.76508,-34.816063 2.4,-1.5 2.4,-0.95 2.9,-1 2.9,-0.95 2.9,-0.5 2.9,0 2.9,-0.5 2.9,0.5 0,-3.4 1,-2.9 1,-2.9 1.4,-2.4 1.5 ,-2.4 1,-2.4 0,-1.9 0,-1.5  -5.82378,2.4 -4.8,2.9 -3.9,2.88002 -3.9,3.4 -3.4,3.4 -2.4,2.9 -2.4,3.4 -1.4,3.4 z" />
<path id="path3253" class="fil6" d="m -121.2,-61.9 -3.4,1.4 -3.9,1.9 -3.9,1.95 -3.9,2.9 -3.4,2.9 -3.9,3.9 -3.4,3.9 -3.4,4.35209 0,-1.9 0,-2.4 0.5 ,-2.4 1,-1.9 0.5,-2.4 1,-1.95 1.4,-1.9 1,-1.5  1.95,-1.4 2.9,-1.4 2.9,-1 3.4,-0.5 3.4,-0.95 3.4,-0.5 2.9,-0.5 2.9,-0.5 z" />
<path id="path3255" class="fil6" d="m -130.4,-16.416073 -3.4,0 -3.9,0.5 -4.3518,0.95 -4.35181,0.95 -3.9,0.95 -3.9,0.5 -1.95,0 -1.4,0 -1,-0.5 -1,-0.5  1.5 ,-1.4 1.4,-0.95 1.4,-1.5  1.5 ,-0.95 1.4,-0.95 1.5 ,-1 1.4,-0.5  1.4,-0.5 2.4,0 1.95,0 1.9,0.5 2.4,0.5  2.4,0.5 1.9,1 2.4,1.4 1.9,0.95 z" />
<path id="path3257" class="fil6" d="m -159.95,-11.551914 4.35198,0.95 4.35181,0 4.4,-0.95 4.35181,-0.95 3.9,-1 3.4,-0.95 2.9,0 1.9,0.5 -1,1.5  -1,1.4 -1,0.95 -1.5 ,1.5  -1.9,0.95 -1.95,0.95 -2.4,0.95 -2.4,0 -1.95,0 -2.4,0 -2.4,-0.5 -2.4,-0.5  -1.9,-0.5 -1.95,-0.95 -1.95,-1.5  -1.4,-1.9 z" />
<path id="path3259" class="fil6" d="m -201.60124,-17.376073 2.9,0.95 3.4,1.5  2.9,1.4 2.9,1.5  3.4,0.95 2.9,0.95 3.4,0.5  2.9,0 6.30357,-1.4 4.35172,-1.4 3.4,-1.5  2.9,-1.9 1.95,-1.95 2.4,-1.95 1.95,-1.9 2.9,-1.5  -2.9,-0.5 -3.4,0 -3.4,0.5 -3.4,1 -3.4,1.4 -3.4,0.95 -3.4,1 -3.4,0.5 -2.9,0 -3.4,0 -3.4,0 -2.9,-0.5 -3.4,0 -2.9,0 -2.9,0.5 -2.4,0.95 z" />
<path id="path3261" class="fil6" d="m -202,-19.3 3.9,-1 3.4,-0.5  2.9,0 2.4,0 2.9,0.5  2.4,0.5 2.4,0 2.4,0 3.4,-0.5 3.3598,-0.95 3.9,-1.4 3.9,-1.5  3.9,-0.95 3.4,-0.5 3.9,0 2.9,0.95 -1.95,-1.5 -2.4,-1.5  -2.4,-0.5 -2.4,-0.5 -4.8,-0.5 -4.86366,0 -4.8,0.5 -3.9,-0.5 -1.95,0 -1.9,-0.5 -1.5 ,-1 -1.4,-0.95 -2.9,1.5  -2.4,1.4 -1.9,1.95 -1.5 ,1.4 -1.4,1.9 -1.95,1.5  -2.4,1.4 -2.4,1 z" />
<path id="path3263" class="fil6" d="m -197.72949,-46.9 1.95,2.4 2.4,2.4 1.9,2.9 2.9,2.4 2.4,2.4 2.9,1.95 3.4,1.4 4.4,0.5 2.4,0 2.9,0 2.9,0 3.4,0 2.9,0 2.9,0.5 2.9,0.5 2.9,1.4 -2.4,-2.9 -2.4,-2.4 -2.4,-1.5  -2.4,-1.5 -2.4,-0.95 -2.9,-0.5 -2.4,-0.95 -2.9,-0.5 -2.4,0 -1.95,0 -2.4,-0.5 -1.95,0 -2.9,-0.5 -3.4,-1.5  -4.35171,-1.9 -5.8236,-3.4 z" />
<path id="path3265" class="fil6" d="m -197.72949,-48.863953 2.9,1.95 2.4,1.5 3.4,1.5  2.9,0.95 3.4,0.95 2.9,0.5 3.4,0.5 2.9,0 2.9,0.5 2.9,0.5 2.9,0.5 2.9,1.4 2.9,1.5  2.9,1.4 2.4,2.4 1.9,2.9 0.5,-2.4 -0.5,-1.95 0,-2.4 -1,-1.5  -1.4,-3.4 -2.4,-2.4 -2.4,-1.95 -2.9,-1.4 -2.9,-1.5  -2.9,-0.95 -5.8236,-0.95 -4.35171,-0.5 -3.9,0 -3.4,1 -2.9,0.5 -2.9,0.95 -3.4,0 -3.4,0 z" />
<path id="path3267" class="fil6" d="m -186,-89.535583 0.95,2.4 1,2.9 1.5 ,2.4 1.4,2.4 2.4,2.88003 2.4,2.9 3.4,2.9 4.4,2.9 1.9,0.95 2.4,0.95 1.9,1 2.9,0.95 2.4,0.5 2.9,0.5  3.4,0.5 3.4,0.5 -1,-2.9 -1.4,-1.95 -1.95,-1.9 -1.9,-1.95 -2.4,-1.4 -2.9,-1.95 -2.9,-1.4 -2.4,-1.95 -2.4,-1.4 -2.9,-1.5  -2.4,-1.4 -2.9,-0.95 -2.9,-1.5  -2.4,-1.4 -2.9,-1.95 -2.9,-1.9 z" />
<path id="path3269" class="fil6" d="m -185.12235,-91 2.9,2.4 4.8,2.4 5.8236,2.88002 6.8,3.4 5.8,3.4 5.82396,3.4 2.4,1.95 1.9,1.9 1.5 ,1.95 1,2.4 0,-3.4 -0.5 ,-3.4 -1,-3.4 -1.9,-2.9 -1.95,-2.4 -1.9,-2.4 -2.4,-1.95 -1.9,-1.4 -3.4,-1.5  -2.9,-0.95 -3.4,-0.5 -3.4,-0.5  -3.4,0 -3.4,-0.5 -3.4,0 -3.9,-1 z" />
<path id="path3271" class="fil6" d="m -145.9,-56.607243 1,-1.4 1,-0.5 1.4,-0.95 1,-0.5 1.5 ,-0.5 1,-0.5 1,0 1,-0.5 -0.5,-2.9 0,-2.9 0.5,-2.9 0.5,-2.4 1,-2.88002 1.4,-2.4 1,-2.4 1.4,-2.4 -4.3518,2.88002 -3.4,2.9 -2.4,2.4 -1.9,3.4 -1,2.9 -1,3.4 0,3.9 0,4.35208 z" />
<path id="path3273" class="fil6" d="m -130.4,-82.271853 -1,2.4 -1.4,1.95 -1,2.4 -1,2.4 -0.5,2.9 -0.5 ,2.4 0,2.9 0.5 ,3.4 1,-0.5 1.5 ,0 1,-0.5 1,0 1.5 ,0 1.4,-0.5 1.5 ,0 1.4,0 -0.5,-2.4 -0.5 ,-2.4 -0.5,-2.4 -1,-2.4 -1,-1.9 -0.5,-2.4 -1,-2.4 -0.5,-2.9 z" />
<path id="path3275" class="fil6" d="m -126,-73 0.5 ,1 0.5,1.4 0.5 ,0.95 0,1 0.5,1.5 0,0.95 0.5 ,1 0,1.5 0.5,0 0.5,0 0.5 ,0 1,0 0.5,0 0.5 ,0 0.5,0 0.5,0 -0.5,0.95 0,1.5  -0.5,0.95 0,1.4 0,1.5  0,0.95 0,1.4 0,1 1.5 ,-1.5  1.4,-0.95 1.95,-0.95 1.9,-0.5 1.95,-1 1.4,0 1.95,-0.5 1.9,0 0.5,-1.9 0,-1.5  0,-1.9 -0.5,-1.5  -0.5 ,-1.9 0,-1.5  0,-1.9 0,-1.5  -2.9,0.5 -2.4,0.5 -2.4,-0.5 -2.4,0 -1.9,-0.5 -2.4,-0.5 -2.4,0 -2.4,0.5 z" />
<path id="path3277" class="fil6" d="m -92.616359,-94.4 -1.4,1.95 -1,2.4 -1,1.9 -1,2.4 -1,2.4 -1.5 ,1.95 -1.4,1.95 -1.5 ,1.5 -3.4,1.95 -2.9,0.95 -2.9,0.5 -2.9,-0.5 -2.9,0 -2.9,-0.5  -2.4,0 -2.9,0.5  4.8,-2.4 4.86384,-2.9 5.31085,-3.4 4.3518,-3.4 4.4,-3.4 3.9,-2.4 1.4,-1 1.4,-0.5 1.5 ,0 1,0 z" />
<path id="path3279" class="fil6" d="m -127,-76.5  4.4,-2.4 4.35181,-2.4 3.9,-2.9 3.9,-2.9 3.9,-2.88002 3.9,-2.4 3.9,-1.95 3.4,-0.95 -2.4,0.5 -2.9,0 -2.4,0 -2.4,-0.5 -2.4,-0.5 -2.9,0 -2.9,0.5 -2.4,1.4 -2.4,1.95 -1.95,2.4 -1.4,2.4 -1,1.95 -0.5,2.4 -1,2.4 -1,1.95 -1.5 ,1.9 z" />
<path id="path3281" class="fil6" d="m -127.5,-78.4 0,-0.5 -0.5,-1 -0.5 ,-0.95 0,-0.95 -0.5,-1.5  0,-0.95 -1,-0.95 -0.5,-0.95 1.5 ,-0.5 1,-0.5 1,-0.95 1.5 ,-0.95 1,-0.5  1,-1 1.5 ,-0.95 1.4,-0.95 -1,1.9 -1,1.5  -1,1.9 -0.5 ,2.4 -1,1.95 -1,1.4 -0.5,1.4 -1,1.5  z" />
<path id="path3283" class="fil6" d="m -142,-105.536 1.95,1.5  1.9,1.4 1.5 ,2.4 1.4,1.9 0.5,2.4 0.5 ,2.9 0.5,2.9 -0.5,2.88002 2.4,-0.5 1.95,-1.4 1.9,-1.5  1.95,-1.5 1.9,-1.4 1.95,-1.5  1.9,-0.95 1.95,-0.95 -0.5,-2.4 -1,-2.4 -1,-2.4 -1,-1.95 -1.5 ,-1.95 -1.9,-1.4 -1.4,-0.95 -1.5 ,-1 -2.4,0.5 -1.9,0.5 -1.95,0.5 -1.9,0.5 -1.5 ,0.95 -1.4,1 -1.95,0.95 -1,0.95 z" />
<path id="path3285" class="fil3" d="m -131.84583,-112.8 -1.95,0 -1.9,0.5 -1.95,0.95 -1.9,1 -1.5 ,0.95 -1.9,0.95 -1.5 ,1 -1,0.95 -1,1.4 -1,1.5  -1,1.5 -1,1.95 -0.5,1.9 0,1.95 0,1.4 0,1.5  1,0.95 1,0 1.5 ,0 1.4,-0.5 1.95,-0.5 1.4,-0.5 1.5 ,0 1,0.5 1.4,0.95 0.5,1.4 0.5,1 0,0.95 0,0.95 -1,0.95 -1,0.5 -1.4,1 -2.4,-0.5 -2.4,-0.5 -2.4,-0.95 -1.95,-0.95 -1.95,-1.4 -1.9,-1.95 -1.4,-1.95 -1.5 ,-2.4 -1.4,-3.4 -0.5,-2.9 -0.5,-2.9 0.5,-2.4 0.5,-2.4 1,-1.95 1.4,-1.9 1.95,-1.5  1.9,-1.9 2.4,-1.5  2.4,-0.5 2.9,0 2.4,0.5 2.9,1 2.9,1.9 3.4,3.4 z" />
<path id="path3287" class="fil6" d="m -147.84519,-94.4 0,-0.95 0,-1.4 0.5,-1.5  0,-0.95 0.5,-1.4 0.5 ,-1 0.5,-0.95 1,-0.95 1,0.5 1.4,0.5 1,0.95 1.5 ,1 1,1.4 1,1.9 1,1.5  1,1.9 -1,-0.95 -1.4,-0.5 -1.4,-0.5 -1.5 ,0 -1.4,0 -1.5 ,0.5 -1.9,0.5 -1.5 ,0.5 z" />
<path id="path3289" class="fil1" d="m 12.5,-147.67969 2.9,0 6.27169,4.86416 1,1.5 0,0.95 -0.5 ,1 -1,0.5  -1,0 -1.4,-0.5  -1.5 ,-0.5 -1,-0.5 -3.9,-7.26372 z" />
<path id="path3291" class="fil1" d="m -11,-148 -3,0 c -2,2 -11,7 -6,9 6,0.25 7,-4 9,-9 z" />
<path id="path3293" class="fil1" d="m 10,-147.20014 -2.4,0 1.9,5.82417 0.5,1.95 0.5 ,1.5 1,0.5 1,0 1,0 0.5 ,-0.95 0.5,-0.95 -1,-1.5  -3.4,-6.30462 z" />
<path id="path3295" class="fil1" d="m -8.5,-148 2.5,0 c -1,3 -2,9.5 -5.5,9.5 -2,0 -1.5,-2 -1,-3.5 z" />
<path id="path3297" class="fil1" d="m 4.7533708,-147.20014 -2.9,0.5 0,7.3 0.5,1.5 0.5 ,1 1,0.5 1,0.5  1,-0.5  1,-0.95 0,-0.95 -0.5,-1.95 -1.4,-6.8 z" />
<path id="path3299" class="fil1" d="m -3.5023292,-147.67969 2.9,0.5 -0.5 ,7.77669 0,0.95 -0.5,1.5 -1,0.5 -1.5 ,0 -1,-0.5 -0.5,-0.5 -0.5 ,-1.4 0.5 ,-1.5  1.9,-7.26372 z" />
<path id="path3301" class="fil1" d="m 14.9,-153.5  -10.1755902,0 0,-1 -0.5,0 -0.5,-0.5 0,-0.5 0,-0.95 0,-1 0,-1.4 0.5,-0.95 0,-0.5 0,-1 0,0.5 1,0 0.5,0 0.5 ,0 1,0 0.5,0 0.5,0 0.5 ,-0.5 0.5,0 0,-2.88002 -0.5,-0.5 -0.5 ,0 0,-0.5  -1.95,0 0,-0.5 -2.4,0 0,-0.5 0.5,0 0,-0.5 0.5,-0.5 1,0 0.5 ,-0.5 0.5,0 0.5 ,0 0.5,0 0.5,0 1,0 0.5 ,0 0.5,0 0,-1.95 -1.9,0 -1.5 ,0 0,-0.5  -1,0 -0.5,-0.5 0.5,0 0,-0.5 -0.5,0 0,-0.5 -1.5 ,0 -1.4,0 0,-1.4 -1.4,0 -0.5,-0.5 0,-0.5 0,-0.95 0,-1 0.5,0 0.5,0 -0.5,0 -1,0 -0.5,-0.5 0,-0.95 0.5,-0.5 0,-0.5 0,-0.5 0.5 ,0.5 0,0.5 0,-0.5 -0.5 ,0 0,-0.5 0.5 ,0 -0.5 ,0 -0.5,0 0,-0.5 -0.5 ,0 -0.5,-0.5 -0.5 ,-0.5 -1,0 0,-0.5 -0.5,0 0,-0.5 0.5,0 0.5,0 0.5,0 0.5 ,0 0.5,0 0,-0.5 1.95,0 0.5,0 0,-0.5 0.5 ,0 0,0.5 0,-0.5 1,0 0,-0.5 0,-0.5 0.5,0 0,-0.5 0.5 ,0 0,0.5 0,-1.9 -1.9,0 0,-0.5 -1.5 ,0 -0.5 ,-0.5 -0.5,0 -0.5 ,-0.5  0,-1.9 3.9,0 0,-0.5 1,0 0.5,-0.5 0.5,-0.5  0,-0.95 -3.4,0 0,-0.5 -0.5,0 -0.5,0 -0.5 ,0 -0.5,-0.5  -0.5 ,0 -0.5,0 -1,0 0.5,0 1,0 0.5 ,0 1,-0.5 0.5,0 0,-0.5 0.5,0 0.5 ,0 0,-0.5 0.5,0 -0.5,0.5 1,-0.5 -3.9,0 0,-0.5 -1.4,0 0,-0.5 -1.95,0 0,-0.5 -1.9,0 0,-0.5 -1,0 0,-1 1.5 ,0 0,-0.5 0.5 ,0 0.5,0 1,0 0.5 ,0 1,0 1,0 0.5,0 0.5 ,0 0,-0.5 1,0 0,-0.5 -0.5 ,0 -0.95,0 0,-0.5 -0.5,0 0,-0.5  -0.5 ,0 0,-0.5 -4.35181,0 0,0.5 -0.5,0 0,0.5  -1.4,0 0,0.5 -1,0 -1,0 -0.5 ,0.5 0,0.5 -0.5,0 0,0.5 0,0.5 -0.5 ,0 0,0.5 0.5 ,0 0,-0.5 -0.5 ,0.5 -0.5,0 -1,0 -1,0 -1,0 -1,0 -1,0 -0.5,0 -0.5,0 0,-0.5 -1,0 -0.5 ,0 0,-0.5 -0.5,0 -0.5 ,0 -0.5,0.5 0.5,0 -1.95,0 -0.5,0.5 0,2.4 0.5,0.5 0.5 ,0 0.5,0 1,0 0.5 ,0 0.5,0 1,0 0.5 ,0 0,-0.5 0.5,0 1,0 1,0 1,0 1,0 1,0 1,0 0.5 ,0 0,1.95 -12,0 0,1.95 0.5 ,0.5 1,0 0,0.5 0.5,0 0.5 ,0 0.5,0 1,0 0.5 ,0 1,0 0.5,0 0.5,0 0,0.5 0,0.5 0.5 ,0.5 0,0.5  0,0.5 0,0.5 0,0.5 0,0.5  0,0.95 1.9,0 0.5,-0.5 0,-0.95 0.5 ,0 0,-1.95 0.5,0 0,-0.5 0,-0.5 0.5,0 0,-1.95 0,-0.5  1,0 1,0 1.5 ,0 1,0 1.4,0 1.5 ,0 0.5,0 1,0 0,0.5  1,0 0,0.5 -0.5,0 0,0.5 0.5,0 -1,0 0,0.5 -1.4,0 0,0.5 -1.95,0 0,0.5 -1.4,0 -0.5 ,0.5 -0.5,0.5  0,1.95 -0.5,0.5 -0.5 ,0 0,0.5 -0.5,0 -0.5 ,0.5 0,2.9 0.5 ,0 0,0.5 0.5,0 0.5 ,0.5 0,0.5 0,0.5 0.5,0.5 0.5,0 0.5 ,0 0,0.5 0,0.5 1,0 0,0.5 0.5,0 0.5 ,0 1,0 0.5 ,0.5 0,0.5 0,0.95 0.5,0 0,0.95 0.5 ,0 0.5,0 0,1.95 0.5 ,0 0,1.5 0.5,0 0,0.5 0,0.5 0.5,0 0,0.5 0,0.5 0,0.5 0,0.5 0.5,0 0,3.4 0.5 ,0 0.5,0 0,0.5 0,0.5 0,0.95 0,0.5 0,0.5 0,0.5 0.5 ,0.5 0.5,0 0,0.5 0.5 ,0 0.5,0 0,-0.5 -0.5,0 0,0.5 0.5,0 0,0.5 0.5,0.5  0,0.5 0.5 ,0 0,-0.5 0,-0.5  0,2.4 -0.5 ,0.5  -0.5,0 -0.5,0 0,0.5 -1.4,0 0,0.5 -0.5,0 0,0.5 -0.5 ,0 -0.5,0 0,0.5 -11.6466598,0 -1,0 -1,0.5 -0.5,0.5 0,0.5 0.5,0.5 1,0.5 1.4,0 28.60687,0 1.4,-0.5 1,0 0.5 ,-0.5 0.5,-0.5 -0.5,-0.5 -0.5 ,-0.5 -1,0 -1.4,0 z" />
<path id="path3303" class="fil1" d="m 101.61108,-184.95 0,-0.5 -0.5,0 -1,0 -0.5 ,0 -1,0 -0.5 ,0.5 -1,0 -0.5,0 -0.5 ,-0.5 0,-0.5 -1.95,0 -1.9,0 0,-0.5  -0.5,0 0,-0.5 -0.5 ,0 -0.5,0 0,-0.5 -0.5 ,0 -0.5,0 -1.5 ,0 0,-0.5 0,-0.5 -0.5,0 0,-0.5 -0.5 ,-0.5 -1,0 -1.5 ,0 -1.4,0.5 -1.4,0 -1.5 ,0 -1.4,0 -1,0 -1,-0.5 0,-0.5  -1,0 -0.5,0 -0.5 ,-0.5 0,0.5 0,-0.5 -1,0 -0.5 ,-0.5 0,-0.5 -0.5,0 0,-0.5  -0.5 ,0 -3.4,0 -0.5 ,0 0,0.5  0,0.5 -0.5,0 -0.5 ,0.5 0,0.5 0,0.5  0,-0.5  -0.5,0.5  -0.5,0.5 -1,0 -0.5 ,0 -1,0 -1,0.5 -0.5 ,0 -0.5,-0.5 -0.5 ,0 0,-0.5 -1,0 0,-0.5  -0.5,0 0,-0.5 -0.5,0 0,0.5 0,-0.5 -0.5 ,0 0,-0.5 0,-0.5 -0.5,0 -0.5 ,-0.5  0,0.5  0.5 ,0.5 0,-0.5 -0.5 ,0 0,-0.5  0.5 ,0 -0.5 ,0 -0.5,-0.5 -0.5 ,-0.5 -0.5,0 0,0.5 0,-0.5 -0.5,0 0,-0.5 -1,0 0,-0.5 -0.5 ,0 -0.5,0 -0.5 ,0 -0.5,-0.5 -1,0 -1,0 -0.5 ,0 -0.5,0 -0.5 ,0.5 0,0.5 -1,0 0,0.5 -0.5 ,0 -2.4,0 -0.5,-0.5 -0.5 ,0 0,-1.4 -0.5,0 0,-0.95 -4.3518,0 -1,-1.95 0.5,-0.5 0.5 ,-0.5  0.5,-0.5 1.4,-0.5 1,0 1,-0.5 1,0.5 0.5 ,0 0,-1.5  5.34426,0 4.3509,0.5  4.3518,0.5 4.4,0.5 4.35181,0.95 3.9,0.95 3.9,1.4 3.9,1.5  1.5 ,0 1.9,0.5 2.9,0.95 2.4,0.5 2.9,1 3.4,0.95 2.9,0.95 2.4,1 1.4,0.5 1.5 ,0.5 1,0.5 1.4,0 1.5 ,0 1.4,-0.5 1.5 ,0 1,0.5 1.95,0.5 1,0.5 -0.5,1 -1,0.95 -2.4,0.5  -2.4,0.5 -3.4,-0.5 -3.4,-0.95 z" />
<path id="path3305" class="fil1" d="m 105,-180.60804 -1.9,-0.5 -2.4,-0.5 -2.4,-1 -2.4,-0.5 -2.4,-0.5 -2.4,-0.5 -1.9,-0.5  -2.4,-0.95 -1,-0.5 -1.5 ,0 -0.5,0 -1,0 -0.5 ,0.5 0,0.5 0.5 ,0.5 0.5,0.95 2.9,0.95 2.4,1 2.9,0.5 2.9,0.5 2.9,0 2.4,0 2.9,0 2.4,0 z" />
<path id="path3307" class="fil1" d="m 76.9,-183.5 2.4,0.95 2.9,1 2.4,0.95 2.4,0.5 2.4,0.5 2.9,0.5 2.4,0.5 2.9,0 1,0.5 1,0.95 0.95,0.5 0,0.5 0,0.95 -0.95,0.5 -1,0 -1.4,0 -2.9,0 -2.4,-0.5 -2.9,-0.5 -2.4,-0.95 -2.9,-0.95 -2.4,-1 -2.9,-0.95 -2.4,-0.95 -0.5 ,-0.5 -0.5,-0.5 -0.5,-1 0,-0.5 0,-0.5 0.5,-0.5 1,0 1,0.5 z" />
<path id="path3309" class="fil1" d="m 65.773471,-181 1.4,0.95 1.95,0.95 1.95,0.5 1.9,1 2.4,0.95 2.9,0.5 2.9,0.95 2.9,1 1,0.95 0.5,0.5 0,0.95 -0.5,0.5 -1,0.5 -1,0 -1,0 -1.5 ,-0.5 -2.9,-0.95 -1.9,-0.95 -2.4,-0.95 -1.9,-1.5  -1.95,-0.95 -1.4,-1.4 -1.5 ,-1.5  -1,-1.5 z" />
<path id="path3311" class="fil1" d="m 27.983471,-212 1.5 ,-0.95 1,-1 1.4,-0.95 1,-0.5 1.4,-0.5  1,0 1.5 ,0.5  1,0.95 0.5,0.5 0,1 -0.5,0.5 -0.5 ,0.5 -0.5,0 -1,0 -1,0 -1,0 -0.5 ,0 -1,0 -1,0 -1,0 -0.5 ,0 -1,0 -1,0 z" />
<path id="path3313" class="fil1" d="m 45.422301,-206.27174 1,-1 1,-0.5 1,-0.95 1,-0.5 1,0 1,0 1,0.5 1,0.5 0,0.5 0.5,0.5 -0.5,0.5 -0.5 ,0.5 -0.5,0 -0.5 ,0 -1,0 -0.5,0 -1,0 -0.5,0 -0.5 ,0 -1,0 -0.5,0 -0.5,0 -1,0 z" />
<path id="path3315" class="fil1" d="m 52.686451,-218.88008 -1,-0.5 -1,-0.5 -1,-0.5 -1.4,0 -1.4,-0.5 -1.5 ,0 -1.9,-0.5 -1.95,0 0,1 -0.5,0.5 0.5,0.5 0,0.5 0.5 ,0 1,0 1,0.5 1,0 0.5 ,0 1,0 1.5 ,-0.5 1,0 1,0 1,0 1.4,0 0.5,0 z" />
<path id="path3317" class="fil1" d="m 60.95,-227.10381 -1,-0.5  -1,-0.5 -1,-0.5 -1.5 ,-0.5 -1.4,0 -1.4,0 -1.95,-0.5 -1.95,0 -0.5 ,0.95 0,0.5 0.5 ,0.5 0,0.5  0.5,0 1,0 0.5,0.5 1,0 1,0 1,-0.5 1,0 1.4,0 1,0 1,0 1,0 1,0 z" />
<path id="path3319" class="fil1" d="m 69.2,-212 -1,-0.5 -1,-0.5 -1.4,-0.5 -1.4,-0.5 -1.5 ,0 -1.4,0 -1.95,-0.5 -1.9,0 0,1 0,0.5 0,0.5 0.5,0 0.5 ,0.5 0.5,0 1,0 1,0.5 1,0 1,-0.5 1,0 1,0 1.4,0 1,0 1,0 1,0 z" />
<path id="path3321" class="fil1" d="m -49,-227.58337 -1.4,0 -1,-0.5 -1.5 ,-0.5 -1.4,-0.5 -1,-0.5 -1.5 ,-0.5 -1.4,0 -1,0 -1.5 ,-0.95 -1.4,-0.5 -1,-0.5 -1.4,-0.5 -1,0 -1.5 ,-0.5 -1.4,0 -1.95,-0.5  -1.9,0 -1.5 ,0 -1.4,0 -1.9,0 -1.5 ,0 -1.9,0 -1.5 ,-0.5 -1.9,-0.5  -1,0.5  -1,0 -1.4,0 -1,0 -1,0 -1.4,-0.5  -1,-0.5 -1,-0.95 -4.8,-2.4 -4.351801,-2.4 -4.4,-1.95 -4.3518,-2.4 -4.8,-1.95 -4.4,-2.4 -4.8,-2.88002 -4.8,-2.9 -6.3033,-1.95 -5.82378,-1.5 -5.8,-1.5  -5.82288,-1.9 -5.34399,-1.5  -5.8,-1.5 -5.34363,-1.4 -5.8,-1 -4.4,-0.5 -3.9,-0.95 -3.9,-0.5 -3.9,-0.5 -3.9,-0.5 -3.4,-0.5 -3.9,-0.5 -3.9,-0.95 -4.35172,-0.5 -2.9,-1 -0.5 ,-0.5  -0.5 ,-0.95 -0.5,-0.5 0.5,-0.95 1,-1.5  1.9,-0.95 3.4,0 3.4,0.5  8.7354,0 8.70343,0.95 8.73549,1.5  8.22346,2.4 8.22346,2.4 8.25579,2.9 8.22319,2.4 8.22318,2.9 2.4,0.95 1.95,0 1,0 0.5 ,-0.5 0.5,-1 -0.5,-0.95 -1.4,-0.95 -1.5 ,-0.95 -2.9,-0.5 -2.4,-0.5 -2.4,-0.5 -2.4,-0.5 -2.4,-0.5 -2.4,-0.95 -1.95,-0.5 -1.9,-0.95 -5.82351,-1.5 -3.9,-1.5  -1,-0.5 -0.5 ,-0.5 0,-0.5 0.5 ,0 1.9,-0.5 2.9,0 4.35153,0 4.86384,0.95 3.9,0 3.9,0.95 3.9,1 3.9,1.4 3.9,1.5 3.9,1.95 3.9,2.4 3.9,2.4 1.9,1.95 1.95,0.95 1.4,0.5 1.4,-0.5 0.5,-0.5 0,-0.95 -1,-1.5  -1.4,-1.5 -1,-0.5 -1,-0.5 -1,-0.5 -1,-0.5 -1,0 -1.5 ,-0.5 -1,-0.5 -0.5,-0.5 -3.9,-1.95 -1.95,-1.5 0,-0.5 0.5,-0.5 1,0 2.4,0 2.9,0.5 3.9,0.5 3.9,0.5 1.5 ,0.5 1.9,1.5  1.95,0.95 1.4,1.95 1.95,1.4 1.9,1.5 1.95,1.5  1.9,1.4 1.95,1.5  1.4,0.5 1,0 0.5 ,-0.5 0.5,-1 0,-0.95 -0.5,-0.95 -0.5 ,-0.95 -1,-0.5 -0.5,-0.5 -1,-0.5 -1,-0.5  -1,-0.5 -1,0 -0.5,-0.5 -1,-0.5 -2.9,-1.95 -1,-1.95 0,-0.5 0,-0.5 0,-0.5 0.5 ,0 1.9,-0.5 1.95,0.5 1.9,0.95 2.4,1.95 1.4,0.5 1,0.95 1.4,0.5 1,1 1.5 ,0.95 1,0.95 1,0.5 1.5 ,1 1,1.4 1,0.5 1,0.5 1,0 0.5,-0.5 0.5 ,-0.5 0,-0.95 -0.5 ,-1.5  -0.5,0 -0.5 ,-0.5 -1,-0.5 -0.5 ,-0.5  -1,0 -1,-0.5 -0.5,0 -1,-0.5 -2.4,-1.95 -1,-1.5 0,-0.5 0,-0.5 0.5,-0.5 1,0 1.9,0 1.95,0.5 1.9,0.5 1.5 ,0.95 0.5,0.95 1,0.5 0.5 ,0.5 0.5,0.5 1,0.5 0.5,0.5 0.5 ,0.5 0.5,0.5  1,0.95 0.5 ,0.5 0.5,0.5 0.5 ,0.5 0.5,0 0.5 ,-0.5 0.5,-0.5 0.5 ,-1 0,-2.4 1,-1.5  1,-0.5 1.95,0 1.4,0.5 1.95,1.5  1,1.9 0.5,2.4 0.5 ,2.9 1,1.4 1,0.95 0.5 ,0 1,-0.95 0,-0.95 0.5,-1 -0.5,-1.4 -1,-2.9 0.5,-1.9 1,-1.5  1.5 ,-0.5 1.4,0 1.4,0.95 0.5,1.95 0.5,2.4 0.5 ,1.4 0.5,0.95 0.5 ,0.5 0.5,0.5 0.5 ,0 0.5,-0.5 0.5,-0.5 0.5 ,-0.95 0.5,-1.9 1,-1 1,-0.95 0.5,-0.5 2.4,-0.5 1.95,0.5 1.4,0.95 0.5,1.5  0,0.95 0,0.95 -1,0.95 -1,1 -1.95,2.4 -1,1.5  -0.5 ,1.4 0.5 ,0.95 0.5,0.5 1,0.5 1,-0.5 1,-0.5 0.5,-0.95 0.5 ,-0.95 0.5,-0.5 0.5 ,-1 1,-0.5 0.5 ,-0.5 1,-0.95 0.5,-0.5 1.5 ,-1.5  1,-0.95 1,-0.5 1.5 ,0 1.9,0.5 1.95,1.4 0.5 ,1 0.5,0.5 0,0.95 -0.5,0.95 -0.5 ,1 -1,0.5 -1,0.5 -1.9,0 -1.5 ,0.5 -1,0.5 -1.4,0.5 -1,1 -1.4,0.5 -1,0.95 -1,0.95 -1,1 -0.5,1.9 0,1.5  0.5,0.95 0.5 ,0.5 1,0 0.5,-0.5 1,-1.5  0.5,-1.9 1.4,-0.95 1.5 ,-1.5  1.9,-0.95 1.95,-0.95 1.4,-0.5 1.95,-0.5 1.4,-0.5 1.95,0 2.4,0 1.9,0 1.5 ,1 1,0.5 0,0.95 -1,0.5  -1.5 ,0.5 -1.9,0.5 -1.5 ,0 -1.4,0.5 -1,0.5 -1.4,0.5  -1.4,0.5 -1,0.5 -1.4,0.5 -0.5 ,0.5 -1.95,0.5 -1.4,1 -0.5,0.95 0,0.95 0.5,1 1,0 1.95,-0.5 1.4,-0.95 1.5 ,-0.95 1.4,-0.5 1.4,-1 1.5 ,-0.5 1.9,-0.5 1.95,-0.5 2.4,-0.5 2.4,0 1,0 0.5 ,0.5 0.5,0.5 -0.5,0.5 -0.5 ,0.5 -0.5,0 -1.4,0.5 -1.4,0 -0.5,0 -1,0.5 -1,0 -1,0.5 -1.5 ,0 -1,0.5 -1,0.5 -0.5,0 -1,0.95 -0.5 ,1 0,0.5  0.5 ,0.95 1,0 1,0 1.4,0 1.95,-0.5 1,-0.95 1.4,-0.5 1.95,-1 1.95,-0.95 1.9,-0.95 1.95,-0.5 1.9,-0.5 1,-0.5 2.4,0.5 1.5 ,0 0.5,1 0,0.95 -0.5,0.95 -1.5 ,1 -1.4,0.5 -2.4,0.5  -5.31175,0.95 -4.86384,1.95 -4.8,1.9 -4.3518,1.95 -4.86384,1.9 -4.3518,1.95 -4.35181,1.5 -4.4,1 z m -56.156271,-30 0.5 ,0 0.5,0 0.5 ,0.5  0.5,0.5 0,0.5 0.5 ,0.5 -0.5 ,0 0,0.5 0,0.5 -0.5,0 0,0.5 -0.5 ,0 -0.5,0 -0.5 ,0 -0.5,0 -0.5,0 -0.5 ,0 0,-0.5 -0.5,0 0,-0.5 -0.5 ,-0.5 0,-0.5 0.5 ,-0.5 0.5,-0.5 0.5 ,-0.5  0.5,0 0.5,0 z m 47.95,21.8 0.5 ,0 0.5 ,0 0.5,0.5 0.5,0 0,0.5 0.5 ,0.5 0,0.5  0,0.5 0,0.5  -0.5 ,0.5 -0.5,0.5 -0.5,0 -0.5 ,0 -0.5 ,0.5 -0.5,-0.5 -0.5 ,0 -0.5,0 -0.5 ,-0.5 -0.5,-0.5 0,-0.5  0,-0.5 0,-0.5  0.5,-0.5 0,-0.5 0.5 ,0 0.5,-0.5 0.5 ,0 0.5,0 z m -9.18403,-2.9 0.5,0 0.5 ,0 0.5,0 0.5 ,0.5 0.5,0.5 0,0.5 0,0.5 0,0.5 -0.5,0.5 0,0.5 -0.5 ,0 -0.5,0 -0.5 ,0.5 -0.5,0 -1,0 -0.5,-0.5 -0.5 ,0 -0.5,-0.5 -0.5 ,-0.5 0,-0.5 0,-0.5 0,-0.5 0.5 ,-0.5 0.5,0 0,-0.5 0.5 ,0 0.5,0 1,0 z m -8.2557,1 0.5,0 0.5 ,0 0,0.5 0.5,0 0,0.5 0.5,0.5 0,0.5 0,0.5 -0.5,0 0,0.5 -0.5,0.5 -0.5 ,0 0,0.5  -0.5,0 -0.5 ,0 -0.5,-0.5  -0.5 ,0 0,-0.5 -0.5,-0.5 0,-0.5 0,-0.5 0,-0.5 0.5,-0.5 0.5 ,-0.5 0.5,0 0.5 ,0 z m -10.65511,0.5 0.5,0 0.5 ,0 0.5,0.5 0.5,0.5 0,0.5 -0.5,0.5 -0.5,0.5 -0.5 ,0 -0.5,0 -0.5 ,0 -0.5,0 -0.5 ,0 0,-0.5 -0.5,0 0,-0.5 0,-0.5 0,-0.5 0.5,0 0,-0.5 0.5 ,0 0.5,0 0.5 ,0 z" />
<path id="path3323" class="fil1" d="m -74.217589,-193.21546 -2.9,0.5 -2.9,0.5 -2.9,0.5 -2.4,0.5  -2.9,0.5 -2.9,0 -2.9,0 -2.4,-0.95 -2.9,-0.5 -2.9,-0.5 -2.9,0 -2.9,0.5 -2.4,1.9 -2.9,2.4 -0.5 ,-1.5  -0.5,-1.4 0,-0.95 0,-1.5  1,-1.9 1.5 ,-1.95 1.9,-1.9 2.4,-1 c 1.8562,-1 3.95,-0.95 5.82378,-0.95 4.2,-1.27788 7.865282,0.26161 11.615051,-0.95 0.95,-0.32392 1.183997,-0.67098 1.4,-1.5  0,-0.86216 -0.845517,-1.1 -1.4,-1.5 -3.464628,-0.7248 -8.728593,-0.42037 -11.615051,0.5 l -1.4,-0.53263 c -0.2,-3 3.5 ,-3.18611 5.741841,-4.3 9.3,-2.21235 18,-4.68425 27.61351,-7.26463 4.95,-0.63084 9.4,-2.54579 14,-4.4 7,-1.76619 13.654411,-4.8 20.31866,-7.74418 l 5.34426,-2.9 5.31175,-1.9 4.86294,-1.5  4.8,-1.4 5.3433598,-1.4 6.27169,-1.95 6.8,-2.9 8.2557002,-3.9 5.8,-2.4 5.34335,-2.4 5.31175,-2.4 5.34426,-2.9 5.31085,-2.4 4.86383,-1.95 5.31175,-1.9 4.86384,-1.5  6.27169,-1.4 5.82378,-1.5  5.34336,-1.4 5.8,-1.5  5.34426,-0.95 5.31175,-1.5 5.82288,-0.5 5.31175,-1 9.215639,-0.5 7.3,-1.4 6.8,-1.5  5.82378,-1.5 5.8,-1.4 6.30421,-1 6.3033,-0.95 7.74367,-0.5 5.31175,-0.5 5.34335,-0.95 5.31175,-0.5 5.34336,-0.5 5.34426,-0.5 5.31084,0 5.82378,-0.5 5.31175,-0.5 6.3033,0 6.30421,0 6.27169,0 6.3033,0 6.3033,0.5 6.3042,0.5 5.82288,0 6.27169,0.5 2.9,0.5 1.95,0.5 1,0.5  0.5,0.5 0,0.5 -1.4,0.5 -1.95,0.5 -2.9,0 -2.9,0 -2.9,-0.5 -2.9,0 -2.9,-0.5 -2.4,0 -2.9,-0.5 -2.9,0 -2.9,0 -1.95,0.95 -2.4,0.95 -2.4,0.5  -2.4,0 -2.9,0 -2.9,0 -2.4,-0.5  -2.9,0.5  -1,0.5 -1.95,0 -1.9,0 -1.95,-0.5 -1.9,0 -1.95,0 -1.4,0 -1,0.5 -1,0.95 -1.4,0.95 -2.4,0.5 -2.9,0.5 -3.4,0 -2.9,0.5 -2.9,0 -2.9,0.5  -1.95,0.5 -2.4,0.5 -2.4,0 -1.95,0 -2.4,-0.5 -1.5 ,0 -1.4,0.5 -1,0.5 -1,1.4 -1.9,1 -1.95,0.5 -2.4,0 -1.9,0 -1.95,0 -1.9,0 -1,0.5 0,0.95 0,1 -0.5,0.5 -1,0.5 -2.4,0.5 -2.9,0.5 -3.4,0 -3.4,-0.5 -3.4,0 -2.9,0.5 -1,1.95 -1,1.4 -1.9,0.5 -1.95,0.5 -1.9,0 -1.5 ,0 -1.9,0.5 -1,0.5 -0.5 ,1.4 -1,0.95 -1,1 -1,0 -1,0 -1,-0.5 -0.5 ,-0.95 -1,-0.95 -1,0 -0.5 ,0.5 0,0.95 -0.5,1 -0.5 ,0.95 -1.95,0.95 -2.4,0.5 -4.4,-0.5 1.5 ,0.95 1,1 0.5,0.95 0,0.5 -1.4,1.5  -1.95,0.95 -3.4,0.5 -2.9,0.5  -2.9,0.5 -1.95,0.5 -1,1.95 -0.5 ,1.4 -1.5 ,1 -1,0.95 -2.4,0.95 -2.4,0.5 -2.4,0 -2.4,0.5 -0.5,0 -1,0.5 -0.5 ,0.5 0,0.5  -0.5,1.4 -1,1.5  -1,0.5 -1.4,0 -1.5 ,0.5 -1.4,0.5 -1.5 ,0.5 -1.4,1.5  -1,0.95 -1,0.95 -1,0.95 -1.4,0.5 -1.5 ,0.5 -1.4,0.5 -1.5 ,0 -1.4,0 0,2.4 -0.5,2.4 -1,1.5  -1.5 ,1.9 -2.4,0.95 -2.4,0.5 -2.9,0 -2.9,-0.5 -1,-0.95 -1,-0.5 -1,0 -1,0.5 0,0.95 0.5 ,0.5 1.5 ,0.95 1,0.5 0.5,0.5 0,0.5 0,0.5 -0.5,1 -1,0.5 -1,0.5  -1,0 -1.4,0.5 -1,0 -1,0 -1.4,0 -1,-0.5 -1,0 -1,0 -1.4,0.5 -1,1.95 -1.4,1.4 -1.95,0.5 -1.9,0 -2.4,-0.5 -1.9,-0.5 -1.95,-0.5 -1.95,0 -1.4,0.95 -1.4,0.95 -1.5 ,0.5 -1.4,0.5 -1.5 ,0 -1.4,-0.5 -1.4,-0.5 -1.5 ,-0.95 -1,0 -1.5 ,0 -1,0 -1,0.5 -0.5 ,0.5 -1,0.5 -0.5 ,0.5 0,0.95 0,0.95 0.5 ,0.95 0.5,0.5 0.5,0.5 1,0 1,0 1,0 1.4,-0.5 1,-0.5 1,0 1,-0.5 0.5,0 0.5 ,0 0.5,0 0.5 ,0 0,-0.5 1.95,0.5 0.95,0 0.5,0.5 0.5 ,0.5 -0.5 ,0.5 -0.5,0.5  -1.4,0.5 -1.95,0.5 -1,0 -1,0 -1.5 ,0 -1,0.5 -1,0 -1.5 ,0 -1,0 -1,0.5 1.9,0.5 1.5 ,0.95 1,0.5 0.5 ,0.5 -0.5 ,0.5  -0.5,0.5 -1.5 ,0 -1.9,0.5 -1,0.5 -1.5 ,0.5 -1,0.5  -1,0 -1,0.5 -1,0 -0.5,-0.5 -1,0 -1,-0.5  -0.5 ,-0.5 -0.5,-0.5 0,-1 0,-0.5  0,-0.5 0,-0.5 -0.5 ,-0.5 -1,0 -1,0 -1,0 -1,0.5 -0.5 ,0.5 -0.5,0.95 0,1 1,0.95 1,0.5  0.5,0.95 0.5 ,0.5 -0.5 ,0.5 -0.5,0 -1,0.5 -1,0 -1,-1 -1,-0.5 -1,0 -1,0 -0.5,0.5 -1,1 -0.5,0.95 -1,1.4 -0.5 ,1 -0.5,0.5 -0.5,0 -1,0 0,-0.5 -0.5 ,-0.5 0,-0.95 1,-0.95 0.5 ,-1.5  0,-0.5 -1,-0.95 -1,0 -1.95,0 -1,0.5 -1.5 ,0.5 0,1 0.5,0.5 0,0.5 c -0,2.46682 -3.4,2.57934 -5.34335,1.9 l -1,0 -1,0 -0.5,-0.5 0,-0.5 0.5,-0.95 -1,0.5 -1,0.5 -0.5 ,0 -1,0.5 -0.5,0 -1,0 -1,-0.5 -1,-0.5 -1,0.5 c -5.8,0.95 -12,0.5 -17.9,0.5 z" />
<path id="S_1" class="fil4" d="m -84.9,137.1526 -1.9,0.95 c -2.504424,-2.11145 -7.108924,1.37725 -5,2.25235 3.352421,1.45428 4.9,0 8.4,-0 2.860146,-0 5,1.95 3.9,3.65945 -1.63401,2.5 -4.353202,3.2713 -7.3,3.4 -2,0 -2.986943,-1 -3.9,-1.95 0.6,-0.57835 1.217599,-0.77582 1.9,-0.95 0.638489,4.28085 11.987083,-2.21566 4.4,-1.68197 l -3.4,0.23977 c -2,0.14437 -4.140284,0.4 -5.533134,-0.63434 -1.563619,-1.2 -1.9,-2.2 -0.95,-3.9874 0.9,-1.71625 2.5,-2.52423 4.5,-2.67186 1.9,-0.1 3.219805,0.66507 4.8,1.5  z" />
<path id="U_1" class="fil4" d="m -67.9,127.4568 c 0,0 3.56,4.84248 5.34426,7.26 1.4,1.9 -0.6,4.32874 -1.95,4.86 -2.4,0.98 -5.9,1.95 -8.2,0.5 -3,-1.9 -4.672727,-5.3 -6.8,-8.25624 l 4.35181,-1.9 c 2.7,3.4 5.237406,11 10.6551,8.22463 1.22608,-0.62657 1.3,-1.8 0.5,-2.9 -1.77,-2.4 -5.3,-7.2 -5.3,-7.26 z" />
<path id="B_1" class="fil4" d="m -57.258279,137.1526 -3.9,-11.1 7.74366,-1.5  c 2.9,0.10294 4.182604,-0.45142 5.251815,0.95 0.8,1 0.573061,2.9 -0.4,3.9 l -1,0 1,0 c 2.201853,0.34499 3.1,0.98783 3.126278,2.27701 -0,2.70966 -2.652503,4 -6.627809,4.70686 -1.95,0.34542 -3.9,0.55607 -5.233689,0.76031 z m 4.8,-1.95 c 1.9,0.12688 2.8,-2.1135 2.288881,-3.4 -0.526415,-1.34017 -1.8,-1.4 -4.208771,-0.95 z m -1.9,-5.3121 c 1.707416,0 2.8,-0.86048 2.9,-2.4 -1.126533,-2.63644 -2.556783,-1.52114 -4.35181,-1.5 z" />
<path id="path3331" class="fil4" d="m 149,18.463897 -10.17469,7.74418 -2.4,-6.27211 -0.5,-1.5  0,-1.5 0,-1.5  0,-1.5 0.5,-1.4 1,-1.5  1,-0.95 1,-0.95 1.4,-1 1,-0.5 1,0 1,0.5 1,0.5 1,0.95 0.5,0.95 1,1.95 1.95,5.8 z m -2.4,-3.9 -0.5 ,-0.95 0,-0.5 0,-0.5 -0.5,0 0,-0.5 -0.5,0 -0.5,0 -0.5 ,0 -0.5,0 -0.5 ,0.5 -0.5,0 -0.5 ,0.5 -0.5,0.5 -1,0.5 -0.5,0.5 -0.5 ,0.5 -0.5,0.5  -0.5 ,0 0,0.5 -0.5,0.5 -0.5,0.5  0,0.5  -0.5 ,0.5 0,0.5 0,0.5 0,0.5 0,0.5  0.5 ,0 0,1.4 8.73522,-6.8 z" />
<path id="path3333" class="fil4" d="m 132.61645,-1.3756537 -0.5 ,-1.5  0.5 ,-1.9 0,-1.5  0.5,-0.95 1,-0.95 1,-1 1,-0.5 1.4,-0.5  1.5 ,-0.5 1.4,0.5 1,0 1,0.95 0.5 ,1 0.5,0.95 0.5 ,1.4 0.5,1.95 0,1.4 0,1.95 -0.5,1.5 -0.5 ,1 -1,0.95 -1,0.95 -1,0.5 -1.4,0.5 -1.5 ,0.5 -1,0 -1,-0.5 -1,-0.95 -1,-0.5 -0.5 ,-1.4 -0.5,-1.5  0,-1.9 z m 1,0 0,0.5 0,0.5  0.5,0.5 0.5 ,0 0.5,0.5 0.5,0 0.5 ,-0.5 0.5,0 1,0 0.5 ,0 0.5,0 1,-0.5 0.5,0 0.5 ,-0.5  0.5,0 0.5 ,0 0.5,-0.5 0.5,0 0.5 ,-0.5 0.5,-0.5 0,-0.5 0,-0.5 0,-0.5 0,-0.5  0,-0.5 -0.5,0 0,-0.5 -0.5 ,0 -0.5,0 -0.5,0 -0.5 ,0 -0.5,0 -0.5 ,0 -0.5,0 -0.5 ,0 -1,0.5 -0.5 ,0 -0.5,0 -1,0.5 -0.5 ,0 -0.5,0 0,0.5  -0.5,0 -0.5 ,0.5 -0.5,0 0,0.5 0,0.5 0,0.5 -0.5 ,0 0.5 ,0.5 z" />
<path id="path3335" class="fil4" d="m 144.71192,-13.503543 -11.1,-4.8 1.5 ,-7.26372 0,-1.5  0.5,-0.95 0.5 ,-0.95 0.5,-0.95 1,-0.5 0.5 ,0 0.5,0 1,0 0.5,0.5 1,0.5 0.5 ,0.95 0,0.95 0.5,1 0,1.4 0,1.5 -0.5,1.5  -0.5 ,1.9 4.86293,1.95 -1,4.8 z m -4.8,-7.26372 0.5 ,-0.95 0,-0.95 0,-0.5 0,-0.5 -0.5 ,-0.5 0,-0.5 -0.5,-0.5 -0.5 ,0 -0.5,-0.5 -0.5,0 -0.5 ,0 -0.5,0 -0.5 ,0 0,0.5 -0.5,0 0,0.5 -0.5 ,0.95 0,1 4.35181,1.9 z" />
<path id="path3337" class="fil4" d="m 136,-41.119773 12,1.5  -1,4.8 -2.9,-0.5 -1,4.8 1.9,2.4 -0.5,1.95 -9.66355,-11.1 1,-3.9 z m 6.30421,9.7 1,-3.9 -5.34426,-0.95 4.4,4.8 z" />
<path id="path3339" class="fil4" d="m 150,-43.999803 -10.65511,-6.30372 1.9,-6.8 0,-0.5 0,-1 0.5,-0.5 0,-0.5 0.5,-0.5 0,-0.5 0.5 ,0 0,-0.5 0.5,-0.5 0.5 ,0 0.5,-0.5 0.5 ,0 0.5,0.5 0.5,0.5 0.5,0 0.5 ,0.95 0,0.5 0.5,0.5 0,1 0,0.5 0,0.95 0,-0.5 0.5 ,0 0,-0.5 0.5,0 0,-0.5 0.5 ,0 0,-0.5 0.5,0 0,0.5 0.5,0 0.5 ,0 0.5,0 0.5 ,0.5 0.5,0 0.5 ,0 0.5,0.5 0.5,0 0.5 ,0 -1.5 ,4.8 -0.5 ,0 -0.5,0 -0.5 ,-0.5 -0.5,0 -0.5 ,-0.5 -1,-0.5 -0.5 ,0 -0.5,0 -0.5 ,0 -0.5,0.5 0,0.5 -0.5 ,0.5 0,0.5 5.31175,2.9 -1.4,4.86415 z m -4.86293,-8.25624 0.5,-0.95 0,-0.5 0,-0.5 0,-0.5 0,-0.5 -0.5,-0.5 0,-0.5  -0.5,-0.5 -0.5 ,0 -0.5,-0.5 -0.5 ,0 -0.5,0 -0.5 ,0.5 0,0.5 -0.5,0.5  0,0.5 -0.5,1 3.9,1.9 z" />
<path id="path3341" class="fil4" d="m 144.2324,-74.527673 11.64666,-0.95 -0.5,4.8 -2.4,0.5 -1,4.86415 2.4,1.9 -0.5 ,1.95 -10.65511,-8.73578 1,-4.3521 z m 6.8,8.70418 0.5,-4.35208 -5.31175,0.5 4.8,3.9 z" />
<path id="path3343" class="fil4" d="m 149.57576,72.736377 1,0.5 -1.4,3.9 2.9,1.9 1,-3.9 1,0.5 -1,3.9 3.4,1.9 1.4,-4.8 1,0.5 -2.4,8.22373 -9.21564,-5.3121 2.4,-7.26372 z" />
<path id="path3345" class="fil4" d="m 159.23932,66.9 0,1.95 -0.5,0 0,-0.5 -0.5 ,0 -0.5,0 -0.5 ,0 0,0.5 -0.5,0 0,0.5 -0.5 ,0.5 0,0.5 0,0.5 0,0.5 0,0.5 0,0.5 0.5 ,0.5 0.5,0 0.5 ,0 0.5,-0.5 0.5 ,-0.5 0,-0.5 0.5,-0.95 0.5,-0.95 1,-0.5 0.5 ,-0.5 0.5,-0.5 0.5 ,0 0.5,0 0.5,0 0.5,0.5 0.5 ,0.5 0.5,0.5 0.5 ,0.5 0,0.5 0.5,0.5 0,0.5 0,0.5 0,0.5 0,0.5 0,0.5 0,0.5 -0.5,0.95 -0.5 ,0.95 0,1 -0.5,0.5 -0.5 ,0 -0.5,0.5 -0.5,0 -1,-0.5 -0.5,0 0,-1.95 0.5,0 0,0.5 0.5 ,0 0.5,0.5 0.5,0 0.5,-0.5 0.5 ,-0.5 0.5,-0.5 0,-0.95 0,-0.5 0,-0.5 0,-0.5 -0.5,-0.5 0,-0.5 -0.5 ,0 -0.5,0 -0.5,0.5 -0.5,0 0,0.5 -0.5 ,0.5 0,0.5 -0.5,0.5 -0.5 ,0.95 -0.5,0.5 -0.5 ,0 -0.5,0.5 -0.5,0 -0.5 ,0 -0.5,0 -0.5 ,-0.5 -0.5,0 -0.5 ,-0.5 0,-0.5 -0.5,-0.5 0,-0.5 -0.5,-0.5 0,-0.5 0,-0.5 0,-0.5 0,-0.5 0,-0.5 0,-0.5 0.5,-0.5 0,-1 0.5,-0.5 0.5 ,-0.5 0.5,-0.5 0.5 ,0 0.5,0 1,0 z" />
<path id="path3347" class="fil4" d="m 161.67123,54.815927 1,0.5 -0.5,2.88002 8.73522,2.4 -0.5 ,3.9 -8.73522,-2.4 -0.5,2.88002 -1,-0.5 1.4,-9.6642 z" />
<path id="path3349" class="fil4" d="m 164.10225,47 9.7,-0.5 -0.5,3.4 -1.9,0.5 -0.5,3.4 1.9,1.5  0,1.4 -9.18313,-6.30372 0.5 ,-3.4 z m 5.8,6.30462 0.5,-2.9 -4.4,0 3.9,2.9 z" />
<path id="path3351" class="fil4" d="m 175.23778,43.2 -9.21564,-2.4 c 0.3,-5 0,-9.862045 5.82378,-8.95 5.33833,1.841197 3.8,6.9 3.4,11.4 z m -0.5 ,-3.9 c 1.37755,-4.5 -7.63725,-5.800252 -7.74367,-1.9 z" />
<path id="path3353" class="fil4" d="m 167,23.808507 0.5 ,-1.5  0,-0.95 0.5,-0.95 0.5 ,-0.5 1,-0.5  1,-0.5 1,0 1,0 1.5 ,0.5 1,0.5  0.5 ,0.5 1,0.95 0.5,0.5 0,1.5  0.5,0.95 0,1.4 -0.5,1 0,1.4 -0.5,0.95 -0.5 ,0.5  -1,0.5 -1,0.5 -1,0 -1,0 -1.4,-0.5 -1,-0.5 -0.5 ,-0.5  -1,-0.95 -0.5,-0.95 0,-1 -0.5 ,-0.95 0,-1.5 z m 1,0.5 0,0.5 0,0.5 0.5 ,0 0.5,0.5 0.5 ,0 0,0.5 0.5,0 0.5,0 0.5 ,0 0.5,0 0.5 ,0.5 1,0 0.5,0 0.5,0 0.5 ,0 0.5,0 0.5 ,0 0.5,0 0.5 ,-0.5 0,-0.5 0,-0.5 0,-0.5 0,-0.5 -0.5 ,0 0,-0.5 -0.5,0 -0.5 ,0 -0.5,-0.5 -0.5 ,0 -0.5,0 -0.5,0 -0.5 ,-0.5  -0.5,0 -1,0 -0.5 ,0 -0.5,0 -0.5,0 -0.5 ,0 -0.5,0 0,0.5  -0.5 ,0 0,0.5 0,0.5 z" />
<path id="path3355" class="fil4" d="m 6.2,141.50469 -3.4,-8.22464 4.86383,-1 1,-0.5 0.5,0 0.95,0 0.5 ,0 0.5,0.5 0.5,0.5 0.5 ,0.5 0,0.5 0.5,0.5 0,0.5 -0.5,0.5 0,0.5 -0.5 ,0.5 -1,0.5  -0.95,0.5 -1,0 -1,0.5 1.4,3.4 -2.9,0.5 z m 1.5 ,-4.8 0.5,0 0.5 ,0 0.5,-0.5  0,-0.5 0.5 ,0 0,-0.5 -0.5 ,-0.5 0,-0.5 0,-0.5 -0.5,0 0,-0.5 -0.5 ,0 -0.5,-0.5 -0.5,0 0,0.5 -1,0 1.5 ,3.4 z" />
<path id="path3357" class="fil4" d="m 15.4,139.58468 -1.5 ,-9.21625 4.4,-0.5 0.5,0 0.5 ,0 0.5,0 0.5 ,0 0.5,0.5 0.5 ,0 0.5,0 0.5,0.5 0.5 ,0.5 0,0.5 0,0.5 0,0.5 0,0.5 -0.5 ,0.5 -0.5,0 -0.5,0.5 -0.5 ,0 0.5 ,0 0.5,0 0,0.5 0.5,0 0.5 ,0 0,0.5 0.5,0.5 0,0.5 0,0.5  0.5 ,0 0,0.5 0,0.5 0,0.5 0.5,0 0,0.5  -3.4,0 0,-0.5  -0.5,0 0,-0.5 0,-0.5 0,-0.5 0,-0.5  -0.5 ,-0.5 0,-0.5 -0.5,0 0,-0.5 -0.5 ,0 -0.5,0 -0.5,0 0.5,4.3521 -2.9,0.5 z m 2.4,-5.34461 0.5,0 0.5,-0.5 0.5 ,0 0.5,-0.5 0,-0.5 0,-0.5 0,-0.5 -0.5,-0.5 -0.5 ,-0.5 -0.5,0 -0.5,0 -0.5 ,0 0.5 ,3.4 z" />
<path id="path3359" class="fil4" d="m 30.415391,129.88797 1.4,0 1,0 0.5,0.5 1,0.5 0.5 ,0.95 0,0.5 0.5,1 0,0.95 -0.5,1.4 0,1 -0.5 ,0.5 -0.5,0.5 -1,0.5 -1,0.5  -1,0 -1,0 -1,0 -1,0 -1,-0.5  -0.5 ,-0.5 -0.5,-0.95 -0.5 ,-0.5  0,-1 0,-1.4 0,-0.95 0.5 ,-1 0.5,-0.5 0.5 ,-0.5 0.5,-0.5 1,-0.5 1,0 1,0 z m 0,0.5 -0.5 ,0 -0.5,0.5 0,0.5 -0.5 ,0 0,0.5 0,0.5 0,0.5 0,0.5 0,0.5 0,0.5 -0.5,0.5 0,0.5 0,0.5 0,0.5 0,0.5  0.5,0 0,0.5 0,0.5 0.5 ,0.5 0.5,0 0.5 ,0 0.5,0 0,-0.5 0.5 ,0 0,-0.5 0,-0.5 0,-0.5  0,-0.5 0.5,-0.5 0,-0.5 0,-0.5 0,-0.5 0,-0.5 0,-0.5 0,-0.5 0,-0.5 0,-0.5 -0.5,-0.5 0,-0.5 -0.5 ,0 -0.5,0 z" />
<path id="path3361" class="fil4" d="m 107.4,148.28797 -0.5,5.82416 0,0.95 -0.5,0.5 0,0.5 -0.5 ,0.5 -1,0.5 -0.5,0 -1,0 -1,0 -1,0 -1,0 -0.5,-0.5 -0.5 ,-0.5 -0.5,-0.5 -0.5,-0.5 0,-0.5  0,-0.95 0.5,-5.82416 2.9,0 0,6.30372 0,0.5 0,0.5  0,0.5 0.5,0.5 0.5,0 0.5 ,0 0.5,0 0.5 ,0 0.5,0 0.5 ,-0.5 0.5,-0.5 0,-0.5  0,-0.5 0.5 ,-5.82416 1,0 z" />
<path id="path3363" class="fil4" d="m 41.550921,135.68052 4.35181,1 -1.4,4.35209 -1,0 0,-0.95 -0.5,0.5 -0.5 ,0 -0.5,0 -0.5 ,0 -0.5,0 -0.5 ,0 -0.5,-0.5 -0.5 ,0 -0.5,0 -0.5,-0.5 -0.5 ,0 -0.5,-0.5 0,-0.5 -0.5 ,0 0,-0.5  -0.5,-0.5 0,-0.5 0,-0.5 0,-0.5  0,-0.5 0.5,-0.5 0,-0.5 0,-0.5 0.5 ,-0.5 0.5,-0.5 0.5 ,-0.5 0,-0.5 0.5,0 0.5,-0.5 0.5 ,0 0.5,0 0.5 ,-0.5 0.5,0 0.5 ,0 0.5,0 0.5 ,0 0.5,0 1,0.5 0.5,0 0.5 ,0.5 0.5,0.5 0,0.5 0,0.5 0.5 ,0.5 0,0.5 -1.9,0.5 0.5,-0.5 0,-0.5 0,-0.5 0,-0.5 -0.5,-0.5 -0.5 ,-0.5 -0.5,0 -0.5,0 -0.5 ,0 -0.5,0.5 -0.5 ,0.5 -0.5,0.5 0,0.5 -0.5 ,0.5 0,0.5 0,0.5 -0.5,0.5 0,0.5  0,0.5 0,0.5 -0.5 ,0 0,0.5 0,0.5  0,0.5 0.5 ,0 0,0.5 0.5,0 0.5 ,0 0.5,0 0.5 ,0 0,-0.5 1,-2.4 -1.4,-0.5  0,-0.5 z" />
<path id="path3365" class="fil4" d="m 45.9,141.50469 4.86383,-8.22464 3.9,1.4 0.5 ,0.5 0.5,0 0.5 ,0.5 0.5,0 0,0.5 0.5 ,0 0,0.5  0.5,0.5 0,0.5 0,0.5 -0.5,0 0,0.5  -0.5 ,0.5 -0.5,0.5 -0.5 ,0 -0.5,0 -0.5 ,0 -0.5,0 0.5,0.5 0,0.5 0.5 ,0 0,0.5 0,0.5 -0.5 ,0 0,0.5 0,0.5 -0.5,0.5 0,0.5 0,0.5 0,0.5 -3.4,-0.95 0,-0.5 0.5 ,0 0,-0.5 0,-0.5 0,-0.5 0.5,-0.5 0.5 ,-0.5 0,-0.5 0,-0.5 0,-0.5 -0.5 ,0 0,-0.5 -0.5,0 -2.4,3.9 -2.9,-0.95 z m 5.34335,-3.9 0.5,0.5 0.5 ,0 0.5,0 0.5 ,0 0.5,0 0.5 ,0 0,-0.5 0,-0.5 0.5,0 0,-0.5 0,-0.5  0,-0.5 -0.5,0 -0.5 ,0 0,-0.5 -0.5,0 -1.9,2.4 z" />
<path id="path3367" class="fil4" d="m 66.252991,139 -0.5 ,1 -3.4,-1.5  -1.4,2.4 2.9,0.95 -0.5 ,1 -2.9,-1 -1.9,2.9 4.3518,1.95 -0.5 ,0.5 -6.8,-2.4 4.3518,-8.22463 6.3033,2.4 z" />
<path id="path3369" class="fil4" d="m 63.341561,147.80841 4.4,-8.22373 4.3518,1.5 1,0.5 0.5 ,0.5 0.5,0.5 0.5 ,1 0.5,0.5 0,0.95 -0.5,0.95 -0.5 ,1 -0.5,0.95 -0.5 ,0.5  -1,0.5 -1,0.5 -0.5,0.5 -1,0 -1.4,-0.5 -1,0 -3.9,-1.5 z m 3.4,0.5  0.5 ,0 0.5,0 0.5,0 0.5 ,0 0.5,0 0.5 ,-0.5  0,-0.5 0.5,0 0,-0.5 0.5 ,-0.5 0,-0.5 0.5,0 0,-0.5 0.5 ,-0.5 0,-0.5 0.5,-0.5 0,-0.5 0,-0.5 0,-0.5 0,-0.5 -0.5,0 -0.5 ,-0.5 -1,0 -3.4,6.8 z" />
<path id="path3371" class="fil4" d="m 79.820441,143.95 -3.9,8.22373 -2.9,-0.95 3.9,-8.22373 2.9,0.95 z" />
<path id="path3373" class="fil4" d="m 85.644221,145.37633 -0.5,9.21625 -2.9,-0.5 0,-1.95 -2.9,-0.95 -1.5 ,1.5 -1,0 6.3042,-7.74328 2.4,0.5 z m -5.82378,4.86416 2.4,0.95 0.5 ,-4.3521 -2.9,3.4 z" />
<path id="path3375" class="fil4" d="m 98.7,148.28797 -2.4,8.70418 -3.4,-0.95 1.9,-5.8 -3.9,5.8 -1.4,-0.5 -0.5 ,-6.30462 -1.95,5.82417 -1,0 2.4,-8.7358 3.4,0.5 0,5.3121 3.4,-4.8 3.4,0.95 z" />
<path id="path3377" class="fil4" d="m 109.35474,156.99215 -1.4,-8.70418 4.8,-0.5  0.5,0 0.5,0 0.5 ,0 0.5,0 0.5 ,0 0.5,0.5  0.5 ,0 0,0.5 0.5,0 0,0.5 0.5,0.5 0,0.5 -0.5,0.5 0,0.5 -0.5,0 -0.5 ,0.5 -1,0.5 0.5 ,0 0.5,0 0.5 ,0 0,0.5  0.5,0 0,0.5 0.5,0 0,0.5 0,0.5  0.5 ,0.5 0,0.5  0,0.5 0.5,0.5 -3.4,0.5 0,-0.5 -0.5,-0.5 0,-0.5 0,-0.5  0,-0.95 -0.5 ,-0.5 0,-0.5 -0.5,0 -0.5,0 -0.5 ,0 -0.5,0 0.5,3.9 -2.9,0.5 z m 2.4,-5.3121 0.5,0 0.5 ,0 0.5,0 0,-0.5 0.5,0 0,-0.5 0,-0.5 0,-0.5 0,-0.5 -0.5,0 0,-0.5 -0.5,0 -0.5 ,0 -0.5,0 -0.5 ,0 0.5 ,2.9 z" />
<path id="path3379" class="fil4" d="m -18.989659,181.7 -0.5 ,0 -1,0.5 -0.5,0 -1,0.5 -0.5 ,0 -1,0.5 -0.5,0 -1,0.5  -0.5,0 -0.5 ,0.5 -1,0 -0.5,0.5 -0.5,0 -1,0 -0.5 ,0.5 -0.5,0 0,0.5 0.5,0.5 0.5 ,0.5 0.5,0.5 0.5 ,0.5 0,0.5 0.5,0.5  -0.5,0 -0.5 ,0 -0.5,-0.5  -1,-0.5 -0.5 ,-0.95 -0.5,-0.5 -0.5 ,-0.5 -0.5,-1 -0.5,-0.5 -0.5 ,-0.5 0.5 ,-0.5  1,0 0.5 ,-0.5 0.5,0 1,-0.5 0.5 ,0 1,-0.5 0.5,0 1,-0.5 0.5,0 1,-0.5  0.5 ,0 1,-0.5 0.5 ,-0.5 1,0 1,-0.5 0,0.5 0.5,0 0,0.5 0.5 ,0.5 0.5,0.5  0.5 ,0.5 z m 9.7,9.21535 0,0.5 -0.5,0 -0.5,0 -0.5 ,0 -0.5,-0.5 -0.5 ,-0.5 -0.5,-0.5 -0.5 ,-0.5 -0.5,0 -0.5,-0.5 -0.5 ,-0.5 -0.5,0 -0.5 ,0.5 -0.5,0 -0.5 ,0.5 -0.5,0 -0.5 ,0 -0.5,0.5 -0.5,0 0.5,0 0.5,0.5 0,0.5 0.5 ,0 0.5,0.5 0,0.5 0.5 ,0 0.5,0.5 -0.5,0 -0.5 ,0 -0.5,0.5 -0.5 ,-0.5 0,-0.5 -0.5,0 -0.5,-0.5 -0.5 ,-0.5 -0.5,-0.5 -1,0 -0.5 ,0.5 -0.5,0 -0.5 ,0 -0.5,0.5 -1,0 -0.5 ,0.5 -0.5,0 0.5,0.5 0.5 ,0.5 0.5,0 0,0.5 0.5 ,0.5 0.5,0.5 0.5 ,0.5 0.5,0.5 -0.5,0 -0.5 ,0 -0.5,0 -0.5 ,-0.5 -0.5,-0.5 -1,-0.95 -0.5,-0.5 -1,-1 -0.5 ,-0.5 -1,-0.5 -0.5,-0.95 1,0 0.5,-0.5 0.5 ,0 1,-0.5 0.5,0 1,-0.5 0.5,0 1,-0.5  0.5 ,0 1,-0.5 1,-0.5 0.5,0 1,-0.5 0.5,0 1,-0.5 1,-0.5 0.5 ,0.95 1,0.5 0.5,0.5 1,0.95 1,0.5 0.5,0.95 1,0.5 0.5,0.5 z m 1,6.30462 0.5 ,0.5  0.5,0 1,0.5 0.5,0.5 1,0.5 0.5 ,0.5 1,0.5  0.5,0 -0.5,0.5 -1,0.5 -1,0.5 -0.5 ,0.5 -1,0 -0.5 ,0.5 -1,0.5 -1,0.5 0,-0.5 -0.5,0 0,-0.5 -0.5,0 0,-0.5 0.5,0 -1,0 -0.5,-0.5 -0.5 ,0 -0.5,0 -0.5 ,-0.5 -0.5,0 -0.5,-0.5 -0.5 ,0 -0.5,-0.5 -0.5 ,-0.5  -0.5,-0.5 -0.5 ,-0.5 -0.5,0 0,-0.5 -0.5 ,-0.5 0,-0.5  0,-0.5 0.5 ,-0.5 0,-0.5 0.5,-0.5 0.5 ,-0.5 0.5,0 0.5 ,-0.5 0.5,-0.5 1,0 0.5,-0.5 0.5 ,0 1,-0.5 0.5,0 1,0 1,0 1,0 0.5,0 1,0 1,0.5 0.5,0 1,0.5 1,0 0.5,0.5 1,0.5 0.95,0.5 0.5,1 0,0.5 0,0.5 0,0.5  -0.5,0.5 -0.5 ,0.5 -0.5,0 -0.5 ,0 -0.5,0 0,-0.5 -0.5,0 -0.5,0 -0.5 ,0 0.5 ,0 0,-0.5 0.5,0 0.5,-0.5  0.5,0 0,-0.5 0,-0.5 0,-0.5 -0.5,0 -0.5,-0.5 -0.5,0 -0.5 ,-0.5 -0.5,0 -0.5 ,0 -0.5,0 -0.5 ,0 -0.5,0 -0.5,0 -0.5 ,0 -0.5,0.5 -0.5 ,0 -0.5,0.5 -0.5 ,0 -1,0.5 -0.5 ,0.5 -0.5,0 -0.5 ,0.5 -0.5,0.5  -0.5 ,0 -0.5,0.5 -0.5,0.5 -0.5 ,0.5 0.5 ,0 0,0.5 0.5,0 0,0.5  0.5,0 0.5 ,0 0,0.5 0.5,0 0.5 ,0 0.5,-0.5 0.5 ,0 0.5,-0.5  0.5,0 0.5 ,-0.5 0.5,0 0.5 ,0 0,-0.5 -0.5 ,0 0,-0.5 -0.5,0 -0.5 ,0 0,-0.5 -0.5,0 0.5,0 0,-0.5  0.5 ,0 0.5,0 z m 27.1,1.9 -0.5,0 0,0.5 0,0.5  -1,0 -1.4,-0.5  -1,0 -1,0 -1,-0.5 -1,0 -1,-0.5 -1,0 -0.5,0.5 0,0.5 -0.5 ,0.5  0,0.5 0,0.5 0,0.5 -0.5,0 1,0.5 0.95,0 1,0 0.5 ,0.5 1,0 1,0 1,0.5 1,0 -0.5,0.5 0,0.5 -1,0 -1,0 -0.5,-0.5 -1,0 -1,-0.5 -1,0 -0.5,0 -1,-0.5 -0.5 ,0.5 0,0.5 0,0.5 -0.5,0.5 0,0.5  0,0.5 -0.5,0.5 0,0.5 1.5 ,0.5 1,0.5 0.95,0 1.5 ,0.5 1,0 1.4,0.5 1,0 1.4,0.5 -0.5 ,0.5 0,0.5 -1.95,-0.5 -1.9,-0.5 -1.95,-0.5 -1.9,-0.5 -1.95,-0.5 -1.9,-0.5 -1.95,-0.5 -1.9,0 0.5,-0.95 0,-0.5 0,-0.5  0.5 ,-0.5 0,-0.5 0.5,-1 0,-0.5 0,-0.5 0.5 ,-0.5 0,-0.95 0,-0.5  0.5,-0.5 0,-0.5 0.5 ,-0.95 0,-0.5  0,-0.5 1.95,0 1.95,0.5 1.4,0.5  1.9,0 1.95,0.5 1.95,0.5 1.9,0 1.95,0.5 z" />
<path id="escudo1" class="fil4" d="M-80,-80 h160 v155 a15,15 0 0,1 -15,15 h-45 a20,20 0 0,0 -20,20 a20,20 0 0,0 -20,-20 h-45 a15,15 0 0,1 -15,-15z"/>
<path id="escudo2" class="fil1" d="M-75,-75 h150 v150 a10,10 0 0,1 -10,10 h-50 a15,15 0 0,0 -15,15 a15,15 0 0,0 -15,-15 h-50 a10,10 0 0,1 -10,-10z"/>
<path id="escudo3" class="fil7" d="M-70,-70 h140 v145 a5,5 0 0,1 -5,5 h-55 a10,10 0 0,0 -10,10 a10,10 0 0,0 -10,-10 h-55 a5,5 0 0,1 -5,-5z"/>
<path id="faixa" class="fil1" d="M-65,-25 L-65,-65 h40 l90,105 v32.5 a2.5,2.5 0 0,1 -2.5,2.5  h-37.5 z"/>
<use xlink:href="#star" y="5" class="fil4"/>
</svg>
