<?xml version="1.0" encoding="utf-8"?>
<!-- Generator: Adobe Illustrator 15.1.0, SVG Export Plug-In . SVG Version: 6.00 Build 0)  -->
<!DOCTYPE svg PUBLIC "-//W3C//DTD SVG 1.1//EN" "http://www.w3.org/Graphics/SVG/1.1/DTD/svg11.dtd">
<svg version="1.1" xmlns="http://www.w3.org/2000/svg" xmlns:xlink="http://www.w3.org/1999/xlink" x="0px" y="0px" width="230px"
	 height="226px" viewBox="0 0 230 226" enable-background="new 0 0 230 226" xml:space="preserve">
<g id="Camada_1">
	<path fill="#2C2C2B" d="M117.594,213.52l1.734,1.414l-1.766,1.996l-2.211-1.594l-0.145-6.23l-3.367,0.195l0.031,6.109l-2.789,1.71
		l-2.086-1.784l1.907-1.387l-5.821-2.336l0.477,6.57l1.812-1.566l8.149,8.988l7.945-9.352l1.992,1.484l0.609-6.598L117.594,213.52z
		 M104,216.203l-0.238-3.555l3.441,1.359L104,216.203z M113.61,222.922l-3.731-4.216l2.949-1.788l1.653-0.039l2.414,1.824
		L113.61,222.922z M122.559,215.965l-3.148-2.266l3.477-1.277L122.559,215.965z"/>
	<g>
		<g>
			<path fill="#FFF697" d="M115.782,1.786c6.563-7.602,12.664,18.367,22.645,19.933c10.828,1.699,20.902-16.332,30.742-11.555
				c9.094,4.418-1.508,22.848,6.113,29.45c6.52,5.652,19.496-7.375,25.961-1.657c5.832,5.161-5.918,16.68-1.645,23.168
				c4.5,6.836,21.25,1.184,22.945,9.168c1.91,8.996-17.656,13.336-16.242,22.422c1.691,10.852,22.676,12.508,23.383,23.469
				c0.555,8.652-20.234,7.203-20.852,15.852c-0.719,10.109,20.641,14.878,17.969,24.664c-2.652,9.73-19.512,6.566-28.004,12.141
				c-9.395,6.164-15.902,15.938-24.938,22.613c-5.844,4.316-12.422,7.848-19.352,10.113c-12.047,3.941-24.469,7.359-37.117,8.363
				c-9.66,0.766-19.504-0.785-28.902-3.117c-9.34-2.317-18.883-5.258-26.786-10.699C51.098,188.816,44.227,177.109,34,169.301
				c-7.504-5.734-21.281-4.801-25-13.431c-2.855-6.625,12.66-11.479,11.215-18.539c-2.07-10.108-19.937-13.554-19.91-23.87
				c0.023-9.132,17.461-10.172,20.02-18.954c2.171-7.461-11.559-14.89-8.118-21.871c3.993-8.094,20.321-3.715,24.645-11.633
				c4.793-8.781-9.746-23.492-1.988-29.867c8.527-7.004,23.285,9.789,32.953,4.43c7.957-4.414-1.879-22.664,6.468-26.289
				c8.282-3.594,17.711,20.039,23.586,13.242L115.782,1.786z M115.782,1.786"/>
		</g>
		<path fill="#FFFFFF" d="M78.84,189.715c-1.668,3.159-4.715,7.961-6.488,11.23c26.488,11.777,54.094,10.621,81.395,1.082
			c-1.402-4.273-2.695-8.441-3.984-12.605C124.719,198.051,102.668,199.402,78.84,189.715L78.84,189.715z M78.84,189.715"/>
		<path fill="none" stroke="#2C2C2B" stroke-width="0.5" d="M78.84,189.715c-1.668,3.159-4.715,7.961-6.488,11.23
			c26.488,11.777,54.094,10.621,81.395,1.082c-1.402-4.273-2.695-8.442-3.984-12.605C124.719,198.051,102.668,199.402,78.84,189.715
			L78.84,189.715z M78.84,189.715"/>
		<path fill="#FFFFFF" d="M114.055,67.07c21.969-0.492,40.313,21.269,40.938,48.57c0.625,27.305-16.699,49.867-38.672,50.359
			c-21.969,0.492-40.313-21.27-40.938-48.574C74.758,90.125,92.082,67.563,114.055,67.07L114.055,67.07z M114.055,67.07"/>
		<path fill="none" stroke="#2C2C2B" stroke-width="0.4995" d="M114.055,67.07c21.969-0.492,40.313,21.269,40.938,48.57
			c0.625,27.305-16.699,49.867-38.672,50.358c-21.969,0.493-40.313-21.269-40.938-48.573C74.758,90.125,92.082,67.563,114.055,67.07
			L114.055,67.07z M114.055,67.07"/>
		<path fill="#BAE4F7" d="M114.532,78.96c15.738-0.351,28.906,16.375,29.386,37.34c0.48,20.969-11.906,38.27-27.645,38.621
			c-15.742,0.355-28.91-16.375-29.391-37.341C86.403,96.618,98.789,79.313,114.532,78.96L114.532,78.96z M114.532,78.96"/>
		<path fill="none" stroke="#2C2C2B" stroke-width="0.5003" d="M114.532,78.96c15.738-0.351,28.906,16.375,29.386,37.34
			c0.48,20.969-11.906,38.27-27.645,38.621c-15.742,0.355-28.91-16.375-29.391-37.34C86.403,96.617,98.789,79.313,114.532,78.96
			L114.532,78.96z M114.532,78.96"/>
		<path fill="#2C2C2B" d="M129.801,122.875c0.332,0.109,0.523,0.297,0.539,0.5L129.801,122.875z M129.665,123.004
			c0.395,0.168,0.586,0.359,0.539,0.523L129.665,123.004z M107.258,117.309L107.258,117.309c0.27,1.215,0.715,2.065,1.281,2.543
			c0.625,0.492,1.036,1.277,1.289,2.285c0.133,0.219,0.153,0.469,0.114,0.723c-0.067,0.258-0.11,0.492-0.09,0.719
			c-0.117,0.402,0.051,0.66,0.492,0.691c0.434,0.277,0.863,0.562,1.324,0.793c0.485,0.207,0.946,0.465,1.403,0.695
			c0.125,0.105,0.363,0.105,0.625,0.082c0.293-0.027,0.519-0.095,0.605-0.148c0.082-0.074,0.129-0.215,0.117-0.375
			c-0.011-0.184-0.136-0.266-0.371-0.242c0.238,0.023,0.363,0.129,0.371,0.242c0.016,0.179-0.035,0.324-0.117,0.375
			c0.371,0.265,0.602,0.176,0.656-0.266c0,0-0.07-0.129-0.144-0.332c-0.074-0.219-0.196-0.277-0.227-0.254
			c0.219,0.164,0.324,0.363,0.336,0.52c0.012,0.16,0.074,0.222,0.246,0.164c0.145-0.063,0.161-0.223,0.024-0.485
			c-0.141-0.261-0.352-0.358-0.555-0.339s-0.437,0.063-0.609,0.125c-0.172,0.063-0.375,0.082-0.555,0.051
			c-0.242-0.137-0.609-0.332-0.98-0.551c-0.372-0.219-0.594-0.473-0.618-0.77c-0.144-0.719,0.086-1.566,0.633-2.465
			c0.578-0.922,0.75-1.766,0.492-2.43c-0.015-0.18,0.071-0.211,0.2-0.063c1.511,1.305,2.769,1.625,3.753,1.055
			c0.984-0.594,1.969-0.777,2.781-0.484c0.113,0.699,0.199,1.426,0.258,2.199c0.027,0.753,0.086,1.503,0.137,2.164
			c0.039,0.5,0.191,0.969,0.461,1.425c0.07,0.177,0.199,0.302,0.352,0.38c0.379-0.035,0.848-0.055,1.316-0.051
			c0.531-0.004,0.82-0.051,0.844-0.145c0.016-0.164-0.113-0.313-0.418-0.469c-0.152-0.078-0.359-0.082-0.535-0.063
			c-0.172,0.039-0.352-0.016-0.512-0.184s-0.238-0.414-0.234-0.734c0.035-0.348,0.07-0.625,0.055-0.809
			c0.141-0.516,0.285-0.918,0.438-1.23c0.18-0.336,0.297-0.715,0.266-1.148c0.613,0.355,1.195,0.648,1.738,0.871
			c0.52,0.249,1.098,0.495,1.555,0.706c0.215,0.118,0.578,0.271,1,0.414c0.422,0.165,0.73,0.321,0.859,0.493
			c0.082,0.313,0.238,0.438,0.469,0.371c0.203-0.066,0.469-0.043,0.742,0.066c0.328,0.086,0.625,0.152,0.809,0.227
			c0.238,0.07,0.535,0.066,0.879-0.012c0.32-0.422,0.301-0.691-0.031-0.801c-0.359-0.102-0.75-0.207-1.078-0.289
			c-0.473-0.027-0.773-0.138-0.844-0.266c-0.07-0.156-0.23-0.324-0.387-0.469c-1.113-0.703-2.148-1.594-3.051-2.633
			c-0.184-0.098-0.289-0.297-0.305-0.547c-0.008-0.043-0.094-0.402-0.227-1.008c-0.137-0.629-0.195-1.016-0.141-1.066
			c0.25,0.574,0.473,1.172,0.574,1.758c0.105,0.609,0.504,1.172,1.188,1.68c-0.063-0.063-0.137-0.262-0.188-0.508
			c-0.074-0.247-0.09-0.406-0.09-0.43c0.266,0.391,0.43,0.625,0.492,0.668c0.051-0.098,0.137-0.52,0.203-1.164
			c0.038-0.672,0.09-1.156,0.129-1.41c0.125,0.125,0.156,0.488,0.141,1.063c-0.043,0.602-0.16,0.977-0.293,1.172
			c0.164-0.152,0.461-0.478,0.84-0.945c0.371-0.492,0.578-0.855,0.559-1.129c0.063,0.039,0.344,0.265,0.746,0.57
			c-0.008-0.137-0.066-0.496-0.164-1.017c-0.098-0.539-0.125-0.858-0.129-0.901c-0.012-0.16,0.055-0.051,0.234,0.367
			c0.211,0.413,0.434,0.648,0.73,0.691c-0.012-0.16-0.129-0.539-0.266-1.168c-0.164-0.605-0.227-1.012-0.18-1.199
			c0.035,0.085,0.137,0.262,0.27,0.457c0.137,0.238,0.273,0.5,0.316,0.703c0.113-0.078,0.211-0.34,0.215-0.66
			c0.035-0.324,0.012-0.622-0.063-0.797c0.297,0.43,0.68,0.785,1.113,1.09c-0.07-0.156-0.117-0.379-0.137-0.652
			c-0.02-0.25-0.016-0.551-0.035-0.845c-0.246-0.14-0.059,0.005,0.535,0.478c0.594,0.449,1.199,0.324,1.734-0.363
			c-0.004-0.047,0.023-0.094,0.078-0.145s0.105-0.148,0.098-0.263c0.215-0.226,0.371-0.491,0.383-0.722
			c0.203-0.066,0.305-0.258,0.281-0.555c0-0.023-0.348-0.312-1.031-0.82c-0.133-0.172-0.23-0.301-0.266-0.391
			c-0.063-0.086-0.16-0.191-0.258-0.32c-0.395-0.535-1.16-0.945-2.18-1.242c0.289-0.051,0.648,0.054,0.996,0.343
			c0.398,0.262,0.844,0.313,1.242,0.137c-0.273-0.133-0.672-0.324-1.102-0.563c-0.43-0.258-0.793-0.387-1.027-0.364
			c0.234-0.047,0.465-0.113,0.691-0.222c0.195-0.114,0.457-0.157,0.75-0.184c0.023-0.051-0.242-0.07-0.797-0.043
			c-0.586,0.031-1.023,0.094-1.191,0.18c0,0-0.066-0.086-0.191-0.215c-0.129-0.125-0.227-0.254-0.262-0.34
			c-1.172,0.426-1.738,0.34-1.691-0.215c-0.289,0.465-0.375,0.883-0.324,1.153c-0.621-0.078-1.063-0.086-1.262,0.023
			c-0.227,0.113-0.684,0.293-1.223,0.527c-0.344,0.122-0.965,0.43-1.754,0.895c-0.449,0.269-0.879,0.398-1.289,0.414
			c-0.383-0.012-0.797,0.348-1.156,1c-0.41,0.039-0.75,0.16-0.977,0.32c-0.223,0.156-0.707,0.316-1.523,0.414
			c-1.457,0.18-2.746,0.203-3.902,0.059c-1.129-0.148-2.618-0.035-4.469,0.363c-0.844,0.077-1.602,0.559-2.153,1.391
			c-0.554,0.828-1.089,1.543-1.511,2.133c-0.289,0.461-1.031,1.511-2.145,3.129c-1.109,1.613-1.922,2.879-2.386,3.723
			c-0.098,0.262-0.317,0.465-0.606,0.516c-0.289,0.07-0.309,0.188-0.129,0.262c0.004,0.046,0.129,0.148,0.403,0.285
			c0.277,0.136,0.425,0.145,0.414,0.008c-0.012-0.137,0.082-0.465,0.316-0.875c0.516-0.941,1.277-2.09,2.27-3.348
			c0.988-1.285,1.855-2.258,2.57-2.895c0.058,0.016-0.113,0.859-0.516,2.499c-0.371,1.661-0.57,2.528-0.535,2.591
			c-0.035-0.043-0.066,0.28-0.047,0.969c-0.008,0.664,0.028,1.121,0.074,1.32c0.063,0.434,0.121,0.84,0.153,1.246
			c0.066,0.086,0.25,0.206,0.465,0.281l-0.024-0.273c0,0.023,0.008,0.066,0.008,0.112c0.004,0.048,0.012,0.114,0.016,0.161
			c0.293-0.004,0.523-0.027,0.726-0.066c0-0.023,0.024-0.07,0.024-0.07c0.027-0.027,0.054-0.074,0.05-0.098
			c-0.015-0.227-0.019-0.273-0.007-0.137c0.007,0.137,0.019,0.25,0.023,0.296c0.059,0.017,0.234,0,0.469-0.019
			c0.175-0.363,0.125-0.633-0.235-0.762c-0.363-0.125-0.629-0.125-0.683-0.074c-0.02-0.25-0.102-0.563-0.125-0.883
			c-0.051-0.293-0.016-0.594,0.078-0.875c0.258-0.508,0.773-1.035,1.418-1.484c0.668-0.473,1.215-1.004,1.523-1.582
			c-0.203-0.301-0.59-0.793-1.074-1.367C107.606,118.813,107.317,118.105,107.258,117.309L107.258,117.309z M107.258,117.309"/>
		<path fill="#A9D4AD" d="M88.762,129.348c4.605,17.348,15.074,25.022,28.363,25.688c13.406-1.262,26.68-14.625,26.574-40.398
			l-10.246,5.031l-8.051,1.781l-6.109,1.898l-10.035,0.065l-2.207,2.61l-5.66,0.129l-5.449,2.359
			C95.282,128.801,90.532,128.988,88.762,129.348L88.762,129.348z M88.762,129.348"/>
		<path fill="none" stroke="#2C2C2B" stroke-width="0.5002" d="M88.762,129.348c4.605,17.348,15.074,25.023,28.363,25.688
			c13.406-1.262,26.68-14.625,26.574-40.398l-10.246,5.03l-8.051,1.782l-6.109,1.898l-10.035,0.066l-2.207,2.609l-5.66,0.129
			l-5.449,2.359C95.282,128.801,90.532,128.988,88.762,129.348L88.762,129.348z M88.762,129.348"/>
		<path fill="#E21C2A" d="M127.571,136.543l-2.102-5.941l-2.152,6.035l-5.668,0.129l4.973,2.91l-2.742,6.48l6.176-4.238l5.434,3.762
			l-2.711-6.359l4.789-2.91L127.571,136.543z M127.571,136.543"/>
		<path fill="none" stroke="#2C2C2B" stroke-width="0.4999" d="M127.571,136.542l-2.102-5.94l-2.152,6.035l-5.668,0.129l4.973,2.91
			l-2.742,6.48l6.176-4.239l5.434,3.763l-2.711-6.359l4.789-2.91L127.571,136.542z M127.571,136.542"/>
		<polyline fill="none" stroke="#2C2C2B" stroke-width="0.5002" points="92.739,137.547 100.485,136.414 107.715,134.172 
			112.328,130.547 121.395,130.664 128.938,127.773 137.317,126.145 143.856,121.835 		"/>
		<path fill="#2C2C2B" d="M113.278,88.398l2.746-0.063l0.652,28.465l-2.75,0.063L113.278,88.398z M113.278,88.398"/>
		<path fill="none" stroke="#2C2C2B" stroke-width="1.1406" d="M113.278,88.398l2.746-0.063l0.652,28.465l-2.75,0.063
			L113.278,88.398z M113.278,88.398"/>
		<path fill="#009240" d="M114.391,92.207c-2.148,5.168-7.555,2.411-2.809-2.5c-7.988,4.661-8.316-2.695-0.398-3.195
			c-7.106-6.402,10.82-8.246,4.668-1.223c-0.004-0.16,5.234-4.601,5.344,0.2l-2.563,1.179c4.066,0.868,6.113,5.465-0.234,3.848
			c0.34,0.793,3.418,0.883,2.668,3.461C119.333,95.938,114.59,93.8,114.391,92.207L114.391,92.207z M114.391,92.207"/>
		<path fill="none" stroke="#2C2C2B" stroke-width="0.5002" d="M114.391,92.207c-2.148,5.168-7.555,2.411-2.809-2.5
			c-7.988,4.661-8.316-2.695-0.398-3.195c-7.106-6.402,10.82-8.246,4.668-1.222c-0.004-0.161,5.234-4.602,5.344,0.199l-2.563,1.179
			c4.066,0.868,6.113,5.465-0.234,3.848c0.34,0.793,3.418,0.883,2.668,3.461C119.333,95.938,114.59,93.8,114.391,92.207
			L114.391,92.207z M114.391,92.207"/>
		<path fill="none" stroke="#2C2C2B" stroke-width="0.4999" d="M91.18,130.117c0.805-0.02,1.352,0.367,2.031,0.621
			c3.528,1.25,10.895,0.02,14.383-0.324c1.477-0.165,3.082-0.602,4.559-0.633 M102.082,128.129l8.207,0.081
			c-0.004-0.265,0.387-0.804,0.789-0.812l14.25-0.32 M113.563,125.292l23.246-0.921 M124.469,122.738l16.512-1.301 M136.235,119.332
			l5.645-0.126 M93.477,132.953c3.496-0.079,7.137,0.507,10.488-0.102l3.488-0.344 M93.762,135.227
			c1.762,0.625,4.039,0.176,5.785,0.137c-0.012-0.535,2.82-0.332,3.356-0.344 M116.145,129.551c2.824-0.066,6.602,0.383,9.273-0.345
			l-0.004-0.132l0.809-0.016 M96.344,129.266l9.547-0.082 M126.762,126.145l8.871-0.199 M140.25,117.344l1.883-0.039l0.266-0.141
			 M131.067,120.749l10.082-0.354 M121.598,123.871l4.031-0.09 M108.973,125.859l5.512-0.121"/>
		<path fill="none" stroke="#2C2C2B" stroke-width="0.4999" d="M49.875,89.292l-34.48-10.531 M49.5,91.886l-30.007-7.574
			 M52.555,94.96l-31.602-5.808 M52.243,98.628l-30.77-5.164 M52.317,101.747l-33.043-4.715 M50.145,104.915l-35.301-3.731
			 M48.977,107.757l-39.508-2.172 M47.989,110.355L5.891,109.04 M50.075,113.309l-47.77,0.141 M46.418,116.402l-41.066,0.922
			 M46.356,120.637L8.075,122.16 M49.145,124.52l-35.977,2.535 M48.825,127.859l-31.864,4.043 M51.149,131.359l-31.211,4.16
			 M49.629,134.027l-29.215,5.707 M49.887,137.164l-32.453,6.715 M52.125,140.563l-38.3,7.777 M139.321,72.145l30.359-54.422
			 M134.286,70.859l32.926-59.934 M132.176,69.617l24.203-53.735 M129.54,68.167l21.07-49.347 M126.458,67.117l17.602-46.098
			 M123,65.73l15.691-45.16 M120.372,65.089l13.793-45.808 M120.083,63.324l10.633-46.532 M125.782,12.102l-6.871,52.43l2.734-56.86
			 M116.739,64.583L116.657,2.46 M113.477,64.656L112.176,8.02"/>
		<line fill="none" stroke="#2C2C2B" stroke-width="0.5001" x1="109.774" y1="64.973" x2="108.067" y2="13.48"/>
		<line fill="none" stroke="#2C2C2B" stroke-width="0.4999" x1="106.321" y1="65.786" x2="100.055" y2="21.23"/>
		<line fill="none" stroke="#2C2C2B" stroke-width="0.5111" x1="107.953" y1="65.734" x2="103.918" y2="17.309"/>
		<path fill="none" stroke="#2C2C2B" stroke-width="0.5001" d="M104.325,66.434l-8.848-45.234 M102.16,66.917l-11.726-47.57
			 M100.672,67.57L85.16,16.661"/>
		<path fill="none" stroke="#2C2C2B" stroke-width="0.4999" d="M99.047,68.324L79.942,13.54 M96.516,69.875L74.993,11.031
			 M95.438,70.333L72.993,18.161 M93.7,70.372L71.516,23.911 M92.535,71.792L69.821,31.464 M89.879,74.542L66.121,35.704
			 M74.668,56.378l-14.453-20.16 M71.575,59.136L52.614,35.753 M68.231,60.398L44.367,34.46 M83.793,79.523L36.297,31.902
			 M58.231,60.622l-20.09-19.633 M55.867,62.074l-17.964-15.16 M55.157,64.242L39.301,53.156 M54.485,68.128L38.102,57.457
			 M53.696,71.699l-17.305-9.723 M51.68,73.895l-19.598-10.07 M51.785,78.411L26.082,66.085 M50.352,82.421L20.188,69.132
			 M48.805,86.117L14.477,73.05 M157.11,46.247l13.488-21.852 M158.563,47.829l13.352-15.996 M162.016,51.3l11.262-13.156
			 M163.918,53.734l12.883-12.93 M166.161,56.695l15.109-15.77 M168.313,60.305l22.539-20.058 M169.711,64.363l30.758-25.301
			 M171.286,66.691l28.293-21.383 M186.911,60.102l12.305-8.789 M180.489,69.391l18.945-12.527 M181.95,72.425l16.863-10.433
			 M182.489,76.02l20.207-10.301 M183.114,79.661l23.945-11.711 M182.872,83.324l31.426-13.875 M184.575,86.406l36.082-15.973
			 M185.2,89.835l31.039-12.933 M186.254,93.253l24.707-7.601 M187.047,96.792l19.141-4.019 M187.34,100.122l22.691-1.707
			 M186.739,103.872l27.391-2.079 M188.028,107.41l30.641-1.086 M188.204,112.363l35.344-1.328 M187.672,115.145l39.016,0.59
			 M187.54,118.617l34.195,1.359 M187.153,122.124l29.488,1.332 M187.083,124.977l26.953,2.32 M186.817,127.133l1.746-0.039
			l22.133,3.227 M185.52,128.527l23.277,6.262 M185.583,130.039l27.125,9.902"/>
		<path fill="none" stroke="#2C2C2B" stroke-width="0.5" d="M184.754,132.234l32.305,13.91 M184.704,134.605l39.969,20.941
			 M182.684,136.801l38.352,21.52 M181.118,139.633l34.762,21.491"/>
		<line fill="none" stroke="#2C2C2B" stroke-width="0.4999" x1="57.723" y1="141.969" x2="11.2" y2="153.922"/>
		<path fill="none" stroke="#2C2C2B" stroke-width="0.4999" d="M54.239,144.98l-40.711,13.551 M57.184,146.938l-38.406,14.297
			 M47.731,153.922l-21.238,12.184 M49.45,151.594l-25.7,11.352 M58.672,148.773l-20.23,15.219"/>
		<path fill="none" stroke="#2C2C2B" stroke-width="0.5" d="M180.079,141.754l31.387,21.352 M177.524,144.176l29.098,21.297
			 M176.047,146.148l26.156,21.035 M173.598,148.46l16.43,14.481 M172.114,150.109l16.047,16.746 M169.219,151.999l17.297,18.981
			 M166.543,153.999l17.977,20.146 M164.633,155.977l17.574,21.66 M161.379,156.48l17.641,24.457 M158.266,158.273l17.426,24.676
			 M155.02,159.098l19.012,27.223 M151.891,160.137l20.125,28.487 M147.629,159.266l20.121,33.113 M164.125,195.582l-19.637-35.602
			 M139.59,159.874l20.352,38.274 M154.571,201.066l-16.91-40.074 M135.946,162.109l10.441,28.492 M134.329,162.789l8.707,28.746
			 M139.364,192.695l-6.648-29.008 M135.477,193.855l-4.484-29.484 M128.747,166.035l2.945,28.766 M128.536,194.871l-2.922-27.797
			 M124.227,195.715l-1.098-27.941 M120.532,168.371l0.527,27.637 M117.051,168.34l0.746,27.852 M114.989,168.602l-1.11,27.565
			 M111.606,168.141l-1.203,28.215 M109.188,167.121l-1.492,29.727 M106.243,166.754l-2.157,29.202 M99.289,195.527l4.114-29.355
			 M95.481,195.508l5.398-30.246 M99.016,164.656l-6.957,28.668 M87.684,192.238l9.234-28.824 M94.93,161.953L83.86,191.57
			 M79.914,190.367l13.696-29.032 M72.184,199.473l19.879-39.176 M67.899,197.633l22.527-37.516 M64.446,194.16l20.242-32.84
			 M60.473,191.664l20.477-32.086 M56.594,188.523l20.965-29.84 M52.793,184.199l20.391-26.493 M48.985,179.23l21.664-22.867
			 M45.336,176.727l21.688-21.895 M42.844,172.48l21.09-19.621 M41.121,168.539l20.481-17.781"/>
		<path fill="#FFFFFF" d="M141.11,206.745l2.25,12.75c22.805-1.8,53.73-33.69,61.141-56.987c-3.207,2.543-8.41,8.039-11.512,10.477
			c-0.176-3.008-0.516-8.379-0.586-11.496C177.766,187.527,159.211,203.758,141.11,206.745L141.11,206.745z M141.11,206.745"/>
		<path fill="none" stroke="#2C2C2B" stroke-width="0.5" d="M141.11,206.746l2.25,12.75c22.805-1.801,53.73-33.691,61.141-56.988
			c-3.207,2.543-8.41,8.039-11.512,10.477c-0.176-3.008-0.516-8.379-0.586-11.496C177.766,187.527,159.211,203.758,141.11,206.746
			L141.11,206.746z M141.11,206.746"/>
		<path fill="#FFFFFF" d="M86.586,206.461l-1.609,12.84c-22.234-0.793-60.43-37.703-63.332-62.813
			c3.23,2.398,8.379,10.141,11.5,12.438c0.035-3.016,0.258-11.84,0.187-14.961C44.274,179.004,60.461,197.469,86.586,206.461
			L86.586,206.461z M86.586,206.461"/>
		<path fill="none" stroke="#2C2C2B" stroke-width="0.5" d="M86.586,206.46l-1.609,12.841c-22.234-0.793-60.43-37.703-63.332-62.813
			c3.23,2.398,8.379,10.141,11.5,12.438c0.035-3.016,0.258-11.841,0.187-14.961C44.274,179.004,60.461,197.469,86.586,206.46
			L86.586,206.46z M86.586,206.46"/>
		<path fill="#009240" d="M156.395,107.71c2.129,21.785-3.281,39.121-18.309,52.797c24.859,2.457,40.473-14.238,45.629-26.513
			C182.805,127.453,164.122,117.402,156.395,107.71L156.395,107.71z M156.395,107.71"/>
		<path fill="none" stroke="#2C2C2B" stroke-width="0.5" d="M156.395,107.71c2.129,21.786-3.281,39.122-18.309,52.797
			c24.859,2.457,40.473-14.238,45.629-26.512C182.805,127.453,164.122,117.402,156.395,107.71L156.395,107.71z M156.395,107.71"/>
		<path fill="#FFEC00" d="M137.708,73.23l17.152-29.629c7.652,6.391,12.199,14.789,15.539,22.891
			c2.227-2.418,4.457-4.832,6.793-7.36c8.836,24.871,14.984,55.934,6.605,74.84c-2.23-7.156-21.598-17.172-27.461-26.187
			C154.465,92.55,143.465,77.73,137.708,73.23L137.708,73.23z M137.708,73.23"/>
		<path fill="none" stroke="#5C5D5E" stroke-width="0.5" d="M137.708,73.23l17.152-29.629c7.652,6.391,12.199,14.789,15.539,22.891
			c2.227-2.418,4.457-4.832,6.793-7.36c8.836,24.871,14.984,55.934,6.605,74.84c-2.23-7.156-21.598-17.172-27.461-26.188
			C154.465,92.55,143.465,77.73,137.708,73.23L137.708,73.23z M137.708,73.23"/>
		<path fill="#009240" d="M73.598,107.589c-0.809,6.699-0.738,12.887,0.105,18.653c1.899,12.953,7.766,23.77,18.629,33.43
			c-20.406,1.211-35.781-9.418-43.519-23.341C51.254,129.285,64.68,118.538,73.598,107.589L73.598,107.589z M73.598,107.589"/>
		<path fill="none" stroke="#2C2C2B" stroke-width="0.4998" d="M73.598,107.589c-0.809,6.7-0.738,12.887,0.105,18.653
			c1.899,12.953,7.766,23.77,18.629,33.43c-20.406,1.211-35.781-9.418-43.519-23.34C51.254,129.285,64.68,118.539,73.598,107.589
			L73.598,107.589z M73.598,107.589"/>
		<path fill="#FFEC00" d="M95.282,70.55L84.305,42.714c-6.98,6.723-13.723,14.727-16.531,22.965l-9.477-7.426
			c-7.914,29.117-19.601,55.848-9.164,78.313c-0.66-6.227,19.871-21.531,25.035-30.793C76.953,87.316,88.36,75.332,95.282,70.55
			L95.282,70.55z M95.282,70.55"/>
		<path fill="none" stroke="#2C2C2B" stroke-width="0.5" d="M95.282,70.55L84.305,42.714c-6.98,6.723-13.723,14.727-16.531,22.965
			l-9.477-7.426c-7.914,29.118-19.601,55.848-9.164,78.313c-0.66-6.227,19.871-21.531,25.035-30.793
			C76.953,87.316,88.36,75.333,95.282,70.55L95.282,70.55z M95.282,70.55"/>
		<path fill="#E21C2A" d="M175.493,78.93l-2.098-5.941l-2.156,6.039l-5.668,0.125l4.973,2.91l-2.742,6.48l6.176-4.238l5.434,3.766
			l-2.711-6.364l4.789-2.91L175.493,78.93z M175.493,78.93"/>
		<path fill="none" stroke="#2C2C2B" stroke-width="0.4999" d="M175.493,78.93l-2.098-5.941l-2.156,6.039l-5.668,0.125l4.973,2.91
			l-2.742,6.48l6.176-4.238l5.434,3.766l-2.711-6.364l4.789-2.91L175.493,78.93z M175.493,78.93"/>
		<path fill="#E21C2A" d="M64.602,72.316l-1.988-5.621l-2.036,5.711l-5.363,0.121l4.707,2.75l-2.597,6.133l5.843-4.012l5.141,3.562
			l-2.566-6.015l4.531-2.758L64.602,72.316z M64.602,72.316"/>
		<path fill="none" stroke="#2C2C2B" stroke-width="0.4998" d="M64.602,72.316l-1.988-5.621l-2.036,5.711l-5.363,0.121l4.707,2.75
			l-2.597,6.133l5.843-4.012l5.141,3.562l-2.566-6.015l4.531-2.758L64.602,72.316z M64.602,72.316"/>
		<path fill="#E21C2A" d="M83.387,53.164l-1.586-4.488l-1.629,4.563l-4.285,0.093l3.762,2.2l-2.074,4.898l4.668-3.203l4.105,2.844
			l-2.047-4.805l3.617-2.203L83.387,53.164z M83.387,53.164"/>
		<path fill="none" stroke="#2C2C2B" stroke-width="0.4999" d="M83.387,53.165l-1.586-4.489l-1.629,4.563l-4.285,0.094l3.762,2.199
			l-2.074,4.898l4.668-3.203l4.105,2.844l-2.047-4.805l3.617-2.203L83.387,53.165z M83.387,53.165"/>
		<path fill="#E21C2A" d="M158.516,54.484l-1.813-5.129l-1.859,5.211l-4.898,0.109l4.297,2.516l-2.367,5.597l5.332-3.66l4.695,3.25
			l-2.34-5.492l4.133-2.516L158.516,54.484z M158.516,54.484"/>
		<path fill="none" stroke="#2C2C2B" stroke-width="0.4999" d="M158.516,54.484l-1.813-5.129l-1.859,5.211l-4.898,0.109l4.297,2.516
			l-2.367,5.598l5.332-3.661l4.695,3.25l-2.34-5.492l4.133-2.515L158.516,54.484z M158.516,54.484"/>
		<path fill="#FFFFFF" d="M137.379,73.637l20.184-33.633l5.664-4.648l-1.172-8.699l-7.109,6.339l-0.699,5.297l-18.723,33.383
			L137.379,73.637z M137.379,73.637"/>
		<path fill="none" stroke="#2C2C2B" stroke-width="0.4459" d="M137.379,73.636l20.184-33.633l5.664-4.648l-1.172-8.699l-7.109,6.34
			l-0.699,5.296l-18.723,33.383L137.379,73.636z M137.379,73.636"/>
		<path fill="#FFFFFF" d="M96.059,70.516L81.188,37.582l-4.711-4.871l2.058-7.808l5.86,6.574l0.051,4.91l13.55,32.547L96.059,70.516
			z M96.059,70.516"/>
		<path fill="none" stroke="#2C2C2B" stroke-width="0.4151" d="M96.059,70.516L81.188,37.583l-4.711-4.872l2.058-7.808l5.86,6.574
			l0.051,4.91l13.55,32.547L96.059,70.516z M96.059,70.516"/>
		<path fill="#E21C2A" d="M122.95,47.723c3.805,0.488,4.41-0.672,5.379-2.41c0.051-3.32-0.41-6.973-3.992-8.836
			c-5.063-0.231-9.969,0.793-13.777,5.457c-4.32,4.562-4.055,10.621-3.609,13.59c1.101,3.867,0.855,4.215,6.05,4.785
			c4.684,0.238,9.364,0.477,14.047,0.715c1.875-0.844,2.832-3.266,1.898-5.422C127.95,50.704,126.176,50.628,122.95,47.723
			L122.95,47.723z M122.95,47.723"/>
		<path fill="none" stroke="#2C2C2B" stroke-width="0.5" d="M122.95,47.723c3.805,0.488,4.41-0.672,5.379-2.41
			c0.051-3.32-0.41-6.973-3.992-8.836c-5.063-0.23-9.969,0.793-13.777,5.457c-4.32,4.563-4.055,10.621-3.609,13.59
			c1.101,3.867,0.855,4.215,6.05,4.785c4.684,0.238,9.364,0.477,14.047,0.715c1.875-0.844,2.832-3.266,1.898-5.422
			C127.95,50.704,126.176,50.628,122.95,47.723L122.95,47.723z M122.95,47.723"/>
		<path fill="none" stroke="#2C2C2B" stroke-width="0.5" d="M124.18,60.583c-3.086-4.649-9.445-3.465-12.602-0.719"/>
		<path fill="#E21C2A" d="M115.86,60.582l3.152-0.07l0.102,4.52l-3.152,0.07L115.86,60.582z M115.86,60.582"/>
		<path fill="none" stroke="#2C2C2B" stroke-width="0.5" d="M115.86,60.583l3.152-0.071l0.102,4.52l-3.152,0.07L115.86,60.583z
			 M115.86,60.583"/>
		<path fill="#FFFFFF" d="M118.684,44.344c1.563-0.035,2.855,1.188,2.891,2.731c0.035,1.543-1.203,2.824-2.762,2.859
			s-2.855-1.188-2.891-2.73C115.887,45.661,117.125,44.378,118.684,44.344L118.684,44.344z M118.684,44.344"/>
		<path fill="none" stroke="#2C2C2B" stroke-width="0.5001" d="M118.684,44.343c1.563-0.035,2.855,1.188,2.891,2.731
			s-1.203,2.824-2.762,2.859c-1.559,0.035-2.855-1.187-2.891-2.73S117.125,44.378,118.684,44.343L118.684,44.343z M118.684,44.343"
			/>
		<path fill="#009240" d="M147.204,176.098c4.613-2.902,5.645-5.293,5.383-12.063c2.402,0.484,3.906-0.411,3.992,3.352
			c7.004-2.844,14.813-8.832,22.809-15.895c6.172-6.055,10.324-14.648,13.852-22.152c1.344-7.773,1.996-3.164,2.012-21.344
			c-0.004-4.949-0.172-12.261-0.258-20.867c-3.926-5.078-5.496-11.925-6.641-19.218c-6.348-1.579-6.023-1.801-6.297-4.161
			c4.746-1.722,6.949,4.254,6.805,2.645c-0.84-8.16-1.309-19.231,1.781-22.098c1.594,3.196,3.926,5.188,2.859,10.91L190.364,65.5
			c1.055-1.421,3.102-2.328,6.363-2.402c2.621,0.371,4.293,2.164,6.398,3.945c-3.477,0.078-6.492,1.543-10.789-0.941l-2.137,1.769
			c-0.07,6.348,1.164,12.883,5.969,18.372c0.664-4.321-0.875-9.664,3.375-14.172c-0.168,2.265,1.414,4.812,1.355,6.965
			c-0.059,2.261-2.488,5.328-2.547,7.48c2.258-1.02,3.934-3.855,6.301-4.984c2.586-1.239,5.859-0.774,8.551-2.02
			c-2.316,8.231-8.746,7.621-15.352,8.953c4.57,4.953,7.23,6.938,3.328,17.137c-1.934-3.723-1.867-10.285-2.828-14.352
			c-0.238-0.855-1.285,0.887-1.523,0.036l-0.098,29.05l3.809,0.02c0.77-4.426-2.059-9.098,10.559-14.008
			c0.117,5.27-5.672,8.844-8.402,13.207c4.816-3.441,9.617-7.637,15.586-8.309c-1.855,4.667-7.371,10.817-14.121,10.426
			c0.012,0.648-2.52-0.695-2.496,0.273c4.648,3.555,3.281,10.363,0.484,11.715c-2.039-3.613-1.047-7.723-5.148-10.965
			c-3.383,13.738-7.555,21.578-15.621,30.367c1.195-0.027,1.949-0.367,3.254-0.399c1.285-0.995,4.02-0.304,5.324-0.332
			c-0.625-3.534,2.73-9.097,9.223-10.534c0.934,2.777-3.641,7.289-8.238,10.727c4.008-0.625,7.043-1.23,10.438-0.23
			c-1.68,2.617-6.566,7.891-16.168,1.867c-0.656-0.204-1.289,0.671-1.945,0.473c6.148,7.285,5.406,12.898,0.336,14.625
			c-1.656-5.664,1.043-11.43-3.281-14.883c-3.84,3.206-7.801,6.094-11.535,9.191c-2.242,1.879-9.473,4.512-11.82,6.395
			c-0.082,1.188-0.922,2.495-0.578,3.348c7.613-4.797,12.176-5.223,16.785-3.387c-2.09,3.703-6.52,5.094-14.891,5.391
			c5.59,1.808,13.516,1.094,16.918,7.152c-6.137-1.91-9.125,5.366-19.391-5.914c2.422,5.969,6.633,9.319-0.68,13.141
			c0.645-5.18-1.258-7.504-1.777-11.148C152.125,177.172,150.688,176.125,147.204,176.098L147.204,176.098z M147.204,176.098"/>
		<path fill="none" stroke="#2C2C2B" stroke-width="0.5" d="M147.204,176.098c4.613-2.902,5.645-5.293,5.383-12.063
			c2.402,0.484,3.906-0.411,3.992,3.352c7.004-2.845,14.813-8.832,22.809-15.895c6.172-6.055,10.324-14.648,13.852-22.152
			c1.344-7.773,1.996-3.164,2.012-21.343c-0.004-4.95-0.172-12.262-0.258-20.868c-3.926-5.078-5.496-11.925-6.641-19.218
			c-6.348-1.578-6.023-1.801-6.297-4.161c4.746-1.722,6.949,4.254,6.805,2.645c-0.84-8.16-1.309-19.23,1.781-22.098
			c1.594,3.196,3.926,5.188,2.859,10.91L190.364,65.5c1.055-1.421,3.102-2.328,6.363-2.402c2.621,0.371,4.293,2.164,6.398,3.945
			c-3.477,0.079-6.492,1.543-10.789-0.941l-2.137,1.77c-0.07,6.347,1.164,12.882,5.969,18.371c0.664-4.321-0.875-9.664,3.375-14.172
			c-0.168,2.265,1.414,4.812,1.355,6.965c-0.059,2.261-2.488,5.328-2.547,7.48c2.258-1.019,3.934-3.855,6.301-4.984
			c2.586-1.239,5.859-0.774,8.551-2.02c-2.316,8.231-8.746,7.621-15.352,8.953c4.57,4.953,7.23,6.938,3.328,17.137
			c-1.934-3.723-1.867-10.285-2.828-14.352c-0.238-0.855-1.285,0.887-1.523,0.036l-0.098,29.049l3.809,0.021
			c0.77-4.426-2.059-9.098,10.559-14.008c0.117,5.27-5.672,8.844-8.402,13.207c4.816-3.441,9.617-7.637,15.586-8.308
			c-1.855,4.667-7.371,10.816-14.121,10.425c0.012,0.648-2.52-0.695-2.496,0.273c4.648,3.554,3.281,10.363,0.484,11.715
			c-2.039-3.613-1.047-7.723-5.148-10.965c-3.383,13.738-7.555,21.578-15.621,30.367c1.195-0.027,1.949-0.367,3.254-0.398
			c1.285-0.997,4.02-0.305,5.324-0.332c-0.625-3.535,2.73-9.098,9.223-10.535c0.934,2.777-3.641,7.288-8.238,10.727
			c4.008-0.625,7.043-1.231,10.438-0.231c-1.68,2.618-6.566,7.892-16.168,1.868c-0.656-0.204-1.289,0.672-1.945,0.473
			c6.148,7.284,5.406,12.898,0.336,14.625c-1.656-5.664,1.043-11.43-3.281-14.884c-3.84,3.208-7.801,6.095-11.535,9.192
			c-2.242,1.879-9.473,4.512-11.82,6.394c-0.082,1.188-0.922,2.496-0.578,3.349c7.613-4.797,12.176-5.224,16.785-3.387
			c-2.09,3.702-6.52,5.094-14.891,5.391c5.59,1.809,13.516,1.094,16.918,7.152c-6.137-1.91-9.125,5.367-19.391-5.914
			c2.422,5.969,6.633,9.32-0.68,13.141c0.645-5.18-1.258-7.504-1.777-11.149C152.125,177.172,150.688,176.124,147.204,176.098
			L147.204,176.098z M147.204,176.098"/>
		<path fill="none" stroke="#2C2C2B" stroke-width="0.5005" d="M113.676,65.036c23.188-0.52,42.539,22.203,43.191,50.718
			c0.656,28.516-17.637,52.086-40.824,52.605s-42.539-22.207-43.191-50.723C72.196,89.122,90.489,65.555,113.676,65.036
			L113.676,65.036z M113.676,65.036"/>
		<path fill="#009240" d="M82.317,175.395c-4.242-3.146-5.09-5.586-4.438-12.332c-2.332,0.355-3.719-0.617-4.023,3.133
			c-6.543-3.215-13.664-9.609-20.906-17.09c-5.551-6.379-9.024-15.18-11.957-22.86c-0.829-7.832-1.723-3.265-0.665-21.414
			c0.297-4.941,0.887-12.23,1.485-20.816c4.058-4.855,5.969-11.609,7.496-18.824c6.172-1.238,5.879-1.477,6.277-3.817
			c-4.445-1.972-6.91,3.871-6.676,2.274c1.29-8.098,2.395-19.125-0.394-22.153c-1.719,3.102-4.066,4.965-3.387,10.739l2.395,10.437
			c-0.926-1.472-2.832-2.488-5.953-2.738c-2.532,0.23-4.239,1.93-6.364,3.594c3.328,0.265,6.129,1.89,10.395-0.36l1.937,1.883
			c-0.304,6.34-1.879,12.797-6.8,18.016c-0.383-4.348,1.406-9.598-2.395-14.324c0.023,2.265-1.641,4.722-1.711,6.875
			c-0.082,2.261,2.067,5.453,1.996,7.605c-2.105-1.137-3.543-4.059-5.742-5.312c-2.398-1.379-5.562-1.09-8.066-2.477
			c1.726,8.34,7.925,8.074,14.172,9.762c-4.672,4.699-7.336,6.535-4.204,16.929c2.075-3.613,2.399-10.168,3.563-14.175
			c0.277-0.84,1.176,0.957,1.457,0.117L38.18,117.07l-3.648-0.184c-0.477-4.465,2.507-8.973-9.286-14.551
			c-0.425,5.254,4.911,9.129,7.266,13.633c-4.41-3.695-8.758-8.14-14.434-9.133c1.497,4.758,6.415,11.196,12.907,11.172
			c-0.051,0.641,2.453-0.563,2.375,0.402c-4.664,3.296-3.758,10.168-1.16,11.671c2.171-3.5,1.46-7.655,5.582-10.671
			c2.425,13.895,5.957,21.945,13.164,31.152c-1.145-0.09-1.844-0.473-3.094-0.57c-1.168-1.063-3.828-0.52-5.078-0.622
			c0.808-3.495-2.074-9.226-8.211-11.011c-1.059,2.722,3.054,7.472,7.258,11.152c-3.805-0.84-6.672-1.609-9.985-0.793
			c1.453,2.703,5.821,8.23,15.375,2.734c0.641-0.165,1.196,0.742,1.836,0.578c-6.32,6.941-5.941,12.582-1.187,14.578
			c1.922-5.566-0.321-11.461,4.023-14.68c3.488,3.41,7.11,6.504,10.508,9.793c2.035,1.996,8.805,5.02,10.941,7.022
			c0.008,1.188,0.739,2.54,0.356,3.372c-7.012-5.195-11.352-5.868-15.875-4.286c1.781,3.813,5.941,5.438,13.941,6.185
			c-5.461,1.508-13.011,0.367-16.629,6.229c5.992-1.573,8.422,5.849,18.926-4.862c-2.676,5.832-6.906,8.945-0.129,13.155
			c-0.308-5.207,1.649-7.421,2.363-11.034C77.543,176.203,78.981,175.238,82.317,175.395L82.317,175.395z M82.317,175.395"/>
		<path fill="none" stroke="#2C2C2B" stroke-width="0.4983" d="M82.317,175.395c-4.242-3.146-5.09-5.586-4.438-12.332
			c-2.332,0.354-3.719-0.617-4.023,3.133c-6.543-3.215-13.664-9.61-20.906-17.09c-5.551-6.379-9.024-15.18-11.957-22.859
			c-0.829-7.832-1.723-3.266-0.665-21.414c0.297-4.942,0.887-12.231,1.485-20.817c4.058-4.855,5.969-11.609,7.496-18.824
			c6.172-1.238,5.879-1.477,6.277-3.817c-4.445-1.972-6.91,3.872-6.676,2.274c1.29-8.098,2.395-19.125-0.394-22.152
			c-1.719,3.101-4.066,4.964-3.387,10.738l2.395,10.437c-0.926-1.472-2.832-2.488-5.953-2.738c-2.532,0.231-4.239,1.93-6.364,3.594
			c3.328,0.265,6.129,1.89,10.395-0.36l1.937,1.883c-0.304,6.34-1.879,12.797-6.8,18.016c-0.383-4.348,1.406-9.598-2.395-14.324
			c0.023,2.265-1.641,4.722-1.711,6.875c-0.082,2.261,2.067,5.453,1.996,7.605c-2.105-1.137-3.543-4.058-5.742-5.313
			c-2.398-1.379-5.562-1.09-8.066-2.477c1.726,8.34,7.925,8.074,14.172,9.762c-4.672,4.699-7.336,6.535-4.204,16.929
			c2.075-3.613,2.399-10.168,3.563-14.175c0.277-0.84,1.176,0.957,1.457,0.117L38.18,117.07l-3.648-0.184
			c-0.477-4.465,2.507-8.972-9.286-14.551c-0.425,5.254,4.911,9.129,7.266,13.633c-4.41-3.695-8.758-8.14-14.434-9.133
			c1.497,4.758,6.415,11.196,12.907,11.172c-0.051,0.641,2.453-0.563,2.375,0.402c-4.664,3.296-3.758,10.168-1.16,11.672
			c2.171-3.5,1.46-7.656,5.582-10.672c2.425,13.895,5.957,21.945,13.164,31.152c-1.145-0.09-1.844-0.473-3.094-0.57
			c-1.168-1.063-3.828-0.52-5.078-0.621c0.808-3.497-2.074-9.227-8.211-11.012c-1.059,2.723,3.054,7.473,7.258,11.152
			c-3.805-0.84-6.672-1.609-9.985-0.793c1.453,2.703,5.821,8.23,15.375,2.734c0.641-0.164,1.196,0.742,1.836,0.578
			c-6.32,6.941-5.941,12.582-1.187,14.578c1.922-5.567-0.321-11.461,4.023-14.68c3.488,3.41,7.11,6.504,10.508,9.793
			c2.035,1.996,8.805,5.02,10.941,7.023c0.008,1.188,0.739,2.539,0.356,3.371c-7.012-5.195-11.352-5.868-15.875-4.285
			c1.781,3.813,5.941,5.438,13.941,6.184c-5.461,1.508-13.011,0.367-16.629,6.23c5.992-1.574,8.422,5.848,18.926-4.863
			c-2.676,5.832-6.906,8.945-0.129,13.156c-0.308-5.207,1.649-7.422,2.363-11.035C77.543,176.203,78.981,175.238,82.317,175.395
			L82.317,175.395z M82.317,175.395"/>
		<path fill="#FFFFFF" d="M149.434,86.695l30.73-24.625l6.941-2.418l1.953-8.563l-8.895,3.508l-2.512,4.727l-29.273,24.89
			L149.434,86.695z M149.434,86.695"/>
		<path fill="none" stroke="#2C2C2B" stroke-width="0.4968" d="M149.434,86.695l30.73-24.625l6.941-2.418l1.953-8.563l-8.895,3.508
			l-2.512,4.727l-29.273,24.89L149.434,86.695z M149.434,86.695"/>
		<path fill="#FFFFFF" d="M85.442,80.45L57.965,57.128l-6.074-2.125l-2.047-8.468l7.801,3.132l2.359,4.618L86.243,77.93
			L85.442,80.45z M85.442,80.45"/>
		<path fill="none" stroke="#2C2C2B" stroke-width="0.4991" d="M85.442,80.449L57.965,57.128l-6.074-2.125l-2.047-8.468l7.801,3.132
			l2.359,4.618L86.243,77.93L85.442,80.449z M85.442,80.449"/>
		<line fill="none" stroke="#2C2C2B" stroke-width="0.4999" x1="133.997" y1="123.035" x2="139.641" y2="122.91"/>
		<path fill="#2C2C2B" d="M140.793,160.137c6.629-6.445,12.496-14.684,17.199-27.27c-2.094,11.184-7.063,19.543-13.828,27.434
			C143.043,160.063,141.805,160.266,140.793,160.137L140.793,160.137z M140.793,160.137"/>
		<path fill="#2C2C2B" d="M147.797,159.922c5.57-6.5,10.305-14.387,13.57-26.395c-0.977,10.496-4.672,18.304-10.242,26.148
			C150.071,159.547,148.743,159.956,147.797,159.922L147.797,159.922z M147.797,159.922"/>
		<path fill="#2C2C2B" d="M154.426,158.684c4.969-5.945,8.984-13.023,11.809-23.926c-0.77,9.512-3.449,15.633-8.402,22.789
			C156.875,157.445,155.282,158.703,154.426,158.684L154.426,158.684z M154.426,158.684"/>
		<path fill="#2C2C2B" d="M161.774,156.074c3.988-5.461,7.781-11.575,9.492-21.411c0.02,8.536-2.211,12.856-5.586,19.427
			C164.821,154.023,162.536,156.066,161.774,156.074L161.774,156.074z M161.774,156.074"/>
		<path fill="#2C2C2B" d="M170.008,151.23c1.992-3.91,5.258-8.801,5.328-15.285c0.902,5.473-0.848,8.406-2.332,12.965
			C172.446,148.953,170.497,151.148,170.008,151.23L170.008,151.23z M170.008,151.23"/>
		<path fill="#2C2C2B" d="M176.391,144.965c1.668-4.055,4.906-10.898,4.945-17.32c1.344,5.387-0.352,9.508-1.461,14.168
			C179.321,141.902,176.872,144.844,176.391,144.965L176.391,144.965z M176.391,144.965"/>
		<path fill="#2C2C2B" d="M149.29,83.727c-0.578-3.531-4.043-6.527-7.02-10.836c3.738,2.555,7.715,5.445,8.727,9.34
			C150.665,82.527,149.555,83.438,149.29,83.727L149.29,83.727z M149.29,83.727"/>
		<path fill="#009240" d="M92.34,187.574l57.641-13.359l1.023,2.02l-57.637,13.359L92.34,187.574z M92.34,187.574"/>
		<path fill="none" stroke="#2C2C2B" stroke-width="0.5" d="M92.34,187.574l57.641-13.359l1.023,2.02l-57.637,13.359L92.34,187.574z
			 M92.34,187.574"/>
		<path fill="#2C2C2B" d="M152.473,80.902c-1.281-4.946-1.32-3.453-6.121-9.199c4.848,4.117,6.176,3.972,8.141,6.726
			C154.063,78.895,152.817,80.457,152.473,80.902L152.473,80.902z M152.473,80.902"/>
		<path fill="#2C2C2B" d="M156.45,77.105c-1.031-1.531-3.137-3.379-6.883-6.27c3.563,1.223,6.395,2.688,8.41,5.063
			C157.715,76.191,156.661,76.829,156.45,77.105L156.45,77.105z M156.45,77.105"/>
		<path fill="#2C2C2B" d="M159.614,74.988c-1.281-2.098-2.684-2.602-6.074-5.598c4.285,1.055,4.852,1.711,7.652,4.203
			C160.86,73.984,159.875,74.618,159.614,74.988L159.614,74.988z M159.614,74.988"/>
		<path fill="#2C2C2B" d="M162.012,72.816c-1.242-2.321-2.242-2.852-5.426-5.141c3.02,1.469,5.449,1.246,7.188,3.543
			C163.602,71.503,162.141,72.55,162.012,72.816L162.012,72.816z M162.012,72.816"/>
		<path fill="#2C2C2B" d="M164.829,70.457c-1.426-2.211-1.141-1.492-4.301-3.742c3.129,1.223,3.387,0.387,5.305,2.539
			C165.688,69.55,164.934,70.184,164.829,70.457L164.829,70.457z M164.829,70.457"/>
		<path fill="#2C2C2B" d="M166.961,68c-1.059-1.644-0.848-1.113-3.191-2.785c2.32,0.91,2.512,0.289,3.938,1.891
			C167.598,67.325,167.04,67.792,166.961,68L166.961,68z M166.961,68"/>
		<path fill="#2C2C2B" d="M85.352,76.887c0.637-2.695,3.652-4.84,6.324-8.019c-3.226,1.785-6.664,3.82-7.68,6.781
			C84.258,75.895,85.141,76.652,85.352,76.887L85.352,76.887z M85.352,76.887"/>
		<path fill="#2C2C2B" d="M82.828,74.546c1.289-3.758,1.254-2.601,5.504-6.804c-4.218,2.941-5.312,2.761-7.07,4.793
			C81.598,72.914,82.563,74.188,82.828,74.546L82.828,74.546z M82.828,74.546"/>
		<path fill="#2C2C2B" d="M79.696,71.414c0.921-1.132,2.757-2.457,6.004-4.5c-3.02,0.766-5.438,1.754-7.223,3.489
			C78.684,70.641,79.532,71.188,79.696,71.414L79.696,71.414z M79.696,71.414"/>
		<path fill="#2C2C2B" d="M77.16,69.618c1.157-1.555,2.344-1.875,5.301-4.02c-3.609,0.598-4.113,1.078-6.551,2.863
			C76.168,68.781,76.957,69.316,77.16,69.618L77.16,69.618z M77.16,69.618"/>
		<path fill="#2C2C2B" d="M75.262,67.816c1.137-1.727,1.992-2.09,4.742-3.696c-2.578,0.981-4.586,0.688-6.137,2.375
			C73.996,66.727,75.164,67.609,75.262,67.816L75.262,67.816z M75.262,67.816"/>
		<path fill="#009240" d="M80.203,173.5l54.083,15.973l-0.82,2.172l-54.191-16.078L80.203,173.5z M80.203,173.5"/>
		<path fill="none" stroke="#2C2C2B" stroke-width="0.5" d="M80.203,173.499l54.083,15.974l-0.82,2.172l-54.191-16.078
			L80.203,173.499z M80.203,173.499"/>
		<path fill="#2C2C2B" d="M73.028,65.855c1.285-1.641,1.011-1.098,3.742-2.68c-2.656,0.789-2.832,0.129-4.527,1.699
			C72.352,65.113,72.95,65.637,73.028,65.855L73.028,65.855z M73.028,65.855"/>
		<path fill="#2C2C2B" d="M71.364,63.848c0.953-1.219,0.753-0.816,2.781-1.988c-1.973,0.586-2.106,0.094-3.363,1.258
			C70.864,63.296,71.305,63.688,71.364,63.848L71.364,63.848z M71.364,63.848"/>
		<path fill="#2C2C2B" d="M85.965,159.367c-5.742-6.477-11.34-15.086-15.488-27.762c1.898,11.27,6.234,19.683,12.109,27.613
			C83.543,158.977,85.098,159.499,85.965,159.367L85.965,159.367z M85.965,159.367"/>
		<path fill="#2C2C2B" d="M79.785,159.09c-4.835-6.539-9.312-14.707-12.226-26.805c0.937,10.582,4.176,18.441,9.027,26.332
			C77.489,158.484,78.977,159.124,79.785,159.09L79.785,159.09z M79.785,159.09"/>
		<path fill="#2C2C2B" d="M73.828,157.738c-4.312-5.98-7.824-13.102-10.343-24.082c0.746,9.582,3.101,15.746,7.414,22.949
			C71.719,156.495,73.098,157.758,73.828,157.738L73.828,157.738z M73.828,157.738"/>
		<path fill="#2C2C2B" d="M67.485,154.602c-3.473-5.488-6.84-11.223-8.399-21.137c0.063,8.605,2.016,12.957,4.973,19.57
			C64.793,152.961,66.828,154.602,67.485,154.602L67.485,154.602z M67.485,154.602"/>
		<path fill="#2C2C2B" d="M59.828,149.645c-1.746-3.934-4.046-8.336-4.171-14.875c-0.719,5.523,0.164,8.492,1.476,13.082
			C57.614,147.895,59.407,149.563,59.828,149.645L59.828,149.645z M59.828,149.645"/>
		<path fill="#2C2C2B" d="M54.981,144.441c-1.465-4.082-4.196-9.875-4.289-16.348c-1.102,5.434,0.066,7.398,1.058,12.094
			C52.227,140.273,54.571,144.32,54.981,144.441L54.981,144.441z M54.981,144.441"/>
		<path fill="#FFFFFF" d="M90.938,167.773l54.301,8.523l-0.719,2.598l-54.399-8.844L90.938,167.773z M90.938,167.773"/>
		<path fill="none" stroke="#2C2C2B" stroke-width="0.5" d="M90.938,167.773l54.301,8.523l-0.719,2.598l-54.399-8.844
			L90.938,167.773z M90.938,167.773"/>
		<path fill="#FFFFFF" d="M84.403,178.215l54.48-7.211l-0.051-2.148l-54.589,7.105L84.403,178.215z M84.403,178.215"/>
		<path fill="none" stroke="#2C2C2B" stroke-width="0.5" d="M84.403,178.215l54.48-7.211l-0.051-2.148l-54.589,7.104L84.403,178.215
			z M84.403,178.215"/>
		<path fill="#E21C2A" d="M83.071,161.762c-1.36,2.504-1.887,7.898,1.386,8.358c4.039,0.556,4.657-5.698,3.52-7.823
			c4.187,2.273,2.89,7.465,1.305,9.441c-1.602,1.324-3.118,1.68-4.961,1.832c-3.063-0.688-2.981-1.871-4.434-3.453
			C79.289,167.656,79.078,163.249,83.071,161.762L83.071,161.762z M83.071,161.762"/>
		<path fill="none" stroke="#2C2C2B" stroke-width="0.5" d="M83.071,161.762c-1.36,2.504-1.887,7.898,1.386,8.359
			c4.039,0.555,4.657-5.699,3.52-7.824c4.187,2.273,2.89,7.465,1.305,9.441c-1.602,1.324-3.118,1.679-4.961,1.832
			c-3.063-0.688-2.981-1.871-4.434-3.453C79.289,167.656,79.078,163.249,83.071,161.762L83.071,161.762z M83.071,161.762"/>
		<path fill="#E21C2A" d="M141.696,162.422c-1.133,2.613-1.195,8.027,2.105,8.215c4.07,0.211,4.148-6.07,2.832-8.094
			c4.367,1.91,3.523,7.195,2.113,9.293c-1.48,1.457-2.957,1.941-4.785,2.245c-3.109-0.425-3.129-1.612-4.711-3.065
			C138.438,168.617,137.848,164.242,141.696,162.422L141.696,162.422z M141.696,162.422"/>
		<path fill="none" stroke="#2C2C2B" stroke-width="0.4972" d="M141.696,162.422c-1.133,2.613-1.195,8.027,2.105,8.215
			c4.07,0.211,4.148-6.07,2.832-8.095c4.367,1.911,3.523,7.196,2.113,9.293c-1.48,1.457-2.957,1.942-4.785,2.247
			c-3.109-0.426-3.129-1.613-4.711-3.066C138.438,168.617,137.848,164.242,141.696,162.422L141.696,162.422z M141.696,162.422"/>
		<path fill="#FFFFFF" d="M85.598,159.113c1.617-0.039,2.961,1.234,3,2.836c0.035,1.602-1.25,2.93-2.867,2.969
			c-1.621,0.035-2.965-1.238-3.004-2.84C82.692,160.477,83.977,159.148,85.598,159.113L85.598,159.113z M85.598,159.113"/>
		<path fill="none" stroke="#2C2C2B" stroke-width="0.4997" d="M85.598,159.113c1.617-0.039,2.961,1.234,3,2.836
			c0.035,1.602-1.25,2.93-2.867,2.968c-1.621,0.036-2.965-1.237-3.004-2.839C82.692,160.477,83.977,159.148,85.598,159.113
			L85.598,159.113z M85.598,159.113"/>
		<path fill="#FFFFFF" d="M144.215,160.293c1.621-0.035,2.965,1.238,3.004,2.84c0.035,1.602-1.25,2.93-2.867,2.969
			c-1.621,0.035-2.969-1.234-3.004-2.84C141.313,161.66,142.598,160.331,144.215,160.293L144.215,160.293z M144.215,160.293"/>
		<path fill="none" stroke="#2C2C2B" stroke-width="0.4997" d="M144.215,160.292c1.621-0.034,2.965,1.239,3.004,2.841
			c0.035,1.602-1.25,2.93-2.867,2.969c-1.621,0.035-2.969-1.234-3.004-2.84C141.313,161.66,142.598,160.332,144.215,160.292
			L144.215,160.292z M144.215,160.292"/>
	</g>
</g>
<g id="Camada_2">
	<path display="none" fill="none" stroke="#000000" stroke-miterlimit="10" d="M86.883,117.581
		c-0.48-20.963,11.906-38.269,27.649-38.621l0,0c15.738-0.351,28.906,16.375,29.386,37.34 M114.532,78.96"/>
	<g>
		<path d="M88.962,136.766l-6.71,2.493l-0.49-1.318l3.46-4.411l-4.48,1.665l-0.468-1.259l6.71-2.493l0.505,1.359l-3.371,4.331
			l4.376-1.626L88.962,136.766z"/>
		<path d="M86.563,129.912l-7.004,1.479l-1.096-5.192l1.185-0.25l0.798,3.778l1.553-0.328l-0.742-3.516l1.18-0.249l0.743,3.516
			l1.906-0.402l-0.826-3.913l1.18-0.249L86.563,129.912z"/>
		<path d="M82.32,118.947l0.345-1.429c0.794,0.16,1.398,0.476,1.812,0.948c0.413,0.472,0.646,1.091,0.7,1.857
			c0.066,0.948-0.203,1.75-0.809,2.405c-0.605,0.656-1.469,1.023-2.593,1.102c-1.188,0.084-2.133-0.159-2.833-0.727
			c-0.701-0.567-1.086-1.352-1.156-2.352c-0.061-0.874,0.147-1.602,0.625-2.183c0.283-0.347,0.704-0.62,1.264-0.823l0.441,1.403
			c-0.364,0.11-0.645,0.308-0.84,0.59c-0.196,0.283-0.28,0.616-0.253,0.999c0.037,0.529,0.257,0.946,0.66,1.249
			s1.03,0.425,1.881,0.365c0.902-0.063,1.534-0.271,1.895-0.622s0.522-0.787,0.486-1.307c-0.027-0.383-0.172-0.704-0.435-0.964
			C83.248,119.202,82.851,119.031,82.32,118.947z"/>
		<path d="M85.123,111.815l-7.029-0.997l0.203-1.431l5.835,0.827l0.504-3.558l1.194,0.169L85.123,111.815z"/>
		<path d="M79.151,103.828l0.396-1.39l3.729,1.062c0.592,0.168,0.98,0.261,1.165,0.276c0.299,0.021,0.565-0.056,0.8-0.231
			s0.407-0.457,0.517-0.845c0.112-0.395,0.117-0.715,0.012-0.961c-0.104-0.246-0.268-0.423-0.491-0.531s-0.607-0.239-1.152-0.394
			l-3.809-1.084l0.396-1.39l3.616,1.029c0.827,0.235,1.4,0.439,1.72,0.611c0.32,0.172,0.568,0.393,0.746,0.662
			c0.177,0.269,0.288,0.592,0.331,0.97c0.043,0.377-0.013,0.839-0.168,1.384c-0.187,0.657-0.405,1.134-0.653,1.431
			s-0.522,0.509-0.821,0.637c-0.299,0.128-0.59,0.186-0.874,0.172c-0.42-0.021-1.016-0.142-1.786-0.361L79.151,103.828z"/>
		<path d="M87.684,93.566l0.996-1.082c0.617,0.525,0.992,1.095,1.124,1.708c0.132,0.613,0.036,1.268-0.289,1.964
			c-0.402,0.861-1.027,1.432-1.875,1.711c-0.848,0.28-1.781,0.181-2.802-0.295c-1.08-0.504-1.788-1.174-2.125-2.011
			s-0.293-1.708,0.131-2.617c0.371-0.793,0.906-1.328,1.606-1.604c0.415-0.166,0.917-0.201,1.504-0.106l-0.296,1.441
			c-0.372-0.08-0.712-0.044-1.021,0.108c-0.308,0.153-0.543,0.403-0.706,0.751c-0.225,0.48-0.234,0.951-0.029,1.412
			c0.205,0.461,0.694,0.872,1.467,1.232c0.82,0.383,1.473,0.508,1.958,0.375c0.486-0.132,0.839-0.434,1.06-0.906
			c0.163-0.348,0.191-0.699,0.087-1.053S88.108,93.897,87.684,93.566z"/>
		<path d="M91.332,92.307l-5.872-4.094l3.036-4.354l0.993,0.693L87.28,87.72l1.302,0.908l2.055-2.948l0.99,0.69l-2.056,2.948
			l1.598,1.114l2.287-3.28l0.989,0.689L91.332,92.307z"/>
		<path d="M92.596,84.473c-0.5-0.531-0.84-1.051-1.02-1.561c-0.131-0.377-0.193-0.768-0.187-1.171
			c0.006-0.404,0.084-0.772,0.232-1.104c0.196-0.443,0.505-0.864,0.93-1.264c0.768-0.723,1.607-1.063,2.517-1.021
			c0.909,0.043,1.764,0.489,2.562,1.337c0.792,0.841,1.183,1.715,1.172,2.621s-0.398,1.719-1.164,2.439
			c-0.775,0.729-1.614,1.073-2.517,1.031C94.218,85.739,93.377,85.303,92.596,84.473z M93.647,83.417
			c0.555,0.59,1.113,0.91,1.672,0.958c0.559,0.048,1.049-0.125,1.468-0.521c0.42-0.395,0.622-0.87,0.606-1.425
			c-0.015-0.555-0.307-1.135-0.876-1.74c-0.563-0.598-1.113-0.92-1.651-0.967c-0.539-0.048-1.025,0.133-1.458,0.541
			c-0.434,0.408-0.644,0.886-0.629,1.433C92.793,82.244,93.083,82.817,93.647,83.417z"/>
		<path d="M104.809,79.487l-2.406-6.742l2.184-0.78c0.828-0.295,1.379-0.454,1.655-0.477c0.422-0.037,0.825,0.068,1.206,0.313
			c0.381,0.246,0.668,0.637,0.859,1.173c0.148,0.414,0.197,0.789,0.147,1.125c-0.049,0.336-0.161,0.625-0.335,0.869
			c-0.174,0.243-0.371,0.434-0.592,0.571c-0.302,0.181-0.761,0.381-1.377,0.601l-0.888,0.317l0.908,2.543L104.809,79.487z
			 M104.171,73.4l0.683,1.913l0.745-0.266c0.537-0.191,0.883-0.354,1.039-0.49s0.258-0.296,0.307-0.483s0.038-0.38-0.033-0.579
			c-0.087-0.246-0.231-0.422-0.433-0.53c-0.201-0.108-0.419-0.142-0.654-0.104c-0.174,0.027-0.506,0.129-0.996,0.304L104.171,73.4z"
			/>
		<path d="M111.258,77.442l-0.542-7.079l1.441-0.11l0.449,5.876l3.584-0.274l0.092,1.203L111.258,77.442z"/>
		<path d="M118.857,70.104l1.414,0.295l-0.791,3.795c-0.125,0.603-0.189,0.996-0.191,1.182c0,0.299,0.096,0.56,0.289,0.781
			c0.191,0.221,0.484,0.373,0.879,0.456c0.402,0.083,0.721,0.065,0.959-0.057s0.404-0.298,0.494-0.528
			c0.092-0.23,0.195-0.623,0.311-1.177l0.809-3.877l1.416,0.295l-0.768,3.681c-0.176,0.841-0.338,1.427-0.486,1.759
			c-0.15,0.332-0.352,0.595-0.607,0.792c-0.256,0.196-0.57,0.329-0.943,0.399s-0.838,0.047-1.393-0.068
			c-0.67-0.14-1.16-0.323-1.475-0.549c-0.313-0.227-0.545-0.484-0.693-0.773c-0.15-0.289-0.229-0.575-0.234-0.859
			c-0.01-0.421,0.068-1.023,0.232-1.807L118.857,70.104z"/>
		<path d="M124.498,78.841l3.398-6.3l2.678,1.444c0.674,0.363,1.133,0.684,1.377,0.961s0.379,0.611,0.406,0.999
			s-0.061,0.769-0.26,1.141c-0.256,0.473-0.605,0.788-1.049,0.946c-0.445,0.158-0.965,0.128-1.561-0.09
			c0.188,0.309,0.32,0.607,0.396,0.896c0.074,0.289,0.133,0.759,0.172,1.413l0.105,1.644l-1.521-0.82l-0.18-1.867
			c-0.063-0.666-0.119-1.095-0.17-1.288c-0.053-0.192-0.133-0.349-0.242-0.469c-0.109-0.12-0.309-0.258-0.602-0.416l-0.258-0.139
			l-1.418,2.63L124.498,78.841z M127.732,75.892l0.941,0.507c0.609,0.329,1.004,0.509,1.184,0.54c0.18,0.03,0.348,0.005,0.5-0.074
			c0.154-0.08,0.283-0.214,0.385-0.403c0.115-0.212,0.15-0.414,0.107-0.605s-0.158-0.36-0.346-0.505
			c-0.096-0.07-0.402-0.244-0.918-0.522l-0.992-0.536L127.732,75.892z"/>
		<path d="M130.681,82.552l4.457-5.601l1.131,0.9l-4.457,5.601L130.681,82.552z"/>
		<path d="M138.226,79.457l1.934,2.109c0.383,0.417,0.65,0.745,0.805,0.981c0.152,0.237,0.248,0.487,0.287,0.75
			c0.037,0.263,0.014,0.533-0.07,0.809s-0.24,0.519-0.469,0.728c-0.246,0.227-0.535,0.368-0.863,0.424s-0.648,0.018-0.961-0.116
			c0.201,0.407,0.27,0.801,0.201,1.18c-0.066,0.38-0.252,0.709-0.557,0.989c-0.24,0.22-0.525,0.378-0.854,0.475
			c-0.33,0.096-0.65,0.11-0.963,0.041s-0.613-0.23-0.904-0.485c-0.184-0.16-0.588-0.577-1.215-1.251l-1.646-1.796L138.226,79.457z
			 M136.226,83.251l-1.41,1.293l0.904,0.986c0.352,0.384,0.586,0.617,0.703,0.701c0.174,0.132,0.361,0.196,0.564,0.194
			c0.203-0.003,0.398-0.09,0.586-0.262c0.158-0.145,0.256-0.307,0.297-0.485c0.039-0.178,0.018-0.363-0.064-0.554
			c-0.082-0.191-0.346-0.529-0.791-1.014L136.226,83.251z M138.324,81.327l-1.219,1.119l0.641,0.698
			c0.379,0.415,0.623,0.667,0.727,0.757c0.189,0.163,0.383,0.248,0.584,0.257c0.199,0.008,0.385-0.065,0.555-0.222
			c0.164-0.149,0.254-0.316,0.273-0.5s-0.041-0.374-0.182-0.571c-0.086-0.117-0.357-0.425-0.816-0.927L138.324,81.327z"/>
		<path d="M143.863,86.054l0.75,1.235l-3.314,2.011c-0.527,0.319-0.859,0.542-0.996,0.667c-0.219,0.205-0.342,0.453-0.373,0.744
			s0.059,0.609,0.268,0.955c0.213,0.351,0.445,0.571,0.695,0.663c0.252,0.091,0.492,0.091,0.723,0.001
			c0.232-0.091,0.59-0.283,1.074-0.577l3.385-2.054l0.75,1.235l-3.215,1.951c-0.734,0.446-1.273,0.728-1.617,0.845
			s-0.676,0.149-0.992,0.097c-0.318-0.053-0.631-0.192-0.936-0.417c-0.307-0.226-0.607-0.58-0.9-1.064
			c-0.355-0.584-0.557-1.068-0.605-1.453c-0.047-0.384-0.018-0.729,0.092-1.035s0.266-0.559,0.469-0.758
			c0.301-0.293,0.795-0.648,1.479-1.063L143.863,86.054z"/>
		<path d="M143.394,94.835l0.65,1.254c-0.406,0.254-0.664,0.542-0.773,0.865c-0.109,0.322-0.082,0.688,0.082,1.096
			c0.174,0.432,0.395,0.721,0.666,0.867c0.27,0.146,0.527,0.169,0.773,0.071c0.156-0.063,0.271-0.163,0.346-0.299
			c0.072-0.137,0.104-0.336,0.094-0.598c-0.008-0.179-0.055-0.576-0.141-1.19c-0.109-0.791-0.094-1.383,0.051-1.777
			c0.201-0.554,0.564-0.937,1.092-1.148c0.338-0.135,0.693-0.167,1.064-0.093s0.707,0.26,1.006,0.56s0.551,0.704,0.754,1.215
			c0.336,0.834,0.404,1.535,0.207,2.103c-0.195,0.568-0.596,0.985-1.197,1.251l-0.598-1.318c0.318-0.194,0.516-0.416,0.59-0.665
			c0.072-0.249,0.035-0.563-0.117-0.94c-0.156-0.39-0.359-0.663-0.607-0.819c-0.16-0.101-0.326-0.117-0.498-0.047
			c-0.156,0.063-0.264,0.183-0.322,0.361c-0.074,0.226-0.059,0.697,0.049,1.411s0.143,1.261,0.104,1.64
			c-0.039,0.378-0.166,0.713-0.381,1.005c-0.215,0.291-0.533,0.521-0.953,0.689c-0.381,0.152-0.779,0.189-1.195,0.111
			c-0.418-0.078-0.785-0.278-1.102-0.6c-0.316-0.322-0.59-0.771-0.822-1.349c-0.336-0.84-0.4-1.563-0.193-2.168
			C142.228,95.716,142.687,95.22,143.394,94.835z"/>
		<path d="M144.728,106.392l7.027-1.358l0.273,1.419l-7.027,1.358L144.728,106.392z"/>
		<path d="M145.337,109.177l7.135-0.573l0.174,2.156l-4.764,1.687l4.971,0.889l0.174,2.161l-7.137,0.573l-0.107-1.339l5.617-0.451
			l-5.73-0.965l-0.111-1.387l5.504-1.863l-5.617,0.451L145.337,109.177z"/>
		<path d="M145.841,117.518l7.145,0.453l-0.146,2.314c-0.057,0.877-0.129,1.446-0.217,1.708c-0.133,0.402-0.389,0.73-0.764,0.984
			c-0.377,0.253-0.85,0.361-1.418,0.326c-0.439-0.028-0.803-0.131-1.092-0.31c-0.289-0.178-0.51-0.396-0.666-0.651
			c-0.154-0.256-0.252-0.513-0.291-0.77c-0.045-0.349-0.049-0.85-0.006-1.502l0.059-0.94l-2.695-0.171L145.841,117.518z
			 M151.685,119.336l-2.027-0.129l-0.049,0.79c-0.037,0.568-0.023,0.951,0.039,1.147s0.17,0.354,0.322,0.473
			s0.334,0.186,0.545,0.198c0.26,0.017,0.479-0.046,0.658-0.188c0.178-0.143,0.297-0.329,0.354-0.561
			c0.043-0.17,0.082-0.515,0.115-1.034L151.685,119.336z"/>
		<path d="M144.238,129.833l0.291-1.545l1.715-0.313l0.531-2.812l-1.488-0.882l0.283-1.507l6.518,4.068l-0.283,1.501
			L144.238,129.833z M147.515,127.744l2.793-0.477l-2.432-1.443L147.515,127.744z"/>
		<path d="M143.99,130.584l6.754,2.372l-1.008,2.87c-0.254,0.722-0.498,1.225-0.734,1.509s-0.545,0.471-0.924,0.559
			c-0.379,0.087-0.768,0.061-1.168-0.079c-0.506-0.178-0.873-0.474-1.098-0.888c-0.227-0.414-0.277-0.933-0.156-1.556
			c-0.275,0.234-0.549,0.412-0.822,0.531c-0.273,0.12-0.73,0.25-1.369,0.392l-1.607,0.361l0.572-1.631l1.816-0.47
			c0.648-0.165,1.063-0.289,1.246-0.37c0.182-0.081,0.322-0.185,0.424-0.311c0.102-0.127,0.207-0.347,0.318-0.66l0.096-0.276
			l-2.818-0.99L143.99,130.584z M147.408,133.316l-0.354,1.009c-0.23,0.654-0.346,1.072-0.348,1.255
			c-0.002,0.182,0.049,0.343,0.15,0.482c0.104,0.14,0.256,0.245,0.459,0.316c0.227,0.079,0.432,0.083,0.615,0.011
			c0.182-0.072,0.33-0.212,0.445-0.421c0.053-0.104,0.178-0.434,0.371-0.986l0.375-1.064L147.408,133.316z"/>
	</g>
	<path display="none" fill="none" d="M72.352,200.945c26.488,11.777,54.094,10.621,81.395,1.082"/>
	<path display="none" fill="#FFFFFF" d="M143.36,219.495c22.805-1.8,53.73-33.69,61.141-56.987"/>
	<path display="none" fill="#FFFFFF" d="M84.977,219.301c-22.234-0.793-60.43-37.703-63.332-62.813"/>
	<path fill="none" d="M152.51,200.229c0,0-14.322,8.167-38.936,8.167c-24.613,0-38.936-8.167-38.936-8.167"/>
	<g>
		<path d="M88.176,203.308l-0.848-0.233l1.486-5.399c-0.258,0.138-0.579,0.259-0.963,0.362c-0.385,0.104-0.722,0.168-1.013,0.192
			l0.225-0.819c0.536-0.092,1.024-0.248,1.466-0.468c0.442-0.219,0.777-0.457,1.007-0.715l0.546,0.15L88.176,203.308z"/>
		<path d="M90.895,202.078l0.919,0.109c-0.023,0.454,0.064,0.816,0.262,1.089c0.198,0.271,0.47,0.442,0.814,0.514
			c0.415,0.085,0.797,0.001,1.148-0.252c0.352-0.254,0.58-0.639,0.687-1.155c0.101-0.491,0.042-0.906-0.175-1.247
			s-0.549-0.557-0.996-0.648c-0.277-0.058-0.541-0.046-0.79,0.034c-0.25,0.08-0.458,0.207-0.627,0.382l-0.787-0.271l1.42-3.462
			l3.487,0.718l-0.169,0.822l-2.798-0.575l-0.766,1.807c0.481-0.207,0.953-0.263,1.416-0.168c0.612,0.126,1.085,0.444,1.418,0.955
			s0.432,1.1,0.295,1.766c-0.131,0.635-0.429,1.146-0.894,1.531c-0.566,0.475-1.238,0.633-2.016,0.473
			c-0.638-0.132-1.122-0.417-1.452-0.857C90.964,203.201,90.831,202.68,90.895,202.078z"/>
		<path d="M99.082,203.3l0.11-0.877l2.679,0.336l-0.11,0.877L99.082,203.3z"/>
		<path d="M110.015,200.967l-0.876,0.022c-0.06-0.349-0.158-0.604-0.292-0.768c-0.224-0.263-0.51-0.403-0.858-0.422
			c-0.28-0.015-0.529,0.051-0.749,0.196c-0.287,0.187-0.52,0.47-0.7,0.848c-0.179,0.379-0.291,0.926-0.335,1.641
			c0.228-0.311,0.499-0.536,0.813-0.677c0.313-0.14,0.638-0.201,0.973-0.184c0.585,0.03,1.072,0.271,1.461,0.724
			s0.565,1.02,0.53,1.702c-0.023,0.449-0.142,0.861-0.355,1.236s-0.495,0.656-0.843,0.843c-0.349,0.188-0.738,0.27-1.167,0.247
			c-0.731-0.038-1.314-0.338-1.748-0.899c-0.434-0.563-0.618-1.461-0.554-2.696c0.072-1.382,0.38-2.373,0.923-2.974
			c0.474-0.523,1.088-0.765,1.842-0.726c0.562,0.029,1.015,0.211,1.357,0.545S109.973,200.407,110.015,200.967z M106.271,203.861
			c-0.016,0.303,0.033,0.596,0.147,0.878c0.114,0.283,0.283,0.503,0.506,0.66c0.224,0.156,0.462,0.241,0.715,0.255
			c0.371,0.019,0.697-0.114,0.979-0.399s0.437-0.685,0.464-1.198c0.025-0.494-0.086-0.89-0.334-1.188
			c-0.248-0.298-0.572-0.457-0.972-0.479c-0.397-0.021-0.741,0.104-1.032,0.374C106.452,203.034,106.294,203.4,106.271,203.861z"/>
		<path d="M113.554,204.255l-0.015-0.884l2.699-0.045l0.016,0.883L113.554,204.255z"/>
		<path d="M123.263,205.916l-0.875,0.076l-0.488-5.579c-0.193,0.22-0.452,0.444-0.776,0.676c-0.325,0.23-0.619,0.408-0.883,0.533
			l-0.073-0.847c0.469-0.273,0.873-0.59,1.211-0.949s0.569-0.7,0.694-1.021l0.564-0.049L123.263,205.916z"/>
		<path d="M125.563,204.021l0.825-0.199c0.128,0.383,0.305,0.648,0.53,0.796c0.226,0.148,0.495,0.199,0.808,0.153
			c0.267-0.039,0.492-0.134,0.676-0.286c0.184-0.151,0.325-0.339,0.424-0.563c0.099-0.223,0.167-0.515,0.203-0.876
			c0.036-0.36,0.027-0.721-0.025-1.082c-0.005-0.038-0.016-0.096-0.029-0.173c-0.134,0.303-0.339,0.562-0.615,0.778
			c-0.275,0.216-0.589,0.35-0.94,0.4c-0.586,0.086-1.113-0.055-1.581-0.42c-0.468-0.366-0.753-0.897-0.854-1.593
			c-0.104-0.719,0.023-1.327,0.383-1.827s0.858-0.797,1.496-0.89c0.461-0.067,0.9-0.005,1.318,0.188
			c0.417,0.192,0.759,0.504,1.023,0.934c0.266,0.431,0.462,1.08,0.588,1.95c0.133,0.905,0.14,1.64,0.021,2.205
			c-0.119,0.565-0.352,1.016-0.698,1.353c-0.348,0.337-0.782,0.544-1.304,0.62c-0.555,0.08-1.029-0.008-1.426-0.264
			C125.99,204.97,125.715,204.568,125.563,204.021z M128.668,200.376c-0.073-0.499-0.264-0.876-0.572-1.131
			c-0.309-0.254-0.649-0.354-1.022-0.3c-0.387,0.057-0.7,0.264-0.941,0.621c-0.24,0.357-0.324,0.787-0.251,1.29
			c0.066,0.451,0.256,0.798,0.568,1.04c0.313,0.242,0.67,0.334,1.069,0.275c0.402-0.059,0.713-0.248,0.932-0.567
			C128.668,201.285,128.742,200.875,128.668,200.376z"/>
		<path d="M134.67,198.605l-0.842,0.245c-0.147-0.321-0.307-0.545-0.479-0.668c-0.284-0.197-0.597-0.26-0.938-0.189
			c-0.273,0.058-0.499,0.185-0.674,0.38c-0.229,0.255-0.383,0.587-0.46,0.999s-0.046,0.969,0.094,1.671
			c0.142-0.358,0.346-0.646,0.613-0.86c0.268-0.216,0.565-0.357,0.895-0.426c0.573-0.12,1.105-0.011,1.597,0.328
			c0.491,0.338,0.807,0.842,0.946,1.511c0.091,0.439,0.081,0.868-0.029,1.285c-0.111,0.417-0.312,0.761-0.601,1.031
			c-0.29,0.27-0.645,0.448-1.065,0.536c-0.717,0.149-1.356,0.007-1.919-0.426c-0.563-0.434-0.97-1.255-1.223-2.466
			c-0.282-1.354-0.237-2.392,0.135-3.111c0.325-0.626,0.857-1.017,1.597-1.17c0.552-0.115,1.035-0.055,1.452,0.181
			C134.186,197.692,134.487,198.075,134.67,198.605z M131.787,202.358c0.062,0.297,0.184,0.567,0.366,0.812
			c0.182,0.245,0.401,0.415,0.657,0.509c0.255,0.095,0.508,0.116,0.756,0.064c0.363-0.075,0.646-0.287,0.846-0.635
			s0.248-0.773,0.143-1.276c-0.101-0.484-0.31-0.84-0.626-1.064c-0.315-0.225-0.67-0.297-1.062-0.215
			c-0.39,0.081-0.69,0.289-0.902,0.624C131.751,201.513,131.692,201.906,131.787,202.358z"/>
		<path d="M141.143,201.576l0.226,0.813l-4.558,1.269c-0.063-0.202-0.085-0.407-0.065-0.615c0.03-0.343,0.131-0.7,0.303-1.073
			c0.172-0.372,0.444-0.822,0.817-1.353c0.578-0.822,0.949-1.45,1.112-1.883c0.164-0.433,0.201-0.809,0.112-1.129
			c-0.094-0.335-0.292-0.585-0.597-0.749c-0.304-0.163-0.648-0.191-1.034-0.084c-0.408,0.113-0.7,0.326-0.876,0.639
			c-0.177,0.313-0.207,0.687-0.09,1.12l-0.895,0.152c-0.121-0.666-0.034-1.223,0.26-1.671c0.294-0.449,0.769-0.765,1.425-0.946
			c0.661-0.185,1.236-0.146,1.724,0.113c0.488,0.26,0.808,0.66,0.958,1.203c0.077,0.275,0.097,0.563,0.058,0.86
			c-0.039,0.299-0.148,0.631-0.328,0.999c-0.18,0.367-0.502,0.894-0.968,1.576c-0.39,0.568-0.635,0.948-0.737,1.141
			c-0.102,0.192-0.178,0.378-0.229,0.559L141.143,201.576z"/>
	</g>
	<g>
		<path d="M154.767,211.883l0.334,0.775l-4.346,1.87c-0.09-0.191-0.139-0.392-0.147-0.601c-0.017-0.344,0.035-0.712,0.155-1.104
			s0.329-0.875,0.628-1.45c0.462-0.894,0.745-1.565,0.85-2.016c0.104-0.451,0.09-0.828-0.041-1.134
			c-0.138-0.319-0.369-0.54-0.692-0.662c-0.323-0.121-0.669-0.103-1.036,0.056c-0.389,0.167-0.649,0.418-0.782,0.751
			c-0.133,0.334-0.112,0.708,0.063,1.122l-0.866,0.271c-0.21-0.644-0.199-1.207,0.032-1.691c0.23-0.483,0.659-0.86,1.284-1.129
			c0.631-0.271,1.205-0.312,1.724-0.12s0.889,0.546,1.111,1.063c0.113,0.263,0.171,0.545,0.173,0.846
			c0.001,0.3-0.063,0.645-0.19,1.033c-0.129,0.389-0.378,0.953-0.747,1.692c-0.31,0.615-0.502,1.025-0.577,1.229
			s-0.126,0.398-0.152,0.584L154.767,211.883z"/>
		<path d="M158.635,210.826l-0.808-1.512l-2.738,1.464l-0.38-0.711l0.694-5.631l0.634-0.338l2.186,4.091l0.853-0.455l0.38,0.71
			l-0.853,0.456l0.808,1.512L158.635,210.826z M157.448,208.604l-1.521-2.847l-0.456,3.902L157.448,208.604z"/>
		<path d="M162.333,206.152l-0.49-0.735l2.246-1.498l0.49,0.735L162.333,206.152z"/>
		<path d="M171.381,202.219l-0.688,0.548l-3.491-4.379c-0.04,0.289-0.131,0.62-0.273,0.992s-0.29,0.683-0.44,0.932l-0.529-0.664
			c0.239-0.487,0.401-0.974,0.483-1.46c0.083-0.486,0.088-0.898,0.015-1.235l0.443-0.354L171.381,202.219z"/>
		<path d="M173.821,197.299l-0.602-0.647l1.979-1.837l0.602,0.647L173.821,197.299z"/>
		<path d="M182.169,192.051l-0.603,0.64l-4.077-3.84c0.001,0.293-0.042,0.633-0.131,1.021c-0.088,0.388-0.189,0.717-0.304,0.984
			l-0.618-0.582c0.169-0.517,0.26-1.021,0.272-1.515s-0.041-0.901-0.161-1.225l0.389-0.412L182.169,192.051z"/>
		<path d="M182.604,189.132l0.489-0.693c0.349,0.204,0.656,0.287,0.924,0.25c0.267-0.036,0.503-0.175,0.709-0.415
			c0.175-0.205,0.282-0.426,0.32-0.66c0.038-0.235,0.021-0.47-0.052-0.703c-0.072-0.233-0.213-0.497-0.424-0.793
			c-0.21-0.295-0.453-0.562-0.73-0.798c-0.029-0.025-0.075-0.063-0.137-0.11c0.099,0.315,0.115,0.646,0.05,0.989
			c-0.065,0.345-0.214,0.652-0.444,0.922c-0.385,0.45-0.874,0.691-1.467,0.724c-0.594,0.032-1.157-0.18-1.691-0.637
			c-0.552-0.472-0.856-1.015-0.915-1.627c-0.059-0.613,0.122-1.165,0.541-1.654c0.303-0.354,0.675-0.596,1.115-0.727
			c0.441-0.13,0.903-0.12,1.386,0.029c0.483,0.148,1.059,0.509,1.727,1.08c0.695,0.595,1.184,1.144,1.467,1.646
			c0.283,0.504,0.404,0.996,0.364,1.479c-0.039,0.482-0.23,0.924-0.573,1.324c-0.364,0.426-0.779,0.672-1.246,0.74
			C183.549,189.565,183.079,189.443,182.604,189.132z M182.542,184.344c-0.383-0.328-0.774-0.486-1.174-0.475
			c-0.4,0.012-0.723,0.16-0.968,0.447c-0.254,0.297-0.354,0.659-0.3,1.087c0.054,0.428,0.274,0.807,0.66,1.136
			c0.346,0.297,0.717,0.433,1.112,0.409c0.396-0.024,0.724-0.189,0.986-0.496c0.265-0.31,0.374-0.656,0.327-1.04
			C183.14,185.027,182.925,184.671,182.542,184.344z"/>
		<path d="M184.668,183.804c-0.668-0.52-1.152-1.006-1.452-1.46c-0.301-0.454-0.456-0.903-0.466-1.346
			c-0.011-0.443,0.145-0.87,0.464-1.281c0.236-0.304,0.504-0.522,0.804-0.656s0.623-0.186,0.969-0.155
			c0.346,0.029,0.717,0.131,1.113,0.303c0.396,0.172,0.874,0.476,1.435,0.911c0.663,0.516,1.145,1,1.446,1.453
			c0.301,0.452,0.458,0.901,0.469,1.345c0.012,0.444-0.144,0.873-0.465,1.287c-0.424,0.544-0.952,0.82-1.584,0.827
			C186.64,185.038,185.73,184.629,184.668,183.804z M185.223,183.091c0.928,0.722,1.63,1.093,2.105,1.114
			c0.476,0.022,0.838-0.126,1.086-0.445c0.247-0.318,0.302-0.706,0.162-1.163s-0.672-1.045-1.597-1.765
			c-0.931-0.724-1.633-1.095-2.107-1.116c-0.475-0.021-0.838,0.131-1.09,0.455c-0.248,0.318-0.311,0.678-0.188,1.078
			C183.752,181.756,184.295,182.369,185.223,183.091z"/>
		<path d="M189.382,180.385l0.41-0.786c0.465,0.204,0.857,0.27,1.177,0.198c0.319-0.072,0.579-0.251,0.779-0.535
			c0.237-0.338,0.321-0.706,0.251-1.104c-0.07-0.397-0.278-0.718-0.625-0.962c-0.33-0.231-0.678-0.315-1.044-0.251
			c-0.366,0.065-0.666,0.264-0.9,0.597c-0.096,0.136-0.188,0.323-0.276,0.563l-0.575-0.523c0.039-0.045,0.069-0.081,0.09-0.11
			c0.215-0.307,0.329-0.638,0.342-0.995s-0.147-0.653-0.48-0.888c-0.264-0.186-0.545-0.25-0.843-0.193
			c-0.299,0.057-0.548,0.227-0.746,0.509c-0.196,0.279-0.272,0.574-0.229,0.884c0.045,0.311,0.225,0.615,0.538,0.916l-0.633,0.629
			c-0.421-0.427-0.653-0.889-0.699-1.387s0.095-0.979,0.42-1.442c0.225-0.319,0.501-0.565,0.827-0.737
			c0.326-0.173,0.658-0.247,0.995-0.223s0.639,0.13,0.905,0.317c0.253,0.178,0.435,0.408,0.547,0.689
			c0.112,0.282,0.136,0.6,0.071,0.952c0.323-0.29,0.679-0.442,1.064-0.457c0.387-0.015,0.769,0.11,1.147,0.377
			c0.511,0.359,0.813,0.851,0.906,1.474c0.093,0.622-0.061,1.219-0.462,1.788c-0.361,0.515-0.814,0.833-1.359,0.957
			S189.903,180.68,189.382,180.385z"/>
	</g>
	<g>
		<path d="M42.51,179.72l-0.569-0.667c0.233-0.266,0.371-0.503,0.413-0.71c0.063-0.34-0.008-0.65-0.212-0.933
			c-0.165-0.227-0.373-0.379-0.623-0.458c-0.326-0.105-0.693-0.108-1.1-0.01c-0.407,0.099-0.902,0.355-1.486,0.771
			c0.385-0.019,0.731,0.051,1.037,0.206c0.307,0.155,0.558,0.369,0.755,0.641c0.344,0.474,0.463,1.004,0.356,1.591
			s-0.437,1.081-0.99,1.482c-0.363,0.265-0.758,0.432-1.184,0.502c-0.426,0.069-0.822,0.028-1.187-0.125s-0.674-0.403-0.926-0.751
			c-0.431-0.593-0.564-1.234-0.4-1.925s0.747-1.399,1.747-2.127c1.119-0.813,2.083-1.198,2.892-1.154
			c0.705,0.039,1.279,0.364,1.723,0.976c0.331,0.455,0.475,0.922,0.431,1.398C43.144,178.904,42.918,179.335,42.51,179.72z
			 M37.903,178.631c-0.245,0.179-0.441,0.4-0.59,0.667c-0.148,0.267-0.213,0.536-0.194,0.809c0.019,0.272,0.103,0.511,0.252,0.716
			c0.218,0.301,0.526,0.471,0.926,0.511c0.399,0.039,0.807-0.092,1.223-0.395c0.4-0.29,0.638-0.626,0.714-1.007
			c0.075-0.381-0.005-0.733-0.24-1.057c-0.233-0.321-0.547-0.511-0.94-0.567C38.661,178.252,38.277,178.359,37.903,178.631z"/>
		<path d="M42.171,184.555l0.682-0.562l1.718,2.083l-0.682,0.563L42.171,184.555z"/>
		<path d="M48.378,189.114c-0.151-0.357-0.196-0.685-0.135-0.982c0.061-0.297,0.217-0.563,0.47-0.799
			c0.38-0.355,0.828-0.518,1.343-0.485c0.515,0.031,0.984,0.274,1.409,0.729c0.426,0.457,0.637,0.948,0.631,1.475
			c-0.005,0.525-0.198,0.967-0.579,1.322c-0.243,0.227-0.513,0.359-0.812,0.4c-0.299,0.04-0.618-0.023-0.958-0.192
			c0.195,0.42,0.254,0.821,0.178,1.207c-0.077,0.386-0.277,0.729-0.601,1.031c-0.447,0.418-0.971,0.61-1.571,0.578
			s-1.141-0.306-1.623-0.822s-0.718-1.075-0.708-1.678c0.01-0.602,0.244-1.116,0.701-1.542c0.34-0.318,0.706-0.498,1.096-0.54
			S47.998,188.873,48.378,189.114z M46.738,190.019c-0.183,0.171-0.32,0.38-0.41,0.627s-0.103,0.5-0.037,0.759
			s0.191,0.487,0.375,0.685c0.287,0.308,0.622,0.469,1.006,0.483c0.384,0.016,0.728-0.118,1.033-0.403
			c0.309-0.288,0.469-0.63,0.479-1.024c0.01-0.395-0.129-0.747-0.418-1.057c-0.282-0.302-0.616-0.459-1.001-0.471
			C47.38,189.604,47.038,189.739,46.738,190.019z M49.347,187.97c-0.248,0.231-0.375,0.5-0.383,0.806s0.106,0.586,0.344,0.841
			c0.231,0.248,0.498,0.378,0.802,0.391s0.568-0.087,0.794-0.298c0.236-0.22,0.357-0.486,0.366-0.799
			c0.008-0.313-0.101-0.591-0.327-0.834c-0.229-0.245-0.498-0.375-0.806-0.391C49.83,187.671,49.566,187.766,49.347,187.97z"/>
		<path d="M51.933,195.244l0.604-0.645l1.97,1.847l-0.604,0.645L51.933,195.244z"/>
		<path d="M57.78,203.205l-0.684-0.552l3.516-4.359c-0.292,0.024-0.634,0.007-1.028-0.052c-0.394-0.058-0.729-0.134-1.005-0.227
			l0.534-0.662c0.527,0.129,1.038,0.181,1.53,0.156c0.493-0.025,0.896-0.11,1.209-0.255l0.441,0.355L57.78,203.205z"/>
		<path d="M60.754,203.433l0.735,0.424c-0.171,0.365-0.225,0.68-0.164,0.942s0.222,0.485,0.479,0.667
			c0.221,0.156,0.45,0.242,0.688,0.258c0.237,0.017,0.469-0.022,0.694-0.116s0.476-0.259,0.75-0.495s0.517-0.504,0.727-0.802
			c0.022-0.032,0.055-0.081,0.098-0.146c-0.305,0.128-0.632,0.175-0.981,0.142s-0.668-0.152-0.958-0.357
			c-0.484-0.342-0.77-0.806-0.857-1.394s0.072-1.169,0.478-1.743c0.418-0.593,0.93-0.947,1.535-1.062
			c0.605-0.115,1.171,0.014,1.697,0.385c0.38,0.269,0.656,0.617,0.827,1.044c0.17,0.428,0.204,0.888,0.1,1.383
			c-0.104,0.494-0.409,1.101-0.916,1.818c-0.527,0.747-1.029,1.285-1.503,1.613s-0.954,0.495-1.438,0.5
			c-0.483,0.005-0.941-0.145-1.372-0.448c-0.458-0.323-0.742-0.714-0.852-1.172C60.41,204.414,60.488,203.935,60.754,203.433z
			 M65.516,202.927c0.291-0.412,0.412-0.816,0.364-1.213c-0.049-0.397-0.227-0.705-0.536-0.922c-0.319-0.226-0.689-0.292-1.11-0.198
			c-0.42,0.094-0.777,0.348-1.07,0.763c-0.263,0.372-0.364,0.754-0.303,1.146s0.255,0.703,0.585,0.937
			c0.332,0.234,0.688,0.311,1.066,0.229C64.891,203.586,65.225,203.339,65.516,202.927z"/>
		<path d="M66.219,204.967c0.438-0.725,0.865-1.263,1.281-1.613c0.416-0.352,0.843-0.559,1.282-0.62
			c0.438-0.062,0.881,0.042,1.326,0.312c0.329,0.199,0.577,0.439,0.745,0.722s0.257,0.597,0.268,0.944
			c0.011,0.347-0.046,0.727-0.171,1.141c-0.125,0.413-0.371,0.924-0.738,1.531c-0.435,0.718-0.859,1.254-1.274,1.605
			c-0.415,0.353-0.842,0.561-1.281,0.623c-0.439,0.063-0.884-0.04-1.332-0.312c-0.59-0.357-0.926-0.85-1.007-1.477
			C65.223,207.069,65.523,206.117,66.219,204.967z M66.992,205.434c-0.608,1.006-0.896,1.746-0.861,2.222
			c0.034,0.475,0.224,0.817,0.569,1.026s0.737,0.217,1.174,0.025c0.438-0.192,0.959-0.789,1.566-1.792
			c0.61-1.009,0.897-1.749,0.863-2.224c-0.035-0.474-0.228-0.816-0.579-1.029c-0.345-0.208-0.709-0.229-1.092-0.062
			C68.147,203.817,67.601,204.429,66.992,205.434z"/>
		<path d="M73.861,212.262l-0.379,0.755l-4.229-2.122c0.089-0.192,0.211-0.358,0.366-0.499c0.252-0.234,0.567-0.432,0.944-0.592
			c0.377-0.16,0.882-0.312,1.514-0.453c0.981-0.221,1.678-0.437,2.09-0.647c0.411-0.21,0.691-0.464,0.841-0.761
			c0.156-0.312,0.177-0.63,0.062-0.955c-0.115-0.326-0.352-0.578-0.71-0.758c-0.378-0.19-0.738-0.229-1.079-0.115
			s-0.613,0.369-0.818,0.77l-0.766-0.488c0.357-0.574,0.796-0.929,1.315-1.063c0.52-0.135,1.083-0.05,1.691,0.256
			c0.614,0.308,1.015,0.723,1.202,1.242s0.154,1.031-0.099,1.535c-0.128,0.256-0.307,0.481-0.536,0.676
			c-0.229,0.195-0.533,0.368-0.914,0.52c-0.38,0.151-0.972,0.324-1.776,0.519c-0.67,0.158-1.107,0.275-1.312,0.349
			c-0.205,0.074-0.386,0.161-0.545,0.26L73.861,212.262z"/>
	</g>
</g>
</svg>
