<?xml version="1.0" encoding="UTF-8" standalone="no"?>
<!-- Created with Inkscape (http://www.inkscape.org/) -->
<svg
   xmlns:svg="http://www.w3.org/2000/svg"
   xmlns="http://www.w3.org/2000/svg"
   version="1.0"
   width="1133.7502"
   height="1377.5"
   viewBox="0 0 907 1102"
   id="svg2">
  <defs
     id="defs4" />
  <g
     transform="translate(63.944,77.173578)"
     id="g4933">
    <g
       id="g2612">
      <g
         transform="translate(-63.943823,-77.173578)"
         id="g2631">
        <path
           d="M 660.8324,127.37405 C 664.82571,124.71277 668.76602,120.99268 669.47664,116.01453 C 670.09972,111.83723 666.94504,108.48192 663.95424,106.07742 C 655.26074,99.499359 645.23639,94.988831 635.19199,90.902481 C 613.51317,82.246277 590.83263,76.477234 568.1353,71.212738 C 531.85225,64.152878 495.02057,59.319244 458.01999,59.038788 C 418.35634,58.720764 378.80501,63.771851 339.92041,71.373932 C 316.76683,76.848465 293.57973,82.696411 271.536,91.7901 C 262.27364,95.658676 253.08676,99.985443 245.02251,106.0296 C 242.02889,108.48206 238.75203,111.83635 239.38004,116.06659 C 240.16931,121.1187 244.27551,124.65771 248.13088,127.58119 C 244.19614,127.24364 240.5724,125.55392 236.84601,124.38708 C 233.27248,123.0352 229.19518,122.39803 226.40482,119.56642 C 222.94629,116.21236 220.89096,111.75825 217.93634,108.0016 C 215.79796,105.05218 212.83423,102.60208 211.64128,99.058624 C 209.30467,92.712677 207.49245,86.161804 204.61534,80.023697 C 203.24178,76.968994 201.98549,73.353104 203.67445,70.151199 C 205.63724,66.433746 209.45285,64.258469 212.63817,61.704651 C 235.98726,45.922119 261.42059,33.263977 288.01656,23.952515 C 303.51921,18.038345 319.96306,15.410019 336.00868,11.418869 C 353.55818,6.910446 371.61209,4.93924 389.56937,2.833359 C 404.45413,1.445618 419.39261,0.810043 434.3179,-6.1173289e-14 L 474.65465,-6.1173289e-14 C 504.26149,1.297897 533.9388,3.369904 563.0591,9.144043 C 577.54132,12.503403 592.03957,15.799774 606.50996,19.213516 C 635.93007,28.186462 664.23769,40.966553 690.10187,57.649872 C 694.84389,60.553055 699.46449,63.743546 703.47646,67.612305 C 706.17043,70.388733 706.74576,74.712646 705.03903,78.15976 C 702.08879,84.668045 699.88306,91.463791 697.58313,98.218475 C 696.35533,102.67007 692.50366,105.55324 690.03169,109.26549 C 686.52527,113.88448 684.14565,120.10495 678.28467,122.24455"
           style="opacity:1;fill:#28146e;fill-rule:nonzero;stroke:none"
           id="path16" />
        <path
           d="M 665.07829,128.7617 C 669.87647,127.68469 674.77408,126.59747 679.1302,124.2159 C 686.16808,120.46489 691.44873,114.05638 694.98923,107.00886 C 705.49461,109.64262 715.84702,112.88722 726.23547,115.96596 C 746.61383,122.47549 766.51895,130.39874 786.98851,136.63557 C 788.69064,137.29764 790.91214,137.45467 791.8698,139.26437 C 787.81195,141.05019 783.36806,141.466 779.1254,142.5905 C 771.55904,144.4525 764.06332,146.60669 756.4165,148.11575 C 751.0961,149.29631 745.54669,149.69888 740.5218,151.94846 C 747.47051,160.1543 756.19334,166.70048 762.97835,175.0762 C 768.49355,181.80731 774.68321,188.12921 778.93381,195.78392 C 776.67491,195.59631 774.46024,195.15817 772.35741,194.35226 C 749.91277,186.28941 727.02596,179.51907 704.00426,173.32286 C 685.65758,168.21352 667.09584,163.94133 648.41155,160.27701 C 636.06935,157.8672 623.90459,154.68146 611.66299,151.83427 C 611.22102,148.82327 610.3692,145.15993 612.8311,142.75874 C 617.23119,138.26128 623.69479,136.9249 629.51991,135.2167 C 640.45999,132.64323 651.57738,130.59157 662.74219,129.41783"
           style="opacity:1;fill:#28146e;fill-rule:nonzero;stroke:none"
           id="path2629" />
        <path
           d="M 609.34425,101.51001 C 612.06117,96.42662 616.04097,91.963058 620.93124,88.885468 C 628.01549,91.638031 635.42613,93.52858 642.35118,96.711166 C 649.63937,99.964096 656.3927,104.35704 662.56867,109.39796 C 665.18074,111.61874 667.95515,115.51395 665.6765,118.89716 C 663.69501,121.8298 660.81007,124.08133 657.89719,126.03355 C 650.86398,128.66162 643.16895,128.29524 635.96468,130.24237 C 627.53156,132.28694 618.53214,133.94475 611.54098,139.43616 C 608.56766,141.62097 606.86166,145.2652 607.5575,148.95634 C 602.40335,147.32024 596.33476,144.68846 594.63631,139.04704 C 593.59624,131.68065 599.63698,126.48627 602.16861,120.19102 C 604.43012,113.92088 606.05386,107.36087 609.34425,101.51001 z "
           style="opacity:1;fill:#28146e;fill-rule:nonzero;stroke:none"
           id="path104" />
        <path
           d="M 250.40123,106.24857 C 261.14613,97.87355 274.1516,93.406799 286.98555,89.37001 C 288.91978,88.642776 290.24226,90.446808 291.55481,91.493546 C 296.1627,95.362869 299.48091,100.54686 301.76302,106.07162 C 304.81067,112.90977 305.8676,120.60623 310.3322,126.79001 C 312.99883,130.367 314.91252,134.78926 314.15558,139.33125 C 312.5014,144.89372 306.40646,147.08249 301.52339,149.03181 C 302.1562,144.84528 299.83302,140.9785 296.45894,138.67554 C 289.24997,133.66037 280.42935,132.01733 272.04478,130.02797 C 265.1705,128.26416 257.8308,128.64604 251.16078,126.06306 C 247.86026,124.03587 244.74181,121.38751 242.72354,118.04213 C 241.11037,112.6415 246.69548,109.02142 250.40123,106.24857 z "
           style="opacity:1;fill:#28146e;fill-rule:nonzero;stroke:none"
           id="path108" />
        <path
           d="M 199.94766,110.93996 C 204.59551,109.47395 209.21973,107.85619 214.04958,107.07289 C 218.60414,116.84236 227.26914,124.87965 237.91328,127.36723 C 254.36401,131.18283 271.49901,132.06497 287.53175,137.67841 C 291.25475,139.06898 295.26492,140.8676 297.30011,144.49446 C 298.1353,146.73439 297.56662,149.15799 297.43407,151.46936 C 271.97578,158.91756 245.52612,162.45538 219.91542,169.37096 C 191.69244,176.6162 163.65147,184.66744 136.1981,194.46008 C 134.23173,195.23344 132.15193,195.63332 130.04952,195.77631 C 135.10713,186.64647 142.70785,179.2506 149.26967,171.20976 C 154.9747,165.23965 161.07291,159.64677 166.94028,153.83315 C 167.88461,153.27132 168.45425,151.48604 166.86327,151.30476 C 161.40979,149.25055 155.49051,149.04649 149.88588,147.55617 C 142.29753,145.95165 134.84634,143.79652 127.31081,141.97588 C 123.81081,141.22858 120.10683,140.93422 116.97443,139.04729 C 118.26204,137.53891 120.29297,137.24353 122.06093,136.60013 C 148.21783,128.64159 173.45464,117.83017 199.94766,110.93996 z "
           style="opacity:1;fill:#28146e;fill-rule:nonzero;stroke:none"
           id="path116" />
      </g>
      <g
         id="g2596">
        <path
           d="M 167.59893,-4.221918 C 165.56105,-11.23562 170.58766,-19.60145 178.04724,-20.254419 C 182.58604,-21.315225 187.72552,-18.982965 189.66389,-14.677759 C 188.12117,-13.824579 186.44439,-13.264536 184.84129,-12.552561 C 182.8291,-14.455347 179.82501,-16.38653 177.05638,-14.777048 C 173.65115,-13.560877 172.054,-9.466989 173.23384,-6.150964 C 173.48646,-1.874597 176.51602,1.863592 180.43794,3.374075 C 184.4396,4.109228 188.71721,0.655279 187.73576,-3.626596 C 189.45869,-4.609155 191.32928,-5.700601 193.38795,-5.595804 C 194.20582,-0.421137 191.44793,5.327261 186.51367,7.392294 C 182.6886,9.201727 177.72631,9.346182 174.24192,6.715506 C 170.57179,4.225043 168.93773,-0.193231 167.59893,-4.221918 z "
           style="fill:#ffffff;fill-rule:nonzero;stroke:none"
           id="path92" />
        <path
           d="M 470.90625,-79.9375 C 470.67945,-68.559631 470.30718,-57.17263 469.6875,-45.8125 C 471.92654,-44.686515 474.46816,-44.827969 476.90625,-44.65625 C 477.14239,-49.19532 477.23763,-53.737469 477.3125,-58.28125 C 480.86921,-58.325366 484.44548,-58.462289 488,-58.09375 C 492.2371,-54.961101 490.00969,-49.131699 490.75,-44.6875 C 493.34453,-44.674359 495.92269,-44.67191 498.53125,-44.65625 C 496.63037,-50.159429 498.81517,-56.573899 495,-61.375 C 496.81791,-63.145974 498.69956,-65.04739 499.28125,-67.625 C 500.13009,-72.929661 495.91285,-78.667015 490.40625,-78.84375 C 483.9318,-79.564251 477.41659,-79.882469 470.90625,-79.9375 z M 477.28125,-73.46875 C 481.25135,-73.507393 485.22129,-73.291615 489.1875,-73 C 492.46174,-71.973407 493.69955,-66.535351 490.4375,-64.8125 C 486.29591,-63.947636 481.97644,-64.330574 477.78125,-64.4375 C 476.67801,-67.116234 477.6564,-70.531165 477.28125,-73.46875 z "
           transform="scale(0.8,0.8)"
           style="fill:#ffffff;fill-rule:nonzero;stroke:none"
           id="path20" />
        <path
           d="M 446.46875,-78.8125 C 442.81204,-78.759305 439.05156,-77.863541 436.3125,-75.3125 C 432.43929,-72.376536 432.19993,-67.188843 431.09375,-62.84375 C 430.94762,-56.550186 432.37602,-49.328072 437.8125,-45.4375 C 445.82259,-39.070121 459.77888,-42.640766 462.8125,-52.75 C 464.30586,-59.327321 464.40892,-66.955193 460.3125,-72.6875 C 457.9272,-77.748001 451.5072,-78.780227 446.46875,-78.8125 z M 447.3125,-72.5 C 450.38616,-72.564796 453.42415,-71.463813 454.78125,-68.40625 C 457.79761,-62.478745 458.12928,-52.883919 451.34375,-49.40625 C 446.52344,-46.305969 440.27966,-50.393531 438.90625,-55.34375 C 437.74297,-60.944489 437.37549,-68.626812 443.25,-71.75 C 444.51282,-72.194542 445.91538,-72.470547 447.3125,-72.5 z "
           transform="scale(0.8,0.8)"
           style="fill:#ffffff;fill-rule:nonzero;stroke:none"
           id="path24" />
        <path
           d="M 406.54394,-63.00892 C 413.33954,-62.666651 420.0626,-61.545679 426.82565,-60.819376 C 426.74916,-59.690485 426.59617,-57.432703 426.51968,-56.303812 C 421.45991,-56.48678 416.41662,-56.940515 411.40851,-57.652719 C 411.33964,-55.70936 411.33058,-53.764703 411.37457,-51.820184 C 415.80586,-51.649744 420.1441,-50.581491 424.58595,-50.469476 C 424.48366,-48.805414 424.38739,-47.141214 424.30192,-45.47616 C 419.62854,-45.5496 415.08003,-46.754572 410.42704,-47.020807 C 410.2938,-44.538751 410.20611,-42.05459 410.17924,-39.568689 C 415.032,-39.085962 419.86952,-38.351999 424.76384,-38.369425 C 424.77867,-36.739694 424.75195,-35.109155 424.68522,-33.479776 C 417.65614,-34.005182 410.68889,-35.137933 403.6683,-35.752435 C 404.93232,-44.798273 405.608,-53.923853 406.54394,-63.00892 z "
           style="fill:#ffffff;fill-rule:nonzero;stroke:none"
           id="path28" />
        <path
           d="M 310.56924,-56.91134 C 312.39315,-57.803812 314.54307,-57.917902 316.48443,-58.574594 C 314.81726,-52.32583 312.52774,-46.257684 310.60019,-40.087427 C 310.44507,-36.571741 311.6526,-33.146494 311.83398,-29.637842 C 310.12581,-29.271097 308.41035,-28.948847 306.68953,-28.709665 C 305.79605,-32.222284 305.78349,-36.007059 304.2628,-39.322626 C 300.93869,-43.668024 297.64489,-48.041925 294.23749,-52.323114 C 293.6336,-53.038049 293.23408,-53.853159 293.03895,-54.768442 C 295.34634,-55.100794 297.66264,-55.602991 300.01437,-55.38154 C 301.85855,-51.52337 304.35443,-48.021875 306.5993,-44.390695 C 308.12173,-48.497659 309.04857,-52.805414 310.56924,-56.91134 z "
           style="fill:#ffffff;fill-rule:nonzero;stroke:none"
           id="path32" />
        <path
           d="M 568.53125,-72.40625 C 566.93964,-61.058003 565.26299,-49.675476 563.21875,-38.40625 C 565.61504,-37.804768 568.06394,-37.344131 570.53125,-37.03125 C 570.88994,-41.593609 571.6846,-46.083165 572.21875,-50.625 C 576.09214,-49.462147 580.89288,-50.50983 584.09375,-47.71875 C 585.13154,-43.596664 583.45132,-39.147603 584.46875,-34.90625 C 586.99121,-34.675594 589.49254,-34.458893 592.03125,-34.25 C 589.65925,-38.114479 592.65368,-42.383504 592.03125,-46.5 C 591.547,-48.192906 590.58824,-49.691021 590.09375,-51.375 C 596.94324,-54.717648 597.21918,-66.19112 589.53125,-68.65625 C 582.66525,-70.482937 575.5593,-71.428772 568.53125,-72.40625 z M 574.5,-65.0625 C 579.19108,-64.856716 584.35738,-65.164089 588.25,-62.03125 C 588.68713,-59.058914 587.83263,-54.161102 583.84375,-54.65625 C 580.27687,-55.238735 576.37425,-55.204208 573.1875,-57.0625 C 573.879,-59.678924 574.30988,-62.361351 574.5,-65.0625 z "
           transform="scale(0.8,0.8)"
           style="fill:#ffffff;fill-rule:nonzero;stroke:none"
           id="path44" />
        <path
           d="M 283.87565,-52.324609 C 285.84959,-52.717249 287.80938,-53.201013 289.7482,-53.765192 C 289.3222,-44.059213 287.82901,-34.398813 286.32036,-24.796045 C 284.53695,-24.33729 282.74266,-23.912668 280.947,-23.537668 C 276.24841,-32.157068 270.21823,-40.080118 266.52534,-49.223154 C 268.41313,-49.427988 270.30655,-49.640207 272.2028,-49.847421 C 274.7109,-44.628336 277.63281,-39.621149 280.23486,-34.447885 C 280.88845,-33.325281 281.32644,-31.952936 282.48368,-31.222086 C 282.94987,-38.256632 283.77958,-45.267282 283.87565,-52.324609 z "
           style="fill:#ffffff;fill-rule:nonzero;stroke:none"
           id="path48" />
        <path
           d="M 483.35763,-52.080515 C 490.0627,-51.325159 496.61706,-49.572733 503.29348,-48.567163 C 503.15753,-46.930536 502.90704,-45.307031 502.52372,-43.711527 C 497.68696,-44.814981 492.82371,-46.012277 487.88223,-46.453928 C 487.69011,-44.499063 487.44925,-42.549509 487.21244,-40.600321 C 491.50903,-39.09646 496.57953,-39.718897 500.55597,-37.516138 C 500.00845,-36.22265 499.64993,-34.877878 499.4804,-33.481775 C 495.15706,-33.940653 490.96228,-35.177973 486.64328,-35.630747 C 484.89886,-34.079157 485.68776,-31.136041 485.08311,-29.025888 C 490.0039,-28.204355 494.88551,-27.14422 499.81227,-26.32789 C 499.59582,-24.752039 499.38008,-23.176386 499.16504,-21.600931 C 492.27511,-22.711893 485.44313,-24.205942 478.51678,-25.065057 C 479.38711,-34.119516 481.81799,-43.074548 483.35763,-52.080515 z "
           style="fill:#ffffff;fill-rule:nonzero;stroke:none"
           id="path56" />
        <path
           d="M 257.60666,-46.281198 C 259.68733,-46.588373 261.74315,-47.046518 263.76988,-47.627512 C 262.91334,-41.078516 260.32713,-34.830698 259.44919,-28.298013 C 260.21327,-25.031244 261.36978,-21.86384 261.95277,-18.550684 C 260.23889,-17.93728 258.4888,-17.281259 256.63984,-17.38363 C 255.93585,-20.668909 255.22255,-24.024255 253.98269,-27.134638 C 249.58386,-32.002756 244.92875,-36.652551 240.37942,-41.384882 C 242.36468,-41.838541 244.33722,-42.354135 246.30932,-42.88801 C 249.63922,-39.898477 252.14499,-36.129328 255.46444,-33.136606 C 256.40692,-37.482965 256.55172,-41.957163 257.60666,-46.281198 z "
           style="fill:#ffffff;fill-rule:nonzero;stroke:none"
           id="path60" />
        <path
           d="M 507.59262,-47.086618 C 514.85296,-45.187006 522.28711,-43.878031 529.45312,-41.65983 C 528.87121,-40.27366 528.62004,-38.789865 528.43542,-37.308603 C 525.62204,-37.758341 522.88266,-38.622843 520.03814,-38.823908 C 518.48262,-31.377588 516.4975,-24.010614 514.44261,-16.686762 C 512.72561,-17.312967 510.9604,-17.772897 509.17897,-18.112253 C 510.51475,-25.678949 512.89744,-33.027429 514.65443,-40.507745 C 511.97052,-41.382135 509.04802,-41.445276 506.49688,-42.684992 C 506.90169,-44.141184 507.26692,-45.608392 507.59262,-47.086618 z "
           style="fill:#ffffff;fill-rule:nonzero;stroke:none"
           id="path64" />
        <path
           d="M 672.5625,-48.96875 C 666.56776,-40.45654 660.61431,-31.884956 654.53125,-23.4375 C 653.64549,-21.97443 651.99223,-20.753746 652.03125,-18.90625 C 654.2998,-18.29298 656.56087,-17.647877 658.84375,-17.03125 C 660.11657,-19.062061 661.37087,-21.114468 662.53125,-23.21875 C 666.92027,-22.339061 671.32071,-21.284203 675.4375,-19.46875 C 675.33135,-17.00312 675.34422,-14.562565 675.40625,-12.09375 C 677.9368,-11.563697 680.47543,-11.012721 683.03125,-10.53125 C 682.00764,-22.645355 681.33501,-34.773052 680.625,-46.90625 C 678.04481,-48.003281 675.33762,-48.686806 672.5625,-48.96875 z M 674.65625,-39.3125 C 674.5808,-34.81873 675.11361,-30.348076 675.4375,-25.875 C 672.49927,-26.773666 668.86643,-26.527171 666.5,-28.65625 C 669.48174,-31.994797 671.05144,-36.599679 674.65625,-39.3125 z "
           transform="scale(0.8,0.8)"
           style="fill:#ffffff;fill-rule:nonzero;stroke:none"
           id="path68" />
        <path
           d="M 557.98718,-33.56637 C 560.75251,-33.347055 563.25187,-31.890451 565.92985,-31.203745 C 565.94493,-24.133493 564.83606,-17.128443 564.49122,-10.080744 C 568.63629,-15.604852 571.8602,-21.881098 575.38673,-27.847421 C 578.30725,-27.647653 580.90263,-26.128961 583.71115,-25.413461 C 581.1219,-16.719904 577.93605,-8.214349 575.41369,0.497473 C 573.60635,0.240164 571.84887,-0.197489 570.11438,-0.699243 C 572.10257,-7.91311 574.89668,-14.88891 576.70891,-22.15246 C 572.79397,-15.683984 569.14355,-9.059671 565.19977,-2.610559 C 563.26497,-3.241083 561.35895,-3.938074 559.49493,-4.726724 C 560.82521,-12.36062 561.38759,-20.102197 562.52585,-27.766184 C 562.33915,-27.770334 561.96577,-27.778635 561.7791,-27.782785 C 559.81723,-20.604227 557.01079,-13.66308 555.2304,-6.434961 C 553.49339,-6.352289 551.80693,-6.712671 550.12996,-7.042078 C 551.70767,-16.113657 555.76878,-24.620325 557.98718,-33.56637 z "
           style="fill:#ffffff;fill-rule:nonzero;stroke:none"
           id="path72" />
        <path
           d="M 259.5,-38.46875 C 258.64078,-38.421451 257.78652,-38.254009 256.9375,-38 C 252.40676,-36.34053 247.07571,-34.989685 244.59375,-30.40625 C 240.39161,-21.174035 243.91116,-9.3841626 252.15625,-3.625 C 260.63289,0.96349 273.38977,-3.2842488 276.125,-12.90625 C 278.2149,-18.288674 275.63068,-23.819221 273.78125,-28.84375 C 271.50582,-34.337934 265.51453,-38.799843 259.5,-38.46875 z M 258.1875,-31.90625 C 260.45308,-32.079705 262.79195,-31.341027 264.5,-29.75 C 268.87899,-25.861584 270.14808,-19.528435 269.40625,-13.9375 C 267.30672,-7.6425249 257.41836,-5.8060187 253.8125,-11.6875 C 249.5368,-16.876156 247.29525,-26.744491 254.3125,-30.59375 C 255.48617,-31.365046 256.82815,-31.802177 258.1875,-31.90625 z "
           transform="scale(0.8,0.8)"
           style="fill:#ffffff;fill-rule:nonzero;stroke:none"
           id="path76" />
        <path
           d="M 747.875,-26.1875 C 742.25844,-18.496631 736.14616,-11.181995 730.4375,-3.5625 C 729.00848,-1.3954087 726.42413,0.25656866 726.4375,3.09375 C 728.48181,3.6678813 730.53544,4.2526998 732.59375,4.84375 C 734.28507,3.0124475 735.87198,1.06673 737.40625,-0.90625 C 741.39288,0.3877325 745.28217,1.966755 749.28125,3.25 C 749.2436,5.5870175 749.24331,7.9102741 749.25,10.25 C 751.51964,11.23835 753.77607,12.29078 756.03125,13.34375 C 756.25881,1.2589037 755.37846,-10.824856 755.375,-22.90625 C 753.15313,-24.57434 750.47672,-25.36795 747.875,-26.1875 z M 749.3125,-16.40625 C 749.25942,-12.056293 749.22121,-7.7263113 749.25,-3.375 C 746.59193,-3.9930387 743.97735,-4.6706125 741.375,-5.4375 C 743.42751,-9.3617936 745.79584,-13.680706 749.3125,-16.40625 z "
           transform="scale(0.8,0.8)"
           style="fill:#ffffff;fill-rule:nonzero;stroke:none"
           id="path88" />
      </g>
    </g>
    <g
       id="g2635">
      <path
         d="M 390.99406,-7.001566 L 408.81526,45.391742 L 468.95547,45.481222 L 421.4265,82.463512 L 438.69073,138.66028 L 391.05438,104.34508 L 343.36868,139.63576 L 362.07022,81.799962 L 314.7734,45.541512 L 373.53648,45.457972 L 390.99406,-7.001566 z "
         style="fill:#28146e;fill-rule:nonzero;stroke:none"
         id="path100" />
      <path
         d="M 378.24148,49.992526 L 391.08183,11.384004 L 404.5588,50.114686 L 449.57159,50.238356 L 414.41,77.834246 L 425.3791,119.53121 L 392.03547,95.106706 L 355.34744,121.25019 L 369.57315,78.259566 L 334.15728,50.265626 L 378.24148,49.992526 z "
         style="fill:#f8c200;fill-rule:nonzero;stroke:none"
         id="path112" />
    </g>
    <g
       id="g2659">
      <path
         d="M 285.00534,176.74022 C 319.03862,152.61318 361.34222,139.4488 403.12527,142.91466 C 441.66661,145.75969 478.55334,162.16239 508.11836,186.77072 C 537.17697,210.77358 559.66922,242.03972 575.82081,275.94404 C 593.94418,313.89722 604.49466,355.1388 609.65048,396.77608 C 614.12755,432.52027 614.37558,468.6722 612.30592,504.6017 C 572.17805,487.0476 530.893,472.5258 488.04086,463.29601 L 574.20529,452.98212 L 464.86052,440.97352 L 496.37851,423.57419 L 459.89097,423.30751 L 485.83159,397.06694 L 451.961,407.59896 L 519.00941,323.05115 L 435.17895,391.60611 L 443.91877,357.83307 L 418.84974,382.92353 L 417.52162,346.60353 L 401.90794,377.8418 L 389.51471,271.01342 L 378.29229,377.69707 L 361.72963,350.19547 L 361.45952,382.88645 L 337.11311,359.69008 L 345.88933,391.59539 L 260.03549,322.1955 L 328.23159,407.63501 L 295.16682,397.16222 L 321.17967,424.27373 L 283.78146,423.60898 L 314.74228,441.15006 L 202.96496,452.73868 L 289.09887,463.47428 C 248.1334,472.55237 208.72454,487.40998 170.14802,503.8344 C 169.374,504.16021 168.57171,504.38964 167.74118,504.52269 C 163.34633,434.81669 169.13559,363.20795 194.72213,297.68728 C 213.21522,250.34987 243.026,206.21044 285.00534,176.74022 z "
         style="fill:#28146e;fill-rule:nonzero;stroke:none"
         id="path120" />
      <path
         d="M 389.51471,271.01342 L 401.90794,377.8418 L 417.07568,347.65905 L 418.84974,382.92353 L 443.91877,357.83307 L 435.17895,391.60611 L 519.00941,323.05115 L 451.961,407.59896 L 485.83159,397.06694 L 459.89097,423.30751 L 496.37851,423.57419 L 464.86052,440.97352 L 574.20529,452.98212 L 491.57321,463.99271 C 408.71948,446.61523 368.22627,449.98982 289.09887,463.47428 C 260.44374,459.52842 231.5176,457.3949 202.96496,452.73868 L 314.74228,441.15006 L 283.78146,423.60898 L 321.17967,424.27373 L 295.16682,397.16222 L 328.23159,407.63501 L 260.03549,322.1955 L 345.88933,391.59539 L 337.11311,359.69008 L 361.45952,382.88645 L 361.72963,350.19547 L 378.29229,377.69707 L 389.51471,271.01342 z "
         style="fill:#f8c200;fill-rule:nonzero;stroke:none"
         id="path140" />
      <path
         d="M 386.74836,455.47881 C 387.85569,454.31849 388.97627,453.17165 390.10875,452.0376 C 390.95434,452.76778 391.80156,453.49973 392.6371,454.27074 C 454.21061,516.35781 515.43062,578.7943 577.00566,640.87992 C 567.79411,666.56891 553.88533,690.60477 536.44391,711.59159 C 487.77013,664.16888 439.75322,616.07617 391.05089,568.68099 C 339.62791,612.71885 292.39824,663.5758 244.28744,711.71418 C 243.96528,711.48067 243.32097,711.01365 242.99881,710.78013 C 225.70036,690.24961 212.75473,666.43163 202.59555,641.678 C 215.92012,627.55533 229.92042,614.0615 243.50508,600.18105 C 291.12246,551.8176 339.11729,503.82814 386.74836,455.47881 z "
         style="fill:#28146e;fill-rule:nonzero;stroke:none"
         id="path164" />
      <path
         d="M 389.02427,568.65581 C 389.71544,567.94213 390.39097,567.95052 391.05089,568.68099 C 439.83101,615.99545 487.62344,664.32067 536.44391,711.59159 C 503.27062,751.6898 455.21929,777.12187 403.4812,780.47989 C 396.39079,781.61351 389.1812,781.04273 382.03268,781.11925 C 321.0984,775.95783 285.45466,754.33846 244.91429,713.64472 C 244.75758,713.16208 244.44415,712.19681 244.28744,711.71418 C 292.56763,664.06415 340.59286,616.15333 389.02427,568.65581 z "
         style="fill:#f8c200;fill-rule:nonzero;stroke:none"
         id="path180" />
    </g>
    <g
       id="g4774">
      <path
         d="M 749.00746,784.97638 C 776.8208,778.12561 797.61796,781.52785 820.03058,801.82169 C 837.15324,821.26487 825.74774,845.22853 819.50084,866.78942 C 815.63153,885.45917 807.35152,900.60403 791.01588,910.8008 C 770.42967,921.22557 748.13795,928.61662 725.11905,930.97272 C 690.54411,934.10461 658.8788,918.38006 625.6699,912.37446 C 561.33042,899.99473 496.48363,916.61096 432.07,920.32766 C 365.38425,925.15922 299.09603,915.69911 232.97807,908.46764 C 178.01083,900.5954 128.06228,922.35667 75.144567,931.01572 C 44.249915,931.93351 2.1584553,923.09809 -21.880392,901.73351 C -38.390499,874.15785 -62.047739,826.77788 -35.756582,798.94893 C -11.904983,781.02512 3.9124841,778.92705 31.447412,784.86795 C 33.828067,787.614 9.2724006,794.03531 6.306146,794.97077 C -40.716999,807.97508 -16.520054,828.44208 16.079264,831.55938 L 97.900977,823.93563 C 132.96319,819.78357 168.02111,815.85081 203.14369,812.35775 C 203.34108,811.18598 203.57728,810.03415 203.85231,808.90227 C 203.77525,809.75775 203.62112,811.46874 203.54405,812.32422 C 277.22667,812.82414 348.86557,823.04141 423.03756,823.33652 C 474.16763,817.4088 525.18812,812.46865 576.69244,812.42815 C 621.82725,815.82338 666.6024,822.68053 711.662,826.83849 C 739.6236,832.21974 766.90659,833.36624 794.62936,826.15816 C 813.62763,818.82016 805.77119,808.96546 791.24681,801.44541 C 782.91006,794.51673 754.32183,792.45435 749.00746,784.97638 z "
         style="fill:#28146e;fill-rule:nonzero;stroke:none"
         id="path336" />
      <g
         id="g2679">
        <path
           d="M 511.02321,845.73819 C 521.70786,833.61864 542.35613,836.73403 545.64729,853.17224 C 542.4693,853.31408 539.29504,853.49216 536.12224,853.56783 C 525.33868,835.8173 514.20143,851.20406 516.25152,866.91533 C 518.44173,878.75667 533.68284,880.6427 536.66455,868.37586 C 539.75959,868.20485 542.86094,868.07007 545.96879,868.02141 C 542.38419,890.82946 511.93792,890.56791 506.82589,868.78054 C 505.92302,861.01076 506.02771,852.20418 511.02321,845.73819 z "
           style="fill:#ffffff;fill-rule:nonzero;stroke:none"
           id="path352" />
        <path
           d="M 713.40625,1049.875 C 705.41476,1067.4792 697.66865,1085.1962 689.5625,1102.75 C 691.63075,1105.3744 698.22617,1104.3767 701.5625,1104.6562 C 703.0066,1101.0556 704.3933,1097.4297 705.59375,1093.75 C 712.61601,1094.0109 719.68595,1094.2459 726.65625,1095.25 C 727.63509,1099.0024 727.57783,1103.2394 729.1875,1106.7188 C 733.18211,1107.1045 737.22947,1107.0318 741.25,1107.0938 C 736.36211,1088.3005 731.33681,1069.5381 726.5625,1050.7188 C 722.17446,1050.3823 717.79576,1050.0163 713.40625,1049.875 z M 719.09375,1062.9062 C 721.14514,1070.2032 722.29552,1077.7553 723.4375,1085.25 C 719.02133,1084.618 714.59884,1084.2623 710.15625,1084.0312 C 712.71216,1076.8112 716.38457,1070.0668 719.09375,1062.9062 z "
           transform="scale(0.8,0.8)"
           style="fill:#ffffff;fill-rule:nonzero;stroke:none"
           id="path356" />
        <path
           d="M 283.4375,1050.5 C 280.82639,1050.6161 278.22579,1051.1405 275.71875,1052.0938 C 269.15309,1054.1426 263.9202,1059.3473 260.75,1065.3125 C 257.92472,1075.5566 256.5159,1087.1276 261.59375,1096.9375 C 268.24021,1109.3347 285.91031,1113.9214 297.84375,1106.4375 C 306.52401,1101.7335 311.0933,1091.9635 311.46875,1082.375 C 311.3454,1074.153 310.04814,1065.4588 304.84375,1058.7812 C 299.17337,1053.3774 291.27082,1050.1517 283.4375,1050.5 z M 284.8125,1061.1562 C 288.9348,1061.0708 293.10655,1062.0816 295.8125,1065.3438 C 299.41684,1069.6815 300.10806,1075.6477 300.28125,1081.0938 C 299.44041,1085.9004 299.08973,1091.3629 295.1875,1094.8438 C 290.51961,1100.2517 282.05118,1100.6692 276,1097.5312 C 270.5322,1093.4363 270.09014,1085.979 269.40625,1079.75 C 269.79276,1072.8987 272.38792,1064.5844 279.375,1061.8438 C 281.09581,1061.4651 282.93873,1061.1951 284.8125,1061.1562 z "
           transform="scale(0.8,0.8)"
           style="fill:#ffffff;fill-rule:nonzero;stroke:none"
           id="path360" />
        <path
           d="M 596.25,1054.0625 C 581.59555,1054.2209 571.53767,1064.4614 569.375,1078.625 C 567.52819,1102.0543 583.48661,1116.8177 606.1875,1111.2188 C 618.68074,1107.9297 624.84367,1093.0297 622.40625,1081.125 C 620.98441,1065.8908 611.70832,1054.6968 596.25,1054.0625 z M 603.90625,1101.125 C 582.82087,1109.5924 577.31243,1084.2687 584.625,1069.2188 C 604.91546,1051.9002 621.49346,1089.4908 603.90625,1101.125 z "
           transform="scale(0.8,0.8)"
           style="fill:#ffffff;fill-rule:nonzero;stroke:none"
           id="path364" />
        <path
           d="M 607.7465,843.22878 C 610.9217,843.57296 614.08059,844.09441 617.26051,844.49091 C 621.1934,855.6046 625.41003,866.61443 629.3506,877.72765 C 631.57695,867.64805 633.01773,857.39269 634.65175,847.20169 C 637.65773,847.51822 640.62541,848.17058 643.64755,848.45908 C 641.3712,863.18236 638.55673,877.82821 636.21676,892.54656 C 633.01638,892.43389 629.93344,891.52782 626.76313,891.24436 C 621.64695,883.70019 619.70553,863.64882 613.72947,857.78867 C 611.87462,867.92023 610.63128,878.17888 608.45645,888.24537 C 605.76994,887.50898 603.00383,887.2881 600.28433,886.7995 C 602.58946,872.24732 605.32049,857.76149 607.7465,843.22878 z "
           style="fill:#ffffff;fill-rule:nonzero;stroke:none"
           id="path368" />
        <path
           d="M 197.125,1059.375 C 199.70933,1077.6698 201.83336,1096.0395 204.375,1114.3438 C 213.34127,1113.101 222.35744,1112.2402 231.28125,1110.7812 C 240.6635,1109.2012 246.08054,1099.7543 247.125,1091 C 247.5849,1083.9357 248.09547,1076.4414 244.9375,1069.875 C 242.34613,1063.974 238.09057,1057.7172 231.25,1056.625 C 219.82299,1055.4776 208.45721,1058.2835 197.125,1059.375 z M 223.78125,1065.5938 C 231.19636,1065.4952 233.86478,1073.776 235.28125,1079.6875 C 236.43525,1086.5582 236.55238,1095.334 230.71875,1100.2188 C 225.44676,1102.7051 219.25386,1102.6192 213.53125,1103.25 C 212.32996,1091.4685 210.46582,1079.7645 209.09375,1068 C 213.78273,1066.3981 218.85788,1065.9525 223.78125,1065.5938 z "
           transform="scale(0.8,0.8)"
           style="fill:#ffffff;fill-rule:nonzero;stroke:none"
           id="path372" />
        <path
           d="M 1.641992,848.305 C 12.187799,851.04012 22.969766,852.8488 33.591593,855.30222 C 33.007303,857.74883 32.436136,860.20966 31.839594,862.66683 C 24.00567,861.46355 16.362039,859.27662 8.551248,857.94454 C 7.674219,860.87816 6.85943,863.84319 6.216104,866.84801 C 13.34028,868.45702 20.412073,870.36271 27.606546,871.6399 C 27.569315,873.98867 26.734918,876.23629 26.316889,878.54847 C 19.009958,878.10906 11.932047,875.68756 4.722544,874.42124 C 3.975183,878.34053 2.34588,882.10613 2.28512,886.14664 C 10.246637,887.48356 18.037958,889.65043 25.937342,891.30292 C 25.49885,893.75248 24.858042,896.16695 24.293741,898.60239 C 13.233072,897.0653 2.471643,893.6202 -8.586569,891.95806 C -8.588644,888.4122 -7.222799,885.07012 -6.588232,881.62848 C -3.778845,870.53664 -1.363257,859.33973 1.641992,848.305 z "
           style="fill:#ffffff;fill-rule:nonzero;stroke:none"
           id="path376" />
        <path
           d="M 371.96875,1059.0938 C 369.72131,1077.714 367.30504,1096.3289 365.53125,1115 C 373.74657,1115.5839 381.90614,1116.7075 390.09375,1117.5938 C 393.85829,1117.9284 397.68967,1117.3361 401.21875,1116 C 407.25572,1113.209 410.49444,1106.8788 413.125,1101.125 C 416.94527,1090.6229 418.14003,1077.3733 410.34375,1068.3438 C 400.03375,1060.1237 384.69119,1061.0285 371.96875,1059.0938 z M 381.875,1069.9375 C 387.12357,1070.2525 392.38525,1070.9035 397.4375,1072.4062 C 409.06544,1078.6655 403.53394,1097.42 397,1105.5 C 391.20896,1110.0749 383.65454,1105.9902 377.09375,1106.4688 C 378.75644,1094.2974 380.28483,1082.1154 381.875,1069.9375 z "
           transform="scale(0.8,0.8)"
           style="fill:#ffffff;fill-rule:nonzero;stroke:none"
           id="path380" />
        <path
           d="M 413.64886,853.67937 C 425.54039,852.62861 437.30742,850.46262 449.19786,849.42908 C 449.45204,851.96567 450.05301,854.46172 450.45836,856.9897 C 446.00007,857.21695 441.59021,857.89542 437.15489,858.32016 C 438.06807,870.65237 439.69136,883.00776 441.55645,895.24801 C 438.33629,895.51717 435.1549,896.20205 431.91542,896.14434 C 430.74838,884.16764 429.13612,872.19144 427.85675,860.26783 C 423.39184,859.84169 418.96084,861.19292 414.49975,861.36998 C 414.20791,858.79888 413.77827,856.24959 413.64886,853.67937 z "
           style="fill:#ffffff;fill-rule:nonzero;stroke:none"
           id="path388" />
        <path
           d="M 648.30055,857.17572 C 648.26755,854.50141 648.87342,851.90343 649.64512,849.37275 C 661.34898,851.55355 673.15626,853.17916 684.87431,855.30399 C 684.33917,857.70299 684.49478,860.53443 683.14911,862.62514 C 678.76518,862.28748 674.51089,860.85521 670.08952,860.98188 C 668.05951,872.8592 665.83899,884.70884 663.5995,896.55013 C 660.79535,896.24193 658.02652,895.75708 655.25427,895.30828 C 656.89657,883.23558 659.58181,871.32207 661.05589,859.22713 C 656.81791,858.44802 652.57013,857.69677 648.30055,857.17572 z "
           style="fill:#ffffff;fill-rule:nonzero;stroke:none"
           id="path392" />
        <path
           d="M 424.78125,1079.5 C 419.67995,1093.0991 420.3802,1107.3657 430.09375,1118.4688 C 441.47431,1127.2713 460.3102,1125.9555 468.96875,1113.9062 C 475.03537,1105.6168 475.9268,1094.3849 473.53125,1084.625 C 466.71378,1060.3158 437.5413,1060.8089 424.78125,1079.5 z M 457.125,1110.625 C 436.06234,1123.2584 427.91375,1096.0936 437.40625,1080.9688 C 459.31139,1063.643 470.59494,1091.474 457.125,1110.625 z "
           transform="scale(0.8,0.8)"
           style="fill:#ffffff;fill-rule:nonzero;stroke:none"
           id="path408" />
        <path
           d="M 164.3125,1067.6562 C 160.09764,1068.1626 156.21884,1070.0566 152.03125,1070.7188 C 150.04462,1090.3129 149.24098,1110.0667 148.09375,1129.75 C 152.13035,1129.4539 155.86833,1127.7808 159.71875,1126.6875 C 160.20401,1122.5437 160.43431,1118.3755 160.40625,1114.2188 C 166.64661,1112.4441 173.05602,1111.2358 179.21875,1109.1875 C 181.82285,1112.1142 183.98384,1115.3971 186.34375,1118.5312 C 190.43999,1117.6354 194.43412,1116.3254 198.40625,1115 C 186.95744,1099.2842 175.48589,1083.5652 164.3125,1067.6562 z M 161.25,1081.2188 C 165.18516,1087.8536 170.42845,1093.7542 173.6875,1100.75 C 169.22643,1101.894 164.93632,1103.5991 160.4375,1104.5938 C 160.87513,1096.8048 160.4335,1088.9706 161.25,1081.2188 z "
           transform="scale(0.8,0.8)"
           style="fill:#ffffff;fill-rule:nonzero;stroke:none"
           id="path412" />
        <path
           d="M 690.70347,856.14772 C 693.60078,856.80828 696.50627,857.476 699.4814,857.76825 C 697.09248,872.42536 693.785,886.93491 691.1829,901.56211 C 688.2941,901.30178 685.48454,900.60657 682.62129,900.25106 C 685.30359,885.54631 687.94577,870.83573 690.70347,856.14772 z "
           style="fill:#ffffff;fill-rule:nonzero;stroke:none"
           id="path420" />
        <path
           d="M 748.9539,862.77414 C 752.68461,858.37125 758.67938,857.14731 764.10003,856.31429 C 771.13757,855.38298 779.10374,860.60112 779.80153,867.90726 C 776.90918,868.13204 774.199,869.32499 771.31396,869.47582 C 770.05081,867.39222 768.74159,864.97916 766.11717,864.48421 C 762.05047,863.91704 756.888,864.7098 754.73903,868.64907 C 754.29327,870.53566 754.70416,872.44359 755.92228,873.97043 C 763.81077,876.92426 772.98916,874.34182 780.64064,878.28341 C 784.9899,881.63436 785.56144,887.9025 784.1636,892.86696 C 781.91185,898.25966 776.2062,900.89197 771.13498,903.00629 C 765.47528,904.0024 759.09172,903.9693 754.13176,900.67911 C 751.18013,898.51229 749.17045,895.12679 748.55146,891.53704 C 751.5216,891.22834 754.44615,890.612 757.41635,890.23868 C 757.8948,891.41933 758.17611,892.80666 759.05575,893.81813 C 763.32342,896.83829 769.23985,895.90747 773.52032,893.37516 C 776.84559,891.75232 776.95329,885.49338 772.87526,884.82799 C 766.67352,883.84667 760.27034,884.37798 754.10512,883.02173 C 745.53148,881.1976 743.20514,868.66019 748.9539,862.77414 z "
           style="fill:#ffffff;fill-rule:nonzero;stroke:none"
           id="path424" />
        <path
           d="M 37.780387,867.30776 C 38.699857,861.48452 44.588857,858.05141 50.044217,857.51471 C 55.489207,857.07592 61.355877,857.70376 65.971127,860.8563 C 69.736737,863.57277 71.439977,868.1785 71.595497,872.69407 C 68.617367,872.58728 65.644417,872.39707 62.680197,872.1196 C 62.355187,870.60518 61.816307,869.16675 61.227917,867.76423 C 57.767297,865.44895 53.462777,864.98478 49.415677,865.4359 C 47.205777,865.79795 46.244607,867.92134 45.664317,869.84003 C 46.279127,871.26789 46.340497,873.19066 47.842997,874.07703 C 54.344967,877.2005 62.060147,877.47731 67.979837,881.82151 C 73.041327,885.62641 72.120907,893.33931 69.333197,898.27434 C 65.957957,901.92292 61.180877,904.85807 56.045557,904.65046 C 50.763877,904.95256 45.437737,903.56318 40.895857,900.88529 C 36.769767,898.22658 34.597406,893.17232 35.259256,888.33866 C 38.221077,888.62566 41.159417,889.10402 44.117607,889.44516 C 43.733137,893.66503 48.160987,896.77616 52.046177,896.68102 C 55.071157,896.58927 58.704657,897.20154 61.135047,894.97353 C 63.461407,892.79751 62.760447,888.31261 59.676627,887.26467 C 52.825647,884.66425 44.882897,883.84748 39.386787,878.54691 C 36.150167,875.72513 37.418487,871.00495 37.780387,867.30776 z "
           style="fill:#ffffff;fill-rule:nonzero;stroke:none"
           id="path428" />
        <path
           d="M 77.678417,862.4231 C 89.700927,861.69211 101.68986,860.47506 113.72691,859.97887 C 113.84446,862.65697 113.93042,865.34716 113.78856,868.04253 C 109.5824,868.20591 105.33989,868.19738 101.18388,868.92896 C 101.53738,881.04157 102.36622,893.14594 103.397,905.22217 C 100.24626,905.43828 97.062127,905.90505 93.919967,905.36728 C 93.698507,893.35385 92.188517,881.41385 91.446797,869.43638 C 87.067347,869.72704 82.706097,870.23095 78.321507,870.45507 C 77.863167,867.79654 77.732427,865.10253 77.678417,862.4231 z "
           style="fill:#ffffff;fill-rule:nonzero;stroke:none"
           id="path432" />
        <path
           d="M 703.83456,859.37243 C 707.07725,859.76601 710.70808,858.77855 713.6996,860.30208 C 719.70001,868.00621 722.5446,884.64314 729.55203,890.84313 C 730.15036,880.92084 730.86351,871.00655 731.38844,861.08484 C 734.3919,861.32448 737.4162,861.46753 740.40142,862.00069 C 739.38755,874.94883 738.36749,887.89037 737.46866,900.85019 C 737.21173,902.60158 737.68126,904.63127 736.51713,906.15248 C 733.63466,905.79465 730.74954,905.58886 727.86583,905.37601 C 722.68155,894.55047 717.3771,883.77338 711.92511,873.08319 C 711.18663,883.50829 710.40544,893.92595 709.52118,904.33951 C 706.54686,904.19066 703.57812,904.06813 700.61366,903.99202 C 701.68358,889.11901 702.89117,874.25646 703.83456,859.37243 z "
           style="fill:#ffffff;fill-rule:nonzero;stroke:none"
           id="path436" />
      </g>
    </g>
    <g
       id="g4685">
      <path
         d="M 592.7328,175.76787 C 609.87753,191.15604 629.9309,203.11158 646.07638,219.96317 C 665.02501,240.94702 672.3375,266.89816 673.5101,294.49996 C 649.17115,286.24204 620.95144,242.70762 610.29065,223.77187 C 605.2313,208.12954 592.35829,192.89052 592.7328,175.76787 z "
         style="fill:#008f3d;fill-rule:nonzero;stroke:none"
         id="path124" />
      <path
         d="M 679.48044,235.89525 C 713.2385,279.98128 723.563,311.79065 699.53155,363.24265 C 649.88794,355.06386 628.71483,301.00131 614.54306,258.95556 C 626.56698,292.0944 654.4138,309.78124 683.53346,326.76169 C 692.30446,295.57527 684.11009,265.1638 679.48044,235.89525 z "
         style="fill:#008f3d;fill-rule:nonzero;stroke:none"
         id="path132" />
      <path
         d="M 729.86432,298.7539 C 763.48309,356.0188 725.14117,400.05817 708.17656,452.56147 C 707.62059,452.50495 706.50865,452.39193 705.95266,452.33542 C 679.12937,411.39757 645.62849,378.96752 634.62993,328.81034 C 647.06534,354.92047 674.66171,382.66841 699.16093,398.64455 C 700.21673,399.22396 702.0195,400.03145 702.97017,398.86034 C 728.54722,367.04668 725.8,336.6497 729.86432,298.7539 z "
         style="fill:#008f3d;fill-rule:nonzero;stroke:none"
         id="path148" />
      <path
         d="M 762.88316,380.8931 C 776.65443,446.62056 738.08318,479.87764 711.3419,531.10105 C 709.92328,534.10805 708.28949,537.14591 708.23881,540.56475 C 707.69421,540.4823 706.60499,540.31743 706.06039,540.23499 C 680.74834,491.37109 656.51733,447.52876 644.47746,392.78345 C 648.63239,403.29412 698.57412,484.4268 708.60331,481.13648 C 738.57184,452.06323 750.18783,419.61957 762.88316,380.8931 z "
         style="fill:#008f3d;fill-rule:nonzero;stroke:none"
         id="path156" />
      <path
         d="M 776.70253,459.28852 C 778.09605,454.94652 778.18348,450.33176 778.61815,445.83036 C 785.617,509.99279 757.0308,555.55701 717.88614,601.71654 C 712.77893,608.52975 704.3466,614.72904 702.21492,623.37232 C 701.89706,623.30776 701.26135,623.17865 700.94349,623.11409 C 696.26785,605.60585 687.90375,589.01414 680.02478,572.70635 C 663.97579,543.18764 654.86427,512.35254 654.72061,478.72382 C 664.85473,502.05941 677.22563,522.78018 690.9342,544.63941 C 695.55395,548.67908 702.08496,568.69985 707.26321,569.60044 C 713.19212,557.87053 722.77356,548.65709 730.7671,538.38158 C 750.5454,514.9831 766.86116,488.37303 776.70253,459.28852 z "
         style="fill:#008f3d;fill-rule:nonzero;stroke:none"
         id="path160" />
      <path
         d="M 782.90849,525.2265 L 784.4051,524.8013 C 784.37423,537.55184 782.56204,550.18459 781.40234,562.86336 C 776.88965,603.41 755.86062,632.48462 730.34004,662.12984 C 725.04228,668.31447 718.9886,673.78061 712.81715,679.06107 C 693.99794,680.30354 686.07683,684.48723 680.86999,665.68567 C 674.4107,638.60863 655.08892,616.47348 649.9882,588.93634 C 647.77972,572.81386 650.77743,556.66648 652.16339,540.62279 C 662.72867,579.41571 681.0866,616.12955 696.47001,653.42185 C 719.80242,626.35871 745.46682,601.43986 764.46129,570.97281 C 772.14126,556.42134 780.02482,541.60981 782.90849,525.2265 z "
         style="fill:#008f3d;fill-rule:nonzero;stroke:none"
         id="path176" />
      <path
         d="M 635.15776,602.66155 C 639.82994,629.43599 651.00037,654.05912 661.61467,678.78084 C 651.11226,678.42011 640.73805,677.05839 630.25853,676.24956 C 630.11023,651.33127 629.14734,627.12267 635.15776,602.66155 z "
         style="fill:#008f3d;fill-rule:nonzero;stroke:none"
         id="path188" />
      <path
         d="M 779.64702,623.67827 C 775.5757,640.08071 772.82734,656.08396 771.27624,672.95341 C 760.46382,674.98257 749.94682,675.78531 739.28309,677.00307 C 753.82206,660.68835 771.42271,644.45564 779.64702,623.67827 z "
         style="fill:#008f3d;fill-rule:nonzero;stroke:none"
         id="path196" />
      <path
         d="M 615.33882,653.75103 C 617.82329,660.84398 619.21536,668.2506 620.49917,675.64072 C 613.39566,675.15633 606.26143,675.45841 599.15022,675.38338 C 603.20676,668.71095 607.31798,656.77916 615.33882,653.75103 z "
         style="fill:#008f3d;fill-rule:nonzero;stroke:none"
         id="path220" />
      <path
         d="M 759.61299,716.41042 C 756.79867,727.35167 754.2834,739.37529 749.39142,749.63451 C 746.12983,745.9884 729.50179,739.08307 731.64831,732.69013 C 739.96431,726.16397 750.2957,721.46573 759.61299,716.41042 z "
         style="fill:#008f3d;fill-rule:nonzero;stroke:none"
         id="path268" />
      <path
         d="M 592.35301,771.04586 C 603.03402,771.33449 613.65086,772.69333 624.23068,774.23284 C 624.96933,782.84381 626.30825,791.46671 628.60162,799.80893 C 639.30565,795.84537 647.60576,778.9427 659.27019,778.51748 C 677.09923,781.38886 695.04056,783.63047 712.92749,786.18343 C 697.82057,801.78982 676.30897,811.47418 656.76629,820.75199 C 639.13513,818.8461 621.44203,817.34148 603.90727,814.59507 C 597.1316,800.93489 592.80412,786.32478 592.35301,771.04586 z "
         style="fill:#008f3d;fill-rule:nonzero;stroke:none"
         id="path324" />
      <path
         d="M 733.00755,794.80106 C 731.37294,808.13074 722.00458,819.00595 711.662,826.83849 C 701.43969,826.05671 692.32866,824.7756 681.6561,823.91543 C 702.26038,820.45925 715.80178,804.8346 733.00755,794.80106 z "
         style="fill:#008f3d;fill-rule:nonzero;stroke:none"
         id="path348" />
      <path
         d="M 523.5,786.9 C 521.22556,788.99497 518.51294,790.84066 517.1,793.675 C 515.71721,798.00302 512.08451,800.98864 508.625,803.67504 C 506.31722,805.31144 505.00206,807.87216 503.25,810.02496 C 502.02074,811.65264 500.38666,813.17504 500.25,815.35 C 506.98105,814.8908 513.71843,814.38408 520.45,813.92496 C 521.37078,807.94504 521.5193,801.85531 522.075,795.825 C 522.44857,792.82522 523.29448,789.9129 523.5,786.9 z "
         style="fill:#008f3d;fill-rule:nonzero;stroke:none"
         id="path304" />
      <path
         d="M 544.925,769.175 L 540.325,812.75 C 552.4284,812.17144 564.56138,811.9252 576.7,812.42496 C 571.95529,798.21223 564.55982,784.43911 561.9,769.625 C 556.28973,768.70024 550.5741,769.48624 544.925,769.175 z "
         style="fill:#008f3d;fill-rule:nonzero;stroke:none"
         id="path4683" />
    </g>
    <g
       transform="matrix(-1,0,0,1,779.3459,0)"
       id="g4720">
      <path
         d="M 592.7328,175.76787 C 609.87753,191.15604 629.9309,203.11158 646.07638,219.96317 C 665.02501,240.94702 672.3375,266.89816 673.5101,294.49996 C 649.17115,286.24204 620.95144,242.70762 610.29065,223.77187 C 605.2313,208.12954 592.35829,192.89052 592.7328,175.76787 z "
         style="fill:#008f3d;fill-rule:nonzero;stroke:none"
         id="path4722" />
      <path
         d="M 679.48044,235.89525 C 713.2385,279.98128 723.563,311.79065 699.53155,363.24265 C 649.88794,355.06386 628.71483,301.00131 614.54306,258.95556 C 626.56698,292.0944 654.4138,309.78124 683.53346,326.76169 C 692.30446,295.57527 684.11009,265.1638 679.48044,235.89525 z "
         style="fill:#008f3d;fill-rule:nonzero;stroke:none"
         id="path4724" />
      <path
         d="M 729.86432,298.7539 C 763.48309,356.0188 725.14117,400.05817 708.17656,452.56147 C 707.62059,452.50495 706.50865,452.39193 705.95266,452.33542 C 679.12937,411.39757 645.62849,378.96752 634.62993,328.81034 C 647.06534,354.92047 674.66171,382.66841 699.16093,398.64455 C 700.21673,399.22396 702.0195,400.03145 702.97017,398.86034 C 728.54722,367.04668 725.8,336.6497 729.86432,298.7539 z "
         style="fill:#008f3d;fill-rule:nonzero;stroke:none"
         id="path4726" />
      <path
         d="M 762.88316,380.8931 C 776.65443,446.62056 738.08318,479.87764 711.3419,531.10105 C 709.92328,534.10805 708.28949,537.14591 708.23881,540.56475 C 707.69421,540.4823 706.60499,540.31743 706.06039,540.23499 C 680.74834,491.37109 656.51733,447.52876 644.47746,392.78345 C 648.63239,403.29412 698.57412,484.4268 708.60331,481.13648 C 738.57184,452.06323 750.18783,419.61957 762.88316,380.8931 z "
         style="fill:#008f3d;fill-rule:nonzero;stroke:none"
         id="path4728" />
      <path
         d="M 776.70253,459.28852 C 778.09605,454.94652 778.18348,450.33176 778.61815,445.83036 C 785.617,509.99279 757.0308,555.55701 717.88614,601.71654 C 712.77893,608.52975 704.3466,614.72904 702.21492,623.37232 C 701.89706,623.30776 701.26135,623.17865 700.94349,623.11409 C 696.26785,605.60585 687.90375,589.01414 680.02478,572.70635 C 663.97579,543.18764 654.86427,512.35254 654.72061,478.72382 C 664.85473,502.05941 677.22563,522.78018 690.9342,544.63941 C 695.55395,548.67908 702.08496,568.69985 707.26321,569.60044 C 713.19212,557.87053 722.77356,548.65709 730.7671,538.38158 C 750.5454,514.9831 766.86116,488.37303 776.70253,459.28852 z "
         style="fill:#008f3d;fill-rule:nonzero;stroke:none"
         id="path4730" />
      <path
         d="M 782.90849,525.2265 L 784.4051,524.8013 C 784.37423,537.55184 782.56204,550.18459 781.40234,562.86336 C 776.88965,603.41 755.86062,632.48462 730.34004,662.12984 C 725.04228,668.31447 718.9886,673.78061 712.81715,679.06107 C 693.99794,680.30354 686.07683,684.48723 680.86999,665.68567 C 674.4107,638.60863 655.08892,616.47348 649.9882,588.93634 C 647.77972,572.81386 650.77743,556.66648 652.16339,540.62279 C 662.72867,579.41571 681.0866,616.12955 696.47001,653.42185 C 719.80242,626.35871 745.46682,601.43986 764.46129,570.97281 C 772.14126,556.42134 780.02482,541.60981 782.90849,525.2265 z "
         style="fill:#008f3d;fill-rule:nonzero;stroke:none"
         id="path4732" />
      <path
         d="M 635.15776,602.66155 C 639.82994,629.43599 651.00037,654.05912 661.61467,678.78084 C 651.11226,678.42011 640.73805,677.05839 630.25853,676.24956 C 630.11023,651.33127 629.14734,627.12267 635.15776,602.66155 z "
         style="fill:#008f3d;fill-rule:nonzero;stroke:none"
         id="path4734" />
      <path
         d="M 779.64702,623.67827 C 775.5757,640.08071 772.82734,656.08396 771.27624,672.95341 C 760.46382,674.98257 749.94682,675.78531 739.28309,677.00307 C 753.82206,660.68835 771.42271,644.45564 779.64702,623.67827 z "
         style="fill:#008f3d;fill-rule:nonzero;stroke:none"
         id="path4736" />
      <path
         d="M 615.33882,653.75103 C 617.82329,660.84398 619.21536,668.2506 620.49917,675.64072 C 613.39566,675.15633 606.26143,675.45841 599.15022,675.38338 C 603.20676,668.71095 607.31798,656.77916 615.33882,653.75103 z "
         style="fill:#008f3d;fill-rule:nonzero;stroke:none"
         id="path4738" />
      <path
         d="M 759.61299,716.41042 C 756.79867,727.35167 754.2834,739.37529 749.39142,749.63451 C 746.12983,745.9884 729.50179,739.08307 731.64831,732.69013 C 739.96431,726.16397 750.2957,721.46573 759.61299,716.41042 z "
         style="fill:#008f3d;fill-rule:nonzero;stroke:none"
         id="path4740" />
      <path
         d="M 592.35301,771.04586 C 603.03402,771.33449 613.65086,772.69333 624.23068,774.23284 C 624.96933,782.84381 626.30825,791.46671 628.60162,799.80893 C 639.30565,795.84537 647.60576,778.9427 659.27019,778.51748 C 677.09923,781.38886 695.04056,783.63047 712.92749,786.18343 C 697.82057,801.78982 676.30897,811.47418 656.76629,820.75199 C 639.13513,818.8461 621.44203,817.34148 603.90727,814.59507 C 597.1316,800.93489 592.80412,786.32478 592.35301,771.04586 z "
         style="fill:#008f3d;fill-rule:nonzero;stroke:none"
         id="path4742" />
      <path
         d="M 733.00755,794.80106 C 731.37294,808.13074 722.00458,819.00595 711.662,826.83849 C 701.43969,826.05671 692.32866,824.7756 681.6561,823.91543 C 702.26038,820.45925 715.80178,804.8346 733.00755,794.80106 z "
         style="fill:#008f3d;fill-rule:nonzero;stroke:none"
         id="path4744" />
      <path
         d="M 523.5,786.9 C 521.22556,788.99497 518.51294,790.84066 517.1,793.675 C 515.71721,798.00302 512.08451,800.98864 508.625,803.67504 C 506.31722,805.31144 505.00206,807.87216 503.25,810.02496 C 502.02074,811.65264 500.38666,813.17504 500.25,815.35 C 506.98105,814.8908 513.71843,814.38408 520.45,813.92496 C 521.37078,807.94504 521.5193,801.85531 522.075,795.825 C 522.44857,792.82522 523.29448,789.9129 523.5,786.9 z "
         style="fill:#008f3d;fill-rule:nonzero;stroke:none"
         id="path4746" />
      <path
         d="M 544.925,769.175 L 540.325,812.75 C 552.4284,812.17144 564.56138,811.9252 576.7,812.42496 C 571.95529,798.21223 564.55982,784.43911 561.9,769.625 C 556.28973,768.70024 550.5741,769.48624 544.925,769.175 z "
         style="fill:#008f3d;fill-rule:nonzero;stroke:none"
         id="path4748" />
    </g>
    <g
       id="g4795">
      <path
         d="M 258.61473,771.43645 C 266.60424,773.6115 276.52234,781.81406 270.84416,790.63234 C 268.40701,792.70792 265.08522,793.26323 262.00159,793.68419 C 263.38438,798.01221 267.0304,800.98824 270.48993,803.67458 L 271.48782,804.39186 C 287.48288,797.01643 284.56877,780.89666 279.36731,767.26471 C 259.30669,745.46319 238.68008,724.69475 218.72769,702.19857 C 197.55184,679.65975 189.89775,674.03871 158.61301,675.64072 C 94.899166,681.43674 27.445607,684.37753 -32.79199,659.90941 C -43.3634,655.10749 -53.20821,648.79709 -63.944,644.37892 C -44.544522,689.51896 9.5407761,708.11981 47.46387,732.69013 C 38.10734,754.11134 2.6874602,760.34371 -17.00847,767.79999 C 8.2161916,782.14444 37.547171,786.52575 66.18469,786.18343 C 108.06285,780.33572 139.4742,773.37834 192.02687,770.33046"
         style="fill:#28146e;fill-rule:nonzero;stroke:none"
         id="path200" />
      <g
         id="g2665">
        <path
           d="M 197.33824,707.42746 C 199.13031,707.48731 200.92679,707.49843 202.72632,707.49732 C 203.2604,717.13567 203.39081,726.79012 203.84814,736.43877 C 201.72273,736.59282 199.59337,736.60428 197.46934,736.54435 C 193.23617,729.73539 189.35156,722.70488 184.84118,716.07726 C 184.80279,723.08461 185.74434,730.06519 185.78051,737.0862 C 184.02488,737.10389 182.27351,737.16782 180.52638,737.27802 C 179.73614,735.91764 179.82963,734.32908 179.79834,732.83832 C 179.72836,724.58132 179.17192,716.33767 179.19664,708.08313 C 181.29173,708.05794 183.38965,708.06911 185.48944,708.12892 C 189.45932,714.78927 193.45334,721.4632 197.83111,727.86518 C 197.89013,722.46853 197.40243,717.08924 197.24708,711.70356 C 197.26303,710.27219 196.5888,708.75837 197.33824,707.42746 z "
           style="fill:#ffffff;fill-rule:nonzero;stroke:none"
           id="path224" />
        <path
           d="M 201.4375,886.40625 C 199.97819,886.41014 198.52035,886.44631 197.0625,886.46875 C 193.6843,898.82068 189.41306,910.90624 186.21875,923.3125 C 188.8313,923.29691 191.48008,923.26693 194.09375,923.09375 C 194.53001,920.48581 195.22212,917.93136 195.9375,915.40625 C 200.64385,915.20648 205.34745,915.0053 210.0625,915.09375 C 210.51942,917.41392 211.08758,919.69997 211.71875,922 C 214.52715,922.02536 217.34338,921.99862 220.15625,921.90625 C 215.57484,909.99933 210.56807,898.27315 205.8125,886.4375 C 204.35189,886.42962 202.89681,886.40236 201.4375,886.40625 z M 201,894.875 C 203.71926,899.19769 205.06436,904.26526 207.125,908.9375 C 204.06091,909.17938 201.00661,909.35271 197.9375,909.40625 C 198.78423,904.52262 200.07024,899.7338 201,894.875 z "
           transform="scale(0.8,0.8)"
           style="fill:#ffffff;fill-rule:nonzero;stroke:none"
           id="path232" />
        <path
           d="M 136.59674,710.21209 C 138.53521,710.1998 140.47523,710.20299 142.41852,710.22576 C 142.92114,717.09281 143.39372,723.96386 143.95746,730.82851 C 144.8724,734.74457 142.45036,739.30849 138.41642,740.26029 C 135.27923,740.94907 131.52841,741.15879 128.88307,739.02013 C 126.02629,736.60973 125.82919,732.61947 125.11348,729.23073 C 126.90211,729.08796 128.74116,729.07476 130.43731,728.4021 C 132.09573,730.37374 130.67079,733.40284 132.55729,735.43122 C 134.2156,735.44492 135.87724,735.38636 137.5316,735.21784 C 138.65326,726.91396 136.87542,718.52919 136.59674,710.21209 z "
           style="fill:#ffffff;fill-rule:nonzero;stroke:none"
           id="path236" />
        <path
           d="M 114.59375,892.875 C 111.65372,892.94782 108.74511,894.16819 107.1875,896.75 C 104.70144,900.32371 105.11209,906.02212 108.625,908.8125 C 111.98111,911.48715 116.56985,910.23615 120.25,909 C 124.29447,904.7899 124.16951,897.70439 119.65625,893.9375 C 118.1439,893.19803 116.35777,892.83131 114.59375,892.875 z M 115.0625,896.71875 C 115.40151,896.74722 115.74732,896.80777 116.125,896.90625 C 118.48361,898.99516 118.71508,902.15449 117.84375,905.03125 C 116.56031,906.79766 114.27442,906.22058 112.40625,906.53125 C 109.24027,903.36326 109.97739,896.29166 115.0625,896.71875 z "
           transform="scale(0.8,0.8)"
           style="fill:#ffffff;fill-rule:nonzero;stroke:none"
           id="path252" />
        <path
           d="M 71.855527,719.3615 C 73.228447,718.69202 74.712947,718.34975 76.221167,718.17113 C 77.956627,727.57334 79.476847,737.03727 81.573067,746.36556 C 79.711677,747.27675 77.635037,747.4 75.607017,747.58243 C 74.486227,741.17298 72.968347,734.83376 72.165297,728.37558 C 69.959817,728.25838 67.802237,728.74385 65.682257,729.28852 C 65.290237,728.03363 64.909437,726.78602 64.539877,725.54569 C 68.014287,725.42574 72.180647,723.42968 71.855527,719.3615 z "
           style="fill:#ffffff;fill-rule:nonzero;stroke:none"
           id="path280" />
        <path
           d="M 86.649517,731.40999 C 90.825477,730.86144 94.935767,729.56513 99.138757,729.45321 C 99.208537,730.16326 99.348127,731.58335 99.417907,732.2934 C 95.459377,733.22673 91.425437,733.76778 87.422067,734.46497 C 87.228937,733.70122 86.842657,732.17374 86.649517,731.40999 z "
           style="fill:#ffffff;fill-rule:nonzero;stroke:none"
           id="path292" />
      </g>
    </g>
    <g
       id="g4805">
      <path
         d="M 520.49745,771.43645 C 515.39674,772.88271 510.29361,775.76587 507.80775,780.6454 C 503.83422,788.87769 509.7997,792.59022 517.11059,793.68419 C 515.7278,798.01221 512.08178,800.98824 508.62225,803.67458 L 507.62436,804.39186 C 480.96549,790.00012 501.57552,763.00268 517.10588,748.9172 C 533.46347,735.22567 545.99511,717.79732 560.38449,702.19857 C 581.56034,679.65975 589.21443,674.03871 620.49917,675.64072 C 684.21301,681.43674 751.66657,684.37753 811.90417,659.90941 C 822.47558,655.10749 832.32039,648.79709 843.05618,644.37892 C 823.6567,689.51896 769.5714,708.11981 731.64831,732.69013 C 741.00484,754.11134 776.42472,760.34371 796.12065,767.79999 C 770.89599,782.14444 741.56501,786.52575 712.92749,786.18343 C 671.04933,780.33572 629.21843,774.13018 587.08531,770.33046"
         style="fill:#28146e;fill-rule:nonzero;stroke:none"
         id="path4772" />
      <g
         id="g2673">
        <path
           d="M 608.67883,707.48116 C 610.26558,707.59764 612.01721,707.41724 613.40791,708.40506 C 612.89036,717.73581 612.58018,727.07408 612.40223,736.42281 C 610.42816,736.50121 608.46266,736.52463 606.50332,736.47254 C 606.69049,729.99855 607.27227,723.55339 607.55661,717.08913 C 605.14795,716.55593 602.68255,716.49419 600.23922,716.42162 C 600.3542,715.04245 600.48059,713.67638 600.6186,712.32386 C 602.8807,712.42131 605.08267,711.99575 607.11877,710.97927 C 607.68869,709.83129 608.24064,708.67641 608.67883,707.48116 z "
           style="fill:#ffffff;fill-rule:nonzero;stroke:none"
           id="path228" />
        <path
           d="M 785.53125,892.875 C 784.2309,897.81266 783.56893,904.42729 788,908.03125 C 791.61345,911.93445 797.66502,910.9894 801.96875,908.84375 C 801.8479,913.77535 798.01742,919.83463 792.34375,917.65625 C 791.88051,916.43068 791.44348,915.19775 791,914 C 788.79304,913.83369 786.59629,913.75053 784.40625,913.78125 C 784.29816,922.43129 795.54476,925.73634 802,921.78125 C 807.11685,917.82911 808.06724,910.86341 809.125,904.90625 C 808.99985,899.70108 808.91104,893.71736 805.34375,889.5625 C 800.00512,885.18923 788.18232,885.40138 785.53125,892.875 z M 799.71875,904.4375 C 792.09124,906.51026 789.05635,900.04228 792.25,894.21875 C 799.24423,887.99051 805.80104,899.08197 799.71875,904.4375 z "
           transform="scale(0.8,0.8)"
           style="fill:#ffffff;fill-rule:nonzero;stroke:none"
           id="path240" />
        <path
           d="M 831.6875,890.09375 C 820.57486,891.41237 822.01504,904.44151 824.9375,906.75 C 818.51864,908.69243 817.41155,917.67444 821.46875,922.34375 C 824.8846,926.84182 831.15399,927.15791 836.3125,926.59375 C 840.01598,926.15865 841.90595,922.53278 843.59375,919.65625 C 845.5963,915.49705 843.73536,910.87245 841.1875,907.40625 C 844.20374,904.71198 845.80544,900.39214 844.40625,896.46875 C 841.79237,891.39804 838.09228,890.12283 831.6875,890.09375 z M 838.125,898.375 C 839.13352,900.48638 837.89225,904.19144 836,904.3125 C 824.64372,905.90301 829.48967,889.71628 838.125,898.375 z M 832.34375,909.21875 C 840.69028,911.51223 837.14011,924.47032 828.6875,920.0625 C 824.74687,916.5624 827.3104,909.93 832.34375,909.21875 z "
           transform="scale(0.8,0.8)"
           style="fill:#ffffff;fill-rule:nonzero;stroke:none"
           id="path244" />
        <path
           d="M 867,894.875 C 863.41048,895.09417 860.04065,896.81036 858.3125,900.28125 C 855.62907,903.99387 855.49679,908.85309 857,913.0625 C 859.64121,918.49451 867.46971,920.78066 872.5,917.28125 C 872.66333,921.24094 869.72854,926.67674 865.125,925.65625 C 863.06205,925.56225 862.35504,923.43814 861.5625,921.9375 C 859.16504,921.6798 856.76139,921.51883 854.375,921.53125 C 855.40588,925.35513 857.39898,929.46161 861.53125,930.65625 C 867.023,932.52588 875.72308,931.41322 877.1875,924.71875 C 879.44971,917.62791 882.1313,909.86232 879.75,902.46875 C 877.97585,897.39318 872.24622,894.55467 867,894.875 z M 873.0625,911.34375 C 865.75192,916.58969 860.26718,907.63916 864.9375,902.125 C 870.79474,897.57372 875.32888,904.72152 873.0625,911.34375 z "
           transform="scale(0.8,0.8)"
           style="fill:#ffffff;fill-rule:nonzero;stroke:none"
           id="path260" />
      </g>
    </g>
    <path
       d="M 625.6699,912.37446 C 628.32713,912.85436 630.99392,913.32383 633.62224,914.0047 C 632.62192,919.06693 630.19799,923.72162 626.72993,927.53472 C 619.87584,935.15672 611.31071,941.02922 602.61058,946.35152 C 575.6732,960.55192 545.28889,967.08492 515.06877,968.90912 C 503.38951,969.59412 491.71721,968.68092 480.04901,968.34672 C 468.57538,967.03562 457.29977,964.47492 445.99247,962.19902 C 432.61487,959.53962 418.61157,959.04932 405.35952,962.67762 C 405.54272,962.94132 405.9091,963.46882 406.0923,963.73252 C 426.11876,973.21732 444.00891,986.70302 460.53604,1001.3579 C 467.7335,1008.5103 476.39894,1014.4628 481.93792,1023.1052 C 480.88749,1023.317 478.78665,1023.7405 477.73622,1023.9523 C 478.87925,1024.4436 480.07696,1024.8025 481.35698,1024.8264 L 460.87129,1024.8264 C 457.00584,1023.8963 452.51776,1023.373 449.97601,1019.9233 C 445.60528,1013.9279 441.81514,1007.5053 437.11415,1001.7508 C 431.00638,993.85192 423.43051,987.19112 415.23932,981.53272 C 407.26895,976.34112 398.50648,972.57082 390.02015,968.34182 C 377.82284,973.63582 365.53973,979.40812 355.46266,988.26012 C 345.05313,996.65802 337.56215,1007.9163 330.27131,1018.9704 C 327.82695,1023.2805 322.46229,1023.9692 318.07058,1024.8264 L 307.85426,1024.8264 C 304.36641,1024.115 300.70591,1024.4621 297.38252,1023.011 C 300.89669,1017.665 305.77781,1013.5112 310.47055,1009.2563 C 323.03193,997.04352 336.71658,985.99852 351.23579,976.19662 C 358.58352,971.24622 366.62396,967.44642 374.09306,962.71602 C 360.36429,958.83472 345.78262,959.63092 331.94952,962.52302 C 321.36068,964.71892 310.75793,966.94302 300.02871,968.31512 C 286.36927,968.68672 272.6848,969.83292 259.0365,968.52282 C 230.49804,966.30492 201.96115,959.62362 176.53578,946.17372 C 167.69125,940.69862 158.93777,934.73052 152.11486,926.78162 C 149.21255,923.22682 146.5197,919.14411 146.24449,914.43056 C 148.76674,913.70932 151.3401,913.19995 153.92904,912.78893 C 163.90446,918.51285 174.23814,924.94412 186.09916,925.44842 C 199.41479,925.58632 212.73404,925.50472 226.0514,925.58362 C 239.35075,926.64992 252.73564,925.88202 266.03567,927.05242 C 281.76948,926.98542 297.43255,928.82452 312.93217,931.40982 C 337.81787,936.10812 362.49814,942.73942 385.53552,953.42092 C 387.78315,954.65552 390.53552,955.24952 392.8796,953.85892 C 405.66519,947.99092 418.89934,943.08092 432.46205,939.33712 C 458.67645,931.92042 485.79158,927.15022 513.08488,927.02592 C 526.36029,925.89542 539.72397,926.66042 553.00082,925.58262 C 566.33012,925.50832 579.66203,925.56122 592.99298,925.46952 C 605.0023,924.87572 615.84118,918.83342 625.6699,912.37446 z "
       style="fill:#008f3d;fill-rule:nonzero;stroke:none"
       id="path452" />
  </g>
</svg>
