<?xml version="1.0" encoding="UTF-8"?>
<!DOCTYPE svg PUBLIC "-//W3C//DTD SVG 1.1//EN" "http://www.w3.org/Graphics/SVG/1.1/DTD/svg11.dtd">
<!-- Creator: CorelDRAW -->
<svg xmlns="http://www.w3.org/2000/svg" xml:space="preserve" width="135mm" height="160mm" shape-rendering="geometricPrecision" text-rendering="geometricPrecision" image-rendering="optimizeQuality" fill-rule="evenodd" clip-rule="evenodd"
viewBox="0 0 1.35e+007 1.6e+007"
 xmlns:xlink="http://www.w3.org/1999/xlink"
 xmlns:svg="http://www.w3.org/2000/svg"
 version="1.0">
 <defs>
    <clipPath id="id0">
     <path d="M535910 1.31924e+007c2.30916e+006,-201570 5.33107e+006,1.61074e+006 6.21409e+006,2.30764e+006 883020,-696900 3.90493e+006,-2.50921e+006 6.21409e+006,-2.30764e+006 -4.78149e+006,-1.68946e+006 -5.37428e+006,-8.45811e+006 -6.21409e+006,-1.26924e+007 -839810,4.23425e+006 -1.4326e+006,1.10029e+007 -6.21409e+006,1.26924e+007z"/>
    </clipPath>
 </defs>
 <g id="Camada_x0020_1">
  <metadata id="CorelCorpID_0Corel-Layer"/>
  <g id="_45144112">
   <path id="_47626736" fill="white" d="M535910 1.31924e+007c2.30916e+006,-201570 5.33107e+006,1.61074e+006 6.21409e+006,2.30764e+006 883020,-696900 3.90493e+006,-2.50921e+006 6.21409e+006,-2.30764e+006 -4.78149e+006,-1.68946e+006 -5.37428e+006,-8.45811e+006 -6.21409e+006,-1.26924e+007 -839810,4.23425e+006 -1.4326e+006,1.10029e+007 -6.21409e+006,1.26924e+007z"/>
   <g clip-path="url(#id0)">
    <g>
     <rect id="_46723080" fill="#00923F" x="6.74996e+006" y="-309287" width="2.53472e+006" height="8.22911e+006"/>
     <rect id="_46794440" fill="#F8C300" x="4.21524e+006" y="-309287" width="2.53472e+006" height="8.22911e+006"/>
     <path id="_45230512" fill="#00923F" d="M6.74996e+006 1.55e+007l40 40c883020,-696900 3.90493e+006,-2.50921e+006 6.21409e+006,-2.30764e+006 -36970,-13070 -72940,-27330 -109420,-41000l-6.10471e+006 0 0 2.3486e+006z"/>
     <path id="_46618576" fill="#F8C300" d="M6.74996e+006 1.55e+007l-40 40c-883020,-696900 -3.90493e+006,-2.50921e+006 -6.21409e+006,-2.30764e+006 36970,-13070 72940,-27330 109420,-41000l6.10471e+006 0 0 2.3486e+006z"/>
     <g>
      <polygon id="_46033536" fill="#1F1A17" fill-rule="nonzero" points="-2.27282e+006,1.3116e+007 1.57728e+007,1.3116e+007 1.57728e+007,1.31867e+007 -2.27282e+006,1.31867e+007 "/>
     </g>
     <g>
      <polygon id="_45874816" fill="#1F1A17" fill-rule="nonzero" points="6.71466e+006,1.70228e+007 6.71466e+006,-1.02282e+006 6.78534e+006,-1.02282e+006 6.78534e+006,1.70228e+007 "/>
     </g>
     <g>
      <polygon fill="white" points="4.36392e+006,7.40144e+006 9.13605e+006,7.40144e+006 9.13605e+006,1.41123e+007 4.36392e+006,1.41123e+007 "/>
      <path id="1" fill="#1F1A17" fill-rule="nonzero" d="M9.17139e+006 7.40144e+006l-35340 29160 -4.77213e+006 0 0 -58320 4.77213e+006 0 35340 29160zm-35340 -29160l35330 0 10 29160 -35340 -29160zm0 6.76917e+006l-35340 -29160 0 -6.71085e+006 70680 0 0 6.71085e+006 -35340 29160zm35340 -29160l0 29160 -35340 0 35340 -29160zm-4.84281e+006 0l35340 -29160 4.77213e+006 0 0 58320 -4.77213e+006 0 -35340 -29160zm35340 29160l-35330 0 -10 -29160 35340 29160zm0 -6.76917e+006l35340 29160 0 6.71085e+006 -70680 0 0 -6.71085e+006 35340 -29160zm-35340 29160l0 -29160 35340 0 -35340 29160z"/>
     </g>
    </g>
   </g>
   <g>
    <path fill="#1F1A17" fill-rule="nonzero" d="M6.72819e+006 1.54724e+007l43620 55220 -43620 0 -88270 -67960 -100430 -74050 -112050 -79580 -123000 -84260 -133460 -88650 -143380 -92310 -152780 -95410 -161650 -98080 -170020 -99880 -177840 -101270 -185150 -102070 -191810 -102440 -198220 -101970 -203810 -101050 -209180 -99560 -213740 -97650 -217920 -94880 -221430 -91660 -224570 -87900 -227180 -83530 -229270 -78610 -230710 -73270 -231610 -67040 -232130 -60400 -232130 -53190 -231470 -45400 -230300 -37170 -228580 -28250 -226370 -18730 -223610 -8790 -220630 1870 -216540 13090 -6080 -70400 220420 -13090 223650 -1870 226930 8790 229410 19010 231340 28510 232780 37450 233690 45960 234050 53730 234070 60960 233550 67600 232350 73530 230650 79170 228560 84090 225950 88440 222830 92220 219020 95420 214840 97930 210000 100120 204930 101590 199040 102530 192910 102720 185990 102610 178660 101830 170840 100440 162490 98340 153600 95970 144220 92870 134280 89190 123840 85100 112870 80120 101530 74890 89650 69060 -43620 0zm43620 55220l-21810 17210 -21810 -17210 43620 0zm6.18055e+006 -2.30198e+006l23460 -66540 -14770 68470 -216540 -13090 -220630 -1870 -223610 8790 -226370 18730 -228580 28250 -230300 37170 -231470 45400 -232130 53190 -232130 60400 -231610 67040 -230710 73270 -229270 78610 -227180 83530 -224570 87900 -221430 91660 -217920 94880 -213740 97650 -209180 99560 -203810 101050 -198220 101970 -191810 102440 -185150 102070 -177840 101270 -170020 99880 -161650 98080 -152780 95410 -143380 92310 -133460 88650 -123000 84260 -112050 79580 -100430 74050 -88270 67960 -43620 -55220 89650 -69060 101530 -74890 112870 -80120 123840 -85100 134280 -89190 144220 -92870 153600 -95970 162490 -98340 170840 -100440 178660 -101830 185990 -102610 192910 -102720 199040 -102530 204930 -101590 210000 -100120 214840 -97930 219020 -95420 222830 -92220 225950 -88440 228560 -84090 230650 -79170 232350 -73530 233550 -67600 234070 -60960 234050 -53730 233690 -45960 232780 -37450 231340 -28510 229410 -19010 226930 -8790 223650 1870 220420 13090 -14770 68470zm23460 -66540l262210 92640 -276980 -24170 14770 -68470zm-6.19117e+006 -1.26523e+007l-69300 -13520 69300 0 78140 404420 77510 417750 77690 429810 78810 440340 80340 449620 83090 457350 86520 463840 90750 468800 95660 472340 101530 474660 108340 475560 115700 474940 123850 472930 133100 469650 142890 464840 153620 458790 165160 451190 177260 442200 190560 431970 204280 420180 219070 407020 234530 392590 250820 376620 267790 359420 285820 340670 304270 320660 323940 299420 344140 276480 365170 252570 387130 226990 410050 200170 433640 172060 -23460 66540 -438620 -174000 -414750 -202650 -391810 -229750 -369590 -255330 -348000 -279800 -327260 -302440 -307590 -323980 -288300 -343990 -270270 -362460 -252760 -379660 -236190 -395350 -220450 -409780 -205660 -422660 -191380 -434170 -178360 -444420 -165720 -453110 -154180 -460450 -143430 -466500 -133380 -471030 -124410 -474310 -115960 -476040 -108340 -476400 -101810 -475480 -95940 -473180 -90750 -469340 -86520 -464120 -83090 -457630 -80620 -449620 -78530 -440340 -77690 -429530 -77510 -417470 -78140 -403880 69300 0zm-69300 -13520l34640 -174700 34660 174700 -69300 0zm-6.18248e+006 1.26639e+007l6080 70400 -14770 -68470 433640 -172060 410050 -200170 387130 -226990 365170 -252570 344140 -276480 323940 -299420 304270 -320660 285820 -340670 267790 -359420 250820 -376620 234530 -392590 219070 -407020 204280 -420180 190560 -431970 177260 -442200 165160 -451190 153620 -458790 142890 -464840 133100 -469650 123850 -472930 115700 -474940 108340 -475560 101530 -474660 95660 -472340 90750 -468800 86520 -463840 83090 -457350 80340 -449620 78810 -440340 77690 -429810 77510 -417750 78140 -404420 69300 13520 -78140 403880 -77510 417470 -77690 429530 -78530 440340 -80620 449620 -83090 457630 -86520 464120 -90750 469340 -95940 473180 -101810 475480 -108340 476400 -115960 476040 -124410 474310 -133380 471030 -143430 466500 -154180 460450 -165720 453110 -178360 444420 -191380 434170 -205660 422660 -220450 409780 -236190 395350 -252760 379660 -270270 362460 -288300 343990 -307590 323980 -327260 302440 -348000 279800 -369590 255330 -391810 229750 -414750 202650 -438620 174000 -14770 -68470zm6080 70400l-276980 24170 262210 -92640 14770 68470z"/>
   </g>
   <polygon id="rect1291" fill="#00923F" stroke="#1F1A17" stroke-width="70710" points="5.08555e+006,1.31408e+007 8.41444e+006,1.31408e+007 8.41444e+006,8.64023e+006 5.08555e+006,8.64023e+006 "/>
   <g>
    <polygon id="path2859" fill="#F8C300" points="6.52071e+006,1.06612e+007 6.52071e+006,1.00103e+007 6.68121e+006,9.84984e+006 6.68121e+006,9.55187e+006 6.52071e+006,9.55187e+006 6.75e+006,9.32266e+006 6.97929e+006,9.55187e+006 6.81879e+006,9.55187e+006 6.81879e+006,9.84984e+006 6.97929e+006,1.00103e+007 6.97929e+006,1.06612e+007 6.75e+006,1.0432e+007 "/>
    <polygon id="path3619" fill="#F8C300" points="6.52071e+006,1.11198e+007 5.86976e+006,1.11198e+007 5.70931e+006,1.09593e+007 5.41134e+006,1.09593e+007 5.41134e+006,1.11198e+007 5.18213e+006,1.08905e+007 5.41134e+006,1.06612e+007 5.41134e+006,1.08217e+007 5.70931e+006,1.08217e+007 5.86976e+006,1.06612e+007 6.52071e+006,1.06612e+007 6.2915e+006,1.08905e+007 "/>
    <polygon id="path3621" fill="#F8C300" points="6.97929e+006,1.06612e+007 7.63025e+006,1.06612e+007 7.79069e+006,1.08217e+007 8.08866e+006,1.08217e+007 8.08866e+006,1.06612e+007 8.31787e+006,1.08905e+007 8.08866e+006,1.11198e+007 8.08866e+006,1.09593e+007 7.79069e+006,1.09593e+007 7.63025e+006,1.11198e+007 6.97929e+006,1.11198e+007 7.2085e+006,1.08905e+007 "/>
    <polygon id="path3623" fill="#F8C300" points="6.97929e+006,1.11198e+007 6.97929e+006,1.17708e+007 6.81879e+006,1.19312e+007 6.81879e+006,1.22292e+007 6.97929e+006,1.22292e+007 6.75e+006,1.24584e+007 6.52071e+006,1.22292e+007 6.68121e+006,1.22292e+007 6.68121e+006,1.19312e+007 6.52071e+006,1.17708e+007 6.52071e+006,1.11198e+007 6.75e+006,1.1349e+007 "/>
   </g>
   <g>
    <polygon fill="#F8C300" stroke="#1F1A17" stroke-width="71000" points="5.64408e+006,7.6798e+006 6.00829e+006,7.6798e+006 6.00829e+006,8.27241e+006 5.64408e+006,8.27241e+006 "/>
    <polygon fill="#F8C300" stroke="#1F1A17" stroke-width="71000" points="7.8559e+006,7.6798e+006 7.49169e+006,7.6798e+006 7.49169e+006,8.27241e+006 7.8559e+006,8.27241e+006 "/>
    <polygon fill="#F8C300" stroke="#1F1A17" stroke-width="70770" points="6.36871e+006,7.6798e+006 7.08578e+006,7.6798e+006 7.08578e+006,8.27241e+006 6.36871e+006,8.27241e+006 "/>
    <g>
     <polygon fill="#F8C300" points="5.56442e+006,8.11649e+006 7.79903e+006,8.11649e+006 7.79903e+006,8.62189e+006 5.56442e+006,8.62189e+006 "/>
     <path id="1" fill="#1F1A17" fill-rule="nonzero" d="M7.8339e+006 8.11649e+006l-34870 35220 -2.23461e+006 0 0 -70440 2.23461e+006 0 34870 35220zm-34870 -35220l34870 0 0 35220 -34870 -35220zm0 575840l-34870 -35220 0 -505400 69740 0 0 505400 -34870 35220zm34870 -35220l0 35220 -34870 0 34870 -35220zm-2.30435e+006 0l34870 -35220 2.23461e+006 0 0 70440 -2.23461e+006 0 -34870 -35220zm34870 35220l-34870 0 0 -35220 34870 35220zm0 -575840l34870 35220 0 505400 -69740 0 0 -505400 34870 -35220zm-34870 35220l0 -35220 34870 0 -34870 35220z"/>
    </g>
    <g>
     <polygon fill="#F8C300" points="5.28602e+006,8.32137e+006 5.51937e+006,8.13555e+006 5.51903e+006,7.94573e+006 5.80678e+006,7.94573e+006 5.80678e+006,8.56041e+006 5.28602e+006,8.56041e+006 "/>
     <path id="1" fill="#1F1A17" fill-rule="nonzero" d="M5.55459e+006 8.13555e+006l-13260 27630 -233350 185820 -43920 -55260 233350 -185820 57180 27630zm0 0l30 17040 -13290 10590 13260 -27630zm-35560 -225180l35220 35360 340 189820 -70440 0 -340 -189820 35220 -35360zm-35220 35360l-60 -35360 35280 0 -35220 35360zm358330 0l-35360 35360 -287750 0 0 -70720 287750 0 35360 35360zm-35360 -35360l35350 0 10 35360 -35360 -35360zm0 685400l-35360 -35360 0 -614680 70720 0 0 614680 -35360 35360zm35360 -35360l0 35360 -35360 0 35360 -35360zm-591480 0l35360 -35360 520760 0 0 70720 -520760 0 -35360 -35360zm35360 35360l-35360 0 0 -35360 35360 35360zm-21960 -302030l57320 27630 0 239040 -70720 0 0 -239040 13400 -27630zm-13400 27630l0 -16950 13400 -10680 -13400 27630z"/>
    </g>
    <polygon fill="#F8C300" stroke="#1F1A17" stroke-width="71070" points="5.20918e+006,8.5348e+006 5.87508e+006,8.5348e+006 5.87508e+006,8.62017e+006 5.20918e+006,8.62017e+006 "/>
    <polygon fill="#F8C300" stroke="#1F1A17" stroke-width="70720" points="6.20937e+006,7.94573e+006 6.66084e+006,7.94573e+006 6.66084e+006,8.53834e+006 6.20937e+006,8.53834e+006 "/>
    <g>
     <polygon fill="#F8C300" points="6.20937e+006,8.31784e+006 6.66084e+006,8.31784e+006 6.66084e+006,8.53834e+006 6.20937e+006,8.53834e+006 "/>
     <path id="1" fill="#1F1A17" fill-rule="nonzero" d="M6.69585e+006 8.31784e+006l-35010 35360 -451470 0 0 -70720 451470 0 35010 35360zm-35010 -35360l35010 0 0 35360 -35010 -35360zm0 291220l-35010 -35360 0 -220500 70020 0 0 220500 -35010 35360zm35010 -35360l0 35360 -35010 0 35010 -35360zm-521490 0l35010 -35360 451470 0 0 70720 -451470 0 -35010 -35360zm35010 35360l-35010 0 0 -35360 35010 35360zm0 -291220l35010 35360 0 220500 -70020 0 0 -220500 35010 -35360zm-35010 35360l0 -35360 35010 0 -35010 35360z"/>
    </g>
    <g>
     <polygon fill="#F8C300" points="8.21396e+006,8.32137e+006 7.98061e+006,8.13555e+006 7.98095e+006,7.94573e+006 7.6932e+006,7.94573e+006 7.6932e+006,8.56041e+006 8.21396e+006,8.56041e+006 "/>
     <path id="1" fill="#1F1A17" fill-rule="nonzero" d="M7.94539e+006 8.13555e+006l57180 -27630 233350 185820 -43920 55260 -233350 -185820 -13260 -27630zm13260 27630l-13290 -10580 30 -17050 13260 27630zm22300 -252810l35220 35360 -340 189820 -70440 0 340 -189820 35220 -35360zm0 0l35280 0 -60 35360 -35220 -35360zm-323110 35360l35360 -35360 287750 0 0 70720 -287750 0 -35360 -35360zm0 0l0 -35350 35360 -10 -35360 35360zm35360 650040l-35360 -35360 0 -614680 70720 0 0 614680 -35360 35360zm0 0l-35360 0 0 -35360 35360 35360zm556120 -35360l-35360 35360 -520760 0 0 -70720 520760 0 35360 35360zm0 0l0 35360 -35360 0 35360 -35360zm-13400 -266670l13400 27630 0 239040 -70720 0 0 -239040 57320 -27630zm0 0l13400 10670 0 16960 -13400 -27630z"/>
    </g>
    <polygon fill="#F8C300" stroke="#1F1A17" stroke-width="71070" points="8.2908e+006,8.5348e+006 7.6249e+006,8.5348e+006 7.6249e+006,8.62017e+006 8.2908e+006,8.62017e+006 "/>
    <polygon fill="#F8C300" stroke="#1F1A17" stroke-width="70720" points="7.29061e+006,7.94573e+006 6.83914e+006,7.94573e+006 6.83914e+006,8.53834e+006 7.29061e+006,8.53834e+006 "/>
    <g>
     <polygon fill="#F8C300" points="7.29061e+006,8.31784e+006 6.83914e+006,8.31784e+006 6.83914e+006,8.53834e+006 7.29061e+006,8.53834e+006 "/>
     <path id="1" fill="#1F1A17" fill-rule="nonzero" d="M6.80413e+006 8.31784e+006l35010 -35360 451470 0 0 70720 -451470 0 -35010 -35360zm0 0l0 -35360 35010 0 -35010 35360zm35010 255860l-35010 -35360 0 -220500 70020 0 0 220500 -35010 35360zm0 0l-35010 0 0 -35360 35010 35360zm486480 -35360l-35010 35360 -451470 0 0 -70720 451470 0 35010 35360zm0 0l0 35360 -35010 0 35010 -35360zm-35010 -255860l35010 35360 0 220500 -70020 0 0 -220500 35010 -35360zm0 0l35010 0 0 35360 -35010 -35360z"/>
    </g>
    <polygon fill="#F8C300" stroke="#1F1A17" stroke-width="70720" points="6.14627e+006,8.5348e+006 7.37409e+006,8.5348e+006 7.37409e+006,8.62017e+006 6.14627e+006,8.62017e+006 "/>
   </g>
   <path fill="#1F1A17" fill-rule="nonzero" d="M4.71276e+006 1.38383e+007l-136730 -429950 50440 0 91810 312330c7090,24230 13200,47740 18510,70360 5510,-23600 11710,-47030 18720,-70360l95390 -312330 47460 0 -137840 429950 -47760 0zm228440 0l0 -429950 254860 0 0 50770 -208300 0 0 131620 195090 0 0 50460 -195090 0 0 146360 216510 0 0 50740 -263070 0zm326040 0l0 -429950 47860 0 185290 337560 0 -337560 44630 0 0 429950 -47840 0 -185090 -337840 0 337840 -44850 0zm447260 0l0 -379180 -116140 0 0 -50770 279490 0 0 50770 -116720 0 0 379180 -46630 0zm311500 0l-136730 -429950 50440 0 91810 312330c7090,24230 13200,47740 18510,70360 5510,-23600 11710,-47030 18720,-70360l95390 -312330 47460 0 -137840 429950 -47760 0zm227240 0l0 -429950 156260 0c32740,0 56750,4010 72380,12030 15510,7990 28220,21420 38240,40040 10000,18720 14910,40340 14910,64970 0,32430 -8420,58760 -25330,78880 -16920,20120 -41550,32920 -73770,38440 13100,7790 23130,15710 29920,23720 13930,16420 26130,34730 36650,54850l61570 117020 -58660 0 -46860 -89500c-18210,-34930 -31940,-58560 -41240,-70660 -9320,-12110 -18320,-20220 -26930,-24430 -8700,-4210 -20930,-6290 -36540,-6290l-53940 0 0 190880 -46660 0zm46660 -240140l100300 0c21820,0 38430,-2710 49840,-8020 11320,-5190 20320,-13510 26930,-24910 6710,-11320 10000,-24530 10000,-39540 0,-21720 -6390,-38740 -19120,-51160 -12600,-12410 -31520,-18620 -56550,-18620l-111400 0 0 142250zm317910 240140l0 -429950 46640 0 0 429950 -46640 0zm112310 -138140l43950 -4710c2400,23730 7690,42150 16010,55250 8300,13230 20120,23830 35630,31850 15410,7990 32830,12000 52170,12000 27810,0 49340,-6690 64650,-20320 15430,-13610 23020,-31220 23020,-52950 0,-12720 -2800,-23820 -8290,-33220 -5610,-9520 -14030,-17340 -25230,-23330 -11330,-6110 -35540,-14630 -72890,-25530 -33230,-9820 -56960,-19720 -70960,-29640 -14110,-10000 -25030,-22610 -32830,-38040 -7920,-15310 -11820,-32620 -11820,-52040 0,-34730 11320,-63170 33740,-85290 22510,-22130 52850,-33130 90990,-33130 26130,0 49060,5210 68780,15510 19620,10420 34830,25230 45730,44550 10820,19420 16610,42150 17410,68360l-44830 4110c-2400,-27920 -10720,-48640 -25130,-62170 -14310,-13510 -34530,-20220 -60560,-20220 -26330,0 -46550,5910 -60360,17720 -13910,11820 -20820,27130 -20820,45950 0,17310 5010,30840 15210,40440 10220,9620 33040,19220 68680,29040 34730,9600 59150,17910 73260,24910 21530,10920 37740,25330 48660,43250 11000,17910 16410,39230 16410,64060 0,24630 -5710,47060 -17210,67380 -11620,20220 -27240,35530 -47160,46130 -19820,10520 -43740,15830 -71660,15830 -43650,0 -78380,-13120 -104310,-39230 -25830,-26240 -39340,-61770 -40240,-106520zm582090 138140l-136730 -429950 50440 0 91800 312330c7100,24230 13210,47740 18520,70360 5510,-23600 11700,-47030 18720,-70360l95390 -312330 47450 0 -137830 429950 -47760 0zm228440 0l0 -429950 254850 0 0 50770 -208300 0 0 131620 195100 0 0 50460 -195100 0 0 146360 216520 0 0 50740 -263070 0zm326040 0l0 -429950 47850 0 185290 337560 0 -337560 44630 0 0 429950 -47830 0 -185090 -337840 0 337840 -44850 0zm447250 0l0 -379180 -116130 0 0 -50770 279480 0 0 50770 -116710 0 0 379180 -46640 0zm219430 0l0 -429950 46630 0 0 429950 -46630 0zm112300 -138140l43950 -4710c2400,23730 7700,42150 16010,55250 8300,13230 20120,23830 35630,31850 15410,7990 32830,12000 52170,12000 27810,0 49340,-6690 64650,-20320 15430,-13610 23020,-31220 23020,-52950 0,-12720 -2800,-23820 -8290,-33220 -5610,-9520 -14030,-17340 -25230,-23330 -11330,-6110 -35530,-14630 -72890,-25530 -33230,-9820 -56950,-19720 -70960,-29640 -14110,-10000 -25030,-22610 -32830,-38040 -7910,-15310 -11820,-32620 -11820,-52040 0,-34730 11320,-63170 33750,-85290 22500,-22130 52840,-33130 90980,-33130 26130,0 49060,5210 68780,15510 19620,10420 34830,25230 45730,44550 10820,19420 16610,42150 17410,68360l-44830 4110c-2400,-27920 -10720,-48640 -25130,-62170 -14310,-13510 -34530,-20220 -60560,-20220 -26330,0 -46550,5910 -60360,17720 -13910,11820 -20820,27130 -20820,45950 0,17310 5010,30840 15210,40440 10220,9620 33050,19220 68680,29040 34730,9600 59160,17910 73260,24910 21530,10920 37740,25330 48660,43250 11000,17910 16420,39230 16420,64060 0,24630 -5720,47060 -17220,67380 -11620,20220 -27230,35530 -47150,46130 -19820,10520 -43750,15830 -71670,15830 -43650,0 -78380,-13120 -104310,-39230 -25830,-26240 -39340,-61770 -40240,-106520z"/>
  </g>
 </g>
</svg>
