<?xml version="1.0" encoding="UTF-8" standalone="no"?>
<!-- Created with Inkscape (http://www.inkscape.org/) -->

<svg
   xmlns:dc="http://purl.org/dc/elements/1.1/"
   xmlns:cc="http://creativecommons.org/ns#"
   xmlns:rdf="http://www.w3.org/1999/02/22-rdf-syntax-ns#"
   xmlns:svg="http://www.w3.org/2000/svg"
   xmlns="http://www.w3.org/2000/svg"
   xmlns:sodipodi="http://sodipodi.sourceforge.net/DTD/sodipodi-0.dtd"
   xmlns:inkscape="http://www.inkscape.org/namespaces/inkscape"
   version="1.1"
   width="156"
   height="156"
   id="svg2"
   inkscape:version="0.48.5 r10040"
   sodipodi:docname="Flag_of_Paraguay.svg">
  <sodipodi:namedview
     pagecolor="#ffffff"
     bordercolor="#666666"
     borderopacity="1"
     objecttolerance="10"
     gridtolerance="10"
     guidetolerance="10"
     inkscape:pageopacity="0"
     inkscape:pageshadow="2"
     inkscape:window-width="1920"
     inkscape:window-height="1017"
     id="namedview3255"
     showgrid="false"
     inkscape:zoom="2.2457053"
     inkscape:cx="218.4926"
     inkscape:cy="75.225193"
     inkscape:window-x="-8"
     inkscape:window-y="-8"
     inkscape:window-maximized="1"
     inkscape:current-layer="svg2" />
  <metadata
     id="metadata382">
    <rdf:RDF>
      <cc:Work
         rdf:about="">
        <dc:format>image/svg+xml</dc:format>
        <dc:type
           rdf:resource="http://purl.org/dc/dcmitype/StillImage" />
        <dc:title></dc:title>
      </cc:Work>
    </rdf:RDF>
  </metadata>
  <defs
     id="defs380" />
  <path
     d="m 154.31828,77.980273 c 0,42.163427 -34.15821,76.338017 -76.320525,76.338017 -42.139922,0 -76.3160396,-34.17459 -76.3160396,-76.338017 0,-42.145711 34.1761176,-76.2980851 76.3160396,-76.2980851 42.162315,0 76.320525,34.1523741 76.320525,76.2980851 z"
     id="path2542"
     style="fill:#ffffff;fill-opacity:1;stroke:#000000;stroke-width:3.36343074;stroke-linecap:butt;stroke-linejoin:miter;stroke-miterlimit:10;stroke-opacity:1;stroke-dasharray:none"
     inkscape:connector-curvature="0" />
  <path
     d="m 114.93278,66.134874 c -1.85396,-0.07537 -1.86561,1.967864 -1.86561,1.967864 0,0 0.0642,-0.603697 0.0109,0.08122 -0.035,0.679182 0.30415,2.333681 1.67266,2.467167 1.44456,0.127755 1.92412,-1.56153 1.93587,-2.380038 0,-0.325027 -0.10531,-2.095637 -1.75457,-2.136281"
     id="path2618"
     style="fill:#009b3a;fill-opacity:1;fill-rule:nonzero;stroke:#000000;stroke-width:0.89898503;stroke-miterlimit:4;stroke-opacity:1;stroke-dasharray:none"
     inkscape:connector-curvature="0" />
  <g
     transform="matrix(1.8252209,0,0,1.840601,-292.38258,-224.81187)"
     id="g4938">
    <path
       d="m 176.69647,181.09894 -0.35768,-0.58836 c -0.0367,-0.0651 -0.12984,-0.17361 -0.27929,-0.33517 -0.0735,-0.0844 -0.16904,-0.12298 -0.27683,-0.13503 -0.11025,-0.0145 -0.21559,0.002 -0.32583,0.0651 -0.13965,0.0844 -0.23029,0.19773 -0.24499,0.33517 -0.0269,0.13986 0.0392,0.33276 0.19599,0.59318 l 0.36258,0.61248 0.92605,-0.54737 z m 3.54006,-0.20255 -4.54941,2.68379 -1.38907,-2.31486 c -0.25724,-0.43404 -0.41403,-0.77885 -0.47528,-1.05133 -0.071,-0.2773 -0.0367,-0.53772 0.0784,-0.79573 0.11514,-0.26042 0.32338,-0.47744 0.61491,-0.65106 0.24254,-0.14467 0.49488,-0.2146 0.73987,-0.22666 0.25478,0 0.48752,0.0627 0.71291,0.18085 0.13964,0.0796 0.30133,0.20255 0.47772,0.38099 -0.0416,-0.19291 -0.0661,-0.34482 -0.0563,-0.46297 0.0147,-0.0699 0.0465,-0.18568 0.11024,-0.3617 0.0613,-0.16879 0.12004,-0.28695 0.15679,-0.3617 l 0.9187,-1.45161 0.9383,1.577 -0.9383,1.56494 c -0.11759,0.19773 -0.18864,0.34964 -0.19844,0.45574 -0.005,0.14709 0.0269,0.27489 0.098,0.40027 l 0.0784,0.1278 1.84231,-1.0875 0.8403,1.39374 z"
       id="path2462"
       style="fill:#000000;fill-opacity:1;fill-rule:nonzero;stroke:none"
       inkscape:connector-curvature="0" />
    <path
       d="m 172.22742,177.223 -1.38908,-4.1161 1.0706,-0.35688 0.8697,2.5801 0.80356,-0.26765 -0.81826,-2.39443 1.02895,-0.33276 0.80845,2.38237 0.98485,-0.31588 -0.8893,-2.65485 1.13674,-0.3834 1.41113,4.19327 -5.01734,1.66621 z"
       id="path2466"
       style="fill:#000000;fill-opacity:1;fill-rule:nonzero;stroke:none"
       inkscape:connector-curvature="0" />
    <path
       d="m 172.37588,168.84467 -0.0564,-0.38581 c -0.0367,-0.3207 -0.11514,-0.52808 -0.23518,-0.63658 -0.12985,-0.10851 -0.27439,-0.15915 -0.44833,-0.13986 -0.16169,0.0265 -0.29399,0.094 -0.39443,0.20737 -0.10534,0.12539 -0.13964,0.33276 -0.0956,0.63418 l 0.0441,0.46297 1.18574,-0.14227 z m -2.05789,1.87841 -0.31603,-2.67414 c -0.0637,-0.57389 0.0196,-1.03204 0.26213,-1.35516 0.24989,-0.3207 0.63207,-0.51361 1.14654,-0.57148 0.52917,-0.0651 0.9677,0.0482 1.30088,0.32553 0.32829,0.28212 0.53897,0.75233 0.61737,1.39856 l 0.10044,0.88013 1.94765,-0.22426 0.19109,1.61799 -5.25007,0.60283 z"
       id="path2470"
       style="fill:#000000;fill-opacity:1;fill-rule:nonzero;stroke:none"
       inkscape:connector-curvature="0" />
    <path
       d="m 170.13401,160.48997 0.16904,-1.61075 3.14074,0.33517 c 0.30868,0.0362 0.59776,0.11815 0.855,0.23872 0.27684,0.12297 0.49732,0.30141 0.68106,0.5329 0.1813,0.23148 0.30869,0.45332 0.36749,0.69204 0.0808,0.31588 0.10289,0.70169 0.0514,1.14537 -0.022,0.24355 -0.0759,0.52567 -0.14699,0.81985 -0.0661,0.29659 -0.16904,0.54013 -0.29643,0.72821 -0.12985,0.19291 -0.29644,0.36411 -0.50958,0.5112 -0.21314,0.14468 -0.42872,0.2339 -0.64431,0.27248 -0.34788,0.0699 -0.64677,0.0844 -0.90646,0.0555 l -3.12603,-0.32794 0.16904,-1.61316 3.20688,0.34481 c 0.28909,0.0289 0.51937,-0.0241 0.69821,-0.16879 0.17885,-0.14227 0.27929,-0.34964 0.31359,-0.62212 0.0294,-0.28694 -0.0294,-0.50878 -0.16904,-0.67999 -0.13965,-0.17602 -0.35523,-0.27488 -0.64677,-0.30864 l -3.20688,-0.34482 z"
       id="path2474"
       style="fill:#000000;fill-opacity:1;fill-rule:nonzero;stroke:none"
       inkscape:connector-curvature="0" />
    <path
       d="m 175.3951,156.08161 0.28174,-0.77644 c 0.0857,-0.26283 0.11024,-0.46538 0.0514,-0.61247 -0.0514,-0.13263 -0.16169,-0.23631 -0.32093,-0.28695 -0.15679,-0.0531 -0.28664,-0.0434 -0.41403,0.0338 -0.13229,0.0796 -0.24499,0.24836 -0.33563,0.5112 l -0.27929,0.78126 1.0167,0.34964 z m -1.96235,-0.6824 0.23764,-0.65829 c 0.0808,-0.24113 0.1029,-0.42439 0.0441,-0.54736 -0.0441,-0.11816 -0.14699,-0.2122 -0.30624,-0.25801 -0.13964,-0.0531 -0.27193,-0.0434 -0.38707,0.0169 -0.11515,0.0675 -0.21069,0.2122 -0.28909,0.44369 l -0.24744,0.67757 0.9481,0.32553 z m -2.49642,0.87048 1.00445,-2.87187 c 0.17394,-0.47744 0.42138,-0.79573 0.75456,-0.97658 0.32094,-0.16397 0.65902,-0.19531 1.01915,-0.0748 0.28908,0.11333 0.50957,0.28695 0.66146,0.54255 0.0907,0.16879 0.147,0.39063 0.147,0.64864 0.20823,-0.32794 0.44832,-0.53531 0.71536,-0.62453 0.27193,-0.0965 0.56837,-0.0916 0.8893,0.0193 0.25234,0.0868 0.46303,0.22908 0.62962,0.41716 0.15924,0.19772 0.26458,0.41474 0.31603,0.6607 0.0245,0.15914 0.0122,0.37134 -0.0441,0.63417 -0.0833,0.36893 -0.13229,0.60283 -0.17394,0.71134 l -0.93095,2.64279 -4.98794,-1.72891 z"
       id="path2478"
       style="fill:#000000;fill-opacity:1;fill-rule:nonzero;stroke:none"
       inkscape:connector-curvature="0" />
    <path
       d="m 173.63169,149.54962 0.855,-1.38409 3.40533,2.0472 1.32538,-2.16053 1.10979,0.67275 -2.16079,3.54221 -4.53471,-2.71754 z"
       id="path2482"
       style="fill:#000000;fill-opacity:1;fill-rule:nonzero;stroke:none"
       inkscape:connector-curvature="0" />
    <path
       d="m 177.12471,144.39014 1.05099,-1.24182 4.03494,3.38306 -1.05344,1.24183 -4.03249,-3.38307 z"
       id="path2486"
       style="fill:#000000;fill-opacity:1;fill-rule:nonzero;stroke:none"
       inkscape:connector-curvature="0" />
    <path
       d="m 184.45277,141.57156 1.37438,-0.58354 c 0.17639,0.36652 0.27683,0.71616 0.29153,1.05857 0.0122,0.33758 -0.0539,0.65587 -0.19599,0.95246 -0.15679,0.30142 -0.41403,0.59319 -0.76681,0.89942 -0.44832,0.3617 -0.8599,0.59801 -1.24943,0.70169 -0.38463,0.0989 -0.81581,0.0748 -1.29598,-0.0747 -0.46303,-0.15191 -0.90401,-0.48226 -1.33028,-0.97658 -0.55367,-0.67275 -0.80846,-1.33104 -0.75211,-1.97727 0.0539,-0.65829 0.41157,-1.24906 1.06324,-1.79401 0.51692,-0.42439 0.9971,-0.64623 1.46992,-0.6824 0.46058,-0.0434 0.95055,0.094 1.44298,0.40027 l -0.90401,1.16225 c -0.13719,-0.0892 -0.25233,-0.1495 -0.35033,-0.16879 -0.14944,-0.0434 -0.29398,-0.0434 -0.43852,-0.005 -0.14455,0.0314 -0.28419,0.0989 -0.40178,0.19773 -0.28664,0.23872 -0.41158,0.5329 -0.36993,0.88495 0.0245,0.26283 0.19354,0.56907 0.48752,0.93317 0.37973,0.4461 0.70801,0.69687 0.9775,0.74751 0.28418,0.0579 0.54632,-0.0217 0.79131,-0.22425 0.23764,-0.20255 0.36748,-0.41475 0.37238,-0.64623 0.007,-0.24596 -0.0588,-0.51361 -0.21559,-0.80538"
       id="path2490"
       style="fill:#000000;fill-opacity:1;fill-rule:nonzero;stroke:none"
       inkscape:connector-curvature="0" />
    <path
       d="m 189.8023,138.4207 -1.38173,-1.41785 0.34788,1.94593 1.03385,-0.52808 z m 0.82316,0.86084 -1.65612,0.83431 0.16904,0.88977 -1.48707,0.74992 -0.62961,-5.56771 1.58996,-0.80538 4.17213,3.77852 -1.52137,0.77162 -0.63696,-0.65105 z"
       id="path2494"
       style="fill:#000000;fill-opacity:1;fill-rule:nonzero;stroke:none"
       inkscape:connector-curvature="0" />
    <path
       d="m 197.05637,133.81486 0.40668,2.83088 0.39688,-0.0579 c 0.34053,-0.041 0.57817,-0.11574 0.71291,-0.20978 0.12984,-0.10369 0.21804,-0.23631 0.27194,-0.44368 0.0588,-0.1929 0.0588,-0.49432 -0.002,-0.91389 -0.0784,-0.54736 -0.22539,-0.91388 -0.43118,-1.0875 -0.21069,-0.17361 -0.52672,-0.2363 -0.9481,-0.17361 l -0.40668,0.0555 z m -1.77861,-0.94764 2.40088,-0.34241 c 0.47282,-0.0627 0.85745,-0.0579 1.16614,0.0289 0.31848,0.0892 0.58062,0.23389 0.8109,0.44609 0.22294,0.21219 0.40178,0.4702 0.52918,0.77162 0.13474,0.30141 0.22538,0.63658 0.27438,0.99104 0.0858,0.54978 0.0858,0.99346 -0.005,1.30934 -0.0808,0.32312 -0.22294,0.61007 -0.41648,0.8512 -0.20089,0.23389 -0.42382,0.40992 -0.67126,0.50878 -0.33808,0.15192 -0.65412,0.24113 -0.9481,0.28695 l -2.40578,0.33517 -0.73496,-5.18672 z"
       id="path2498"
       style="fill:#000000;fill-opacity:1;fill-rule:nonzero;stroke:none"
       inkscape:connector-curvature="0" />
  </g>
  <path
     d="m 77.174995,17.872933 7.96384,0.590283 -0.147649,2.054919 -4.985763,-0.372807 -0.116257,1.531197 4.623597,0.341745 -0.165534,1.957278 -4.601221,-0.32844 -0.134143,1.88183 5.128867,0.381677 -0.160971,2.174754 -8.115868,-0.599171 0.710974,-9.613265 z"
     id="path2502"
     style="fill:#000000;fill-opacity:1;fill-rule:nonzero;stroke:none"
     inkscape:connector-curvature="0" />
  <path
     d="m 89.44538,18.999804 2.866273,0.798907 -1.980913,7.01243 4.476057,1.264902 -0.652864,2.272395 -7.346765,-2.081548 2.638212,-9.267086 z"
     id="path2506"
     style="fill:#000000;fill-opacity:1;fill-rule:nonzero;stroke:none"
     inkscape:connector-curvature="0" />
  <path
     d="m 105.72499,29.705338 0.61707,0.399435 c 0.47399,0.315116 0.87644,0.448273 1.16708,0.417192 0.313,-0.03559 0.54551,-0.173016 0.71097,-0.44382 0.16098,-0.244103 0.2191,-0.519269 0.18333,-0.816646 -0.058,-0.284036 -0.32194,-0.572525 -0.78699,-0.878771 l -0.71097,-0.479319 -1.18049,1.801929 z m -0.23699,-5.081817 4.14514,2.733973 c 0.89877,0.590283 1.42642,1.256032 1.58739,1.975018 0.17448,0.727875 0,1.491265 -0.53212,2.281265 -0.5187,0.803323 -1.18943,1.27379 -1.98538,1.411382 -0.80486,0.128667 -1.68576,-0.119907 -2.69187,-0.781149 l -1.36382,-0.905399 -1.95854,2.986947 -2.4996,-1.655485 5.2988,-8.046552 z"
     id="path2510"
     style="fill:#000000;fill-opacity:1;fill-rule:nonzero;stroke:none"
     inkscape:connector-curvature="0" />
  <path
     d="m 115.95635,39.335905 1.68131,-3.217727 -3.19271,1.72648 z m -1.0195,1.917345 -2.41912,-2.378924 -1.45773,0.798888 -2.16872,-2.130368 4.45763,-2.059099 4.91029,-2.268179 2.30733,2.281247 -4.19432,9.431305 -2.2179,-2.201381 z"
     id="path2514"
     style="fill:#000000;fill-opacity:1;fill-rule:nonzero;stroke:none"
     inkscape:connector-curvature="0" />
  <path
     d="m 123.89916,45.43852 0.67968,1.074053 c 0.0805,0.106584 0.22804,0.315117 0.53213,0.599153 0.15203,0.13323 0.30406,0.217493 0.51869,0.226363 0.21016,0.02665 0.38903,-0.02665 0.57236,-0.14199 0.25489,-0.164257 0.39796,-0.368373 0.44269,-0.630234 0.0358,-0.248538 -0.0984,-0.621345 -0.39798,-1.074053 l -0.68861,-1.1007 -1.65896,1.047444 z m -6.45244,0.572524 8.13375,-5.192744 2.66952,4.185269 c 0.49634,0.77226 0.80936,1.406928 0.96139,1.899569 0.11169,0.49266 0.0761,0.989718 -0.1252,1.464619 -0.19674,0.488225 -0.55895,0.892095 -1.06871,1.224951 -0.46057,0.292942 -0.90324,0.457162 -1.35935,0.457162 -0.43374,0.02665 -0.87641,-0.08432 -1.31016,-0.266296 -0.25487,-0.150934 -0.55002,-0.372826 -0.88091,-0.687942 0.085,0.355067 0.13853,0.643556 0.12977,0.843273 -0.0182,0.137611 -0.0805,0.363938 -0.16992,0.665731 -0.10731,0.31957 -0.20568,0.545915 -0.29066,0.683489 l -1.57398,2.725107 -1.82439,-2.844923 1.63658,-2.920368 c 0.21911,-0.390583 0.32643,-0.670184 0.32643,-0.865484 0.009,-0.261843 -0.0312,-0.5104 -0.20569,-0.732292 l -0.12976,-0.221928 -3.30894,2.108175 -1.60975,-2.525368 z"
     id="path2518"
     style="fill:#000000;fill-opacity:1;fill-rule:nonzero;stroke:none"
     inkscape:connector-curvature="0" />
  <path
     d="m 128.85098,59.004945 2.8931,-2.183623 -3.61751,0.199735 0.72441,1.983888 z m -1.75732,1.291529 -1.15816,-3.191098 -1.64552,0.115344 -1.05082,-2.862677 10.31141,0.119907 1.11342,3.044618 -7.82969,6.710656 -1.07316,-2.946996 1.33252,-0.989735 z"
     id="path2522"
     style="fill:#000000;fill-opacity:1;fill-rule:nonzero;stroke:none"
     inkscape:connector-curvature="0" />
  <path
     d="m 131.71143,70.559939 1.98537,-0.261861 0.57683,4.598045 -4.08254,0.492642 c -0.68861,-0.798888 -1.21626,-1.51344 -1.49796,-2.165866 -0.31302,-0.647991 -0.51423,-1.433574 -0.63049,-2.352278 -0.14765,-1.136198 -0.0715,-2.085982 0.24593,-2.849373 0.28617,-0.763372 0.79595,-1.39804 1.51138,-1.899569 0.71991,-0.474884 1.56952,-0.79 2.55774,-0.909834 1.04186,-0.137611 1.98537,-0.03103 2.80813,0.310663 0.82278,0.32844 1.48457,0.883225 1.99878,1.664373 0.39797,0.61691 0.66179,1.464619 0.78701,2.5653 0.14764,1.051861 0.14764,1.855184 0.009,2.401099 -0.11188,0.554767 -0.35773,1.025233 -0.72886,1.424668 -0.34879,0.390583 -0.81831,0.727875 -1.41749,0.967561 l -0.86748,-2.782812 c 0.34432,-0.173017 0.59919,-0.394982 0.75122,-0.710098 0.15659,-0.301812 0.19676,-0.683507 0.15659,-1.1007 -0.10731,-0.656861 -0.3756,-1.145068 -0.86749,-1.473489 -0.50527,-0.32844 -1.24755,-0.430516 -2.22235,-0.3107 -1.03739,0.128668 -1.73942,0.426081 -2.14634,0.856597 -0.38456,0.45269 -0.52765,1.034103 -0.45611,1.72648 0.0358,0.328421 0.13415,0.634668 0.25937,0.918722 0.13852,0.301812 0.33982,0.60804 0.61707,0.989735 l 0.90772,-0.124287 -0.25487,-1.975018 z"
     id="path2526"
     style="fill:#000000;fill-opacity:1;fill-rule:nonzero;stroke:none"
     inkscape:connector-curvature="0" />
  <path
     d="m 137.82047,85.027763 -0.33983,2.955884 -5.70571,-0.643556 c -0.56789,-0.06661 -1.09105,-0.213022 -1.57398,-0.448256 -0.48293,-0.235233 -0.89877,-0.554785 -1.23415,-0.980865 -0.32643,-0.417175 -0.55,-0.838821 -0.65734,-1.264884 -0.13852,-0.616928 -0.17447,-1.309305 -0.0805,-2.121498 0.0626,-0.461578 0.15203,-0.971977 0.26381,-1.517892 0.12977,-0.545897 0.32195,-0.989736 0.56342,-1.335915 0.23253,-0.34618 0.54553,-0.652408 0.92115,-0.927592 0.42031,-0.261861 0.80486,-0.426063 1.18942,-0.492641 0.62601,-0.119907 1.18496,-0.159694 1.65448,-0.0887 l 5.71464,0.652408 -0.33983,2.947014 -5.84433,-0.670184 c -0.53212,-0.05767 -0.95243,0.03559 -1.28333,0.297359 -0.32197,0.266314 -0.51424,0.639121 -0.56789,1.14952 -0.058,0.523704 0.0403,0.936462 0.29958,1.251578 0.25044,0.319552 0.6439,0.510418 1.1671,0.590283 l 5.85325,0.647991 z"
     id="path2530"
     style="fill:#000000;fill-opacity:1;fill-rule:nonzero;stroke:none"
     inkscape:connector-curvature="0" />
  <path
     d="m 128.93862,96.010689 3.63538,0.128667 -2.93335,-2.139237 -0.70203,2.010533 z m -2.1553,-0.110964 1.10001,-3.200005 -1.34594,-0.96309 1.00164,-2.880435 7.93254,6.590803 -1.09106,3.084587 -10.28011,0.252992 1.01057,-2.955866 1.67235,0.07099 z"
     id="path2534"
     style="fill:#000000;fill-opacity:1;fill-rule:nonzero;stroke:none"
     inkscape:connector-curvature="0" />
  <path
     d="m 132.10895,104.78289 -1.67682,2.85381 -3.80082,0.0128 1.81993,3.33756 -1.66792,2.81829 -2.93332,-6.07596 -3.47888,-2.05049 1.52926,-2.57862 3.47441,2.06379 6.73416,-0.3817 z"
     id="path2538"
     style="fill:#000000;fill-opacity:1;fill-rule:nonzero;stroke:none"
     inkscape:connector-curvature="0" />
  <path
     d="m 141.90792,77.980273 c 0,35.306327 -28.60902,63.919777 -63.89854,63.919777 -35.298463,0 -63.907478,-28.61345 -63.907478,-63.919777 0,-35.279705 28.609015,-63.888721 63.907478,-63.888721 35.28952,0 63.89854,28.609016 63.89854,63.888721 z"
     id="path2546"
     style="fill:none;stroke:#000000;stroke-width:1.34537232;stroke-linecap:butt;stroke-linejoin:miter;stroke-miterlimit:10;stroke-opacity:1;stroke-dasharray:none"
     inkscape:connector-curvature="0" />
  <path
     d="m 125.55857,77.763217 c 0,26.274493 -21.28462,47.555923 -47.55054,47.555923 -26.265899,0 -47.559468,-21.28143 -47.559468,-47.555923 0,-26.247852 21.293569,-47.533737 47.559468,-47.533737 26.26592,0 47.55054,21.285885 47.55054,47.533737 z"
     id="path2550"
     style="fill:none;stroke:#000000;stroke-width:1.34537232;stroke-linecap:butt;stroke-linejoin:miter;stroke-miterlimit:10;stroke-opacity:1;stroke-dasharray:none"
     inkscape:connector-curvature="0" />
  <path
     d="m 78.013414,60.651962 3.993089,11.432951 12.086619,0.270731 -9.631735,7.323131 3.501233,11.588301 -9.949206,-6.88818 -9.953696,6.88818 3.483347,-11.588301 -9.645149,-7.323131 12.108976,-0.270731 4.006522,-11.432951 z"
     id="path2554"
     style="fill:#fedf00;fill-opacity:1;fill-rule:nonzero;stroke:#000000;stroke-width:0.54986846;stroke-miterlimit:4;stroke-opacity:1;stroke-dasharray:none"
     inkscape:connector-curvature="0" />
  <path
     d="m 99.969647,110.58236 c -0.402446,0.33731 -2.025609,0.51927 -2.454884,0.59028 -0.433746,0.0577 -2.137412,0.0754 -2.85733,0.10202 -0.397974,0.0267 -1.162587,0.13761 -1.560562,0.13761 -3.493349,-0.39843 5.67449,-0.34253 6.872776,-0.82993 m -9.153293,-2.70291 c 0.228061,-0.40832 1.372782,-2.95586 1.784171,-3.6793 0.420313,-0.71012 1.368291,-2.60526 1.93618,-3.39527 0.290661,-0.42608 1.43091,-1.66434 1.703667,-1.109573 -1.985604,1.716293 -3.550893,4.710433 -4.384403,6.725543 -0.107314,0.21748 -0.760178,1.33846 -1.001635,1.63138 -0.232532,0.28849 -0.13761,0.83187 -0.50423,0.87623 -0.384561,0.0489 -0.11498,0.11827 -0.11498,0.11827 0,0 0.330885,-0.73676 0.581285,-1.16728 z m 13.168736,1.94841 c 0,0 -1.57844,-0.23523 -2.55772,-0.58141 -0.97479,-0.32844 -2.611386,-0.58143 -4.006525,-0.5459 -1.381706,0.0182 -2.647155,0.43493 -3.773989,0.86545 -1.122364,0.41719 -2.575594,0.45269 -2.575594,0.45269 0,0 -0.822778,0.12867 -0.438218,-0.062 0.366657,-0.18196 1.641049,-1.17613 1.641049,-1.17613 l 0.822778,-1.12733 c 0.237076,-0.0659 4.413038,-5.54602 3.959088,-7.01625 0.639432,-1.082938 1.388878,-3.01421 1.107179,-3.351519 -0.134143,-0.13761 -3.250815,0.989736 -3.934961,1.611081 -0.791478,0.683507 -1.350424,2.108198 -1.58741,2.929258 -0.232514,0.81664 -1.430909,1.49126 -1.430909,1.49126 -0.974789,0.70123 -1.681292,2.92037 -2.012195,4.7356 -0.335357,1.79306 -4.751844,2.78588 -4.751844,2.78588 0,0 -1.225206,0.45716 -0.138523,0.80334 0.187782,0.0533 0.672447,0.87292 1.061479,0.88622 0.541042,0.0622 3.283466,-1.11121 3.708251,-1.01802 0.500817,0.10202 1.712591,0.41721 2.763412,0.7545 1.046349,0.35507 1.90937,0.53703 2.642701,0.26629 0.742275,-0.26629 1.802038,-0.16425 2.597969,-0.009 0.782518,0.16864 1.658953,0.0976 2.164242,-0.0577 0.54106,-0.16426 1.96299,-0.95422 1.96299,-0.95422 0,0 1.53822,-0.66573 2.42806,-1.08294 0.88986,-0.4172 0.34878,-0.59916 0.34878,-0.59916"
     id="path2562"
     style="fill:#009b3a;fill-opacity:1;fill-rule:nonzero;stroke:#000000;stroke-width:0.68733555;stroke-miterlimit:4;stroke-opacity:1;stroke-dasharray:none"
     inkscape:connector-curvature="0" />
  <path
     d="m 91.982556,115.15911 c 0,0 -6.081317,-3.18223 -6.407749,-3.25768 -0.192271,-0.0267 -2.758958,-1.44245 -3.93496,-1.80638 -0.849607,-0.27517 -2.021138,-0.3462 -2.44147,-0.31955 -1.001635,0.071 -2.635766,0.51246 -2.635766,0.51246 l 1.511395,0.61691 c 0,0 1.417477,0.69679 2.110566,1.06962 0.992692,0.52372 1.037406,1.16282 1.037406,1.16282 l 5.506493,2.42123 1.117892,0.80332 c 0,0 1.015049,-1.40249 4.136193,-1.20275"
     id="path2558"
     style="fill:#009b3a;fill-opacity:1;fill-rule:nonzero;stroke:#000000;stroke-width:0.54986846;stroke-miterlimit:4;stroke-opacity:1;stroke-dasharray:none"
     inkscape:connector-curvature="0" />
  <path
     d="m 98.099826,102.52785 c 1.912494,-1.70538 2.848044,-4.131612 4.421764,-5.474352 0.25456,0.182507 0.25456,0.486636 -0.0566,1.024704 -0.29697,0.528686 -0.69296,0.711156 -0.8674,0.987235 -0.32054,0.430461 -1.27837,1.226663 -1.53766,1.703923 -0.230998,0.45384 -0.528557,1.0859 -1.362943,1.56784 -0.829677,0.49595 -0.568911,1.28551 -0.639614,1.61773 -0.06607,0.36494 -1.345186,1.28072 -1.962717,2.41303 -0.117169,1.18038 -0.171009,0.68581 -0.886382,1.10488 1.30259,-1.96456 1.988104,-3.22917 2.891514,-4.94499 m -4.299172,5.39947 c -0.122645,0.25734 -3.89543,2.39973 -2.716927,2.08157 1.173812,-0.30881 4.659075,-1.56688 5.64903,-2.00671 1.211518,-0.52872 1.937476,-1.63761 2.847292,-2.54064 0.928649,-0.92177 3.800579,-3.66489 4.295559,-4.72235 0.48552,-1.090169 0.92757,-2.604868 -1.0193,-6.006452 0,0 -0.30172,0.650382 -1.02768,1.28673 -0.71652,0.650363 -1.7866,1.370919 -1.7866,1.370919 l -1.249241,1.179087 c 0,0 -4.407618,8.099226 -4.992133,9.357846"
     id="path2566"
     style="fill:#009b3a;fill-opacity:1;fill-rule:nonzero;stroke:#000000;stroke-width:0.72460687;stroke-miterlimit:4;stroke-opacity:1;stroke-dasharray:none"
     inkscape:connector-curvature="0" />
  <path
     d="m 109.1265,105.0776 c 0,0 -2.41464,-0.21747 -2.6248,-0.21747 -0.22806,0 -1.55164,-0.18196 -3.47439,-0.18196 -1.90489,0 -2.62034,0.66131 -3.121139,1.19388 -0.541078,0.59474 -2.043531,1.97061 -2.043531,1.97061 l 0.809364,-0.071 c 1.931726,-1.50455 3.434326,-0.95296 4.033536,-0.99733 0.62601,-0.0223 1.37993,0.0394 3.31166,-0.64403 1.96301,-0.68792 1.84834,-0.0451 1.63369,0.0214 -0.21463,0.0843 -1.47254,0.52578 -2.91237,0.58792 -1.45774,0.0799 -2.73591,0.36297 -3.30827,0.36297 -0.57683,0 -4.827584,1.16221 -4.827584,1.16221 0,0 4.600234,0.27024 5.096584,0.43446 0.49187,0.19971 1.26545,0.10658 1.90488,-0.19972 1.76179,-0.81221 2.55774,-0.96756 3.28211,-1.13175 0.72886,-0.14199 1.59636,-0.63468 1.59636,-0.63468 0,0 0.46506,-0.29293 0.8943,-1.07406 0.44269,-0.79888 -0.2504,-0.58141 -0.2504,-0.58141"
     id="path2570"
     style="fill:#009b3a;fill-opacity:1;fill-rule:nonzero;stroke:#000000;stroke-width:0.68733555;stroke-miterlimit:4;stroke-opacity:1;stroke-dasharray:none"
     inkscape:connector-curvature="0" />
  <path
     d="m 111.38331,92.474287 c 0.29064,-0.719005 1.01503,-2.409969 1.78413,-3.075718 0.46952,-0.408323 1.27886,-0.599152 1.70812,-0.78113 0.18335,-0.06224 1.50295,-0.1252 -0.1471,0.327527 -0.68416,0.18196 -1.60778,0.587636 -2.01917,1.275578 -0.57657,1.601755 -1.08089,2.99589 -2.15183,4.019261 -0.78697,0.825534 -1.28479,1.900482 -1.28479,1.900482 l -0.84428,0.29307 c 1.54635,-0.947686 2.21828,-2.702984 2.95486,-3.95907 z m 7.47642,-0.900982 c -0.88091,0.292942 -1.18944,0.537045 -1.18944,0.537045 -1.97195,0.590282 -2.77825,1.828045 -3.64127,2.835538 -0.4382,0.528139 -1.05546,0.921861 -3.13472,1.813956 -1.90043,0.816627 -3.36976,2.077824 -3.40553,2.077824 0,0 -0.60366,0.124287 -0.4874,0.417211 0.0447,0.13761 0.55894,0.02665 0.55894,0.02665 0,0 3.91359,-0.557632 5.54572,-1.551802 1.04188,-0.652426 1.63094,-1.127821 2.61914,-2.654583 0.44269,-0.674619 0.93901,-1.943956 0.96139,-1.127328 0.0761,2.165866 -3.28659,4.265171 -4.75327,4.913162 -0.78253,0.332856 -1.82886,0.470448 -3.19716,0.696812 -1.35042,0.248538 -2.17318,0.173017 -2.07481,-0.124287 0.13871,-0.430498 0.29513,-0.519269 0.65285,-0.94535 0.6439,-0.767807 2.20001,-1.038538 3.34473,-1.575565 1.35488,-0.60804 2.63821,-1.500135 3.28212,-2.263525 0.65731,-0.77226 0.88537,-1.056296 1.06423,-1.708722 0.50082,-1.704305 0.52765,-2.649637 0.99715,-3.257677 1.65448,-2.037162 1.89595,-2.694023 1.97642,-3.603875 0.0182,-0.208588 -0.85853,0.483789 -1.31464,0.736762 -0.88983,0.528157 -1.22071,0.528157 -3.04511,1.003041 -1.85124,0.461578 -1.811,1.655484 -2.09717,2.219121 -0.0849,0.226363 -0.83617,1.162825 -1.19388,1.335933 -0.35774,0.181959 -1.23864,1.455731 -1.56506,2.201363 -0.24145,0.545915 -0.67073,0.93648 -1.01505,0.892094 -0.3622,-0.06661 0.69309,-4.012197 0.92561,-4.664605 0.25041,-0.647991 0.2996,-1.912893 0.2996,-2.338974 0,-0.408323 0.0146,-1.482961 -0.70152,-1.602813 -0.71098,-0.119907 -0.74304,-1.102762 -0.74304,-1.102762 -1.71261,1.482377 -0.75543,4.094746 -0.57211,5.643719 0.18333,1.535633 -0.35326,4.376117 -0.35326,4.376117 1.65448,0.705682 0.35326,2.716216 -0.16097,3.364188 -0.54106,0.661315 -1.56505,0.781131 -2.02561,1.362543 -0.4874,0.599164 -3.95188,5.423724 -3.95188,5.423724 l 4.30962,-1.2207 c 0,0 0.4024,0.071 -0.24148,-0.41719 -0.65285,-0.46602 0.21016,-2.27682 0.76463,-2.72064 1.05976,-0.829961 2.49066,-0.22636 2.49066,-0.22636 0,0 1.99878,0.30625 4.44919,-0.665744 2.04798,-0.80774 2.92889,-2.117045 3.89921,-3.102328 0.52762,-0.537026 1.49349,-2.316762 2.10164,-3.373094 0.36665,-0.608022 1.02397,-1.766413 0.62153,-1.628839"
     id="path2574"
     style="fill:#009b3a;fill-opacity:1;fill-rule:nonzero;stroke:#000000;stroke-width:0.68733555;stroke-miterlimit:4;stroke-opacity:1;stroke-dasharray:none"
     inkscape:connector-curvature="0" />
  <path
     d="m 106.63813,103.16002 c 0.32898,-0.1336 0.37881,-0.19295 0.98188,-0.8509 0.59315,-0.65798 0.0697,-1.76612 -0.84729,-1.72159 -0.4486,0.0297 -0.92708,-0.0743 -1.80928,1.11309 -0.85231,1.18732 0.40869,1.62265 0.88719,1.67213 0.20437,0.009 0.47349,-0.0792 0.7875,-0.21273"
     id="path2582"
     style="fill:#009b3a;fill-opacity:1;fill-rule:nonzero;stroke:#000000;stroke-width:0.76613897;stroke-miterlimit:4;stroke-opacity:1;stroke-dasharray:none"
     inkscape:connector-curvature="0" />
  <path
     d="m 104.40995,95.647646 c -0.57039,0.955406 -0.87594,2.05231 -0.42778,2.39097 0.10184,0.05566 0.49914,0.404381 0.83525,0.404381 0.33101,0 1.26811,-0.449844 1.80287,-1.273845 0.53473,-0.798669 0.97275,-1.678206 -0.12228,-2.224158 -0.99313,-0.490323 -1.67556,-0.0303 -2.08811,0.702652"
     id="path2586"
     style="fill:#009b3a;fill-opacity:1;fill-rule:nonzero;stroke:#000000;stroke-width:0.78283989;stroke-miterlimit:4;stroke-opacity:1;stroke-dasharray:none"
     inkscape:connector-curvature="0" />
  <path
     d="m 107.67144,83.981962 c 0,0 0.0894,-0.146554 -0.28617,-0.537027 -0.59472,-0.608041 -1.33925,-1.693027 -1.33925,-1.693027 -1.18495,0.647973 -1.57845,1.957242 -1.57845,2.476548 0,0.541461 0.20121,1.717591 0.0183,2.915932 -0.0626,0.408305 -0.12976,0.874319 -0.71545,2.356695 -0.59918,1.464619 0.085,2.809422 0.2191,3.284324 0.10294,0.470448 0.59027,1.935067 0.59027,1.935067 0,0 0.46503,-0.297359 0.62154,-0.332875 0.18331,-0.04873 0.81382,-0.02208 0.81382,-0.02208 0,0 0.71322,-1.289467 0.74005,-2.008472 0.0128,-0.528157 -0.0715,-1.424686 -0.32196,-2.800551 -0.34877,-2.001646 -0.32642,-2.574189 -0.0894,-3.692629 0.23698,-1.136179 1.32805,-1.881811 1.32805,-1.881811"
     id="path2590"
     style="fill:#009b3a;fill-opacity:1;fill-rule:nonzero;stroke:#000000;stroke-width:0.68733555;stroke-miterlimit:4;stroke-opacity:1;stroke-dasharray:none"
     inkscape:connector-curvature="0" />
  <path
     d="m 109.43764,85.981764 c 0,0 0.67312,-0.160971 1.01214,-0.770545 0.42747,-0.736379 0.31446,-1.516669 0.31446,-1.516669 -1.04164,-2.019021 -2.44196,-0.390164 -2.44196,-0.390164 -1.25293,2.565227 1.11536,2.677378 1.11536,2.677378"
     id="path2594"
     style="fill:#009b3a;fill-opacity:1;fill-rule:nonzero;stroke:#000000;stroke-width:0.75525451;stroke-miterlimit:4;stroke-opacity:1;stroke-dasharray:none"
     inkscape:connector-curvature="0" />
  <path
     d="m 112.98546,82.2797 c -1.5539,0.08122 -2.31924,2.875983 -2.31924,2.875983 0,0 -0.25113,0.689967 -1.08066,1.223399 -0.88217,0.545075 -0.3622,1.327848 -0.3622,2.719427 0,1.391598 -0.96981,3.850077 -0.96981,3.850077 l -0.36213,0.834915 c 0,0 0.035,0.626218 0.60167,-0.51018 0.96393,-1.91344 2.0213,-1.449599 2.41853,-3.507986 0.25118,-1.530796 2.78655,-2.017852 2.78655,-2.017852 l -0.71271,-0.133413 c -2.63465,-1.235025 0.15185,-4.3139 0.60175,-4.858884 0.47901,-0.545094 0.93465,-0.545094 -0.60175,-0.475522"
     id="path2598"
     style="fill:#009b3a;fill-opacity:1;fill-rule:nonzero;stroke:#000000;stroke-width:0.89795762;stroke-miterlimit:4;stroke-opacity:1;stroke-dasharray:none"
     inkscape:connector-curvature="0" />
  <path
     d="m 112.54199,85.59463 c -0.71156,1.526069 1.31361,1.600149 1.78132,1.333451 0.1891,-0.108592 0.617,-0.61733 0.617,-0.61733 0.82105,-1.180364 0.0697,-1.980456 -0.35824,-2.094049 -0.41299,-0.13834 -1.29372,-0.242004 -2.04008,1.377928"
     id="path2602"
     style="fill:#009b3a;fill-opacity:1;fill-rule:nonzero;stroke:#000000;stroke-width:0.76484913;stroke-miterlimit:4;stroke-opacity:1;stroke-dasharray:none"
     inkscape:connector-curvature="0" />
  <path
     d="m 108.69408,79.670343 c 0.53212,0.989735 2.01667,3.745883 2.36546,3.572794 0.21912,-0.106584 0.0447,-0.670166 0.0447,-0.670166 0,0 -0.0447,-0.745633 -0.28617,-1.646597 -0.23698,-0.909852 -0.17958,-2.072787 -0.65354,-2.818401 -0.46057,-0.745632 -1.5635,-1.628729 -1.99724,-2.804877 -0.42928,-1.180583 -0.0929,-3.412973 -0.0571,-3.688139 0.0447,-0.257407 0.17448,-0.0887 -0.0537,-0.355049 -0.23251,-0.288507 -2.10985,-1.287349 -2.10985,-1.287349 0,0 0.10932,0.728075 0.0646,2.046232 -0.0182,0.319551 -0.10732,0.692377 -0.15641,1.247143 -0.0447,0.528157 0.27276,1.193888 1.04186,2.711781 0.89432,1.757542 1.32358,2.836049 1.79757,3.692628"
     id="path2606"
     style="fill:#009b3a;fill-opacity:1;fill-rule:nonzero;stroke:#000000;stroke-width:0.68733555;stroke-miterlimit:4;stroke-opacity:1;stroke-dasharray:none"
     inkscape:connector-curvature="0" />
  <path
     d="m 119.95168,66.563747 c 0,0 -0.54104,0.900964 -0.73333,1.100664 -0.20121,0.199735 -3.25976,2.827198 -3.43416,2.938144 -0.14747,0.115344 -1.74389,0.625798 -3.19716,4.553641 -1.45774,3.914556 -0.82723,7.576122 -0.82723,7.576122 l 0.7065,-0.0887 0.12064,-0.381695 c 0,0 0.237,-1.300399 0.42033,-2.285699 0.20122,-0.971978 1.29089,-2.330597 2.01526,-3.333637 0.68866,-0.980848 1.24596,-2.3917 1.24596,-2.3917 0.81907,-1.650812 1.21318,-3.127185 2.02417,-4.278494 0.0332,1.371468 -5.17917,9.802215 -5.73658,12.671225 l 1.54226,-0.235233 c 1.23413,-1.127309 2.84838,-3.49291 3.93945,-5.019673 1.09999,-1.531197 1.56503,-3.923426 1.76625,-4.984157 0.19228,-1.047426 0.14746,-5.840736 0.14746,-5.840736"
     id="path2610"
     style="fill:#009b3a;fill-opacity:1;fill-rule:nonzero;stroke:#000000;stroke-width:0.68733555;stroke-miterlimit:4;stroke-opacity:1;stroke-dasharray:none"
     inkscape:connector-curvature="0" />
  <path
     d="m 109.55889,67.43051 c -0.78698,-0.727857 -1.39959,-0.94535 -1.39959,-0.94535 0,0 0.1878,1.429121 0.1878,2.299022 0,0.874337 0.0761,2.338956 0.0314,3.120104 -0.0314,0.78113 -0.42031,2.072659 0.13415,3.33756 0.56787,1.247144 1.20732,1.88183 1.65893,2.667395 0.41139,0.767826 1.16516,4.760094 1.16516,4.760094 0,0 -0.27531,-5.399215 -0.0383,-6.925959 0.21909,-1.500135 0.29064,-3.83909 -0.0447,-5.010803 -0.34879,-1.17613 -0.9256,-2.556431 -1.69472,-3.302063"
     id="path2614"
     style="fill:#009b3a;fill-opacity:1;fill-rule:nonzero;stroke:#000000;stroke-width:0.68733555;stroke-miterlimit:4;stroke-opacity:1;stroke-dasharray:none"
     inkscape:connector-curvature="0" />
  <path
     d="m 113.15717,62.160108 c 0.23698,-0.461596 0.79146,-1.415816 1.02397,-2.86713 0.085,-0.61691 0.14309,-1.615516 0.12082,-2.307893 -0.0182,-0.46156 -0.20123,-1.264901 0,-1.318138 0.17886,-0.04435 0.0288,0.250052 0.13177,0.933541 0.0491,0.244122 -0.11918,0.91969 -0.15057,1.785174 -0.0401,0.692359 -0.0677,1.270304 -0.37622,2.206766 -0.26828,0.825516 -0.0252,1.74077 -0.19074,1.998196 -0.17885,0.261843 -0.65284,1.251579 -0.65284,1.251579 0,0 -0.29064,0.798888 -0.24146,1.526762 0.0268,0.745632 0.0715,1.548937 0.0715,1.548937 0,0 0.34432,-0.639103 1.11342,-0.745614 0,0 0.17448,-1.247144 0.17448,-1.637727 0,-0.390565 0.50082,-2.946995 0.75571,-3.728125 0.34877,-1.145086 0.5947,-3.137844 0.0403,-5.450189 -0.15203,-0.62578 -0.26381,-2.583062 -0.26381,-2.583062 0,0 -0.73782,0.5903 -1.17604,2.82273 -0.13414,0.679054 0.15203,2.49874 0.0403,4.43826 -0.0447,1.069619 -1.0704,5.40438 -1.20901,5.675129"
     id="path2626"
     style="fill:#009b3a;fill-opacity:1;fill-rule:nonzero;stroke:#000000;stroke-width:0.68733555;stroke-miterlimit:4;stroke-opacity:1;stroke-dasharray:none"
     inkscape:connector-curvature="0" />
  <path
     d="m 113.15717,62.160108 c -0.0358,0.06661 -0.0493,0.09326 -0.0493,0.09326 0,0 0.0314,-0.02665 0.0493,-0.09326"
     id="path2630"
     style="fill:#009b3a;fill-opacity:1;fill-rule:nonzero;stroke:#000000;stroke-width:0.68733555;stroke-miterlimit:4;stroke-opacity:1;stroke-dasharray:none"
     inkscape:connector-curvature="0" />
  <path
     d="m 110.25019,50.907324 c 0.39351,0 0.39351,0.426081 0.31302,0.763372 -0.0626,0.346198 -0.0537,0.989754 -0.0537,1.122893 0,0.150933 0.16535,1.069622 0.29511,1.548941 0.14308,0.492659 0.38903,0.647991 0.2817,1.637726 -0.0715,0.621364 -0.71098,1.353655 -0.48739,2.409987 0.12064,0.554767 0.51869,1.13618 0.71545,1.615516 0.16535,0.332856 0.0752,1.145925 0.11991,1.811674 0.0182,0.647973 0.37645,1.086501 0.37645,1.086501 0,0 -0.44267,0.825516 -0.59022,-0.208587 -0.16098,-1.185018 -0.21463,-1.713175 -0.44269,-2.250202 -0.37115,-0.87879 -0.71103,-2.459647 -0.13415,-3.680163 0.0984,-0.235233 0.17521,-0.673761 0.17521,-1.19303 0,-0.528176 -0.32599,-1.430837 -0.38859,-1.990042 -0.0537,-0.443821 -0.0183,-1.380502 -0.0183,-1.717811 m -2.06713,4.963866 c 0.0938,0.670166 0.30853,1.051879 1.06423,2.50761 0.23253,0.479336 0.76016,1.704305 0.84065,2.094852 0.0938,0.390583 0.17447,0.861032 0.17447,0.980866 0,0.128667 0.0851,1.047426 0.0851,1.047426 l 0,0.381677 c 0,0 -2.0927,-1.220516 -3.00936,-1.872924 -0.9122,-0.656861 -1.94961,-1.557843 -2.6114,-2.10374 -0.75121,-0.61691 -2.53982,-2.738408 -2.56218,-4.43826 l -0.82277,-0.745633 c 0,0 -0.62602,3.776965 2.33413,6.222449 0.85408,0.701229 1.78415,1.473489 3.77399,2.374471 1.99433,0.918722 1.73267,1.741829 2.56437,3.50826 0.81831,1.7753 1.33046,2.796208 1.4333,3.297737 0.0715,0.537027 -0.22638,8.083218 -0.22638,8.083218 l 0.0715,0.683489 c 0,0 1.82265,-6.989125 2.69906,-7.770255 0,0 -1.73942,-0.266296 -1.6008,-3.000269 L 112.2487,66.27701 c 0,0 -0.34877,-2.165865 0.30408,-3.51065 0,0 0.77357,-2.463242 0.50976,-4.59361 -0.16554,-1.273772 -0.22359,-1.655467 -0.38009,-2.876001 -0.23701,-1.899573 -0.99715,-4.615788 -1.0821,-4.944191 -0.25936,-0.954257 -0.34879,-1.1007 -0.65285,-1.855203 -0.0894,-0.266296 -0.25938,-1.145085 -0.54108,-1.15839 -0.16097,-0.0091 -0.40692,1.131763 -0.40692,1.131763 0,0 -0.36663,1.242708 -0.44267,1.580018 -0.237,1.00304 -0.79146,1.846314 -1.04633,4.100954 -0.0447,0.408323 -0.0894,1.509005 -0.1387,1.655448 -0.0268,0.124288 -0.0805,0.772261 -0.0268,1.020817"
     id="path2634"
     style="fill:#009b3a;fill-opacity:1;fill-rule:nonzero;stroke:#000000;stroke-width:0.68733555;stroke-miterlimit:4;stroke-opacity:1;stroke-dasharray:none"
     inkscape:connector-curvature="0" />
  <path
     d="m 109.89963,66.36445 c 0,0 -0.30407,-0.674619 -0.6126,-1.020799 -0.62154,-0.732309 -1.45774,-1.353654 -3.83659,-2.51648 -2.36992,-1.180583 -2.99596,-3.120103 -4.20326,-3.918991 -0.55448,-0.381677 -1.627654,-0.563636 -1.627654,-0.563636 0,0 1.055294,1.451295 1.305694,1.952806 0.32196,0.639122 0.39797,1.074072 1.70366,2.290153 1.29675,1.220516 2.87969,1.646579 3.89921,1.94839 1.43984,0.448256 3.37154,1.828557 3.37154,1.828557"
     id="path2638"
     style="fill:#009b3a;fill-opacity:1;fill-rule:nonzero;stroke:#000000;stroke-width:0.68733555;stroke-miterlimit:4;stroke-opacity:1;stroke-dasharray:none"
     inkscape:connector-curvature="0" />
  <path
     d="m 102.43083,55.149028 c 0.0626,0.190848 0.67385,2.277414 1.9572,3.897383 1.96301,2.480982 5.74142,4.252888 5.74142,4.252888 -0.35326,-1.544502 -0.96942,-3.329914 -1.45683,-4.11995 -1.71708,-2.773888 -6.25521,-4.132397 -6.25521,-4.132397 0,0 -0.0805,-0.106584 0.0128,0.102021"
     id="path2642"
     style="fill:#009b3a;fill-opacity:1;fill-rule:nonzero;stroke:#000000;stroke-width:0.68733555;stroke-miterlimit:4;stroke-opacity:1;stroke-dasharray:none"
     inkscape:connector-curvature="0" />
  <path
     d="m 107.8472,56.317566 c 1.01651,-2.22529 -2.01941,-4.351938 -2.87522,-5.902883 0.31747,-0.252991 0.69309,0.408323 1.04186,0.847709 0.49635,0.661295 1.89596,2.574192 1.89596,2.574192 l 0.43374,-2.037147 -3.6148,-3.28916 c -0.0447,0.479318 -1.16035,0.871799 -1.16035,0.871799 -0.54104,3.044637 4.27881,6.93549 4.27881,6.93549"
     id="path2646"
     style="fill:#009b3a;fill-opacity:1;fill-rule:nonzero;stroke:#000000;stroke-width:0.68733555;stroke-miterlimit:4;stroke-opacity:1;stroke-dasharray:none"
     inkscape:connector-curvature="0" />
  <path
     d="m 101.55306,51.159147 c -0.87195,0.390584 -1.18049,0.390584 -1.18049,0.390584 l 0.48691,1.290014 0.28172,0.350632 c 0,0 1.13576,1.642166 1.79754,1.846318 0.27727,0.102022 1.31019,0.284054 2.34759,0.727875 1.30569,0.554784 3.43588,2.418601 3.43588,2.418601 0,0 -3.54418,-3.997342 -4.90347,-6.993801 l -0.45789,-1.72752 -1.28463,0.08614 c 0,0 0.35326,1.211664 -0.52316,1.611099"
     id="path2650"
     style="fill:#009b3a;fill-opacity:1;fill-rule:nonzero;stroke:#000000;stroke-width:0.68733555;stroke-miterlimit:4;stroke-opacity:1;stroke-dasharray:none"
     inkscape:connector-curvature="0" />
  <path
     d="m 88.288596,48.602534 c 0.406917,0.363956 1.073177,0.918722 1.927237,1.429121 0.782517,0.470467 3.036187,1.797494 4.721968,2.117064 0.393503,0.06205 2.512026,0.328622 2.512026,0.328622 0.08505,-0.92761 1.091064,-1.007494 1.091064,-1.007494 l -2.99943,-0.328622 c -2.418747,-0.180134 -4.259787,-1.190347 -5.692303,-2.809422 1.922547,1.165052 4.684682,3.000616 6.924116,2.90303 9.194026,-0.904961 -2.770019,-1.132164 -3.807425,-1.797895 -1.100006,-0.679054 -2.039041,-1.806381 -2.039041,-1.806381 L 88.230467,47.51065 c 0,0 -1.323577,-0.08432 0.05804,1.091793"
     id="path2654"
     style="fill:#009b3a;fill-opacity:1;fill-rule:nonzero;stroke:#000000;stroke-width:0.68733555;stroke-miterlimit:4;stroke-opacity:1;stroke-dasharray:none"
     inkscape:connector-curvature="0" />
  <path
     d="m 99.11378,53.838354 c 0.594718,-0.04435 1.01058,-0.155313 1.14472,-0.807761 0.12064,-0.727875 -0.15659,-1.256032 -1.032916,-1.446861 -0.487421,-0.119907 -1.341481,-0.146553 -1.690252,0.718986 -0.380089,0.887659 1.001617,1.455749 1.001617,1.455749 0,0 0.263832,0.115344 0.576831,0.07994"
     id="path2658"
     style="fill:#009b3a;fill-opacity:1;fill-rule:nonzero;stroke:#000000;stroke-width:0.68733555;stroke-miterlimit:4;stroke-opacity:1;stroke-dasharray:none"
     inkscape:connector-curvature="0" />
  <path
     d="m 100.14403,48.567913 c -0.778061,0 -1.041875,0.634686 -0.876414,1.872941 0.205685,1.247162 2.115014,0.701265 2.115014,0.701265 l 0.35327,-0.181959 c 0,0 0.25936,-0.199718 0.11625,-1.193888 -0.13414,-1.016363 -0.9256,-1.198341 -1.70812,-1.198341"
     id="path2662"
     style="fill:#009b3a;fill-opacity:1;fill-rule:nonzero;stroke:#000000;stroke-width:0.68733555;stroke-miterlimit:4;stroke-opacity:1;stroke-dasharray:none"
     inkscape:connector-curvature="0" />
  <path
     d="m 103.27054,49.443581 -0.0314,0 c -0.0128,0.0091 0.0314,0 0.0314,0"
     id="path2666"
     style="fill:#009b3a;fill-opacity:1;fill-rule:nonzero;stroke:#000000;stroke-width:0.68733555;stroke-miterlimit:4;stroke-opacity:1;stroke-dasharray:none"
     inkscape:connector-curvature="0" />
  <path
     d="m 103.24015,49.443581 c 0.0223,-0.0091 0.0759,-0.03541 0.27723,-0.09326 0.39798,-0.150933 0.80042,-1.105116 0.80042,-1.105116 0.2012,-1.291529 -0.7244,-1.611099 -0.7244,-1.611099 -1.55611,-0.310664 -1.59634,1.056314 -1.59634,1.056314 -0.42927,1.779754 1.01505,1.761977 1.24309,1.753108"
     id="path2670"
     style="fill:#009b3a;fill-opacity:1;fill-rule:nonzero;stroke:#000000;stroke-width:0.68733555;stroke-miterlimit:4;stroke-opacity:1;stroke-dasharray:none"
     inkscape:connector-curvature="0" />
  <path
     d="m 96.310126,43.332115 c 0.08505,0.590282 0.925621,1.446879 1.055292,1.593323 0.152028,0.13323 1.225206,1.251596 1.587391,1.753126 0.362204,0.501511 1.565931,2.776588 1.565931,2.776588 0,0 0.21015,-0.03559 0.29958,-0.208605 0.21018,-0.355068 -0.80575,-3.109445 -0.908572,-3.300311 -0.372004,-0.836886 -0.980373,-1.460567 -1.591899,-2.112592 -0.143085,-0.09326 -0.643903,-0.736763 -1.193888,-1.429121 1.087851,1.39262 3.878349,5.352547 4.700449,7.112755 0,0 -0.0993,-1.875625 -0.20207,-2.883118 -0.34877,-2.938108 -1.11342,-3.84796 -1.35935,-4.274041 -0.433746,-0.794435 -1.533752,-1.566695 -2.32074,-1.837426 -0.786989,-0.284036 -1.717081,-0.674619 -2.714245,-0.99417 -1.028445,-0.315099 -0.236985,0.612475 0.143086,1.411363 0.47397,0.94535 0.85406,1.793058 0.939017,2.392229"
     id="path2674"
     style="fill:#009b3a;fill-opacity:1;fill-rule:nonzero;stroke:#000000;stroke-width:0.68733555;stroke-miterlimit:4;stroke-opacity:1;stroke-dasharray:none"
     inkscape:connector-curvature="0" />
  <path
     d="m 92.471748,48.164937 c 1.015049,0.861014 1.471152,1.460184 3.577247,1.770866 2.123998,0.332874 2.302855,0.190847 2.302855,0.190847 0,0 1.100864,-0.531935 0.541918,-0.997966 -3.120724,-1.37207 -6.075604,-3.006621 -7.575684,-4.842769 0,0 0.259361,-0.252992 1.341463,0.829932 0.626036,0.634687 1.04635,0.954238 1.430892,1.251597 1.135778,0.794435 1.627671,1.020798 2.758959,1.637708 0.60366,0.32844 2.110565,0.683489 2.110565,0.683489 0,0 0.214647,-0.457125 0.406918,-0.510399 0.183347,-0.04435 -0.116804,-0.760616 -1.426895,-1.821365 -1.153681,-0.932027 -1.913841,-2.077095 -1.913841,-2.077095 0,0 -1.551146,-0.340065 -3.232455,-0.619684 -1.252016,-0.199717 -3.608547,-2.028273 -3.568304,-1.531179 0.04471,0.510381 0.35326,2.094852 0.988239,3.102346 0.639431,1.01191 1.247545,2.046031 2.258123,2.933672"
     id="path2678"
     style="fill:#009b3a;fill-opacity:1;fill-rule:nonzero;stroke:#000000;stroke-width:0.68733555;stroke-miterlimit:4;stroke-opacity:1;stroke-dasharray:none"
     inkscape:connector-curvature="0" />
  <path
     d="m 74.928863,111.66373 c -0.921131,0.27073 -7.82247,2.86246 -7.82247,2.86246 l -1.927256,0.77226 c 2.660587,-0.59917 4.699629,0.7412 4.699629,0.7412 l 7.688309,-3.55929 c 0,0 -0.02227,-0.11534 -0.214629,-0.25296 -0.201214,-0.13761 -1.493509,-0.84327 -2.423583,-0.56367"
     id="path2686"
     style="fill:#009b3a;fill-opacity:1;fill-rule:nonzero;stroke:#000000;stroke-width:0.54986846;stroke-miterlimit:4;stroke-opacity:1;stroke-dasharray:none"
     inkscape:connector-curvature="0" />
  <path
     d="m 64.887619,115.53219 c -0.0511,0.0443 -0.102204,0.22636 0.03066,0.28405 0.383064,0.21304 0.280915,0.29736 2.022688,0.50597 1.757087,0.19084 2.901223,-0.142 3.202597,-0.47491 0.352458,-0.38611 -4.351861,-1.10511 -5.255928,-0.31511"
     id="path2690"
     style="fill:#009b3a;fill-opacity:1;fill-rule:nonzero;stroke:#000000;stroke-width:0.5876891;stroke-miterlimit:4;stroke-opacity:1;stroke-dasharray:none"
     inkscape:connector-curvature="0" />
  <path
     d="M 53.844064,90.701761 53.524257,88.54555 c 0,0 -0.402227,-5.833125 -1.063523,-7.002831 -0.127573,-0.259288 -0.07081,-0.864536 -0.4914,-0.874629 -0.803962,-0.06114 -0.803962,1.835839 -0.901549,3.554763 -1.309323,8.670087 5.604645,15.288959 5.604645,15.288959 z"
     id="path2694"
     style="fill:#009b3a;fill-opacity:1;fill-rule:nonzero;stroke:#000000;stroke-width:0.76290947;stroke-miterlimit:4;stroke-opacity:1;stroke-dasharray:none"
     inkscape:connector-curvature="0" />
  <path
     d="m 88.05891,116.38886 c 0,0 -0.725209,-0.16225 -0.265511,-0.72749 0.439842,-0.53911 1.74756,-0.82694 2.009111,-0.82694 0.25759,-0.0109 0.990702,0.0524 1.537548,0.20409 0.550843,0.13615 1.311715,0.62285 1.089823,0.97351 -0.233828,0.33496 -0.97884,0.75363 -1.997284,0.75363 -0.871818,0 -1.319581,-0.021 -1.703977,-0.13086 -0.372515,-0.14126 -0.66971,-0.24598 -0.66971,-0.24598"
     id="path2698"
     style="fill:#009b3a;fill-opacity:1;fill-rule:nonzero;stroke:#000000;stroke-width:0.70265466;stroke-miterlimit:4;stroke-opacity:1;stroke-dasharray:none"
     inkscape:connector-curvature="0" />
  <path
     d="m 80.56353,112.26402 c 0,0 -2.374398,-1.09182 -4.623597,-2.1925 -2.964625,-1.44686 -6.528458,-3.45741 -9.010189,-7.14559 -3.107729,-4.56696 -5.808541,-7.012444 -6.461387,-7.505104 -0.670731,-0.492641 -0.769103,-0.674619 -1.015031,-0.328421 -0.223571,0.301812 -0.06716,0.563655 0.120637,0.883224 0.639432,1.038538 2.208937,2.991382 2.772373,4.038811 0.970317,1.87294 2.97804,3.91897 2.960154,5.13062 0,0.16863 -0.585774,-0.11991 -0.585774,-0.11991 0,0 -4.699611,-1.6111 -6.604491,-7.305392 -1.386177,-4.127579 -0.795932,-5.339207 -1.117892,-7.403014 -0.549985,-3.666 -0.661789,-3.963359 -2.477241,-8.07318 -0.04909,-0.102021 -1.108949,-1.819686 -1.252016,-1.438009 -0.196761,0.492659 0.178857,2.330085 0.178857,2.330085 l 0.192289,2.117063 c 0,0 -0.152028,4.700104 -0.152028,4.984157 0,0.284054 -1.184964,3.217727 3.845532,8.148647 0,0 0.0761,0.838839 -0.599189,0.102021 -0.47846,-0.528157 -4.078046,-3.293193 -5.173581,-7.842399 -1.126835,-4.549225 -1.292296,-9.102866 -0.438218,-10.993566 0.773575,-1.708722 2.325195,-5.885122 1.663406,-9.533382 -0.07611,-0.381695 -0.18331,-1.500135 -0.424804,-1.207193 -0.102751,0.141991 -0.554456,1.988323 -0.827213,2.627444 -0.380089,0.874337 -0.970335,1.73535 -1.153681,2.338955 -0.353243,1.025234 -2.088209,2.609687 -1.748363,5.525638 0.384543,3.350883 0.603642,3.874587 1.006089,5.068493 0.138705,0.434933 0.473988,1.544503 0.254871,1.655449 -0.201214,0.106584 -0.912189,-1.327027 -0.912189,-1.327027 0,0 -3.183743,-6.257929 -1.220716,-11.33531 1.985366,-5.055171 6.966676,-9.848481 6.966676,-9.848481 0,0 4.046746,-3.355318 4.869506,-4.136467 0.321979,-0.301793 0.245947,-0.528157 0.138706,-0.492641 -1.006107,0.252992 -8.79109,1.864054 -11.527673,11.140028 0,0 -0.143086,0.390565 -0.344318,0.292906 -0.250399,-0.110965 0,-0.545897 0,-0.545897 0,0 1.71261,-6.577498 6.519552,-9.56001 5.245106,-3.270982 4.62805,-2.791664 6.362998,-3.821332 1.091064,-0.679036 2.079284,-1.588888 3.300019,-3.608313 0.1252,-0.226327 0.621546,-1.402476 0.554475,-1.602211 -0.05366,-0.199718 -0.290643,0.07538 -0.402447,0.408323 0,0 -1.484566,2.294591 -3.706918,3.066833 -2.231312,0.77226 -4.042275,-0.328421 -6.28253,2.148126 -2.244709,2.489852 -4.028861,5.938395 -4.028861,5.938395 0,0 -0.585793,0.892076 -0.715464,0.865448 -0.245946,-0.07538 0.12082,-0.949784 0.12082,-0.949784 0,0 2.995944,-6.355588 5.401642,-7.647117 2.410169,-1.300399 4.556525,-2.547565 5.924816,-3.603861 1.663424,-1.304852 4.529697,-4.500404 5.562614,-5.601067 0.219099,-0.235233 1.757323,-1.793059 2.097169,-2.299023 0.205686,-0.275184 0.693089,-0.674619 0.612603,-0.745632 -0.219117,-0.164257 -1.676838,0.537027 -1.676838,0.537027 0,0 -7.934821,2.186507 -12.871417,9.642758 -0.22806,0.346198 -0.771146,1.050441 -1.061789,1.3478 -0.527646,0.545915 -0.790785,1.457063 -0.790785,1.457063 -0.32196,-0.266296 2.789401,-4.156966 2.789401,-4.156966 l 0.545532,-2.51648 c 0,0 0.921149,-3.781399 2.857312,-6.448794 0.192289,-0.244122 1.336991,-1.398059 1.529281,-1.637727 0.38456,-0.417193 -0.72886,0.363937 -0.532118,0.190848 0,0 -7.400422,5.312615 -7.400422,12.005494 0,1.202761 -0.746746,2.299026 -1.779681,3.794708 -1.20732,1.735368 -1.609748,2.800533 -2.132923,5.38361 -0.371146,1.846314 -0.679674,3.253242 -0.679674,3.253242 0,0 0.07154,0.954238 -0.236986,0.883225 -0.32196,-0.071 -0.210175,-0.861032 -0.210175,-0.861032 0,0 0.755689,-4.98861 1.292278,-6.524243 0.523174,-1.491246 0.867474,-2.507609 0.867474,-2.507609 0,0 -0.308528,-3.750341 0.523193,-5.805242 0.706503,-1.793059 2.495108,-4.154225 2.772354,-4.744507 0.120637,-0.257426 0.947978,-1.939502 1.180492,-3.856848 0.03121,-0.257408 -0.169914,-0.04435 -0.505289,0.7057 -0.813817,1.832991 -1.493491,2.312327 -2.830483,4.038807 0,0 -3.42969,2.485417 -4.6728,9.879547 0,0 -0.04015,2.756184 -0.460556,7.074592 -0.304075,3.164471 -0.04471,6.129243 0.313017,7.913413 0.228043,1.091812 0.661789,1.1007 0.393485,1.233839 -0.165351,0.08432 0.106767,0.0146 -0.282301,-0.811225 -0.473989,-0.989736 -0.837197,-2.513031 -0.837197,-4.616753 0,-3.856848 0.335375,-6.954758 0.335375,-6.954758 0,0 0.252006,-6.231319 -2.332549,-9.040726 -0.1252,-0.146553 0.451614,1.260448 0.710974,2.662945 0.31749,1.739803 -0.25936,4.154207 -0.429256,5.095121 -0.165534,0.94535 -1.887013,5.064059 -1.278882,8.929777 0,0 1.457721,6.555305 3.335791,9.733099 0,0 1.167917,1.367945 0.135055,0.08523 -1.023992,-1.282659 -3.126473,-6.383201 -3.309783,-6.818152 -0.160971,-0.417193 -1.667895,-3.590534 -3.085373,-4.882081 -0.733349,-0.683489 -2.750015,-1.895116 -2.750015,-1.895116 0,0 -1.095535,-0.834404 -0.263814,0.275166 0.657317,0.874336 1.538205,2.445484 1.958537,3.128973 1.055292,1.699834 1.851224,3.328691 2.325195,4.402744 0.675203,1.482377 2.244745,5.845189 2.244745,5.845189 l 1.004883,2.767263 c 0,0 1.682514,0.934235 2.599174,1.955033 0.751217,0.825516 2.307327,2.720669 3.599604,6.093727 0.581303,1.491265 1.740862,2.858261 1.740862,2.858261 0,0 -0.245618,0.473314 -1.278535,-1.315292 -1.019521,-1.810816 -2.01756,-5.209042 -4.472444,-7.854244 -1.864638,-2.028292 -6.882595,-4.074232 -6.882595,-4.074232 0,0 3.223986,5.618807 4.024407,6.621866 1.354878,1.606646 3.313415,3.861282 3.818704,4.456 0.523175,0.60804 3.554872,4.353942 4.002032,4.953094 0.706522,0.93648 1.171568,1.349238 1.542696,1.730933 0.800402,0.852144 3.169471,2.405571 3.3528,2.650331 0.03577,0.248538 0.08304,0.04289 -0.118082,-0.103482 -1.050803,-0.625798 -2.305794,-1.6163 -3.602543,-2.459574 -1.292259,-0.856578 -6.282421,-2.985669 -9.643926,-7.618956 -0.795932,-1.371412 -1.176021,-1.917309 -1.444306,-1.775282 -0.411389,0.217475 2.262594,9.06735 7.762607,11.881207 0,0 6.067903,2.698456 7.413837,3.510666 0.737821,0.44382 2.226841,1.10068 2.915458,1.65547 0.393486,0.32399 -0.357713,0.30625 -0.406899,0.29738 -3.224005,-0.25299 -7.852072,-0.67908 -10.691498,-2.32567 0,0 -1.220735,-0.85658 -0.219118,0.34618 0.795949,0.93204 2.307345,3.22661 5.222785,4.51814 2.91993,1.28266 7.163437,2.02829 8.715057,2.10819 1.524809,0.0843 6.962223,0.11097 8.004101,0.44826 1.019502,0.34618 2.75414,1.45752 3.746832,1.77707 0.903264,0.29292 3.626433,1.33593 3.626433,1.33593 0,0 0.818307,0.44826 1.256506,0.60804 0.491875,0.19527 2.531975,0.17795 2.675078,-0.20375 0.138706,-0.34174 -0.582069,-0.86322 -0.582069,-0.86322"
     id="path2682"
     style="fill:#009b3a;fill-opacity:1;fill-rule:nonzero;stroke:#000000;stroke-width:0.54986846;stroke-miterlimit:4;stroke-opacity:1;stroke-dasharray:none"
     inkscape:connector-curvature="0" />
  <path
     d="m 115.82131,66.183184 c 0.61708,0.226345 0.88983,2.054919 0.88983,2.054919 0,0 -0.0537,-1.047444 -0.0537,-1.562278 0,-0.519287 -0.25489,-2.467678 -0.25489,-2.467678 l -0.54553,0.390565 c -0.65285,0.519288 -1.01504,1.43801 -1.01504,1.43801 0,0 0.3756,-0.06205 0.97926,0.146553"
     id="path2622"
     style="fill:#009b3a;fill-opacity:1;fill-rule:nonzero;stroke:#000000;stroke-width:0.68733555;stroke-miterlimit:4;stroke-opacity:1;stroke-dasharray:none"
     inkscape:connector-curvature="0" />
</svg>
