<?xml version="1.0" encoding="UTF-8" standalone="no"?>
<!-- Created with Inkscape (http://www.inkscape.org/) -->

<svg
   xmlns:dc="http://purl.org/dc/elements/1.1/"
   xmlns:cc="http://creativecommons.org/ns#"
   xmlns:rdf="http://www.w3.org/1999/02/22-rdf-syntax-ns#"
   xmlns:svg="http://www.w3.org/2000/svg"
   xmlns="http://www.w3.org/2000/svg"
   xmlns:xlink="http://www.w3.org/1999/xlink"
   xmlns:sodipodi="http://sodipodi.sourceforge.net/DTD/sodipodi-0.dtd"
   xmlns:inkscape="http://www.inkscape.org/namespaces/inkscape"
   version="1.0"
   width="510"
   height="414.05637"
   id="svg2626"
   sodipodi:version="0.32"
   inkscape:version="0.47 r22583"
   sodipodi:docname="ZZ2.svg"
   inkscape:output_extension="org.inkscape.output.svg.inkscape">
  <metadata
     id="metadata2795">
    <rdf:RDF>
      <cc:Work
         rdf:about="">
        <dc:format>image/svg+xml</dc:format>
        <dc:type
           rdf:resource="http://purl.org/dc/dcmitype/StillImage" />
      </cc:Work>
    </rdf:RDF>
  </metadata>
  <sodipodi:namedview
     inkscape:window-height="1004"
     inkscape:window-width="1280"
     inkscape:pageshadow="2"
     inkscape:pageopacity="0.0"
     guidetolerance="10.0"
     gridtolerance="10.0"
     objecttolerance="10.0"
     borderopacity="1.0"
     bordercolor="#666666"
     pagecolor="#ffffff"
     id="base"
     showgrid="false"
     inkscape:zoom="2.6035102"
     inkscape:cx="216.56977"
     inkscape:cy="304.70135"
     inkscape:window-x="-8"
     inkscape:window-y="-8"
     inkscape:current-layer="svg2626"
     inkscape:window-maximized="1" />
  <defs
     id="defs2629">
    <inkscape:perspective
       sodipodi:type="inkscape:persp3d"
       inkscape:vp_x="0 : 210 : 1"
       inkscape:vp_y="0 : 1000 : 0"
       inkscape:vp_z="509 : 210 : 1"
       inkscape:persp3d-origin="254.5 : 140 : 1"
       id="perspective2797" />
  </defs>
  <g
     id="g3751"
     transform="translate(0.5,-6.4436261)">
    <path
       d="m 356.9375,303.71875 -103.875,3.125 -103.40625,1.21875 c 0,0 -53.126272,20.367 -74.84375,24.9375 -21.653527,4.55705 -18.837778,11.93112 -35.59375,15.8125 -13.421121,3.10889 -14.969021,4.08918 -22.84375,4.625 C 11.60973,353.76175 5.7404427,357.56203 0,361.75 l 0,58.25 509,0 0,-55.40625 c -5.51734,-3.11634 -10.77515,-5.26015 -16.15625,-7.15625 -7.47733,-2.63474 -12.51637,-5.51611 -25.9375,-8.625 C 450.15028,344.93112 452.96603,337.55706 431.3125,333 c -21.71748,-4.57051 -74.37499,-29.28126 -74.375,-29.28125 z"
       id="Island"
       style="fill:#016a16;fill-opacity:1;fill-rule:evenodd;stroke:#016a16;stroke-width:1px;stroke-linecap:butt;stroke-linejoin:miter;stroke-opacity:1" />
    <path
       d="m 247.8125,74.25 -2.5,50.5625 15.59375,0 -2.28125,-50.125 16.25464,-2.366251 -1.80038,-19.969887 -40.39318,1.616261 0.2259,18.134876 L 247.8125,74.25 z"
       id="Palm-center"
       style="fill:#016a16;fill-opacity:1;fill-rule:evenodd;stroke:#016a16;stroke-width:1px;stroke-linecap:butt;stroke-linejoin:miter;stroke-opacity:1" />
    <g
       id="Reflected-elements">
      <g
         id="g3357">
        <g
           transform="translate(-520,0)"
           id="Pikes">
          <path
             d="m 730.96858,213.29843 -13.5602,-30.2356 5.86387,-1.28273 24.73822,50.20943 -17.04189,-18.6911 z"
             id="path2976"
             style="fill:#f1b517;fill-opacity:1;fill-rule:evenodd;stroke:#000000;stroke-width:1px;stroke-linecap:butt;stroke-linejoin:miter;stroke-opacity:1" />
          <path
             d="m 699.63351,147.69633 15.02618,42.51309 7.69633,0 -22.72251,-42.51309 z"
             id="path2970"
             style="fill:#ffffff;fill-opacity:1;fill-rule:evenodd;stroke:#000000;stroke-width:1px;stroke-linecap:butt;stroke-linejoin:miter;stroke-opacity:1" />
          <path
             d="m 745.07854,174.08377 7.51308,-0.18325 13.74346,59.92147 -2.93193,18.87435 -18.32461,-78.61257 z"
             id="path2980"
             style="fill:#f1b517;fill-opacity:1;fill-rule:evenodd;stroke:#000000;stroke-width:1px;stroke-linecap:butt;stroke-linejoin:miter;stroke-opacity:1" />
          <path
             d="m 751.49215,235.8377 -23.08901,-64.31938 8.61257,-0.54973 26.93717,78.61256 -12.46073,-13.74345 z"
             id="path2978"
             style="fill:#f1b517;fill-opacity:1;fill-rule:evenodd;stroke:#000000;stroke-width:1px;stroke-linecap:butt;stroke-linejoin:miter;stroke-opacity:1" />
          <path
             d="m 717.59162,134.86911 9.5288,44.71204 7.69633,0 -17.22513,-44.71204 z"
             id="path2972"
             style="fill:#ffffff;fill-opacity:1;fill-rule:evenodd;stroke:#000000;stroke-width:1px;stroke-linecap:butt;stroke-linejoin:miter;stroke-opacity:1" />
          <path
             d="m 737.19896,134.13612 5.13089,46.17801 5.49738,-0.36649 -10.62827,-45.81152 z"
             id="path2974"
             style="fill:#ffffff;fill-opacity:1;fill-rule:evenodd;stroke:#000000;stroke-width:1px;stroke-linecap:butt;stroke-linejoin:miter;stroke-opacity:1" />
        </g>
        <g
           transform="translate(-520,0)"
           id="Flags">
          <path
             d="m 732.81159,217.85861 -61.50262,-69.59413 c -19.20893,15.76583 -15.64015,44.71502 -15.64015,44.71502 l 69.68512,56.67223 7.45765,-31.79312 z"
             id="path3038"
             style="fill:#0a328c;fill-opacity:1;fill-rule:evenodd;stroke:none;stroke-width:1px;stroke-linecap:butt;stroke-linejoin:miter;stroke-opacity:1" />
          <path
             d="m 768.37317,256.15906 -45.62531,-47.90595 c -19.28936,0.69386 -3.98344,30.54351 -3.01204,34.29036 l 48.63735,43.11603 0,-29.50044 z"
             id="path3019"
             style="fill:#d20014;fill-opacity:1;fill-rule:evenodd;stroke:none;stroke-width:1px;stroke-linecap:butt;stroke-linejoin:miter;stroke-opacity:1" />
          <g
             id="g2996">
            <path
               d="m 764.48979,247.92378 -94.33026,-104.695 -3.68139,2.69564 99.8257,114.95804 -1.81405,-12.95868 z"
               id="path2990"
               style="fill:#f1b517;fill-opacity:1;fill-rule:evenodd;stroke:#000000;stroke-width:1px;stroke-linecap:butt;stroke-linejoin:miter;stroke-opacity:1" />
            <path
               d="m 664.7091,136.51503 -2.07075,-2.48489 0.20708,-4.96979 -19.465,-12.83862 8.69712,20.2933 6.62639,1.24245 2.07074,2.48489 3.93442,-3.72734 z"
               id="path2992"
               style="fill:#f1b517;fill-opacity:1;fill-rule:evenodd;stroke:#000000;stroke-width:1px;stroke-linecap:butt;stroke-linejoin:miter;stroke-opacity:1" />
            <path
               d="m 654.76952,143.96971 c 3.31319,-4.14149 7.24761,-8.28297 14.28814,-12.21739 l 5.38394,8.0759 -11.59617,10.14665 -8.07591,-6.00516 z"
               id="path2994"
               style="fill:#f1b517;fill-opacity:1;fill-rule:evenodd;stroke:#000000;stroke-width:1px;stroke-linecap:butt;stroke-linejoin:miter;stroke-opacity:1" />
          </g>
          <path
             d="m 705.94102,236.30061 -77.26844,-63.61399 c -13.22879,13.95366 -2.23014,57.03773 -2.23014,57.03773 l 75.52168,42.40737 3.9769,-35.83111 z"
             id="path3042"
             style="fill:#0a328c;fill-opacity:1;fill-rule:evenodd;stroke:none;stroke-width:1px;stroke-linecap:butt;stroke-linejoin:miter;stroke-opacity:1" />
          <path
             d="m 770.01498,287.83835 -63.56099,-52.7748 c -21.70679,3.1574 -4.64254,36.26955 -3.34829,39.91747 l 67.12536,37.73168 -0.21608,-24.87435 z"
             id="path3034"
             style="fill:#d20014;fill-opacity:1;fill-rule:evenodd;stroke:none;stroke-width:1px;stroke-linecap:butt;stroke-linejoin:miter;stroke-opacity:1" />
          <g
             transform="matrix(0.9848077,-0.1736483,0.1736483,0.9848077,-54.790605,145.56389)"
             id="g3003">
            <path
               d="M 786.93684,272.4 670.15953,143.22878 666.47814,145.92442 788.33536,286.02883 786.93684,272.4 z"
               id="path3005"
               style="fill:#f1b517;fill-opacity:1;fill-rule:evenodd;stroke:#000000;stroke-width:1px;stroke-linecap:butt;stroke-linejoin:miter;stroke-opacity:1" />
            <path
               d="m 664.7091,136.51503 -2.07075,-2.48489 0.20708,-4.96979 -19.465,-12.83862 8.69712,20.2933 6.62639,1.24245 2.07074,2.48489 3.93442,-3.72734 z"
               id="path3007"
               style="fill:#f1b517;fill-opacity:1;fill-rule:evenodd;stroke:#000000;stroke-width:1px;stroke-linecap:butt;stroke-linejoin:miter;stroke-opacity:1" />
            <path
               d="m 654.76952,143.96971 c 3.31319,-4.14149 7.24761,-8.28297 14.28814,-12.21739 l 5.38394,8.0759 -11.59617,10.14665 -8.07591,-6.00516 z"
               id="path3009"
               style="fill:#f1b517;fill-opacity:1;fill-rule:evenodd;stroke:#000000;stroke-width:1px;stroke-linecap:butt;stroke-linejoin:miter;stroke-opacity:1" />
          </g>
          <path
             d="m 700.40955,275.20256 c -1.02512,-0.25627 -99.58917,-58.21171 -99.58917,-58.21171 -7.1758,12.55765 -0.68613,30.77556 2.45956,33.60896 0.18228,8.36137 -3.2405,12.858 3.8002,30.32056 2.07651,11.35391 7.14459,21.81423 14.52193,28.02728 8.98769,35.771 44.22122,38.17356 57.79263,9.05345 l 21.01485,-42.79854 z"
             id="path3044"
             style="fill:#0a328c;fill-opacity:1;fill-rule:evenodd;stroke:none;stroke-width:1px;stroke-linecap:butt;stroke-linejoin:miter;stroke-opacity:1" />
          <path
             d="m 765.63819,313.45041 -67.48607,-40.99958 c -21.70679,3.1574 0.46006,44.90472 1.75431,48.55264 l 65.16282,23.99392 0.56894,-31.54698 z"
             id="path3036"
             style="fill:#d20014;fill-opacity:1;fill-rule:evenodd;stroke:none;stroke-width:1px;stroke-linecap:butt;stroke-linejoin:miter;stroke-opacity:1" />
          <g
             transform="matrix(0.9455187,-0.3255682,0.3255682,0.9455187,-78.456101,297.23336)"
             id="g3011">
            <path
               d="M 786.93684,272.4 670.15953,143.22878 666.47814,145.92442 788.33536,286.02883 786.93684,272.4 z"
               id="path3013"
               style="fill:#f1b517;fill-opacity:1;fill-rule:evenodd;stroke:#000000;stroke-width:1px;stroke-linecap:butt;stroke-linejoin:miter;stroke-opacity:1" />
            <path
               d="m 664.7091,136.51503 -2.07075,-2.48489 0.20708,-4.96979 -19.465,-12.83862 8.69712,20.2933 6.62639,1.24245 2.07074,2.48489 3.93442,-3.72734 z"
               id="path3015"
               style="fill:#f1b517;fill-opacity:1;fill-rule:evenodd;stroke:#000000;stroke-width:1px;stroke-linecap:butt;stroke-linejoin:miter;stroke-opacity:1" />
            <path
               d="m 654.76952,143.96971 c 3.31319,-4.14149 7.24761,-8.28297 14.28814,-12.21739 l 5.38394,8.0759 -11.59617,10.14665 -8.07591,-6.00516 z"
               id="path3017"
               style="fill:#f1b517;fill-opacity:1;fill-rule:evenodd;stroke:#000000;stroke-width:1px;stroke-linecap:butt;stroke-linejoin:miter;stroke-opacity:1" />
          </g>
          <g
             id="g3050">
            <path
               d="m 644.40741,161.63479 c 0,0 3.16181,5.72137 3.16181,5.72137 1.95731,-0.75281 21.68099,-19.272 21.68099,-19.272 l 14.15288,-0.45168 4.06518,-4.66744 c -10.38881,-11.59331 -20.17537,1.65618 -20.17537,1.65618 l -22.88549,17.01357 z"
               id="path3048"
               style="fill:#0a328c;fill-opacity:1;fill-rule:evenodd;stroke:#0a328c;stroke-width:1px;stroke-linecap:butt;stroke-linejoin:miter;stroke-opacity:1" />
            <path
               d="m 655.69959,171.27079 c 0.75281,-5.11912 10.08769,-17.91694 11.44275,-18.36863 7.00868,2.18065 13.5281,6.36155 20.62706,-10.23825 -6.17306,8.13037 -18.66975,-0.15055 -18.66975,-0.15055 l -5.42025,4.66743 0.15057,2.25844 -16.41131,15.80906 8.28093,6.0225 z"
               id="path3046"
               style="fill:#d20014;fill-opacity:1;fill-rule:evenodd;stroke:#d20014;stroke-width:1px;stroke-linecap:butt;stroke-linejoin:miter;stroke-opacity:1" />
          </g>
          <g
             transform="matrix(0.9876883,-0.1564346,0.1564346,0.9876883,-56.795568,135.1032)"
             id="g3054">
            <path
               d="m 647.1636,159.6323 c 0,0 -0.0788,5.9703 -0.0788,5.9703 1.95731,-0.75281 22.16545,-17.51844 22.16545,-17.51844 l 14.15288,-0.45168 3.52484,-4.14326 c -7.70328,-13.14968 -20.33147,0.71682 -20.33147,0.71682 l -19.4329,15.42626 z"
               id="path3056"
               style="fill:#0a328c;fill-opacity:1;fill-rule:evenodd;stroke:#0a328c;stroke-width:1px;stroke-linecap:butt;stroke-linejoin:miter;stroke-opacity:1" />
            <path
               d="m 656.37247,171.83468 c 0.20509,-5.51075 9.84616,-20.24178 11.20122,-20.69347 7.81411,3.83261 14.36447,8.78061 20.19571,-8.4773 -6.17306,8.13037 -18.70069,-0.91765 -18.70069,-0.91765 l -5.42025,4.66743 0.18151,3.02554 -16.80294,16.35679 9.34544,6.03866 z"
               id="path3058"
               style="fill:#d20014;fill-opacity:1;fill-rule:evenodd;stroke:#d20014;stroke-width:1px;stroke-linecap:butt;stroke-linejoin:miter;stroke-opacity:1" />
          </g>
          <g
             transform="matrix(0.9563048,-0.2923717,0.2923717,0.9563048,-82.536492,274.17758)"
             id="g3060">
            <path
               d="m 645.19152,160.61498 c 0,0 1.14971,7.15296 1.14971,7.15296 1.95731,-0.75281 22.90898,-19.68378 22.90898,-19.68378 l 14.15288,-0.45168 4.06518,-4.66744 c -7.28079,-13.00472 -20.17537,1.65618 -20.17537,1.65618 l -22.10138,15.99376 z"
               id="path3062"
               style="fill:#0a328c;fill-opacity:1;fill-rule:evenodd;stroke:#0a328c;stroke-width:1px;stroke-linecap:butt;stroke-linejoin:miter;stroke-opacity:1" />
            <path
               d="m 656.23518,173.63872 c 0.5969,-5.63911 9.32833,-21.61282 10.68339,-22.06451 7.26822,4.93651 13.75187,7.6895 20.85083,-8.9103 -7.16077,6.7263 -18.66975,-0.15055 -18.66975,-0.15055 l -5.42025,4.66743 0.15057,2.25844 -17.02759,17.82483 9.4328,6.37466 z"
               id="path3064"
               style="fill:#d20014;fill-opacity:1;fill-rule:evenodd;stroke:#d20014;stroke-width:1px;stroke-linecap:butt;stroke-linejoin:miter;stroke-opacity:1" />
          </g>
        </g>
        <path
           d="m 233.1752,337.2782 -37.97067,-12.20485 -16.54436,-29.29166 -58.5833,-2.98341 2.03456,21.9679 49.9043,9.9016 4.74591,8.81502 57.36324,16.5452 -0.94968,-12.7498 z"
           id="Cannon-base"
           style="fill:#f1b517;fill-opacity:1;fill-rule:evenodd;stroke:#000000;stroke-width:1px;stroke-linecap:butt;stroke-linejoin:miter;stroke-opacity:1" />
        <g
           transform="translate(-520,0)"
           id="Cannon-Loader">
          <path
             d="m 713.52004,345.46096 -59.95873,-91.41364 -2.94269,2.29428 59.48496,91.79601 3.41646,-2.67665 z"
             id="path4136"
             style="fill:#503200;fill-opacity:1;fill-rule:evenodd;stroke:#000000;stroke-width:1px;stroke-linecap:butt;stroke-linejoin:miter;stroke-opacity:1" />
          <path
             d="m 659.14088,257.63898 -6.40125,-11.10361 c -1.19828,-2.05208 -3.01809,-2.73337 -5.6921,-1.27275 -2.60362,1.42217 -2.35054,4.23269 -1.29005,6.26 l 5.91826,10.32462 7.46514,-4.20826 z"
             id="path4138"
             style="fill:#ffffff;fill-opacity:1;fill-rule:evenodd;stroke:#000000;stroke-width:1px;stroke-linecap:butt;stroke-linejoin:miter;stroke-opacity:1" />
        </g>
        <g
           transform="translate(-520,0)"
           id="Cannn-main">
          <g
             id="g4037">
            <path
               d="m 720.64279,289.00969 -120.98956,-12.74606 -2.9414,18.23667 120.40128,12.54998 3.52968,-18.04059 z"
               id="path4012"
               style="fill:#f1b517;fill-opacity:1;fill-rule:evenodd;stroke:#000000;stroke-width:1px;stroke-linecap:butt;stroke-linejoin:miter;stroke-opacity:1" />
            <path
               d="m 597.4962,271.55739 -3.13748,25.29603 5.09842,0 3.52968,-23.139 -5.49062,-2.15703 z"
               id="path4006"
               style="fill:#f1b517;fill-opacity:1;fill-rule:evenodd;stroke:#000000;stroke-width:1px;stroke-linecap:butt;stroke-linejoin:miter;stroke-opacity:1" />
            <path
               d="m 617.69381,275.67535 -1.37265,22.74682 3.13749,0.39219 2.54921,-20.19761 -4.31405,-2.9414 z"
               id="path4008"
               style="fill:#f1b517;fill-opacity:1;fill-rule:evenodd;stroke:#000000;stroke-width:1px;stroke-linecap:butt;stroke-linejoin:miter;stroke-opacity:1" />
            <path
               d="m 699.6608,285.48001 -2.94139,21.37417 5.88279,-0.1961 2.35312,-21.17807 -5.29452,0 z"
               id="path4010"
               style="fill:#f1b517;fill-opacity:1;fill-rule:evenodd;stroke:#000000;stroke-width:1px;stroke-linecap:butt;stroke-linejoin:miter;stroke-opacity:1" />
            <path
               d="m 717.6875,286.0625 -4.1875,24.71875 6.65625,1 1.90625,-13 c 0.53495,2.61206 2.85551,4.59376 5.625,4.59375 3.1651,0 5.75003,-2.58488 5.75,-5.75 0,-3.1651 -2.58493,-5.71876 -5.75,-5.71875 -2.20073,0 -4.1973,1.33764 -5.0625,3.82962 l 1.25,-9.26712 -6.1875,-0.40625 z"
               id="path4020"
               style="fill:#f1b517;fill-opacity:1;fill-rule:evenodd;stroke:#000000;stroke-width:1px;stroke-linecap:butt;stroke-linejoin:miter;stroke-opacity:1" />
          </g>
          <g
             id="g3987">
            <g
               id="g3965">
              <g
                 id="g3953">
                <g
                   id="g3943">
                  <path
                     d="m 674.02084,290.07663 -16.63907,19.41224 1.94123,2.3572 21.35347,-15.11381 -6.65563,-6.65563 z"
                     id="path3891"
                     style="fill:#f1b517;fill-opacity:1;fill-rule:evenodd;stroke:#000000;stroke-width:1px;stroke-linecap:butt;stroke-linejoin:miter;stroke-opacity:1" />
                  <path
                     d="m 635.33501,338.46857 16.63907,-19.41224 -1.94123,-2.3572 -21.35347,15.11381 6.65563,6.65563 z"
                     id="use3897"
                     style="fill:#f1b517;fill-opacity:1;fill-rule:evenodd;stroke:#000000;stroke-width:1px;stroke-linecap:butt;stroke-linejoin:miter;stroke-opacity:1" />
                  <path
                     d="m 678.87389,333.61552 -20.24419,-16.22309 -2.07989,1.52525 15.94577,20.93749 6.37831,-6.23965 z"
                     id="path3909"
                     style="fill:#f1b517;fill-opacity:1;fill-rule:evenodd;stroke:#000000;stroke-width:1px;stroke-linecap:butt;stroke-linejoin:miter;stroke-opacity:1" />
                  <path
                     d="m 628.9567,296.17762 20.52151,15.66845 2.49586,-1.94123 -16.08442,-20.93749 -6.93295,7.21027 z"
                     id="path3911"
                     style="fill:#f1b517;fill-opacity:1;fill-rule:evenodd;stroke:#000000;stroke-width:1px;stroke-linecap:butt;stroke-linejoin:miter;stroke-opacity:1" />
                  <path
                     d="m 651.28693,283.24925 1.96093,25.49212 2.76212,-0.12184 6.492,-24.81564 -11.21505,-0.55464 z"
                     id="path3927"
                     style="fill:#f1b517;fill-opacity:1;fill-rule:evenodd;stroke:#000000;stroke-width:1px;stroke-linecap:butt;stroke-linejoin:miter;stroke-opacity:1" />
                  <path
                     d="m 658.01152,345.09985 -1.96092,-25.49212 -3.03945,-0.29414 -3.71882,25.78626 8.71919,0 z"
                     id="path3929"
                     style="fill:#f1b517;fill-opacity:1;fill-rule:evenodd;stroke:#000000;stroke-width:1px;stroke-linecap:butt;stroke-linejoin:miter;stroke-opacity:1" />
                  <path
                     d="m 685.22788,310.74293 -25.78626,2.84335 -0.39219,2.54921 26.0804,3.52968 0.0981,-8.92224 z"
                     id="path3931"
                     style="fill:#f1b517;fill-opacity:1;fill-rule:evenodd;stroke:#000000;stroke-width:1px;stroke-linecap:butt;stroke-linejoin:miter;stroke-opacity:1" />
                  <path
                     d="m 623.87448,319.56712 25.17419,-4.12492 0.53084,-2.02823 -26.03979,-3.01567 0.33476,9.16882 z"
                     id="path3933"
                     style="fill:#f1b517;fill-opacity:1;fill-rule:evenodd;stroke:#000000;stroke-width:1px;stroke-linecap:butt;stroke-linejoin:miter;stroke-opacity:1" />
                </g>
                <path
                   d="m 658.86138,314.60626 c 0,2.32829 -1.88746,4.21575 -4.21575,4.21575 -2.32829,0 -4.21575,-1.88746 -4.21575,-4.21575 0,-2.32829 1.88746,-4.21575 4.21575,-4.21575 2.32829,0 4.21575,1.88746 4.21575,4.21575 z"
                   transform="matrix(1.620159,0,0,1.620159,-406.09929,-196.05698)"
                   id="use3882"
                   style="fill:#f1b517;fill-opacity:1;fill-rule:evenodd;stroke:#000000;stroke-width:0.61722338;stroke-linecap:round;stroke-linejoin:miter;stroke-miterlimit:4;stroke-opacity:1;stroke-dasharray:none;stroke-dashoffset:0;marker:none;visibility:visible;display:inline;overflow:visible;enable-background:accumulate" />
              </g>
              <path
                 d="m 690.80636,313.65513 c 0,20.02419 -16.2515,36.2756 -36.27559,36.2756 -20.0241,0 -36.2756,-16.25141 -36.2756,-36.2756 0,-20.02409 16.2515,-36.27559 36.2756,-36.27559 20.02409,0 36.27559,16.2515 36.27559,36.27559 z m -7.24666,4e-5 c 0,16.02404 -13.00502,29.02899 -29.02899,29.02899 -16.02398,0 -29.02899,-13.00495 -29.02899,-29.02899 0,-16.02398 13.00501,-29.02899 29.02899,-29.02899 16.02397,0 29.02899,13.00501 29.02899,29.02899 z"
                 id="use3874"
                 style="fill:#f1b517;fill-opacity:1;fill-rule:evenodd;stroke:#000000;stroke-width:1;stroke-linecap:round;stroke-linejoin:miter;stroke-miterlimit:4;stroke-opacity:1;stroke-dasharray:none;stroke-dashoffset:0;marker:none;visibility:visible;display:inline;overflow:visible;enable-background:accumulate" />
            </g>
            <path
               d="m 631.86854,295.34566 -5.68502,-4.43708"
               id="path3979"
               style="fill:none;stroke:#000000;stroke-width:1px;stroke-linecap:butt;stroke-linejoin:miter;stroke-opacity:1" />
            <path
               d="m 672.49559,291.04724 4.85306,-5.13038"
               id="path3981"
               style="fill:none;stroke:#000000;stroke-width:1px;stroke-linecap:butt;stroke-linejoin:miter;stroke-opacity:1" />
            <path
               d="m 682.895,336.80467 -5.96233,-4.85306"
               id="path3983"
               style="fill:none;stroke:#000000;stroke-width:1px;stroke-linecap:butt;stroke-linejoin:miter;stroke-opacity:1" />
            <path
               d="m 631.86854,342.35102 5.13037,-5.68501"
               id="path3985"
               style="fill:none;stroke:#000000;stroke-width:1px;stroke-linecap:butt;stroke-linejoin:miter;stroke-opacity:1" />
          </g>
        </g>
        <g
           transform="translate(-520,0)"
           id="Axe">
          <path
             d="m 754.03964,277.83067 6.21162,32.81446 -5.0667,2.76616 -5.45068,-35.11133 4.30576,-0.46929 z"
             id="path4368"
             style="fill:#f1b517;fill-opacity:1;fill-rule:evenodd;stroke:#000000;stroke-width:1px;stroke-linecap:butt;stroke-linejoin:miter;stroke-opacity:1" />
          <path
             d="m 750.79091,273.60489 c -2.8799,-1.24796 -6.62378,0.86397 -12.76757,-7.19976 -10.10189,9.59968 -0.57599,11.03964 0.95996,20.54332 2.85662,1.21685 4.61638,-7.37427 12.38359,-8.25573 0.95997,-0.096 12.35826,-1.13226 12.35826,-1.13226 0,0 -2.86129,-4.04237 -2.86129,-4.04237 0,0 -7.92739,0.2155 -10.07295,0.0868 z"
             id="path4370"
             style="fill:#ffffff;fill-opacity:1;fill-rule:evenodd;stroke:#000000;stroke-width:1px;stroke-linecap:butt;stroke-linejoin:miter;stroke-opacity:1" />
          <path
             d="m 754.91877,280.03668 -1.15196,-9.79168 c -1.24796,-3.45588 -5.37582,-0.47998 -5.37582,1.53595 l 1.05596,9.0237 5.47182,-0.76797 z"
             id="path4372"
             style="fill:#ffffff;fill-opacity:1;fill-rule:evenodd;stroke:#000000;stroke-width:1px;stroke-linecap:butt;stroke-linejoin:miter;stroke-opacity:1" />
        </g>
        <g
           transform="translate(-520,0)"
           id="Cannon-balls">
          <path
             d="m 685.3163,361.21594 c 0.002,1.55346 -0.82548,2.98981 -2.17048,3.76714 -1.34499,0.77733 -3.00268,0.77733 -4.34767,0 -1.345,-0.77733 -2.17256,-2.21368 -2.17048,-3.76714 -0.002,-1.55346 0.82548,-2.98981 2.17048,-3.76714 1.34499,-0.77733 3.00268,-0.77733 4.34767,0 1.345,0.77733 2.17256,2.21368 2.17048,3.76714 z"
             transform="matrix(0.9159263,0,0,0.9159263,56.844568,30.233008)"
             id="path2448"
             style="fill:#f1b517;fill-opacity:1;fill-rule:evenodd;stroke:#000000;stroke-width:1.09179091;stroke-linecap:round;stroke-linejoin:miter;stroke-miterlimit:4;stroke-opacity:1;stroke-dasharray:none;stroke-dashoffset:0;marker:none;visibility:visible;display:inline;overflow:visible;enable-background:accumulate" />
          <path
             d="m 685.3163,361.21594 c 0.002,1.55346 -0.82548,2.98981 -2.17048,3.76714 -1.34499,0.77733 -3.00268,0.77733 -4.34767,0 -1.345,-0.77733 -2.17256,-2.21368 -2.17048,-3.76714 -0.002,-1.55346 0.82548,-2.98981 2.17048,-3.76714 1.34499,-0.77733 3.00268,-0.77733 4.34767,0 1.345,0.77733 2.17256,2.21368 2.17048,3.76714 z"
             transform="matrix(0.9159263,0,0,0.9159263,46.662582,22.766193)"
             id="path3220"
             style="fill:#f1b517;fill-opacity:1;fill-rule:evenodd;stroke:#000000;stroke-width:1.09179091;stroke-linecap:round;stroke-linejoin:miter;stroke-miterlimit:4;stroke-opacity:1;stroke-dasharray:none;stroke-dashoffset:0;marker:none;visibility:visible;display:inline;overflow:visible;enable-background:accumulate" />
          <path
             d="m 685.3163,361.21594 c 0.002,1.55346 -0.82548,2.98981 -2.17048,3.76714 -1.34499,0.77733 -3.00268,0.77733 -4.34767,0 -1.345,-0.77733 -2.17256,-2.21368 -2.17048,-3.76714 -0.002,-1.55346 0.82548,-2.98981 2.17048,-3.76714 1.34499,-0.77733 3.00268,-0.77733 4.34767,0 1.345,0.77733 2.17256,2.21368 2.17048,3.76714 z"
             transform="matrix(0.9159263,0,0,0.9159263,32.950826,27.653552)"
             id="path3222"
             style="fill:#f1b517;fill-opacity:1;fill-rule:evenodd;stroke:#000000;stroke-width:1.09179091;stroke-linecap:round;stroke-linejoin:miter;stroke-miterlimit:4;stroke-opacity:1;stroke-dasharray:none;stroke-dashoffset:0;marker:none;visibility:visible;display:inline;overflow:visible;enable-background:accumulate" />
          <path
             d="m 685.3163,361.21594 c 0.002,1.55346 -0.82548,2.98981 -2.17048,3.76714 -1.34499,0.77733 -3.00268,0.77733 -4.34767,0 -1.345,-0.77733 -2.17256,-2.21368 -2.17048,-3.76714 -0.002,-1.55346 0.82548,-2.98981 2.17048,-3.76714 1.34499,-0.77733 3.00268,-0.77733 4.34767,0 1.345,0.77733 2.17256,2.21368 2.17048,3.76714 z"
             transform="matrix(0.9159263,0,0,0.9159263,11.77227,32.405151)"
             id="path3224"
             style="fill:#f1b517;fill-opacity:1;fill-rule:evenodd;stroke:#000000;stroke-width:1.09179091;stroke-linecap:round;stroke-linejoin:miter;stroke-miterlimit:4;stroke-opacity:1;stroke-dasharray:none;stroke-dashoffset:0;marker:none;visibility:visible;display:inline;overflow:visible;enable-background:accumulate" />
          <path
             d="m 685.3163,361.21594 c 0.002,1.55346 -0.82548,2.98981 -2.17048,3.76714 -1.34499,0.77733 -3.00268,0.77733 -4.34767,0 -1.345,-0.77733 -2.17256,-2.21368 -2.17048,-3.76714 -0.002,-1.55346 0.82548,-2.98981 2.17048,-3.76714 1.34499,-0.77733 3.00268,-0.77733 4.34767,0 1.345,0.77733 2.17256,2.21368 2.17048,3.76714 z"
             transform="matrix(0.9159263,0,0,0.9159263,2.8121118,33.491231)"
             id="path3226"
             style="fill:#f1b517;fill-opacity:1;fill-rule:evenodd;stroke:#000000;stroke-width:1.09179091;stroke-linecap:round;stroke-linejoin:miter;stroke-miterlimit:4;stroke-opacity:1;stroke-dasharray:none;stroke-dashoffset:0;marker:none;visibility:visible;display:inline;overflow:visible;enable-background:accumulate" />
          <path
             d="m 685.3163,361.21594 c 0.002,1.55346 -0.82548,2.98981 -2.17048,3.76714 -1.34499,0.77733 -3.00268,0.77733 -4.34767,0 -1.345,-0.77733 -2.17256,-2.21368 -2.17048,-3.76714 -0.002,-1.55346 0.82548,-2.98981 2.17048,-3.76714 1.34499,-0.77733 3.00268,-0.77733 4.34767,0 1.345,0.77733 2.17256,2.21368 2.17048,3.76714 z"
             transform="matrix(0.9159263,0,0,0.9159263,-6.0122862,33.49123)"
             id="path3228"
             style="fill:#f1b517;fill-opacity:1;fill-rule:evenodd;stroke:#000000;stroke-width:1.09179091;stroke-linecap:round;stroke-linejoin:miter;stroke-miterlimit:4;stroke-opacity:1;stroke-dasharray:none;stroke-dashoffset:0;marker:none;visibility:visible;display:inline;overflow:visible;enable-background:accumulate" />
          <path
             d="m 685.3163,361.21594 c 0.002,1.55346 -0.82548,2.98981 -2.17048,3.76714 -1.34499,0.77733 -3.00268,0.77733 -4.34767,0 -1.345,-0.77733 -2.17256,-2.21368 -2.17048,-3.76714 -0.002,-1.55346 0.82548,-2.98981 2.17048,-3.76714 1.34499,-0.77733 3.00268,-0.77733 4.34767,0 1.345,0.77733 2.17256,2.21368 2.17048,3.76714 z"
             transform="matrix(0.9159263,0,0,0.9159263,-14.972444,33.219711)"
             id="path3230"
             style="fill:#f1b517;fill-opacity:1;fill-rule:evenodd;stroke:#000000;stroke-width:1.09179091;stroke-linecap:round;stroke-linejoin:miter;stroke-miterlimit:4;stroke-opacity:1;stroke-dasharray:none;stroke-dashoffset:0;marker:none;visibility:visible;display:inline;overflow:visible;enable-background:accumulate" />
          <path
             d="m 685.3163,361.21594 c 0.002,1.55346 -0.82548,2.98981 -2.17048,3.76714 -1.34499,0.77733 -3.00268,0.77733 -4.34767,0 -1.345,-0.77733 -2.17256,-2.21368 -2.17048,-3.76714 -0.002,-1.55346 0.82548,-2.98981 2.17048,-3.76714 1.34499,-0.77733 3.00268,-0.77733 4.34767,0 1.345,0.77733 2.17256,2.21368 2.17048,3.76714 z"
             transform="matrix(0.9159263,0,0,0.9159263,-10.628125,26.160192)"
             id="path3232"
             style="fill:#f1b517;fill-opacity:1;fill-rule:evenodd;stroke:#000000;stroke-width:1.09179091;stroke-linecap:round;stroke-linejoin:miter;stroke-miterlimit:4;stroke-opacity:1;stroke-dasharray:none;stroke-dashoffset:0;marker:none;visibility:visible;display:inline;overflow:visible;enable-background:accumulate" />
          <path
             d="m 685.3163,361.21594 c 0.002,1.55346 -0.82548,2.98981 -2.17048,3.76714 -1.34499,0.77733 -3.00268,0.77733 -4.34767,0 -1.345,-0.77733 -2.17256,-2.21368 -2.17048,-3.76714 -0.002,-1.55346 0.82548,-2.98981 2.17048,-3.76714 1.34499,-0.77733 3.00268,-0.77733 4.34767,0 1.345,0.77733 2.17256,2.21368 2.17048,3.76714 z"
             transform="matrix(0.9159263,0,0,0.9159263,-1.9394871,26.567472)"
             id="path3234"
             style="fill:#f1b517;fill-opacity:1;fill-rule:evenodd;stroke:#000000;stroke-width:1.09179091;stroke-linecap:round;stroke-linejoin:miter;stroke-miterlimit:4;stroke-opacity:1;stroke-dasharray:none;stroke-dashoffset:0;marker:none;visibility:visible;display:inline;overflow:visible;enable-background:accumulate" />
          <path
             d="m 685.3163,361.21594 c 0.002,1.55346 -0.82548,2.98981 -2.17048,3.76714 -1.34499,0.77733 -3.00268,0.77733 -4.34767,0 -1.345,-0.77733 -2.17256,-2.21368 -2.17048,-3.76714 -0.002,-1.55346 0.82548,-2.98981 2.17048,-3.76714 1.34499,-0.77733 3.00268,-0.77733 4.34767,0 1.345,0.77733 2.17256,2.21368 2.17048,3.76714 z"
             transform="matrix(0.9159263,0,0,0.9159263,6.341871,25.481392)"
             id="path3236"
             style="fill:#f1b517;fill-opacity:1;fill-rule:evenodd;stroke:#000000;stroke-width:1.09179091;stroke-linecap:round;stroke-linejoin:miter;stroke-miterlimit:4;stroke-opacity:1;stroke-dasharray:none;stroke-dashoffset:0;marker:none;visibility:visible;display:inline;overflow:visible;enable-background:accumulate" />
          <path
             d="m 685.3163,361.21594 c 0.002,1.55346 -0.82548,2.98981 -2.17048,3.76714 -1.34499,0.77733 -3.00268,0.77733 -4.34767,0 -1.345,-0.77733 -2.17256,-2.21368 -2.17048,-3.76714 -0.002,-1.55346 0.82548,-2.98981 2.17048,-3.76714 1.34499,-0.77733 3.00268,-0.77733 4.34767,0 1.345,0.77733 2.17256,2.21368 2.17048,3.76714 z"
             transform="matrix(0.9159263,0,0,0.9159263,2.133312,18.557634)"
             id="path3238"
             style="fill:#f1b517;fill-opacity:1;fill-rule:evenodd;stroke:#000000;stroke-width:1.09179091;stroke-linecap:round;stroke-linejoin:miter;stroke-miterlimit:4;stroke-opacity:1;stroke-dasharray:none;stroke-dashoffset:0;marker:none;visibility:visible;display:inline;overflow:visible;enable-background:accumulate" />
          <path
             d="m 685.3163,361.21594 c 0.002,1.55346 -0.82548,2.98981 -2.17048,3.76714 -1.34499,0.77733 -3.00268,0.77733 -4.34767,0 -1.345,-0.77733 -2.17256,-2.21368 -2.17048,-3.76714 -0.002,-1.55346 0.82548,-2.98981 2.17048,-3.76714 1.34499,-0.77733 3.00268,-0.77733 4.34767,0 1.345,0.77733 2.17256,2.21368 2.17048,3.76714 z"
             transform="matrix(0.9159263,0,0,0.9159263,-6.0122862,18.421874)"
             id="path3240"
             style="fill:#f1b517;fill-opacity:1;fill-rule:evenodd;stroke:#000000;stroke-width:1.09179091;stroke-linecap:round;stroke-linejoin:miter;stroke-miterlimit:4;stroke-opacity:1;stroke-dasharray:none;stroke-dashoffset:0;marker:none;visibility:visible;display:inline;overflow:visible;enable-background:accumulate" />
        </g>
        <g
           transform="translate(-520,0)"
           id="Gunpowder">
          <path
             d="m 689.92798,334.72653 c -3.42286,-1.4339 -3.38981,6.53269 -3.38981,6.53269 l 5.39316,0.0583 c 2.35899,1.11012 4.25659,4.69743 2.75244,6.45821 -1.24366,1.45584 -11.70995,-2.45873 -12.41243,-0.20724 1.85019,10.82363 15.68698,14.98835 20.69379,10.25347 4.89691,-4.63094 6.13694,-16.99039 -9.77472,-20.22823 l -3.26243,-2.86717 z"
             id="path3256"
             style="fill:#ffffff;fill-opacity:1;fill-rule:evenodd;stroke:#000000;stroke-width:1px;stroke-linecap:butt;stroke-linejoin:miter;stroke-opacity:1" />
          <path
             d="m 693.12848,337.66642 -1.57267,3.56162"
             id="path3258"
             style="fill:none;stroke:#000000;stroke-width:1px;stroke-linecap:butt;stroke-linejoin:miter;stroke-opacity:1" />
        </g>
        <g
           transform="translate(-520,0)"
           id="Small-flag">
          <path
             d="m 585.95606,338.77654 -5.18054,-22.57236"
             id="path3418"
             style="fill:none;stroke:#000000;stroke-width:1px;stroke-linecap:butt;stroke-linejoin:miter;stroke-opacity:1" />
          <path
             d="m 592.24671,337.4814 -7.95582,-17.57683"
             id="path3420"
             style="fill:none;stroke:#000000;stroke-width:1px;stroke-linecap:butt;stroke-linejoin:miter;stroke-opacity:1" />
          <path
             d="m 605.93814,332.85592 -17.94687,-9.99104"
             id="path3422"
             style="fill:none;stroke:#000000;stroke-width:1px;stroke-linecap:butt;stroke-linejoin:miter;stroke-opacity:1" />
          <path
             d="M 613.70895,330.82071 580.40548,315.83415"
             id="path3424"
             style="fill:none;stroke:#000000;stroke-width:1px;stroke-linecap:butt;stroke-linejoin:miter;stroke-opacity:1" />
          <path
             d="m 560.53125,299.51833 c 0,0 -12.12121,-0.19813 -14.28291,0.68014 -0.87225,0.35438 3.0488,4.59659 2.23474,6.21841 -3.02833,6.03321 -23.63336,5.20648 -25.26228,3.8865 -2.78685,-2.2583 19.19112,-4.19575 19.33536,-5.73259 0.16557,-1.76409 -3.25017,-6.39254 -2.72055,-9.23045 0.68716,-3.68208 9.6191,-5.05246 9.6191,-5.05246 l 11.07654,9.23045 z"
             id="path3430"
             style="fill:#d20014;fill-opacity:1;fill-rule:evenodd;stroke:#d20014;stroke-width:1px;stroke-linecap:butt;stroke-linejoin:miter;stroke-opacity:1" />
          <path
             d="m 576.76299,310.8779 -27.44075,-23.53672 c 0,0 -1.20889,-1.32788 -2.22023,-0.18502 -0.9903,1.11908 0.37004,2.40525 0.37004,2.40525 l 28.30795,24.23752 0.98299,-2.92103 z"
             id="path3426"
             style="fill:#503200;fill-opacity:1;fill-rule:evenodd;stroke:#000000;stroke-width:1px;stroke-linecap:butt;stroke-linejoin:miter;stroke-opacity:1" />
          <path
             d="m 603.18564,334.10823 c -0.48581,-0.48581 -22.3474,-20.11266 -22.3474,-20.11266 l -1.45744,-5.7326 c 0,0 -3.3764,2.37077 -4.61523,3.59501 -1.23882,1.22425 -3.15778,4.56665 -3.15778,4.56665 l 6.12124,0.29149 19.33537,18.36374 6.12124,-0.97163 z"
             id="path3428"
             style="fill:#f1b517;fill-opacity:1;fill-rule:evenodd;stroke:#000000;stroke-width:1px;stroke-linecap:butt;stroke-linejoin:miter;stroke-opacity:1" />
        </g>
        <path
           d="m 204.83327,307.09702 0.10138,9.12485 c -2.88125,1.02238 -2.44172,3.26109 -2.34878,6.51411 l 0.10138,26.59725 c -1.02238,1.76593 -4.18246,1.84817 -5.66956,3.23162 -1.48709,1.38345 -1.3012,4.06811 5.48367,5.83404 l 5.24678,0.19432 c 7.99314,-1.8124 9.64289,-4.55622 5.6347,-6.10339 -2.13214,-0.82301 -4.93762,-1.80475 -6.00647,-3.10596 l 0.17745,-6.33667 5.18759,0.19433 c 1.39415,0 4.04708,-3.63287 4.14002,-6.60706 l 0.0253,-13.77178 c -0.18589,-7.80725 -5.83807,-8.68545 -7.41811,-8.59251 l 0.10982,-7.19003 -4.76519,0.0169 z m 8.76962,15.21938 c 0.0929,-2.23064 -2.98813,-4.21963 -4.22893,-4.2754 -1.24079,-0.0558 -3.9501,2.60242 -4.04304,4.83306 l 0,5.57661 c 0.18589,2.04476 1.76163,8.97091 4.926,9.48024 1.49899,0.24127 3.43891,-2.23064 3.43891,-4.2754 l -0.0929,-11.33911 z"
           id="Trumpet"
           style="fill:#f1b517;fill-opacity:1;fill-rule:evenodd;stroke:#000000;stroke-width:1px;stroke-linecap:butt;stroke-linejoin:miter;stroke-opacity:1" />
        <g
           transform="translate(-520,0)"
           id="Palm-leaves">
          <path
             d="M 773.51765,53.596901 C 731.76231,10.275737 698.87999,31.414377 691.05086,37.416707 c 5.1753,1.047612 9.82049,-2.293721 12.22449,-2.67836 -1.5066,1.971135 -4.65634,6.853894 -4.65634,6.853894 0,0 12.911,-6.318318 14.3534,-5.741359 -1.86099,1.538558 -3.91456,5.219417 -3.91456,5.219417 0.9616,0.38464 8.22241,-5.89316 9.65592,-6.00233 -2.21168,2.596317 -2.89819,8.515879 -2.89819,8.515879 l 6.29081,-3.035491 c 1.63472,1.201999 -0.45441,3.513194 0.96697,3.392258 10.45595,-0.889626 25.15777,9.907556 27.17713,13.225073"
             id="path3811"
             style="fill:#016a16;fill-opacity:1;fill-rule:evenodd;stroke:#000000;stroke-width:1px;stroke-linecap:butt;stroke-linejoin:miter;stroke-opacity:1" />
          <path
             d="m 763.17941,61.528701 c -4.3517,-10.335288 -83.83388,-27.901804 -99.81712,1.359906 6.25557,1.631888 12.23916,-5.439625 12.23916,-5.439625 l -0.54397,6.52755 10.60727,-8.431419 -3.80773,8.7034 8.43141,-7.071512 -0.27198,7.071512 10.33529,-11.695194 -1.3599,6.799532 9.24736,-4.079719 -1.08793,5.711606"
             id="path3813"
             style="fill:#016a16;fill-opacity:1;fill-rule:evenodd;stroke:#000000;stroke-width:1px;stroke-linecap:butt;stroke-linejoin:miter;stroke-opacity:1" />
          <path
             d="m 759.64366,63.160588 c -20.39859,-14.143025 -51.94842,-4.623681 -51.94842,-4.623681 -20.12661,11.695194 -30.85455,9.585338 -33.4537,31.277845 1.90387,-0.815944 7.34349,-7.615475 7.34349,-7.615475 l 4.07972,8.431418 1.35991,-11.967175 3.26377,9.247363 4.89567,-15.230951 1.08792,10.335288 7.61548,-10.335288 3.53575,2.991794 3.26378,-7.887456 2.99179,5.167644 c 0,0 5.16765,-3.263776 8.15944,-1.359907 l 5.71161,-6.799531 1.3599,4.895663 4.89567,-5.983588 1.90387,4.3517 4.89566,-4.623681 -0.27198,3.263775 16.86283,0.271981"
             id="path3815"
             style="fill:#016a16;fill-opacity:1;fill-rule:evenodd;stroke:#000000;stroke-width:1px;stroke-linecap:butt;stroke-linejoin:miter;stroke-opacity:1" />
          <path
             d="m 755.02948,65.611586 c -14.21605,-0.275149 -55.0001,15.673385 -65.54748,32.36577 4.20005,-2.431481 6.79003,-3.538925 6.79003,-3.538925 l 2.08096,6.707809 2.54272,-6.707809 0.54396,5.167644 c 1.55918,-4.035522 3.32065,-4.490936 6.25557,-0.271981 0,0 1.08792,-6.255569 1.08792,-6.255569 l 1.63189,5.983588 2.71981,-6.52755 c 0,0 1.71094,7.07468 2.71982,6.799531 0,0 4.50979,-12.232821 6.52755,-12.783119 l 0.54396,7.615475 2.71981,-7.615475 2.44783,5.711606 0.54397,-8.159437 2.71981,6.255569 c 0,0 1.42628,-6.151181 3.53576,-7.343494 l 4.07971,3.807737 18.16443,-13.528171"
             id="path2477"
             style="fill:#016a16;fill-opacity:1;fill-rule:evenodd;stroke:#000000;stroke-width:1px;stroke-linecap:butt;stroke-linejoin:miter;stroke-opacity:1" />
          <path
             d="m 757.76094,69.093036 c -18.93716,7.522982 -35.87416,34.444024 -34.57709,45.858204 8.41479,-10.82387 6.60246,-9.33347 10.36395,3.11836 0,0 1.42296,-10.8947 2.84973,-12.19177 l 2.46983,8.06453 0.91716,-10.54739 2.52626,0.12097 -0.64854,-6.615039 3.76149,2.983251 c -0.87853,-3.782357 -1.81589,-5.058556 2.07531,-8.301221 0,0 -4.92885,0.648532 -1.03765,-8.560635 l 3.63178,3.631785 c 0,0 -0.64854,-4.020904 0.64853,-5.577383 l 13.35978,-4.799144"
             id="path2479"
             style="fill:#016a16;fill-opacity:1;fill-rule:evenodd;stroke:#000000;stroke-width:1px;stroke-linecap:butt;stroke-linejoin:miter;stroke-opacity:1" />
          <g
             id="g2485">
            <path
               d="m 759.59526,71.110797 -7.15388,14.124326 3.66866,1.100597 -8.25448,6.420148 6.97045,-0.733731 c 0,0 -10.6391,4.035517 -11.92313,14.858053 l 10.82253,-4.95268 c 0,0 -9.17164,9.72194 -10.45567,15.59179 l 6.23672,-5.68642 c 0,0 -6.05328,6.78701 -5.13612,17.05925 l 4.58582,-5.31955 c -1.1006,12.47343 -0.73373,13.57402 4.76925,23.11253 0,0 -1.46746,-14.67462 0.18344,-16.50895 l 12.10656,13.02373 -6.78701,-18.52671 c 0,0 7.52074,11.7397 12.10656,10.6391 l -9.5385,-15.04149 9.35507,7.88761 -10.6391,-16.50895 9.90537,3.11836 c 0,0 -7.15388,-9.35508 -6.60358,-15.224928 l 6.78701,7.704178 c 0,0 -2.56806,-8.804775 -1.83433,-11.372834 l 3.48523,0.733731 -6.78702,-8.071043 4.58582,-0.917165 -0.55029,-5.319551 3.30179,-1.100597 -0.18344,-5.86985"
               id="path2481"
               style="fill:#016a16;fill-opacity:1;fill-rule:evenodd;stroke:#000000;stroke-width:1px;stroke-linecap:butt;stroke-linejoin:miter;stroke-opacity:1" />
            <path
               d="m 766.74914,75.329751 c -11.7397,16.508953 -5.68641,42.006109 -12.65686,55.029839"
               id="path2483"
               style="fill:none;stroke:#000000;stroke-width:1px;stroke-linecap:butt;stroke-linejoin:miter;stroke-opacity:1" />
          </g>
        </g>
        <g
           id="Chain">
          <path
             d="m 181.73488,366.29252 c 0,-1.76433 -4.13362,-1.00548 -4.13362,-3.07011 0,-2.29414 6.30413,-0.60776 7.17507,1.4106 3.54768,-3.32288 5.07714,-0.89401 7.25044,0.10986 3.09495,-4.76848 6.92166,-4.59034 10.65595,-1.09855 2.15913,-2.46885 7.58143,-1.65269 9.44754,1.09855 3.57468,-3.67424 6.74917,-2.76897 9.22783,-0.10986 0.99703,-1.93173 2.46029,-1.50909 3.51536,-0.10985 1.90462,-3.50244 6.68017,-2.45098 8.69024,-0.13905 1.78721,-2.03619 3.61793,-0.44597 5.99002,1.05822 1.60179,-1.55369 4.18563,-1.2608 4.18563,0.28395 0,1.61048 -3.37632,1.04353 -3.37632,2.64181 0,1.42592 2.46299,0.70497 2.46299,2.50859 0,1.41982 -3.65572,1.95209 -4.22067,-0.31149 -1.23809,2.45122 -5.71087,1.51005 -6.15188,-0.76898 -1.48807,1.86208 -4.82444,2.42873 -6.70117,-0.32957 -1.54121,1.29972 -3.38555,1.48576 -4.23234,0.17354 -2.78101,3.09918 -7.46872,2.46229 -9.08349,-0.95421 0,0 -1.57829,0.0695 -1.57829,0.0695 -2.7318,3.8449 -7.00128,2.06859 -8.17545,-0.0578 -4.58596,3.42948 -7.32567,2.34943 -9.88697,0.10986 -2.94255,3.71634 -7.42624,3.45696 -8.45884,0 -1.98018,1.49564 -6.11156,1.84766 -6.11156,0.0982 0,-1.67621 3.50953,-1.06681 3.50953,-2.61316 z m 8.89864,0.83487 c 0,0.7983 -1.04831,1.44619 -2.33998,1.44619 -1.29167,0 -2.33998,-0.64789 -2.33998,-1.44619 0,-0.79829 1.04831,-1.44618 2.33998,-1.44618 1.29167,0 2.33998,0.64789 2.33998,1.44618 z m 9.79009,-1.21478 c 0,0.96091 -1.26184,1.74077 -2.81661,1.74077 -1.55477,0 -2.81661,-0.77986 -2.81661,-1.74077 0,-0.96089 1.26184,-1.74075 2.81661,-1.74075 1.55477,0 2.81661,0.77986 2.81661,1.74075 z m 19.2268,1.09908 c 0,0.97274 -1.14187,1.76221 -2.54882,1.76221 -1.40694,0 -2.54881,-0.78947 -2.54881,-1.76221 0,-0.97273 1.14187,-1.76219 2.54881,-1.76219 1.40695,0 2.54882,0.78946 2.54882,1.76219 z m -10.23704,-0.46277 c 0,1.22929 -1.11684,2.22696 -2.49294,2.22696 -1.3761,0 -2.49293,-0.99767 -2.49293,-2.22696 0,-1.22926 1.11683,-2.22693 2.49293,-2.22693 1.3761,0 2.49294,0.99767 2.49294,2.22693 z m 21.83331,0.0578 c 0,1.0989 -0.99837,1.99075 -2.22851,1.99075 -1.23015,0 -2.22852,-0.89185 -2.22852,-1.99075 0,-1.09888 0.99837,-1.99073 2.22852,-1.99073 1.23014,0 2.22851,0.89185 2.22851,1.99073 z m -6.68879,0.46277 c 0,0.71016 -0.6452,1.28651 -1.44017,1.28651 -0.79498,0 -1.44017,-0.57635 -1.44017,-1.28651 0,-0.71015 0.64519,-1.28651 1.44017,-1.28651 0.79497,0 1.44017,0.57636 1.44017,1.28651 z m 13.02516,0.52065 c 0,1.0202 -0.72719,1.84819 -1.62319,1.84819 -0.896,0 -1.62318,-0.82799 -1.62318,-1.84819 0,-1.0202 0.72718,-1.84819 1.62318,-1.84819 0.896,0 1.62319,0.82799 1.62319,1.84819 z"
             id="path2500"
             style="fill:#f1b517;fill-opacity:1;fill-rule:evenodd;stroke:#000000;stroke-width:1px;stroke-linecap:butt;stroke-linejoin:miter;stroke-opacity:1" />
        </g>
      </g>
      <use
         transform="matrix(-1,0,0,1,508.23774,0)"
         id="use3466"
         x="0"
         y="0"
         width="509"
         height="420"
         xlink:href="#g3357" />
    </g>
    <g
       id="Palm-trunk">
      <path
         d="m 259.58473,302.43101 c 0,0 6.3928,-55.43847 6.37738,-79.30111 -0.0122,-18.77895 -4.37738,-60.40046 -4.37738,-60.40046 l -18.37738,0 c 0,0 -2.7967,41.41406 -2.37738,60.14422 0.53437,23.86937 6.37738,79.55735 6.37738,79.55735 l 12.37738,0 z"
         id="path3304"
         style="fill:#f1b517;fill-opacity:1;fill-rule:evenodd;stroke:#000000;stroke-width:1px;stroke-linecap:butt;stroke-linejoin:miter;stroke-opacity:1" />
      <path
         d="m 241.98829,165.39689 21.29559,0 -2.50013,-14.86141 -15.43604,0 -3.35942,14.86141 z"
         id="path3306"
         style="fill:#f1b517;fill-opacity:1;fill-rule:evenodd;stroke:#000000;stroke-width:1px;stroke-linecap:butt;stroke-linejoin:miter;stroke-opacity:1" />
      <path
         d="m 243.352,153.4824 19.03081,0 -3.58723,-14.86141 -11.72179,0 -3.72179,14.86141 z"
         id="path3310"
         style="fill:#f1b517;fill-opacity:1;fill-rule:evenodd;stroke:#000000;stroke-width:1px;stroke-linecap:butt;stroke-linejoin:miter;stroke-opacity:1" />
      <path
         d="m 244.575,141.43375 15.86011,0 -2.68131,-14.86141 -10.09115,0 -3.08765,14.86141 z"
         id="path3312"
         style="fill:#f1b517;fill-opacity:1;fill-rule:evenodd;stroke:#000000;stroke-width:1px;stroke-linecap:butt;stroke-linejoin:miter;stroke-opacity:1" />
      <path
         d="m 258.3125,124.8125 -11.09375,0 -1.125,5.375 13.125,0 -0.90625,-5.375 z"
         id="path3314"
         style="fill:#f1b517;fill-opacity:1;fill-rule:evenodd;stroke:#000000;stroke-width:1px;stroke-linecap:butt;stroke-linejoin:miter;stroke-opacity:1" />
      <path
         d="m 260.58702,290.34707 -14.09271,0"
         id="path3316"
         style="fill:none;stroke:#000000;stroke-width:1px;stroke-linecap:butt;stroke-linejoin:miter;stroke-opacity:1" />
      <path
         d="m 261.35846,279.49146 -15.81403,0"
         id="path3318"
         style="fill:none;stroke:#000000;stroke-width:1px;stroke-linecap:butt;stroke-linejoin:miter;stroke-opacity:1" />
      <path
         d="m 263.44863,268.47503 -20.04355,0"
         id="path3320"
         style="fill:none;stroke:#000000;stroke-width:1px;stroke-linecap:butt;stroke-linejoin:miter;stroke-opacity:1" />
      <path
         d="m 264.48142,256.475 -20.97798,0"
         id="path3322"
         style="fill:none;stroke:#000000;stroke-width:1px;stroke-linecap:butt;stroke-linejoin:miter;stroke-opacity:1" />
      <path
         d="m 264.62896,244.47497 -22.05995,0"
         id="path3324"
         style="fill:none;stroke:#000000;stroke-width:1px;stroke-linecap:butt;stroke-linejoin:miter;stroke-opacity:1" />
      <path
         d="m 265.48962,233.50773 -23.92881,0"
         id="path3327"
         style="fill:none;stroke:#000000;stroke-width:1px;stroke-linecap:butt;stroke-linejoin:miter;stroke-opacity:1" />
      <path
         d="m 265.53881,223.5241 -25.01078,0"
         id="path3329"
         style="fill:none;stroke:#000000;stroke-width:1px;stroke-linecap:butt;stroke-linejoin:miter;stroke-opacity:1" />
      <path
         d="m 265.39126,211.47489 -25.01078,0"
         id="path3331"
         style="fill:none;stroke:#000000;stroke-width:1px;stroke-linecap:butt;stroke-linejoin:miter;stroke-opacity:1" />
      <path
         d="m 264.5552,199.57322 -24.17472,0"
         id="path3333"
         style="fill:none;stroke:#000000;stroke-width:1px;stroke-linecap:butt;stroke-linejoin:miter;stroke-opacity:1" />
      <path
         d="m 263.44864,187.47483 -21.86324,0"
         id="path3335"
         style="fill:none;stroke:#000000;stroke-width:1px;stroke-linecap:butt;stroke-linejoin:miter;stroke-opacity:1" />
      <path
         d="m 262.39126,176.55677 -19.74848,0"
         id="path3337"
         style="fill:none;stroke:#000000;stroke-width:1px;stroke-linecap:butt;stroke-linejoin:miter;stroke-opacity:1" />
    </g>
    <g
       transform="translate(-520,0)"
       id="Drum">
      <path
         d="m 773.625,297.875 c -13.50782,0 -24.46874,5.26249 -24.46875,11.71875 0,1.10718 0.3039,2.17216 0.90625,3.1875 2.92123,3.50691 12.40611,6.0625 23.65625,6.0625 10.52358,10e-6 19.49214,-2.2452 23,-5.40625 0.88413,-1.20834 1.375,-2.49179 1.375,-3.84375 0,-6.45628 -10.96093,-11.71875 -24.46875,-11.71875 z"
         id="path2539"
         style="fill:#0a328c;fill-opacity:1;fill-rule:evenodd;stroke:#0a328c;stroke-width:1.26463008;stroke-linecap:round;stroke-linejoin:miter;stroke-miterlimit:4;stroke-opacity:1;stroke-dasharray:none;stroke-dashoffset:0;marker:none;visibility:visible;display:inline;overflow:visible;enable-background:accumulate" />
      <path
         d="m 798.31097,310.49061 c 0,0 0,39.34635 0,39.34635 0,4.61339 -11.01694,8.35758 -24.59138,8.35758 -13.57444,0 -24.59137,-3.74419 -24.59137,-8.35758 0,0 0,-39.34635 0,-39.34635 0,4.61338 11.01693,8.35758 24.59137,8.35758 13.57444,0 24.59138,-3.7442 24.59138,-8.35758 z"
         id="path2499"
         style="fill:#f1b517;fill-opacity:1;fill-rule:evenodd;stroke:#000000;stroke-width:1.0232923;stroke-linecap:round;stroke-linejoin:miter;stroke-miterlimit:4;stroke-opacity:1;stroke-dashoffset:0;marker:none;visibility:visible;display:inline;overflow:visible;enable-background:accumulate" />
      <path
         d="m 749.125,310.5 c 0,0 0,4.46548 0,6.03125 l 11.9375,38.15625 9.53125,-29.34375 10.46875,30.46875 7.66009,-28.75864 9.58991,19.33318 c 0,0 0,-10.69954 0,-10.69954 l -8.90625,-18.75 c -0.99905,0.28203 -2.06435,0.52383 -3.1875,0.75 l -5.53125,21.25 -7.78125,-20.09375 c -1.30307,-0.0146 -2.59945,-0.044 -3.84375,-0.125 L 761.25,338.9375 752.3125,314.59375 C 750.29258,313.38048 749.125,311.9926 749.125,310.5 z"
         id="path3288"
         style="fill:#d20014;fill-opacity:1;fill-rule:evenodd;stroke:#d20014;stroke-width:1px;stroke-linecap:butt;stroke-linejoin:miter;stroke-opacity:1" />
      <g
         id="g3851">
        <path
           d="m 798.31097,342.49061 c 0,0 0,7.34635 0,7.34635 0,4.61339 -11.01694,8.35758 -24.59138,8.35758 -13.57444,0 -24.59137,-3.74419 -24.59137,-8.35758 0,0 0,-7.34635 0,-7.34635 0,4.61338 11.01693,8.35758 24.59137,8.35758 13.57444,0 24.59138,-3.7442 24.59138,-8.35758 z"
           id="use3284"
           style="fill:#0a328c;fill-opacity:1;fill-rule:evenodd;stroke:#0a328c;stroke-width:1.0232923;stroke-linecap:round;stroke-linejoin:miter;stroke-miterlimit:4;stroke-opacity:1;stroke-dashoffset:0;marker:none;visibility:visible;display:inline;overflow:visible;enable-background:accumulate" />
        <path
           d="m 263.84375,350.09375 c -1.99937,0.30827 -4.1336,0.53925 -6.375,0.65625 l 0.0625,7.34375 c 2.24203,-0.11901 4.37638,-0.34583 6.375,-0.65625 l -0.0625,-7.34375 z"
           transform="translate(520,0)"
           id="use2504"
           style="fill:#f1b517;fill-opacity:1;fill-rule:evenodd;stroke:#000000;stroke-width:1.0232923;stroke-linecap:round;stroke-linejoin:miter;stroke-miterlimit:4;stroke-opacity:1;stroke-dashoffset:0;marker:none;visibility:visible;display:inline;overflow:visible;enable-background:accumulate" />
        <path
           d="m 237.65625,348.8125 -0.0625,7.3125 c 1.89776,0.56268 4.03229,1.03002 6.375,1.375 l 0,-7.34375 c -2.31513,-0.34092 -4.43113,-0.78996 -6.3125,-1.34375 z"
           transform="translate(520,0)"
           id="use2509"
           style="fill:#f1b517;fill-opacity:1;fill-rule:evenodd;stroke:#000000;stroke-width:1.0232923;stroke-linecap:round;stroke-linejoin:miter;stroke-miterlimit:4;stroke-opacity:1;stroke-dashoffset:0;marker:none;visibility:visible;display:inline;overflow:visible;enable-background:accumulate" />
        <path
           d="m 229.125,342.5 c 0,0 0,7.34373 0,7.34375 0,1.37005 0.99709,2.63982 2.71875,3.78125 l 0.125,-7.25 c -1.80676,-1.16307 -2.84375,-2.46914 -2.84375,-3.875 z"
           transform="translate(520,0)"
           id="use2514"
           style="fill:#f1b517;fill-opacity:1;fill-rule:evenodd;stroke:#000000;stroke-width:1.0232923;stroke-linecap:round;stroke-linejoin:miter;stroke-miterlimit:4;stroke-opacity:1;stroke-dashoffset:0;marker:none;visibility:visible;display:inline;overflow:visible;enable-background:accumulate" />
        <path
           d="m 278.3125,343.28125 -0.125,0.0312 c -0.43072,1.49114 -2.03693,2.87405 -4.46875,4.03125 l 0.0312,7.3125 c 2.8523,-1.36467 4.5625,-3.01233 4.5625,-4.8125 0,0 0,-5.31431 0,-6.5625 z"
           transform="translate(520,0)"
           id="use2519"
           style="fill:#f1b517;fill-opacity:1;fill-rule:evenodd;stroke:#000000;stroke-width:1.0232923;stroke-linecap:round;stroke-linejoin:miter;stroke-miterlimit:4;stroke-opacity:1;stroke-dashoffset:0;marker:none;visibility:visible;display:inline;overflow:visible;enable-background:accumulate" />
      </g>
      <path
         d="m 798.31097,310.74752 c 0,0 0,39.08944 0,39.08944 0,4.61339 -11.01694,8.35758 -24.59138,8.35758 -13.57444,0 -24.59137,-3.74419 -24.59137,-8.35758 0,0 0,-39.08944 0,-39.08944"
         id="use3847"
         style="fill:none;stroke:#000000;stroke-width:1.0232923;stroke-linecap:round;stroke-linejoin:miter;stroke-miterlimit:4;stroke-opacity:1;stroke-dashoffset:0;marker:none;visibility:visible;display:inline;overflow:visible;enable-background:accumulate" />
      <path
         d="m 792.06285,307.55569 c 0,5.26797 -10.10146,9.53851 -22.56223,9.53851 -12.46078,0 -22.56224,-4.27054 -22.56224,-9.53851 0,-5.26797 10.10146,-9.53851 22.56224,-9.53851 12.46077,0 22.56223,4.27054 22.56223,9.53851 z"
         transform="matrix(0.8432158,0,0,0.530281,124.86448,144.83073)"
         id="use3273"
         style="fill:#ffffff;fill-opacity:1;fill-rule:evenodd;stroke:#ffffff;stroke-width:1.56924522;stroke-linecap:round;stroke-linejoin:miter;stroke-miterlimit:4;stroke-opacity:1;stroke-dasharray:none;stroke-dashoffset:0;marker:none;visibility:visible;display:inline;overflow:visible;enable-background:accumulate" />
      <path
         d="m 247.5,311.65625 0.84375,6.96875 c 1.65115,0.1246 3.36704,0.21279 5.125,0.21875 l 1.25,-7.1875 -7.21875,0 z"
         transform="translate(520,0)"
         id="use2541"
         style="fill:#f1b517;fill-opacity:1;fill-rule:evenodd;stroke:#000000;stroke-width:1.26463008;stroke-linecap:round;stroke-linejoin:miter;stroke-miterlimit:4;stroke-opacity:1;stroke-dasharray:none;stroke-dashoffset:0;marker:none;visibility:visible;display:inline;overflow:visible;enable-background:accumulate" />
      <path
         d="m 269.5625,309.96875 -4.90625,1.375 0.3125,6.5625 c 1.66835,-0.29291 3.2381,-0.65265 4.65625,-1.0625 l -0.0625,-6.875 z"
         transform="translate(520,0)"
         id="use2546"
         style="fill:#f1b517;fill-opacity:1;fill-rule:evenodd;stroke:#000000;stroke-width:1.26463008;stroke-linecap:round;stroke-linejoin:miter;stroke-miterlimit:4;stroke-opacity:1;stroke-dasharray:none;stroke-dashoffset:0;marker:none;visibility:visible;display:inline;overflow:visible;enable-background:accumulate" />
      <path
         d="m 240.5,299.33035 c -1.39178,0.42568 -2.69351,0.92121 -3.875,1.46875 l 0.6875,5.2634 3.125,-1.03125 0.0625,-5.7009 z"
         transform="translate(520,0)"
         id="use2551"
         style="fill:#f1b517;fill-opacity:1;fill-rule:evenodd;stroke:#000000;stroke-width:1.26463008;stroke-linecap:round;stroke-linejoin:miter;stroke-miterlimit:4;stroke-opacity:1;stroke-dasharray:none;stroke-dashoffset:0;marker:none;visibility:visible;display:inline;overflow:visible;enable-background:accumulate" />
      <path
         d="m 253.625,297.25357 c -0.6544,0 -1.29601,0.0383 -1.9375,0.0625 l 1.0625,6.59196 3.25,-0.0625 1.28125,-6.43571 c -1.19499,-0.0862 -2.41141,-0.15625 -3.65625,-0.15625 z"
         transform="translate(520,0)"
         id="use2556"
         style="fill:#f1b517;fill-opacity:1;fill-rule:evenodd;stroke:#000000;stroke-width:1.26463008;stroke-linecap:round;stroke-linejoin:miter;stroke-miterlimit:4;stroke-opacity:1;stroke-dasharray:none;stroke-dashoffset:0;marker:none;visibility:visible;display:inline;overflow:visible;enable-background:accumulate" />
      <path
         d="m 268,299.58124 -0.65625,5.76251 3.71875,1.36249 0.40625,-5.65625 c -1.05609,-0.5399 -2.21778,-1.03195 -3.46875,-1.46875 z"
         transform="translate(520,0)"
         id="use2561"
         style="fill:#f1b517;fill-opacity:1;fill-rule:evenodd;stroke:#000000;stroke-width:1.26463008;stroke-linecap:round;stroke-linejoin:miter;stroke-miterlimit:4;stroke-opacity:1;stroke-dasharray:none;stroke-dashoffset:0;marker:none;visibility:visible;display:inline;overflow:visible;enable-background:accumulate" />
      <path
         d="m 232.95062,315.05818 0.99074,-7.17806 -5.02839,-2.82263 0.14954,8.1688 3.88811,1.83189 z"
         transform="translate(520,0)"
         id="path3858"
         style="fill:#f1b517;fill-opacity:1;fill-rule:evenodd;stroke:#000000;stroke-width:1px;stroke-linecap:butt;stroke-linejoin:miter;stroke-opacity:1" />
      <path
         d="m 278.14104,313.51012 0.22432,-7.17784 -4.71047,1.458 4.48615,5.71984 z"
         transform="translate(520,0)"
         id="path3866"
         style="fill:#f1b517;fill-opacity:1;fill-rule:evenodd;stroke:#000000;stroke-width:1px;stroke-linecap:butt;stroke-linejoin:miter;stroke-opacity:1" />
    </g>
    <g
       id="Mortar">
      <g
         id="g3619">
        <use
           transform="matrix(1,0,0,-1,-0.01216178,534.0625)"
           id="use3617"
           style="fill:#016a16;fill-opacity:1"
           x="0"
           y="0"
           width="509"
           height="420"
           xlink:href="#use3602" />
        <path
           d="m 188.07577,269.23602 c 0,2.51172 -4.077,4.55022 -9.10044,4.55022 -5.02345,0 -9.10044,-2.0385 -9.10044,-4.55022 0,0 0,-2.46867 0,-2.46867 0,0 18.20088,0 18.20088,0 0,0 0,2.46867 0,2.46867 z"
           transform="matrix(1.0745646,0,0,2.8824628,-10.214643,-500.30481)"
           id="path3595"
           style="fill:#016a16;fill-opacity:1;fill-rule:evenodd;stroke:#ffffff;stroke-width:0.5635407;stroke-linecap:round;stroke-linejoin:miter;stroke-miterlimit:4;stroke-opacity:1;stroke-dashoffset:0;marker:none;visibility:visible;display:inline;overflow:visible;enable-background:accumulate" />
        <path
           d="m 187.99247,267.26428 c 0.003,2.09554 -2.74468,3.79534 -6.13534,3.79534 -3.39066,0 -6.13846,-1.6998 -6.13534,-3.79534 -0.003,-2.09554 2.74468,-3.79534 6.13534,-3.79534 3.39066,0 6.13846,1.6998 6.13534,3.79534 z"
           transform="matrix(1.5829309,0,0,1.3195467,-105.76137,-86.313448)"
           id="path3600"
           style="fill:#ffffff;fill-opacity:1;fill-rule:evenodd;stroke:none;stroke-width:0.69192117;marker:none;visibility:visible;display:inline;overflow:visible;enable-background:accumulate" />
        <path
           d="m 179.88537,271.99441 -1.66841,-18.3808 7.43203,0 -1.2134,18.3808 -4.55022,0 z"
           id="path3598"
           style="fill:#016a16;fill-opacity:1;fill-rule:evenodd;stroke:#f1b517;stroke-width:1px;stroke-linecap:butt;stroke-linejoin:miter;stroke-opacity:1" />
        <path
           d="m 192.85591,266.65625 c -1.42513,2.74934 -5.70419,4.75 -10.75,4.75 -5.04582,-10e-6 -9.29362,-2.00066 -10.71875,-4.75 -0.32888,0.63446 -0.53125,1.30082 -0.53125,2 0,3.72896 5.03976,6.74999 11.25,6.75 6.21023,0 11.25,-3.02104 11.25,-6.75 0,-0.69918 -0.17112,-1.36554 -0.5,-2 z"
           id="use3602"
           style="fill:#016a16;fill-opacity:1;fill-rule:evenodd;stroke:#ffffff;stroke-width:1.29949546;stroke-linecap:round;stroke-linejoin:miter;stroke-miterlimit:4;stroke-opacity:1;stroke-dashoffset:0;marker:none;visibility:visible;display:inline;overflow:visible;enable-background:accumulate" />
      </g>
      <g
         transform="translate(-520,0)"
         id="g3626">
        <path
           d="m 694.53125,304.6875 19.65625,2.0625 3.0625,-18.09375 -23.0625,-2.4375"
           id="path3628"
           style="fill:#f1b517;fill-opacity:1;fill-rule:evenodd;stroke:#000000;stroke-width:1px;stroke-linecap:butt;stroke-linejoin:miter;stroke-opacity:1" />
        <path
           d="m 699.6608,285.48001 -2.94139,21.37417 5.88279,-0.1961 2.35312,-21.17807 -5.29452,0 z"
           id="path3634"
           style="fill:#f1b517;fill-opacity:1;fill-rule:evenodd;stroke:#000000;stroke-width:1px;stroke-linecap:butt;stroke-linejoin:miter;stroke-opacity:1" />
      </g>
    </g>
    <g
       id="Helmet">
      <path
         d="m 328.10728,266.15982 c 4.46839,-0.63834 11.09224,5.71096 11.49013,13.56474 0.31573,6.23196 -9.09635,5.90466 -9.09635,5.90466 -0.47875,2.55336 -5.66913,4.91603 -9.89429,5.10672 -4.09903,0.185 1.1171,-7.97926 1.1171,-7.97926 -2.55336,-7.02175 0.79793,-15.32018 0.79793,-15.32018 l 5.58548,-1.27668 z"
         id="path3655"
         style="fill:#f1b517;fill-opacity:1;fill-rule:evenodd;stroke:#000000;stroke-width:1px;stroke-linecap:butt;stroke-linejoin:miter;stroke-opacity:1" />
      <path
         d="m 321.72387,282.43751 4.3088,-0.15958 c 0,0 0.32982,2.3031 1.1171,2.39378 0.8468,0.0975 1.75544,-2.2342 1.75544,-2.2342 l 6.54299,-0.15958"
         id="path3657"
         style="fill:none;stroke:#000000;stroke-width:1px;stroke-linecap:butt;stroke-linejoin:miter;stroke-opacity:1" />
      <path
         d="m 330.50106,270.78779 c 3.65576,-2.73963 0.4515,-8.25195 -2.07461,-8.29843 0,0 -5.90465,0.15958 -5.90465,0.15958 -2.78275,0.0596 -7.48726,3.19238 -6.86217,5.90466 0.54507,2.36506 2.07646,3.44359 4.46839,3.03212 1.08622,-0.18686 3.3674,-3.1405 4.46839,-3.19171 1.47713,-0.0687 4.72133,3.28056 5.90465,2.39378 z"
         id="path3659"
         style="fill:#d20014;fill-opacity:1;fill-rule:evenodd;stroke:#f1b517;stroke-width:1px;stroke-linecap:butt;stroke-linejoin:miter;stroke-opacity:1" />
    </g>
    <g
       id="Hat-on-pole">
      <path
         d="m 254.01143,37.685155 c -3.70163,-1.805661 -12.07613,-7.317248 -9.59172,-10.607318 0,0 3.83668,-6.770629 3.83668,-6.770629 5.43532,-12.6914437 -0.0988,-7.774333 -0.67706,-11.7357568 -0.55526,-3.8040372 20.78403,-0.8333987 21.10179,7.7862228 0.0875,2.374351 -1.58282,0.980906 -1.35412,14.556852 0,0 -4.06237,8.124755 -4.06237,8.124755 -3.03843,0.293502 -6.63637,-0.07763 -9.2532,-1.354126 z"
         id="path3710"
         style="fill:#0a328c;fill-opacity:1;fill-rule:evenodd;stroke:#0a328c;stroke-width:1px;stroke-linecap:butt;stroke-linejoin:miter;stroke-opacity:1" />
      <path
         d="m 256.60683,70.522706 -5.30365,-4.626596 1.46697,-39.60818 5.19081,1.579813 -1.35413,42.654963 z"
         id="path3708"
         style="fill:#f1b517;fill-opacity:1;fill-rule:evenodd;stroke:#000000;stroke-width:1px;stroke-linecap:butt;stroke-linejoin:miter;stroke-opacity:1" />
      <path
         d="m 263.4903,38.813594 c 3.3299,-2.020041 5.50961,-8.044237 3.49817,-11.622913 -5.46462,-7.176963 -9.00148,-4.215537 -18.16786,-7.447692 -1.82805,2.018179 -5.67728,5.901668 -4.85228,8.801817 12.05908,5.884658 7.37679,0.872601 11.3668,1.605696 2.1509,0.395191 3.54083,3.038631 8.15517,8.663092 z"
         id="path3712"
         style="fill:#d20014;fill-opacity:1;fill-rule:evenodd;stroke:#d20014;stroke-width:1px;stroke-linecap:butt;stroke-linejoin:miter;stroke-opacity:1" />
    </g>
    <path
       d="m 62.1875,348.8125 c -3.316842,0.43507 -3.931346,4.3954 -2.6875,8.03125 -14.447727,4.20994 -27.354853,9.69676 -40.09375,13.40625 -0.512729,-2.6396 6.3125,-10.28126 6.3125,-10.28125 1.805501,0.90275 3.156249,5.18751 3.15625,5.1875 0.451375,-8.80182 8.812499,-14.65626 8.8125,-14.65625 -4.965128,-0.67706 -20.069499,5.39244 -21.875,7.875 0,0 5.847248,-0.67705 6.75,0 0,0 -11.514389,12.88678 -12.03125,16.71875 1.791078,4.18732 21.656248,7.31249 21.65625,7.3125 -0.313506,1.084 -5.843751,5.1875 -5.84375,5.1875 7.901103,1.79883 19.817135,-4.00242 23.375,-7.53125 0,0 -9.29389,-0.79426 -16.53125,-6.875 0,0 1.492404,3.78619 0.59375,5.59375 0,0 -11.290756,-3.37422 -12.46875,-5.3125 0.02997,-0.16782 26.708157,-7.32905 39.625,-11.15625 0.478402,2.39201 3.04313,6.91128 6.125,5.84375 2.010331,-0.69636 1.373447,-4.82596 0.625,-7.75 0.726948,0.64699 1.669765,1.03124 2.71875,1.03125 2.271068,0 4.125002,-1.82269 4.125,-4.09375 0,-2.27107 -1.853933,-4.125 -4.125,-4.125 -1.816195,0 -3.329943,1.17878 -3.875,2.8125 -0.514299,-2.52388 -1.856119,-7.54505 -4.34375,-7.21875 z m 10.157775,8.51687 c 0,1.06236 -0.862205,1.92457 -1.924565,1.92457 -1.062361,0 -1.924566,-0.86221 -1.924566,-1.92457 0,-1.06236 0.862205,-1.92456 1.924566,-1.92456 1.06236,0 1.924565,0.8622 1.924565,1.92456 z"
       id="Anchor-left"
       style="fill:#f1b517;fill-opacity:1;fill-rule:evenodd;stroke:#000000;stroke-width:1px;stroke-linecap:butt;stroke-linejoin:miter;stroke-opacity:1" />
    <g
       id="Anchor-right">
      <path
         d="m 486.12705,365.69878 c 0.98397,-2.04359 -0.87029,-12.32985 -0.87029,-12.32985 -2.00538,0.23078 -4.74446,3.79711 -4.74446,3.79711 2.58625,-8.42537 -4.65261,-22.50782 -4.65261,-22.50782 4.89726,1.06194 21.21919,17.43898 22.06672,20.38936 0,0 -7.14774,-2.64317 -8.22762,-2.31569 1.1658,8.39378 6.76587,12.29448 8.86949,16.65816 0,0 -9.28113,2.11259 -8.34849,10.15662 l -6.06217,0.11658 c -2.09844,-2.68134 0.81606,-7.1114 0.81606,-7.1114 l -41.61914,-18.06993 c -2.68134,-1.1658 -8.71477,-4.00342 -7.81087,-7.34455 0.91137,-3.36875 10.84196,1.39896 13.29014,2.21502 l 37.29324,16.34639 z"
         id="path3723"
         style="fill:#f1b517;fill-opacity:1;fill-rule:evenodd;stroke:#000000;stroke-width:1px;stroke-linecap:butt;stroke-linejoin:miter;stroke-opacity:1" />
      <path
         d="m 446.15247,358.21249 4.89637,-9.32642 c 1.7487,-2.44818 -1.86529,-5.12953 -4.43005,-1.98186 l -5.47927,8.51035 c -2.44818,4.66321 2.68135,5.9456 5.01295,2.79793 z"
         id="path3735"
         style="fill:#f1b517;fill-opacity:1;fill-rule:evenodd;stroke:#000000;stroke-width:1px;stroke-linecap:butt;stroke-linejoin:miter;stroke-opacity:1" />
    </g>
    <g
       id="Banner">
      <g
         id="g3765">
        <g
           id="g3753">
          <path
             d="m 154.28784,379.53476 -0.33909,-10.17282 -11.8683,0.67819 -0.67819,11.07707 12.88558,-1.58244 z"
             id="path3743"
             style="fill:#ffffff;fill-opacity:1;fill-rule:evenodd;stroke:#000000;stroke-width:1px;stroke-linecap:butt;stroke-linejoin:miter;stroke-opacity:1" />
          <path
             d="m 67.539543,393.79613 -15.869947,-9.22671 c 65.445174,6.21673 78.810224,-17.4439 94.624554,-18.70947 9.72133,-0.78701 11.23936,11.15984 -7.59803,5.47662 l 4.87154,12.49471 c 0,0 -46.459447,27.09003 -92.124127,15.89993 l 16.09601,-5.93508 z"
             id="path3741"
             style="fill:#ffffff;fill-opacity:1;fill-rule:evenodd;stroke:#000000;stroke-width:1px;stroke-linecap:butt;stroke-linejoin:miter;stroke-opacity:1" />
        </g>
        <g
           transform="matrix(-1,0,0,1,508.23184,0)"
           id="use3757">
          <path
             d="m 155.58784,379.53476 -0.33909,-10.17282 -14.51683,0.34712 -0.67819,11.07707 15.53411,-1.25137 z"
             id="path3761"
             style="fill:#ffffff;fill-opacity:1;fill-rule:evenodd;stroke:#000000;stroke-width:1px;stroke-linecap:butt;stroke-linejoin:miter;stroke-opacity:1" />
          <path
             d="m 65.822818,391.29908 -14.933552,-8.44639 c 74.965194,2.31509 57.897394,-12.76192 95.404884,-16.99274 9.69218,-1.08874 16.97783,11.82197 -7.59803,5.47662 l 4.87154,12.49471 c 0,0 -11.79007,0.0121 -11.79007,0.0121 -25.53591,17.42983 -59.998772,18.9858 -82.831112,13.39075 l 16.87634,-5.93508 z"
             id="path3763"
             style="fill:#ffffff;fill-opacity:1;fill-rule:evenodd;stroke:#000000;stroke-width:1px;stroke-linecap:butt;stroke-linejoin:miter;stroke-opacity:1" />
        </g>
        <path
           d="m 138.43055,371.40544 1e-5,17.58356 c 0,0 41.56259,15.98505 115.73176,15.98505 74.48832,0 115.73178,-15.98505 115.73178,-15.98505 l 0,-17.58356 c 0,0 -31.45716,15.02595 -115.73178,15.02595 -83.95503,0 -115.73177,-15.02595 -115.73177,-15.02595 z"
           id="path3745"
           style="fill:#ffffff;fill-opacity:1;fill-rule:evenodd;stroke:#000000;stroke-width:1px;stroke-linecap:butt;stroke-linejoin:miter;stroke-opacity:1" />
      </g>
      <g
         id="g3806">
        <path
           d="m 144.63733,389.08611 3.66755,-12.87361 1.7036,0.48533 -3.23475,11.35442 6.34021,1.80626 -0.4328,1.51919 -8.04381,-2.29159 z m 12.0277,-5.661 0.20468,-2.5286 0.54717,-2.16911 1.81497,0.45784 -0.54717,2.16911 -1.03691,2.31866 -0.98274,-0.2479 z m 17.88379,-0.86913 1.73579,0.35336 -1.54276,7.5784 c -0.26837,1.31824 -0.6306,2.33472 -1.08669,3.04945 -0.45611,0.71472 -1.12285,1.23591 -2.00023,1.56359 -0.87739,0.32767 -1.94836,0.3628 -3.21291,0.10537 -1.22877,-0.25015 -2.19075,-0.66651 -2.88593,-1.24909 -0.69519,-0.58258 -1.12814,-1.309 -1.29885,-2.17928 -0.17072,-0.87028 -0.11461,-2.00033 0.16832,-3.39015 l 1.54276,-7.5784 1.73578,0.35335 -1.54093,7.56946 c -0.23193,1.1393 -0.29697,2.00041 -0.1951,2.58334 0.10185,0.58293 0.38102,1.07305 0.83748,1.47036 0.45646,0.39732 1.0575,0.67187 1.80312,0.82366 1.27648,0.25986 2.24502,0.15574 2.90562,-0.31236 0.66058,-0.46809 1.15844,-1.52529 1.4936,-3.17161 l 1.54093,-7.56945 z m 1.95368,13.99305 2.16085,-13.21028 1.79321,0.29332 5.24201,11.50674 1.69654,-10.37178 1.67606,0.27416 -2.16084,13.21028 -1.79321,-0.29332 -5.24053,-11.51575 -1.69802,10.38079 -1.67607,-0.27416 z m 13.66675,2.13879 1.83788,-13.25907 1.75461,0.24321 -1.83788,13.25907 -1.75461,-0.24321 z m 5.04151,-5.84813 c 0.25223,-2.20747 1.04239,-3.86793 2.37048,-4.98139 1.32808,-1.11343 2.92954,-1.56304 4.80439,-1.34883 1.22771,0.1403 2.30096,0.56008 3.21975,1.25935 0.91876,0.6993 1.57674,1.60314 1.97396,2.71152 0.39718,1.1084 0.51976,2.32786 0.36775,3.65839 -0.15412,1.34868 -0.56414,2.52414 -1.23006,3.52637 -0.66594,1.00224 -1.52913,1.72001 -2.58956,2.15332 -1.06045,0.43331 -2.16824,0.58397 -3.32338,0.45198 -1.25192,-0.14304 -2.33622,-0.57328 -3.25292,-1.29071 -0.9167,-0.71743 -1.56929,-1.62831 -1.95776,-2.73264 -0.38847,-1.10433 -0.51602,-2.24011 -0.38265,-3.40736 l 0,0 z m 1.81126,0.23453 c -0.18313,1.60269 0.10352,2.91442 0.85997,3.9352 0.75643,1.02077 1.7848,1.60545 3.0851,1.75402 1.32448,0.15134 2.46782,-0.18978 3.43003,-1.02338 0.96218,-0.83359 1.54106,-2.10616 1.73664,-3.81771 0.12368,-1.08257 0.0487,-2.04845 -0.22492,-2.89766 -0.27365,-0.8492 -0.73737,-1.53631 -1.39114,-2.06134 -0.6538,-0.52502 -1.41917,-0.83763 -2.2961,-0.93785 -1.24587,-0.14234 -2.36675,0.16306 -3.36264,0.91621 -0.9959,0.75316 -1.60821,2.13066 -1.83694,4.13251 l 0,0 z m 12.41525,7.89466 1.09071,-13.34133 1.811,0.14805 6.15103,11.04756 0.85635,-10.47467 1.69269,0.13838 -1.0907,13.34133 -1.811,-0.14806 -6.1503,-11.05665 -0.85709,10.48377 -1.69269,-0.13838 z m 18.76572,1.35265 0.58449,-13.37308 9.02181,0.39432 -0.069,1.57813 -7.25211,-0.31697 -0.18101,4.14146 6.27604,0.27431 -0.069,1.57813 -6.27604,-0.27431 -0.26553,6.07536 -1.7697,-0.0774 z m 9.86107,0.43667 5.39877,-13.28384 1.908,0.0369 5.21842,13.48936 -2.01754,-0.0391 -1.48262,-4.08356 -5.59617,-0.10833 -1.54826,4.02489 -1.8806,-0.0364 z m 3.96801,-5.421 4.53719,0.0878 -1.32501,-3.73347 c -0.40424,-1.13417 -0.70281,-2.06538 -0.89572,-2.79364 -0.18702,0.85485 -0.44392,1.70225 -0.77068,2.5422 l -1.54578,3.89708 z m 10.29223,5.63427 0.0258,-13.38582 1.77138,0.003 -0.0258,13.38581 -1.77138,-0.003 z m 8.29329,-0.0369 -0.16834,-11.805 -4.40976,0.0629 -0.0225,-1.57948 10.60898,-0.15128 0.0225,1.57948 -4.42801,0.0631 0.16833,11.80501 -1.7712,0.0252 z m 13.13476,-0.32152 -0.62598,-13.37119 1.76945,-0.0828 0.55211,11.79329 6.58526,-0.3083 0.0739,1.57791 -8.35471,0.39113 z m 9.00695,-0.40678 4.17645,-13.71731 1.90353,-0.13561 6.41589,12.96269 -2.01282,0.1434 -1.84552,-3.9329 -5.58307,0.39775 -1.17826,4.14832 -1.8762,0.13366 z m 3.46197,-5.75735 4.52657,-0.32248 -1.65693,-3.59848 c -0.50506,-1.093 -0.88654,-1.99343 -1.14446,-2.70128 -0.10902,0.86825 -0.2883,1.7354 -0.53783,2.60143 l -1.18735,4.02081 z m 15.71365,4.22615 -1.46803,-13.3051 8.97595,-0.99036 0.17324,1.57011 -7.21524,0.79609 0.45462,4.12041 6.24414,-0.68895 0.17324,1.57011 -6.24414,0.68895 0.66692,6.04447 -1.7607,0.19427 z m 9.81565,-7.63859 c -0.31392,-2.19954 0.0309,-4.00581 1.03442,-5.41879 1.00353,-1.41296 2.43935,-2.25276 4.30747,-2.51939 1.22331,-0.17457 2.36781,-0.0397 3.43351,0.40465 1.06568,0.44436 1.93075,1.15254 2.59522,2.12454 0.66444,0.97201 1.09128,2.1209 1.2805,3.44665 0.19178,1.34384 0.0922,2.58476 -0.2988,3.72277 -0.391,1.13801 -1.04473,2.05066 -1.9612,2.73793 -0.9165,0.68728 -1.95024,1.11305 -3.10123,1.27732 -1.24743,0.17803 -2.40527,0.0358 -3.47354,-0.4266 -1.06827,-0.46243 -1.9299,-1.17879 -2.58488,-2.14907 -0.65499,-0.97028 -1.06548,-2.03695 -1.23147,-3.20001 l 0,0 z m 1.81172,-0.23089 c 0.22792,1.59694 0.83681,2.79362 1.8267,3.59005 0.98989,0.79644 2.13264,1.1022 3.42828,0.91729 1.31972,-0.18835 2.33972,-0.80738 3.05998,-1.85712 0.72025,-1.04972 0.95868,-2.42728 0.7153,-4.1327 -0.15396,-1.07868 -0.47064,-1.99425 -0.95003,-2.74672 -0.4794,-0.75245 -1.10174,-1.30004 -1.86699,-1.64279 -0.76527,-0.34271 -1.5848,-0.45172 -2.45859,-0.32703 -1.24139,0.17718 -2.24869,0.75598 -3.02187,1.73639 -0.77319,0.98043 -1.01745,2.46797 -0.73278,4.46263 l 0,0 z m 14.05736,4.49325 -2.39062,-13.17064 5.83964,-1.05996 c 1.17391,-0.21307 2.0878,-0.25676 2.74166,-0.13108 0.65385,0.1257 1.21781,0.45486 1.69189,0.98747 0.47405,0.53263 0.77686,1.1613 0.90841,1.886 0.16959,0.93435 0.0101,1.77686 -0.47851,2.52751 -0.48861,0.75067 -1.34903,1.32754 -2.58125,1.73062 0.5014,0.1379 0.89146,0.29291 1.17018,0.46504 0.59388,0.37477 1.18202,0.87122 1.76442,1.48935 l 2.94159,3.16881 -2.19211,0.39789 -2.24028,-2.42378 c -0.6526,-0.69819 -1.18166,-1.22701 -1.58717,-1.58648 -0.40552,-0.35946 -0.75377,-0.5994 -1.04474,-0.71982 -0.29098,-0.1204 -0.57721,-0.18909 -0.85869,-0.20606 -0.20526,-0.006 -0.53249,0.0317 -0.98169,0.11323 l -2.02141,0.36691 1.06159,5.84863 -1.74291,0.31636 z m 0.40736,-7.67431 3.74635,-0.68001 c 0.79658,-0.14458 1.40453,-0.33999 1.82384,-0.58625 0.4193,-0.24623 0.71286,-0.57173 0.88068,-0.9765 0.16781,-0.40474 0.21312,-0.81974 0.13594,-1.245 -0.11307,-0.62288 -0.43212,-1.09393 -0.95715,-1.41315 -0.52504,-0.3192 -1.27569,-0.3902 -2.25195,-0.21301 l -4.16861,0.75665 0.7909,4.35727 z m 21.14243,-1.45875 1.8264,0.0475 c -0.0428,1.50088 -0.45086,2.72992 -1.22434,3.68711 -0.7735,0.9572 -1.84022,1.58887 -3.20016,1.89501 -1.40746,0.31685 -2.61663,0.28799 -3.62752,-0.0866 -1.0109,-0.37454 -1.86879,-1.0534 -2.57368,-2.03656 -0.7049,-0.98315 -1.19772,-2.09828 -1.47846,-3.3454 -0.30615,-1.35994 -0.31338,-2.60466 -0.0217,-3.73419 0.29169,-1.1295 0.85792,-2.06499 1.69869,-2.80648 0.84077,-0.74146 1.8372,-1.24188 2.9893,-1.50125 1.30649,-0.2941 2.48,-0.20886 3.52053,0.25572 1.04052,0.4646 1.87166,1.26023 2.49344,2.38688 l -1.61118,0.78388 c -0.51678,-0.88199 -1.11198,-1.47491 -1.78561,-1.77876 -0.67365,-0.30383 -1.44695,-0.35749 -2.31993,-0.16098 -1.00363,0.22595 -1.78831,0.6553 -2.35406,1.28805 -0.56574,0.63278 -0.89396,1.38522 -0.98465,2.25733 -0.0907,0.87212 -0.0391,1.73873 0.15474,2.59982 0.24999,1.11053 0.63007,2.04358 1.14022,2.79915 0.51015,0.75558 1.15282,1.26138 1.92801,1.5174 0.77518,0.25603 1.56066,0.29447 2.35644,0.11532 0.96799,-0.21791 1.72468,-0.68151 2.27009,-1.39082 0.54539,-0.70929 0.81319,-1.64 0.80342,-2.79213 l 0,0 z m 4.92035,3.63956 -3.59949,-12.8928 9.32222,-2.60263 0.42477,1.52145 -7.61608,2.1263 1.10244,3.94876 7.13237,-1.99126 0.42232,1.51266 -7.13238,1.99126 1.2252,4.38848 7.91509,-2.20978 0.42477,1.52145 -9.62123,2.68611 z"
           id="text3774"
           style="font-size:18.70000076px;font-style:normal;font-variant:normal;font-weight:normal;font-stretch:normal;text-align:start;line-height:100%;writing-mode:lr-tb;text-anchor:start;fill:#000000;fill-opacity:1;stroke:none;font-family:Arial;-inkscape-font-specification:Arial" />
        <path
           d="m 138.43056,386.989 c 0,0 41.56259,15.98505 115.73176,15.98505 74.48832,0 115.73178,-15.98505 115.73178,-15.98505"
           id="path3794"
           style="fill:none;stroke:none" />
      </g>
    </g>
  </g>
</svg>
