<?xml version="1.0" encoding="UTF-8" standalone="no"?>
<!-- Created with Inkscape (http://www.inkscape.org/) -->

<svg
   xmlns:dc="http://purl.org/dc/elements/1.1/"
   xmlns:cc="http://creativecommons.org/ns#"
   xmlns:rdf="http://www.w3.org/1999/02/22-rdf-syntax-ns#"
   xmlns:svg="http://www.w3.org/2000/svg"
   xmlns="http://www.w3.org/2000/svg"
   xmlns:xlink="http://www.w3.org/1999/xlink"
   xmlns:sodipodi="http://sodipodi.sourceforge.net/DTD/sodipodi-0.dtd"
   xmlns:inkscape="http://www.inkscape.org/namespaces/inkscape"
   version="1.0"
   width="390.69785"
   height="427.00174"
   viewBox="-15 -7.5 29.302338 14.633471"
   id="Coat_of_Arms_of_the_British_Virgin_Islands"
   inkscape:version="0.47 r22583"
   sodipodi:docname="VVA1.svg">
  <metadata
     id="metadata85">
    <rdf:RDF>
      <cc:Work
         rdf:about="">
        <dc:format>image/svg+xml</dc:format>
        <dc:type
           rdf:resource="http://purl.org/dc/dcmitype/StillImage" />
      </cc:Work>
    </rdf:RDF>
  </metadata>
  <sodipodi:namedview
     pagecolor="#ffffff"
     bordercolor="#666666"
     borderopacity="1"
     objecttolerance="10"
     gridtolerance="10"
     guidetolerance="10"
     inkscape:pageopacity="0"
     inkscape:pageshadow="2"
     inkscape:window-width="1280"
     inkscape:window-height="1004"
     id="namedview83"
     showgrid="false"
     inkscape:zoom="0.53918579"
     inkscape:cx="195.51143"
     inkscape:cy="213.82688"
     inkscape:window-x="-8"
     inkscape:window-y="-8"
     inkscape:window-maximized="1"
     inkscape:current-layer="Coat_of_Arms_of_the_British_Virgin_Islands" />
  <defs
     id="defs3">
    <inkscape:perspective
       sodipodi:type="inkscape:persp3d"
       inkscape:vp_x="0 : 218.8485 : 1"
       inkscape:vp_y="0 : 1000 : 0"
       inkscape:vp_z="400 : 218.8485 : 1"
       inkscape:persp3d-origin="200 : 145.899 : 1"
       id="perspective87" />
    <clipPath
       id="border">
      <rect
         width="30"
         height="15"
         x="-15"
         y="-7.5"
         id="rect6" />
    </clipPath>
  </defs>
  <g
     transform="matrix(0.713117,0,0,0.713117,2.6633086,-30.593003)"
     id="BVI_arms">
    <path
       d="m -19.55005,20.184826 30.76886,-0.179587 0,27.656046 c 0.05986,3.591705 -5.98615,7.243255 -15.44428,11.91244 -9.75745,-5.028382 -15.38444,-8.0813 -15.4443,-11.972303 l 0.11972,-27.416596 z"
       style="fill:#144d29;fill-opacity:1;fill-rule:evenodd;stroke:#000000;stroke-width:0.19455012pt;stroke-linecap:butt;stroke-linejoin:miter;stroke-opacity:1"
       id="path779" />
    <g
       transform="matrix(0.19455,0,0,0.19455,-28.9398,-8.90419)"
       id="g624">
      <path
         d="m 69.78628,170.5296 9.33539,-13.7109 9.38089,13.7396"
         style="fill:none;stroke:#fcc917;stroke-width:1pt;stroke-linecap:butt;stroke-linejoin:miter;stroke-opacity:1"
         id="path625" />
      <path
         d="m 80.922043,156.72391 c 3.23e-4,0.94218 -0.763404,1.70614 -1.70562,1.70614 -0.942216,0 -1.705943,-0.76396 -1.70562,-1.70614 -3.23e-4,-0.94218 0.763404,-1.70614 1.70562,-1.70614 0.942216,0 1.705943,0.76396 1.70562,1.70614 z"
         transform="matrix(1.086991,0,0,1.087005,-6.965268,-4.956314)"
         style="fill:#fcc917;fill-opacity:1;fill-rule:evenodd;stroke:#000000;stroke-width:0.57499999;stroke-linecap:butt;stroke-linejoin:miter;stroke-opacity:1;stroke-dasharray:none"
         id="path626" />
      <path
         d="m 71.54115,180.6562 14.4728,0.0412 c 0,0 0.22693,-1.8783 -1.51173,-3.0199 7.58054,-1.0424 5.61121,-7.7289 11.95988,-8.1079 1.23184,0.1895 -3.31647,2.8427 -3.31647,2.8427 0,0 -3.82774,2.7012 -2.08465,4.0745 1.38387,1.0903 1.98989,-0.6632 2.17941,-1.9898 0.18951,-1.3266 6.15915,-2.1794 5.30636,-5.9696 -1.42135,-3.127 -9.75992,2.0845 -9.75992,2.0845 l -5.94908,-0.033 c -0.37093,-0.6677 -2.01046,-3.3452 -3.70363,-3.3576 -2.00875,0.0733 -3.42369,3.3906 -3.42369,3.3906 l -8.62284,0 -4.83258,0 c 0,0 -0.46132,3.4524 6.36116,4.1157 1.53604,2.0061 2.72675,2.5666 4.06206,3.0859 -0.89021,0.7419 -1.14082,1.6394 -1.13708,2.8427 z"
         style="fill:#fcc917;fill-opacity:1;fill-rule:evenodd;stroke:#000000;stroke-width:0.625;stroke-linecap:butt;stroke-linejoin:miter;stroke-opacity:1;stroke-dasharray:none"
         id="path627" />
      <path
         d="m 72.58347,177.7187 12.05464,-0.0411"
         style="fill:none;stroke:#000000;stroke-width:0.625;stroke-linecap:butt;stroke-linejoin:miter;stroke-opacity:1;stroke-dasharray:none"
         id="path628" />
      <path
         d="m 67.06232,170.6113 c 0,0 0.96439,5.6381 5.41543,6.9734"
         style="fill:none;stroke:#000000;stroke-width:0.625;stroke-linecap:butt;stroke-linejoin:miter;stroke-opacity:1;stroke-dasharray:none"
         id="path629" />
      <path
         d="m 66.32047,170.5373 c 0.4451,-2.1513 1.26113,-2.5223 2.15134,-5.2671 0.14837,-2.6706 -2.15134,-2.3739 -1.48368,-4.0801 1.18694,-1.8546 0.59347,-3.635 -1.63205,-5.0445 0.44511,2.4481 -2.89317,4.7478 -2.89317,6.7507 0,2.003 1.70623,1.5579 1.48368,4.5995 0.14837,1.7803 -0.4451,1.3353 -0.59347,3.0415 l 2.96735,0 z"
         style="fill:#cf142b;fill-opacity:1;fill-rule:evenodd;stroke:#000000;stroke-width:0.625;stroke-linecap:butt;stroke-linejoin:miter;stroke-opacity:1;stroke-dasharray:none"
         id="path630" />
      <path
         d="m 80.922043,156.72391 c 3.23e-4,0.94218 -0.763404,1.70614 -1.70562,1.70614 -0.942216,0 -1.705943,-0.76396 -1.70562,-1.70614 -3.23e-4,-0.94218 0.763404,-1.70614 1.70562,-1.70614 0.942216,0 1.705943,0.76396 1.70562,1.70614 z"
         transform="translate(-0.07418633,0.445068)"
         style="fill:#fcc917;fill-opacity:1;fill-rule:evenodd;stroke:#000000;stroke-width:0.625;stroke-linecap:butt;stroke-linejoin:miter;stroke-opacity:1;stroke-dasharray:none"
         id="path631" />
    </g>
    <use
       transform="translate(3.302108,16.24849)"
       id="use3583"
       x="0"
       y="0"
       width="30"
       height="15"
       xlink:href="#g624" />
    <path
       d="m 139.2183,183.9001 c 0,0 3.7768,8.7077 8.0782,3.3572 4.3014,-5.3505 2.7278,-7.6586 2.7278,-7.6586 l -9.652,-5.2456 -2.8326,5.98 1.6786,3.567 z"
       transform="matrix(0.19455,0,0,0.19455,-29.4272,17.42057)"
       style="fill:#fcc917;fill-opacity:1;fill-rule:evenodd;stroke:#000000;stroke-width:0.625;stroke-linecap:butt;stroke-linejoin:miter;stroke-opacity:1;stroke-dasharray:none"
       id="path718" />
    <path
       d="m 147.5064,182.746 c 0,0 0.6294,0.105 1.154,-0.8392 0.5246,-0.9442 -1.154,-1.364 -1.8884,-2.4131 l -0.8393,1.6787 1.5737,1.5736 z"
       transform="matrix(0.19455,0,0,0.19455,-29.4272,17.42057)"
       style="fill:#ffc6b5;fill-opacity:1;fill-rule:evenodd;stroke:#000000;stroke-width:0.625;stroke-linecap:butt;stroke-linejoin:miter;stroke-opacity:1;stroke-dasharray:none"
       id="path678" />
    <path
       d="m 125.6847,180.438 -8.4979,4.6161 c 0,0 -4.1965,0.8392 -4.5112,0 -0.3148,-0.8393 0.1049,-1.5737 2.308,-1.6786 2.2032,-0.1049 8.1832,-5.5604 8.1832,-5.5604 l 2.5179,2.6229 z"
       transform="matrix(0.19455,0,0,0.19455,-29.4272,17.42057)"
       style="fill:#ffc6b5;fill-opacity:1;fill-rule:evenodd;stroke:#000000;stroke-width:0.625;stroke-linecap:butt;stroke-linejoin:miter;stroke-opacity:1;stroke-dasharray:none"
       id="path675" />
    <path
       d="m 125.7896,29.4695 c 0,0 0.2098,1.99333 0.3147,3.04245 0.1049,1.04912 -1.6786,3.25226 -1.7835,3.14735 -0.1049,-0.1049 -0.9442,0.10491 -0.8393,0.73441 0.1049,0.6295 1.3639,0.83931 1.3639,0.83931 0,0 -0.5246,2.20314 0,2.30804 0.5245,0.10491 -1.3639,2.83272 0,3.56705 1.3638,0.73433 3.6719,1.67854 4.721,1.46873 1.0491,-0.20981 0,4.09157 0,4.09157 l -2.9375,6.29471 16.1564,-1.67854 -3.3572,-5.35057 c 0,0 -1.5736,-1.04912 -1.154,-4.09157 0.4197,-3.04245 -0.2098,-16.78589 -0.2098,-16.78589 l -11.5403,-1.57372 -0.7344,3.98667 z"
       transform="matrix(0.19455,0,0,0.19455,-29.4272,17.42057)"
       style="fill:#ffc6b5;fill-opacity:1;fill-rule:evenodd;stroke:#000000;stroke-width:0.625;stroke-linecap:butt;stroke-linejoin:miter;stroke-opacity:1;stroke-dasharray:none"
       id="path674" />
    <path
       d="m 122.852,53.38951 c 0,0 -5.2456,2.41303 -5.0358,8.91754 -1.3638,6.29471 -2.0982,12.58942 -2.0982,12.58942 0,0 -6.1898,7.02904 -8.0782,9.54697 -1.8884,2.51792 -4.7211,7.65853 -5.7702,9.02244 -1.0491,1.36391 -5.14066,5.87517 -5.03576,7.55372 0.10491,1.6785 -0.94421,9.1274 3.14735,9.9666 1.04911,0.4196 4.40631,-8.6028 4.40631,-8.6028 0,0 0.2098,-3.88166 -0.9442,-4.61607 -1.154,-0.7344 2.5179,-3.25233 2.5179,-3.25233 0,0 7.0291,-5.14069 8.6028,-6.39961 1.5737,-1.25893 5.8751,-6.0849 5.8751,-6.0849 l 2.4129,-28.64098 z"
       transform="matrix(0.19455,0,0,0.19455,-29.4272,17.42057)"
       style="fill:#ffc6b5;fill-opacity:1;fill-rule:evenodd;stroke:#000000;stroke-width:0.625;stroke-linecap:butt;stroke-linejoin:miter;stroke-opacity:1;stroke-dasharray:none"
       id="path672" />
    <path
       d="m 128.832,48.45863 c 0,0 1.3639,3.67195 4.4063,3.04245 3.0425,-0.6295 6.6095,-3.46206 6.6095,-3.46206 0,0 2.8326,-0.10491 3.2523,0.31471 0.4196,0.41962 7.6585,7.44865 7.4487,9.65187 -0.2098,2.20322 -3.3572,1.57364 -4.5112,3.04245 -1.154,1.46881 -3.0425,5.14069 -2.5179,7.86842 0.5246,2.72774 2.0982,6.29479 1.8884,7.65862 -0.2098,1.36383 -1.3638,1.78345 -1.3638,2.51785 0,0.73441 0.9442,1.99341 0.9442,3.35724 0,1.36383 -1.259,3.35709 -1.0491,4.72099 0.2098,1.36391 0.3147,5.3505 0.3147,5.3505 l -0.3147,18.46453 c 0,0 1.0491,0.6294 1.154,1.6786 0.1049,1.0491 7.134,31.5785 7.134,31.5785 0,0 -0.3147,0.9442 -1.0491,0.8393 -0.7344,-0.1049 2.8326,4.721 2.9375,6.0849 0.1049,1.3639 3.672,12.065 3.567,13.5337 -0.1049,1.4687 -0.6294,4.721 -0.9442,4.8259 -0.3147,0.1049 2.3081,6.7144 1.8884,7.7635 -0.4196,1.0491 -4.721,0.9442 -4.721,0.9442 l -1.154,-0.2098 c 0,0 0.1049,1.3639 -0.7344,1.4688 -0.8393,0.1049 -7.0291,-0.3148 -7.0291,-0.3148 0,0 -1.7835,2.7277 -2.8326,2.6228 -1.0492,-0.1049 -2.413,-1.9933 -2.7278,-1.6785 -0.3147,0.3147 0.9443,2.0981 0.6295,2.6227 -0.3147,0.5246 -5.6652,1.6787 -6.7144,-0.8392 -1.0491,-2.5179 0.6295,-1.8885 0.3148,-2.413 -0.3148,-0.5246 -2.7277,-1.8884 -3.4621,-1.4688 -0.7344,0.4196 1.8884,1.0491 1.7835,2.0983 -0.1049,1.0491 -2.3081,2.6227 -3.1474,2.6227 -0.8393,0 -2.8326,-3.8817 -5.7701,-3.462 -2.9376,0.4196 -4.826,1.154 -4.826,1.154 0,0 -3.4621,1.4687 -4.9309,1.154 -1.4687,-0.3147 -2.0982,-1.4688 -2.0982,-2.0982 0,-0.6295 1.0491,-3.3572 0.9442,-4.1965 -0.1049,-0.8393 -0.9442,-1.6786 -0.9442,-2.9376 0,-1.2589 2.413,-5.5603 2.413,-5.5603 l -0.1049,-19.3038 c 0,0 -2.2032,-1e-4 -2.3081,-1.3639 -0.1049,-1.3638 3.3572,-30.5294 3.8817,-32.4178 0.5246,-1.8884 1.8885,-8.6028 1.8885,-8.6028 0,0 -1.5737,0.7344 -1.6786,0 -0.1049,-0.7344 4.721,-17.41533 4.721,-17.41533 0,0 0.8393,-8.28812 0.8393,-10.49126 0,-2.20314 -0.4196,-5.24559 -0.4196,-5.24559 0,0 -4.3072,-1.82335 -4.4064,-4.61609 -0.3939,-4.44335 4.0916,-6.92428 4.6162,-8.39302 0.5245,-1.46873 2.0982,-5.87501 2.0982,-5.87501 0,0 2.3081,-3.98667 6.0849,-4.61617 z"
       transform="matrix(0.19455,0,0,0.19455,-29.4272,17.42057)"
       style="fill:#ffffff;fill-opacity:1;fill-rule:evenodd;stroke:#000000;stroke-width:0.625;stroke-linecap:butt;stroke-linejoin:miter;stroke-opacity:1;stroke-dasharray:none"
       id="path679" />
    <path
       d="m 127.2583,181.6969 c 0,0 -10.1764,5.3506 -11.6452,5.7702 -1.4688,0.4196 -2.413,-1.7835 -0.9442,-2.2032 1.4688,-0.4196 3.7768,-0.6295 3.7768,-0.6295 0,0 -3.4621,-2.7277 -3.3572,-2.8326 0.105,-0.1049 4.7211,-1.7834 4.826,-1.7834 0.1049,0 1.4688,2.7276 2.413,2.5178 0.9442,-0.2098 3.6719,-2.308 3.6719,-2.308 0,0 1.4688,1.6786 1.2589,1.4687 z"
       transform="matrix(0.19455,0,0,0.19455,-29.4272,17.42057)"
       style="fill:#fcc917;fill-opacity:1;fill-rule:evenodd;stroke:#000000;stroke-width:0.625;stroke-linecap:butt;stroke-linejoin:miter;stroke-opacity:1;stroke-dasharray:none"
       id="path717" />
    <path
       d="m 141.5953,184.6344 c 0.9622,1.2409 1.3384,3.3932 3.5416,2.1343 2.2031,-1.2589 -1.1286,-3.5956 -1.1286,-3.5956 l -2.413,1.4613 z"
       transform="matrix(0.19455,0,0,0.19455,-29.4272,17.42057)"
       style="fill:#ffc6b5;fill-opacity:1;fill-rule:evenodd;stroke:#000000;stroke-width:0.625;stroke-linecap:butt;stroke-linejoin:miter;stroke-opacity:1;stroke-dasharray:none"
       id="path676" />
    <path
       d="m 145.618,184.4246 c 0,0 1.0491,0.8393 1.9933,-0.1049 0.9442,-0.9442 -1.8885,-2.9375 -1.8885,-2.9375 l -1.3638,1.5737 1.259,1.4687 z"
       transform="matrix(0.19455,0,0,0.19455,-29.4272,17.42057)"
       style="fill:#ffc6b5;fill-opacity:1;fill-rule:evenodd;stroke:#000000;stroke-width:0.625;stroke-linecap:butt;stroke-linejoin:miter;stroke-opacity:1;stroke-dasharray:none"
       id="path677" />
    <path
       d="m 142.4706,52.55017 c 0,0 -9.3372,5.98 -9.1274,8.07823"
       transform="matrix(0.19455,0,0,0.19455,-29.4272,17.42057)"
       style="fill:none;stroke:#000000;stroke-width:0.625;stroke-linecap:butt;stroke-linejoin:miter;stroke-opacity:1;stroke-dasharray:none"
       id="path680" />
    <path
       d="m 144.5688,53.59929 c 0,0 -2.0982,2.30804 -2.2031,2.30804"
       transform="matrix(0.19455,0,0,0.19455,-29.4272,17.42057)"
       style="fill:none;stroke:#000000;stroke-width:0.625;stroke-linecap:butt;stroke-linejoin:miter;stroke-opacity:1;stroke-dasharray:none"
       id="path681" />
    <path
       d="m 147.4015,56.11722 c 0,0 -4.6162,3.77685 -3.8818,6.1898"
       transform="matrix(0.19455,0,0,0.19455,-29.4272,17.42057)"
       style="fill:none;stroke:#000000;stroke-width:0.625;stroke-linecap:butt;stroke-linejoin:miter;stroke-opacity:1;stroke-dasharray:none"
       id="path682" />
    <path
       d="m 125.5797,52.02565 c 0,0 -1.3638,2.83257 -1.0491,3.77678 0.3148,0.94421 2.6228,4.51126 2.9376,6.7144 0.3147,2.20314 0,3.77686 0,3.77686"
       transform="matrix(0.19455,0,0,0.19455,-29.4272,17.42057)"
       style="fill:none;stroke:#000000;stroke-width:0.625;stroke-linecap:butt;stroke-linejoin:miter;stroke-opacity:1;stroke-dasharray:none"
       id="path683" />
    <path
       d="m 123.1668,57.27124 c 0,0 0.4196,3.35724 1.0491,3.98666 0.6295,0.62943 2.3081,3.46207 2.5179,4.61609"
       transform="matrix(0.19455,0,0,0.19455,-29.4272,17.42057)"
       style="fill:none;stroke:#000000;stroke-width:0.625;stroke-linecap:butt;stroke-linejoin:miter;stroke-opacity:1;stroke-dasharray:none"
       id="path684" />
    <path
       d="m 122.3275,71.22449 c 0,0 2.7277,1.36398 5.2456,-3.88169"
       transform="matrix(0.19455,0,0,0.19455,-29.4272,17.42057)"
       style="fill:none;stroke:#000000;stroke-width:0.625;stroke-linecap:butt;stroke-linejoin:miter;stroke-opacity:1;stroke-dasharray:none"
       id="path685" />
    <path
       d="m 131.6646,63.67085 c -0.1049,0 -1.9933,5.14069 1.3639,7.02912 3.3572,1.88842 5.8751,1.67854 7.3438,1.15402 1.4688,-0.52452 3.0425,-1.46874 3.0425,-1.46874"
       transform="matrix(0.19455,0,0,0.19455,-29.4272,17.42057)"
       style="fill:none;stroke:#000000;stroke-width:0.625;stroke-linecap:butt;stroke-linejoin:miter;stroke-opacity:1;stroke-dasharray:none"
       id="path686" />
    <path
       d="m 130.1959,69.96556 c 0,0 0.2098,6.92429 10.3863,13.74352"
       transform="matrix(0.19455,0,0,0.19455,-29.4272,17.42057)"
       style="fill:none;stroke:#000000;stroke-width:0.625;stroke-linecap:butt;stroke-linejoin:miter;stroke-opacity:1;stroke-dasharray:none"
       id="path687" />
    <path
       d="m 130.6155,76.47015 c 0,0 -0.1049,6.08483 3.8818,8.81256"
       transform="matrix(0.19455,0,0,0.19455,-29.4272,17.42057)"
       style="fill:none;stroke:#000000;stroke-width:0.625;stroke-linecap:butt;stroke-linejoin:miter;stroke-opacity:1;stroke-dasharray:none"
       id="path688" />
    <path
       d="m 128.5173,69.33614 c 0,0 -3.0425,9.02237 -5.4554,9.96658"
       transform="matrix(0.19455,0,0,0.19455,-29.4272,17.42057)"
       style="fill:none;stroke:#000000;stroke-width:0.625;stroke-linecap:butt;stroke-linejoin:miter;stroke-opacity:1;stroke-dasharray:none"
       id="path689" />
    <path
       d="m 127.5731,75.94556 c 0,0 -0.1049,6.50459 -0.9442,8.81263"
       transform="matrix(0.19455,0,0,0.19455,-29.4272,17.42057)"
       style="fill:none;stroke:#000000;stroke-width:0.625;stroke-linecap:butt;stroke-linejoin:miter;stroke-opacity:1;stroke-dasharray:none"
       id="path690" />
    <path
       d="m 125.7896,86.33183 c 0,0 2.0982,2.62284 4.4063,2.41303 2.308,-0.20981 3.2522,-2.93762 4.8259,-2.51793 1.5737,0.41969 3.0425,1.67869 6.7144,1.36391"
       transform="matrix(0.19455,0,0,0.19455,-29.4272,17.42057)"
       style="fill:none;stroke:#000000;stroke-width:0.625;stroke-linecap:butt;stroke-linejoin:miter;stroke-opacity:1;stroke-dasharray:none"
       id="path691" />
    <path
       d="m 136.4906,90.3185 c 0,0 0,5.35049 0.9442,5.87509 0.9442,0.5246 0.5246,5.45541 0.5246,5.45541"
       transform="matrix(0.19455,0,0,0.19455,-29.4272,17.42057)"
       style="fill:none;stroke:#000000;stroke-width:0.625;stroke-linecap:butt;stroke-linejoin:miter;stroke-opacity:1;stroke-dasharray:none"
       id="path692" />
    <path
       d="m 123.6913,87.80064 c 0,0 -0.1049,5.03586 -0.7344,6.81931 -0.6294,1.78345 -1.8884,4.82597 -1.6785,7.44875"
       transform="matrix(0.19455,0,0,0.19455,-29.4272,17.42057)"
       style="fill:none;stroke:#000000;stroke-width:0.625;stroke-linecap:butt;stroke-linejoin:miter;stroke-opacity:1;stroke-dasharray:none"
       id="path693" />
    <path
       d="m 117.2917,105.0061 c 0.5245,-0.2098 2.3081,-1.7834 2.3081,-1.7834"
       transform="matrix(0.19455,0,0,0.19455,-29.4272,17.42057)"
       style="fill:none;stroke:#000000;stroke-width:0.625;stroke-linecap:butt;stroke-linejoin:miter;stroke-opacity:1;stroke-dasharray:none"
       id="path694" />
    <path
       d="m 120.544,104.3767 c 0,0 -4.5113,19.3039 -3.2523,30.8442"
       transform="matrix(0.19455,0,0,0.19455,-29.4272,17.42057)"
       style="fill:none;stroke:#000000;stroke-width:0.625;stroke-linecap:butt;stroke-linejoin:miter;stroke-opacity:1;stroke-dasharray:none"
       id="path695" />
    <path
       d="m 121.5931,105.3209 c 0,0 -2.3081,14.4779 -1.259,17.2056"
       transform="matrix(0.19455,0,0,0.19455,-29.4272,17.42057)"
       style="fill:none;stroke:#000000;stroke-width:0.625;stroke-linecap:butt;stroke-linejoin:miter;stroke-opacity:1;stroke-dasharray:none"
       id="path696" />
    <path
       d="m 120.4391,104.9013 c 0.1049,0 8.8126,0.6294 8.8126,0.6294"
       transform="matrix(0.19455,0,0,0.19455,-29.4272,17.42057)"
       style="fill:none;stroke:#000000;stroke-width:0.625;stroke-linecap:butt;stroke-linejoin:miter;stroke-opacity:1;stroke-dasharray:none"
       id="path697" />
    <path
       d="m 130.5106,104.3767 c 0,0 2.413,1.259 5.7702,1.0491"
       transform="matrix(0.19455,0,0,0.19455,-29.4272,17.42057)"
       style="fill:none;stroke:#000000;stroke-width:0.625;stroke-linecap:butt;stroke-linejoin:miter;stroke-opacity:1;stroke-dasharray:none"
       id="path698" />
    <path
       d="m 129.4615,111.4058 c 0,0 -0.4197,24.7593 -1.0491,30.2147"
       transform="matrix(0.19455,0,0,0.19455,-29.4272,17.42057)"
       style="fill:none;stroke:#000000;stroke-width:0.625;stroke-linecap:butt;stroke-linejoin:miter;stroke-opacity:1;stroke-dasharray:none"
       id="path699" />
    <path
       d="m 142.3657,117.0711 c 0,0 2.7277,21.7168 4.3014,23.7101"
       transform="matrix(0.19455,0,0,0.19455,-29.4272,17.42057)"
       style="fill:none;stroke:#000000;stroke-width:0.625;stroke-linecap:butt;stroke-linejoin:miter;stroke-opacity:1;stroke-dasharray:none"
       id="path700" />
    <path
       d="m 137.1201,119.7988 c 0,0 1.6786,19.1989 2.6228,20.8775"
       transform="matrix(0.19455,0,0,0.19455,-29.4272,17.42057)"
       style="fill:none;stroke:#000000;stroke-width:0.625;stroke-linecap:butt;stroke-linejoin:miter;stroke-opacity:1;stroke-dasharray:none"
       id="path701" />
    <path
       d="m 113.3051,147.3907 c 0,0 3.2522,-1.0492 6.1897,-4.1965 3.3573,4.5112 8.4979,0.2099 8.4979,0.2099 0,0 7.9733,5.4554 11.5404,-0.6295 5.4554,3.567 8.1831,-0.5246 8.1831,-0.5246 0,0 1.9934,3.0424 3.4621,2.7277"
       transform="matrix(0.19455,0,0,0.19455,-29.4272,17.42057)"
       style="fill:none;stroke:#000000;stroke-width:0.625;stroke-linecap:butt;stroke-linejoin:miter;stroke-opacity:1;stroke-dasharray:none"
       id="path702" />
    <path
       d="m 142.4706,147.0759 c 0,0 4.0916,19.199 10.1765,24.6544"
       transform="matrix(0.19455,0,0,0.19455,-29.4272,17.42057)"
       style="fill:none;stroke:#000000;stroke-width:0.625;stroke-linecap:butt;stroke-linejoin:miter;stroke-opacity:1;stroke-dasharray:none"
       id="path703" />
    <path
       d="m 121.3833,145.0826 c 0,0 0.5245,16.0516 1.4687,27.382"
       transform="matrix(0.19455,0,0,0.19455,-29.4272,17.42057)"
       style="fill:none;stroke:#000000;stroke-width:0.625;stroke-linecap:butt;stroke-linejoin:miter;stroke-opacity:1;stroke-dasharray:none"
       id="path704" />
    <path
       d="m 120.6489,163.2324 c 0,0 -0.5246,10.4912 -1.1541,11.2256"
       transform="matrix(0.19455,0,0,0.19455,-29.4272,17.42057)"
       style="fill:none;stroke:#000000;stroke-width:0.625;stroke-linecap:butt;stroke-linejoin:miter;stroke-opacity:1;stroke-dasharray:none"
       id="path705" />
    <path
       d="m 114.4591,175.5071 c 0,0 1.154,4.5113 6.9242,0.3148 5.7701,-4.1966 5.875,1.5737 6.0849,2.2031 0.2098,0.6294 1.154,5.1407 3.3571,1.3639"
       transform="matrix(0.19455,0,0,0.19455,-29.4272,17.42057)"
       style="fill:none;stroke:#000000;stroke-width:0.625;stroke-linecap:butt;stroke-linejoin:miter;stroke-opacity:1;stroke-dasharray:none"
       id="path707" />
    <path
       d="m 135.4415,173.1991 c 0,0 -0.9442,9.337 7.3438,2.5178 8.2881,-6.8192 9.6519,-0.1048 9.8617,1.9934"
       transform="matrix(0.19455,0,0,0.19455,-29.4272,17.42057)"
       style="fill:none;stroke:#000000;stroke-width:0.625;stroke-linecap:butt;stroke-linejoin:miter;stroke-opacity:1;stroke-dasharray:none"
       id="path708" />
    <path
       d="m 125.4748,28.8401 c 0,0 2.3081,0.31464 3.567,-0.41969 1.259,-0.73433 2.7278,-1.04904 3.7769,0.41969 1.0491,1.46874 1.7835,1.36383 1.7835,1.36383 0,0 -1.5737,3.88169 0,4.30138 1.5737,0.41969 2.308,0.41962 2.413,0.94421 0.1049,0.5246 -1.3639,1.67855 -0.9443,2.20314 0.4197,0.5246 1.1541,1.1541 1.259,1.57372 0.1049,0.41962 -0.9442,2.20306 -0.6295,2.62276 0.3148,0.41969 1.259,2.09831 1.8884,2.09831 0.6295,0 0.2099,2.62283 2.0983,1.99333 1.8884,-0.6295 1.7835,-2.30812 1.7835,-2.30812 0,0 1.9933,-0.31471 2.5179,-2.09824 0.5245,-1.78352 1.7835,-2.20314 1.7835,-2.20314 0,0 2.5179,-1.36383 -0.8393,-3.46206 0,-14.68773 -9.6519,-13.11402 -9.6519,-13.11402 0,0 -1.1541,-2.62291 -3.0425,-2.30812 -1.8884,0.31479 -1.9933,2.51801 -3.3572,2.30812 -1.3638,-0.20988 -1.6785,-1.15402 -1.7835,-1.04911 -0.1049,0.1049 -1.2589,2.20306 -1.2589,2.72766 0,0.52459 -3.6719,-0.73441 -3.3572,1.99333 0.3147,2.72774 2.0982,2.62283 1.9933,2.41302 z"
       transform="matrix(0.19455,0,0,0.19455,-29.4272,17.42057)"
       style="fill:#5c3021;fill-opacity:1;fill-rule:evenodd;stroke:#000000;stroke-width:0.625;stroke-linecap:butt;stroke-linejoin:miter;stroke-opacity:1;stroke-dasharray:none"
       id="path709" />
    <path
       d="m 135.5464,25.27306 c 0,0 -0.7344,4.61608 4.1965,4.19647 -0.6295,2.51793 1.2589,3.35724 1.2589,3.35724"
       transform="matrix(0.19455,0,0,0.19455,-29.4272,17.42057)"
       style="fill:none;stroke:#000000;stroke-width:0.625;stroke-linecap:butt;stroke-linejoin:miter;stroke-opacity:1;stroke-dasharray:none"
       id="path710" />
    <path
       d="m 144.6737,35.6593 c 0.105,0 2.2032,1.36383 -0.1049,3.04245"
       transform="matrix(0.19455,0,0,0.19455,-29.4272,17.42057)"
       style="fill:none;stroke:#000000;stroke-width:0.625;stroke-linecap:butt;stroke-linejoin:miter;stroke-opacity:1;stroke-dasharray:none"
       id="path711" />
    <path
       d="m 137.5398,39.33121 c 0,0 1.049,1.259 2.2031,0.94429 1.154,-0.31472 3.0424,1.15402 3.0424,1.15402 0,0 1.5737,0.52452 1.7835,0.20981"
       transform="matrix(0.19455,0,0,0.19455,-29.4272,17.42057)"
       style="fill:none;stroke:#000000;stroke-width:0.625;stroke-linecap:butt;stroke-linejoin:miter;stroke-opacity:1;stroke-dasharray:none"
       id="path712" />
    <path
       d="m 131.1401,43.31792 c 0,0 3.567,1.3639 5.8751,-4.30138"
       transform="matrix(0.19455,0,0,0.19455,-29.4272,17.42057)"
       style="fill:none;stroke:#000000;stroke-width:0.625;stroke-linecap:butt;stroke-linejoin:miter;stroke-opacity:1;stroke-dasharray:none"
       id="path713" />
    <path
       d="m 124.5306,37.33792 2.0983,0.10491"
       transform="matrix(0.19455,0,0,0.19455,-29.4272,17.42057)"
       style="fill:none;stroke:#000000;stroke-width:0.625;stroke-linecap:butt;stroke-linejoin:miter;stroke-opacity:1;stroke-dasharray:none"
       id="path714" />
    <path
       d="m 124.8454,39.43616 1.8884,0 -1.6786,0.7344"
       transform="matrix(0.19455,0,0,0.19455,-29.4272,17.42057)"
       style="fill:none;stroke:#000000;stroke-width:0.625;stroke-linecap:butt;stroke-linejoin:round;stroke-opacity:1;stroke-dasharray:none"
       id="path715" />
    <path
       d="m 127.4682,33.56107 c 0.3147,0 1.4687,-0.4197 1.6786,-0.10491 0.2098,0.31479 -1.259,0.5246 -1.6786,0.10491 z"
       transform="matrix(0.19455,0,0,0.19455,-29.4272,17.42057)"
       style="fill:none;stroke:#000000;stroke-width:1.125;stroke-linecap:butt;stroke-linejoin:round;stroke-opacity:1;stroke-dasharray:none"
       id="path716" />
    <path
       d="m 150.1292,58.48671 c 0.1049,0 3.4621,10.38635 3.8817,13.00911 0.4197,2.62276 1.7835,13.11394 1.259,14.58275 -0.5246,1.46881 -5.8751,8.49785 -6.5046,10.28137 -0.6295,1.78352 -4.4063,8.60286 -4.4063,8.60286 0,0 -0.9442,6.7144 -1.3639,7.0291 -0.4196,0.3148 1.0831,1.9628 0.9443,2.5179 -0.2082,0.6245 -3.0425,3.567 -4.3014,3.2523 -1.259,-0.3148 -3.2523,-1.7836 -3.3572,-3.1474 -0.1049,-1.3638 0.1049,-5.8751 1.0491,-7.0291 0.9442,-1.154 5.8751,-12.7993 6.1898,-13.5337 0.3147,-0.73441 4.5112,-9.86168 4.6161,-11.4354 0.105,-1.57371 -1.3054,-5.21271 -2.7891,-6.548 -3.302,-9.71817 -2.0046,-15.57877 4.7825,-17.58179 z"
       transform="matrix(0.19455,0,0,0.19455,-29.4272,17.42057)"
       style="fill:#ffc6b5;fill-opacity:1;fill-rule:evenodd;stroke:#000000;stroke-width:0.625;stroke-linecap:butt;stroke-linejoin:miter;stroke-opacity:1;stroke-dasharray:none"
       id="path673" />
    <path
       d="m 101.2544,103.5006 0.1642,4.5977"
       transform="matrix(0.19455,0,0,0.19455,-29.4272,17.42057)"
       style="fill:none;stroke:#000000;stroke-width:0.625;stroke-linecap:butt;stroke-linejoin:miter;stroke-opacity:1;stroke-dasharray:none"
       id="path726" />
    <path
       d="m 96.94218,103.1597 c 0,0 2.94772,4.9298 2.70141,7.557"
       transform="matrix(0.19455,0,0,0.19455,-29.4272,17.42057)"
       style="fill:none;stroke:#000000;stroke-width:0.625;stroke-linecap:butt;stroke-linejoin:miter;stroke-opacity:1;stroke-dasharray:none"
       id="path727" />
    <path
       d="m 136.4511,113.4604 c 0,0 2.204,-0.2316 2.1346,3.4481 1.4074,-4.5711 4.2692,-4.6797 4.2692,-4.6797"
       transform="matrix(0.19455,0,0,0.19455,-29.4272,17.42057)"
       style="fill:none;stroke:#000000;stroke-width:0.625;stroke-linecap:butt;stroke-linejoin:round;stroke-opacity:1;stroke-dasharray:none"
       id="path728" />
    <path
       d="m -4.3452,59.932904 c 8.62007,-0.239454 14.18718,-6.465057 14.12731,-6.52492 -0.05984,-0.05986 1.13738,-1.73599 2.09517,-1.496539 0.95779,0.239454 2.3346,3.05294 4.01073,3.65155 0.83805,1.316949 -0.23945,2.514192 -0.59863,2.753644 -0.35916,0.239451 -1.97542,0.897926 -2.21487,-0.05986 -0.23944,-0.95779 -0.71834,-0.7782 -0.71834,-0.7782 0,0 -7.66228,7.482689 -16.5218,7.183394 -9.15881,0.05986 -16.70137,-7.183394 -16.70137,-7.183394 l -0.65848,0.718337 c 0,0 -0.71834,0.778202 -1.07751,0.718338 -0.35916,-0.05986 -1.91557,-1.077496 -2.03529,-2.09515 -0.11972,-1.017651 0.95779,-1.676125 0.95779,-1.676125 0,0 2.63391,-2.035308 2.93321,-3.112803 0.59862,-0.59861 1.73599,0.419022 1.73599,0.419022 0,0 6.94394,7.961593 14.66609,7.48271 z"
       style="fill:#f7e017;fill-opacity:1;fill-rule:evenodd;stroke:#000000;stroke-width:0.19455012pt;stroke-linecap:butt;stroke-linejoin:miter;stroke-opacity:1"
       id="path780" />
    <path
       d="m -23.85944,55.302726 c 0,0 0.7123,-0.189957 0.97347,0.106848 0.26118,0.296787 2.05379,2.053788 2.05379,2.053788"
       style="fill:none;stroke:#000000;stroke-width:0.19455012pt;stroke-linecap:butt;stroke-linejoin:miter;stroke-opacity:1"
       id="path782" />
    <path
       d="m -22.23303,56.133748 -0.71229,0.534215 c 0,0 1.79261,0.356104 1.38897,1.531421"
       style="fill:none;stroke:#000000;stroke-width:0.19455012pt;stroke-linecap:butt;stroke-linejoin:miter;stroke-opacity:1"
       id="path783" />
    <path
       d="m 15.24555,55.24337 c 0,0 -0.35616,-0.189959 -0.91411,0.22556 -0.55798,0.415501 -1.9707,1.994432 -1.9707,1.994432"
       style="fill:none;stroke:#000000;stroke-width:0.19455012pt;stroke-linecap:butt;stroke-linejoin:miter;stroke-opacity:1"
       id="path784" />
    <path
       d="m 13.64288,56.086258 0.77165,0.593572 c 0,0 -1.61453,0.106846 -1.25839,1.638287"
       style="fill:none;stroke:#000000;stroke-width:0.19455012pt;stroke-linecap:butt;stroke-linejoin:miter;stroke-opacity:1"
       id="path785" />
    <path
       d="m -14.73532,57.203301 -0.05191,0.07278 c -0.10827,-0.05347 -0.23176,-0.06339 -0.37047,-0.02977 -0.10184,0.02629 -0.29369,0.121925 -0.57554,0.286906 l -2.37193,1.382753 -0.06492,-0.04629 0.59756,-2.772792 c 0.07221,-0.334272 0.1052,-0.537263 0.09897,-0.608972 -0.0049,-0.07077 -0.05498,-0.148999 -0.15016,-0.234685 l 0.0519,-0.07278 1.27859,0.911827 -0.0519,0.07278 -0.04328,-0.03086 c -0.1154,-0.0823 -0.20437,-0.123983 -0.26691,-0.125063 -0.04419,-0.0018 -0.07985,0.01626 -0.10696,0.05429 -0.01684,0.02361 -0.0317,0.05554 -0.04459,0.09581 -0.01196,0.03896 -0.0378,0.150102 -0.07755,0.333437 l -0.37842,1.733173 1.37026,-0.806245 c 0.16488,-0.09805 0.27184,-0.16619 0.32087,-0.204424 0.04902,-0.03823 0.0857,-0.0744 0.11002,-0.108493 0.02805,-0.03934 0.04234,-0.08157 0.04287,-0.126699 5.3e-4,-0.04512 -0.01393,-0.09005 -0.04335,-0.13478 -0.0405,-0.06251 -0.10729,-0.12696 -0.2004,-0.193361 l 0.05191,-0.07278 0.87534,0.624251 m 0.85175,4.121574 -0.04289,0.07843 -1.5029,-0.821911 0.0429,-0.07843 0.09539,0.05217 c 0.08337,0.0456 0.15861,0.06747 0.22571,0.06562 0.04757,3.09e-4 0.09438,-0.01815 0.14044,-0.05538 0.03409,-0.02541 0.09055,-0.110194 0.16938,-0.254336 l 1.03406,-1.890812 c 0.08037,-0.146967 0.12283,-0.243073 0.12738,-0.288318 0.0046,-0.04524 -0.0099,-0.09443 -0.04322,-0.147555 -0.03118,-0.05376 -0.08704,-0.102672 -0.16759,-0.146727 l -0.09539,-0.05217 0.04289,-0.07843 1.5029,0.82191 -0.04289,0.07843 -0.09539,-0.05217 c -0.08338,-0.0456 -0.15862,-0.06747 -0.22572,-0.06562 -0.04757,-3.06e-4 -0.09508,0.01777 -0.14255,0.05422 -0.0341,0.02542 -0.09056,0.110194 -0.16939,0.254336 l -1.03405,1.89081 c -0.08038,0.146969 -0.12284,0.243075 -0.12739,0.288318 -0.0031,0.04602 0.01089,0.09591 0.04207,0.149676 0.03336,0.05312 0.09031,0.101715 0.17087,0.145766 l 0.09538,0.05217 m 5.49046,-1.287754 -0.3875,1.087909 -0.08421,-0.02999 c 0.00427,-0.333602 -0.0677,-0.613995 -0.21588,-0.841182 -0.1482,-0.227182 -0.34293,-0.383741 -0.58417,-0.469674 -0.23064,-0.08214 -0.44581,-0.08527 -0.64554,-0.0094 -0.19919,0.07439 -0.37199,0.216306 -0.5184,0.425754 -0.14642,0.209449 -0.26313,0.436318 -0.35014,0.680603 -0.10539,0.295875 -0.16291,0.567765 -0.17256,0.815669 -0.0097,0.247905 0.04427,0.451767 0.16174,0.611586 0.11899,0.160361 0.28546,0.278642 0.4994,0.354845 0.07435,0.02648 0.15291,0.04592 0.2357,0.05831 0.08484,0.01141 0.17364,0.01654 0.26638,0.01538 l 0.22861,-0.64182 c 0.04324,-0.121384 0.06272,-0.202498 0.05847,-0.243342 -0.00373,-0.04236 -0.027,-0.08741 -0.06984,-0.135157 -0.04132,-0.0472 -0.09916,-0.08405 -0.1735,-0.110528 l -0.07966,-0.02837 0.03,-0.08421 1.49985,0.534231 -0.02999,0.08421 c -0.11651,-0.03295 -0.20184,-0.04539 -0.256,-0.03733 -0.05211,0.0071 -0.10003,0.03362 -0.14376,0.07959 -0.02393,0.02396 -0.05589,0.09209 -0.09588,0.204368 l -0.22861,0.641821 c -0.2286,0.01774 -0.4577,0.01052 -0.68731,-0.02168 -0.22864,-0.03014 -0.45751,-0.08602 -0.68663,-0.167626 -0.29284,-0.104306 -0.52231,-0.230498 -0.68843,-0.378575 -0.16405,-0.149053 -0.29746,-0.314547 -0.40021,-0.496483 -0.1007,-0.182911 -0.16387,-0.370406 -0.18949,-0.562482 -0.03163,-0.247218 -0.0012,-0.500558 0.09118,-0.760019 0.16538,-0.464294 0.46819,-0.798419 0.90845,-1.002378 0.44025,-0.203952 0.9077,-0.217838 1.40234,-0.04165 0.15325,0.05459 0.287,0.115906 0.40126,0.183956 0.06243,0.03592 0.15773,0.109191 0.28589,0.21981 0.13021,0.109647 0.20898,0.169332 0.2363,0.17906 0.04248,0.01513 0.08733,0.01401 0.13456,-0.0034 0.04776,-0.01889 0.10222,-0.06618 0.16337,-0.141855 l 0.08421,0.02999 m 2.31312,3.712723 -0.01339,0.08838 -1.69364,-0.256555 0.01338,-0.08839 0.1075,0.01628 c 0.09396,0.01423 0.17213,0.009 0.23453,-0.01579 0.04478,-0.01602 0.08242,-0.04942 0.11292,-0.100188 0.02331,-0.03557 0.04726,-0.134568 0.07187,-0.297005 l 0.32278,-2.130787 c 0.02509,-0.165618 0.03201,-0.270458 0.02076,-0.31452 -0.01124,-0.04406 -0.04165,-0.08531 -0.09121,-0.123778 -0.04773,-0.03981 -0.11698,-0.06659 -0.20775,-0.08034 l -0.1075,-0.01628 0.01339,-0.08839 1.69364,0.256556 -0.01339,0.08838 -0.10749,-0.01628 c -0.09396,-0.01423 -0.17214,-0.009 -0.23453,0.01579 -0.04479,0.01603 -0.08322,0.0493 -0.11531,0.09983 -0.02331,0.03557 -0.04727,0.134571 -0.07187,0.297005 l -0.32278,2.130786 c -0.02509,0.165623 -0.03201,0.270462 -0.02076,0.314521 0.01283,0.0443 0.04312,0.08636 0.09085,0.126167 0.04956,0.03846 0.11973,0.06457 0.2105,0.07832 l 0.1075,0.01628 m 4.39626,-1.067894 -0.06445,1.154812 -2.90512,0.148229 -0.00455,-0.08928 0.10858,-0.0055 c 0.0949,-0.0048 0.17045,-0.02563 0.22663,-0.06237 0.04068,-0.02465 0.07088,-0.0649 0.09061,-0.120744 0.01572,-0.03951 0.0194,-0.1413 0.01103,-0.305378 L -4.33082,61.249391 C -4.33935,61.0821 -4.35354,60.977994 -4.37336,60.93707 c -0.01983,-0.04092 -0.05787,-0.07526 -0.11412,-0.103039 -0.05473,-0.02946 -0.12794,-0.04185 -0.21963,-0.03718 l -0.10858,0.0055 -0.00455,-0.08928 1.74452,-0.08901 0.00455,0.08928 -0.14236,0.0073 c -0.09491,0.0048 -0.17045,0.02564 -0.22664,0.06237 -0.04067,0.02466 -0.07168,0.06495 -0.09302,0.120866 -0.01572,0.03951 -0.0194,0.141305 -0.01103,0.305378 l 0.10637,2.084735 c 0.00854,0.167294 0.02365,0.273772 0.04533,0.319436 0.0216,0.04406 0.06113,0.07591 0.11858,0.09556 0.04095,0.01243 0.13864,0.0147 0.29307,0.0068 l 0.27265,-0.01391 c 0.17373,-0.0089 0.31694,-0.04681 0.42964,-0.113851 0.1127,-0.06704 0.20751,-0.168639 0.28443,-0.304812 0.07852,-0.136253 0.14902,-0.334996 0.21149,-0.59623 l 0.09893,-0.005 m 3.17787,-0.551341 -1.10886,0.331254 -0.04066,0.34499 c -0.01279,0.114767 -0.00927,0.205331 0.01056,0.271692 0.02627,0.08797 0.08113,0.142183 0.16457,0.162643 0.04905,0.01224 0.15721,1.06e-4 0.32449,-0.03642 l 0.02559,0.08565 -1.04404,0.311891 -0.02559,-0.08565 c 0.10759,-0.05063 0.18636,-0.124593 0.2363,-0.221883 0.04948,-0.09883 0.09174,-0.28376 0.12676,-0.554783 l 0.37449,-2.840166 0.04398,-0.01314 1.90101,2.23604 c 0.18088,0.211569 0.31549,0.338618 0.40384,0.381144 0.06676,0.03217 0.14914,0.03782 0.24713,0.01695 l 0.02559,0.08565 -1.5186,0.453658 -0.02559,-0.08565 0.06251,-0.01867 c 0.12191,-0.03642 0.20249,-0.07898 0.24174,-0.127691 0.02657,-0.03483 0.03295,-0.0754 0.01912,-0.121701 C 1.93018,62.67867 1.91702,62.65151 1.899,62.62495 1.89176,62.61198 1.85132,62.56103 1.77768,62.472076 L 1.49414,62.130609 M 1.36425,61.982816 0.57368,61.041433 0.41513,62.266353 1.36425,61.982816 m 4.1867,-4.266191 0.41988,0.780963 -0.07661,0.04119 C 5.75196,58.383019 5.63219,58.280999 5.53491,58.232716 5.43687,58.183022 5.32703,58.160699 5.2054,58.165744 c -0.06764,0.0035 -0.16885,0.04141 -0.30362,0.11386 l -0.21492,0.115553 1.19672,2.225854 c 0.07932,0.147541 0.1367,0.235557 0.17213,0.264051 0.03686,0.02773 0.08632,0.0432 0.14839,0.0464 0.06272,10e-4 0.13523,-0.02059 0.21751,-0.06482 l 0.09576,-0.05148 0.04233,0.07873 -1.51085,0.812304 -0.04234,-0.07874 0.09576,-0.05148 C 5.18597,61.530976 5.24535,61.479846 5.2804,61.4226 5.30661,61.38291 5.31739,61.33323 5.31273,61.27355 5.31003,61.23112 5.26978,61.137545 5.19199,60.992841 L 3.99527,58.766987 3.78673,58.879108 c -0.19436,0.104496 -0.31339,0.221528 -0.35711,0.351096 -0.06164,0.181269 -0.05157,0.387073 0.03021,0.61741 l -0.08086,0.04348 -0.41989,-0.780965 2.59187,-1.3935 m 1.96519,-1.165111 0.80313,1.064709 0.05207,-0.03928 c 0.16588,-0.12513 0.24683,-0.267899 0.24284,-0.428315 -0.00398,-0.16041 -0.07232,-0.349961 -0.205,-0.568653 l 0.0733,-0.05529 1.033,1.369462 -0.07329,0.05529 C 9.31424,57.81192 9.18931,57.714495 9.06738,57.657166 c -0.12064,-0.05829 -0.22587,-0.07878 -0.3157,-0.06146 -0.0908,0.01604 -0.19857,0.0711 -0.3233,0.165182 l 0.55579,0.736808 c 0.10863,0.14402 0.18086,0.227737 0.21669,0.251154 0.0371,0.02245 0.08013,0.03135 0.12909,0.0267 0.04895,-0.0046 0.11071,-0.0351 0.1853,-0.09135 l 0.15623,-0.11785 c 0.24432,-0.18429 0.39709,-0.388303 0.45833,-0.612038 0.06251,-0.2247 0.03862,-0.477029 -0.07167,-0.756986 l 0.07136,-0.05383 0.50943,0.920072 -2.26058,1.705184 -0.05383,-0.07137 0.08679,-0.06547 C 8.48718,59.574682 8.53807,59.515107 8.564,59.453185 8.58385,59.409964 8.58629,59.359703 8.57131,59.302403 8.56218,59.260874 8.50814,59.17453 8.40921,59.043368 L 7.11141,57.322863 C 7.02217,57.204563 6.96415,57.134337 6.93735,57.11218 6.89055,57.07688 6.84057,57.0601 6.78742,57.06186 6.7114,57.062717 6.63096,57.09515 6.54608,57.15917 L 6.45929,57.22464 6.40546,57.15327 8.59467,55.501918 9.17809,56.275374 9.1048,56.330664 C 8.92492,56.169768 8.76987,56.073877 8.63964,56.042984 8.5107,56.01113 8.36996,56.02247 8.21742,56.077006 8.12795,56.108181 7.9842,56.198454 7.78617,56.347824 l -0.27003,0.20369"
       style="font-size:32px;font-style:normal;font-variant:normal;font-weight:bold;font-stretch:normal;text-align:center;line-height:100%;writing-mode:lr-tb;text-anchor:middle;fill:#000000;fill-opacity:1;font-family:Times New Roman"
       id="text2325" />
    <path
       d="m -20.02503,57.44915 c 10.70732,8.684819 21.20151,8.844203 31.4706,0"
       style="fill:none"
       id="path2329" />
    <use
       transform="translate(0,5.277198)"
       id="use3561"
       x="0"
       y="0"
       width="30"
       height="15"
       xlink:href="#g624" />
    <use
       transform="translate(0,10.5544)"
       id="use3565"
       x="0"
       y="0"
       width="30"
       height="15"
       xlink:href="#g624" />
    <use
       transform="translate(0,21.10879)"
       id="use3567"
       x="0"
       y="0"
       width="30"
       height="15"
       xlink:href="#g624" />
    <use
       transform="translate(0,26.38599)"
       id="use3569"
       x="0"
       y="0"
       width="30"
       height="15"
       xlink:href="#g624" />
    <use
       transform="translate(18.84881,-7.629395e-7)"
       id="use3571"
       x="0"
       y="0"
       width="30"
       height="15"
       xlink:href="#g624" />
    <use
       transform="translate(18.84881,5.277198)"
       id="use3573"
       x="0"
       y="0"
       width="30"
       height="15"
       xlink:href="#g624" />
    <use
       transform="translate(18.84881,10.5544)"
       id="use3575"
       x="0"
       y="0"
       width="30"
       height="15"
       xlink:href="#g624" />
    <use
       transform="translate(18.84881,15.83159)"
       id="use3577"
       x="0"
       y="0"
       width="30"
       height="15"
       xlink:href="#g624" />
    <use
       transform="translate(18.84881,21.10879)"
       id="use3579"
       x="0"
       y="0"
       width="30"
       height="15"
       xlink:href="#g624" />
    <use
       transform="translate(18.84881,26.38599)"
       id="use3581"
       x="0"
       y="0"
       width="30"
       height="15"
       xlink:href="#g624" />
  </g>
</svg>
