<?xml version="1.0" encoding="UTF-8" standalone="no"?>
<!-- Created with Inkscape (http://www.inkscape.org/) -->
<svg
   xmlns:dc="http://purl.org/dc/elements/1.1/"
   xmlns:cc="http://creativecommons.org/ns#"
   xmlns:rdf="http://www.w3.org/1999/02/22-rdf-syntax-ns#"
   xmlns:svg="http://www.w3.org/2000/svg"
   xmlns="http://www.w3.org/2000/svg"
   xmlns:xlink="http://www.w3.org/1999/xlink"
   xmlns:sodipodi="http://sodipodi.sourceforge.net/DTD/sodipodi-0.dtd"
   xmlns:inkscape="http://www.inkscape.org/namespaces/inkscape"
   version="1.0"
   width="624.19238"
   height="679.77185"
   viewBox="0 0 177.4 178.4"
   id="svg2"
   xml:space="preserve"
   sodipodi:version="0.32"
   inkscape:version="0.46"
   sodipodi:docname="Escudo_de_San_Andrés_y_Providencia.svg"
   inkscape:output_extension="org.inkscape.output.svg.inkscape"><metadata
   id="metadata86"><rdf:RDF><cc:Work
       rdf:about=""><dc:format>image/svg+xml</dc:format><dc:type
         rdf:resource="http://purl.org/dc/dcmitype/StillImage" /></cc:Work></rdf:RDF></metadata><sodipodi:namedview
   inkscape:window-height="721"
   inkscape:window-width="1024"
   inkscape:pageshadow="2"
   inkscape:pageopacity="0.0"
   guidetolerance="10.0"
   gridtolerance="10.0"
   objecttolerance="10.0"
   borderopacity="1.0"
   bordercolor="#666666"
   pagecolor="#ffffff"
   id="base"
   showgrid="false"
   inkscape:zoom="0.74730956"
   inkscape:cx="526.19756"
   inkscape:cy="394.62897"
   inkscape:window-x="0"
   inkscape:window-y="20"
   inkscape:current-layer="svg2" />
 <defs
   id="defs4"><inkscape:perspective
   sodipodi:type="inkscape:persp3d"
   inkscape:vp_x="0 : 316.06299 : 1"
   inkscape:vp_y="0 : 1000 : 0"
   inkscape:vp_z="628.58264 : 316.06299 : 1"
   inkscape:persp3d-origin="314.29132 : 210.70866 : 1"
   id="perspective88" />
  <style
   type="text/css"
   id="style6" />
 
  
  
  
  
  
  
  
  
  
  
  
  
  
  
  
  
  
  
  
  
  
  
  
 
   
   
   
   
   
   
   
   
   
   
   
   
   
   
   
   
   
   
   
   
   
   
   
   
   
   
   
   
   
  <inkscape:perspective
   id="perspective2555"
   inkscape:persp3d-origin="100 : 66.666667 : 1"
   inkscape:vp_z="200 : 100 : 1"
   inkscape:vp_y="0 : 1000 : 0"
   inkscape:vp_x="0 : 100 : 1"
   sodipodi:type="inkscape:persp3d" /><radialGradient
   gradientTransform="matrix(0,2.342476,-2.291353,0,562.9128,1323.77)"
   gradientUnits="userSpaceOnUse"
   xlink:href="#linearGradient2955"
   id="radialGradient14758"
   fy="153.9283"
   fx="-483.50824"
   r="300.00003"
   cy="153.9283"
   cx="-483.50824" /><radialGradient
   gradientTransform="matrix(0,2.342476,-2.291353,0,562.9128,1323.77)"
   gradientUnits="userSpaceOnUse"
   xlink:href="#linearGradient2955"
   id="radialGradient13767"
   fy="153.9283"
   fx="-483.50824"
   r="300.00003"
   cy="153.9283"
   cx="-483.50824" /><radialGradient
   gradientTransform="matrix(0,2.342476,-2.291353,0,562.9128,1323.77)"
   gradientUnits="userSpaceOnUse"
   xlink:href="#linearGradient2955"
   id="radialGradient1357"
   fy="153.9283"
   fx="-483.50824"
   r="300.00003"
   cy="153.9283"
   cx="-483.50824" /><radialGradient
   gradientTransform="matrix(-4.167939e-4,2.182867,-1.884232,-3.599562e-4,1395.597,-309.1214)"
   gradientUnits="userSpaceOnUse"
   xlink:href="#linearGradient2955"
   id="radialGradient1911"
   fy="218.90099"
   fx="225.52438"
   r="300"
   cy="218.90099"
   cx="225.52438" /><clipPath
   id="clip"><path
     id="path10"
     d="M 0,-200 L 0,600 L 300,600 L 300,-200 L 0,-200 z" /></clipPath><polygon
   id="star"
   transform="scale(53,53)"
   points="0,-1 0.58778525,0.80901699 -0.95105652,-0.30901699 0.95105652,-0.30901699 -0.58778525,0.80901699 0,-1 " /><radialGradient
   gradientTransform="matrix(-4.167939e-4,2.182867,-1.884232,-3.599562e-4,615.5972,-289.1214)"
   gradientUnits="userSpaceOnUse"
   xlink:href="#linearGradient2955"
   id="radialGradient2961"
   fy="218.90099"
   fx="225.52438"
   r="300"
   cy="218.90099"
   cx="225.52438" /><linearGradient
   id="linearGradient2955"><stop
     id="stop2965"
     offset="0"
     style="stop-color:#ffffff;stop-opacity:0" /><stop
     id="stop2959"
     offset="1"
     style="stop-color:#000000;stop-opacity:0.64583331" /></linearGradient><inkscape:perspective
   id="perspective3396"
   inkscape:persp3d-origin="75 : 50 : 1"
   inkscape:vp_z="150 : 75 : 1"
   inkscape:vp_y="0 : 1000 : 0"
   inkscape:vp_x="0 : 75 : 1"
   sodipodi:type="inkscape:persp3d" /></defs>
 <path
   d="M 174.16355,157.44054 C 173.87335,157.77564 173.46945,158.52314 173.26615,159.10154 C 172.79465,160.44234 172.05015,161.31464 171.03215,161.71894 C 170.28545,162.01534 167.40035,162.42814 166.19475,162.36844 C 165.71125,162.37684 165.68155,162.35844 165.30935,162.38364 C 165.23805,161.84804 164.87435,160.25124 165.45435,159.10114 C 165.68925,158.68394 166.60035,158.94774 167.52285,158.62664 C 168.16125,158.40444 169.52525,157.67044 170.55395,156.99554 C 172.76465,155.54524 173.63135,155.30694 175.41625,155.65844 C 176.07615,155.78844 176.66195,155.93584 176.71785,155.98594 C 176.77385,156.03604 176.34075,156.24674 175.75545,156.45404 C 175.01585,156.71604 174.53025,157.01704 174.16355,157.44054 L 174.16355,157.44054 z"
   style="fill:#eac102;stroke:#000000;stroke-width:0.2911"
   id="path11779" /><path
   d="M 165.30955,162.38354 C 164.36325,162.45014 159.88045,160.78884 159.83555,160.25604 C 159.81005,159.95484 160.66805,157.96374 161.54035,156.32214 C 162.01005,155.43804 162.65905,154.58494 163.47845,153.74384 C 165.14845,152.00994 166.55265,151.65654 167.98065,152.58864 C 169.72855,153.93664 169.65315,154.86764 166.65865,157.69954 C 165.22195,159.05834 165.06245,159.91444 165.21685,161.19284 C 165.28585,162.16754 165.21345,161.69314 165.30955,162.38354 L 165.30955,162.38354 z"
   style="fill:#0071bc;stroke:#000000;stroke-width:0.2911"
   id="path11781" /><path
   d="M 154.41855,170.43354 C 154.10915,170.50994 153.63695,170.53734 153.36905,170.49444 C 152.91775,170.42204 152.85945,170.37884 152.57265,169.90444 C 152.40245,169.62284 152.08405,169.23214 151.86505,169.03604 C 151.33295,168.55954 150.95175,167.33354 151.13265,166.68004 C 151.39765,165.72284 152.18665,164.73634 153.73035,163.43224 C 156.29865,161.26264 156.42045,160.56674 155.89495,159.47514 C 155.77265,159.22104 155.59235,158.91024 155.30035,158.64974 C 154.34075,157.90734 153.42285,157.12474 152.46925,156.81744 C 151.72425,156.56454 150.02645,155.39914 147.65815,153.51464 C 145.99375,152.19034 142.93825,149.43604 142.87375,149.20194 C 142.83835,149.07314 144.75815,145.93724 146.27785,143.64144 C 147.83025,141.29634 148.97995,139.91104 149.95585,139.20954 C 150.76465,138.62814 151.05515,138.61274 151.42665,139.13154 C 153.03445,141.37714 158.55195,146.51494 161.79945,148.79054 C 162.80815,149.49734 164.22015,150.41914 164.93725,150.83894 C 165.65435,151.25864 167.13375,152.11574 167.28835,152.21234 C 167.40905,152.13954 166.13275,152.12344 165.63825,152.39854 C 163.95385,153.14874 162.16385,154.94674 160.89785,157.57334 C 160.60595,158.17904 159.69215,160.50034 158.86735,162.73194 C 157.53695,166.33114 157.13285,167.32494 156.48855,168.58154 C 156.14825,169.24514 154.97315,170.29654 154.41855,170.43354 L 154.41855,170.43354 z"
   style="fill:#eac102;stroke:#000000;stroke-width:0.2911"
   id="path11783" /><path
   d="M 151.64055,170.02954 C 149.57445,168.86834 142.79905,163.94674 141.74815,162.72714 L 141.21615,162.10974 L 144.18205,160.48364 C 146.02485,157.49094 147.81865,157.36954 150.54935,156.63264 C 151.88555,156.37134 153.76425,157.57344 154.49285,158.03074 C 156.27265,159.14784 157.03415,160.79084 153.96745,163.35044 C 152.24325,164.78934 151.19215,165.79884 151.01475,166.94444 C 150.86435,167.91574 152.48575,169.53514 153.22225,170.19464 C 153.90295,170.80414 152.54895,170.54014 151.64055,170.02954 z"
   style="fill:#0071bc;stroke:#000000;stroke-width:0.2911"
   id="path11785" /><path
   d="M 167.47455,147.97254 C 166.64585,148.20194 166.42295,148.35904 165.65895,149.25224 L 164.58395,150.50874 L 161.88245,148.73244 L 163.08845,147.95064 C 164.45895,147.05404 165.79945,146.87884 167.55085,147.36744 C 168.06695,147.51144 168.47345,147.64764 168.45415,147.67014 C 168.43495,147.69264 167.99415,147.82864 167.47455,147.97254 L 167.47455,147.97254 z"
   style="fill:#eac102;stroke:#000000;stroke-width:0.2911"
   id="path11787" /><path
   d="M 3.6444555,162.19154 C 3.9968555,162.47304 4.5455555,163.13844 4.8638555,163.67004 C 5.6016555,164.90254 6.5083555,165.63684 7.5842559,165.87354 C 8.3734559,166.04714 11.270655,166.00474 12.432955,165.76094 C 12.894455,165.66414 13.077455,165.69514 13.135255,165.37684 C 13.391355,164.47994 13.028855,162.67894 12.475955,162.46684 C 12.160455,162.09694 11.327455,162.49394 10.361756,162.32354 C 9.6934559,162.20554 8.2119559,161.70124 7.0693555,161.20274 C 4.6139555,160.13154 3.7199555,160.03304 2.0536555,160.64994 C 1.4375554,160.87804 0.89735544,161.11164 0.85325544,161.16904 C 0.80905544,161.22654 1.2748554,161.36484 1.8883555,161.47654 C 2.6634555,161.61764 3.1991555,161.83584 3.6444555,162.19154 L 3.6444555,162.19154 z"
   style="fill:#eac102;stroke:#000000;stroke-width:0.2861"
   id="path3866" /><path
   d="M 13.018355,165.60554 C 13.954255,165.52464 17.965155,163.07924 18.224355,162.72454 C 18.122355,162.42754 16.904055,160.62254 15.713155,159.15904 C 15.071855,158.37084 14.262255,157.64044 13.289155,156.94804 C 11.327755,155.55224 9.6627559,155.83404 8.6620559,156.51684 C 6.8838555,157.73014 7.5055555,158.99254 11.011555,161.28774 C 12.693755,162.38894 13.132255,163.04304 13.142055,164.46574 C 13.135255,165.37634 13.111355,165.09004 13.018355,165.60554 L 13.018355,165.60554 z"
   style="fill:#0071bc;stroke:#000000;stroke-width:0.2861"
   id="path3862" /><path
   d="M 25.583455,171.79754 C 25.900855,171.82424 26.366755,171.77824 26.618755,171.69514 C 27.014055,171.45044 26.963955,171.44544 27.409555,170.97874 C 27.712955,170.75694 27.844055,170.20014 28.016755,169.97554 C 28.487455,169.40384 28.494155,168.05804 28.014455,167.53554 C 27.557455,166.64464 26.575355,165.90884 24.800155,164.87724 C 21.846955,163.16104 21.199055,162.46644 21.484455,161.32314 C 21.550855,161.05694 21.793755,160.59494 22.024155,160.29634 C 22.456855,159.73574 23.740255,158.73514 24.655455,158.24484 C 25.328955,157.88404 26.741355,156.48834 28.657855,154.28954 C 30.004755,152.74434 32.410155,149.59314 32.424355,149.35534 C 32.432155,149.22464 29.910155,146.46794 27.952555,144.46754 C 25.952755,142.42404 24.544855,141.25274 23.448155,140.72024 C 22.539355,140.27894 22.253055,140.30864 21.998755,140.87074 C 20.898355,143.30394 16.588655,149.15404 13.896655,151.86894 C 13.060555,152.71224 11.876055,153.82674 11.264355,154.34574 C 10.652756,154.86464 8.9667559,156.29924 8.9218559,156.35774 C 8.6857559,156.33224 10.025856,155.82444 11.061555,156.02724 C 12.858755,156.49804 14.819955,157.91684 16.599055,160.27834 C 17.009355,160.82294 18.381755,162.94164 19.648955,164.98664 C 21.692755,168.28484 22.292955,169.18984 23.181755,170.31374 C 23.651155,170.90724 25.014555,171.74954 25.583455,171.79754 L 25.583455,171.79754 z"
   style="fill:#eac102;stroke:#000000;stroke-width:0.2861"
   id="path3858" /><path
   d="M 28.206355,170.97754 C 29.978455,169.52924 33.728155,165.65374 34.498955,164.30494 L 32.927755,162.96774 L 31.121955,161.32814 C 28.422355,159.33004 27.418455,159.04944 25.396055,158.67494 C 23.994755,158.41554 23.097755,159.37224 22.482655,159.92964 C 20.980355,161.29084 21.031955,162.81604 24.551855,164.83504 C 26.530755,165.97014 27.764655,166.79074 28.175455,167.87854 C 28.746355,169.12684 27.211955,171.42954 26.382655,171.75284 C 26.973155,171.61504 27.427055,171.61434 28.206355,170.97754 L 28.206355,170.97754 z"
   style="fill:#0071bc;stroke:#000000;stroke-width:0.2861"
   id="path3854" /><path
   d="M 8.1965559,151.94654 C 9.0516559,152.04224 9.3014559,152.16084 10.231556,152.91264 L 11.540055,153.96994 L 13.803555,151.82524 L 12.466055,151.24994 C 10.944355,150.58834 9.6016559,150.62424 7.9965559,151.36944 C 7.5235555,151.58904 7.1556555,151.78424 7.1791555,151.80314 C 7.2025555,151.82204 7.6603559,151.88654 8.1965559,151.94654 z"
   style="fill:#eac102;stroke:#000000;stroke-width:0.2861"
   id="path3850" /><path
   d="M 35.128955,144.00754 C 36.173955,143.97064 37.903155,144.85794 41.021055,147.94724 C 41.259755,148.18374 41.499755,148.41534 41.734055,148.65614 C 42.139955,149.07354 42.531055,149.50974 42.922955,149.93714 L 47.231455,154.33074 C 59.549955,164.71164 72.300055,165.62244 85.778255,166.86244 C 101.68875,166.22994 112.81895,164.73654 127.79525,153.42494 L 131.78955,148.90634 C 132.15095,148.46764 132.51095,148.02004 132.88695,147.59094 C 133.10405,147.34324 133.31885,147.10484 133.54065,146.86134 C 137.75425,142.23614 139.36235,142.36604 140.24905,143.22344 C 140.85575,143.81014 141.13205,144.73304 141.66945,144.72914 C 141.84975,144.84064 142.27305,145.39684 142.75955,145.88884 C 146.42295,149.59404 150.52785,155.20544 154.52785,157.95484 C 155.25205,158.45254 153.92185,157.65104 153.66045,157.57594 C 150.94395,157.09244 148.56795,158.67044 146.28945,160.91094 C 146.14825,161.02224 145.38045,161.77374 145.10345,162.00264 L 143.75825,163.18034 L 139.77585,166.14594 C 122.04995,181.18364 98.485252,188.21744 74.523155,184.23374 L 74.586055,184.06604 C 60.685855,181.89464 47.460855,176.12994 36.151455,167.39894 L 31.585855,162.66194 L 31.518655,162.58904 C 31.416555,162.47284 31.316255,162.35814 31.214055,162.24254 C 24.049755,155.70554 21.858555,161.09514 21.424755,161.71054 C 21.439855,161.49224 21.298755,161.10194 21.732555,160.29954 C 24.372255,156.68414 28.353455,151.06454 31.751955,147.25304 C 32.203255,146.74694 32.606655,146.24804 32.759155,146.06184 C 33.144555,145.60854 33.498655,145.11934 34.063355,144.51504 C 34.321255,144.23904 34.654055,144.02434 35.128955,144.00754 L 35.128955,144.00754 z"
   style="fill:#eac102;stroke:#000000;stroke-width:0.2969"
   id="path2945" /><g
   id="g5591"
   transform="translate(-0.6207468,14.436264)">
  </g><g
   id="g5608"
   transform="translate(-0.6207468,14.436264)">
  </g><g
   id="g5610"
   transform="translate(-0.6207468,14.436264)">
  </g><g
   id="layer2"
   transform="translate(-0.6207468,14.436264)">
  </g><g
   id="g5613"
   transform="translate(-0.6207468,14.436264)">
  </g><path
   id="shield_border"
   style="fill:#0071bc;fill-opacity:1;stroke:#000000;stroke-width:1.136829;stroke-opacity:1;stroke-miterlimit:4;stroke-dasharray:none"
   d="M 19.646827,-5.5717143 L 19.646827,93.654679 C 19.646827,133.94077 52.445395,152.82609 85.571096,152.96136 C 118.73629,153.09265 151.90138,133.94077 151.91218,94.044879 L 151.91218,-5.5717143 L 19.646527,-5.5717143 L 19.646827,-5.5717143 z" /><path
   style="fill:#ea1c24;fill-opacity:1;fill-rule:evenodd;stroke:none;stroke-width:0.99991339;stroke-linecap:butt;stroke-linejoin:miter;stroke-miterlimit:4;stroke-dasharray:none;stroke-opacity:1"
   d="M 20.731401,-5.1686894 L 151.25698,-5.1686894 L 151.16921,99.014719 L 149.76476,107.56709 L 20.731401,-5.1686894 z"
   id="path2566"
   sodipodi:nodetypes="ccccc" />
<g
   id="g2558"
   transform="matrix(0.2275431,0.2267662,-0.2267662,0.2275431,119.76572,2.2124644)"
   style="fill:#ffffff;fill-opacity:1;stroke:none;stroke-width:0.87852466;stroke-miterlimit:4;stroke-dasharray:none;stroke-opacity:1" /><path
   style="fill:#eac102;fill-opacity:1;fill-rule:evenodd;stroke:#000000;stroke-width:0.44535419;stroke-linecap:butt;stroke-linejoin:miter;stroke-miterlimit:4;stroke-dasharray:none;stroke-opacity:1"
   d="M 20.192759,41.649236 L 129.98071,138.90768 C 143.7724,128.23747 147.9322,115.94266 150.04076,108.00252 L 20.185229,-5.4389343 L 20.192759,41.649236 z"
   id="path2487"
   sodipodi:nodetypes="ccccc" /><path
   style="fill:#0071bc;fill-opacity:1;fill-rule:evenodd;stroke:none;stroke-width:0.37761736px;stroke-linecap:butt;stroke-linejoin:miter;stroke-opacity:1"
   d="M 20.24413,30.563636 L 136.42156,133.21075 C 138.6632,131.46059 140.33584,129.08047 141.88203,126.56033 L 20.156353,19.781651 L 20.24413,30.563636 z"
   id="path2562"
   sodipodi:nodetypes="ccccc" /><path
   style="fill:#ea1c24;fill-opacity:1;fill-rule:evenodd;stroke:none;stroke-width:0.37761334;stroke-linecap:butt;stroke-linejoin:miter;stroke-miterlimit:4;stroke-dasharray:none;stroke-opacity:1"
   d="M 20.290765,41.324897 L 130.13722,138.70896 C 132.3508,137.15285 134.48073,135.31431 136.46148,133.24262 L 20.202987,30.445726 L 20.290765,41.324897 z"
   id="path2564"
   sodipodi:nodetypes="ccccc" /><path
   style="font-size:7.05555582px;font-style:normal;font-variant:normal;font-weight:normal;font-stretch:normal;text-align:start;line-height:125%;writing-mode:lr-tb;text-anchor:start;fill:#000000;fill-opacity:1;stroke:none;stroke-width:1px;stroke-linecap:butt;stroke-linejoin:miter;stroke-opacity:1;font-family:Book Antiqua;-inkscape-font-specification:Book Antiqua"
   d="M 35.310289,154.00866 C 35.114518,154.15987 34.895254,154.39132 34.652496,154.70299 L 34.463274,154.55911 L 34.630092,154.33973 C 34.738519,154.19712 34.793,154.08563 34.793536,154.00525 C 34.794063,153.92486 34.735324,153.79436 34.617319,153.61374 C 34.499305,153.43313 34.350717,153.2747 34.171555,153.13846 C 33.879033,152.91604 33.592831,152.81528 33.312949,152.83616 C 33.03306,152.85705 32.804842,152.98359 32.628296,153.21577 C 32.517081,153.36203 32.455788,153.51379 32.444416,153.67104 C 32.433039,153.8283 32.467673,153.97437 32.54832,154.10927 C 32.628962,154.24416 32.844386,154.47216 33.194593,154.79327 C 33.543403,155.11621 33.761146,155.35823 33.847822,155.51935 C 33.93449,155.68047 33.96685,155.85799 33.944901,156.05193 C 33.922944,156.24586 33.842461,156.43424 33.703449,156.61706 C 33.424026,156.98453 33.029958,157.18405 32.521246,157.2156 C 32.012528,157.24715 31.502217,157.0683 30.990312,156.67906 C 30.8148,156.5456 30.651473,156.39328 30.500328,156.22209 C 30.349183,156.0509 30.209525,155.86176 30.081356,155.65466 C 30.281082,155.46029 30.510705,155.19056 30.770225,154.84546 L 30.956706,154.98726 L 30.852444,155.12437 C 30.717599,155.30171 30.643331,155.41836 30.629641,155.47431 C 30.615949,155.53026 30.624854,155.60772 30.656355,155.70669 C 30.702692,155.85445 30.781084,155.9999 30.891533,156.14303 C 31.00198,156.28616 31.137646,156.41889 31.298532,156.54122 C 31.644067,156.80396 31.972852,156.92556 32.284885,156.90604 C 32.596915,156.88651 32.848156,156.75151 33.038609,156.50104 C 33.149818,156.35478 33.212006,156.20659 33.225175,156.05647 C 33.238337,155.90635 33.206097,155.76282 33.128455,155.62587 C 33.050807,155.48893 32.866316,155.2895 32.57498,155.02758 C 32.186819,154.6805 31.943719,154.41775 31.845679,154.23933 C 31.747636,154.06091 31.710434,153.86888 31.734073,153.66325 C 31.757709,153.45761 31.849462,153.24967 32.009331,153.03942 C 32.280408,152.68292 32.631027,152.48932 33.06119,152.45863 C 33.491347,152.42794 33.934042,152.58567 34.389277,152.93181 C 34.572096,153.07083 34.740432,153.22985 34.894287,153.40886 C 35.048131,153.58788 35.186799,153.78782 35.310289,154.00866 L 35.310289,154.00866 z M 36.695652,158.72602 L 35.072043,157.57319 L 34.559911,157.88981 C 34.221691,158.10035 34.028648,158.23933 33.980781,158.30675 C 33.950197,158.34982 33.939961,158.38903 33.950074,158.42438 C 33.960184,158.45972 34.009004,158.51692 34.096534,158.59597 L 34.344259,158.81835 L 34.218604,158.99531 C 34.048134,158.85455 33.850539,158.70439 33.625819,158.54483 C 33.356153,158.35336 33.114606,158.19171 32.901177,158.05988 L 33.026832,157.88291 L 33.113097,157.93994 C 33.246843,158.02927 33.341222,158.07586 33.396233,158.07971 C 33.451244,158.08356 33.532862,158.0549 33.641089,157.99372 C 33.965522,157.81846 34.308056,157.62366 34.668693,157.40932 L 36.68376,156.2078 C 37.219511,155.88965 37.599305,155.65229 37.823141,155.49574 L 38.014154,155.63136 L 37.087959,159.9468 C 37.0239,160.23934 36.991501,160.41984 36.990764,160.48833 C 36.990018,160.55682 37.003265,160.61552 37.030507,160.66443 C 37.05774,160.71335 37.140797,160.79274 37.279678,160.90262 L 37.154023,161.07959 C 36.919879,160.89362 36.692322,160.72219 36.47135,160.56529 C 36.265352,160.41902 35.986351,160.23077 35.634347,160.00055 L 35.760002,159.82359 L 36.050062,160.00419 C 36.154629,160.06717 36.220931,160.09875 36.248969,160.09895 C 36.291682,160.09829 36.324343,160.08204 36.346951,160.05021 C 36.370882,160.0165 36.405287,159.90854 36.450166,159.72633 L 36.695652,158.72602 z M 35.339527,157.41665 L 36.75527,158.42189 L 37.248102,156.22824 L 35.339527,157.41665 z M 40.456318,158.31923 L 39.16387,160.31839 C 38.869592,160.77358 38.673151,161.09647 38.574546,161.28707 C 38.499514,161.43274 38.468247,161.53081 38.480745,161.58128 C 38.493241,161.63175 38.571311,161.71299 38.714956,161.825 L 38.890766,161.95917 L 38.77293,162.14144 C 38.571422,161.99202 38.385804,161.86245 38.216074,161.75272 C 38.098419,161.67665 37.824028,161.50883 37.392901,161.24926 L 37.510736,161.06699 L 37.719042,161.20166 C 37.844411,161.28271 37.937606,161.31834 37.998627,161.30856 C 38.059646,161.29878 38.128022,161.2459 38.203754,161.14991 C 38.362132,160.95146 38.559157,160.66997 38.794829,160.30543 L 39.724418,158.86754 C 39.898987,158.59752 40.068794,158.32851 40.23384,158.06053 C 40.302302,157.94617 40.33692,157.85984 40.337694,157.80153 C 40.338461,157.74324 40.324372,157.68148 40.295425,157.61627 C 40.266472,157.55106 40.206671,157.48915 40.116022,157.43054 L 39.936647,157.31458 L 40.054483,157.13231 C 40.290704,157.30418 40.473429,157.43188 40.60266,157.51542 C 40.741527,157.6052 40.898263,157.69696 41.072869,157.79069 C 41.112934,158.14752 41.145964,158.49091 41.171961,158.82086 C 41.19795,159.15081 41.229276,159.48626 41.265939,159.82721 L 41.469825,161.682 C 41.544835,162.34859 41.606556,162.81787 41.654988,163.08985 L 42.855786,161.23245 C 43.358295,160.45516 43.618949,160.02131 43.637748,159.9309 C 43.656534,159.84049 43.574763,159.72267 43.392434,159.57744 L 43.188541,159.41691 L 43.306376,159.23464 C 43.608172,159.4489 43.844903,159.61152 44.016569,159.7225 C 44.195937,159.83846 44.431753,159.98134 44.724017,160.15114 L 44.606181,160.33341 L 44.383409,160.18939 C 44.204027,160.07342 44.062184,160.0665 43.957878,160.16863 C 43.889388,160.23649 43.60763,160.65327 43.112604,161.41899 L 42.269052,162.7238 C 42.042106,163.07483 41.786328,163.50431 41.501718,164.01224 C 41.265588,163.80215 41.132232,163.67423 41.101648,163.62848 C 41.071058,163.58272 41.050193,163.52616 41.039054,163.45879 C 40.978331,163.08314 40.923836,162.6746 40.875571,162.23316 L 40.456318,158.31923 z M 47.666665,165.58878 L 45.929796,164.61491 L 45.45419,164.98414 C 45.140245,165.22941 44.963054,165.3881 44.922618,165.46022 C 44.896782,165.5063 44.890769,165.54637 44.904579,165.58045 C 44.918386,165.61452 44.973005,165.66621 45.068436,165.73552 L 45.338378,165.93032 L 45.23223,166.11964 C 45.047774,165.99778 44.835348,165.86945 44.594952,165.73466 C 44.306475,165.57291 44.049125,165.43783 43.822901,165.32942 L 43.92905,165.14011 L 44.020884,165.18765 C 44.163361,165.26227 44.262155,165.29857 44.317264,165.29656 C 44.372372,165.29455 44.450484,165.25737 44.551601,165.18505 C 44.855585,164.97632 45.175492,164.74625 45.511323,164.49481 L 47.387378,163.08607 C 47.886307,162.71281 48.238742,162.43646 48.444685,162.25701 L 48.649022,162.37159 L 48.186413,166.76099 C 48.153786,167.05867 48.140743,167.2416 48.147284,167.30978 C 48.153815,167.37795 48.173223,167.43491 48.205506,167.48066 C 48.23778,167.52641 48.3288,167.59653 48.478566,167.69104 L 48.372418,167.88035 C 48.119846,167.7203 47.875367,167.574 47.638981,167.44146 C 47.418613,167.3179 47.121197,167.16035 46.746732,166.96882 L 46.852881,166.77951 L 47.160481,166.92828 C 47.271146,166.9798 47.340428,167.00417 47.368328,167.00138 C 47.41073,166.99619 47.44148,166.97657 47.46058,166.94251 C 47.480795,166.90645 47.503538,166.79545 47.528811,166.6095 L 47.666665,165.58878 z M 46.179141,164.43085 L 47.693643,165.28003 L 47.950699,163.04645 L 46.179141,164.43085 z M 51.331152,164.7586 L 50.278208,166.89364 C 50.038462,167.37976 49.880622,167.72318 49.804687,167.92389 C 49.746978,168.07725 49.727245,168.17828 49.745488,168.22697 C 49.763728,168.27565 49.850658,168.34734 50.006276,168.44201 L 50.196403,168.55498 L 50.100404,168.74964 C 49.88299,168.62449 49.68365,168.51721 49.502384,168.42782 C 49.376733,168.36585 49.084798,168.23084 48.62658,168.02278 L 48.722579,167.82813 L 48.945043,167.93784 C 49.078933,168.00387 49.175619,168.02851 49.235103,168.01175 C 49.294584,167.99499 49.356396,167.93456 49.420537,167.83047 C 49.554939,167.61506 49.71814,167.3127 49.91014,166.92339 L 50.667467,165.38777 C 50.809685,165.09939 50.947293,164.81258 51.080289,164.52733 C 51.135087,164.40583 51.159504,164.31608 51.153539,164.25807 C 51.14757,164.20007 51.126443,164.14036 51.090159,164.07893 C 51.05387,164.0175 50.987321,163.96291 50.89051,163.91516 L 50.698944,163.82069 L 50.794943,163.62603 C 51.049431,163.76947 51.245681,163.87522 51.383693,163.94328 C 51.532,164.01642 51.698283,164.08947 51.882545,164.16241 C 51.963547,164.51222 52.03601,164.8495 52.099934,165.17424 C 52.163851,165.49898 52.233704,165.82857 52.309494,166.163 L 52.726203,167.98185 C 52.877686,168.63531 52.993185,169.09432 53.072701,169.35889 L 54.050979,167.37525 C 54.460367,166.54513 54.669177,166.08409 54.67741,165.99211 C 54.685631,165.90014 54.590801,165.79255 54.392921,165.66935 L 54.171854,165.53343 L 54.267853,165.33878 C 54.592372,165.51675 54.846298,165.65095 55.029631,165.74136 C 55.221191,165.83583 55.471928,165.95053 55.781844,166.08544 L 55.685845,166.28009 L 55.447932,166.16276 C 55.256359,166.06829 55.114666,166.0778 55.022851,166.19128 C 54.962655,166.2666 54.730912,166.71313 54.32762,167.53089 L 53.640387,168.92438 C 53.455495,169.29927 53.251023,169.75542 53.026972,170.29281 C 52.768161,170.1114 52.620925,169.99973 52.585263,169.95782 C 52.549593,169.9159 52.522336,169.86212 52.503492,169.79649 C 52.399796,169.43037 52.298489,169.03085 52.19957,168.59794 L 51.331152,164.7586 z M 54.595558,170.53122 C 54.768388,170.21783 55.028329,169.652 55.375382,168.83372 L 55.765479,167.91395 C 55.925102,167.53758 56.05007,167.20764 56.140384,166.92412 C 56.192838,166.75926 56.21229,166.65899 56.198738,166.6233 C 56.185181,166.58762 56.107825,166.52737 55.966672,166.44255 L 55.729083,166.29688 L 55.813829,166.09706 C 56.158221,166.25561 56.39068,166.36043 56.511204,166.41155 L 57.367063,166.76705 L 58.06703,167.04896 C 58.347922,167.1631 58.622767,167.3121 58.891567,167.49596 C 59.160356,167.67981 59.376329,167.91174 59.539486,168.19175 C 59.702632,168.47175 59.789414,168.773 59.799832,169.0955 C 59.810238,169.418 59.740564,169.7558 59.590808,170.10891 C 59.287693,170.82358 58.79653,171.31255 58.117318,171.57582 C 57.438097,171.83909 56.710493,171.80617 55.934504,171.47705 L 55.548429,171.30209 C 55.171996,171.12497 54.933034,171.01489 54.831543,170.97184 C 54.660274,170.8992 54.437108,170.81952 54.162045,170.7328 L 54.226613,170.58056 L 54.595558,170.53122 z M 55.287356,170.80592 C 55.554865,170.96927 55.797513,171.09713 56.0153,171.1895 C 56.607335,171.44059 57.131788,171.4834 57.588662,171.31793 C 58.140989,171.1156 58.567364,170.66027 58.867788,169.95194 C 59.129641,169.33453 59.164777,168.79435 58.973197,168.3314 C 58.781606,167.86844 58.368651,167.50245 57.73433,167.23342 C 57.512312,167.13926 57.239651,167.04981 56.916346,166.96508 C 56.80488,167.1573 56.694445,167.38239 56.585041,167.64035 L 55.705306,169.71459 C 55.542988,170.0973 55.403672,170.46108 55.287356,170.80592 L 55.287356,170.80592 z M 62.187,171.25647 C 62.28885,171.63747 62.423551,172.08647 62.591105,172.60348 L 62.922274,173.63485 C 62.982583,173.81286 63.027596,173.91821 63.057316,173.9509 C 63.087027,173.98359 63.121328,174.00695 63.160222,174.02098 L 63.244481,174.05137 L 63.170841,174.25554 C 62.996971,174.17574 62.843063,174.11168 62.709116,174.06336 C 62.585964,174.01895 62.453607,173.97975 62.312045,173.94578 L 61.723551,171.98292 C 61.612522,171.62059 61.484034,171.25929 61.338087,170.89901 L 61.410237,170.80051 C 61.531646,170.85652 61.622599,170.89542 61.683096,170.91724 C 62.043895,171.04738 62.359887,171.05637 62.631073,170.9442 C 62.902252,170.83204 63.093949,170.6204 63.206167,170.30929 C 63.306687,170.03059 63.298777,169.78175 63.182438,169.56277 C 63.066091,169.3438 62.844802,169.17548 62.518572,169.05781 C 62.291717,168.97599 62.048589,168.93591 61.789189,168.93756 C 61.639359,169.27173 61.493922,169.63434 61.352879,170.02538 L 60.788307,171.59066 C 60.513228,172.35332 60.379052,172.78286 60.385781,172.87928 C 60.392506,172.97571 60.496333,173.06016 60.69726,173.13263 L 60.950038,173.2238 L 60.876398,173.42797 C 60.523209,173.28349 60.228869,173.16878 59.993377,173.08384 C 59.807573,173.01682 59.46889,172.90321 58.977325,172.743 L 59.050965,172.53883 L 59.29402,172.6265 C 59.479822,172.69352 59.604618,172.69275 59.668409,172.6242 C 59.732198,172.55565 59.90319,172.13573 60.181386,171.36443 L 60.74362,169.80563 C 60.985188,169.13588 61.100404,168.75383 61.08927,168.65947 C 61.078131,168.56512 60.962378,168.4782 60.74201,168.39871 L 60.56701,168.33559 L 60.641819,168.12819 C 61.037434,168.29042 61.341107,168.40971 61.552837,168.48608 C 61.695427,168.53751 61.902622,168.60614 62.174422,168.69196 C 62.489426,168.79338 62.714985,168.86863 62.8511,168.91772 C 63.22486,169.05253 63.494203,169.19424 63.659129,169.34284 C 63.824045,169.49144 63.929853,169.6584 63.976552,169.8437 C 64.023241,170.02902 64.009184,170.22537 63.93438,170.43278 C 63.8245,170.73741 63.617838,170.96684 63.314393,171.12108 C 63.010939,171.27532 62.635142,171.32045 62.187,171.25647 L 62.187,171.25647 z M 65.397667,172.48544 L 65.152732,173.29316 L 65.015066,173.75902 C 64.927088,174.04914 64.866069,174.26224 64.832008,174.39831 C 65.145568,174.51979 65.485873,174.63619 65.852925,174.74749 C 66.099087,174.82214 66.309021,174.8738 66.48273,174.90247 C 66.594422,174.92194 66.717377,174.92803 66.851595,174.92073 C 66.96519,174.74397 67.09455,174.5192 67.239676,174.24641 L 67.460565,174.31339 C 67.255256,174.77673 67.128277,175.08863 67.079628,175.24908 L 67.041233,175.39944 C 66.78114,175.34696 66.529112,175.28374 66.285148,175.20976 L 65.770542,175.04291 C 65.203752,174.85424 64.786286,174.71925 64.518144,174.63793 C 64.260989,174.55996 63.916883,174.46401 63.485826,174.3501 L 63.548809,174.14239 L 63.651011,174.17339 C 63.842228,174.23137 63.968228,174.24918 64.029012,174.22681 C 64.089794,174.20444 64.149422,174.12652 64.207896,173.99305 C 64.266368,173.85959 64.367252,173.55658 64.510549,173.08403 L 65.059403,171.27406 C 65.149377,170.97734 65.215881,170.73231 65.258915,170.53896 C 65.301945,170.34561 65.320717,170.2283 65.315232,170.18703 C 65.309743,170.14577 65.294613,170.11058 65.269843,170.08147 C 65.245069,170.05236 65.155891,170.00612 65.00231,169.94274 L 64.75645,169.83939 L 64.818434,169.63498 L 65.174493,169.74295 L 65.52096,169.85882 C 65.714571,169.92473 65.86193,169.97302 65.963036,170.00367 L 67.234024,170.37109 L 67.835051,170.54974 C 68.040117,170.60953 68.244053,170.68097 68.44686,170.76407 C 68.284689,170.99809 68.136227,171.32147 68.001474,171.73421 L 67.777288,171.66623 C 67.850598,171.42446 67.899493,171.21969 67.923975,171.05191 C 67.693943,170.87656 67.389911,170.73156 67.011877,170.61692 C 66.710761,170.52562 66.391364,170.44316 66.053684,170.36956 C 65.993229,170.57683 65.928381,170.78277 65.85914,170.98737 L 65.698587,171.49308 L 65.495641,172.16234 C 65.709232,172.24152 65.899548,172.30643 66.066591,172.35708 C 66.589688,172.51571 66.891353,172.58738 66.971588,172.57211 C 67.051815,172.55684 67.120589,172.4547 67.177911,172.26567 L 67.242894,172.05138 L 67.46708,172.11936 C 67.351051,172.44658 67.263046,172.70909 67.203066,172.9069 C 67.139745,173.1157 67.072791,173.3642 67.002203,173.6524 L 66.778018,173.58441 L 66.836002,173.3932 C 66.899981,173.1822 66.897927,173.04058 66.829839,172.96833 C 66.761744,172.89608 66.478237,172.78431 65.979317,172.63301 C 65.794691,172.57703 65.600808,172.52784 65.397667,172.48544 L 65.397667,172.48544 z M 71.700402,171.79211 C 71.5798,172.00809 71.469122,172.30707 71.368368,172.68907 L 71.137829,172.63112 L 71.205017,172.36383 C 71.248685,172.19009 71.254972,172.06616 71.223877,171.99203 C 71.192774,171.91791 71.087479,171.82099 70.907991,171.70127 C 70.728496,171.58155 70.529606,171.49426 70.31132,171.43939 C 69.954928,171.34981 69.652152,171.36961 69.402991,171.4988 C 69.153827,171.62799 68.993692,171.83403 68.922586,172.11691 C 68.877793,172.29511 68.881064,172.45875 68.9324,172.60782 C 68.983733,172.75689 69.072983,172.87761 69.200149,172.96996 C 69.327312,173.06231 69.615002,173.18732 70.063218,173.34498 C 70.510869,173.50487 70.806202,173.64186 70.949218,173.75596 C 71.092227,173.87006 71.191744,174.02059 71.247768,174.20754 C 71.303785,174.3945 71.303801,174.59936 71.247814,174.8221 C 71.135271,175.26981 70.851303,175.60813 70.395911,175.83704 C 69.940514,176.06596 69.400975,176.10203 68.777294,175.94526 C 68.563459,175.89151 68.353414,175.81562 68.147157,175.71759 C 67.9409,175.61957 67.738151,175.50052 67.538911,175.36045 C 67.646193,175.10323 67.751351,174.76497 67.854385,174.34565 L 68.081584,174.40276 L 68.039592,174.56982 C 67.985281,174.78588 67.962824,174.92232 67.972221,174.97915 C 67.981617,175.03598 68.020244,175.10371 68.088103,175.18234 C 68.188775,175.30001 68.318015,175.40295 68.475823,175.49116 C 68.633629,175.57938 68.81054,175.64812 69.006556,175.69739 C 69.42754,175.80321 69.777661,175.78584 70.056921,175.64527 C 70.336175,175.50469 70.514157,175.28183 70.590866,174.97667 C 70.635655,174.79847 70.634608,174.63777 70.587726,174.49455 C 70.540837,174.35133 70.454788,174.23201 70.32958,174.1366 C 70.204366,174.04118 69.956348,173.93029 69.585524,173.80392 C 69.0922,173.63729 68.765405,173.49121 68.605141,173.36567 C 68.444874,173.24013 68.335206,173.07817 68.276137,172.87978 C 68.217066,172.6814 68.219726,172.45414 68.284115,172.19798 C 68.393295,171.76363 68.639633,171.44783 69.023131,171.25057 C 69.406625,171.05332 69.875689,171.0244 70.430324,171.16381 C 70.653064,171.2198 70.870346,171.29988 71.082169,171.40403 C 71.293985,171.50819 71.500062,171.63755 71.700402,171.79211 L 71.700402,171.79211 z M 75.608747,174.85254 C 75.782754,174.66816 76.063683,174.34375 76.451534,173.87931 L 77.462258,172.6624 L 77.988461,172.75326 L 77.973807,172.83813 C 77.644148,173.10052 77.225096,173.50945 76.716649,174.06493 C 76.208194,174.62042 75.895995,174.9977 75.780051,175.19676 C 75.739993,175.26676 75.693391,175.45566 75.640247,175.76346 C 75.569511,176.17311 75.523617,176.49964 75.502566,176.74306 C 75.493867,176.87441 75.503681,176.95593 75.532007,176.98762 C 75.560327,177.01932 75.672507,177.06141 75.868549,177.11391 L 76.121869,177.18562 L 76.085525,177.3961 C 75.694454,177.31226 75.388022,177.25119 75.166227,177.21289 L 74.068979,177.0479 L 74.105322,176.83742 L 74.393885,176.88725 C 74.586259,176.92046 74.708523,176.90079 74.760678,176.82822 C 74.812828,176.75565 74.89381,176.40138 75.003625,175.76541 C 75.035667,175.57982 75.064985,175.37629 75.091578,175.1548 C 74.892235,174.568 74.703021,174.05753 74.523937,173.62339 C 74.344849,173.18926 74.186066,172.86701 74.047588,172.65664 C 73.971988,172.54103 73.90241,172.46143 73.838854,172.41782 C 73.775295,172.37422 73.66204,172.33835 73.499087,172.31021 L 73.535431,172.09973 C 73.631349,172.09765 73.819792,172.0929 74.100761,172.08547 L 74.378334,172.07746 C 74.475798,172.13392 74.551136,172.19703 74.604348,172.26682 C 74.69914,172.39273 74.830268,172.66593 74.997731,173.0864 C 75.126113,173.40923 75.329784,173.99794 75.608747,174.85254 L 75.608747,174.85254 z M 80.99969,173.45725 C 80.954376,173.78526 80.915139,174.13571 80.881978,174.5086 L 80.707719,176.46802 C 80.646477,177.15662 80.632784,177.54393 80.66664,177.62995 C 80.700493,177.71597 80.831805,177.76915 81.060577,177.78949 L 81.297354,177.81055 L 81.278127,178.02674 C 80.874627,177.97471 80.556205,177.93833 80.322861,177.91757 C 80.116966,177.89926 79.751366,177.87482 79.226059,177.84424 L 79.245286,177.62805 L 79.554125,177.65552 C 79.69825,177.66834 79.792479,177.65885 79.836811,177.62705 C 79.881143,177.59525 79.91386,177.52553 79.934964,177.41788 C 79.956065,177.31023 79.9982,176.97906 80.061366,176.42437 L 80.224334,174.59192 L 80.277212,173.88068 C 80.298881,173.58516 80.283498,173.40164 80.231063,173.3301 C 80.178625,173.25857 80.039166,173.21274 79.812685,173.19259 L 79.641107,173.17733 L 79.660334,172.96114 C 79.945278,172.99802 80.30737,173.03598 80.74661,173.07504 C 81.005118,173.09804 81.292835,173.11671 81.60976,173.13105 C 81.818752,173.14042 81.97701,173.14989 82.084535,173.15944 C 82.638155,173.20868 83.031838,173.34515 83.265585,173.56884 C 83.497036,173.79234 83.597505,174.07567 83.566991,174.41882 C 83.54481,174.66818 83.451436,174.90141 83.286868,175.1185 C 83.122291,175.3356 82.901685,175.50217 82.625049,175.61822 C 82.348405,175.73428 82.060241,175.77897 81.760555,175.75232 C 81.62329,175.74011 81.453646,175.70312 81.251621,175.64134 L 81.206184,175.37444 C 81.40282,175.44496 81.568626,175.48623 81.703603,175.49823 C 82.019302,175.52631 82.2783,175.45307 82.480595,175.27853 C 82.682884,175.10399 82.79878,174.85086 82.828285,174.51914 C 82.856765,174.19886 82.780049,173.94013 82.598138,173.74295 C 82.41622,173.54577 82.129664,173.42978 81.73847,173.39499 C 81.516561,173.37526 81.270301,173.39601 80.99969,173.45725 L 80.99969,173.45725 z M 86.102369,175.8052 C 86.318269,176.13523 86.586641,176.51958 86.907486,176.95824 L 87.544609,177.83429 C 87.657567,177.98451 87.733273,178.0705 87.771726,178.09226 C 87.81017,178.11402 87.850057,178.12548 87.891387,178.12664 L 87.980924,178.12915 L 87.974833,178.34611 C 87.784726,178.32469 87.618504,178.31198 87.476167,178.30798 C 87.345301,178.30431 87.207326,178.30848 87.062242,178.32049 L 85.889373,176.64016 C 85.670592,176.33073 85.435549,176.02773 85.184244,175.73117 L 85.221969,175.61505 C 85.354802,175.63027 85.453362,175.63878 85.517647,175.64059 C 85.901047,175.65135 86.203998,175.56106 86.426499,175.36971 C 86.648995,175.17836 86.764884,174.91739 86.774169,174.58678 C 86.782481,174.29063 86.697142,174.05674 86.518152,173.88514 C 86.339156,173.71354 86.076325,173.62287 85.729658,173.61313 C 85.488594,173.60637 85.245127,173.64434 84.999258,173.72704 C 84.961458,174.0913 84.936726,174.48121 84.925061,174.89675 L 84.878364,176.56007 C 84.85561,177.3705 84.862507,177.82046 84.899056,177.90994 C 84.935602,177.99943 85.060632,178.04717 85.274145,178.05316 L 85.542757,178.0607 L 85.536666,178.27766 C 85.156008,178.25089 84.840558,178.23399 84.590314,178.22696 C 84.392872,178.22142 84.035646,178.21943 83.518635,178.221 L 83.524726,178.00405 L 83.783006,178.0113 C 83.980447,178.01684 84.098742,177.97708 84.137893,177.89202 C 84.177043,177.80696 84.208123,177.35462 84.231134,176.53501 L 84.277638,174.87857 C 84.297618,174.16687 84.287565,173.76795 84.247478,173.68181 C 84.207389,173.59567 84.070258,173.54932 83.836085,173.54274 L 83.650123,173.53752 L 83.656311,173.31712 C 84.082818,173.34748 84.408567,173.36581 84.633559,173.37213 C 84.785082,173.37638 85.003346,173.37677 85.288353,173.37328 C 85.619272,173.37108 85.85705,173.37202 86.00169,173.37607 C 86.398865,173.38723 86.699015,173.43758 86.902142,173.52715 C 87.105262,173.61672 87.257978,173.74221 87.360291,173.90361 C 87.462595,174.06502 87.510656,174.25593 87.504472,174.47632 C 87.49538,174.80004 87.370842,175.0826 87.130859,175.324 C 86.890868,175.56541 86.548038,175.72581 86.102369,175.8052 L 86.102369,175.8052 z M 88.088838,175.90497 C 88.057034,175.15002 88.274654,174.53168 88.7417,174.04994 C 89.208743,173.56822 89.847279,173.3103 90.657308,173.27617 C 91.451269,173.24273 92.082719,173.43048 92.551659,173.83944 C 93.020591,174.24841 93.269994,174.80743 93.29987,175.51648 C 93.332055,176.28062 93.097382,176.93071 92.59585,177.46676 C 92.094309,178.00281 91.445412,178.28761 90.649156,178.32116 C 90.151205,178.34213 89.717844,178.25924 89.349072,178.07249 C 88.980297,177.88573 88.683333,177.60285 88.45818,177.22384 C 88.233025,176.84484 88.109912,176.40521 88.088838,175.90497 L 88.088838,175.90497 z M 88.775682,175.59329 C 88.797529,176.11189 88.905468,176.55962 89.099499,176.93649 C 89.293529,177.31336 89.543735,177.59132 89.850119,177.77036 C 90.156499,177.9494 90.501297,178.03084 90.884513,178.0147 C 91.240188,177.99972 91.547687,177.90516 91.807012,177.73102 C 92.066329,177.55688 92.265473,177.30483 92.404444,176.97484 C 92.543406,176.64487 92.603126,176.24811 92.583604,175.78458 C 92.563105,175.29811 92.461254,174.88575 92.27805,174.5475 C 92.094837,174.20926 91.852699,173.95912 91.551635,173.79709 C 91.250564,173.63507 90.899245,173.56252 90.497676,173.57943 C 90.130523,173.59491 89.817094,173.68512 89.557388,173.85007 C 89.297679,174.01503 89.098359,174.24928 88.959429,174.55282 C 88.820497,174.85637 88.759248,175.20319 88.775682,175.59329 L 88.775682,175.59329 z M 95.956355,177.90142 C 95.818405,177.60753 95.680413,177.3333 95.542379,177.07873 L 93.963742,174.15706 C 93.736988,173.7347 93.606411,173.5047 93.572012,173.46705 C 93.537612,173.42941 93.437135,173.42019 93.270578,173.43941 L 93.13026,173.4556 L 93.105382,173.23999 C 93.465435,173.21463 93.770949,173.18747 94.021925,173.15851 C 94.286589,173.12798 94.602808,173.0834 94.970585,173.02477 L 94.999016,173.27119 L 94.6602,173.31028 C 94.543838,173.32371 94.469796,173.34323 94.438074,173.36885 C 94.40635,173.39448 94.393121,173.43011 94.398387,173.47574 C 94.401808,173.5054 94.411329,173.53783 94.42695,173.57301 L 95.007306,174.69556 L 96.203427,176.94696 L 96.844076,174.5946 C 97.059334,173.79526 97.159461,173.33056 97.144459,173.2005 C 97.132346,173.09556 97.063284,173.04804 96.937274,173.05795 L 96.795771,173.06387 L 96.497891,173.06703 L 96.473014,172.85142 C 96.778305,172.83238 97.029061,172.81154 97.225281,172.7889 C 97.430621,172.76521 97.687522,172.72748 97.995982,172.6757 L 98.020852,172.89131 L 97.883962,172.9071 C 97.774442,172.91974 97.698112,172.95456 97.654992,173.01155 C 97.611852,173.06855 97.544432,173.26071 97.452737,173.58802 L 96.624382,176.53773 C 96.468703,177.09207 96.363529,177.53307 96.308861,177.86074 L 95.956355,177.90142 z M 98.815662,177.2522 L 99.029742,177.21644 C 99.240412,177.18126 99.358192,177.10919 99.383082,177.00025 C 99.407962,176.89131 99.347382,176.39963 99.201332,175.5252 L 99.008932,174.37327 C 98.857582,173.46714 98.756032,172.97066 98.704272,172.88383 C 98.652512,172.797 98.536022,172.76873 98.354792,172.79899 L 98.079552,172.84496 L 98.043792,172.63089 C 98.422492,172.58394 98.795332,172.52982 99.162322,172.46852 C 99.468142,172.41744 99.744322,172.36316 99.990862,172.30568 L 100.02662,172.51976 L 99.764972,172.56346 C 99.604132,172.59033 99.506542,172.62642 99.472192,172.67174 C 99.437852,172.71706 99.430332,172.81845 99.449642,172.97588 C 99.478802,173.22017 99.545222,173.65267 99.648892,174.27337 L 99.844702,175.44569 C 99.991882,176.32691 100.0922,176.80905 100.14565,176.89209 C 100.19911,176.97514 100.33004,176.99926 100.53846,176.96445 L 100.76273,176.92699 L 100.79848,177.14107 C 100.51719,177.17175 100.21231,177.21452 99.883842,177.26939 C 99.501002,177.33333 99.156862,177.39896 98.851422,177.46628 L 98.815662,177.2522 z M 101.67763,176.64499 C 101.63667,176.28946 101.52027,175.67775 101.32842,174.80986 L 101.11278,173.83434 C 101.02454,173.43516 100.93499,173.09389 100.84413,172.81054 C 100.79125,172.64582 100.74895,172.55286 100.71721,172.53164 C 100.68547,172.51044 100.58751,172.50622 100.42333,172.51898 L 100.14529,172.5381 L 100.09845,172.32618 C 100.47095,172.2556 100.72112,172.20618 100.84895,172.17792 L 101.75235,171.97117 L 102.48606,171.79486 C 102.78109,171.72495 103.09141,171.68693 103.41701,171.68081 C 103.74261,171.6747 104.05306,171.73839 104.34837,171.87186 C 104.64366,172.00535 104.88907,172.20043 105.0846,172.45711 C 105.28011,172.71379 105.41926,173.02939 105.50206,173.4039 C 105.66961,174.1619 105.55307,174.84509 105.15244,175.45348 C 104.7518,176.06188 104.13997,176.45704 103.31694,176.63897 L 102.90095,176.72034 C 102.49157,176.79437 102.23306,176.84328 102.12542,176.86708 C 101.94377,176.90723 101.71575,176.97175 101.44138,177.06062 L 101.40569,176.89916 L 101.67763,176.64499 z M 102.40051,176.46755 C 102.71318,176.44548 102.985,176.40892 103.21599,176.35785 C 103.84391,176.21905 104.29598,175.94976 104.5722,175.54999 C 104.90481,175.06484 104.98808,174.44663 104.82202,173.69536 C 104.67726,173.04052 104.3926,172.58009 103.96803,172.31405 C 103.54346,172.04803 102.99479,171.98937 102.32201,172.13809 C 102.08654,172.19014 101.81254,172.27541 101.50002,172.39388 C 101.5207,172.61512 101.56128,172.86254 101.62176,173.13613 L 102.10807,175.33612 C 102.19779,175.74203 102.29528,176.11917 102.40051,176.46755 L 102.40051,176.46755 z M 107.18673,173.26787 L 107.42066,174.07885 L 107.5586,174.54462 C 107.64262,174.83592 107.70736,175.04791 107.75281,175.18062 C 108.082,175.11196 108.43085,175.02447 108.79938,174.91817 C 109.04654,174.84688 109.25079,174.77601 109.41214,174.70556 C 109.51645,174.66113 109.62293,174.59934 109.73157,174.5202 C 109.73072,174.31009 109.71697,174.05112 109.69033,173.74327 L 109.91211,173.6793 C 109.99192,174.17977 110.05507,174.51055 110.10154,174.67164 L 110.15113,174.81869 C 109.90435,174.91616 109.65849,175.00023 109.41354,175.07089 L 108.89098,175.21086 C 108.31277,175.36092 107.88905,175.47477 107.61983,175.55243 C 107.36164,175.62691 107.02071,175.73361 106.59706,175.87255 L 106.5369,175.66401 L 106.63952,175.63441 C 106.83151,175.57903 106.94692,175.52542 106.98575,175.47359 C 107.02458,175.42175 107.03222,175.32393 107.00867,175.18013 C 106.98511,175.03633 106.90491,174.72721 106.76805,174.25275 L 106.24386,172.43549 C 106.15792,172.13758 106.08041,171.8958 106.01133,171.71015 C 105.94224,171.52451 105.89417,171.41587 105.86712,171.38423 C 105.84006,171.3526 105.80823,171.33131 105.7716,171.32035 C 105.73498,171.30941 105.635,171.31912 105.47165,171.3495 L 105.20913,171.39654 L 105.14993,171.19132 L 105.50743,171.08819 L 105.86117,170.99691 C 106.05948,170.94689 106.20939,170.90723 106.3109,170.87794 L 107.57722,170.49474 L 108.17871,170.31766 C 108.3833,170.25626 108.59328,170.20525 108.80865,170.16463 C 108.79991,170.44922 108.85128,170.80133 108.96276,171.22095 L 108.73767,171.28588 C 108.66765,171.04314 108.59727,170.84472 108.52653,170.69062 C 108.23812,170.66864 107.90413,170.71239 107.52457,170.82187 C 107.22225,170.90909 106.9094,171.01367 106.58602,171.13563 C 106.64806,171.34243 106.70569,171.5505 106.75891,171.75984 L 106.89933,172.27151 L 107.09316,172.94347 C 107.31544,172.8937 107.51044,172.84462 107.67816,172.79624 C 108.20337,172.64475 108.49548,172.54077 108.55449,172.4843 C 108.61349,172.42784 108.61563,172.30472 108.56089,172.11493 L 108.49882,171.89977 L 108.72391,171.83485 C 108.80458,172.17253 108.87356,172.44067 108.93085,172.63927 C 108.99132,172.84892 109.07034,173.09385 109.1679,173.37406 L 108.94281,173.43899 L 108.88744,173.247 C 108.82632,173.03515 108.74755,172.91744 108.65111,172.89387 C 108.55467,172.87029 108.25599,172.93075 107.75505,173.07525 C 107.56969,173.12872 107.38024,173.19293 107.18673,173.26787 L 107.18673,173.26787 z M 110.1651,170.50883 L 110.96832,172.74979 C 111.1512,173.26004 111.28841,173.61221 111.37994,173.8063 C 111.45009,173.95438 111.50901,174.03879 111.5567,174.05951 C 111.60438,174.08024 111.71634,174.06756 111.89256,174.02147 L 112.10593,173.96329 L 112.17916,174.16761 C 111.93807,174.23694 111.7224,174.3057 111.53214,174.3739 C 111.40026,174.42117 111.10028,174.53723 110.63222,174.72207 L 110.55899,174.51776 L 110.79249,174.43406 C 110.93302,174.38369 111.01793,174.3313 111.04723,174.27689 C 111.07652,174.22247 111.07603,174.13603 111.04577,174.01757 C 110.98431,173.77122 110.88035,173.44373 110.73389,173.0351 L 110.15618,171.4233 C 110.04769,171.12061 109.93712,170.82233 109.82446,170.52845 C 109.77519,170.40461 109.72763,170.32467 109.68178,170.28865 C 109.63594,170.25263 109.57832,170.22631 109.50893,170.2097 C 109.43955,170.1931 109.35404,170.20301 109.25243,170.23942 L 109.05136,170.31149 L 108.97812,170.10718 C 109.25813,170.0239 109.47056,169.9563 109.61542,169.90438 C 109.77109,169.84859 109.93917,169.7798 110.11969,169.69802 C 110.4275,169.88291 110.72035,170.06523 110.99826,170.24497 C 111.27617,170.42472 111.56169,170.60357 111.85481,170.78152 L 113.45215,171.74607 C 114.02726,172.09134 114.43756,172.32732 114.68305,172.45404 L 113.93679,170.37199 C 113.62448,169.50069 113.43813,169.03011 113.37772,168.96027 C 113.31731,168.89043 113.17405,168.88384 112.94793,168.94048 L 112.69657,169.00496 L 112.62334,168.80064 C 112.97685,168.69102 113.24982,168.60172 113.44224,168.53274 C 113.64331,168.46068 113.90004,168.36012 114.21244,168.23107 L 114.28567,168.43538 L 114.03596,168.52489 C 113.83488,168.59696 113.74324,168.70544 113.76102,168.85033 C 113.77333,168.94596 113.93331,169.42293 114.24096,170.28126 L 114.7652,171.74388 C 114.90624,172.13738 115.09208,172.60143 115.32273,173.13602 C 115.01242,173.19601 114.8298,173.22426 114.77488,173.22077 C 114.71995,173.21728 114.66234,173.1995 114.60205,173.16743 C 114.26674,172.98752 113.90909,172.78268 113.52908,172.55291 L 110.1651,170.50883 z M 118.62177,167.65908 L 118.3528,167.1073 C 118.11138,167.06418 117.87468,167.05655 117.64273,167.08441 C 117.41077,167.11228 117.18308,167.17458 116.95968,167.27131 C 116.39062,167.51773 116.00968,167.88792 115.81687,168.38187 C 115.62406,168.87582 115.65314,169.4126 115.90412,169.99219 C 116.08026,170.39896 116.32417,170.72382 116.63586,170.96678 C 116.94755,171.20974 117.30372,171.35459 117.7044,171.40134 C 118.10506,171.44809 118.48349,171.39434 118.83968,171.2401 C 119.1221,171.11781 119.38721,170.96422 119.63502,170.77932 C 119.82057,170.64141 119.98437,170.45035 120.1264,170.20614 L 120.22017,170.24062 C 120.21789,170.35674 120.21923,170.47254 120.22419,170.58802 C 120.03053,170.81705 119.82228,171.01672 119.59946,171.18704 C 119.37663,171.35736 119.13875,171.49728 118.88584,171.6068 C 118.36737,171.83131 117.86824,171.92856 117.38847,171.89854 C 116.9087,171.86853 116.487,171.72264 116.12337,171.46088 C 115.75974,171.19912 115.48164,170.84588 115.28908,170.40118 C 115.09651,169.95647 115.03068,169.51257 115.09159,169.06947 C 115.15251,168.62638 115.33564,168.22422 115.64099,167.86298 C 115.94634,167.50176 116.38248,167.19839 116.94943,166.95289 C 117.24661,166.82421 117.61535,166.7221 118.05568,166.64655 C 118.27387,166.60714 118.45016,166.5721 118.58455,166.54143 C 118.58736,166.80802 118.67037,167.15 118.83358,167.56736 L 118.62177,167.65908 z M 120.68481,170.47609 L 120.8802,170.3816 C 121.07249,170.2886 121.16526,170.18633 121.15851,170.07479 C 121.15176,169.96325 120.9554,169.50843 120.56941,168.71033 L 120.06092,167.65894 C 119.66094,166.8319 119.4239,166.38399 119.34982,166.31522 C 119.27574,166.24645 119.156,166.25206 118.99059,166.33205 L 118.73937,166.45355 L 118.64487,166.25816 C 118.9951,166.10664 119.33769,165.94988 119.67264,165.78788 C 119.95177,165.65289 120.20155,165.52316 120.42199,165.39869 L 120.51648,165.59408 L 120.27768,165.70957 C 120.13087,165.78057 120.04737,165.84265 120.02715,165.89579 C 120.00693,165.94895 120.02822,166.04835 120.09101,166.19401 C 120.18767,166.42025 120.373,166.81663 120.64699,167.38315 L 121.16447,168.45315 C 121.55346,169.25745 121.78528,169.69194 121.85993,169.75661 C 121.93458,169.82128 122.06701,169.80761 122.25723,169.71562 L 122.46193,169.61662 L 122.55642,169.81201 C 122.29511,169.92053 122.01455,170.04729 121.71474,170.19229 C 121.36532,170.36128 121.0535,170.52101 120.77931,170.67148 L 120.68481,170.47609 z M 125.15354,166.58574 L 123.39932,167.528 L 123.45541,168.12748 C 123.49373,168.52403 123.53246,168.75872 123.57158,168.83156 C 123.59658,168.8781 123.62716,168.90469 123.66332,168.91134 C 123.69947,168.91799 123.77241,168.89967 123.88212,168.85638 L 124.19141,168.73327 L 124.29411,168.92447 C 124.09227,169.01464 123.86994,169.12493 123.62715,169.25535 C 123.33579,169.41185 123.08364,169.55641 122.87071,169.68903 L 122.768,169.49783 L 122.85742,169.44589 C 122.99688,169.36577 123.08056,169.30192 123.10845,169.25435 C 123.13634,169.20678 123.14693,169.12092 123.14022,168.99678 C 123.12737,168.62826 123.10507,168.23484 123.0733,167.81652 L 122.8923,165.47742 C 122.84534,164.8561 122.80147,164.41039 122.76068,164.1403 L 122.96706,164.02945 L 126.4215,166.77674 C 126.65511,166.96412 126.80242,167.07335 126.86345,167.10444 C 126.92447,167.13554 126.98294,167.14976 127.03887,167.14709 C 127.09479,167.14443 127.20282,167.1053 127.36297,167.02971 L 127.46567,167.22091 C 127.19503,167.34803 126.94033,167.47572 126.70159,167.60396 C 126.47902,167.72351 126.1864,167.8898 125.82375,168.10285 L 125.72104,167.91165 L 126.01173,167.73205 C 126.11461,167.66635 126.17237,167.62099 126.185,167.59596 C 126.20339,167.5574 126.20335,167.52092 126.18488,167.48653 C 126.16531,167.45011 126.08388,167.37131 125.94059,167.25014 L 125.15354,166.58574 z M 123.37794,167.21881 L 124.90757,166.39719 L 123.16138,164.98094 L 123.37794,167.21881 z M 129.15651,165.94024 L 129.3414,165.82657 C 129.52336,165.71469 129.60537,165.60361 129.58743,165.49331 C 129.56949,165.38302 129.32836,164.95026 128.86403,164.19505 L 128.25233,163.20017 C 127.77116,162.41757 127.49026,161.99578 127.40964,161.93481 C 127.32901,161.87384 127.21044,161.89147 127.05392,161.9877 L 126.8162,162.13386 L 126.70253,161.94897 C 127.03573,161.76298 127.36081,161.57255 127.67776,161.37767 C 127.94189,161.21528 128.17735,161.06107 128.38414,160.91505 L 128.49782,161.09994 L 128.27184,161.23888 C 128.13293,161.32429 128.05609,161.39445 128.04133,161.44936 C 128.02656,161.50428 128.05774,161.60104 128.13487,161.73964 C 128.25381,161.95501 128.47807,162.33073 128.80768,162.86681 L 129.4302,163.8793 C 129.89814,164.64038 130.1725,165.04934 130.25327,165.10617 C 130.33405,165.163 130.46444,165.13608 130.64444,165.02541 L 130.83813,164.90632 L 130.95181,165.09121 C 130.70274,165.22548 130.43635,165.37982 130.15266,165.55425 C 129.82201,165.75754 129.52785,165.94784 129.27019,166.12513 L 129.15651,165.94024 z M 131.33025,159.27366 C 131.40751,159.50866 131.55259,159.79255 131.76546,160.12535 L 131.56671,160.25576 L 131.41552,160.02533 C 131.31724,159.87555 131.2303,159.78701 131.15469,159.7597 C 131.07909,159.73239 130.93647,159.74425 130.72684,159.79526 C 130.5172,159.84629 130.31829,159.93353 130.13011,160.05701 C 129.82286,160.25861 129.63242,160.49482 129.55877,160.76564 C 129.48513,161.03648 129.52831,161.29383 129.68833,161.5377 C 129.78912,161.69133 129.91175,161.79972 130.05621,161.86288 C 130.20067,161.92605 130.34993,161.94211 130.504,161.91107 C 130.65806,161.88003 130.94486,161.75298 131.36437,161.5299 C 131.78514,161.30876 132.08593,161.18419 132.26673,161.15621 C 132.44753,161.12824 132.62568,161.15693 132.80119,161.2423 C 132.9767,161.32767 133.12746,161.46637 133.25345,161.6584 C 133.50671,162.04437 133.56338,162.48242 133.42347,162.97253 C 133.28356,163.46265 132.94477,163.8841 132.40709,164.23689 C 132.22275,164.35785 132.02468,164.46103 131.81288,164.54643 C 131.60109,164.63183 131.3762,164.70042 131.13821,164.75218 C 131.02158,164.49907 130.84386,164.19264 130.60507,163.83289 L 130.80094,163.70437 L 130.89543,163.84839 C 131.01765,164.03466 131.10285,164.14358 131.15103,164.17514 C 131.19922,164.20671 131.27521,164.22415 131.37902,164.22745 C 131.53377,164.23305 131.69704,164.20765 131.86881,164.15125 C 132.04058,164.09486 132.21095,164.01123 132.37994,163.90035 C 132.74287,163.66221 132.96716,163.39281 133.05281,163.09212 C 133.13846,162.79144 133.09497,162.50957 132.92236,162.24649 C 132.82156,162.09287 132.70259,161.98482 132.56546,161.92234 C 132.42832,161.85987 132.28225,161.84239 132.12726,161.86992 C 131.97226,161.89746 131.72272,162.00488 131.37863,162.19219 C 130.92197,162.44238 130.59319,162.58394 130.39229,162.61686 C 130.19139,162.64979 129.99795,162.62083 129.81197,162.52996 C 129.62599,162.4391 129.46055,162.28325 129.31565,162.06242 C 129.06996,161.68797 129.00437,161.29286 129.11889,160.87709 C 129.23342,160.46132 129.52975,160.09657 130.0079,159.78283 C 130.19992,159.65684 130.40598,159.55117 130.62605,159.46582 C 130.84613,159.38049 131.08086,159.31644 131.33025,159.27366 L 131.33025,159.27366 z M 135.28456,161.80058 C 135.4747,161.67958 135.65683,161.55722 135.83095,161.43351 C 136.18295,161.18344 136.45152,160.97854 136.63669,160.81881 C 136.76459,160.7054 136.88854,160.57649 137.00852,160.43208 L 136.70813,159.65238 L 136.89068,159.52268 C 137.09528,159.90981 137.29355,160.26621 137.48549,160.59189 C 137.33693,160.73969 137.11662,160.91735 136.82454,161.12486 L 135.47175,162.05215 C 135.29201,162.17986 135.01942,162.38902 134.65397,162.67964 L 134.54822,162.5308 C 134.65145,162.35885 134.69003,162.22579 134.66397,162.13161 C 134.63791,162.03743 134.44065,161.73102 134.07218,161.21239 L 132.97476,159.66774 C 132.5757,159.10605 132.33965,158.80255 132.26661,158.75724 C 132.19357,158.71194 132.09433,158.73385 131.96888,158.82297 L 131.66276,159.04046 L 131.53706,158.86352 C 131.99198,158.56004 132.29246,158.35643 132.4385,158.25267 C 132.63322,158.11433 132.89256,157.92022 133.21652,157.67033 L 133.34222,157.84726 L 132.99397,158.09468 C 132.89474,158.16519 132.8523,158.2383 132.86666,158.31402 C 132.88102,158.38976 133.03652,158.63638 133.33315,159.0539 L 134.60416,160.84289 L 135.17526,161.62889 L 135.28456,161.80058 z M 139.59657,156.94917 L 138.0237,158.17032 L 138.1788,158.75211 C 138.28261,159.13674 138.35987,159.36171 138.41058,159.42702 C 138.44297,159.46875 138.47755,159.48988 138.51431,159.49041 C 138.55107,159.49095 138.61994,159.46074 138.72091,159.39979 L 139.00539,159.22691 L 139.13849,159.39834 C 138.95447,159.52086 138.75361,159.66663 138.53592,159.83564 C 138.27468,160.03847 138.05012,160.22299 137.86224,160.38921 L 137.72914,160.21777 L 137.80866,160.15167 C 137.93283,160.04945 138.00471,159.97256 138.0243,159.92101 C 138.04388,159.86946 138.04003,159.78304 138.01274,159.66175 C 137.93872,159.30051 137.85123,158.9163 137.75026,158.50911 L 137.18236,156.23278 C 137.03262,155.62794 136.91515,155.19576 136.82997,154.93623 L 137.01501,154.79257 L 140.87863,156.92641 C 141.14017,157.07228 141.30361,157.15546 141.36896,157.17596 C 141.43431,157.19647 141.49433,157.20075 141.54904,157.18881 C 141.60373,157.17687 141.70374,157.12031 141.84907,157.01911 L 141.98217,157.19054 C 141.73647,157.36095 141.50659,157.52925 141.29252,157.69545 C 141.09296,157.85039 140.83212,158.06308 140.50999,158.33353 L 140.37689,158.16209 L 140.63361,157.9366 C 140.72413,157.8547 140.77352,157.80036 140.78181,157.77357 C 140.79353,157.73249 140.78741,157.69653 140.76347,157.66568 C 140.73812,157.63303 140.64471,157.56889 140.48324,157.47327 L 139.59657,156.94917 z M 137.95114,157.86901 L 139.32264,156.8042 L 137.36503,155.69843 L 137.95114,157.86901 z M 141.61458,151.38812 C 141.71862,151.61255 141.89567,151.87768 142.14576,152.18351 L 141.9635,152.33612 L 141.78656,152.1248 C 141.67156,151.98745 141.57492,151.9096 141.49666,151.89125 C 141.41839,151.87291 141.27812,151.90125 141.07582,151.97626 C 140.87354,152.05129 140.6861,152.16104 140.51353,152.30553 C 140.23177,152.54145 140.07005,152.79818 140.02835,153.07572 C 139.98665,153.35327 140.05943,153.60387 140.24668,153.82751 C 140.36464,153.96839 140.49902,154.06181 140.64984,154.10777 C 140.80066,154.15374 140.95077,154.15236 141.10019,154.10363 C 141.24961,154.05491 141.51971,153.89542 141.91048,153.62514 C 142.30273,153.35662 142.58701,153.19797 142.76334,153.14919 C 142.93967,153.10041 143.11995,153.10822 143.30419,153.17263 C 143.48842,153.23704 143.65426,153.3573 143.80171,153.53339 C 144.09807,153.88735 144.20522,154.31585 144.12318,154.81889 C 144.04113,155.32194 143.75357,155.77988 143.2605,156.19272 C 143.09144,156.33427 142.9067,156.45975 142.70625,156.56917 C 142.5058,156.67859 142.2904,156.77283 142.06004,156.85188 C 141.9148,156.61402 141.70271,156.3303 141.42375,156.00071 L 141.60337,155.85032 L 141.71395,155.98239 C 141.85697,156.15321 141.95424,156.25149 142.00576,156.27725 C 142.05729,156.30301 142.13479,156.3115 142.23828,156.30273 C 142.39264,156.29032 142.55185,156.24613 142.71591,156.17017 C 142.87997,156.09422 143.03948,155.99136 143.19444,155.86161 C 143.52726,155.58294 143.71875,155.28931 143.76891,154.98072 C 143.81906,154.67213 143.74314,154.3972 143.54114,154.15595 C 143.42319,154.01508 143.29248,153.92157 143.14901,153.87544 C 143.00555,153.82932 142.85844,153.82892 142.70769,153.87426 C 142.55694,153.91961 142.32156,154.05528 142.00155,154.28128 C 141.57704,154.58281 141.26692,154.76159 141.0712,154.81762 C 140.87548,154.87366 140.67999,154.86735 140.48471,154.7987 C 140.28944,154.73005 140.10702,154.59447 139.93746,154.39196 C 139.64995,154.04857 139.53892,153.66375 139.60439,153.23749 C 139.66985,152.81124 139.92183,152.41454 140.3603,152.0474 C 140.5364,151.89997 140.72879,151.77108 140.93747,151.66076 C 141.14614,151.55044 141.37185,151.45956 141.61458,151.38812 L 141.61458,151.38812 z"
   id="text3415" /><g
   id="g2427"
   transform="translate(8.6555541e-2,8.0705432)"><path
     d="M 40.945873,84.759516 L 43.149603,91.383215 L 50.174963,91.375157 L 44.471043,95.489827 L 46.649763,102.07948 L 40.920813,97.998797 L 35.241973,102.07948 L 37.405213,95.442817 L 31.716773,91.375157 L 38.782673,91.354149 L 40.945873,84.759516 z"
     style="fill:#e6e6e6;fill-opacity:1;stroke:#000000;stroke-width:0.28222224;stroke-miterlimit:4;stroke-dasharray:none;stroke-dashoffset:0;stroke-opacity:1"
     id="path2419" /><path
     id="path2421"
     style="fill:#e6e6e6;fill-opacity:1;stroke:#000000;stroke-width:0.28222224;stroke-miterlimit:4;stroke-dasharray:none;stroke-dashoffset:0;stroke-opacity:1"
     d="M 66.345853,84.759516 L 68.549583,91.383215 L 75.574943,91.375157 L 69.871023,95.489827 L 72.049743,102.07948 L 66.320793,97.998797 L 60.641953,102.07948 L 62.805193,95.442817 L 57.116753,91.375157 L 64.182653,91.354149 L 66.345853,84.759516 z" /><path
     d="M 53.363633,106.20832 L 55.567363,112.83197 L 62.592733,112.82391 L 56.888813,116.93855 L 59.067533,123.5282 L 53.338583,119.44752 L 47.659743,123.5282 L 49.822973,116.89154 L 44.134543,112.82391 L 51.200443,112.8029 L 53.363633,106.20832 z"
     style="fill:#e6e6e6;fill-opacity:1;stroke:#000000;stroke-width:0.28222224;stroke-miterlimit:4;stroke-dasharray:none;stroke-dashoffset:0;stroke-opacity:1"
     id="path2423" /></g><path
   style="fill:#e6e6e6;fill-opacity:1;fill-rule:evenodd;stroke:#000000;stroke-width:0.28222224;stroke-linecap:butt;stroke-linejoin:miter;stroke-miterlimit:4;stroke-dasharray:none;stroke-opacity:1"
   d="M 103.16632,51.119522 L 94.211212,42.076609 L 107.73168,28.556136 L 94.123412,15.035662 L 103.16632,5.9927497 L 116.86239,19.425426 L 130.29507,5.9927497 L 139.42578,14.947867 L 125.9931,28.556136 L 139.42578,42.164404 L 130.55845,51.207318 L 116.86239,37.77464 L 103.16632,51.119522 z"
   id="path2425" /></svg>