<?xml version="1.0" encoding="UTF-8"?>
<!DOCTYPE svg PUBLIC "-//W3C//DTD SVG 1.1//EN" "http://www.w3.org/Graphics/SVG/1.1/DTD/svg11.dtd">
<!-- Creator: CorelDRAW -->
<svg xmlns="http://www.w3.org/2000/svg" xml:space="preserve" width="160mm" height="160mm" shape-rendering="geometricPrecision" text-rendering="geometricPrecision" image-rendering="optimizeQuality" fill-rule="evenodd" clip-rule="evenodd"
viewBox="0 0 1.6e+007 1.6e+007"
 xmlns:xlink="http://www.w3.org/1999/xlink"
 xmlns:dc="http://purl.org/dc/elements/1.1/"
 xmlns:cc="http://web.resource.org/cc/"
 xmlns:rdf="http://www.w3.org/1999/02/22-rdf-syntax-ns#"
 xmlns:svg="http://www.w3.org/2000/svg"
 xmlns:sodipodi="http://sodipodi.sourceforge.net/DTD/sodipodi-0.dtd"
 xmlns:inkscape="http://www.inkscape.org/namespaces/inkscape"
 version="1.0"
 sodipodi:version="0.32"
 inkscape:version="0.44"
 sodipodi:docname="Flag_of_Macau.svg"
 sodipodi:docbase="C:\Documents and Settings\Zachary\Desktop\My Pictures\SVG">
 <g id="Camada_x0020_1">
  <metadata id="CorelCorpID_0Corel-Layer"/>
  <sodipodi:namedview inkscape:window-height="573" inkscape:window-width="853" inkscape:pageshadow="2" inkscape:pageopacity="0.0" borderopacity="1.0" bordercolor="#666666" pagecolor="#ffffff" id="base" inkscape:zoom="0.85692855" inkscape:cx="375.00018" inkscape:cy="163.5842" inkscape:window-x="9" inkscape:window-y="5" inkscape:current-layer="svg672" showguides="true" inkscape:guide-bbox="true"/>
  <path fill="#00785E" d="M8.00001e+006 0c4.41754e+006,0 7.99999e+006,3.58245e+006 7.99999e+006,7.99999e+006 0,4.41754e+006 -3.58245e+006,8.00001e+006 -7.99999e+006,8.00001e+006 -4.41754e+006,0 -8.00001e+006,-3.58247e+006 -8.00001e+006,-8.00001e+006 0,-4.41754e+006 3.58247e+006,-7.99999e+006 8.00001e+006,-7.99999e+006z"/>
  <path fill="white" d="M8.00001e+006 407040c4.19276e+006,0 7.59295e+006,3.40019e+006 7.59295e+006,7.59295e+006 0,4.19278e+006 -3.40019e+006,7.59296e+006 -7.59295e+006,7.59296e+006 -4.19278e+006,0 -7.59296e+006,-3.40018e+006 -7.59296e+006,-7.59296e+006 0,-4.19276e+006 3.40018e+006,-7.59295e+006 7.59296e+006,-7.59295e+006z"/>
  <path fill="#00785E" d="M8.00001e+006 2.12916e+006c3.24182e+006,0 5.87083e+006,2.62901e+006 5.87083e+006,5.87083e+006 0,3.24184e+006 -2.62901e+006,5.87085e+006 -5.87083e+006,5.87085e+006 -3.24184e+006,0 -5.87085e+006,-2.62901e+006 -5.87085e+006,-5.87085e+006 0,-3.24182e+006 2.62901e+006,-5.87083e+006 5.87085e+006,-5.87083e+006z"/>
  <path id="path678" fill="white" d="M8.00001e+006 9.85725e+006c-466130,320320 -955710,1.01515e+006 -2.0889e+006,1.01515e+006 -1.60231e+006,0 -2.19698e+006,-469490 -2.67266e+006,-825090 -17700,-52420 407100,-244620 407100,-244620 643160,448450 1.3571e+006,844470 2.69059e+006,786240 -1.64621e+006,-145590 -2.76136e+006,-1.04245e+006 -3.09769e+006,-1.86943e+006 890950,-617330 2.36605e+006,-605690 3.57561e+006,244570 -377600,-465890 -1.64028e+006,-984190 -2.58434e+006,-838590 -135740,-139800 -253710,-314500 -389450,-454280 1.08567e+006,-238780 2.59619e+006,448450 3.15082e+006,1.01334e+006 -584130,-925950 -1.00897e+006,-1.97425e+006 -318620,-3.24964e+006 135690,128130 289120,256250 424800,384380 -519200,937600 -330400,2.03248e+006 88540,2.79537e+006 -725760,-1.47923e+006 -141650,-2.94098e+006 814200,-3.65147e+006 955860,710490 1.53997e+006,2.17224e+006 814210,3.65147e+006 418940,-762890 607740,-1.85777e+006 88540,-2.79537e+006 135670,-128130 289110,-256250 424800,-384380 690350,1.27539e+006 265500,2.32369e+006 -318620,3.24964e+006 554630,-564890 2.06514e+006,-1.25212e+006 3.15081e+006,-1.01334e+006 -135730,139780 -253710,314480 -389440,454280 -944060,-145600 -2.20674e+006,372700 -2.58435e+006,838590 1.20957e+006,-850260 2.68467e+006,-861900 3.57562e+006,-244570 -336330,826980 -1.45149e+006,1.72384e+006 -3.09769e+006,1.86943e+006 1.33349e+006,58230 2.04743e+006,-337790 2.69058e+006,-786240 0,0 424810,192200 407110,244620 -475680,355600 -1.07034e+006,825090 -2.67267e+006,825090 -1.13318e+006,0 -1.62276e+006,-694830 -2.0889e+006,-1.01515e+006z" sodipodi:nodetypes="cscccccccccccccccccccccccsc"/>
  <path id="path683" fill="white" d="M8.00001e+006 1.01664e+007c-667100,552490 -1.06915e+006,901830 -1.95329e+006,901830l-3.20292e+006 -4280c67400,127060 140520,251110 218110,371660l3.06186e+006 4280c1.2121e+006,0 1.87624e+006,-766890 1.87624e+006,-766890 0,0 664150,766890 1.87625e+006,766890l2.9849e+006 -3210c77520,-120380 149670,-244780 217030,-371660l-3.12488e+006 3210c-884150,0 -1.28619e+006,-349340 -1.9533e+006,-901830z"/>
  <polygon id="path2195" fill="#FBD116" fill-rule="nonzero" points="8.00003e+006,2.40943e+006 8.24376e+006,3.14975e+006 9.03243e+006,3.14978e+006 8.3944e+006,3.60736e+006 8.63808e+006,4.34769e+006 8.00003e+006,3.89017e+006 7.36196e+006,4.34769e+006 7.60564e+006,3.60736e+006 6.96761e+006,3.14978e+006 7.75628e+006,3.14975e+006 " inkscape:randomized="0" inkscape:rounded="0" inkscape:flatsided="false" sodipodi:arg2="-0.9424778" sodipodi:arg1="-1.5707963" sodipodi:r2="7.3714867" sodipodi:r1="19.297085" sodipodi:cy="102.52354" sodipodi:cx="329.76291" sodipodi:sides="5" sodipodi:type="star"/>
  <polygon fill="#FBD116" fill-rule="nonzero" points="3.25943e+006,5.7196e+006 3.73918e+006,5.82022e+006 3.98443e+006,5.40099e+006 4.0357e+006,5.88243e+006 4.51545e+006,5.9831e+006 4.06739e+006,6.18002e+006 4.11864e+006,6.66145e+006 3.79045e+006,6.30172e+006 3.34238e+006,6.49859e+006 3.58759e+006,6.07935e+006 "/>
  <polygon fill="#FBD116" fill-rule="nonzero" points="4.92443e+006,3.56463e+006 5.28892e+006,3.88853e+006 5.71368e+006,3.64651e+006 5.51421e+006,4.08876e+006 5.87869e+006,4.41268e+006 5.39091e+006,4.3621e+006 5.19141e+006,4.80433e+006 5.08942e+006,4.33083e+006 4.60164e+006,4.2802e+006 5.02639e+006,4.03814e+006 "/>
  <polygon fill="#FBD116" fill-rule="nonzero" points="1.27406e+007,5.7196e+006 1.22609e+007,5.82022e+006 1.20156e+007,5.40099e+006 1.19643e+007,5.88243e+006 1.14846e+007,5.9831e+006 1.19327e+007,6.18002e+006 1.18814e+007,6.66145e+006 1.22096e+007,6.30172e+006 1.26577e+007,6.49859e+006 1.24124e+007,6.07935e+006 "/>
  <polygon fill="#FBD116" fill-rule="nonzero" points="1.10756e+007,3.56463e+006 1.07111e+007,3.88853e+006 1.02864e+007,3.64651e+006 1.04858e+007,4.08876e+006 1.01214e+007,4.41268e+006 1.06091e+007,4.3621e+006 1.08086e+007,4.80433e+006 1.09106e+007,4.33083e+006 1.13984e+007,4.2802e+006 1.09737e+007,4.03814e+006 "/>
  <path id="rect2205" fill="white" fill-rule="nonzero" d="M3.07652e+006 1.17687e+007c38970,43310 78700,86310 119270,128550l9.60844e+006 0c40560,-42240 80300,-85240 119280,-128550l-9.84699e+006 0z"/>
  <path id="rect2205_0" fill="white" fill-rule="nonzero" d="M3.6049e+006 1.22828e+007c104410,88920 212630,174630 324480,257070l8.14126e+006 0c111840,-82440 220070,-168150 324470,-257070l-8.79021e+006 0z"/>
  <path id="rect2205_1" fill="white" fill-rule="nonzero" d="M4.3077e+006 1.27969e+007c225930,141760 463300,270450 711800,385570l5.96102e+006 0c248510,-115120 485860,-243810 711790,-385570l-7.38461e+006 0z"/>
  <path fill="#00785E" fill-rule="nonzero" d="M4.03113e+006 1.39845e+007l166620 100120 411830 -701460 2360 1420 -109320 883220 151250 90890 730890 -509750 2370 1430 -426010 692930 166620 100120 506950 -843720 -252880 -151950 -686400 478560 97920 -832150 -255250 -153360 -506950 843700zm2.28068e+006 575930l266250 -361270 62820 443320 -329070 -82050zm-472480 292820l216930 54080 158000 -212080 449470 112050 41290 261790 223380 55690 -187250 -1.06113e+006 -238100 -59360 -663720 848960zm2.82793e+006 -331120c-33130,-210850 -218730,-380600 -557390,-362850 -386860,20270 -536610,271100 -522100,547810 14490,276720 196550,510350 551730,491740 404730,-21210 521870,-236010 540530,-433030l-223020 11690c-11110,104130 -75050,253810 -289810,265060 -203740,10680 -352990,-123690 -363740,-328840 -13410,-256050 121750,-390140 311730,-400090 173480,-9100 300610,72600 329050,220200l223020 -11690zm983740 54630l49960 -446010 276070 352530 -326030 93480zm-262760 489810l214890 -61610 30810 -262670 445270 -127690 166650 206060 221300 -63460 -692720 -825340 -235880 67640 -150320 1.06707e+006zm1.54849e+006 -951450c83790,139440 237010,383760 644690,138810 408870,-245670 265090,-495670 181300,-635110l-288980 -480940 -177250 106500 286130 476200c70290,116990 150780,261640 -80840,400810 -230410,138470 -320340,-520 -390630,-117510l-286150 -476200 -177250 106510 288980 480930z"/>
  <path fill="#00785E" fill-rule="nonzero" d="M1.44724e+006 8.23053e+006l12170 99100 -85070 10440 37680 306890 422690 -51910 12190 99310 -422690 51890 37760 307490 90380 -8740 12180 99290 -555420 68190 -50230 -409100 -229770 28220 -12340 -100560 230060 -25710 -50010 -407220 550420 -67580zm-164690 120800l-281780 34600 37680 306890 281780 -34600 -37680 -306890zm49880 406180l-281790 34600 38040 309810 281780 -34600 -38030 -309810zm-294420 -2.42188e+006l-58200 299370 81680 15870 -18810 96770 -81670 -15870 -56440 290260 81680 15880 -18790 96750 -81690 -15880 -57820 297520 -92210 -17930 57820 -297510 -88890 -17280 18810 -96750 88890 17290 56430 -290280 -88900 -17280 18810 -96760 88900 17270 58190 -299350 92210 17910zm758370 137330l-97370 500960 198680 38620 -18370 94470 -198680 -38620 -95040 488960 -85380 -16590 95040 -488960 -89730 -17440 -79850 410810 -85390 -16600 26280 -135220 -112670 -21900 -44050 226600 -92010 -17890 44050 -226590 -107910 -20970 -25810 132720 -90770 -17650 177560 -913400 90760 17650 -27080 139340 107920 20980 44160 -227220 91990 17890 -44150 227200 112670 21920 27090 -139340 85390 16590 -79820 410590 89740 17440 97360 -500950 85390 16600zm-528320 234380l-107920 -20990 -34220 176160 107900 20980 34240 -176150zm-52590 270630l-107920 -20980 -34970 179880 107920 20980 34970 -179880zm257280 -230850l-112670 -21900 -34250 176160 112680 21900 34240 -176160zm-52610 270630l-112670 -21900 -34980 179870 112690 21900 34960 -179870zm1.03796e+006 -2.03897e+006l43470 101130c-201610,159750 -423450,234320 -665820,223320 144850,159350 231500,372200 259880,638720l-99790 37140c-9640,-107930 -30940,-207790 -63880,-299590 -32850,-92030 -72400,-170660 -118580,-236120 -46080,-65630 -105070,-121500 -176630,-167410 -71450,-46100 -183120,-105140 -334720,-177220l42540 -91250c47710,21320 109060,53180 184000,95320 74910,42140 135160,73960 180580,95140 31690,14770 94120,19950 186890,15340 92980,-4510 187040,-24340 282080,-59710 95250,-35300 188650,-93540 279980,-174810zm811580 -1.44121e+006c62040,56750 106680,103930 133810,141420 27220,37320 26620,74000 -1510,110020 -20230,25890 -64550,54590 -132890,85930 -68320,31350 -150510,47600 -246230,48690 -96050,1140 -186060,-17060 -270770,-54380l-195270 249950 269850 210820 147650 -298100 79670 62250 -235900 470240 -104700 -19250 64920 -126200 -752170 -587670 529590 -677820 273170 213430 -233280 298590c42820,33460 87190,61190 133400,83100l280730 -359320 72860 56930 -265940 340400c87130,37610 183990,45670 291200,24130 107050,-21410 172570,-47470 196300,-77830 14260,-18260 -30240,-65330 -133310,-141030l98820 -54300zm-577440 -145920l-127460 -99580 -404290 517480 127460 99590 404290 -517490zm-27030 438600c-21620,-9950 -65470,-38330 -131970,-84930l-172450 220730 123150 96210 181270 -232010zm1.71109e+006 -1.49133e+006l56960 77670 -811580 634090 -59270 -75860 203300 -158840 -180170 -226490 -143380 112040 -59270 -75840 147230 -115040 -149380 -191180 75850 -59260 149370 191190 248960 -194490 -149370 -191210 78820 -61580 149370 191190 144400 -112800 59250 75840 -144380 112810 178170 228030 205120 -160270zm-283960 221870l-178170 -228040 -248960 194500 178170 228050 248960 -194510zm572210 112870l-20970 91510c-132790,-33120 -294810,-36950 -486070,-11810l10640 -97580c197290,-24240 362640,-18200 496400,17880zm-646670 179430c-9870,186790 -48350,353430 -115630,500620l-92610 -30280c68210,-142570 103180,-298980 104740,-469380l103500 -960zm1.59372e+006 -975790l-53570 82600c-84030,-80760 -157710,-128730 -221180,-143630l194590 506910 -90840 34880 -177980 -463650c-5880,89340 -45130,205700 -118190,348580l-105350 -28150c105560,-179940 154630,-349480 147240,-508620l-225350 86490 -33200 -86510 229850 -88230 -57060 -148640c-108180,61370 -175640,97190 -202600,107530l-67350 -67320c200070,-93030 342830,-188900 428230,-287330l79930 46030c-29320,37640 -81200,86430 -156050,146520l64770 168710 200560 -76990 33210 86510 -200570 76990 32470 84550 23240 -34630c104840,24500 196720,76980 275200,157400zm491780 145110l-89850 34500 -45130 -117590 -188370 72310 45130 117590 -89860 34490 -339650 -884820 368080 -141300 339650 884820zm-168200 -169620l-228160 -594390 -188370 72310 228160 594400 188370 -72320zm1.75159e+006 -62600l-95550 11740 -7080 -57710 -788930 96880 7520 61260 -95530 11720 -130390 -1.06196e+006 980010 -120320 129950 1.05839e+006zm-113900 -137730l-100380 -817580 -788930 96870 100380 817570 788930 -96860zm-54630 -237530c-2340,100020 -9390,165390 -21760,195990 -12180,30350 -30490,47230 -54940,50250 -33020,4050 -82200,-37030 -147520,-123000 -51830,73820 -99910,128110 -144300,162430l-84500 -45430c92690,-91810 152420,-160250 178680,-205500 -39790,-82110 -74440,-200070 -103720,-353930l-403670 49570 -11200 -91360 401150 -49260 -14200 -115600 95540 -11740 14190 115600 84050 -10320c-20520,-21870 -47010,-42390 -79100,-61790l82500 -57250c30710,25300 66510,61240 107070,108030l42690 -6510 11060 90090 -237060 29110c19170,104160 41300,192900 66830,265960 30350,-74170 54010,-158150 71140,-251920l88380 37110c-29910,117620 -67620,221760 -113180,312240 40080,67220 65570,100170 76000,98890 7740,-960 9740,-53820 6010,-158610l89860 26950zm-366330 4440l-342420 42040 -32550 -265060 342420 -42040 32550 265060zm-106170 -80110l-10010 -81520 -156800 19240 10010 81530 156800 -19250zm134660 186110l-362590 124740 -49420 -79230 397650 -133290 14360 87780zm2.116e+006 -4790c-30930,-2080 -62510,-5960 -94910,-11640l68050 -554190 -529740 -65030 -67600 550620 -98660 -12110 78830 -641970 250420 30740c29130,-14240 61390,-48910 96830,-104190l86230 46030c-6130,13680 -26540,38140 -61170,73130l350990 43100 -79270 645510zm-668470 -621690l-82670 61370c-29550,-59860 -84210,-122810 -164000,-188620l74970 -59120c76430,56690 133550,118660 171700,186370zm575740 505910l-67890 57020c-42160,-55880 -85450,-95580 -130300,-119330l-8120 66270 -95530 -11730 11200 -91340c-29620,49400 -86850,86930 -171700,112590l-49660 -81220c67750,-12480 120770,-43310 158640,-92560l-131540 -17420 9670 -78810 93230 11450c-18410,-29650 -37790,-51550 -58550,-65750l73790 -39320c40840,28550 66650,67370 77160,116410l15260 1880 14380 -117070c-39260,60 -94050,-3050 -164130,-9550l-38390 -91710c24600,5350 50360,9780 77320,13090 135050,16590 257950,11100 368750,-16890l43430 81940c-53930,13970 -117240,21470 -189940,22510l-15890 129400 13600 1680c39460,-34630 69960,-75460 91420,-122460l82880 49220c-30300,48050 -52950,76890 -67900,86300l72950 8950 -9670 78810 -192950 -23690 -3700 30100 33190 -21370c50260,22710 103180,66980 158990,132600zm-659530 -269390l-86580 62150c-39950,-78970 -94550,-145720 -163670,-199820l72280 -58200c73690,51280 133160,116720 177970,195870zm-14580 170510c-49300,204440 -121500,360460 -216630,468230l-94590 -55750c106460,-120390 180380,-271320 222160,-452700l89060 40220zm856510 531680l-72290 82360c-214690,-69430 -341370,-173260 -379370,-311400 -81590,130450 -236340,200160 -464700,209050l-48810 -103620c215070,730 352920,-43440 413520,-132570l-341180 -41880 11270 -91770 381720 46860c10150,-18690 19490,-48110 28200,-87990l94680 29030c-4100,23040 -11670,46730 -22530,71290l379820 46630 -11270 91770 -322130 -39550c41310,104170 159160,181450 353070,231790zm1.42307e+006 487190c-7930,20650 -21560,36160 -40410,46540 -18870,10340 -39720,14080 -61970,10940 -22460,-3190 -70620,-18760 -144360,-47060l-1840 -103360 113860 47770c11660,4920 23460,4720 34970,-570 11420,-5080 19480,-13720 24090,-25720l158940 -414080 -317550 -121910 169370 -441240 407420 156400 -342520 892290zm186990 -755720l32530 -84750 -227690 -87400 -32540 84750 227700 87400zm-70720 184240l37600 -97920 -227690 -87410 -37600 97920 227690 87410zm-431740 -67130l-317360 -121830 -216920 565100 -89860 -34500 386280 -1.00634e+006 407230 156330 -169370 441240zm12340 -300720l34030 -88690 -227500 -87330 -34030 88680 227500 87340zm-69220 180290l36230 -94390 -227500 -87320 -36230 94370 227500 87340zm2.07696e+006 1.31636e+006l-495210 -373180 55760 -74010 203550 153390 101650 -134900 -166190 -125230 55780 -74020 166180 125230 97990 -130040 76870 57940 -97990 130010 178810 134760 -55770 74020 -178830 -134760 -101650 134900 214820 161880 -55770 74010zm-566290 -289340l-131770 -31250 -273660 363160 -76870 -57930 246910 -327670 -164180 -40390 -9040 -104890 236340 61510 154510 -205040 -70310 -52990c-40430,32310 -100980,67900 -181580,106590l-43080 -90480c116350,-45250 222330,-120460 317860,-226220l58290 75570c-18710,22050 -43540,47640 -74820,76540l49290 37140 158950 -210920 76870 57920 -158950 210940 90840 68450 -55650 73820 -90830 -68430 -126250 167530 127980 36290 -60850 80750zm454270 479970l-116730 -87960 -165940 220190c-22040,29260 -47100,45720 -75290,49520 -28200,3810 -64000,-10250 -107900,-42270l-75110 -55040 25040 -103210c45490,40080 77860,67110 96520,81170 29280,22060 50760,24000 64690,5500l161100 -213790 -341950 -257690 55380 -73490 341960 257680 68700 -91180 76890 57930 -68720 91180 116750 87960 -55390 73500zm-384990 -68300l-95700 4880c-1010,-97010 -22380,-179580 -64450,-247670l89460 -9870c42530,65020 66070,149230 70690,252660zm1.23809e+006 1.48178e+006c-22420,18160 -45880,26330 -70720,24470 -24660,-1690 -45620,-13190 -62980,-34610l-80320 -99200 37030 -122940 93300 130960c13980,19270 31730,20100 53500,2470l764380 -618980 60310 74460 -794500 643370zm90740 -584070c-74150,60050 -155270,113820 -243080,161360 -87630,47400 -148300,70210 -181890,67880 -33460,-2180 -65390,-21850 -95740,-59330 -27440,-33880 -54300,-81770 -80450,-143530l67440 -83370c37730,87080 59970,134950 66980,143620 12330,15220 29690,25280 51640,30280 21930,5000 71690,-15220 148930,-60700 77390,-45350 120070,-72290 127840,-80760l-151900 -187590c-172040,103830 -340800,135050 -506370,93250l7150 -104970c64620,21910 144100,25310 238190,10350 94120,-14670 220260,-85120 378280,-210920l-73810 -91170 311640 -252380 334010 412470 -311650 252380 -198030 -244530 -103100 83500 213920 264160zm98510 -236130l167760 -135840 -212880 -262880 -167760 135860 212880 262860zm-192470 557520l-60180 -74330 572540 -463630 60180 74310 -572540 463650zm1.34825e+006 698270c-188440,-28330 -336640,-73080 -444740,-134460l24230 -104490c130790,76120 278130,125000 441980,146450l-21470 92500zm148820 633130l-229470 -492110 84000 -39170 229470 492100 -84000 39180zm-396560 -456240c-42350,-2120 -126290,-19670 -251940,-52880l-527970 246200 -40420 -86650 437320 -203920c-92060,-51420 -142460,-80230 -151230,-86120l39110 -100510c130170,91290 299920,155280 509410,191920l-14280 91960zm151300 655870l-95500 -204800 -479890 223770c-68890,32130 -123210,5870 -162910,-79280 -21360,-45810 -39300,-86240 -53780,-121320l74490 -67980c32030,76170 50800,120400 56320,132230 9810,21010 19530,33900 29200,38680 9670,4800 22520,3450 38540,-4030l455830 -212560 -137440 -294720 83430 -38890 275120 590010 -83410 38890zm-198800 1.85365e+006l-95250 -47350c46110,-108310 107640,-206740 184600,-295510 -102730,-49340 -199550,-123620 -291000,-223200l62420 -76300c92580,103230 194190,180050 305070,230570 57690,-49840 130540,-94450 218490,-134290 -47100,-5020 -96840,-18080 -149140,-38820l22110 -103640c64120,28530 140400,50170 228490,65020 88220,14590 180750,14850 277730,520 96820,-14120 160770,-25040 191470,-32730l8530 101330c-77720,14030 -156510,23770 -236260,29610l67470 347130 -90970 17700 -17560 -90370c-174360,23610 -341460,6110 -501650,-52020 -97390,96160 -158920,196950 -184550,302350zm667630 -345840l-33800 -173870 -76540 280c-29150,5670 -75960,25290 -140540,58440 -64520,33360 -114710,63290 -150510,89990 139730,37840 273530,46160 401390,25160zm-570660 -167550l-326190 -553240 73450 -84660 60490 111390 567100 -110230 19050 98000 -537340 104440 61370 102660 689290 -133990 -51360 -264230 90960 -17680 111400 573110 -90950 17680 -41000 -210870 -273730 53190 29650 152580 -90750 17650 -29670 -152580 -290270 56420 133920 219860 -105420 20500zm-233230 2.09761e+006l110750 -902040 -82780 -10160 12050 -98050 1.08599e+006 133350 -119060 969560 -95120 -11680 107010 -871510 -811930 -99700 -110750 902030 -96160 -11800zm582810 -94380l69250 -564010 283670 34850 -69250 563990 -283670 -34830zm98620 -84230l110170 13530 45950 -374200 -110180 -13530 -45940 374200zm-516310 129920l42200 -343670 343460 42170 -42190 343670 -343470 -42170zm102870 -84340l160540 19720 18750 -152620 -160550 -19700 -18740 152600zm-56570 -323970l41740 -339920 347240 42650 -41740 339910 -347240 -42640zm103020 -83700l164100 20160 18350 -149450 -164100 -20160 -18350 149450z"/>
 </g>
</svg>
