<?xml version="1.0" encoding="UTF-8"?>
<!DOCTYPE svg PUBLIC "-//W3C//DTD SVG 1.1//EN" "http://www.w3.org/Graphics/SVG/1.1/DTD/svg11.dtd">
<!-- Creator: CorelDRAW X8 -->
<svg xmlns="http://www.w3.org/2000/svg" xml:space="preserve" width="221mm" height="360mm" version="1.1" shape-rendering="geometricPrecision" text-rendering="geometricPrecision" image-rendering="optimizeQuality" fill-rule="evenodd" clip-rule="evenodd"
viewBox="0 0 221000 360000"
 xmlns:xlink="http://www.w3.org/1999/xlink"
 xmlns:dc="http://purl.org/dc/elements/1.1/"
 xmlns:cc="http://creativecommons.org/ns#"
 xmlns:rdf="http://www.w3.org/1999/02/22-rdf-syntax-ns#"
 xmlns:svg="http://www.w3.org/2000/svg"
 xmlns:sodipodi="http://sodipodi.sourceforge.net/DTD/sodipodi-0.dtd"
 xmlns:inkscape="http://www.inkscape.org/namespaces/inkscape"
 inkscape:version="0.47 r22583"
 sodipodi:docname="Coat_of_arms_of_Guam.svg">
 <g id="Capa_x0020_1">
  <metadata id="CorelCorpID_0Corel-Layer"/>
  <sodipodi:namedview pagecolor="#ffffff" bordercolor="#666666" borderopacity="1" objecttolerance="10" gridtolerance="10" guidetolerance="10" inkscape:pageopacity="0" inkscape:pageshadow="2" inkscape:window-width="1280" inkscape:window-height="750" id="namedview28" showgrid="false" inkscape:zoom="0.56045266" inkscape:cx="706.05662" inkscape:cy="840.45398" inkscape:window-x="-4" inkscape:window-y="-4" inkscape:window-maximized="1" inkscape:current-layer="svg2"/>
  <path id="path794" fill="#92DBFC" d="M110812 21159c0,0 -97281,72418 -97281,157810 0,85404 97281,159872 97281,159872 0,0 96656,-68326 96656,-159872 0,-91540 -96656,-157810 -96656,-157810z"/>
  <path id="path798" fill="#008CE7" d="M197234 231211l-172521 -227c25560,61503 86099,107857 86099,107857 0,0 61560,-43520 86422,-107630z"/>
  <path fill="#9C8431" d="M203435 212394c-15925,11396 -105551,5923 -105551,5923l-5010 12757 106712 330c447,-1749 1514,-3828 1884,-5598l1965 -13412z"/>
  <path id="path799" fill="#FFDE52" d="M43071 265197c4541,150 9062,1108 13122,3286 7253,3808 11459,3778 19281,3896 8186,126 14611,6153 23463,6404 16296,457 23150,8552 10479,8545 -5991,-2 -18824,-4027 -25022,-3178 -9429,955 -14878,1676 -21857,7218 -6646,-7977 -13297,-16755 -19466,-26171zm32248 40634c4040,-2761 6823,-4923 10745,-5046 7621,-231 10219,-4947 19029,-4941 10009,1837 23575,-1199 31521,-2964 14095,-3251 7411,-13108 -1123,-16693 -6898,-2952 -19829,-145 -27850,-3076 -6071,-2369 -1065,-6153 2199,-6956 3298,-602 6832,483 10931,1150 7319,646 16514,-40 22944,-1036 13291,-2034 12738,-5931 19156,-6024 4679,-216 8243,-1608 11434,-3892 3751,-2501 7657,-7635 12196,-7433l2666 118c-28022,54215 -78355,89803 -78355,89803 0,0 -16266,-12453 -35493,-33010z"/>
  <path id="path804" fill="#8C4200" d="M139739 266122c1740,6725 3585,9013 10650,10739 6978,1730 17641,-5056 11034,-11639 -6291,-6125 -12911,-7690 -18546,-13206 -8738,-8664 -20726,-26573 -26425,-43514 -6229,-18517 -5147,-70642 -4864,-97051 3,-303 753,-487 840,-611 406,-586 792,186 158,-3687 -162,-992 -947,-2013 -945,-3019 10,-1788 -6179,1954 -7809,5149 -370,726 1186,2807 1187,3220 211,25335 -2515,75355 4210,97994 4165,14023 11757,24845 18634,34860 4122,6421 10085,13348 11876,20765z"/>
  <path id="path2840" fill="white" fill-rule="nonzero" d="M62656 191949c-83,-13 -396,-53 -695,-89 -2148,-263 -4447,-1172 -6127,-2423 -2399,-1785 -3981,-4645 -4511,-8151 -148,-981 -146,-3501 4,-4466 421,-2711 1413,-5100 2842,-6845 420,-512 1229,-1296 1724,-1670 1170,-885 2679,-1582 4269,-1973 1144,-280 1846,-369 3210,-405 1906,-51 3247,125 4751,623 1923,637 3422,1662 4474,3061 712,947 1636,3051 1766,4023 71,530 -141,920 -611,1123 -144,63 -886,281 -1648,486 -1535,412 -1754,426 -2097,136 -225,-189 -303,-337 -506,-958 -88,-266 -313,-798 -501,-1181 -289,-590 -411,-767 -803,-1161 -395,-397 -563,-514 -1152,-801 -1298,-635 -2758,-847 -4440,-645 -1233,148 -2566,650 -3402,1281 -1864,1407 -2904,4174 -2797,7445 146,4468 2037,6925 5929,7704 749,150 2378,150 3175,1 1166,-219 2869,-885 3835,-1500l343 -219 3 -1420 2 -1420 -3071 -23 -3071 -24 -194 -139c-106,-76 -256,-226 -332,-333 -136,-192 -138,-220 -135,-1889 3,-1669 5,-1697 142,-1888 77,-107 227,-257 334,-333l194 -138 5265 10 5264 10 192 137c106,76 255,240 332,364l140 226 12 4357c12,4648 1,4839 -279,5171 -82,98 -444,394 -803,658 -2487,1829 -5132,2917 -7853,3230 -699,81 -2739,111 -3173,48l0 0 -1 0z"/>
  <path id="path2842" fill="white" fill-rule="nonzero" d="M90186 192181c-2755,-211 -4837,-1028 -6351,-2493 -1495,-1446 -2237,-3254 -2569,-6259 -93,-842 -103,-1723 -92,-8533 11,-7329 15,-7602 126,-7824 63,-126 211,-303 329,-393l214 -162 1809 -15c1741,-15 1819,-11 2075,114 158,77 321,219 403,352l138 222 20 7867c17,6934 32,7940 119,8488 228,1425 456,1957 1121,2621 836,834 1709,1145 3365,1197 1522,49 2566,-121 3461,-560 1028,-506 1497,-1295 1848,-3110 132,-681 134,-794 183,-8557 55,-8794 13,-8064 484,-8422l222 -169 1884 3c2099,4 2034,-8 2372,437l170 224 5 7054c6,7080 -27,8567 -216,9898 -405,2841 -1345,4638 -3159,6038 -610,471 -860,630 -1460,930 -916,459 -1977,774 -3180,946 -625,89 -2685,155 -3321,106l0 0 0 0z"/>
  <path id="path2844" fill="white" fill-rule="nonzero" d="M114823 191799c-79,-16 -258,-145 -399,-286 -288,-289 -369,-555 -282,-923 105,-448 9023,-23454 9163,-23640 281,-374 361,-386 2448,-383 2087,4 2164,17 2448,392 79,103 2290,5461 4914,11906 4172,10247 4771,11757 4772,12029 0,350 -133,588 -459,820 -194,137 -203,138 -2287,134l-2092 -4 -229 -175c-291,-223 -282,-202 -1633,-3731 -618,-1615 -1150,-2985 -1180,-3043 -53,-99 -315,-106 -4193,-114 -3883,-7 -4139,-1 -4178,99 -24,58 -549,1493 -1167,3189 -618,1697 -1179,3172 -1245,3280 -67,107 -208,257 -314,332 -190,135 -223,137 -2069,142 -1031,3 -1940,-8 -2018,-24l0 0 0 0zm13359 -11779c-93,-256 -2304,-6172 -2360,-6312 -25,-64 -54,-38 -97,90 -104,307 -2368,6347 -2397,6395 -16,25 1089,47 2454,50l2482 5 -82 -228 0 0z"/>
  <path id="path2846" fill="white" fill-rule="nonzero" d="M147075 191775c-264,-80 -548,-380 -622,-659 -43,-158 -50,-4064 -25,-12089l39 -11856 163 -213c318,-416 290,-412 3146,-407 2378,5 2578,13 2774,117 116,62 267,196 336,298 69,101 1397,4001 2949,8667 1553,4665 2837,8482 2854,8482 17,1 1341,-3789 2942,-8420 1820,-5267 2971,-8509 3071,-8656 317,-464 289,-460 2905,-455 2228,4 2331,8 2542,128 121,69 288,226 371,349l151 224 -22 11921c-21,11236 -28,11932 -128,12114 -59,106 -206,269 -329,362l-222 169 -1820 -3c-1800,-3 -1823,-5 -2014,-142 -107,-77 -257,-227 -333,-334l-138 -194 -17 -6838 -18 -6838 -321 907c-177,499 -1260,3602 -2408,6894 -2009,5764 -2095,5996 -2328,6234 -144,147 -323,263 -442,287 -110,21 -872,38 -1693,36 -1427,-2 -1504,-9 -1761,-139 -149,-75 -326,-221 -394,-325 -68,-103 -1179,-3311 -2468,-7129 -1289,-3818 -2365,-6942 -2390,-6942 -25,0 -51,3093 -58,6874 -14,7702 20,7141 -457,7456l-244 161 -1698 7c-936,5 -1786,-18 -1892,-49l0 0 -1 1z"/>
  <path id="path2832" fill="#BD0728" fill-rule="nonzero" d="M62493 190895c-3085,-354 -5866,-1723 -7547,-3716 -1413,-1676 -2325,-3892 -2624,-6375 -98,-819 -94,-2761 9,-3546 353,-2707 1424,-5232 2959,-6973 2616,-2970 8049,-4165 12463,-2743 2779,896 4436,2594 5375,5506 132,408 228,752 214,764 -30,26 -2401,672 -2579,702 -103,17 -157,-76 -311,-534 -434,-1291 -1102,-2358 -1848,-2954 -1615,-1290 -3894,-1760 -6570,-1353 -1712,259 -3410,1137 -4386,2267 -1461,1691 -2187,3767 -2276,6511 -89,2712 400,4781 1536,6494 1844,2781 6130,4023 9945,2882 1217,-365 2545,-1000 3483,-1667l431 -307 5 -2196 4 -2196 -3447 -6 -3447 -6 3 -1346 2 -1346 4924 9 4924 9 -8 4287 -8 4286 -542 400c-2213,1628 -4436,2618 -6817,3036 -875,153 -2973,214 -3867,111l0 0z"/>
  <path id="path2834" fill="#BD0728" fill-rule="nonzero" d="M89784 191105c-2231,-243 -3975,-966 -5206,-2160 -1122,-1088 -1767,-2441 -2101,-4409 -239,-1411 -258,-2144 -245,-9668l13 -7369 1507 2 1507 3 11 7862c12,8364 7,8223 326,9486 407,1606 1604,2798 3311,3296 1368,399 3218,405 4771,16 1846,-462 2839,-1453 3344,-3338 386,-1439 380,-1303 422,-9635l39 -7664 1507 2 1506 3 -14 7107c-8,4097 -42,7510 -81,8059 -258,3604 -1194,5553 -3377,7030 -862,583 -2028,1028 -3316,1267 -561,103 -3281,180 -3924,110l0 0 0 0z"/>
  <path id="path2836" fill="#BD0728" fill-rule="nonzero" d="M115292 190456c72,-190 2086,-5408 4476,-11596l4346 -11251 1634 -15 1634 -14 4686 11515c2578,6333 4705,11567 4729,11630 39,108 -67,115 -1667,112l-1708 -3 -298 -772c-164,-425 -767,-1999 -1340,-3499l-1042 -2726 -4915 -26 -4916 -26 -1278 3510 -1278 3511 -1597 -3 -1597 -3 131 -344 0 0zm14443 -9264c-18,-63 -686,-1859 -1486,-3991 -800,-2131 -1697,-4609 -1993,-5505 -297,-896 -553,-1643 -569,-1660 -17,-16 -128,377 -247,873 -395,1643 -773,2774 -2171,6482 -761,2020 -1405,3724 -1430,3787 -43,108 171,115 3941,122 3765,7 3985,1 3955,-108l0 0z"/>
  <path id="path2838" fill="#BD0728" fill-rule="nonzero" d="M147479 179173l21 -11622 2278 21 2277 21 3077 9263c1692,5094 3174,9581 3293,9971 119,389 228,697 241,684 13,-13 395,-1114 848,-2446 452,-1332 1993,-5803 3425,-9935l2602 -7512 2042 -13 2042 -13 -21 11622 -22 11621 -1444 -3 -1445 -2 18 -9763c10,-5369 -6,-9734 -36,-9700 -30,34 -1460,4092 -3177,9018 -1717,4926 -3240,9288 -3384,9694l-262 738 -1360 -3 -1361 -2 -3318 -9838c-1826,-5410 -3343,-9881 -3373,-9936 -29,-54 -62,4370 -73,9832l-21 9929 -1444 -2 -1444 -3 21 -11621 0 0z"/>
  <path id="path805" fill="#109421" d="M46620 103968c439,604 376,3208 376,3208 357,219 6186,-4958 6187,-4727 3,1093 137,3339 137,3339 0,0 6029,-5735 6279,-5130 279,674 -20,4001 -20,4001 0,0 4012,-4427 4749,-5222 528,-569 440,716 495,2801 10,368 6576,-4849 6977,-4937 849,-188 1110,2704 1065,3428 -33,539 6063,-3477 5794,-2948 0,0 447,3088 447,3088 1699,-235 5747,-1744 8181,-1352 782,126 742,521 45,803 -11728,4746 -20753,11906 -26013,21888 -1788,3394 -2332,6358 -1862,7106 0,0 2110,-4540 4486,-5249 317,-95 533,2909 857,2734 0,0 1799,-4549 3099,-6224 348,-449 933,2388 1299,1967 0,0 935,-3046 2769,-5167 262,-303 734,2883 1024,2614 1896,-1754 3685,-6139 4398,-6467 496,-386 576,3647 1052,3301 0,0 2709,-5439 4327,-6427 1038,-633 1000,2975 1000,2975 2063,-2038 4338,-5413 5413,-6878 494,-674 223,4445 751,4646 682,261 5128,-3919 5629,-4007 330,-58 719,1192 -147,2193 -69,79 -5498,6341 -5498,6341 1057,200 1465,-98 2225,102 2253,593 -4218,4308 -4113,5000 0,0 3119,-55 2076,550 -750,434 -4873,5747 -4873,5558 0,-99 2070,45 2060,636 -20,1102 -3427,6774 -3464,6736 -184,-184 1833,-245 2106,317 502,1033 -3499,5621 -2719,6403 104,105 2286,32 3256,247 463,103 1778,8338 1448,8006 -78,-78 1400,-7719 2298,-10045 543,-1407 2296,2124 2436,1812 -71,0 -351,-5020 -105,-7309 68,-636 1325,669 1306,58 -43,-1386 -157,-2868 130,-4216 218,-1020 1286,1840 1702,1070 0,0 -1300,-4974 -759,-6371 358,-927 1228,2233 1797,2359 0,0 -317,-3867 282,-4865 0,0 1803,1938 1803,1938 397,-620 324,-6639 687,-7206 302,-471 2174,2257 2454,1829 250,-383 -791,-4855 -559,-5208 331,-505 2392,1242 2428,1206 841,-840 815,-2944 1163,-3724 947,-2119 6377,-2389 7017,-888 312,729 96,1673 -28,2805 47,47 2716,244 2741,34 0,0 -320,2492 -130,5235 25,366 2703,-90 2737,273 245,2587 -348,2821 -348,2821 26,190 1809,-272 1840,-71 194,1258 -211,2790 -1012,4267 -116,213 2553,-205 2594,41 326,1937 387,3478 52,6213 -27,223 2618,-1931 2656,-1711 402,2304 -60,4789 178,7177 54,549 1750,-1650 1905,-1015 153,630 -378,5189 -120,5448 0,0 2834,-143 3086,94 2243,2110 1813,5793 1813,5793 621,-454 387,-4890 -240,-8950 -65,-428 2182,-260 2113,-662 0,0 -2465,-1483 -3270,-5609 -173,-885 2374,-701 2374,-701 -707,-1624 -1949,-1932 -3001,-3494 -346,-513 2642,-745 2642,-896 3,-1554 -2522,-2295 -3826,-3915 -555,-690 2727,-726 2727,-726 -963,-1336 -4141,-1928 -5760,-3696 -885,-967 3223,-1911 3170,-2077 -447,-1418 -4311,-1866 -6181,-3465 -384,-329 2443,-1448 2443,-1448 -286,-603 -6446,-4660 -3314,-4288 1326,157 4010,2041 4222,1757 0,0 -118,-2365 157,-2650 1034,-1076 4590,4548 5798,4321 0,0 443,-4029 993,-4133 1298,-247 2882,5857 4169,5859 170,0 264,-3531 927,-3724 744,-215 1582,3958 2532,4879 877,851 886,-3259 1403,-2475 868,1257 1080,3886 2270,5040 777,753 921,-3622 1784,-3035 994,676 760,2946 1886,4066 531,528 892,-2892 1506,-2391 538,439 903,4625 1485,5287 741,842 1596,-2210 2367,-1722 552,349 424,3969 934,4749 1050,1603 1597,-1945 2292,-1398 482,372 1531,4529 1972,4862 976,739 1511,-1892 2253,-1524 535,265 1617,5622 2060,5483 293,-91 1010,-12210 -3650,-17320 -7603,-8338 -21207,-13149 -32315,-13270 0,0 5581,-1110 5730,-2033 297,-1844 3067,-1627 5001,-1203 340,75 161,-3255 204,-3271 1730,-41 3274,979 4924,1984 514,313 -1041,-3337 -493,-3022 2121,1224 4479,1587 5908,3072 379,394 -431,-2810 -431,-2810 1063,-254 3155,1270 3972,2704 399,702 -22,-3734 292,-2947 0,0 3696,1251 4095,2808 0,0 299,-2814 798,-2670 1478,390 2780,2895 3938,3251 0,0 -481,-2507 -101,-2411 2782,704 5804,2425 5798,2409 -1572,-3922 -7514,-8032 -17977,-9131 -1920,-201 -9711,-519 -16324,1015 -5411,1255 -9687,1966 -8812,1110 3580,-3504 9367,-3934 10956,-4746 1144,-585 -3831,-2505 -2851,-2779 981,-235 5433,-604 5433,-604 964,-750 -3233,-2224 -2608,-3316 1256,-2197 8673,-202 9304,-1029 206,-285 -3188,-2289 -3043,-2588 539,-1112 7141,826 7296,-148 0,0 -2002,-1490 -3426,-2717 -169,-145 5895,-1778 5895,-1778 -114,-114 -1041,-765 -2430,-1307 -1269,-493 5323,-2209 5323,-2209 -8357,-3822 -30049,7044 -34354,18318 -1114,2693 -1146,-231 -915,-2514 223,-2448 532,-4597 268,-6852 -78,-668 -1771,1777 -1888,1122 -429,-2389 851,-5019 266,-7675 -197,-895 -2445,2636 -2741,1745 -817,-2460 619,-5913 34,-9301 -228,-1322 -2353,2837 -3067,1650 -828,-1377 -468,-6465 -859,-7233 -322,-617 -2213,2435 -2370,1862 -2569,-9334 845,-10496 -4083,-5231 -170,180 -1263,-5520 -1452,-5326 -2017,4321 -5328,-3080 -6454,-2388 -847,522 2302,3382 2337,4671 16,622 -2894,664 -2894,664 60,1064 5538,4052 5713,5219 145,968 -3872,728 -3872,728 126,1305 4692,2545 4943,3934 138,763 -2139,935 -2064,1709 115,1191 4411,3542 4553,4758 98,846 -2745,1195 -2812,1981 -82,951 5702,4142 5707,5039 7,1265 -2304,615 -3354,1253 -1473,897 4739,4519 5002,5551 204,908 -2486,111 -2575,936 -116,1083 3042,2722 3769,4578 721,1838 -21,2302 -1058,1573 -2082,-1463 -10472,-10382 -12701,-12759 -3236,-3452 -9869,-7325 -16480,-7549 -687,210 3556,3212 3585,4303 7,277 -1908,693 -1824,778 1173,1177 4831,2573 4831,2573 0,0 -1051,1885 -1051,1885 246,556 1979,701 4754,1614 0,0 -2081,1286 -1928,1409 1473,1175 4322,2039 4322,2039 0,0 -2807,941 -2807,941 -160,543 6313,3134 6313,3134 0,0 -2024,1746 -1934,1836 498,500 5257,1599 5257,1599 81,81 -3363,1149 -3340,1171 1247,1252 4693,1657 5494,3722 0,0 474,1172 -887,950 -5357,-1944 -13659,-5969 -29753,-4389 -16449,2145 -28986,16445 -28769,17869 0,0 5880,-4219 6503,-3362z"/>
  <ellipse fill="#8C4200" transform="matrix(1.47373 -0.948778 0.678132 1.05284 106164 105007)" rx="1984" ry="2944"/>
  <ellipse fill="#8C4200" transform="matrix(-1.68316 -1.08361 -0.774502 1.20246 111957 108330)" rx="1984" ry="2944"/>
  <ellipse fill="#8C4200" transform="matrix(-1.79675 -1.15674 -0.826769 1.28361 107252 111622)" rx="1984" ry="2944"/>
  <rect fill="black" x="74702" y="245549" width="5239" height="3917"/>
  <path fill="#8C4200" d="M48500 248067c0,0 34418,2621 55522,-1912 0,0 1771,1204 -779,4179 -2549,2974 -8994,3611 -12535,4249 0,0 -849,1912 -779,2903 71,992 2231,886 3294,673 1062,-212 1062,-212 1062,-212 0,0 -496,3718 -13527,4214 -4273,162 -18369,457 -21352,-3719 0,0 2585,213 3258,0 673,-212 177,-2903 -71,-3293 -248,-389 -9136,0 -13810,-4320 -1155,-1236 -1707,-2546 -1707,-3011 0,-43 1424,249 1424,249zm17935 7224c0,0 9419,1204 20254,0 0,0 284,2053 -212,2832 -496,779 -12996,1381 -19299,284 -1017,-324 -1049,-1564 -743,-3116z"/>
  <path fill="#FDF9FF" d="M53287 246388c0,0 12772,-13573 8858,-41909 0,0 13308,3424 26870,22996 0,0 3958,3973 8606,18145l-44334 768z"/>
  <path fill="#C62139" d="M110850 1456c0,0 -109348,81401 -109348,177385 0,95998 109348,179703 109348,179703 0,0 108647,-76802 108647,-179703 0,-102894 -108647,-177385 -108647,-177385zm-38 19703c0,0 -97281,72418 -97281,157810 0,85404 97281,159872 97281,159872 0,0 96656,-68326 96656,-159872 0,-91540 -96656,-157810 -96656,-157810z"/>
 </g>
</svg>
